<svg width="470" height="471" viewBox="0 0 470 471" fill="none" xmlns="http://www.w3.org/2000/svg">
<g clip-path="url(#clip0_194_21849)">
<path d="M235.049 295.162C268.165 295.162 295.012 268.315 295.012 235.199C295.012 202.082 268.165 175.236 235.049 175.236C201.932 175.236 175.086 202.082 175.086 235.199C175.086 268.315 201.932 295.162 235.049 295.162Z" stroke="#282828"/>
<path d="M235.014 356.187C301.824 356.187 355.985 302.026 355.985 235.216C355.985 168.406 301.824 114.245 235.014 114.245C168.203 114.245 114.043 168.406 114.043 235.216C114.043 302.026 168.203 356.187 235.014 356.187Z" stroke="#282828"/>
<path d="M235.004 410.384C331.746 410.384 410.171 331.959 410.171 235.217C410.171 138.475 331.746 60.0493 235.004 60.0493C138.261 60.0493 59.8359 138.475 59.8359 235.217C59.8359 331.959 138.261 410.384 235.004 410.384Z" stroke="#282828"/>
<path d="M235.006 469.097C364.174 469.097 468.886 364.385 468.886 235.217C468.886 106.048 364.174 1.33594 235.006 1.33594C105.837 1.33594 1.125 106.048 1.125 235.217C1.125 364.385 105.837 469.097 235.006 469.097Z" stroke="#282828"/>
<path d="M275.643 181.521C280.355 181.521 284.175 185.342 284.175 190.054C284.175 194.766 280.355 198.586 275.643 198.586C270.93 198.586 267.11 194.767 267.109 190.054C267.109 185.342 270.93 181.521 275.643 181.521Z" fill="url(#paint0_linear_194_21849)" stroke="#282828"/>
<path d="M180.816 244.751C185.529 244.752 189.349 248.572 189.349 253.285C189.348 257.997 185.529 261.817 180.816 261.817C176.104 261.817 172.283 257.997 172.283 253.285C172.283 248.572 176.104 244.751 180.816 244.751Z" fill="url(#paint1_linear_194_21849)" stroke="#282828"/>
<path d="M176.287 118.291C180.999 118.291 184.819 122.111 184.819 126.824C184.819 131.536 180.999 135.356 176.287 135.356C171.575 135.356 167.754 131.536 167.754 126.824C167.754 122.111 171.575 118.291 176.287 118.291Z" fill="url(#paint2_linear_194_21849)" stroke="#282828"/>
<path d="M113.043 100.228C117.755 100.228 121.575 104.048 121.575 108.761C121.575 113.473 117.755 117.293 113.043 117.293C108.331 117.293 104.51 113.473 104.51 108.761C104.51 104.048 108.33 100.228 113.043 100.228Z" fill="url(#paint3_linear_194_21849)" stroke="#282828"/>
<path d="M293.713 59.5771C298.425 59.5774 302.245 63.398 302.245 68.1104C302.245 72.8225 298.425 76.6424 293.713 76.6426C289.001 76.6426 285.18 72.8227 285.18 68.1104C285.18 63.3978 289 59.5771 293.713 59.5771Z" fill="url(#paint4_linear_194_21849)" stroke="#282828"/>
<path d="M149.182 375.723C153.894 375.723 157.714 379.544 157.714 384.256C157.714 388.969 153.894 392.788 149.182 392.789C144.469 392.789 140.649 388.969 140.648 384.256C140.648 379.544 144.469 375.723 149.182 375.723Z" fill="url(#paint5_linear_194_21849)" stroke="#282828"/>
<path d="M388.566 402.82C393.279 402.821 397.099 406.641 397.099 411.354C397.098 416.066 393.279 419.886 388.566 419.886C383.854 419.886 380.033 416.066 380.033 411.354C380.033 406.641 383.854 402.82 388.566 402.82Z" fill="url(#paint6_linear_194_21849)" stroke="#282828"/>
<path d="M460.816 177.004C465.529 177.004 469.349 180.825 469.349 185.537C469.348 190.249 465.529 194.069 460.816 194.069C456.104 194.069 452.283 190.249 452.283 185.537C452.283 180.825 456.104 177.004 460.816 177.004Z" fill="url(#paint7_linear_194_21849)" stroke="#282828"/>
</g>
<defs>
<linearGradient id="paint0_linear_194_21849" x1="269.146" y1="181.021" x2="283.756" y2="182.44" gradientUnits="userSpaceOnUse">
<stop stop-color="#FF5100"/>
<stop offset="1" stop-color="#FE6E00"/>
</linearGradient>
<linearGradient id="paint1_linear_194_21849" x1="174.32" y1="244.251" x2="188.929" y2="245.671" gradientUnits="userSpaceOnUse">
<stop stop-color="#FF5100"/>
<stop offset="1" stop-color="#FE6E00"/>
</linearGradient>
<linearGradient id="paint2_linear_194_21849" x1="169.791" y1="117.791" x2="184.4" y2="119.21" gradientUnits="userSpaceOnUse">
<stop stop-color="#FF5100"/>
<stop offset="1" stop-color="#FE6E00"/>
</linearGradient>
<linearGradient id="paint3_linear_194_21849" x1="106.546" y1="99.7275" x2="121.156" y2="101.147" gradientUnits="userSpaceOnUse">
<stop stop-color="#FF5100"/>
<stop offset="1" stop-color="#FE6E00"/>
</linearGradient>
<linearGradient id="paint4_linear_194_21849" x1="287.216" y1="59.0771" x2="301.826" y2="60.4965" gradientUnits="userSpaceOnUse">
<stop stop-color="#FF5100"/>
<stop offset="1" stop-color="#FE6E00"/>
</linearGradient>
<linearGradient id="paint5_linear_194_21849" x1="142.685" y1="375.223" x2="157.295" y2="376.643" gradientUnits="userSpaceOnUse">
<stop stop-color="#FF5100"/>
<stop offset="1" stop-color="#FE6E00"/>
</linearGradient>
<linearGradient id="paint6_linear_194_21849" x1="382.07" y1="402.32" x2="396.679" y2="403.74" gradientUnits="userSpaceOnUse">
<stop stop-color="#FF5100"/>
<stop offset="1" stop-color="#FE6E00"/>
</linearGradient>
<linearGradient id="paint7_linear_194_21849" x1="454.32" y1="176.504" x2="468.929" y2="177.923" gradientUnits="userSpaceOnUse">
<stop stop-color="#FF5100"/>
<stop offset="1" stop-color="#FE6E00"/>
</linearGradient>
<clipPath id="clip0_194_21849">
<rect width="469.705" height="469.705" fill="white" transform="translate(0.148438 0.364258)"/>
</clipPath>
</defs>
</svg>
