<svg width="493" height="164" viewBox="0 0 493 164" fill="none" xmlns="http://www.w3.org/2000/svg">
<line x1="165.77" y1="74.8594" x2="326.976" y2="74.8594" stroke="white"/>
<g filter="url(#filter0_f_227_175)">
<path d="M37.6445 34.9519L54.1488 18.1097C55.3169 16.9178 56.9155 16.2461 58.5843 16.2461L159.561 16.2461C162.99 16.2461 165.771 19.0265 165.771 22.4562V102.34C165.771 103.978 165.123 105.55 163.969 106.714L145.152 125.678L125.674 145.233C124.509 146.403 122.925 147.061 121.274 147.061H21.4512C18.0214 147.061 15.2411 144.28 15.2411 140.851L15.2403 60.8662C15.2402 59.2669 15.8572 57.7292 16.9627 56.5735L37.6445 34.9519Z" fill="#FF5E01"/>
</g>
<path d="M58.584 16.5566H159.561C162.819 16.5566 165.46 19.1979 165.46 22.4561V102.34C165.46 103.896 164.844 105.39 163.748 106.495L144.932 125.459L125.454 145.014C124.347 146.125 122.843 146.75 121.274 146.75H21.4512C18.193 146.75 15.5518 144.109 15.5518 140.851L15.5508 60.8662C15.5508 59.3469 16.1373 57.886 17.1875 56.7881L37.8682 35.166L54.3701 18.3271C55.4797 17.1949 56.9987 16.5567 58.584 16.5566Z" fill="#FF5100" stroke="white" stroke-width="0.621012"/>
<g filter="url(#filter1_f_227_175)">
<path d="M43.0781 39.7519L57.6983 24.8324C58.8663 23.6404 60.465 22.9688 62.1338 22.9688L151.825 22.9688C155.255 22.9688 158.035 25.7491 158.035 29.1789V99.9504C158.035 101.589 157.387 103.161 156.233 104.324L139.536 121.153L122.247 138.51C121.081 139.68 119.498 140.338 117.847 140.338H29.1874C25.7577 140.338 22.9773 137.557 22.9773 134.128L22.9766 63.2588C22.9766 61.6595 23.5936 60.1218 24.699 58.9661L43.0781 39.7519Z" fill="#FF833B"/>
</g>
<g filter="url(#filter2_d_227_175)">
<path d="M43.0781 39.7519L57.6983 24.8324C58.8663 23.6404 60.465 22.9688 62.1338 22.9688L151.825 22.9688C155.255 22.9688 158.035 25.7491 158.035 29.1789V99.9504C158.035 101.589 157.387 103.161 156.233 104.324L139.536 121.153L122.247 138.51C121.081 139.68 119.498 140.338 117.847 140.338H29.1874C25.7577 140.338 22.9773 137.557 22.9773 134.128L22.9766 63.2588C22.9766 61.6595 23.5936 60.1218 24.699 58.9661L43.0781 39.7519Z" fill="#FF5100"/>
<path d="M62.1338 23.2793H151.825C155.083 23.2794 157.725 25.9206 157.725 29.1787V99.9502C157.725 101.507 157.109 103 156.013 104.105L139.315 120.935L122.026 138.291C120.919 139.402 119.415 140.027 117.847 140.027H29.1875C25.9293 140.027 23.2882 137.386 23.2881 134.128L23.2871 63.2588C23.2871 61.7395 23.8736 60.2786 24.9238 59.1807L43.3018 39.9658L57.9199 25.0498C59.0296 23.9175 60.5484 23.2793 62.1338 23.2793Z" stroke="white" stroke-width="0.621012"/>
</g>
<path d="M54.89 75.6523V65.8523H58.726C60.7 65.8523 61.904 66.8883 61.904 68.5683C61.904 69.7583 61.33 70.5423 60.448 70.9903C61.176 71.4103 61.624 72.1943 61.694 73.1463L61.89 75.6523H60.448L60.252 73.2723C60.196 72.4043 59.636 71.7883 58.796 71.7883H56.346V75.6523H54.89ZM58.684 70.5003C59.958 70.5003 60.448 69.6743 60.448 68.7923C60.448 67.8963 59.958 67.1123 58.684 67.1123H56.346V70.5003H58.684ZM67.2217 75.7643C65.0377 75.7643 63.6937 74.0423 63.6937 72.0823C63.6937 70.1083 64.9257 68.4843 67.0957 68.4843C69.2657 68.4843 70.4277 70.0383 70.4277 71.8303C70.4277 72.0123 70.4137 72.2503 70.3997 72.3763H65.0237C65.1357 73.6923 66.0037 74.6023 67.2217 74.6023C68.2577 74.6023 68.9297 74.1543 69.1257 73.3563H70.4837C70.2457 74.8123 68.9717 75.7643 67.2217 75.7643ZM65.0657 71.3263H69.0557C68.9717 70.2483 68.2577 69.5763 67.0957 69.5763C66.0037 69.5763 65.2757 70.1783 65.0657 71.3263ZM74.8877 75.7643C73.1797 75.7643 72.1577 74.8823 72.0457 73.3563H73.2917C73.3617 74.1683 73.9637 74.6583 74.8737 74.6583C75.7137 74.6583 76.2597 74.2523 76.2597 73.6223C76.2597 71.9003 72.2277 73.3983 72.2277 70.5843C72.2277 69.3383 73.2777 68.4843 74.7477 68.4843C76.3857 68.4843 77.3797 69.3103 77.4777 70.6823H76.2317C76.1617 69.9963 75.5737 69.5483 74.7617 69.5483C74.0617 69.5483 73.4877 69.8983 73.4877 70.5283C73.4877 72.1943 77.5337 70.6123 77.5337 73.5523C77.5337 74.9103 76.5257 75.7643 74.8877 75.7643ZM79.6452 75.6523V68.5963H81.0032V75.6523H79.6452ZM79.5612 65.6423H81.0732V67.3503H79.5612V65.6423ZM86.4111 75.7643C84.3111 75.7643 83.0931 74.2103 83.0931 72.1243C83.0931 70.0383 84.2971 68.4843 86.4251 68.4843C87.3771 68.4843 88.2591 68.9323 88.6931 69.6323V65.6423H90.0511V75.6523H88.6931V74.6023C88.2731 75.3023 87.3771 75.7643 86.4111 75.7643ZM86.6351 74.5743C87.9371 74.5743 88.7911 73.5943 88.7911 72.1243C88.7911 70.6543 87.9371 69.6743 86.6351 69.6743C85.3191 69.6743 84.4651 70.6543 84.4651 72.1243C84.4651 73.5943 85.3191 74.5743 86.6351 74.5743ZM95.6571 75.7643C93.4731 75.7643 92.1291 74.0423 92.1291 72.0823C92.1291 70.1083 93.3611 68.4843 95.5311 68.4843C97.7011 68.4843 98.8631 70.0383 98.8631 71.8303C98.8631 72.0123 98.8491 72.2503 98.8351 72.3763H93.4591C93.5711 73.6923 94.4391 74.6023 95.6571 74.6023C96.6931 74.6023 97.3651 74.1543 97.5611 73.3563H98.9191C98.6811 74.8123 97.4071 75.7643 95.6571 75.7643ZM93.5011 71.3263H97.4911C97.4071 70.2483 96.6931 69.5763 95.5311 69.5763C94.4391 69.5763 93.7111 70.1783 93.5011 71.3263ZM100.999 75.6523V68.5963H102.357V69.8423C102.735 68.9603 103.575 68.4843 104.625 68.4843C106.221 68.4843 107.257 69.6323 107.257 71.3123V75.6523H105.899V71.5783C105.899 70.4583 105.241 69.7023 104.247 69.7023C103.141 69.7023 102.357 70.5983 102.357 71.8303V75.6523H100.999ZM112.731 75.7643C110.519 75.7643 109.245 74.0703 109.245 72.1243C109.245 70.1783 110.519 68.4843 112.731 68.4843C114.383 68.4843 115.811 69.4643 116.007 71.0603H114.649C114.523 70.2623 113.725 69.6743 112.759 69.6743C111.359 69.6743 110.659 70.7663 110.659 72.1243C110.659 73.4823 111.373 74.5743 112.773 74.5743C113.739 74.5743 114.439 74.0703 114.663 73.2723H116.007C115.783 74.7563 114.537 75.7643 112.731 75.7643ZM121.099 75.7643C118.915 75.7643 117.571 74.0423 117.571 72.0823C117.571 70.1083 118.803 68.4843 120.973 68.4843C123.143 68.4843 124.305 70.0383 124.305 71.8303C124.305 72.0123 124.291 72.2503 124.277 72.3763H118.901C119.013 73.6923 119.881 74.6023 121.099 74.6023C122.135 74.6023 122.807 74.1543 123.003 73.3563H124.361C124.123 74.8123 122.849 75.7643 121.099 75.7643ZM118.943 71.3263H122.933C122.849 70.2483 122.135 69.5763 120.973 69.5763C119.881 69.5763 119.153 70.1783 118.943 71.3263ZM55.6307 97.6523L51.9767 87.8523H53.4607L56.3447 95.9023L59.2567 87.8523H60.7407L57.0867 97.6523H55.6307ZM64.5628 97.7643C62.3788 97.7643 61.0348 96.0423 61.0348 94.0823C61.0348 92.1083 62.2668 90.4843 64.4368 90.4843C66.6068 90.4843 67.7688 92.0383 67.7688 93.8303C67.7688 94.0123 67.7548 94.2503 67.7408 94.3763H62.3648C62.4768 95.6923 63.3448 96.6023 64.5628 96.6023C65.5988 96.6023 66.2708 96.1543 66.4668 95.3563H67.8248C67.5868 96.8123 66.3128 97.7643 64.5628 97.7643ZM62.4068 93.3263H66.3968C66.3128 92.2483 65.5988 91.5763 64.4368 91.5763C63.3448 91.5763 62.6168 92.1783 62.4068 93.3263ZM69.9048 97.6523V90.5963H71.2628V91.9543C71.5848 91.0163 72.1448 90.5963 73.1388 90.5963H73.9928V91.7723H72.9708C71.6828 91.7723 71.2628 92.9203 71.2628 94.4603V97.6523H69.9048ZM75.7285 97.6523V90.5963H77.0865V97.6523H75.7285ZM75.6445 87.6423H77.1565V89.3503H75.6445V87.6423ZM85.8824 90.5963V97.6523H84.5244V91.7723H81.6264V97.6523H80.2684V91.7723H78.8264V90.5963H80.2684V89.9103C80.2684 88.5243 81.1784 87.6423 82.5924 87.6423H83.7684V88.8183H82.7044C82.0464 88.8183 81.6264 89.2523 81.6264 89.9523V90.5963H85.8824ZM91.4389 97.7643C89.2269 97.7643 87.9529 96.0703 87.9529 94.1243C87.9529 92.1783 89.2269 90.4843 91.4389 90.4843C93.0909 90.4843 94.5189 91.4643 94.7149 93.0603H93.3569C93.2309 92.2623 92.4329 91.6743 91.4669 91.6743C90.0669 91.6743 89.3669 92.7663 89.3669 94.1243C89.3669 95.4823 90.0809 96.5743 91.4809 96.5743C92.4469 96.5743 93.1469 96.0703 93.3709 95.2723H94.7149C94.4909 96.7563 93.2449 97.7643 91.4389 97.7643ZM98.8262 97.7643C97.3842 97.7643 96.4182 96.8963 96.4182 95.6363C96.4182 94.2783 97.5102 93.3823 99.1622 93.3823H100.646C100.968 93.3823 101.122 93.2703 101.122 93.0183C101.122 92.1643 100.492 91.5763 99.4142 91.5763C98.4202 91.5763 97.7202 92.1923 97.6782 92.9063H96.4182C96.5302 91.5203 97.7762 90.4843 99.4562 90.4843C101.276 90.4843 102.466 91.5343 102.466 93.1023V97.6523H101.122V96.4903C100.772 97.2603 99.8902 97.7643 98.8262 97.7643ZM99.0922 96.6863C100.366 96.6863 101.122 95.8603 101.122 94.5583V94.4323H99.3022C98.3782 94.4323 97.7762 94.8663 97.7762 95.6083C97.7762 96.2523 98.2942 96.6863 99.0922 96.6863ZM107.76 97.6523C106.332 97.6523 105.408 96.7843 105.408 95.3423V91.7723H103.966V90.5963H105.408V88.3843H106.766V90.5963H108.852V91.7723H106.766V95.3003C106.766 96.0563 107.186 96.4763 107.858 96.4763H108.852V97.6523H107.76ZM110.753 97.6523V90.5963H112.111V97.6523H110.753ZM110.669 87.6423H112.181V89.3503H110.669V87.6423ZM117.813 97.7643C115.699 97.7643 114.173 96.2383 114.173 94.1243C114.173 92.0103 115.699 90.4843 117.813 90.4843C119.927 90.4843 121.439 92.0103 121.439 94.1243C121.439 96.2383 119.927 97.7643 117.813 97.7643ZM117.813 96.5743C119.143 96.5743 120.053 95.5663 120.053 94.1243C120.053 92.6823 119.143 91.6743 117.813 91.6743C116.469 91.6743 115.559 92.6823 115.559 94.1243C115.559 95.5663 116.469 96.5743 117.813 96.5743ZM123.508 97.6523V90.5963H124.866V91.8423C125.244 90.9603 126.084 90.4843 127.134 90.4843C128.73 90.4843 129.766 91.6323 129.766 93.3123V97.6523H128.408V93.5783C128.408 92.4583 127.75 91.7023 126.756 91.7023C125.65 91.7023 124.866 92.5983 124.866 93.8303V97.6523H123.508Z" fill="white"/>
<g filter="url(#filter3_f_227_175)">
<path d="M349.176 34.9519L365.68 18.1097C366.848 16.9178 368.447 16.2461 370.116 16.2461L471.092 16.2461C474.522 16.2461 477.302 19.0265 477.302 22.4562V102.34C477.302 103.978 476.654 105.55 475.5 106.714L456.683 125.678L437.205 145.233C436.04 146.403 434.457 147.061 432.805 147.061H332.982C329.553 147.061 326.772 144.28 326.772 140.851L326.772 60.8662C326.771 59.2669 327.388 57.7292 328.494 56.5735L349.176 34.9519Z" fill="#FF5E01"/>
</g>
<path d="M370.115 16.5566H471.092C474.35 16.5566 476.991 19.1979 476.991 22.4561V102.34C476.991 103.896 476.376 105.39 475.279 106.495L456.463 125.459L436.985 145.014C435.878 146.125 434.374 146.75 432.806 146.75H332.982C329.724 146.75 327.083 144.109 327.083 140.851L327.082 60.8662C327.082 59.3469 327.669 57.886 328.719 56.7881L349.399 35.166L365.901 18.3271C367.011 17.1949 368.53 16.5567 370.115 16.5566Z" fill="#FF5100" stroke="white" stroke-width="0.621012"/>
<g filter="url(#filter4_f_227_175)">
<path d="M354.609 39.7519L369.23 24.8324C370.398 23.6404 371.996 22.9688 373.665 22.9688L463.356 22.9688C466.786 22.9688 469.566 25.7491 469.566 29.1789V99.9504C469.566 101.589 468.919 103.161 467.765 104.324L451.067 121.153L433.778 138.51C432.613 139.68 431.029 140.338 429.378 140.338H340.719C337.289 140.338 334.509 137.557 334.509 134.128L334.508 63.2588C334.508 61.6595 335.125 60.1218 336.23 58.9661L354.609 39.7519Z" fill="#FF833B"/>
</g>
<g filter="url(#filter5_d_227_175)">
<path d="M354.609 39.7519L369.23 24.8324C370.398 23.6404 371.996 22.9688 373.665 22.9688L463.356 22.9688C466.786 22.9688 469.566 25.7491 469.566 29.1789V99.9504C469.566 101.589 468.919 103.161 467.765 104.324L451.067 121.153L433.778 138.51C432.613 139.68 431.029 140.338 429.378 140.338H340.719C337.289 140.338 334.509 137.557 334.509 134.128L334.508 63.2588C334.508 61.6595 335.125 60.1218 336.23 58.9661L354.609 39.7519Z" fill="#FF5100"/>
<path d="M373.665 23.2793H463.356C466.615 23.2794 469.256 25.9206 469.256 29.1787V99.9502C469.256 101.507 468.64 103 467.544 104.105L450.847 120.935L433.558 138.291C432.451 139.402 430.947 140.027 429.378 140.027H340.719C337.461 140.027 334.819 137.386 334.819 134.128L334.818 63.2588C334.818 61.7395 335.405 60.2786 336.455 59.1807L354.833 39.9658L369.451 25.0498C370.561 23.9175 372.08 23.2793 373.665 23.2793Z" stroke="white" stroke-width="0.621012"/>
</g>
<path d="M372.122 75.6523V65.8523H375.748C377.582 65.8523 378.772 66.7763 378.772 68.2463C378.772 69.2963 378.212 69.9543 377.512 70.2903C378.492 70.6403 379.22 71.4383 379.22 72.7963C379.22 74.5603 377.96 75.6523 375.93 75.6523H372.122ZM375.734 74.3643C377.106 74.3643 377.792 73.7903 377.792 72.7263C377.792 71.6623 377.106 71.0883 375.734 71.0883H373.564V74.3643H375.734ZM375.678 69.8143C376.77 69.8143 377.358 69.3523 377.358 68.4423C377.358 67.5463 376.77 67.0703 375.664 67.0703H373.564V69.8143H375.678ZM383.854 75.7643C382.258 75.7643 381.222 74.6163 381.222 72.9363V68.5963H382.58V72.6703C382.58 73.7903 383.238 74.5463 384.232 74.5463C385.338 74.5463 386.136 73.6503 386.136 72.4183V68.5963H387.494V75.6523H386.136V74.4063C385.758 75.2883 384.904 75.7643 383.854 75.7643ZM392.352 75.7643C390.644 75.7643 389.622 74.8823 389.51 73.3563H390.756C390.826 74.1683 391.428 74.6583 392.338 74.6583C393.178 74.6583 393.724 74.2523 393.724 73.6223C393.724 71.9003 389.692 73.3983 389.692 70.5843C389.692 69.3383 390.742 68.4843 392.212 68.4843C393.85 68.4843 394.844 69.3103 394.942 70.6823H393.696C393.626 69.9963 393.038 69.5483 392.226 69.5483C391.526 69.5483 390.952 69.8983 390.952 70.5283C390.952 72.1943 394.998 70.6123 394.998 73.5523C394.998 74.9103 393.99 75.7643 392.352 75.7643ZM397.11 75.6523V68.5963H398.468V75.6523H397.11ZM397.026 65.6423H398.538V67.3503H397.026V65.6423ZM401.006 75.6523V68.5963H402.364V69.8423C402.742 68.9603 403.582 68.4843 404.632 68.4843C406.228 68.4843 407.264 69.6323 407.264 71.3123V75.6523H405.906V71.5783C405.906 70.4583 405.248 69.7023 404.254 69.7023C403.148 69.7023 402.364 70.5983 402.364 71.8303V75.6523H401.006ZM412.766 75.7643C410.582 75.7643 409.238 74.0423 409.238 72.0823C409.238 70.1083 410.47 68.4843 412.64 68.4843C414.81 68.4843 415.972 70.0383 415.972 71.8303C415.972 72.0123 415.958 72.2503 415.944 72.3763H410.568C410.68 73.6923 411.548 74.6023 412.766 74.6023C413.802 74.6023 414.474 74.1543 414.67 73.3563H416.028C415.79 74.8123 414.516 75.7643 412.766 75.7643ZM410.61 71.3263H414.6C414.516 70.2483 413.802 69.5763 412.64 69.5763C411.548 69.5763 410.82 70.1783 410.61 71.3263ZM420.432 75.7643C418.724 75.7643 417.702 74.8823 417.59 73.3563H418.836C418.906 74.1683 419.508 74.6583 420.418 74.6583C421.258 74.6583 421.804 74.2523 421.804 73.6223C421.804 71.9003 417.772 73.3983 417.772 70.5843C417.772 69.3383 418.822 68.4843 420.292 68.4843C421.93 68.4843 422.924 69.3103 423.022 70.6823H421.776C421.706 69.9963 421.118 69.5483 420.306 69.5483C419.606 69.5483 419.032 69.8983 419.032 70.5283C419.032 72.1943 423.078 70.6123 423.078 73.5523C423.078 74.9103 422.07 75.7643 420.432 75.7643ZM427.514 75.7643C425.806 75.7643 424.784 74.8823 424.672 73.3563H425.918C425.988 74.1683 426.59 74.6583 427.5 74.6583C428.34 74.6583 428.886 74.2523 428.886 73.6223C428.886 71.9003 424.854 73.3983 424.854 70.5843C424.854 69.3383 425.904 68.4843 427.374 68.4843C429.012 68.4843 430.006 69.3103 430.104 70.6823H428.858C428.788 69.9963 428.2 69.5483 427.388 69.5483C426.688 69.5483 426.114 69.8983 426.114 70.5283C426.114 72.1943 430.16 70.6123 430.16 73.5523C430.16 74.9103 429.152 75.7643 427.514 75.7643ZM367.162 97.6523L363.508 87.8523H364.992L367.876 95.9023L370.788 87.8523H372.272L368.618 97.6523H367.162ZM376.094 97.7643C373.91 97.7643 372.566 96.0423 372.566 94.0823C372.566 92.1083 373.798 90.4843 375.968 90.4843C378.138 90.4843 379.3 92.0383 379.3 93.8303C379.3 94.0123 379.286 94.2503 379.272 94.3763H373.896C374.008 95.6923 374.876 96.6023 376.094 96.6023C377.13 96.6023 377.802 96.1543 377.998 95.3563H379.356C379.118 96.8123 377.844 97.7643 376.094 97.7643ZM373.938 93.3263H377.928C377.844 92.2483 377.13 91.5763 375.968 91.5763C374.876 91.5763 374.148 92.1783 373.938 93.3263ZM381.436 97.6523V90.5963H382.794V91.9543C383.116 91.0163 383.676 90.5963 384.67 90.5963H385.524V91.7723H384.502C383.214 91.7723 382.794 92.9203 382.794 94.4603V97.6523H381.436ZM387.26 97.6523V90.5963H388.618V97.6523H387.26ZM387.176 87.6423H388.688V89.3503H387.176V87.6423ZM397.414 90.5963V97.6523H396.056V91.7723H393.158V97.6523H391.8V91.7723H390.358V90.5963H391.8V89.9103C391.8 88.5243 392.71 87.6423 394.124 87.6423H395.3V88.8183H394.236C393.578 88.8183 393.158 89.2523 393.158 89.9523V90.5963H397.414ZM402.97 97.7643C400.758 97.7643 399.484 96.0703 399.484 94.1243C399.484 92.1783 400.758 90.4843 402.97 90.4843C404.622 90.4843 406.05 91.4643 406.246 93.0603H404.888C404.762 92.2623 403.964 91.6743 402.998 91.6743C401.598 91.6743 400.898 92.7663 400.898 94.1243C400.898 95.4823 401.612 96.5743 403.012 96.5743C403.978 96.5743 404.678 96.0703 404.902 95.2723H406.246C406.022 96.7563 404.776 97.7643 402.97 97.7643ZM410.357 97.7643C408.915 97.7643 407.949 96.8963 407.949 95.6363C407.949 94.2783 409.041 93.3823 410.693 93.3823H412.177C412.499 93.3823 412.653 93.2703 412.653 93.0183C412.653 92.1643 412.023 91.5763 410.945 91.5763C409.951 91.5763 409.251 92.1923 409.209 92.9063H407.949C408.061 91.5203 409.307 90.4843 410.987 90.4843C412.807 90.4843 413.997 91.5343 413.997 93.1023V97.6523H412.653V96.4903C412.303 97.2603 411.421 97.7643 410.357 97.7643ZM410.623 96.6863C411.897 96.6863 412.653 95.8603 412.653 94.5583V94.4323H410.833C409.909 94.4323 409.307 94.8663 409.307 95.6083C409.307 96.2523 409.825 96.6863 410.623 96.6863ZM419.292 97.6523C417.864 97.6523 416.94 96.7843 416.94 95.3423V91.7723H415.498V90.5963H416.94V88.3843H418.298V90.5963H420.384V91.7723H418.298V95.3003C418.298 96.0563 418.718 96.4763 419.39 96.4763H420.384V97.6523H419.292ZM422.284 97.6523V90.5963H423.642V97.6523H422.284ZM422.2 87.6423H423.712V89.3503H422.2V87.6423ZM429.344 97.7643C427.23 97.7643 425.704 96.2383 425.704 94.1243C425.704 92.0103 427.23 90.4843 429.344 90.4843C431.458 90.4843 432.97 92.0103 432.97 94.1243C432.97 96.2383 431.458 97.7643 429.344 97.7643ZM429.344 96.5743C430.674 96.5743 431.584 95.5663 431.584 94.1243C431.584 92.6823 430.674 91.6743 429.344 91.6743C428 91.6743 427.09 92.6823 427.09 94.1243C427.09 95.5663 428 96.5743 429.344 96.5743ZM435.039 97.6523V90.5963H436.397V91.8423C436.775 90.9603 437.615 90.4843 438.665 90.4843C440.261 90.4843 441.297 91.6323 441.297 93.3123V97.6523H439.939V93.5783C439.939 92.4583 439.281 91.7023 438.287 91.7023C437.181 91.7023 436.397 92.5983 436.397 93.8303V97.6523H435.039Z" fill="white"/>
<defs>
<filter id="filter0_f_227_175" x="10.2721" y="11.278" width="160.467" height="140.751" filterUnits="userSpaceOnUse" color-interpolation-filters="sRGB">
<feFlood flood-opacity="0" result="BackgroundImageFix"/>
<feBlend mode="normal" in="SourceGraphic" in2="BackgroundImageFix" result="shape"/>
<feGaussianBlur stdDeviation="2.48405" result="effect1_foregroundBlur_227_175"/>
</filter>
<filter id="filter1_f_227_175" x="0.0612106" y="0.0533981" width="180.889" height="163.2" filterUnits="userSpaceOnUse" color-interpolation-filters="sRGB">
<feFlood flood-opacity="0" result="BackgroundImageFix"/>
<feBlend mode="normal" in="SourceGraphic" in2="BackgroundImageFix" result="shape"/>
<feGaussianBlur stdDeviation="11.4577" result="effect1_foregroundBlur_227_175"/>
</filter>
<filter id="filter2_d_227_175" x="7.01655" y="7.62975" width="170.705" height="153.015" filterUnits="userSpaceOnUse" color-interpolation-filters="sRGB">
<feFlood flood-opacity="0" result="BackgroundImageFix"/>
<feColorMatrix in="SourceAlpha" type="matrix" values="0 0 0 0 0 0 0 0 0 0 0 0 0 0 0 0 0 0 127 0" result="hardAlpha"/>
<feOffset dx="1.86304" dy="2.48405"/>
<feGaussianBlur stdDeviation="8.91153"/>
<feComposite in2="hardAlpha" operator="out"/>
<feColorMatrix type="matrix" values="0 0 0 0 1 0 0 0 0 1 0 0 0 0 1 0 0 0 0.25 0"/>
<feBlend mode="normal" in2="BackgroundImageFix" result="effect1_dropShadow_227_175"/>
<feBlend mode="normal" in="SourceGraphic" in2="effect1_dropShadow_227_175" result="shape"/>
</filter>
<filter id="filter3_f_227_175" x="321.803" y="11.278" width="160.467" height="140.751" filterUnits="userSpaceOnUse" color-interpolation-filters="sRGB">
<feFlood flood-opacity="0" result="BackgroundImageFix"/>
<feBlend mode="normal" in="SourceGraphic" in2="BackgroundImageFix" result="shape"/>
<feGaussianBlur stdDeviation="2.48405" result="effect1_foregroundBlur_227_175"/>
</filter>
<filter id="filter4_f_227_175" x="311.592" y="0.0533981" width="180.889" height="163.2" filterUnits="userSpaceOnUse" color-interpolation-filters="sRGB">
<feFlood flood-opacity="0" result="BackgroundImageFix"/>
<feBlend mode="normal" in="SourceGraphic" in2="BackgroundImageFix" result="shape"/>
<feGaussianBlur stdDeviation="11.4577" result="effect1_foregroundBlur_227_175"/>
</filter>
<filter id="filter5_d_227_175" x="318.548" y="7.62975" width="170.705" height="153.015" filterUnits="userSpaceOnUse" color-interpolation-filters="sRGB">
<feFlood flood-opacity="0" result="BackgroundImageFix"/>
<feColorMatrix in="SourceAlpha" type="matrix" values="0 0 0 0 0 0 0 0 0 0 0 0 0 0 0 0 0 0 127 0" result="hardAlpha"/>
<feOffset dx="1.86304" dy="2.48405"/>
<feGaussianBlur stdDeviation="8.91153"/>
<feComposite in2="hardAlpha" operator="out"/>
<feColorMatrix type="matrix" values="0 0 0 0 1 0 0 0 0 1 0 0 0 0 1 0 0 0 0.25 0"/>
<feBlend mode="normal" in2="BackgroundImageFix" result="effect1_dropShadow_227_175"/>
<feBlend mode="normal" in="SourceGraphic" in2="effect1_dropShadow_227_175" result="shape"/>
</filter>
</defs>
</svg>
