<svg width="805" height="164" viewBox="0 0 805 164" fill="none" xmlns="http://www.w3.org/2000/svg">
<g filter="url(#filter0_f_227_214)">
<path d="M38.4375 35.1277L54.9418 18.2855C56.1098 17.0935 57.7084 16.4219 59.3773 16.4219L160.354 16.4219C163.783 16.4219 166.564 19.2023 166.564 22.632V102.515C166.564 104.154 165.916 105.726 164.762 106.889L145.945 125.854L126.467 145.409C125.302 146.579 123.718 147.236 122.067 147.236H22.2441C18.8144 147.236 16.0341 144.456 16.034 141.026L16.0332 61.042C16.0332 59.4427 16.6502 57.905 17.7557 56.7493L38.4375 35.1277Z" fill="#FF5E01"/>
</g>
<path d="M59.377 16.7324H160.354C163.612 16.7324 166.253 19.3736 166.253 22.6318V102.516C166.253 104.072 165.637 105.566 164.541 106.671L145.725 125.635L126.247 145.189C125.14 146.301 123.636 146.926 122.067 146.926H22.2441C18.9859 146.926 16.3448 144.285 16.3447 141.026L16.3438 61.042C16.3437 59.5227 16.9303 58.0618 17.9805 56.9639L38.6611 35.3418L55.1631 18.5029C56.2726 17.3707 57.7917 16.7325 59.377 16.7324Z" fill="#FF5100" stroke="white" stroke-width="0.621012"/>
<g filter="url(#filter1_f_227_214)">
<path d="M43.871 39.9277L58.4913 25.0081C59.6593 23.8162 61.2579 23.1445 62.9268 23.1445L152.618 23.1445C156.048 23.1445 158.828 25.9249 158.828 29.3547V100.126C158.828 101.765 158.18 103.337 157.026 104.5L140.329 121.329L123.04 138.686C121.874 139.856 120.291 140.514 118.64 140.514H29.9804C26.5507 140.514 23.7703 137.733 23.7703 134.304L23.7696 63.4346C23.7695 61.8353 24.3865 60.2976 25.492 59.1419L43.871 39.9277Z" fill="#FF833B"/>
</g>
<g filter="url(#filter2_d_227_214)">
<path d="M43.871 39.9277L58.4913 25.0081C59.6593 23.8162 61.2579 23.1445 62.9268 23.1445L152.618 23.1445C156.048 23.1445 158.828 25.9249 158.828 29.3547V100.126C158.828 101.765 158.18 103.337 157.026 104.5L140.329 121.329L123.04 138.686C121.874 139.856 120.291 140.514 118.64 140.514H29.9804C26.5507 140.514 23.7703 137.733 23.7703 134.304L23.7696 63.4346C23.7695 61.8353 24.3865 60.2976 25.492 59.1419L43.871 39.9277Z" fill="#FF5100"/>
<path d="M62.9268 23.4551H152.618C155.876 23.4552 158.517 26.0964 158.518 29.3545V100.126C158.518 101.683 157.902 103.176 156.806 104.281L140.108 121.11L122.819 138.467C121.712 139.578 120.208 140.203 118.64 140.203H29.9805C26.7223 140.203 24.0812 137.562 24.0811 134.304L24.0801 63.4346C24.0801 61.9152 24.6666 60.4544 25.7168 59.3564L44.0947 40.1416L58.7129 25.2256C59.8225 24.0932 61.3414 23.4551 62.9268 23.4551Z" stroke="white" stroke-width="0.621012"/>
</g>
<g clip-path="url(#clip0_227_214)">
<path d="M74.0275 86.9791C73.894 87.6612 74.0357 88.3684 74.4217 88.9463C74.8077 89.5243 75.4067 89.9262 76.0879 90.0642L77.5867 90.3608V90.386C77.574 91.165 77.8707 91.9173 78.4119 92.4777C78.953 93.0382 79.6944 93.3612 80.4734 93.3758H84.2527L86.8629 96.4551C87.6415 97.2353 88.6344 97.7664 89.7156 97.9807C90.2946 98.0973 90.8419 98.3363 91.321 98.6817C91.8 99.0271 92.1997 99.4708 92.4933 99.9833L93.8644 102.385C94.0542 102.717 94.3284 102.993 94.6591 103.185C94.9899 103.377 95.3654 103.479 95.7479 103.479H106.861C107.167 103.479 107.468 103.399 107.734 103.247C107.999 103.095 108.22 102.876 108.375 102.612C108.529 102.347 108.612 102.047 108.614 101.741C108.617 101.435 108.539 101.134 108.389 100.867L103.394 91.9866C103.033 91.3425 102.827 90.6229 102.794 89.8852L102.217 76.6969C102.185 75.9417 101.863 75.2278 101.317 74.7048C100.771 74.1819 100.044 73.8903 99.2884 73.8911C98.7631 73.8917 98.2474 74.0309 97.7931 74.2945V63.1695C97.8058 62.3905 97.5091 61.6383 96.968 61.0778C96.4268 60.5173 95.6854 60.1943 94.9065 60.1797H80.4734C79.6944 60.1943 78.953 60.5173 78.4119 61.0778C77.8707 61.6383 77.574 62.3905 77.5867 63.1695V73.3138L77.1242 73.2214C76.9498 73.1845 76.7719 73.1671 76.5938 73.1695C76.0625 73.1713 75.5443 73.3343 75.1078 73.6371C74.6713 73.9399 74.337 74.3681 74.1493 74.8651C73.9615 75.362 73.9291 75.9043 74.0563 76.4201C74.1836 76.9358 74.4644 77.4008 74.8618 77.7534C74.434 78.1261 74.1408 78.6293 74.0275 79.1852C73.9426 79.6342 73.9765 80.0975 74.1257 80.5294C74.2749 80.9613 74.5344 81.3467 74.8784 81.6475C74.4549 82.023 74.1645 82.5256 74.0506 83.08C73.966 83.5249 73.997 83.9841 74.1405 84.4137C74.284 84.8433 74.5353 85.2289 74.8704 85.5336C74.4367 85.9084 74.1402 86.417 74.0275 86.9791ZM75.4442 87.2548C75.5145 86.9542 75.6951 86.691 75.9502 86.5173C76.2053 86.3436 76.5164 86.2719 76.8218 86.3166L77.5867 86.4703V88.8886L76.3679 88.6475C76.0612 88.5844 75.792 88.4025 75.6189 88.1416C75.4458 87.8806 75.383 87.5618 75.4442 87.2548ZM76.8254 78.5285L77.5867 78.68V81.1005L76.3722 80.8472C76.22 80.8177 76.0752 80.7585 75.9461 80.6728C75.8169 80.5872 75.706 80.4768 75.6198 80.348C75.5335 80.2193 75.4735 80.0747 75.4434 79.9227C75.4133 79.7707 75.4135 79.6142 75.4442 79.4623C75.5087 79.1581 75.6887 78.8908 75.9463 78.7166C76.2039 78.5424 76.5191 78.475 76.8254 78.5285ZM76.8333 82.4211L77.5867 82.5719V84.9974L76.3801 84.7549C76.1511 84.7062 75.9417 84.5907 75.7782 84.423C75.6148 84.2554 75.5046 84.0431 75.4616 83.813C75.4186 83.5828 75.4447 83.3451 75.5367 83.1297C75.6286 82.9144 75.7822 82.7311 75.9782 82.603C76.1016 82.5177 76.2408 82.4577 76.3876 82.4265C76.5343 82.3952 76.6859 82.3934 76.8333 82.4211ZM79.0301 90.386V89.0459C79.0321 87.4297 79.636 85.8723 80.7241 84.6772C81.8121 83.4822 83.3063 82.7352 84.9152 82.582C85.0775 83.194 85.4376 83.7352 85.9395 84.1213C86.4413 84.5073 87.0568 84.7167 87.6899 84.7167C88.3231 84.7167 88.9385 84.5073 89.4404 84.1213C89.9422 83.7352 90.3023 83.194 90.4647 82.582C92.0736 82.7352 93.5677 83.4822 94.6558 84.6772C95.7438 85.8723 96.3477 87.4297 96.3498 89.0459V90.386C96.3626 90.7823 96.218 91.1675 95.9475 91.4573C95.677 91.7472 95.3027 91.918 94.9065 91.9325H80.4734C80.0772 91.918 79.7029 91.7472 79.4324 91.4573C79.1618 91.1675 79.0172 90.7823 79.0301 90.386ZM92.7415 73.0136C92.6048 72.7394 92.4054 72.5012 92.1593 72.3185C91.9133 72.1358 91.6277 72.0137 91.3256 71.9622C90.2952 71.8337 89.3018 71.4968 88.4058 70.972C88.1918 70.8359 87.9435 70.7636 87.6899 70.7636C87.4363 70.7636 87.188 70.8359 86.974 70.972C86.0783 71.4967 85.0851 71.8336 84.0549 71.9622C83.7528 72.0136 83.467 72.1357 83.2208 72.3184C82.9747 72.5011 82.7751 72.7393 82.6383 73.0136V72.4478C82.6383 71.1081 83.1706 69.8232 84.1179 68.8758C85.0653 67.9285 86.3502 67.3962 87.6899 67.3962C89.0297 67.3962 90.3146 67.9285 91.2619 68.8758C92.2093 69.8232 92.7415 71.1081 92.7415 72.4478V73.0136ZM83.0713 74.9015C83.2627 74.9015 83.4463 74.8254 83.5816 74.6901C83.717 74.5548 83.793 74.3712 83.793 74.1798C83.793 73.7468 84.0333 73.4235 84.2585 73.3918C85.4684 73.2355 86.6351 72.8393 87.6899 72.2263C88.7449 72.8396 89.9118 73.2358 91.1221 73.3918C91.3466 73.4235 91.5869 73.7482 91.5869 74.1798C91.5869 74.3712 91.6629 74.5548 91.7982 74.6901C91.9336 74.8254 92.1171 74.9015 92.3085 74.9015C92.4234 74.9015 92.5335 74.9471 92.6147 75.0283C92.6959 75.1095 92.7415 75.2196 92.7415 75.3344C92.7415 75.4493 92.6959 75.5594 92.6147 75.6406C92.5335 75.7218 92.4234 75.7674 92.3085 75.7674C92.1378 75.7675 91.9726 75.8281 91.8424 75.9384C91.7121 76.0487 91.6251 76.2016 91.597 76.37L91.3927 77.5911C91.3443 77.8807 91.2376 78.1576 91.0792 78.4049C90.9209 78.6522 90.714 78.8649 90.4712 79.03C90.3579 79.1073 90.2366 79.1924 90.1104 79.2826C89.4268 79.876 88.5862 80.2592 87.6899 80.386C86.7941 80.2589 85.9541 79.8758 85.2709 79.2826C85.1432 79.1924 85.022 79.1073 84.9101 79.03C84.6672 78.8648 84.4603 78.652 84.3019 78.4046C84.1435 78.1571 84.0369 77.8801 83.9886 77.5903L83.7843 76.37C83.7561 76.2014 83.669 76.0483 83.5384 75.9379C83.4078 75.8276 83.2423 75.7671 83.0713 75.7674C82.9565 75.7674 82.8464 75.7218 82.7652 75.6406C82.684 75.5594 82.6383 75.4493 82.6383 75.3344C82.6383 75.2196 82.684 75.1095 82.7652 75.0283C82.8464 74.9471 82.9565 74.9015 83.0713 74.9015ZM86.2466 81.5248C86.7013 81.7256 87.1929 81.8294 87.6899 81.8294C88.187 81.8294 88.6786 81.7256 89.1332 81.5248V81.8293C89.1332 82.2121 88.9812 82.5792 88.7105 82.8499C88.4398 83.1206 88.0727 83.2727 87.6899 83.2727C87.3071 83.2727 86.94 83.1206 86.6693 82.8499C86.3987 82.5792 86.2466 82.2121 86.2466 81.8293V81.5248ZM107.131 101.882C107.104 101.93 107.066 101.969 107.019 101.996C106.971 102.023 106.918 102.037 106.864 102.036H95.7501C95.6222 102.036 95.4965 102.002 95.3859 101.937C95.2753 101.873 95.1836 101.781 95.1201 101.67L93.8124 99.3793L103.718 95.5004L107.136 101.575C107.163 101.621 107.177 101.675 107.176 101.729C107.175 101.783 107.159 101.836 107.131 101.882ZM99.2884 75.3344C99.6729 75.3334 100.043 75.4813 100.321 75.7472C100.599 76.013 100.763 76.3762 100.779 76.7604L101.356 89.948C101.399 90.9123 101.667 91.8531 102.14 92.6946L103.006 94.2295L92.9212 98.1763C92.1346 97.3535 91.1149 96.7914 89.9992 96.5655C89.2169 96.4123 88.4962 96.0344 87.9252 95.478L86.1434 93.3758H94.9065C95.6854 93.3612 96.4268 93.0382 96.968 92.4777C97.5091 91.9173 97.8058 91.165 97.7931 90.386V76.7778C97.7946 76.5842 97.8346 76.3929 97.9109 76.2151C97.9872 76.0372 98.0983 75.8764 98.2375 75.742C98.3768 75.6076 98.5414 75.5023 98.7219 75.4323C98.9023 75.3623 99.0949 75.3291 99.2884 75.3344ZM84.0816 61.623H91.2982V62.3447C91.2982 62.536 91.2222 62.7196 91.0868 62.8549C90.9515 62.9903 90.7679 63.0663 90.5765 63.0663H84.8033C84.6119 63.0663 84.4284 62.9903 84.293 62.8549C84.1577 62.7196 84.0816 62.536 84.0816 62.3447V61.623ZM80.4734 61.623H82.6383V62.3447C82.6383 62.9188 82.8664 63.4695 83.2724 63.8755C83.6784 64.2815 84.2291 64.5096 84.8033 64.5096H90.5765C91.1507 64.5096 91.7014 64.2815 92.1074 63.8755C92.5134 63.4695 92.7415 62.9188 92.7415 62.3447V61.623H94.9065C95.3027 61.6375 95.677 61.8084 95.9475 62.0982C96.218 62.388 96.3626 62.7733 96.3498 63.1695V84.4995C95.6888 83.5549 94.8299 82.7657 93.8329 82.1869C92.8358 81.6081 91.7246 81.2536 90.5765 81.1481V80.7187C90.7028 80.6321 90.8255 80.547 90.9374 80.4654C91.0492 80.3839 91.1697 80.3016 91.2765 80.2302C91.6815 79.955 92.0265 79.6007 92.2907 79.1885C92.5549 78.7764 92.7328 78.3149 92.8137 77.8321L92.9349 77.1054C93.3009 76.9758 93.6176 76.7358 93.8415 76.4187C94.0653 76.1015 94.1853 75.7227 94.1848 75.3344V72.4478C94.1848 70.7253 93.5005 69.0733 92.2825 67.8552C91.0645 66.6372 89.4125 65.9529 87.6899 65.9529C85.9674 65.9529 84.3154 66.6372 83.0973 67.8552C81.8793 69.0733 81.195 70.7253 81.195 72.4478V75.3344C81.1951 75.7217 81.315 76.0995 81.5382 76.4159C81.7615 76.7323 82.0772 76.9719 82.442 77.1018L82.5633 77.8278C82.6441 78.3107 82.8219 78.7723 83.0861 79.1846C83.3503 79.5969 83.6954 79.9514 84.1004 80.2265C84.2072 80.2987 84.3169 80.3781 84.4396 80.4618C84.5623 80.5455 84.677 80.6285 84.8004 80.7151V81.1445C83.6526 81.2509 82.5417 81.6061 81.5452 82.1855C80.5486 82.7649 79.6903 83.5546 79.0301 84.4995V63.1695C79.0172 62.7733 79.1618 62.388 79.4324 62.0982C79.7029 61.8084 80.0772 61.6375 80.4734 61.623ZM75.4434 75.5697C75.4956 75.3021 75.6386 75.0608 75.8482 74.8864C76.0578 74.712 76.3211 74.6154 76.5938 74.6128C76.6715 74.6112 76.7493 74.6185 76.8254 74.6344L77.5867 74.786V77.2108L76.3679 76.9625C76.061 76.8997 75.7914 76.7179 75.6182 76.4569C75.445 76.1959 75.3821 75.8769 75.4434 75.5697Z" fill="white"/>
<path d="M90.5769 89.0449H84.8037C84.6123 89.0449 84.4287 89.121 84.2934 89.2563C84.1581 89.3916 84.082 89.5752 84.082 89.7666C84.082 89.958 84.1581 90.1415 84.2934 90.2769C84.4287 90.4122 84.6123 90.4882 84.8037 90.4882H90.5769C90.7683 90.4882 90.9519 90.4122 91.0872 90.2769C91.2226 90.1415 91.2986 89.958 91.2986 89.7666C91.2986 89.5752 91.2226 89.3916 91.0872 89.2563C90.9519 89.121 90.7683 89.0449 90.5769 89.0449Z" fill="white"/>
</g>
<line x1="166.562" y1="81.3281" x2="327.562" y2="81.3281" stroke="white"/>
<line x1="478.094" y1="81.3281" x2="639.094" y2="81.3281" stroke="white"/>
<g filter="url(#filter3_f_227_214)">
<path d="M349.967 35.1277L366.471 18.2855C367.639 17.0935 369.238 16.4219 370.907 16.4219L471.883 16.4219C475.313 16.4219 478.093 19.2023 478.093 22.632V102.515C478.093 104.154 477.445 105.726 476.291 106.889L457.474 125.854L437.996 145.409C436.831 146.579 435.248 147.236 433.596 147.236H333.773C330.344 147.236 327.563 144.456 327.563 141.026L327.563 61.042C327.563 59.4427 328.179 57.905 329.285 56.7493L349.967 35.1277Z" fill="#FF5E01"/>
</g>
<path d="M370.906 16.7324H471.883C475.141 16.7324 477.782 19.3736 477.782 22.6318V102.516C477.782 104.072 477.167 105.566 476.07 106.671L457.254 125.635L437.776 145.189C436.669 146.301 435.165 146.926 433.597 146.926H333.773C330.515 146.926 327.874 144.285 327.874 141.026L327.873 61.042C327.873 59.5227 328.46 58.0618 329.51 56.9639L350.19 35.3418L366.692 18.5029C367.802 17.3707 369.321 16.7325 370.906 16.7324Z" fill="#FF5100" stroke="white" stroke-width="0.621012"/>
<g filter="url(#filter4_f_227_214)">
<path d="M355.4 39.9277L370.021 25.0081C371.189 23.8162 372.787 23.1445 374.456 23.1445L464.147 23.1445C467.577 23.1445 470.357 25.9249 470.357 29.3547V100.126C470.357 101.765 469.71 103.337 468.556 104.5L451.858 121.329L434.569 138.686C433.404 139.856 431.82 140.514 430.169 140.514H341.51C338.08 140.514 335.3 137.733 335.3 134.304L335.299 63.4346C335.299 61.8353 335.916 60.2976 337.021 59.1419L355.4 39.9277Z" fill="#FF833B"/>
</g>
<g filter="url(#filter5_d_227_214)">
<path d="M355.4 39.9277L370.021 25.0081C371.189 23.8162 372.787 23.1445 374.456 23.1445L464.147 23.1445C467.577 23.1445 470.357 25.9249 470.357 29.3547V100.126C470.357 101.765 469.71 103.337 468.556 104.5L451.858 121.329L434.569 138.686C433.404 139.856 431.82 140.514 430.169 140.514H341.51C338.08 140.514 335.3 137.733 335.3 134.304L335.299 63.4346C335.299 61.8353 335.916 60.2976 337.021 59.1419L355.4 39.9277Z" fill="#FF5100"/>
<path d="M374.456 23.4551H464.147C467.406 23.4552 470.047 26.0964 470.047 29.3545V100.126C470.047 101.683 469.431 103.176 468.335 104.281L451.638 121.11L434.349 138.467C433.242 139.578 431.738 140.203 430.169 140.203H341.51C338.252 140.203 335.61 137.562 335.61 134.304L335.609 63.4346C335.609 61.9152 336.196 60.4544 337.246 59.3564L355.624 40.1416L370.242 25.2256C371.352 24.0932 372.871 23.4551 374.456 23.4551Z" stroke="white" stroke-width="0.621012"/>
</g>
<g clip-path="url(#clip1_227_214)">
<mask id="mask0_227_214" style="mask-type:luminance" maskUnits="userSpaceOnUse" x="379" y="64" width="48" height="36">
<path d="M379.211 64.2294H426.446V99.4297H379.211V64.2294Z" fill="white"/>
</mask>
<g mask="url(#mask0_227_214)">
<path d="M396.52 87.2168L397.216 85.9807C397.481 85.511 397.623 85.0078 397.635 84.4984L397.787 77.9492L397.886 74.0387C397.908 73.1663 398.864 72.4678 400.034 72.4678C400.628 72.4678 401.165 72.6472 401.554 72.9366C401.942 73.2268 402.183 73.6269 402.183 74.069V80.0922" stroke="white" stroke-width="1.03934" stroke-miterlimit="10" stroke-linecap="round" stroke-linejoin="round"/>
<path d="M405.754 94.0977L406.802 93.3167C407.307 92.9406 407.976 92.7144 408.688 92.68L410.631 92.5851C414.259 92.4078 417.509 90.8856 419.304 88.5516" stroke="white" stroke-width="1.03934" stroke-miterlimit="10" stroke-linecap="round" stroke-linejoin="round"/>
<path d="M418.603 88.6016H405.872C403.834 88.6016 402.182 87.3704 402.182 85.8515V67.4952C402.182 65.9763 403.834 64.7451 405.872 64.7451H418.603C420.641 64.7451 422.293 65.9763 422.293 67.4952V85.8515C422.293 87.3704 420.641 88.6016 418.603 88.6016Z" stroke="white" stroke-width="1.03934" stroke-miterlimit="10" stroke-linecap="round" stroke-linejoin="round"/>
<path d="M419.529 74.4905V67.8389C419.529 67.2694 418.91 66.8077 418.146 66.8077H415.604C415.197 66.8077 414.866 67.0539 414.866 67.3577C414.866 67.871 414.308 68.2871 413.619 68.2871H410.864C410.175 68.2871 409.616 67.871 409.616 67.3577C409.616 67.0539 409.286 66.8077 408.878 66.8077H406.337C405.573 66.8077 404.953 67.2694 404.953 67.8389V85.5078C404.953 86.0773 405.573 86.5391 406.337 86.5391H418.146C418.91 86.5391 419.529 86.0773 419.529 85.5078V74.6072" stroke="white" stroke-width="1.03934" stroke-miterlimit="10" stroke-linecap="round" stroke-linejoin="round"/>
<path d="M414.432 78.1996C415.564 78.4643 416.576 78.9298 417.395 79.5388C418.714 80.5206 419.529 81.8771 419.529 83.3752V85.5078C419.529 86.0771 418.909 86.5391 418.146 86.5391H406.337C405.573 86.5391 404.953 86.0771 404.953 85.5078V83.3752C404.953 80.9476 407.095 78.8919 410.05 78.1996" stroke="white" stroke-width="1.03934" stroke-miterlimit="10" stroke-linecap="round" stroke-linejoin="round"/>
<path d="M412.243 78.7031H412.239C410.092 78.7031 408.352 77.4061 408.352 75.8063V72.2762C408.352 71.3383 409.372 70.5779 410.63 70.5779H413.851C415.11 70.5779 416.13 71.3383 416.13 72.2762V75.8063C416.13 77.4061 414.39 78.7031 412.243 78.7031Z" stroke="white" stroke-width="1.03934" stroke-miterlimit="10" stroke-linecap="round" stroke-linejoin="round"/>
<path d="M408.352 74.4336L411.647 73.6253C412.863 73.3273 414.195 73.464 415.257 73.996L416.13 74.4336" stroke="white" stroke-width="1.03934" stroke-miterlimit="10" stroke-linecap="round" stroke-linejoin="round"/>
<path d="M412.931 66.5156C412.931 66.8004 412.621 67.0312 412.239 67.0312C411.857 67.0312 411.547 66.8004 411.547 66.5156C411.547 66.2308 411.857 66 412.239 66C412.621 66 412.931 66.2308 412.931 66.5156Z" fill="white"/>
<path d="M423.828 75.7637H422.295V72.5453H423.828C425.021 72.5453 425.757 73.2658 425.757 74.1545C425.757 75.0432 425.021 75.7637 423.828 75.7637Z" stroke="white" stroke-width="1.03934" stroke-miterlimit="10" stroke-linecap="round" stroke-linejoin="round"/>
<path d="M423.828 78.9805H422.295V75.7621H423.828C425.021 75.7621 425.757 76.4826 425.757 77.3713C425.757 78.26 425.021 78.9805 423.828 78.9805Z" stroke="white" stroke-width="1.03934" stroke-miterlimit="10" stroke-linecap="round" stroke-linejoin="round"/>
<path d="M423.828 82.1992H422.295V78.9809H423.828C425.021 78.9809 425.757 79.7013 425.757 80.59C425.757 81.4788 425.021 82.1992 423.828 82.1992Z" stroke="white" stroke-width="1.03934" stroke-miterlimit="10" stroke-linecap="round" stroke-linejoin="round"/>
<path d="M423.828 85.418H422.295V82.1996H423.828C425.021 82.1996 425.757 82.9201 425.757 83.8088C425.757 84.6975 425.021 85.418 423.828 85.418Z" stroke="white" stroke-width="1.03934" stroke-miterlimit="10" stroke-linecap="round" stroke-linejoin="round"/>
<path d="M390.804 89.7538L379.906 97.918" stroke="white" stroke-width="1.03934" stroke-miterlimit="10" stroke-linecap="round" stroke-linejoin="round"/>
<path d="M401.302 98.9141L405.78 95.5771C406.32 95.1743 406.32 94.5214 405.78 94.1186L396.329 87.0759C395.789 86.6732 394.912 86.6732 394.372 87.0759L390.867 89.7024" stroke="white" stroke-width="1.03934" stroke-miterlimit="10" stroke-linecap="round" stroke-linejoin="round"/>
</g>
</g>
<g filter="url(#filter6_f_227_214)">
<path d="M661.498 35.1277L678.002 18.2855C679.17 17.0935 680.769 16.4219 682.438 16.4219L783.414 16.4219C786.844 16.4219 789.624 19.2023 789.624 22.632V102.515C789.624 104.154 788.977 105.726 787.822 106.889L769.006 125.854L749.528 145.409C748.362 146.579 746.779 147.236 745.128 147.236H645.305C641.875 147.236 639.095 144.456 639.095 141.026L639.094 61.042C639.094 59.4427 639.711 57.905 640.816 56.7493L661.498 35.1277Z" fill="#FF5E01"/>
</g>
<path d="M682.438 16.7324H783.414C786.672 16.7324 789.313 19.3736 789.313 22.6318V102.516C789.313 104.072 788.698 105.566 787.602 106.671L768.785 125.635L749.308 145.189C748.201 146.301 746.697 146.926 745.128 146.926H645.305C642.046 146.926 639.405 144.285 639.405 141.026L639.404 61.042C639.404 59.5227 639.991 58.0618 641.041 56.9639L661.722 35.3418L678.224 18.5029C679.333 17.3707 680.852 16.7325 682.438 16.7324Z" fill="#FF5100" stroke="white" stroke-width="0.621012"/>
<g filter="url(#filter7_f_227_214)">
<path d="M666.932 39.9277L681.552 25.0081C682.72 23.8162 684.318 23.1445 685.987 23.1445L775.678 23.1445C779.108 23.1445 781.889 25.9249 781.889 29.3547V100.126C781.889 101.765 781.241 103.337 780.087 104.5L763.389 121.329L746.1 138.686C744.935 139.856 743.352 140.514 741.7 140.514H653.041C649.611 140.514 646.831 137.733 646.831 134.304L646.83 63.4346C646.83 61.8353 647.447 60.2976 648.553 59.1419L666.932 39.9277Z" fill="#FF833B"/>
</g>
<g filter="url(#filter8_d_227_214)">
<path d="M666.932 39.9277L681.552 25.0081C682.72 23.8162 684.318 23.1445 685.987 23.1445L775.678 23.1445C779.108 23.1445 781.889 25.9249 781.889 29.3547V100.126C781.889 101.765 781.241 103.337 780.087 104.5L763.389 121.329L746.1 138.686C744.935 139.856 743.352 140.514 741.7 140.514H653.041C649.611 140.514 646.831 137.733 646.831 134.304L646.83 63.4346C646.83 61.8353 647.447 60.2976 648.553 59.1419L666.932 39.9277Z" fill="#FF5100"/>
<path d="M685.987 23.4551H775.679C778.937 23.4552 781.578 26.0964 781.578 29.3545V100.126C781.578 101.683 780.963 103.176 779.866 104.281L763.169 121.11L745.88 138.467C744.773 139.578 743.269 140.203 741.7 140.203H653.041C649.783 140.203 647.142 137.562 647.142 134.304L647.141 63.4346C647.141 61.9152 647.727 60.4544 648.777 59.3564L667.155 40.1416L681.773 25.2256C682.883 24.0932 684.402 23.4551 685.987 23.4551Z" stroke="white" stroke-width="0.621012"/>
</g>
<path d="M722.998 82.0859C720.888 82.0785 718.87 82.9474 717.426 84.4854C715.348 82.8279 712.767 81.9295 710.109 81.9395H710.088C706.894 81.9463 703.93 83.1879 701.733 85.4476C699.501 87.7285 698.28 90.846 698.287 94.2287C698.288 94.4139 698.361 94.591 698.49 94.7238C698.621 94.8551 698.799 94.9282 698.985 94.9262L717.293 94.8913C717.335 94.9402 717.377 94.982 717.419 95.0309C719.822 97.5748 723.643 98.1698 726.707 96.4775C729.77 94.7851 731.301 91.2344 730.428 87.8452C729.554 84.456 726.498 82.087 722.998 82.0859ZM699.703 93.5243C699.85 90.7832 700.91 88.2794 702.73 86.4173C704.662 84.4296 707.278 83.3345 710.088 83.3345H710.109C712.455 83.3253 714.734 84.1175 716.568 85.5803C715.022 87.9669 714.921 91.0118 716.303 93.4966L699.703 93.5243ZM722.998 96.0352C719.531 96.0352 716.721 93.2248 716.721 89.7579C716.721 86.2915 719.531 83.4808 722.998 83.4808C726.465 83.4808 729.275 86.2915 729.275 89.7579C729.275 93.2248 726.465 96.0352 722.998 96.0352Z" fill="white"/>
<path d="M710.097 80.2797C714.168 80.2797 717.469 76.979 717.469 72.9075C717.469 68.8359 714.168 65.5352 710.097 65.5352C706.025 65.5352 702.725 68.8359 702.725 72.9075C702.729 76.9772 706.027 80.2758 710.097 80.2797ZM710.097 66.9301C713.398 66.9301 716.074 69.6064 716.074 72.9075C716.074 76.2085 713.398 78.8847 710.097 78.8847C706.796 78.8847 704.12 76.2085 704.12 72.9075C704.123 69.6079 706.797 66.9343 710.097 66.9301Z" fill="white"/>
<path d="M725.352 87.6307L721.983 90.3717L720.749 88.9279C720.499 88.635 720.058 88.6008 719.766 88.8512C719.473 89.1015 719.439 89.5419 719.689 89.8348L721.363 91.7944C721.496 91.9488 721.689 92.038 721.893 92.0384C722.053 92.0402 722.208 91.9857 722.332 91.8851L726.231 88.7116C726.526 88.4682 726.569 88.0324 726.328 87.7358C726.086 87.439 725.651 87.3923 725.352 87.6307Z" fill="white"/>
<defs>
<filter id="filter0_f_227_214" x="11.0651" y="11.4538" width="160.467" height="140.751" filterUnits="userSpaceOnUse" color-interpolation-filters="sRGB">
<feFlood flood-opacity="0" result="BackgroundImageFix"/>
<feBlend mode="normal" in="SourceGraphic" in2="BackgroundImageFix" result="shape"/>
<feGaussianBlur stdDeviation="2.48405" result="effect1_foregroundBlur_227_214"/>
</filter>
<filter id="filter1_f_227_214" x="0.854179" y="0.229179" width="180.889" height="163.2" filterUnits="userSpaceOnUse" color-interpolation-filters="sRGB">
<feFlood flood-opacity="0" result="BackgroundImageFix"/>
<feBlend mode="normal" in="SourceGraphic" in2="BackgroundImageFix" result="shape"/>
<feGaussianBlur stdDeviation="11.4577" result="effect1_foregroundBlur_227_214"/>
</filter>
<filter id="filter2_d_227_214" x="7.80952" y="7.80553" width="170.705" height="153.015" filterUnits="userSpaceOnUse" color-interpolation-filters="sRGB">
<feFlood flood-opacity="0" result="BackgroundImageFix"/>
<feColorMatrix in="SourceAlpha" type="matrix" values="0 0 0 0 0 0 0 0 0 0 0 0 0 0 0 0 0 0 127 0" result="hardAlpha"/>
<feOffset dx="1.86304" dy="2.48405"/>
<feGaussianBlur stdDeviation="8.91153"/>
<feComposite in2="hardAlpha" operator="out"/>
<feColorMatrix type="matrix" values="0 0 0 0 1 0 0 0 0 1 0 0 0 0 1 0 0 0 0.25 0"/>
<feBlend mode="normal" in2="BackgroundImageFix" result="effect1_dropShadow_227_214"/>
<feBlend mode="normal" in="SourceGraphic" in2="effect1_dropShadow_227_214" result="shape"/>
</filter>
<filter id="filter3_f_227_214" x="322.594" y="11.4538" width="160.467" height="140.751" filterUnits="userSpaceOnUse" color-interpolation-filters="sRGB">
<feFlood flood-opacity="0" result="BackgroundImageFix"/>
<feBlend mode="normal" in="SourceGraphic" in2="BackgroundImageFix" result="shape"/>
<feGaussianBlur stdDeviation="2.48405" result="effect1_foregroundBlur_227_214"/>
</filter>
<filter id="filter4_f_227_214" x="312.383" y="0.229179" width="180.889" height="163.2" filterUnits="userSpaceOnUse" color-interpolation-filters="sRGB">
<feFlood flood-opacity="0" result="BackgroundImageFix"/>
<feBlend mode="normal" in="SourceGraphic" in2="BackgroundImageFix" result="shape"/>
<feGaussianBlur stdDeviation="11.4577" result="effect1_foregroundBlur_227_214"/>
</filter>
<filter id="filter5_d_227_214" x="319.339" y="7.80553" width="170.705" height="153.015" filterUnits="userSpaceOnUse" color-interpolation-filters="sRGB">
<feFlood flood-opacity="0" result="BackgroundImageFix"/>
<feColorMatrix in="SourceAlpha" type="matrix" values="0 0 0 0 0 0 0 0 0 0 0 0 0 0 0 0 0 0 127 0" result="hardAlpha"/>
<feOffset dx="1.86304" dy="2.48405"/>
<feGaussianBlur stdDeviation="8.91153"/>
<feComposite in2="hardAlpha" operator="out"/>
<feColorMatrix type="matrix" values="0 0 0 0 1 0 0 0 0 1 0 0 0 0 1 0 0 0 0.25 0"/>
<feBlend mode="normal" in2="BackgroundImageFix" result="effect1_dropShadow_227_214"/>
<feBlend mode="normal" in="SourceGraphic" in2="effect1_dropShadow_227_214" result="shape"/>
</filter>
<filter id="filter6_f_227_214" x="634.126" y="11.4538" width="160.467" height="140.751" filterUnits="userSpaceOnUse" color-interpolation-filters="sRGB">
<feFlood flood-opacity="0" result="BackgroundImageFix"/>
<feBlend mode="normal" in="SourceGraphic" in2="BackgroundImageFix" result="shape"/>
<feGaussianBlur stdDeviation="2.48405" result="effect1_foregroundBlur_227_214"/>
</filter>
<filter id="filter7_f_227_214" x="623.915" y="0.229179" width="180.889" height="163.2" filterUnits="userSpaceOnUse" color-interpolation-filters="sRGB">
<feFlood flood-opacity="0" result="BackgroundImageFix"/>
<feBlend mode="normal" in="SourceGraphic" in2="BackgroundImageFix" result="shape"/>
<feGaussianBlur stdDeviation="11.4577" result="effect1_foregroundBlur_227_214"/>
</filter>
<filter id="filter8_d_227_214" x="630.87" y="7.80553" width="170.705" height="153.015" filterUnits="userSpaceOnUse" color-interpolation-filters="sRGB">
<feFlood flood-opacity="0" result="BackgroundImageFix"/>
<feColorMatrix in="SourceAlpha" type="matrix" values="0 0 0 0 0 0 0 0 0 0 0 0 0 0 0 0 0 0 127 0" result="hardAlpha"/>
<feOffset dx="1.86304" dy="2.48405"/>
<feGaussianBlur stdDeviation="8.91153"/>
<feComposite in2="hardAlpha" operator="out"/>
<feColorMatrix type="matrix" values="0 0 0 0 1 0 0 0 0 1 0 0 0 0 1 0 0 0 0.25 0"/>
<feBlend mode="normal" in2="BackgroundImageFix" result="effect1_dropShadow_227_214"/>
<feBlend mode="normal" in="SourceGraphic" in2="effect1_dropShadow_227_214" result="shape"/>
</filter>
<clipPath id="clip0_227_214">
<rect width="43.2993" height="43.2993" fill="white" transform="translate(69.6484 60.1797)"/>
</clipPath>
<clipPath id="clip1_227_214">
<rect width="47.2347" height="35.2003" fill="white" transform="translate(379.211 64.2285)"/>
</clipPath>
</defs>
</svg>
