<svg width="805" height="165" viewBox="0 0 805 165" fill="none" xmlns="http://www.w3.org/2000/svg">
<line x1="165.77" y1="75.6992" x2="326.976" y2="75.6992" stroke="white"/>
<line x1="477.301" y1="75.6992" x2="638.507" y2="75.6992" stroke="white"/>
<g filter="url(#filter0_f_227_117)">
<path d="M37.6445 35.7917L54.1488 18.9496C55.3169 17.7576 56.9155 17.0859 58.5843 17.0859L159.561 17.0859C162.99 17.0859 165.771 19.8663 165.771 23.2961V103.179C165.771 104.818 165.123 106.39 163.969 107.553L145.152 126.518L125.674 146.073C124.509 147.243 122.925 147.9 121.274 147.9H21.4512C18.0214 147.9 15.2411 145.12 15.2411 141.69L15.2403 61.706C15.2402 60.1067 15.8572 58.5691 16.9627 57.4134L37.6445 35.7917Z" fill="#FF5E01"/>
</g>
<path d="M58.584 17.3965H159.561C162.819 17.3965 165.46 20.0377 165.46 23.2959V103.18C165.46 104.736 164.844 106.23 163.748 107.335L144.932 126.299L125.454 145.854C124.347 146.965 122.843 147.59 121.274 147.59H21.4512C18.193 147.59 15.5518 144.949 15.5518 141.69L15.5508 61.7061C15.5508 60.1867 16.1373 58.7259 17.1875 57.6279L37.8682 36.0059L54.3701 19.167C55.4797 18.0347 56.9987 17.3966 58.584 17.3965Z" fill="#FF5100" stroke="white" stroke-width="0.621012"/>
<g filter="url(#filter1_f_227_117)">
<path d="M43.0781 40.5918L57.6983 25.6722C58.8663 24.4803 60.465 23.8086 62.1338 23.8086L151.825 23.8086C155.255 23.8086 158.035 26.589 158.035 30.0187V100.79C158.035 102.429 157.387 104.001 156.233 105.164L139.536 121.993L122.247 139.35C121.081 140.52 119.498 141.178 117.847 141.178H29.1874C25.7577 141.178 22.9773 138.397 22.9773 134.968L22.9766 64.0986C22.9766 62.4993 23.5936 60.9617 24.699 59.806L43.0781 40.5918Z" fill="#FF833B"/>
</g>
<g filter="url(#filter2_d_227_117)">
<path d="M43.0781 40.5918L57.6983 25.6722C58.8663 24.4803 60.465 23.8086 62.1338 23.8086L151.825 23.8086C155.255 23.8086 158.035 26.589 158.035 30.0187V100.79C158.035 102.429 157.387 104.001 156.233 105.164L139.536 121.993L122.247 139.35C121.081 140.52 119.498 141.178 117.847 141.178H29.1874C25.7577 141.178 22.9773 138.397 22.9773 134.968L22.9766 64.0986C22.9766 62.4993 23.5936 60.9617 24.699 59.806L43.0781 40.5918Z" fill="#FF5100"/>
<path d="M62.1338 24.1191H151.825C155.083 24.1193 157.725 26.7604 157.725 30.0186V100.79C157.725 102.347 157.109 103.84 156.013 104.945L139.315 121.774L122.026 139.131C120.919 140.242 119.415 140.867 117.847 140.867H29.1875C25.9293 140.867 23.2882 138.226 23.2881 134.968L23.2871 64.0986C23.2871 62.5793 23.8736 61.1184 24.9238 60.0205L43.3018 40.8057L57.9199 25.8896C59.0296 24.7573 60.5484 24.1191 62.1338 24.1191Z" stroke="white" stroke-width="0.621012"/>
</g>
<path d="M38.2938 76.4922V66.6922H39.9178L44.6358 74.2382V66.6922H46.0918V76.4922H44.4818L39.7498 68.9602V76.4922H38.2938ZM48.8889 76.4922V66.6922H50.3449V76.4922H48.8889ZM53.1403 76.4922V66.6922H54.7643L59.4823 74.2382V66.6922H60.9383V76.4922H59.3283L54.5963 68.9602V76.4922H53.1403ZM70.2517 76.4922L66.5977 66.6922H68.0817L70.9657 74.7422L73.8777 66.6922H75.3617L71.7077 76.4922H70.2517ZM79.1838 76.6042C76.9998 76.6042 75.6558 74.8822 75.6558 72.9222C75.6558 70.9482 76.8878 69.3242 79.0578 69.3242C81.2278 69.3242 82.3898 70.8782 82.3898 72.6702C82.3898 72.8522 82.3758 73.0902 82.3618 73.2162H76.9858C77.0978 74.5322 77.9658 75.4422 79.1838 75.4422C80.2198 75.4422 80.8918 74.9942 81.0878 74.1962H82.4458C82.2078 75.6522 80.9338 76.6042 79.1838 76.6042ZM77.0278 72.1662H81.0178C80.9338 71.0882 80.2198 70.4162 79.0578 70.4162C77.9658 70.4162 77.2378 71.0182 77.0278 72.1662ZM84.5258 76.4922V69.4362H85.8838V70.7942C86.2058 69.8562 86.7658 69.4362 87.7598 69.4362H88.6138V70.6122H87.5918C86.3038 70.6122 85.8838 71.7602 85.8838 73.3002V76.4922H84.5258ZM90.3495 76.4922V69.4362H91.7075V76.4922H90.3495ZM90.2655 66.4822H91.7775V68.1902H90.2655V66.4822ZM100.503 69.4362V76.4922H99.1454V70.6122H96.2474V76.4922H94.8894V70.6122H93.4474V69.4362H94.8894V68.7502C94.8894 67.3642 95.7994 66.4822 97.2134 66.4822H98.3894V67.6582H97.3254C96.6674 67.6582 96.2474 68.0922 96.2474 68.7922V69.4362H100.503ZM106.06 76.6042C103.848 76.6042 102.574 74.9102 102.574 72.9642C102.574 71.0182 103.848 69.3242 106.06 69.3242C107.712 69.3242 109.14 70.3042 109.336 71.9002H107.978C107.852 71.1022 107.054 70.5142 106.088 70.5142C104.688 70.5142 103.988 71.6062 103.988 72.9642C103.988 74.3222 104.702 75.4142 106.102 75.4142C107.068 75.4142 107.768 74.9102 107.992 74.1122H109.336C109.112 75.5962 107.866 76.6042 106.06 76.6042ZM113.447 76.6042C112.005 76.6042 111.039 75.7362 111.039 74.4762C111.039 73.1182 112.131 72.2222 113.783 72.2222H115.267C115.589 72.2222 115.743 72.1102 115.743 71.8582C115.743 71.0042 115.113 70.4162 114.035 70.4162C113.041 70.4162 112.341 71.0322 112.299 71.7462H111.039C111.151 70.3602 112.397 69.3242 114.077 69.3242C115.897 69.3242 117.087 70.3742 117.087 71.9422V76.4922H115.743V75.3302C115.393 76.1002 114.511 76.6042 113.447 76.6042ZM113.713 75.5262C114.987 75.5262 115.743 74.7002 115.743 73.3982V73.2722H113.923C112.999 73.2722 112.397 73.7062 112.397 74.4482C112.397 75.0922 112.915 75.5262 113.713 75.5262ZM122.381 76.4922C120.953 76.4922 120.029 75.6242 120.029 74.1822V70.6122H118.587V69.4362H120.029V67.2242H121.387V69.4362H123.473V70.6122H121.387V74.1402C121.387 74.8962 121.807 75.3162 122.479 75.3162H123.473V76.4922H122.381ZM125.374 76.4922V69.4362H126.732V76.4922H125.374ZM125.29 66.4822H126.802V68.1902H125.29V66.4822ZM132.434 76.6042C130.32 76.6042 128.794 75.0782 128.794 72.9642C128.794 70.8502 130.32 69.3242 132.434 69.3242C134.548 69.3242 136.06 70.8502 136.06 72.9642C136.06 75.0782 134.548 76.6042 132.434 76.6042ZM132.434 75.4142C133.764 75.4142 134.674 74.4062 134.674 72.9642C134.674 71.5222 133.764 70.5142 132.434 70.5142C131.09 70.5142 130.18 71.5222 130.18 72.9642C130.18 74.4062 131.09 75.4142 132.434 75.4142ZM138.129 76.4922V69.4362H139.487V70.6822C139.865 69.8002 140.705 69.3242 141.755 69.3242C143.351 69.3242 144.387 70.4722 144.387 72.1522V76.4922H143.029V72.4182C143.029 71.2982 142.371 70.5422 141.377 70.5422C140.271 70.5422 139.487 71.4382 139.487 72.6702V76.4922H138.129ZM50.6769 100.34C49.5009 98.6182 48.8289 96.3922 48.8289 94.3202C48.8289 92.2482 49.5009 90.0222 50.6769 88.3002H51.9789C50.8589 90.1622 50.2009 92.3322 50.2009 94.3202C50.2009 96.3082 50.8589 98.4782 51.9789 100.34H50.6769ZM55.4371 98.4922H53.9811V88.6922H55.4371V93.2422L59.7491 88.6922H61.5831L57.8591 92.6122L61.9891 98.4922H60.2111L56.8651 93.6622L55.4371 95.1742V98.4922ZM66.0012 98.4922V94.4042L62.5712 88.6922H64.1812L66.7292 93.0182L69.2772 88.6922H70.8872L67.4572 94.4042V98.4922H66.0012ZM76.2696 98.6042C73.7356 98.6042 71.4816 96.9522 71.4816 93.5922C71.4816 90.2322 73.7636 88.5802 76.2696 88.5802C78.4816 88.5802 80.2596 89.9382 80.5116 91.8422H78.9856C78.8316 90.6942 77.6696 89.8682 76.2556 89.8682C74.3516 89.8682 72.9656 91.1702 72.9656 93.5922C72.9656 96.0142 74.3516 97.3162 76.2696 97.3162C77.7116 97.3162 78.8596 96.4902 79.0136 95.3422H80.4976C80.2876 97.2462 78.5236 98.6042 76.2696 98.6042ZM86.518 98.4922V88.6922H87.974V97.2042H92.748V98.4922H86.518ZM97.2364 98.6042C95.0524 98.6042 93.7084 96.8822 93.7084 94.9222C93.7084 92.9482 94.9404 91.3242 97.1104 91.3242C99.2804 91.3242 100.442 92.8782 100.442 94.6702C100.442 94.8522 100.428 95.0902 100.414 95.2162H95.0384C95.1504 96.5322 96.0184 97.4422 97.2364 97.4422C98.2724 97.4422 98.9444 96.9942 99.1404 96.1962H100.498C100.26 97.6522 98.9864 98.6042 97.2364 98.6042ZM95.0804 94.1662H99.0704C98.9864 93.0882 98.2724 92.4162 97.1104 92.4162C96.0184 92.4162 95.2904 93.0182 95.0804 94.1662ZM104.234 98.4922L101.644 91.4362H103.044L104.906 96.7982L106.768 91.4362H108.168L105.578 98.4922H104.234ZM112.821 98.6042C110.637 98.6042 109.293 96.8822 109.293 94.9222C109.293 92.9482 110.525 91.3242 112.695 91.3242C114.865 91.3242 116.027 92.8782 116.027 94.6702C116.027 94.8522 116.013 95.0902 115.999 95.2162H110.623C110.735 96.5322 111.603 97.4422 112.821 97.4422C113.857 97.4422 114.529 96.9942 114.725 96.1962H116.083C115.845 97.6522 114.571 98.6042 112.821 98.6042ZM110.665 94.1662H114.655C114.571 93.0882 113.857 92.4162 112.695 92.4162C111.603 92.4162 110.875 93.0182 110.665 94.1662ZM118.163 98.4922V88.4822H119.521V98.4922H118.163ZM128.477 88.6922V98.4922H127.021V90.9602C126.853 91.1842 126.419 91.3102 126.027 91.3102H125.159V90.0222H125.915C126.587 90.0222 126.979 89.7422 127.063 88.6922H128.477ZM131.78 88.3002C132.956 90.0222 133.628 92.2482 133.628 94.3202C133.628 96.3922 132.956 98.6182 131.78 100.34H130.478C131.598 98.4782 132.256 96.3082 132.256 94.3202C132.256 92.3322 131.598 90.1622 130.478 88.3002H131.78Z" fill="white"/>
<g filter="url(#filter3_f_227_117)">
<path d="M349.176 35.7917L365.68 18.9496C366.848 17.7576 368.447 17.0859 370.116 17.0859L471.092 17.0859C474.522 17.0859 477.302 19.8663 477.302 23.2961V103.179C477.302 104.818 476.654 106.39 475.5 107.553L456.683 126.518L437.205 146.073C436.04 147.243 434.457 147.9 432.805 147.9H332.982C329.553 147.9 326.772 145.12 326.772 141.69L326.772 61.706C326.771 60.1067 327.388 58.5691 328.494 57.4134L349.176 35.7917Z" fill="#FF5E01"/>
</g>
<path d="M370.115 17.3965H471.092C474.35 17.3965 476.991 20.0377 476.991 23.2959V103.18C476.991 104.736 476.376 106.23 475.279 107.335L456.463 126.299L436.985 145.854C435.878 146.965 434.374 147.59 432.806 147.59H332.982C329.724 147.59 327.083 144.949 327.083 141.69L327.082 61.7061C327.082 60.1867 327.669 58.7259 328.719 57.6279L349.399 36.0059L365.901 19.167C367.011 18.0347 368.53 17.3966 370.115 17.3965Z" fill="#FF5100" stroke="white" stroke-width="0.621012"/>
<g filter="url(#filter4_f_227_117)">
<path d="M354.609 40.5918L369.23 25.6722C370.398 24.4803 371.996 23.8086 373.665 23.8086L463.356 23.8086C466.786 23.8086 469.566 26.589 469.566 30.0187V100.79C469.566 102.429 468.919 104.001 467.765 105.164L451.067 121.993L433.778 139.35C432.613 140.52 431.029 141.178 429.378 141.178H340.719C337.289 141.178 334.509 138.397 334.509 134.968L334.508 64.0986C334.508 62.4993 335.125 60.9617 336.23 59.806L354.609 40.5918Z" fill="#FF833B"/>
</g>
<g filter="url(#filter5_d_227_117)">
<path d="M354.609 40.5918L369.23 25.6722C370.398 24.4803 371.996 23.8086 373.665 23.8086L463.356 23.8086C466.786 23.8086 469.566 26.589 469.566 30.0187V100.79C469.566 102.429 468.919 104.001 467.765 105.164L451.067 121.993L433.778 139.35C432.613 140.52 431.029 141.178 429.378 141.178H340.719C337.289 141.178 334.509 138.397 334.509 134.968L334.508 64.0986C334.508 62.4993 335.125 60.9617 336.23 59.806L354.609 40.5918Z" fill="#FF5100"/>
<path d="M373.665 24.1191H463.356C466.615 24.1193 469.256 26.7604 469.256 30.0186V100.79C469.256 102.347 468.64 103.84 467.544 104.945L450.847 121.774L433.558 139.131C432.451 140.242 430.947 140.867 429.378 140.867H340.719C337.461 140.867 334.819 138.226 334.819 134.968L334.818 64.0986C334.818 62.5793 335.405 61.1184 336.455 60.0205L354.833 40.8057L369.451 25.8896C370.561 24.7573 372.08 24.1191 373.665 24.1191Z" stroke="white" stroke-width="0.621012"/>
</g>
<path d="M347.397 76.4922V66.6922H351.023C352.857 66.6922 354.047 67.6162 354.047 69.0862C354.047 70.1362 353.487 70.7942 352.787 71.1302C353.767 71.4802 354.495 72.2782 354.495 73.6362C354.495 75.4002 353.235 76.4922 351.205 76.4922H347.397ZM351.009 75.2042C352.381 75.2042 353.067 74.6302 353.067 73.5662C353.067 72.5022 352.381 71.9282 351.009 71.9282H348.839V75.2042H351.009ZM350.953 70.6542C352.045 70.6542 352.633 70.1922 352.633 69.2822C352.633 68.3862 352.045 67.9102 350.939 67.9102H348.839V70.6542H350.953ZM359.122 76.4922L355.468 66.6922H356.952L359.836 74.7422L362.748 66.6922H364.232L360.578 76.4922H359.122ZM366.099 76.4922V66.6922H367.723L372.441 74.2382V66.6922H373.897V76.4922H372.287L367.555 68.9602V76.4922H366.099ZM383.211 76.4922L379.557 66.6922H381.041L383.925 74.7422L386.837 66.6922H388.321L384.667 76.4922H383.211ZM392.143 76.6042C389.959 76.6042 388.615 74.8822 388.615 72.9222C388.615 70.9482 389.847 69.3242 392.017 69.3242C394.187 69.3242 395.349 70.8782 395.349 72.6702C395.349 72.8522 395.335 73.0902 395.321 73.2162H389.945C390.057 74.5322 390.925 75.4422 392.143 75.4422C393.179 75.4422 393.851 74.9942 394.047 74.1962H395.405C395.167 75.6522 393.893 76.6042 392.143 76.6042ZM389.987 72.1662H393.977C393.893 71.0882 393.179 70.4162 392.017 70.4162C390.925 70.4162 390.197 71.0182 389.987 72.1662ZM397.485 76.4922V69.4362H398.843V70.7942C399.165 69.8562 399.725 69.4362 400.719 69.4362H401.573V70.6122H400.551C399.263 70.6122 398.843 71.7602 398.843 73.3002V76.4922H397.485ZM403.308 76.4922V69.4362H404.666V76.4922H403.308ZM403.224 66.4822H404.736V68.1902H403.224V66.4822ZM413.462 69.4362V76.4922H412.104V70.6122H409.206V76.4922H407.848V70.6122H406.406V69.4362H407.848V68.7502C407.848 67.3642 408.758 66.4822 410.172 66.4822H411.348V67.6582H410.284C409.626 67.6582 409.206 68.0922 409.206 68.7922V69.4362H413.462ZM419.019 76.6042C416.807 76.6042 415.533 74.9102 415.533 72.9642C415.533 71.0182 416.807 69.3242 419.019 69.3242C420.671 69.3242 422.099 70.3042 422.295 71.9002H420.937C420.811 71.1022 420.013 70.5142 419.047 70.5142C417.647 70.5142 416.947 71.6062 416.947 72.9642C416.947 74.3222 417.661 75.4142 419.061 75.4142C420.027 75.4142 420.727 74.9102 420.951 74.1122H422.295C422.071 75.5962 420.825 76.6042 419.019 76.6042ZM426.406 76.6042C424.964 76.6042 423.998 75.7362 423.998 74.4762C423.998 73.1182 425.09 72.2222 426.742 72.2222H428.226C428.548 72.2222 428.702 72.1102 428.702 71.8582C428.702 71.0042 428.072 70.4162 426.994 70.4162C426 70.4162 425.3 71.0322 425.258 71.7462H423.998C424.11 70.3602 425.356 69.3242 427.036 69.3242C428.856 69.3242 430.046 70.3742 430.046 71.9422V76.4922H428.702V75.3302C428.352 76.1002 427.47 76.6042 426.406 76.6042ZM426.672 75.5262C427.946 75.5262 428.702 74.7002 428.702 73.3982V73.2722H426.882C425.958 73.2722 425.356 73.7062 425.356 74.4482C425.356 75.0922 425.874 75.5262 426.672 75.5262ZM435.34 76.4922C433.912 76.4922 432.988 75.6242 432.988 74.1822V70.6122H431.546V69.4362H432.988V67.2242H434.346V69.4362H436.432V70.6122H434.346V74.1402C434.346 74.8962 434.766 75.3162 435.438 75.3162H436.432V76.4922H435.34ZM438.333 76.4922V69.4362H439.691V76.4922H438.333ZM438.249 66.4822H439.761V68.1902H438.249V66.4822ZM445.393 76.6042C443.279 76.6042 441.753 75.0782 441.753 72.9642C441.753 70.8502 443.279 69.3242 445.393 69.3242C447.507 69.3242 449.019 70.8502 449.019 72.9642C449.019 75.0782 447.507 76.6042 445.393 76.6042ZM445.393 75.4142C446.723 75.4142 447.633 74.4062 447.633 72.9642C447.633 71.5222 446.723 70.5142 445.393 70.5142C444.049 70.5142 443.139 71.5222 443.139 72.9642C443.139 74.4062 444.049 75.4142 445.393 75.4142ZM451.088 76.4922V69.4362H452.446V70.6822C452.824 69.8002 453.664 69.3242 454.714 69.3242C456.31 69.3242 457.346 70.4722 457.346 72.1522V76.4922H455.988V72.4182C455.988 71.2982 455.33 70.5422 454.336 70.5422C453.23 70.5422 452.446 71.4382 452.446 72.6702V76.4922H451.088ZM360.102 100.34C358.926 98.6182 358.254 96.3922 358.254 94.3202C358.254 92.2482 358.926 90.0222 360.102 88.3002H361.404C360.284 90.1622 359.626 92.3322 359.626 94.3202C359.626 96.3082 360.284 98.4782 361.404 100.34H360.102ZM364.862 98.4922H363.406V88.6922H364.862V93.2422L369.174 88.6922H371.008L367.284 92.6122L371.414 98.4922H369.636L366.29 93.6622L364.862 95.1742V98.4922ZM375.426 98.4922V94.4042L371.996 88.6922H373.606L376.154 93.0182L378.702 88.6922H380.312L376.882 94.4042V98.4922H375.426ZM385.694 98.6042C383.16 98.6042 380.906 96.9522 380.906 93.5922C380.906 90.2322 383.188 88.5802 385.694 88.5802C387.906 88.5802 389.684 89.9382 389.936 91.8422H388.41C388.256 90.6942 387.094 89.8682 385.68 89.8682C383.776 89.8682 382.39 91.1702 382.39 93.5922C382.39 96.0142 383.776 97.3162 385.694 97.3162C387.136 97.3162 388.284 96.4902 388.438 95.3422H389.922C389.712 97.2462 387.948 98.6042 385.694 98.6042ZM395.943 98.4922V88.6922H397.399V97.2042H402.173V98.4922H395.943ZM406.661 98.6042C404.477 98.6042 403.133 96.8822 403.133 94.9222C403.133 92.9482 404.365 91.3242 406.535 91.3242C408.705 91.3242 409.867 92.8782 409.867 94.6702C409.867 94.8522 409.853 95.0902 409.839 95.2162H404.463C404.575 96.5322 405.443 97.4422 406.661 97.4422C407.697 97.4422 408.369 96.9942 408.565 96.1962H409.923C409.685 97.6522 408.411 98.6042 406.661 98.6042ZM404.505 94.1662H408.495C408.411 93.0882 407.697 92.4162 406.535 92.4162C405.443 92.4162 404.715 93.0182 404.505 94.1662ZM413.659 98.4922L411.069 91.4362H412.469L414.331 96.7982L416.193 91.4362H417.593L415.003 98.4922H413.659ZM422.246 98.6042C420.062 98.6042 418.718 96.8822 418.718 94.9222C418.718 92.9482 419.95 91.3242 422.12 91.3242C424.29 91.3242 425.452 92.8782 425.452 94.6702C425.452 94.8522 425.438 95.0902 425.424 95.2162H420.048C420.16 96.5322 421.028 97.4422 422.246 97.4422C423.282 97.4422 423.954 96.9942 424.15 96.1962H425.508C425.27 97.6522 423.996 98.6042 422.246 98.6042ZM420.09 94.1662H424.08C423.996 93.0882 423.282 92.4162 422.12 92.4162C421.028 92.4162 420.3 93.0182 420.09 94.1662ZM427.588 98.4922V88.4822H428.946V98.4922H427.588ZM435.046 91.9542C434.976 89.8822 436.292 88.5802 438.378 88.5802C440.282 88.5802 441.64 89.7282 441.64 91.5342C441.64 92.8362 440.87 93.9142 439.344 94.6702L437.902 95.3842C437.188 95.7342 436.39 96.3922 436.39 97.2042H441.668V98.4922H434.962V97.4842C434.948 95.8182 436.152 94.7682 437.286 94.1942L438.812 93.4382C439.778 92.9482 440.156 92.3322 440.156 91.5202C440.156 90.5122 439.428 89.8262 438.392 89.8262C437.202 89.8262 436.474 90.6662 436.53 91.9542H435.046ZM444.418 88.3002C445.594 90.0222 446.266 92.2482 446.266 94.3202C446.266 96.3922 445.594 98.6182 444.418 100.34H443.116C444.236 98.4782 444.894 96.3082 444.894 94.3202C444.894 92.3322 444.236 90.1622 443.116 88.3002H444.418Z" fill="white"/>
<g filter="url(#filter6_f_227_117)">
<path d="M660.705 35.7917L677.209 18.9496C678.377 17.7576 679.976 17.0859 681.645 17.0859L782.621 17.0859C786.051 17.0859 788.831 19.8663 788.831 23.2961V103.179C788.831 104.818 788.184 106.39 787.029 107.553L768.213 126.518L748.735 146.073C747.569 147.243 745.986 147.9 744.335 147.9H644.512C641.082 147.9 638.302 145.12 638.302 141.69L638.301 61.706C638.301 60.1067 638.918 58.5691 640.023 57.4134L660.705 35.7917Z" fill="#FF5E01"/>
</g>
<path d="M681.645 17.3965H782.621C785.879 17.3965 788.52 20.0377 788.521 23.2959V103.18C788.52 104.736 787.905 106.23 786.809 107.335L767.992 126.299L748.515 145.854C747.408 146.965 745.904 147.59 744.335 147.59H644.512C641.253 147.59 638.612 144.949 638.612 141.69L638.611 61.7061C638.611 60.1867 639.198 58.7259 640.248 57.6279L660.929 36.0059L677.431 19.167C678.54 18.0347 680.059 17.3966 681.645 17.3965Z" fill="#FF5100" stroke="white" stroke-width="0.621012"/>
<g filter="url(#filter7_f_227_117)">
<path d="M666.139 40.5918L680.759 25.6722C681.927 24.4803 683.526 23.8086 685.194 23.8086L774.886 23.8086C778.315 23.8086 781.096 26.589 781.096 30.0187V100.79C781.096 102.429 780.448 104.001 779.294 105.164L762.596 121.993L745.307 139.35C744.142 140.52 742.559 141.178 740.907 141.178H652.248C648.818 141.178 646.038 138.397 646.038 134.968L646.037 64.0986C646.037 62.4993 646.654 60.9617 647.76 59.806L666.139 40.5918Z" fill="#FF833B"/>
</g>
<g filter="url(#filter8_d_227_117)">
<path d="M666.139 40.5918L680.759 25.6722C681.927 24.4803 683.526 23.8086 685.194 23.8086L774.886 23.8086C778.315 23.8086 781.096 26.589 781.096 30.0187V100.79C781.096 102.429 780.448 104.001 779.294 105.164L762.596 121.993L745.307 139.35C744.142 140.52 742.559 141.178 740.907 141.178H652.248C648.818 141.178 646.038 138.397 646.038 134.968L646.037 64.0986C646.037 62.4993 646.654 60.9617 647.76 59.806L666.139 40.5918Z" fill="#FF5100"/>
<path d="M685.194 24.1191H774.886C778.144 24.1193 780.785 26.7604 780.785 30.0186V100.79C780.785 102.347 780.17 103.84 779.073 104.945L762.376 121.774L745.087 139.131C743.98 140.242 742.476 140.867 740.907 140.867H652.248C648.99 140.867 646.349 138.226 646.349 134.968L646.348 64.0986C646.348 62.5793 646.934 61.1184 647.984 60.0205L666.362 40.8057L680.98 25.8896C682.09 24.7573 683.609 24.1191 685.194 24.1191Z" stroke="white" stroke-width="0.621012"/>
</g>
<path d="M668.141 65.4922V55.6922H669.597V65.4922H668.141ZM672.392 65.4922V55.6922H675.402C678.132 55.6922 680.344 57.4002 680.344 60.5922C680.344 63.7842 678.132 65.4922 675.402 65.4922H672.392ZM675.318 64.2042C677.138 64.2042 678.846 63.1822 678.846 60.5922C678.846 58.0022 677.138 56.9802 675.318 56.9802H673.848V64.2042H675.318ZM686.432 65.4922V55.6922H689.442C692.172 55.6922 694.384 57.4002 694.384 60.5922C694.384 63.7842 692.172 65.4922 689.442 65.4922H686.432ZM689.358 64.2042C691.178 64.2042 692.886 63.1822 692.886 60.5922C692.886 58.0022 691.178 56.9802 689.358 56.9802H687.888V64.2042H689.358ZM699.682 65.6042C697.568 65.6042 696.042 64.0782 696.042 61.9642C696.042 59.8502 697.568 58.3242 699.682 58.3242C701.796 58.3242 703.308 59.8502 703.308 61.9642C703.308 64.0782 701.796 65.6042 699.682 65.6042ZM699.682 64.4142C701.012 64.4142 701.922 63.4062 701.922 61.9642C701.922 60.5222 701.012 59.5142 699.682 59.5142C698.338 59.5142 697.428 60.5222 697.428 61.9642C697.428 63.4062 698.338 64.4142 699.682 64.4142ZM708.401 65.6042C706.189 65.6042 704.915 63.9102 704.915 61.9642C704.915 60.0182 706.189 58.3242 708.401 58.3242C710.053 58.3242 711.481 59.3042 711.677 60.9002H710.319C710.193 60.1022 709.395 59.5142 708.429 59.5142C707.029 59.5142 706.329 60.6062 706.329 61.9642C706.329 63.3222 707.043 64.4142 708.443 64.4142C709.409 64.4142 710.109 63.9102 710.333 63.1122H711.677C711.453 64.5962 710.207 65.6042 708.401 65.6042ZM716.25 65.6042C714.654 65.6042 713.618 64.4562 713.618 62.7762V58.4362H714.976V62.5102C714.976 63.6302 715.634 64.3862 716.628 64.3862C717.734 64.3862 718.532 63.4902 718.532 62.2582V58.4362H719.89V65.4922H718.532V64.2462C718.154 65.1282 717.3 65.6042 716.25 65.6042ZM722.425 65.4922V58.4362H723.783V59.6822C724.077 58.8842 724.847 58.3242 725.897 58.3242C726.975 58.3242 727.871 58.8562 728.151 59.7802C728.445 58.9402 729.425 58.3242 730.447 58.3242C731.973 58.3242 732.925 59.3742 732.925 61.0122V65.4922H731.567V61.3902C731.567 60.2702 731.007 59.5142 730.069 59.5142C728.991 59.5142 728.347 60.5222 728.347 61.6422V65.4922H726.989V61.3902C726.989 60.2702 726.429 59.5142 725.505 59.5142C724.427 59.5142 723.783 60.5222 723.783 61.6422V65.4922H722.425ZM738.424 65.6042C736.24 65.6042 734.896 63.8822 734.896 61.9222C734.896 59.9482 736.128 58.3242 738.298 58.3242C740.468 58.3242 741.63 59.8782 741.63 61.6702C741.63 61.8522 741.616 62.0902 741.602 62.2162H736.226C736.338 63.5322 737.206 64.4422 738.424 64.4422C739.46 64.4422 740.132 63.9942 740.328 63.1962H741.686C741.448 64.6522 740.174 65.6042 738.424 65.6042ZM736.268 61.1662H740.258C740.174 60.0882 739.46 59.4162 738.298 59.4162C737.206 59.4162 736.478 60.0182 736.268 61.1662ZM743.766 65.4922V58.4362H745.124V59.6822C745.502 58.8002 746.342 58.3242 747.392 58.3242C748.988 58.3242 750.024 59.4722 750.024 61.1522V65.4922H748.666V61.4182C748.666 60.2982 748.008 59.5422 747.014 59.5422C745.908 59.5422 745.124 60.4382 745.124 61.6702V65.4922H743.766ZM755.319 65.4922C753.891 65.4922 752.967 64.6242 752.967 63.1822V59.6122H751.525V58.4362H752.967V56.2242H754.325V58.4362H756.411V59.6122H754.325V63.1402C754.325 63.8962 754.745 64.3162 755.417 64.3162H756.411V65.4922H755.319ZM678.191 87.4922L674.537 77.6922H676.021L678.905 85.7422L681.817 77.6922H683.301L679.647 87.4922H678.191ZM687.123 87.6042C684.939 87.6042 683.595 85.8822 683.595 83.9222C683.595 81.9482 684.827 80.3242 686.997 80.3242C689.167 80.3242 690.329 81.8782 690.329 83.6702C690.329 83.8522 690.315 84.0902 690.301 84.2162H684.925C685.037 85.5322 685.905 86.4422 687.123 86.4422C688.159 86.4422 688.831 85.9942 689.027 85.1962H690.385C690.147 86.6522 688.873 87.6042 687.123 87.6042ZM684.967 83.1662H688.957C688.873 82.0882 688.159 81.4162 686.997 81.4162C685.905 81.4162 685.177 82.0182 684.967 83.1662ZM692.465 87.4922V80.4362H693.823V81.7942C694.145 80.8562 694.705 80.4362 695.699 80.4362H696.553V81.6122H695.531C694.243 81.6122 693.823 82.7602 693.823 84.3002V87.4922H692.465ZM698.289 87.4922V80.4362H699.647V87.4922H698.289ZM698.205 77.4822H699.717V79.1902H698.205V77.4822ZM708.443 80.4362V87.4922H707.085V81.6122H704.187V87.4922H702.829V81.6122H701.387V80.4362H702.829V79.7502C702.829 78.3642 703.739 77.4822 705.153 77.4822H706.329V78.6582H705.265C704.607 78.6582 704.187 79.0922 704.187 79.7922V80.4362H708.443ZM713.999 87.6042C711.787 87.6042 710.513 85.9102 710.513 83.9642C710.513 82.0182 711.787 80.3242 713.999 80.3242C715.651 80.3242 717.079 81.3042 717.275 82.9002H715.917C715.791 82.1022 714.993 81.5142 714.027 81.5142C712.627 81.5142 711.927 82.6062 711.927 83.9642C711.927 85.3222 712.641 86.4142 714.041 86.4142C715.007 86.4142 715.707 85.9102 715.931 85.1122H717.275C717.051 86.5962 715.805 87.6042 713.999 87.6042ZM721.387 87.6042C719.945 87.6042 718.979 86.7362 718.979 85.4762C718.979 84.1182 720.071 83.2222 721.723 83.2222H723.207C723.529 83.2222 723.683 83.1102 723.683 82.8582C723.683 82.0042 723.053 81.4162 721.975 81.4162C720.981 81.4162 720.281 82.0322 720.239 82.7462H718.979C719.091 81.3602 720.337 80.3242 722.017 80.3242C723.837 80.3242 725.027 81.3742 725.027 82.9422V87.4922H723.683V86.3302C723.333 87.1002 722.451 87.6042 721.387 87.6042ZM721.653 86.5262C722.927 86.5262 723.683 85.7002 723.683 84.3982V84.2722H721.863C720.939 84.2722 720.337 84.7062 720.337 85.4482C720.337 86.0922 720.855 86.5262 721.653 86.5262ZM730.321 87.4922C728.893 87.4922 727.969 86.6242 727.969 85.1822V81.6122H726.527V80.4362H727.969V78.2242H729.327V80.4362H731.413V81.6122H729.327V85.1402C729.327 85.8962 729.747 86.3162 730.419 86.3162H731.413V87.4922H730.321ZM733.314 87.4922V80.4362H734.672V87.4922H733.314ZM733.23 77.4822H734.742V79.1902H733.23V77.4822ZM740.374 87.6042C738.26 87.6042 736.734 86.0782 736.734 83.9642C736.734 81.8502 738.26 80.3242 740.374 80.3242C742.488 80.3242 744 81.8502 744 83.9642C744 86.0782 742.488 87.6042 740.374 87.6042ZM740.374 86.4142C741.704 86.4142 742.614 85.4062 742.614 83.9642C742.614 82.5222 741.704 81.5142 740.374 81.5142C739.03 81.5142 738.12 82.5222 738.12 83.9642C738.12 85.4062 739.03 86.4142 740.374 86.4142ZM746.068 87.4922V80.4362H747.426V81.6822C747.804 80.8002 748.644 80.3242 749.694 80.3242C751.29 80.3242 752.326 81.4722 752.326 83.1522V87.4922H750.968V83.4182C750.968 82.2982 750.31 81.5422 749.316 81.5422C748.21 81.5422 747.426 82.4382 747.426 83.6702V87.4922H746.068ZM671.672 111.34C670.496 109.618 669.824 107.392 669.824 105.32C669.824 103.248 670.496 101.022 671.672 99.3002H672.974C671.854 101.162 671.196 103.332 671.196 105.32C671.196 107.308 671.854 109.478 672.974 111.34H671.672ZM676.432 109.492H674.976V99.6922H676.432V104.242L680.744 99.6922H682.578L678.854 103.612L682.984 109.492H681.206L677.86 104.662L676.432 106.174V109.492ZM686.996 109.492V105.404L683.566 99.6922H685.176L687.724 104.018L690.272 99.6922H691.882L688.452 105.404V109.492H686.996ZM697.265 109.604C694.731 109.604 692.477 107.952 692.477 104.592C692.477 101.232 694.759 99.5802 697.265 99.5802C699.477 99.5802 701.255 100.938 701.507 102.842H699.981C699.827 101.694 698.665 100.868 697.251 100.868C695.347 100.868 693.961 102.17 693.961 104.592C693.961 107.014 695.347 108.316 697.265 108.316C698.707 108.316 699.855 107.49 700.009 106.342H701.493C701.283 108.246 699.519 109.604 697.265 109.604ZM707.513 109.492V99.6922H708.969V108.204H713.743V109.492H707.513ZM718.232 109.604C716.048 109.604 714.704 107.882 714.704 105.922C714.704 103.948 715.936 102.324 718.106 102.324C720.276 102.324 721.438 103.878 721.438 105.67C721.438 105.852 721.424 106.09 721.41 106.216H716.034C716.146 107.532 717.014 108.442 718.232 108.442C719.268 108.442 719.94 107.994 720.136 107.196H721.494C721.256 108.652 719.982 109.604 718.232 109.604ZM716.076 105.166H720.066C719.982 104.088 719.268 103.416 718.106 103.416C717.014 103.416 716.286 104.018 716.076 105.166ZM725.229 109.492L722.639 102.436H724.039L725.901 107.798L727.763 102.436H729.163L726.573 109.492H725.229ZM733.816 109.604C731.632 109.604 730.288 107.882 730.288 105.922C730.288 103.948 731.52 102.324 733.69 102.324C735.86 102.324 737.022 103.878 737.022 105.67C737.022 105.852 737.008 106.09 736.994 106.216H731.618C731.73 107.532 732.598 108.442 733.816 108.442C734.852 108.442 735.524 107.994 735.72 107.196H737.078C736.84 108.652 735.566 109.604 733.816 109.604ZM731.66 105.166H735.65C735.566 104.088 734.852 103.416 733.69 103.416C732.598 103.416 731.87 104.018 731.66 105.166ZM739.158 109.492V99.4822H740.516V109.492H739.158ZM749.921 109.604C747.947 109.604 746.365 108.358 746.365 106.412H747.793C747.793 107.588 748.717 108.316 749.921 108.316C751.181 108.316 751.979 107.7 751.979 106.65C751.979 105.6 751.181 105.054 749.921 105.054H749.095V103.808H749.907C750.957 103.808 751.601 103.164 751.601 102.282C751.601 101.4 750.915 100.868 749.837 100.868C748.787 100.868 748.115 101.484 748.059 102.534H746.659C746.715 100.756 747.989 99.5802 749.865 99.5802C751.713 99.5802 753.057 100.658 753.057 102.17C753.057 103.136 752.469 103.976 751.713 104.34C752.693 104.662 753.449 105.474 753.449 106.664C753.449 108.526 751.867 109.604 749.921 109.604ZM755.906 99.3002C757.082 101.022 757.754 103.248 757.754 105.32C757.754 107.392 757.082 109.618 755.906 111.34H754.604C755.724 109.478 756.382 107.308 756.382 105.32C756.382 103.332 755.724 101.162 754.604 99.3002H755.906Z" fill="white"/>
<defs>
<filter id="filter0_f_227_117" x="10.2721" y="12.1178" width="160.467" height="140.751" filterUnits="userSpaceOnUse" color-interpolation-filters="sRGB">
<feFlood flood-opacity="0" result="BackgroundImageFix"/>
<feBlend mode="normal" in="SourceGraphic" in2="BackgroundImageFix" result="shape"/>
<feGaussianBlur stdDeviation="2.48405" result="effect1_foregroundBlur_227_117"/>
</filter>
<filter id="filter1_f_227_117" x="0.0612106" y="0.893242" width="180.889" height="163.2" filterUnits="userSpaceOnUse" color-interpolation-filters="sRGB">
<feFlood flood-opacity="0" result="BackgroundImageFix"/>
<feBlend mode="normal" in="SourceGraphic" in2="BackgroundImageFix" result="shape"/>
<feGaussianBlur stdDeviation="11.4577" result="effect1_foregroundBlur_227_117"/>
</filter>
<filter id="filter2_d_227_117" x="7.01655" y="8.46959" width="170.705" height="153.015" filterUnits="userSpaceOnUse" color-interpolation-filters="sRGB">
<feFlood flood-opacity="0" result="BackgroundImageFix"/>
<feColorMatrix in="SourceAlpha" type="matrix" values="0 0 0 0 0 0 0 0 0 0 0 0 0 0 0 0 0 0 127 0" result="hardAlpha"/>
<feOffset dx="1.86304" dy="2.48405"/>
<feGaussianBlur stdDeviation="8.91153"/>
<feComposite in2="hardAlpha" operator="out"/>
<feColorMatrix type="matrix" values="0 0 0 0 1 0 0 0 0 1 0 0 0 0 1 0 0 0 0.25 0"/>
<feBlend mode="normal" in2="BackgroundImageFix" result="effect1_dropShadow_227_117"/>
<feBlend mode="normal" in="SourceGraphic" in2="effect1_dropShadow_227_117" result="shape"/>
</filter>
<filter id="filter3_f_227_117" x="321.803" y="12.1178" width="160.467" height="140.751" filterUnits="userSpaceOnUse" color-interpolation-filters="sRGB">
<feFlood flood-opacity="0" result="BackgroundImageFix"/>
<feBlend mode="normal" in="SourceGraphic" in2="BackgroundImageFix" result="shape"/>
<feGaussianBlur stdDeviation="2.48405" result="effect1_foregroundBlur_227_117"/>
</filter>
<filter id="filter4_f_227_117" x="311.592" y="0.893242" width="180.889" height="163.2" filterUnits="userSpaceOnUse" color-interpolation-filters="sRGB">
<feFlood flood-opacity="0" result="BackgroundImageFix"/>
<feBlend mode="normal" in="SourceGraphic" in2="BackgroundImageFix" result="shape"/>
<feGaussianBlur stdDeviation="11.4577" result="effect1_foregroundBlur_227_117"/>
</filter>
<filter id="filter5_d_227_117" x="318.548" y="8.46959" width="170.705" height="153.015" filterUnits="userSpaceOnUse" color-interpolation-filters="sRGB">
<feFlood flood-opacity="0" result="BackgroundImageFix"/>
<feColorMatrix in="SourceAlpha" type="matrix" values="0 0 0 0 0 0 0 0 0 0 0 0 0 0 0 0 0 0 127 0" result="hardAlpha"/>
<feOffset dx="1.86304" dy="2.48405"/>
<feGaussianBlur stdDeviation="8.91153"/>
<feComposite in2="hardAlpha" operator="out"/>
<feColorMatrix type="matrix" values="0 0 0 0 1 0 0 0 0 1 0 0 0 0 1 0 0 0 0.25 0"/>
<feBlend mode="normal" in2="BackgroundImageFix" result="effect1_dropShadow_227_117"/>
<feBlend mode="normal" in="SourceGraphic" in2="effect1_dropShadow_227_117" result="shape"/>
</filter>
<filter id="filter6_f_227_117" x="633.333" y="12.1178" width="160.467" height="140.751" filterUnits="userSpaceOnUse" color-interpolation-filters="sRGB">
<feFlood flood-opacity="0" result="BackgroundImageFix"/>
<feBlend mode="normal" in="SourceGraphic" in2="BackgroundImageFix" result="shape"/>
<feGaussianBlur stdDeviation="2.48405" result="effect1_foregroundBlur_227_117"/>
</filter>
<filter id="filter7_f_227_117" x="623.122" y="0.893242" width="180.889" height="163.2" filterUnits="userSpaceOnUse" color-interpolation-filters="sRGB">
<feFlood flood-opacity="0" result="BackgroundImageFix"/>
<feBlend mode="normal" in="SourceGraphic" in2="BackgroundImageFix" result="shape"/>
<feGaussianBlur stdDeviation="11.4577" result="effect1_foregroundBlur_227_117"/>
</filter>
<filter id="filter8_d_227_117" x="630.077" y="8.46959" width="170.705" height="153.015" filterUnits="userSpaceOnUse" color-interpolation-filters="sRGB">
<feFlood flood-opacity="0" result="BackgroundImageFix"/>
<feColorMatrix in="SourceAlpha" type="matrix" values="0 0 0 0 0 0 0 0 0 0 0 0 0 0 0 0 0 0 127 0" result="hardAlpha"/>
<feOffset dx="1.86304" dy="2.48405"/>
<feGaussianBlur stdDeviation="8.91153"/>
<feComposite in2="hardAlpha" operator="out"/>
<feColorMatrix type="matrix" values="0 0 0 0 1 0 0 0 0 1 0 0 0 0 1 0 0 0 0.25 0"/>
<feBlend mode="normal" in2="BackgroundImageFix" result="effect1_dropShadow_227_117"/>
<feBlend mode="normal" in="SourceGraphic" in2="effect1_dropShadow_227_117" result="shape"/>
</filter>
</defs>
</svg>
