<svg width="222" height="64" viewBox="0 0 222 64" fill="none" xmlns="http://www.w3.org/2000/svg">
<path d="M0.519531 58.074C0.519531 60.8445 2.76541 63.0903 5.53584 63.0903L42.7625 63.0903C51.0445 63.0903 55.7597 53.6226 50.7696 47.0128L17.0524 2.35118C16.1044 1.09549 14.6222 0.357312 13.0489 0.357312L5.53585 0.357311C2.76542 0.357311 0.519534 2.60319 0.519534 5.37363L0.519531 58.074Z" fill="#FFAD01"/>
<path d="M0.519531 5.11348C0.519531 2.34305 2.76541 0.0971681 5.53584 0.0971682L42.6427 0.0971698C51.5621 0.0971702 56.0468 10.8651 49.7642 17.1964L15.4864 51.7404C14.5446 52.6895 13.2628 53.2234 11.9257 53.2234L4.96878 53.2234C4.96878 53.2234 2.19735 53.2234 0.519529 58.8604L0.519531 5.11348Z" fill="url(#paint0_linear_86_838051)"/>
<path d="M11.3945 31.5941C11.3945 28.2842 14.0777 25.6011 17.3875 25.6011L43.1414 25.6011C44.8165 25.6011 46.1745 26.959 46.1745 28.6342L46.1745 34.5539C46.1745 36.2291 44.8165 37.587 43.1414 37.587L17.3875 37.587C14.0777 37.587 11.3945 34.9039 11.3945 31.5941Z" fill="white"/>
<circle cx="18.2198" cy="31.5948" r="2.82235" fill="#FE6E00"/>
<path d="M89.8221 30.1863L89.8221 36.7101L97.1432 36.7101C99.1003 36.7101 101.891 36.0577 101.891 33.6656C101.891 31.3823 99.1003 30.1863 97.1432 30.1863L89.8221 30.1863ZM89.8221 20.1469L89.8221 25.9821L97.1432 25.9821C100.151 25.9821 101.13 24.7135 101.13 23.2638C101.13 22.104 100.188 20.1469 97.1432 20.1469L89.8221 20.1469ZM97.1432 15.7977C102.145 15.7977 105.878 18.0448 105.878 23.1551C105.878 25.1122 104.935 26.9969 102.58 28.0479C105.552 28.954 106.639 32.1072 106.639 33.7019C106.639 39.3558 102.398 41.168 97.1432 41.168C93.1202 41.168 89.1334 41.168 85.1104 41.168L85.1104 15.7977C89.0972 15.7977 93.1202 15.7977 97.1432 15.7977ZM123.696 25.7646L123.841 23.3001L128.081 23.3001L128.081 41.168L123.913 41.168L123.696 38.5585C122.681 40.6606 119.89 41.6754 117.897 41.7116C112.605 41.7479 108.691 38.486 108.691 32.2159C108.691 26.0545 112.786 22.8289 118.005 22.8651C120.397 22.8651 122.681 23.9887 123.696 25.7646ZM118.404 26.8157C115.468 26.8157 113.113 28.809 113.113 32.2159C113.113 35.6228 115.468 37.6524 118.404 37.6524C125.363 37.6524 125.363 26.8157 118.404 26.8157ZM131.826 15.834L136.211 15.834L136.211 41.168L131.826 41.168L131.826 15.834ZM154.099 25.7646L154.244 23.3001L158.484 23.3001L158.484 41.168L154.316 41.168L154.099 38.5585C153.084 40.6606 150.293 41.6754 148.3 41.7116C143.008 41.7479 139.094 38.486 139.094 32.2159C139.094 26.0546 143.19 22.8289 148.409 22.8651C150.801 22.8651 153.084 23.9887 154.099 25.7646ZM148.807 26.8157C145.872 26.8157 143.516 28.809 143.516 32.2159C143.516 35.6228 145.872 37.6524 148.807 37.6524C155.766 37.6524 155.766 26.8157 148.807 26.8157ZM179.807 41.168L175.385 41.168L175.385 31.8172C175.385 29.099 173.9 27.0331 171.073 27.0331C168.354 27.0331 166.506 29.3164 166.506 32.0347L166.506 41.168L162.12 41.168L162.12 23.2638L166.071 23.2638L166.361 25.6921C168.173 23.9162 169.985 23.0101 172.232 23.0101C176.437 23.0101 179.807 26.1633 179.807 31.781L179.807 41.168ZM195.966 35.9852L198.938 38.8847C196.872 40.9143 194.697 41.7116 192.052 41.7116C186.869 41.7116 182.556 38.5947 182.556 32.2521C182.556 25.9096 186.869 22.7927 192.052 22.7927C194.589 22.7927 196.546 23.5175 198.503 25.4384L195.712 28.3741C194.661 27.4318 193.356 26.9606 192.124 26.9606C189.152 26.9606 186.978 29.1352 186.978 32.2521C186.978 35.659 189.297 37.4712 192.052 37.4712C193.465 37.4712 194.879 37.0725 195.966 35.9852ZM219.31 33.8106L205.356 33.8106C205.646 36.0214 207.567 37.6161 210.684 37.6161C212.315 37.6161 214.453 37 215.468 35.949L218.295 38.7397C216.411 40.6968 213.33 41.6391 210.612 41.6391C204.45 41.6391 200.79 37.8336 200.79 32.1072C200.79 26.6707 204.487 22.7564 210.285 22.7564C216.266 22.7564 219.999 26.4532 219.31 33.8106ZM205.429 30.15L215.07 30.15C214.78 27.8305 212.967 26.6707 210.43 26.6707C208.038 26.6707 206.081 27.8305 205.429 30.15Z" fill="white"/>
<defs>
<linearGradient id="paint0_linear_86_838051" x1="0.51953" y1="49.8958" x2="53.44" y2="-4.39442" gradientUnits="userSpaceOnUse">
<stop stop-color="#FF6D00"/>
<stop offset="1" stop-color="#FFA200"/>
</linearGradient>
</defs>
</svg>
