<svg width="12" height="21" viewBox="0 0 12 21" fill="none" xmlns="http://www.w3.org/2000/svg">
<path d="M7.93896 0.458008C8.60598 0.366554 9.26425 0.385654 9.95264 0.416992L10.6528 0.449219C10.8563 0.457363 11.0626 0.481289 11.2788 0.508789V3.11621C10.79 3.12035 10.2912 3.12205 9.79639 3.13281L9.18604 3.15332C8.79328 3.16895 8.44775 3.28438 8.17236 3.51074C7.89762 3.7367 7.72108 4.04994 7.62354 4.41016L7.96729 4.50391L7.62256 4.41016L7.62158 4.41699C7.5788 4.58829 7.54797 4.78197 7.54736 4.96973C7.53458 5.80146 7.53467 6.63286 7.53467 7.46094C7.53467 7.51462 7.54276 7.56399 7.54834 7.59375C7.55316 7.61947 7.56304 7.66433 7.56689 7.68359L7.62354 7.9707H11.1147C10.9889 8.96859 10.8619 9.93356 10.7358 10.9287H7.54736V20.3623H4.45264V10.916H1.29346V7.94531H4.45264V7.34668L4.44775 6.17969C4.44616 5.79569 4.44537 5.41475 4.45166 5.03516C4.46115 4.66478 4.47826 4.30813 4.52588 3.96289L4.58447 3.62109L4.58545 3.61523C4.92517 1.86897 6.17729 0.706133 7.93994 0.458984L7.93896 0.458008Z" fill="#A8A8A8" stroke="#A8A8A8" stroke-width="0.713217"/>
</svg>
