<svg width="1028" height="1081" viewBox="0 0 1028 1081" fill="none" xmlns="http://www.w3.org/2000/svg">
<mask id="path-1-inside-1_1801_8" fill="white">
<path d="M67.5518 570.97C67.5518 568.488 66.6146 566.098 64.9277 564.278L5.20172 499.838C1.9458 496.325 0.136719 491.712 0.136719 486.922V20.009C0.136719 9.13593 8.95111 0.321472 19.8242 0.321472H1008.31C1019.19 0.321472 1028 9.13593 1028 20.009V1060.63C1028 1071.51 1019.19 1080.32 1008.31 1080.32H86.5517C76.0583 1080.32 67.5518 1071.81 67.5518 1061.32V570.97Z"/>
</mask>
<path d="M67.5518 570.97C67.5518 568.488 66.6146 566.098 64.9277 564.278L5.20172 499.838C1.9458 496.325 0.136719 491.712 0.136719 486.922V20.009C0.136719 9.13593 8.95111 0.321472 19.8242 0.321472H1008.31C1019.19 0.321472 1028 9.13593 1028 20.009V1060.63C1028 1071.51 1019.19 1080.32 1008.31 1080.32H86.5517C76.0583 1080.32 67.5518 1071.81 67.5518 1061.32V570.97Z" fill="#050505"/>
<path d="M67.5518 570.97H66.5674H67.5518ZM64.9277 564.278L65.6497 563.608L64.9277 564.278ZM0.136719 20.009H-0.847656H0.136719ZM1008.31 0.321472L1008.31 -0.662903H1008.31V0.321472ZM1028 1060.63L1028.98 1060.63V1060.63H1028ZM5.20172 499.838L4.47974 500.507L5.20172 499.838ZM67.5518 570.97H68.5361C68.5361 568.24 67.5053 565.61 65.6497 563.608L64.9277 564.278L64.2057 564.947C65.7239 566.585 66.5674 568.736 66.5674 570.97H67.5518ZM64.9277 564.278L65.6497 563.608L5.92365 499.169L5.20172 499.838L4.47974 500.507L64.2057 564.947L64.9277 564.278ZM0.136719 486.922H1.12109V20.009H0.136719H-0.847656V486.922H0.136719ZM0.136719 20.009H1.12109C1.12109 9.6795 9.49475 1.30585 19.8242 1.30585V0.321472V-0.662903C8.40747 -0.662903 -0.847656 8.59222 -0.847656 20.009H0.136719ZM19.8242 0.321472V1.30585H1008.31V0.321472V-0.662903H19.8242V0.321472ZM1008.31 0.321472L1008.31 1.30585C1018.64 1.30585 1027.02 9.6795 1027.02 20.009H1028H1028.98C1028.98 8.59222 1019.73 -0.662903 1008.31 -0.662903L1008.31 0.321472ZM1028 20.009H1027.02V1060.63H1028H1028.98V20.009H1028ZM1028 1060.63L1027.02 1060.63C1027.02 1070.96 1018.64 1079.34 1008.31 1079.34V1080.32V1081.31C1019.73 1081.31 1028.98 1072.05 1028.98 1060.63L1028 1060.63ZM1008.31 1080.32V1079.34H86.5517V1080.32V1081.31H1008.31V1080.32ZM67.5518 1061.32H68.5361V570.97H67.5518H66.5674V1061.32H67.5518ZM86.5517 1080.32V1079.34C76.602 1079.34 68.5361 1071.27 68.5361 1061.32H67.5518H66.5674C66.5674 1072.36 75.5146 1081.31 86.5517 1081.31V1080.32ZM5.20172 499.838L5.92365 499.169C2.83643 495.838 1.12109 491.464 1.12109 486.922H0.136719H-0.847656C-0.847656 491.96 1.05505 496.812 4.47974 500.507L5.20172 499.838Z" fill="#282828" mask="url(#path-1-inside-1_1801_8)"/>
<path d="M67.5518 570.97H66.5674H67.5518ZM64.9277 564.278L65.6497 563.608L64.9277 564.278ZM0.136719 20.009H-0.847656H0.136719ZM1008.31 0.321472L1008.31 -0.662903H1008.31V0.321472ZM1028 1060.63L1028.98 1060.63V1060.63H1028ZM5.20172 499.838L4.47974 500.507L5.20172 499.838ZM67.5518 570.97H68.5361C68.5361 568.24 67.5053 565.61 65.6497 563.608L64.9277 564.278L64.2057 564.947C65.7239 566.585 66.5674 568.736 66.5674 570.97H67.5518ZM64.9277 564.278L65.6497 563.608L5.92365 499.169L5.20172 499.838L4.47974 500.507L64.2057 564.947L64.9277 564.278ZM0.136719 486.922H1.12109V20.009H0.136719H-0.847656V486.922H0.136719ZM0.136719 20.009H1.12109C1.12109 9.6795 9.49475 1.30585 19.8242 1.30585V0.321472V-0.662903C8.40747 -0.662903 -0.847656 8.59222 -0.847656 20.009H0.136719ZM19.8242 0.321472V1.30585H1008.31V0.321472V-0.662903H19.8242V0.321472ZM1008.31 0.321472L1008.31 1.30585C1018.64 1.30585 1027.02 9.6795 1027.02 20.009H1028H1028.98C1028.98 8.59222 1019.73 -0.662903 1008.31 -0.662903L1008.31 0.321472ZM1028 20.009H1027.02V1060.63H1028H1028.98V20.009H1028ZM1028 1060.63L1027.02 1060.63C1027.02 1070.96 1018.64 1079.34 1008.31 1079.34V1080.32V1081.31C1019.73 1081.31 1028.98 1072.05 1028.98 1060.63L1028 1060.63ZM1008.31 1080.32V1079.34H86.5517V1080.32V1081.31H1008.31V1080.32ZM67.5518 1061.32H68.5361V570.97H67.5518H66.5674V1061.32H67.5518ZM86.5517 1080.32V1079.34C76.602 1079.34 68.5361 1071.27 68.5361 1061.32H67.5518H66.5674C66.5674 1072.36 75.5146 1081.31 86.5517 1081.31V1080.32ZM5.20172 499.838L5.92365 499.169C2.83643 495.838 1.12109 491.464 1.12109 486.922H0.136719H-0.847656C-0.847656 491.96 1.05505 496.812 4.47974 500.507L5.20172 499.838Z" fill="url(#paint0_linear_1801_8)" mask="url(#path-1-inside-1_1801_8)"/>
<defs>
<linearGradient id="paint0_linear_1801_8" x1="615.621" y1="800.012" x2="357.017" y2="834.97" gradientUnits="userSpaceOnUse">
<stop stop-color="#FE6E00" stop-opacity="0"/>
<stop offset="1" stop-color="#FE6E00"/>
</linearGradient>
</defs>
</svg>
