<svg width="963" height="1081" viewBox="0 0 963 1081" fill="none" xmlns="http://www.w3.org/2000/svg">
<mask id="path-1-inside-1_1801_3" fill="white">
<path d="M895.868 490.436C895.868 492.879 896.778 495.235 898.418 497.045L957.902 562.695C961.183 566.316 963 571.028 963 575.914V1060.63C963 1071.51 954.186 1080.32 943.312 1080.32H19.6875C8.81439 1080.32 0 1071.51 0 1060.63V20.0089C1.15974e-05 9.13582 8.8144 0.321411 19.6875 0.321411H876.181C887.054 0.321411 895.868 9.13581 895.868 20.0089V490.436Z"/>
</mask>
<path d="M895.868 490.436C895.868 492.879 896.778 495.235 898.418 497.045L957.902 562.695C961.183 566.316 963 571.028 963 575.914V1060.63C963 1071.51 954.186 1080.32 943.312 1080.32H19.6875C8.81439 1080.32 0 1071.51 0 1060.63V20.0089C1.15974e-05 9.13582 8.8144 0.321411 19.6875 0.321411H876.181C887.054 0.321411 895.868 9.13581 895.868 20.0089V490.436Z" fill="#050505"/>
<path d="M895.868 490.436H896.853H895.868ZM898.418 497.045L897.688 497.706L898.418 497.045ZM963 1060.63H963.984H963ZM943.312 1080.32V1081.31V1080.32ZM0 20.0089L-0.984375 20.0089V20.0089H0ZM19.6875 0.321411V-0.662964V0.321411ZM957.902 562.695L957.172 563.356L957.902 562.695ZM895.868 490.436H894.884C894.884 493.123 895.884 495.715 897.688 497.706L898.418 497.045L899.147 496.384C897.671 494.754 896.853 492.634 896.853 490.436H895.868ZM898.418 497.045L897.688 497.706L957.172 563.356L957.902 562.695L958.631 562.034L899.147 496.384L898.418 497.045ZM963 575.914H962.016V1060.63H963H963.984V575.914H963ZM963 1060.63H962.016C962.016 1070.96 953.642 1079.34 943.312 1079.34V1080.32V1081.31C954.729 1081.31 963.984 1072.05 963.984 1060.63H963ZM943.312 1080.32V1079.34H19.6875V1080.32V1081.31H943.312V1080.32ZM19.6875 1080.32V1079.34C9.35805 1079.34 0.984375 1070.96 0.984375 1060.63H0H-0.984375C-0.984375 1072.05 8.27074 1081.31 19.6875 1081.31V1080.32ZM0 1060.63H0.984375V20.0089H0H-0.984375V1060.63H0ZM0 20.0089L0.984375 20.0089C0.984386 9.67947 9.35806 1.30579 19.6875 1.30579V0.321411V-0.662964C8.27075 -0.662964 -0.984363 8.59216 -0.984375 20.0089L0 20.0089ZM19.6875 0.321411V1.30579H876.181V0.321411V-0.662964H19.6875V0.321411ZM895.868 20.0089H894.884V490.436H895.868H896.853V20.0089H895.868ZM876.181 0.321411V1.30579C886.51 1.30579 894.884 9.67946 894.884 20.0089H895.868H896.853C896.853 8.59215 887.597 -0.662964 876.181 -0.662964V0.321411ZM957.902 562.695L957.172 563.356C960.289 566.796 962.016 571.272 962.016 575.914H963H963.984C963.984 570.783 962.076 565.836 958.631 562.034L957.902 562.695Z" fill="#282828" mask="url(#path-1-inside-1_1801_3)"/>
<path d="M895.868 490.436H896.853H895.868ZM898.418 497.045L897.688 497.706L898.418 497.045ZM963 1060.63H963.984H963ZM943.312 1080.32V1081.31V1080.32ZM0 20.0089L-0.984375 20.0089V20.0089H0ZM19.6875 0.321411V-0.662964V0.321411ZM957.902 562.695L957.172 563.356L957.902 562.695ZM895.868 490.436H894.884C894.884 493.123 895.884 495.715 897.688 497.706L898.418 497.045L899.147 496.384C897.671 494.754 896.853 492.634 896.853 490.436H895.868ZM898.418 497.045L897.688 497.706L957.172 563.356L957.902 562.695L958.631 562.034L899.147 496.384L898.418 497.045ZM963 575.914H962.016V1060.63H963H963.984V575.914H963ZM963 1060.63H962.016C962.016 1070.96 953.642 1079.34 943.312 1079.34V1080.32V1081.31C954.729 1081.31 963.984 1072.05 963.984 1060.63H963ZM943.312 1080.32V1079.34H19.6875V1080.32V1081.31H943.312V1080.32ZM19.6875 1080.32V1079.34C9.35805 1079.34 0.984375 1070.96 0.984375 1060.63H0H-0.984375C-0.984375 1072.05 8.27074 1081.31 19.6875 1081.31V1080.32ZM0 1060.63H0.984375V20.0089H0H-0.984375V1060.63H0ZM0 20.0089L0.984375 20.0089C0.984386 9.67947 9.35806 1.30579 19.6875 1.30579V0.321411V-0.662964C8.27075 -0.662964 -0.984363 8.59216 -0.984375 20.0089L0 20.0089ZM19.6875 0.321411V1.30579H876.181V0.321411V-0.662964H19.6875V0.321411ZM895.868 20.0089H894.884V490.436H895.868H896.853V20.0089H895.868ZM876.181 0.321411V1.30579C886.51 1.30579 894.884 9.67946 894.884 20.0089H895.868H896.853C896.853 8.59215 887.597 -0.662964 876.181 -0.662964V0.321411ZM957.902 562.695L957.172 563.356C960.289 566.796 962.016 571.272 962.016 575.914H963H963.984C963.984 570.783 962.076 565.836 958.631 562.034L957.902 562.695Z" fill="url(#paint0_linear_1801_3)" mask="url(#path-1-inside-1_1801_3)"/>
<defs>
<linearGradient id="paint0_linear_1801_3" x1="343.374" y1="941.141" x2="933.292" y2="1023.79" gradientUnits="userSpaceOnUse">
<stop stop-color="#FE6E00" stop-opacity="0"/>
<stop offset="1" stop-color="#FE6E00"/>
</linearGradient>
</defs>
</svg>
