<svg width="20" height="20" viewBox="0 0 20 20" fill="none" xmlns="http://www.w3.org/2000/svg">
<path d="M14.5586 6.80762C15.3296 6.73857 16.092 6.79733 16.8262 7.02246V7.02344C17.9828 7.39442 18.6955 8.18741 19.0049 9.34375V9.34473C19.0872 9.66208 19.1413 9.9808 19.1895 10.3086L19.3379 11.3271L19.3389 11.334C19.359 11.4447 19.37 11.5587 19.3818 11.7002V18.9287H16.2041C16.2043 17.3931 16.2108 15.86 16.2041 14.3232L16.1914 12.7559C16.1911 12.3488 16.1475 11.9387 16.0781 11.542L16.001 11.1484C15.9171 10.758 15.7549 10.4011 15.4922 10.1152C15.26 9.86269 14.9622 9.6799 14.6055 9.5752L14.4482 9.53516L14.4443 9.53418L14.1934 9.49316C14.0254 9.47212 13.8565 9.46382 13.6885 9.4668L13.4404 9.47852C12.8877 9.51946 12.3994 9.68983 12.0146 10.0107C11.677 10.2925 11.4416 10.6718 11.3047 11.1279L11.252 11.3281V11.3301C11.1246 11.9035 11.0609 12.5122 11.0605 13.0957C11.0377 15.0604 11.0457 17.016 11.0469 18.9746C10.0054 18.9667 8.9501 18.9659 7.89453 18.9658V7.10156H10.9023V9.44629L11.5713 8.65625C11.8621 8.3125 12.0609 8.03522 12.3213 7.78613L12.3203 7.78516C12.9437 7.19526 13.6997 6.88676 14.5596 6.80859L14.5586 6.80762Z" fill="#A8A8A8" stroke="#A8A8A8" stroke-width="0.758112"/>
<path d="M4.68164 7.10059V18.9639H1.51562V7.10059H4.68164Z" fill="#A8A8A8" stroke="#A8A8A8" stroke-width="0.758112"/>
<path d="M3.1333 0.782227C4.11592 0.812732 4.901 1.5652 4.979 2.50195L4.98486 2.69238C4.96572 3.70713 4.19522 4.5055 3.23584 4.57617L3.04248 4.58008H3.03857C2.09981 4.56121 1.28678 3.77623 1.20557 2.82617L1.19971 2.63379C1.22012 1.60597 2.10192 0.76298 3.1333 0.783203V0.782227Z" fill="#A8A8A8" stroke="#A8A8A8" stroke-width="0.758112"/>
</svg>
