<svg width="1920" height="1296" viewBox="0 0 1920 1296" fill="none" xmlns="http://www.w3.org/2000/svg">
<g clip-path="url(#clip0_252_22056)">
<path d="M1919.5 25.0547L1814.11 25.0547C1469.58 25.0547 1190.28 304.35 1190.28 648.878V648.878" stroke="#282828"/>
<path d="M1919.5 25.0547L1814.11 25.0547C1469.58 25.0547 1190.28 304.35 1190.28 648.878V648.878" stroke="url(#paint0_linear_252_22056)" stroke-linecap="round"/>
<path d="M1919.5 1272.98H1814.37C1469.7 1272.98 1190.28 993.565 1190.28 648.891V648.891" stroke="#282828"/>
<path d="M1919.5 1272.98H1814.37C1469.7 1272.98 1190.28 993.565 1190.28 648.891V648.891" stroke="url(#paint1_linear_252_22056)" stroke-linecap="round"/>
<path d="M1919.5 114.252H1724.94C1429.66 114.252 1190.28 353.624 1190.28 648.904V648.904" stroke="#282828"/>
<path d="M1919.5 114.25H1724.94C1429.66 114.25 1190.28 353.622 1190.28 648.902V648.902" stroke="url(#paint2_linear_252_22056)" stroke-linecap="round"/>
<path d="M1919.5 1183.79H1725.14C1429.75 1183.79 1190.28 944.324 1190.28 648.93V648.93" stroke="#282828"/>
<path d="M1919.5 1183.79H1725.14C1429.75 1183.79 1190.28 944.322 1190.28 648.928V648.928" stroke="url(#paint3_linear_252_22056)" stroke-linecap="round"/>
<path d="M1919.5 211.347L1627.83 211.346C1386.18 211.346 1190.28 407.242 1190.28 648.892V648.892" stroke="#282828"/>
<path d="M1919.5 211.347L1627.83 211.346C1386.18 211.346 1190.28 407.242 1190.28 648.892V648.892" stroke="url(#paint4_linear_252_22056)" stroke-linecap="round"/>
<path d="M1919.5 1086.69H1628.09C1386.3 1086.69 1190.28 890.672 1190.28 648.877V648.877" stroke="#282828"/>
<path d="M1919.5 1086.69H1628.09C1386.3 1086.69 1190.28 890.672 1190.28 648.877V648.877" stroke="url(#paint5_linear_252_22056)" stroke-linecap="round"/>
<path d="M1919.5 300.941L1538.22 300.942C1346.06 300.942 1190.28 456.717 1190.28 648.876V648.876" stroke="#282828"/>
<path d="M1919.5 300.941L1538.22 300.942C1346.06 300.942 1190.28 456.717 1190.28 648.876V648.876" stroke="url(#paint6_linear_252_22056)" stroke-linecap="round"/>
<path d="M1919.5 997.031H1538.42C1346.15 997.031 1190.28 841.167 1190.28 648.898V648.898" stroke="#282828"/>
<path d="M1919.5 997.029H1538.42C1346.15 997.029 1190.28 841.165 1190.28 648.896V648.896" stroke="url(#paint7_linear_252_22056)" stroke-linecap="round"/>
<path d="M1919.5 907.402H1448.71C1305.98 907.402 1190.28 791.703 1190.28 648.98V648.98" stroke="#282828"/>
<path d="M1919.5 907.402H1448.71C1305.98 907.402 1190.28 791.703 1190.28 648.98V648.98" stroke="url(#paint8_linear_252_22056)" stroke-linecap="round"/>
<path d="M1919.5 390.57L1448.61 390.571C1305.94 390.571 1190.28 506.228 1190.28 648.897V648.897" stroke="#282828"/>
<path d="M1919.5 390.57L1448.61 390.571C1305.94 390.571 1190.28 506.228 1190.28 648.897V648.897" stroke="url(#paint9_linear_252_22056)" stroke-linecap="round"/>
<path d="M1920 472.729L1366.38 472.729C1269.12 472.729 1190.28 551.568 1190.28 648.82V648.82" stroke="#282828"/>
<path d="M1920 472.729L1366.38 472.729C1269.12 472.729 1190.28 551.568 1190.28 648.82V648.82" stroke="url(#paint10_linear_252_22056)" stroke-linecap="round"/>
<path d="M1919.5 825.243H1366.56C1269.2 825.243 1190.28 746.323 1190.28 648.971V648.971" stroke="#282828"/>
<path d="M1919.5 825.243H1366.56C1269.2 825.243 1190.28 746.323 1190.28 648.971V648.971" stroke="url(#paint11_linear_252_22056)" stroke-linecap="round"/>
<path d="M1919.5 557.686L1281.49 557.686C1231.12 557.686 1190.28 598.52 1190.28 648.892V648.892" stroke="#282828"/>
<path d="M1919.5 557.686L1281.49 557.686C1231.12 557.686 1190.28 598.52 1190.28 648.892V648.892" stroke="url(#paint12_linear_252_22056)" stroke-linecap="round"/>
<path d="M1919.5 739.798H1281.1C1230.94 739.798 1190.28 699.14 1190.28 648.986V648.986" stroke="#282828"/>
<path d="M1919.5 739.798H1281.1C1230.94 739.798 1190.28 699.14 1190.28 648.986V648.986" stroke="url(#paint13_linear_252_22056)" stroke-linecap="round"/>
<line x1="-12.8145" y1="648.871" x2="2159.68" y2="648.871" stroke="#282828"/>
<line x1="-12.3145" y1="648.871" x2="2159.18" y2="648.871" stroke="url(#paint14_linear_252_22056)" stroke-linecap="round"/>
</g>
<defs>
<linearGradient id="paint0_linear_252_22056" x1="1783.53" y1="25.0547" x2="1559.83" y2="25.0547" gradientUnits="userSpaceOnUse">
<stop offset="0.4999" stop-color="#282828" stop-opacity="0"/>
<stop offset="0.5" stop-color="#FE6E00"/>
<stop offset="1" stop-color="#282828" stop-opacity="0"/>
</linearGradient>
<linearGradient id="paint1_linear_252_22056" x1="1783.53" y1="648.891" x2="1559.83" y2="648.891" gradientUnits="userSpaceOnUse">
<stop offset="0.4999" stop-color="#282828" stop-opacity="0"/>
<stop offset="0.5" stop-color="#FE6E00"/>
<stop offset="1" stop-color="#282828" stop-opacity="0"/>
</linearGradient>
<linearGradient id="paint2_linear_252_22056" x1="1863.5" y1="114.125" x2="1658" y2="114.125" gradientUnits="userSpaceOnUse">
<stop stop-color="#282828" stop-opacity="0"/>
<stop stop-color="#FE6E00"/>
<stop offset="0.497746" stop-color="#282828" stop-opacity="0"/>
</linearGradient>
<linearGradient id="paint3_linear_252_22056" x1="1863.5" y1="648.802" x2="1658" y2="648.802" gradientUnits="userSpaceOnUse">
<stop stop-color="#282828" stop-opacity="0"/>
<stop stop-color="#FE6E00"/>
<stop offset="0.497746" stop-color="#282828" stop-opacity="0"/>
</linearGradient>
<linearGradient id="paint4_linear_252_22056" x1="1673" y1="211.173" x2="1454" y2="211.173" gradientUnits="userSpaceOnUse">
<stop offset="0.4999" stop-color="#282828" stop-opacity="0"/>
<stop offset="0.5" stop-color="#FE6E00"/>
<stop offset="1" stop-color="#282828" stop-opacity="0"/>
</linearGradient>
<linearGradient id="paint5_linear_252_22056" x1="1673" y1="648.704" x2="1454" y2="648.704" gradientUnits="userSpaceOnUse">
<stop offset="0.4999" stop-color="#282828" stop-opacity="0"/>
<stop offset="0.5" stop-color="#FE6E00"/>
<stop offset="1" stop-color="#282828" stop-opacity="0"/>
</linearGradient>
<linearGradient id="paint6_linear_252_22056" x1="1783.53" y1="300.941" x2="1559.83" y2="300.941" gradientUnits="userSpaceOnUse">
<stop stop-color="#282828" stop-opacity="0"/>
<stop stop-color="#FE6E00"/>
<stop offset="0.497746" stop-color="#282828" stop-opacity="0"/>
</linearGradient>
<linearGradient id="paint7_linear_252_22056" x1="1783.53" y1="648.896" x2="1559.83" y2="648.896" gradientUnits="userSpaceOnUse">
<stop stop-color="#282828" stop-opacity="0"/>
<stop stop-color="#FE6E00"/>
<stop offset="0.497746" stop-color="#282828" stop-opacity="0"/>
</linearGradient>
<linearGradient id="paint8_linear_252_22056" x1="1673" y1="648.878" x2="1454" y2="648.878" gradientUnits="userSpaceOnUse">
<stop offset="0.4999" stop-color="#282828" stop-opacity="0"/>
<stop offset="0.5" stop-color="#FE6E00"/>
<stop offset="1" stop-color="#282828" stop-opacity="0"/>
</linearGradient>
<linearGradient id="paint9_linear_252_22056" x1="1673" y1="390.468" x2="1454" y2="390.468" gradientUnits="userSpaceOnUse">
<stop offset="0.4999" stop-color="#282828" stop-opacity="0"/>
<stop offset="0.5" stop-color="#FE6E00"/>
<stop offset="1" stop-color="#282828" stop-opacity="0"/>
</linearGradient>
<linearGradient id="paint10_linear_252_22056" x1="1863.96" y1="472.687" x2="1658.32" y2="472.687" gradientUnits="userSpaceOnUse">
<stop stop-color="#282828" stop-opacity="0"/>
<stop stop-color="#FE6E00"/>
<stop offset="0.497746" stop-color="#282828" stop-opacity="0"/>
</linearGradient>
<linearGradient id="paint11_linear_252_22056" x1="1863.5" y1="648.929" x2="1658" y2="648.929" gradientUnits="userSpaceOnUse">
<stop stop-color="#282828" stop-opacity="0"/>
<stop stop-color="#FE6E00"/>
<stop offset="0.497746" stop-color="#282828" stop-opacity="0"/>
</linearGradient>
<linearGradient id="paint12_linear_252_22056" x1="1783.53" y1="466.538" x2="1559.83" y2="466.538" gradientUnits="userSpaceOnUse">
<stop offset="0.4999" stop-color="#282828" stop-opacity="0"/>
<stop offset="0.5" stop-color="#FE6E00"/>
<stop offset="1" stop-color="#282828" stop-opacity="0"/>
</linearGradient>
<linearGradient id="paint13_linear_252_22056" x1="1783.53" y1="558.233" x2="1559.83" y2="558.233" gradientUnits="userSpaceOnUse">
<stop offset="0.4999" stop-color="#282828" stop-opacity="0"/>
<stop offset="0.5" stop-color="#FE6E00"/>
<stop offset="1" stop-color="#282828" stop-opacity="0"/>
</linearGradient>
<linearGradient id="paint14_linear_252_22056" x1="721.564" y1="649.371" x2="1915.5" y2="648.991" gradientUnits="userSpaceOnUse">
<stop stop-color="#282828" stop-opacity="0"/>
<stop offset="0.19654" stop-color="#FE6E00"/>
<stop offset="0.196544" stop-color="#934B14" stop-opacity="0.5"/>
<stop offset="0.196548" stop-color="#282828" stop-opacity="0"/>
</linearGradient>
<clipPath id="clip0_252_22056">
<rect width="1920" height="1296" fill="white" transform="matrix(-1 0 0 -1 1920 1296)"/>
</clipPath>
</defs>
</svg>
