<svg width="249" height="250" viewBox="0 0 249 250" fill="none" xmlns="http://www.w3.org/2000/svg">
<path d="M36.0513 210.673H168.677M204.043 210.673H212.885" stroke="white" stroke-width="3.40971" stroke-linecap="round" stroke-linejoin="round"/>
<path d="M36.0513 170.001V56.8275C36.0513 55.4205 36.6102 54.0711 37.6051 53.0763C38.6 52.0814 39.9493 51.5225 41.3563 51.5225H207.58C208.987 51.5225 210.336 52.0814 211.331 53.0763C212.326 54.0711 212.885 55.4205 212.885 56.8275V170.001C212.885 171.408 212.326 172.757 211.331 173.752C210.336 174.747 208.987 175.306 207.58 175.306H41.3563C39.9493 175.306 38.6 174.747 37.6051 173.752C36.6102 172.757 36.0513 171.408 36.0513 170.001Z" stroke="white" stroke-width="3.40971"/>
<path d="M124.501 120.442C128.76 120.442 132.213 116.99 132.213 112.731C132.213 108.472 128.76 105.019 124.501 105.019C120.242 105.019 116.79 108.472 116.79 112.731C116.79 116.99 120.242 120.442 124.501 120.442Z" stroke="white" stroke-width="3.85579"/>
<path d="M128.803 146.5H120.197C118.328 146.5 116.708 145.205 116.296 143.381L114.514 135.492C113.979 133.12 111.468 131.771 109.194 132.633L102.224 135.277C100.371 135.98 98.2834 135.22 97.3153 133.492L93.4456 126.581C92.5866 125.047 92.8298 123.132 94.045 121.862L100.232 115.394C101.76 113.796 101.703 111.262 100.104 109.735L94.2436 104.142C92.9231 102.881 92.6235 100.887 93.5155 99.2938L97.4176 92.3258C98.3403 90.6781 100.29 89.9002 102.093 90.46L109.366 92.717C111.595 93.4086 113.939 92.0539 114.453 89.7778L116.296 81.619C116.708 79.7952 118.328 78.5 120.197 78.5H128.803C130.672 78.5 132.292 79.7952 132.704 81.619L134.556 89.8177C135.066 92.0791 137.386 93.4341 139.607 92.768L147.428 90.4217C149.223 89.8831 151.151 90.6633 152.067 92.2986L155.989 99.3017C156.879 100.891 156.583 102.88 155.269 104.142L148.291 110.841C146.547 112.514 146.675 115.34 148.562 116.85L154.852 121.881C156.38 123.104 156.799 125.252 155.843 126.959L152.166 133.525C151.206 135.239 149.143 136.003 147.299 135.326L139.776 132.568C137.509 131.737 135.029 133.087 134.497 135.442L132.704 143.381C132.292 145.205 130.672 146.5 128.803 146.5Z" stroke="white" stroke-width="4"/>
</svg>
