<svg width="249" height="250" viewBox="0 0 249 250" fill="none" xmlns="http://www.w3.org/2000/svg">
<path d="M36.0513 210.673H168.677M204.043 210.673H212.885" stroke="white" stroke-width="3.40971" stroke-linecap="round" stroke-linejoin="round"/>
<path d="M36.0513 170.001V56.8275C36.0513 55.4205 36.6102 54.0711 37.6051 53.0763C38.6 52.0814 39.9493 51.5225 41.3563 51.5225H207.58C208.987 51.5225 210.336 52.0814 211.331 53.0763C212.326 54.0711 212.885 55.4205 212.885 56.8275V170.001C212.885 171.408 212.326 172.757 211.331 173.752C210.336 174.747 208.987 175.306 207.58 175.306H41.3563C39.9493 175.306 38.6 174.747 37.6051 173.752C36.6102 172.757 36.0513 171.408 36.0513 170.001Z" stroke="white" stroke-width="3.40971"/>
<path d="M124.501 120.442C128.76 120.442 132.213 116.99 132.213 112.731C132.213 108.472 128.76 105.019 124.501 105.019C120.242 105.019 116.79 108.472 116.79 112.731C116.79 116.99 120.242 120.442 124.501 120.442Z" stroke="white" stroke-width="3.85579"/>
<path d="M99.048 89.1332L100.012 87.4598C99.6335 87.241 99.1919 87.1573 98.7596 87.2224C98.3273 87.2876 97.93 87.4977 97.6329 87.8184L99.048 89.1332ZM91.3402 102.49L89.4972 101.919C89.3689 102.336 89.386 102.785 89.5457 103.191C89.7054 103.597 89.9982 103.937 90.3763 104.155L91.3402 102.49ZM91.3325 122.968L90.3686 121.298C89.9897 121.517 89.6963 121.857 89.5366 122.264C89.3768 122.671 89.3602 123.121 89.4895 123.538L91.3325 122.968ZM99.0441 136.324L97.629 137.635C97.9262 137.956 98.3235 138.166 98.7558 138.231C99.188 138.296 99.6296 138.213 100.008 137.994L99.0441 136.324ZM116.781 146.561H114.853C114.853 146.999 115.001 147.424 115.275 147.766C115.548 148.108 115.93 148.347 116.357 148.443L116.781 146.561ZM132.208 146.569L132.636 148.451C133.062 148.354 133.443 148.115 133.715 147.773C133.988 147.431 134.136 147.006 134.136 146.569H132.208ZM149.948 136.328L148.984 137.998C149.363 138.216 149.804 138.3 150.237 138.235C150.669 138.17 151.066 137.96 151.363 137.639L149.948 136.328ZM157.652 122.964L159.495 123.535C159.624 123.117 159.606 122.669 159.447 122.263C159.287 121.856 158.994 121.516 158.616 121.298L157.652 122.964ZM157.66 102.486L158.624 104.155C159.003 103.937 159.296 103.596 159.456 103.189C159.616 102.782 159.632 102.333 159.503 101.915L157.66 102.486ZM149.948 89.1255L151.363 87.8145C151.066 87.4939 150.669 87.2837 150.237 87.2186C149.804 87.1534 149.363 87.2371 148.984 87.4559L149.948 89.1255ZM132.212 78.896H134.14C134.139 78.4595 133.99 78.036 133.718 77.6948C133.446 77.3537 133.065 77.1152 132.64 77.0183L132.212 78.896ZM116.788 78.8883L116.36 77.0067C115.933 77.103 115.552 77.3418 115.279 77.6838C115.005 78.0258 114.857 78.4506 114.857 78.8883H116.788ZM93.1833 103.06C94.6312 98.3611 97.1179 94.0479 100.459 90.4403L97.6329 87.8184C93.8972 91.8499 91.1166 96.6667 89.4972 101.919L93.1833 103.06ZM96.1137 129.118C94.8876 126.996 93.9033 124.743 93.1795 122.401L89.4933 123.542C90.3044 126.158 91.4063 128.675 92.7785 131.046L96.1137 129.118ZM100.463 135.017C98.7986 133.219 97.3372 131.24 96.1137 129.118L92.7785 131.046C94.1451 133.418 95.7734 135.63 97.6329 137.639L100.463 135.017ZM131.784 144.695C126.989 145.785 122.01 145.783 117.216 144.687L116.36 148.443C121.717 149.668 127.281 149.672 132.64 148.455L131.784 144.695ZM155.817 122.401C154.369 127.1 151.882 131.413 148.541 135.021L151.367 137.643C155.103 133.611 157.884 128.791 159.503 123.538L155.817 122.401ZM152.886 96.3435C154.136 98.5143 155.111 100.766 155.825 103.06L159.507 101.919C158.696 99.3029 157.594 96.7861 156.222 94.4156L152.886 96.3435ZM148.537 90.4441C150.202 92.242 151.663 94.2208 152.886 96.3435L156.222 94.4156C154.855 92.0433 153.227 89.8317 151.367 87.8222L148.537 90.4441ZM117.216 80.7661C122.011 79.6759 126.99 79.6785 131.784 80.7738L132.64 77.0183C127.283 75.7934 121.719 75.7894 116.36 77.0067L117.216 80.7661ZM118.716 86.0177V78.8845H114.861V86.0177H118.716ZM106.185 91.0225L100.012 87.4598L98.084 90.795L104.253 94.3616L106.185 91.0225ZM96.5456 117.735L90.3686 121.298L92.3003 124.637L98.4696 121.075L96.5456 117.735ZM98.4735 104.379L92.3042 100.82L90.3763 104.159L96.5456 107.718L98.4735 104.379ZM118.716 146.561V139.44H114.861V146.561H118.716ZM104.257 131.092L98.084 134.655L100.012 137.994L106.181 134.431L104.257 131.092ZM150.916 134.659L144.743 131.092L142.815 134.435L148.984 137.998L150.916 134.659ZM134.14 146.573V139.44H130.284V146.573H134.14ZM156.7 100.816L150.527 104.379L152.455 107.718L158.624 104.155L156.7 100.816ZM158.62 121.294L152.455 117.743L150.527 121.082L156.696 124.641L158.62 121.294ZM134.14 86.0177V78.896H130.284V86.0177H134.14ZM148.988 87.4598L142.815 91.0264L144.743 94.3655L150.916 90.7989L148.988 87.4598ZM130.284 86.0177C130.284 93.4362 138.315 98.0748 144.743 94.3655L142.815 91.0264C141.936 91.5342 140.938 91.8014 139.922 91.8012C138.907 91.8011 137.909 91.5335 137.03 91.0254C136.15 90.5174 135.42 89.7867 134.913 88.907C134.406 88.0272 134.139 87.0333 134.14 86.0177H130.284ZM150.527 104.383C144.099 108.092 144.099 117.369 150.527 121.078L152.455 117.739C151.575 117.232 150.845 116.502 150.338 115.622C149.83 114.743 149.563 113.746 149.563 112.731C149.563 111.715 149.83 110.718 150.338 109.839C150.845 108.96 151.575 108.23 152.455 107.722L150.527 104.383ZM144.743 131.096C138.315 127.387 130.284 132.017 130.284 139.44H134.14C134.14 138.424 134.407 137.431 134.914 136.552C135.422 135.673 136.152 134.942 137.031 134.435C137.911 133.927 138.908 133.66 139.923 133.66C140.939 133.66 141.936 133.927 142.815 134.435L144.743 131.096ZM118.716 139.44C118.716 132.021 110.685 127.387 104.257 131.096L106.185 134.435C107.065 133.927 108.062 133.66 109.078 133.66C110.093 133.66 111.091 133.928 111.97 134.436C112.85 134.944 113.58 135.675 114.087 136.554C114.594 137.434 114.861 138.432 114.861 139.447L118.716 139.44ZM98.4735 121.078C104.901 117.369 104.901 108.092 98.4735 104.383L96.5456 107.722C100.401 109.947 100.401 115.507 96.5456 117.735L98.4735 121.078ZM114.861 86.0177C114.86 87.0326 114.592 88.0295 114.084 88.9081C113.576 89.7868 112.846 90.5164 111.967 91.0235C111.088 91.5307 110.091 91.7976 109.076 91.7974C108.061 91.7972 107.064 91.53 106.185 91.0225L104.257 94.3655C110.685 98.0748 118.716 93.4401 118.716 86.0177H114.861Z" fill="white"/>
</svg>
