<svg width="249" height="250" viewBox="0 0 249 250" fill="none" xmlns="http://www.w3.org/2000/svg">
<path d="M82.979 104.192V73.075C82.979 62.0713 87.3502 51.5182 95.131 43.7374C102.912 35.9567 113.465 31.5854 124.469 31.5854C135.472 31.5854 146.025 35.9567 153.806 43.7374C161.587 51.5182 165.958 62.0713 165.958 73.075V104.192" stroke="white" stroke-width="4" stroke-linecap="round"/>
<path d="M51.8618 104.192H197.075V197.543C197.075 203.045 194.889 208.322 190.999 212.212C187.109 216.102 181.832 218.288 176.33 218.288H72.6066C67.1047 218.288 61.8282 216.102 57.9378 212.212C54.0474 208.322 51.8618 203.045 51.8618 197.543V104.192Z" stroke="white" stroke-width="4" stroke-linejoin="round"/>
<path d="M150.399 161.24H150.503V161.344H150.399V161.24Z" stroke="white" stroke-width="10" stroke-linejoin="round"/>
</svg>
