<svg width="1739" height="164" viewBox="0 0 1739 164" fill="none" xmlns="http://www.w3.org/2000/svg">
<line x1="166.152" y1="75.0977" x2="327.358" y2="75.0976" stroke="white"/>
<line x1="477.684" y1="75.0977" x2="638.89" y2="75.0976" stroke="white"/>
<line x1="789.215" y1="75.0977" x2="950.421" y2="75.0976" stroke="white"/>
<line x1="1100.74" y1="75.0977" x2="1261.95" y2="75.0976" stroke="white"/>
<line x1="1412.27" y1="75.0977" x2="1573.48" y2="75.0976" stroke="white"/>
<g filter="url(#filter0_f_224_2)">
<path d="M38.0273 35.1902L54.5316 18.348C55.6997 17.156 57.2983 16.4844 58.9671 16.4844L159.943 16.4844C163.373 16.4844 166.154 19.2648 166.154 22.6945V102.578C166.154 104.216 165.506 105.789 164.352 106.952L145.535 125.917L126.057 145.471C124.892 146.641 123.308 147.299 121.657 147.299H21.834C18.4043 147.299 15.6239 144.519 15.6239 141.089L15.6231 61.1045C15.6231 59.5052 16.24 57.9675 17.3455 56.8118L38.0273 35.1902Z" fill="#FF5E01"/>
</g>
<path d="M58.9668 16.7949H159.943C163.202 16.7949 165.843 19.4361 165.843 22.6943V102.578C165.843 104.135 165.227 105.628 164.131 106.733L145.314 125.697L125.837 145.252C124.73 146.363 123.226 146.988 121.657 146.988H21.834C18.5758 146.988 15.9346 144.347 15.9346 141.089L15.9336 61.1045C15.9336 59.5852 16.5201 58.1243 17.5703 57.0264L38.251 35.4043L54.7529 18.5654C55.8625 17.4332 57.3815 16.795 58.9668 16.7949Z" fill="#FF5100" stroke="white" stroke-width="0.621012"/>
<g filter="url(#filter1_f_224_2)">
<path d="M43.4609 39.9902L58.0811 25.0706C59.2492 23.8787 60.8478 23.207 62.5166 23.207L152.208 23.207C155.638 23.207 158.418 25.9874 158.418 29.4172V100.189C158.418 101.827 157.77 103.399 156.616 104.563L139.919 121.392L122.63 138.749C121.464 139.918 119.881 140.576 118.23 140.576H29.5702C26.1405 140.576 23.3601 137.796 23.3601 134.366L23.3594 63.4971C23.3594 61.8978 23.9764 60.3601 25.0819 59.2044L43.4609 39.9902Z" fill="#FF833B"/>
</g>
<g filter="url(#filter2_d_224_2)">
<path d="M43.4609 39.9902L58.0811 25.0706C59.2492 23.8787 60.8478 23.207 62.5166 23.207L152.208 23.207C155.638 23.207 158.418 25.9874 158.418 29.4172V100.189C158.418 101.827 157.77 103.399 156.616 104.563L139.919 121.392L122.63 138.749C121.464 139.918 119.881 140.576 118.23 140.576H29.5702C26.1405 140.576 23.3601 137.796 23.3601 134.366L23.3594 63.4971C23.3594 61.8978 23.9764 60.3601 25.0819 59.2044L43.4609 39.9902Z" fill="#FF5100"/>
<path d="M62.5166 23.5176H152.208C155.466 23.5177 158.107 26.1589 158.107 29.417V100.188C158.107 101.745 157.492 103.239 156.396 104.344L139.698 121.173L122.409 138.529C121.302 139.641 119.798 140.266 118.229 140.266H29.5703C26.3121 140.266 23.671 137.624 23.6709 134.366L23.6699 63.4971C23.6699 61.9777 24.2564 60.5169 25.3066 59.4189L43.6846 40.2041L58.3027 25.2881C59.4124 24.1557 60.9312 23.5176 62.5166 23.5176Z" stroke="white" stroke-width="0.621012"/>
</g>
<path d="M68.5955 66.0926H71.6055C72.5295 66.0926 73.3649 66.2839 74.1115 66.6666C74.8582 67.0399 75.4509 67.5999 75.8895 68.3466C76.3282 69.0839 76.5475 69.9659 76.5475 70.9926C76.5475 72.0192 76.3282 72.9059 75.8895 73.6526C75.4509 74.3899 74.8582 74.9499 74.1115 75.3326C73.3649 75.7059 72.5295 75.8926 71.6055 75.8926H68.5955V66.0926ZM71.5215 74.6046C72.1655 74.6046 72.7535 74.4786 73.2855 74.2266C73.8175 73.9746 74.2422 73.5779 74.5595 73.0366C74.8862 72.4952 75.0495 71.8139 75.0495 70.9926C75.0495 70.1712 74.8862 69.4899 74.5595 68.9486C74.2422 68.4072 73.8175 68.0106 73.2855 67.7586C72.7535 67.5066 72.1655 67.3806 71.5215 67.3806H70.0515V74.6046H71.5215ZM78.6545 68.8366H80.0125V75.8926H78.6545V68.8366ZM80.0825 65.8826V67.5906H78.5705V65.8826H80.0825ZM83.0405 77.6146H86.3025C86.7132 77.6146 87.0492 77.4792 87.3105 77.2086C87.5718 76.9379 87.7025 76.5832 87.7025 76.1446V74.9966C87.5252 75.2952 87.2265 75.5379 86.8065 75.7246C86.3958 75.9112 85.9338 76.0046 85.4205 76.0046C84.7298 76.0046 84.1325 75.8506 83.6285 75.5426C83.1338 75.2252 82.7558 74.7912 82.4945 74.2406C82.2332 73.6899 82.1025 73.0646 82.1025 72.3646C82.1025 71.6646 82.2332 71.0392 82.4945 70.4886C82.7558 69.9379 83.1385 69.5086 83.6425 69.2006C84.1465 68.8832 84.7438 68.7246 85.4345 68.7246C85.8918 68.7246 86.3258 68.8226 86.7365 69.0186C87.1565 69.2146 87.4785 69.4666 87.7025 69.7746V68.8366H89.0605V76.2286C89.0605 76.7326 88.9532 77.1712 88.7385 77.5446C88.5238 77.9272 88.2158 78.2212 87.8145 78.4266C87.4225 78.6412 86.9652 78.7486 86.4425 78.7486H83.0405V77.6146ZM85.6445 74.8146C86.0738 74.8146 86.4518 74.7119 86.7785 74.5066C87.1052 74.3012 87.3572 74.0166 87.5345 73.6526C87.7118 73.2792 87.8005 72.8499 87.8005 72.3646C87.8005 71.6272 87.6045 71.0346 87.2125 70.5866C86.8205 70.1386 86.2978 69.9146 85.6445 69.9146C85.2058 69.9146 84.8232 70.0172 84.4965 70.2226C84.1792 70.4279 83.9272 70.7172 83.7405 71.0906C83.5632 71.4546 83.4745 71.8792 83.4745 72.3646C83.4745 73.1019 83.6705 73.6946 84.0625 74.1426C84.4545 74.5906 84.9818 74.8146 85.6445 74.8146ZM91.6007 68.8366H92.9587V75.8926H91.6007V68.8366ZM93.0287 65.8826V67.5906H91.5167V65.8826H93.0287ZM98.4507 75.8926C97.9747 75.8926 97.5593 75.7992 97.2047 75.6126C96.85 75.4259 96.5747 75.1599 96.3787 74.8146C96.192 74.4692 96.0987 74.0586 96.0987 73.5826V70.0126H94.6567V68.8366H96.0987V66.6246H97.4567V68.8366H99.5427V70.0126H97.4567V73.5406C97.4567 73.9139 97.55 74.2032 97.7367 74.4086C97.9327 74.6139 98.2033 74.7166 98.5487 74.7166H99.5427V75.8926H98.4507ZM103.515 76.0046C103.039 76.0046 102.619 75.9159 102.255 75.7386C101.891 75.5612 101.607 75.3139 101.401 74.9966C101.205 74.6699 101.107 74.2966 101.107 73.8766C101.107 73.4286 101.219 73.0366 101.443 72.7006C101.677 72.3552 101.999 72.0892 102.409 71.9026C102.829 71.7159 103.31 71.6226 103.851 71.6226H105.335C105.494 71.6226 105.611 71.5946 105.685 71.5386C105.769 71.4732 105.811 71.3799 105.811 71.2586C105.811 70.8292 105.657 70.4839 105.349 70.2226C105.051 69.9519 104.635 69.8166 104.103 69.8166C103.777 69.8166 103.483 69.8772 103.221 69.9986C102.969 70.1199 102.769 70.2832 102.619 70.4886C102.47 70.6846 102.386 70.9039 102.367 71.1466H101.107C101.145 70.6892 101.299 70.2786 101.569 69.9146C101.84 69.5412 102.199 69.2519 102.647 69.0466C103.095 68.8319 103.595 68.7246 104.145 68.7246C104.743 68.7246 105.27 68.8366 105.727 69.0606C106.185 69.2752 106.535 69.5786 106.777 69.9706C107.029 70.3626 107.155 70.8199 107.155 71.3426V75.8926H105.811V74.7306L105.741 74.8706C105.611 75.0946 105.433 75.2952 105.209 75.4726C104.985 75.6406 104.729 75.7712 104.439 75.8646C104.15 75.9579 103.842 76.0046 103.515 76.0046ZM103.781 74.9266C104.416 74.9266 104.911 74.7352 105.265 74.3526C105.629 73.9699 105.811 73.4519 105.811 72.7986V72.6726H103.991C103.525 72.6726 103.151 72.7799 102.871 72.9946C102.601 73.1999 102.465 73.4846 102.465 73.8486C102.465 74.1752 102.582 74.4366 102.815 74.6326C103.058 74.8286 103.38 74.9266 103.781 74.9266ZM109.605 65.8826H110.963V75.8926H109.605V65.8826ZM63.1325 88.0926H64.4765L68.3265 97.8926H66.8145L63.8045 89.9126L60.7945 97.8926H59.2825L63.1325 88.0926ZM61.4665 94.1266H66.1425L66.3525 95.4006H61.2565L61.4665 94.1266ZM72.7713 98.0046C72.0527 98.0046 71.4273 97.8412 70.8953 97.5146C70.3727 97.1786 69.9713 96.7352 69.6913 96.1846C69.4207 95.6246 69.2853 95.0179 69.2853 94.3646C69.2853 93.7112 69.4207 93.1092 69.6913 92.5586C69.9713 91.9986 70.3727 91.5552 70.8953 91.2286C71.4273 90.8926 72.0527 90.7246 72.7713 90.7246C73.322 90.7246 73.8353 90.8319 74.3113 91.0466C74.7967 91.2519 75.1933 91.5506 75.5013 91.9426C75.8093 92.3252 75.9913 92.7779 76.0473 93.3006H74.6893C74.624 92.8992 74.4093 92.5679 74.0453 92.3066C73.6907 92.0452 73.2753 91.9146 72.7993 91.9146C72.342 91.9146 71.9547 92.0219 71.6373 92.2366C71.3293 92.4512 71.096 92.7452 70.9373 93.1186C70.7787 93.4919 70.6993 93.9072 70.6993 94.3646C70.6993 95.0739 70.8813 95.6619 71.2453 96.1286C71.6093 96.5859 72.132 96.8146 72.8133 96.8146C73.2893 96.8146 73.6953 96.6979 74.0313 96.4646C74.3673 96.2312 74.5913 95.9139 74.7033 95.5126H76.0473C75.9727 96.0072 75.7907 96.4412 75.5013 96.8146C75.212 97.1879 74.834 97.4819 74.3673 97.6966C73.9007 97.9019 73.3687 98.0046 72.7713 98.0046ZM81.1106 98.0046C80.392 98.0046 79.7666 97.8412 79.2346 97.5146C78.712 97.1786 78.3106 96.7352 78.0306 96.1846C77.76 95.6246 77.6246 95.0179 77.6246 94.3646C77.6246 93.7112 77.76 93.1092 78.0306 92.5586C78.3106 91.9986 78.712 91.5552 79.2346 91.2286C79.7666 90.8926 80.392 90.7246 81.1106 90.7246C81.6613 90.7246 82.1746 90.8319 82.6506 91.0466C83.136 91.2519 83.5326 91.5506 83.8406 91.9426C84.1486 92.3252 84.3306 92.7779 84.3866 93.3006H83.0286C82.9633 92.8992 82.7486 92.5679 82.3846 92.3066C82.03 92.0452 81.6146 91.9146 81.1386 91.9146C80.6813 91.9146 80.294 92.0219 79.9766 92.2366C79.6686 92.4512 79.4353 92.7452 79.2766 93.1186C79.118 93.4919 79.0386 93.9072 79.0386 94.3646C79.0386 95.0739 79.2206 95.6619 79.5846 96.1286C79.9486 96.5859 80.4713 96.8146 81.1526 96.8146C81.6286 96.8146 82.0346 96.6979 82.3706 96.4646C82.7066 96.2312 82.9306 95.9139 83.0426 95.5126H84.3866C84.312 96.0072 84.13 96.4412 83.8406 96.8146C83.5513 97.1879 83.1733 97.4819 82.7066 97.6966C82.24 97.9019 81.708 98.0046 81.1106 98.0046ZM89.5899 98.0046C88.8899 98.0046 88.2646 97.8506 87.7139 97.5426C87.1632 97.2252 86.7292 96.7912 86.4119 96.2406C86.1039 95.6899 85.9499 95.0646 85.9499 94.3646C85.9499 93.6646 86.1039 93.0392 86.4119 92.4886C86.7292 91.9379 87.1632 91.5086 87.7139 91.2006C88.2646 90.8832 88.8899 90.7246 89.5899 90.7246C90.2806 90.7246 90.9012 90.8832 91.4519 91.2006C92.0026 91.5086 92.4319 91.9379 92.7399 92.4886C93.0572 93.0392 93.2159 93.6646 93.2159 94.3646C93.2159 95.0646 93.0572 95.6899 92.7399 96.2406C92.4319 96.7912 92.0026 97.2252 91.4519 97.5426C90.9012 97.8506 90.2806 98.0046 89.5899 98.0046ZM89.5899 96.8146C90.0286 96.8146 90.4159 96.7119 90.7519 96.5066C91.0972 96.2919 91.3632 96.0026 91.5499 95.6386C91.7366 95.2652 91.8299 94.8406 91.8299 94.3646C91.8299 93.8886 91.7366 93.4686 91.5499 93.1046C91.3632 92.7312 91.0972 92.4419 90.7519 92.2366C90.4159 92.0219 90.0286 91.9146 89.5899 91.9146C89.1512 91.9146 88.7592 92.0219 88.4139 92.2366C88.0686 92.4419 87.8026 92.7312 87.6159 93.1046C87.4292 93.4686 87.3359 93.8886 87.3359 94.3646C87.3359 94.8406 87.4292 95.2652 87.6159 95.6386C87.8026 96.0026 88.0686 96.2919 88.4139 96.5066C88.7592 96.7119 89.1512 96.8146 89.5899 96.8146ZM97.8324 98.0046C97.3098 98.0046 96.8478 97.8879 96.4464 97.6546C96.0544 97.4119 95.7464 97.0806 95.5224 96.6606C95.3078 96.2312 95.2004 95.7366 95.2004 95.1766V90.8366H96.5584V94.9106C96.5584 95.4706 96.7078 95.9232 97.0064 96.2686C97.3144 96.6139 97.7158 96.7866 98.2104 96.7866C98.5744 96.7866 98.9011 96.6979 99.1904 96.5206C99.4798 96.3339 99.7038 96.0819 99.8624 95.7646C100.03 95.4379 100.114 95.0692 100.114 94.6586V90.8366H101.472V97.8926H100.114V96.6466C99.9278 97.0852 99.6338 97.4212 99.2324 97.6546C98.8311 97.8879 98.3644 98.0046 97.8324 98.0046ZM104.007 90.8366H105.365V92.0826C105.552 91.6439 105.841 91.3079 106.233 91.0746C106.634 90.8412 107.101 90.7246 107.633 90.7246C108.156 90.7246 108.618 90.8459 109.019 91.0886C109.42 91.3219 109.728 91.6532 109.943 92.0826C110.158 92.5026 110.265 92.9926 110.265 93.5526V97.8926H108.907V93.8186C108.907 93.2586 108.753 92.8059 108.445 92.4606C108.146 92.1152 107.75 91.9426 107.255 91.9426C106.891 91.9426 106.564 92.0359 106.275 92.2226C105.986 92.3999 105.762 92.6519 105.603 92.9786C105.444 93.2959 105.365 93.6599 105.365 94.0706V97.8926H104.007V90.8366ZM115.56 97.8926C115.084 97.8926 114.669 97.7992 114.314 97.6126C113.959 97.4259 113.684 97.1599 113.488 96.8146C113.301 96.4692 113.208 96.0586 113.208 95.5826V92.0126H111.766V90.8366H113.208V88.6246H114.566V90.8366H116.652V92.0126H114.566V95.5406C114.566 95.9139 114.659 96.2032 114.846 96.4086C115.042 96.6139 115.313 96.7166 115.658 96.7166H116.652V97.8926H115.56ZM120.877 98.0046C120.307 98.0046 119.817 97.9112 119.407 97.7246C118.996 97.5286 118.674 97.2532 118.441 96.8986C118.207 96.5346 118.072 96.1006 118.035 95.5966H119.281C119.318 96.0072 119.477 96.3292 119.757 96.5626C120.037 96.7866 120.405 96.8986 120.863 96.8986C121.283 96.8986 121.619 96.8052 121.871 96.6186C122.123 96.4319 122.249 96.1799 122.249 95.8626C122.249 95.6199 122.174 95.4332 122.025 95.3026C121.885 95.1719 121.712 95.0786 121.507 95.0226C121.301 94.9572 121.003 94.8919 120.611 94.8266C120.116 94.7426 119.705 94.6492 119.379 94.5466C119.061 94.4346 118.786 94.2432 118.553 93.9726C118.329 93.7019 118.217 93.3192 118.217 92.8246C118.217 92.4232 118.324 92.0639 118.539 91.7466C118.753 91.4199 119.052 91.1679 119.435 90.9906C119.817 90.8132 120.251 90.7246 120.737 90.7246C121.278 90.7246 121.745 90.8132 122.137 90.9906C122.538 91.1586 122.851 91.4106 123.075 91.7466C123.308 92.0732 123.439 92.4652 123.467 92.9226H122.221C122.183 92.5772 122.029 92.3019 121.759 92.0966C121.497 91.8912 121.161 91.7886 120.751 91.7886C120.387 91.7886 120.083 91.8772 119.841 92.0546C119.598 92.2226 119.477 92.4606 119.477 92.7686C119.477 92.9926 119.542 93.1699 119.673 93.3006C119.813 93.4219 119.985 93.5106 120.191 93.5666C120.405 93.6226 120.699 93.6786 121.073 93.7346C121.586 93.8186 122.006 93.9119 122.333 94.0146C122.669 94.1172 122.949 94.3086 123.173 94.5886C123.406 94.8686 123.523 95.2699 123.523 95.7926C123.523 96.2406 123.415 96.6326 123.201 96.9686C122.986 97.2952 122.678 97.5519 122.277 97.7386C121.885 97.9159 121.418 98.0046 120.877 98.0046Z" fill="white"/>
<g filter="url(#filter3_f_224_2)">
<path d="M349.559 35.1902L366.063 18.348C367.231 17.156 368.83 16.4844 370.498 16.4844L471.475 16.4844C474.904 16.4844 477.685 19.2648 477.685 22.6945V102.578C477.685 104.216 477.037 105.789 475.883 106.952L457.066 125.917L437.588 145.471C436.423 146.641 434.839 147.299 433.188 147.299H333.365C329.936 147.299 327.155 144.519 327.155 141.089L327.154 61.1045C327.154 59.5052 327.771 57.9675 328.877 56.8118L349.559 35.1902Z" fill="#FF5E01"/>
</g>
<path d="M370.498 16.7949H471.475C474.733 16.7949 477.374 19.4361 477.374 22.6943V102.578C477.374 104.135 476.758 105.628 475.662 106.733L456.846 125.697L437.368 145.252C436.261 146.363 434.757 146.988 433.188 146.988H333.365C330.107 146.988 327.466 144.347 327.466 141.089L327.465 61.1045C327.465 59.5852 328.051 58.1243 329.102 57.0264L349.782 35.4043L366.284 18.5654C367.394 17.4332 368.913 16.795 370.498 16.7949Z" fill="#FF5100" stroke="white" stroke-width="0.621012"/>
<g filter="url(#filter4_f_224_2)">
<path d="M354.992 39.9902L369.612 25.0706C370.78 23.8787 372.379 23.207 374.048 23.207L463.739 23.207C467.169 23.207 469.949 25.9874 469.949 29.4172V100.189C469.949 101.827 469.302 103.399 468.147 104.563L451.45 121.392L434.161 138.749C432.995 139.918 431.412 140.576 429.761 140.576H341.101C337.672 140.576 334.891 137.796 334.891 134.366L334.891 63.4971C334.891 61.8978 335.508 60.3601 336.613 59.2044L354.992 39.9902Z" fill="#FF833B"/>
</g>
<g filter="url(#filter5_d_224_2)">
<path d="M354.992 39.9902L369.612 25.0706C370.78 23.8787 372.379 23.207 374.048 23.207L463.739 23.207C467.169 23.207 469.949 25.9874 469.949 29.4172V100.189C469.949 101.827 469.302 103.399 468.147 104.563L451.45 121.392L434.161 138.749C432.995 139.918 431.412 140.576 429.761 140.576H341.101C337.672 140.576 334.891 137.796 334.891 134.366L334.891 63.4971C334.891 61.8978 335.508 60.3601 336.613 59.2044L354.992 39.9902Z" fill="#FF5100"/>
<path d="M374.048 23.5176H463.739C466.997 23.5177 469.639 26.1589 469.639 29.417V100.188C469.639 101.745 469.023 103.239 467.927 104.344L451.229 121.173L433.94 138.529C432.833 139.641 431.329 140.266 429.761 140.266H341.102C337.843 140.266 335.202 137.624 335.202 134.366L335.201 63.4971C335.201 61.9777 335.788 60.5169 336.838 59.4189L355.216 40.2041L369.834 25.2881C370.944 24.1557 372.462 23.5176 374.048 23.5176Z" stroke="white" stroke-width="0.621012"/>
</g>
<path d="M359.865 75.8926V66.0926H363.701C365.675 66.0926 366.879 67.1286 366.879 68.8086C366.879 69.9986 366.305 70.7826 365.423 71.2306C366.151 71.6506 366.599 72.4346 366.669 73.3866L366.865 75.8926H365.423L365.227 73.5126C365.171 72.6446 364.611 72.0286 363.771 72.0286H361.321V75.8926H359.865ZM363.659 70.7406C364.933 70.7406 365.423 69.9146 365.423 69.0326C365.423 68.1366 364.933 67.3526 363.659 67.3526H361.321V70.7406H363.659ZM372.197 76.0046C370.013 76.0046 368.669 74.2826 368.669 72.3226C368.669 70.3486 369.901 68.7246 372.071 68.7246C374.241 68.7246 375.403 70.2786 375.403 72.0706C375.403 72.2526 375.389 72.4906 375.375 72.6166H369.999C370.111 73.9326 370.979 74.8426 372.197 74.8426C373.233 74.8426 373.905 74.3946 374.101 73.5966H375.459C375.221 75.0526 373.947 76.0046 372.197 76.0046ZM370.041 71.5666H374.031C373.947 70.4886 373.233 69.8166 372.071 69.8166C370.979 69.8166 370.251 70.4186 370.041 71.5666ZM380.409 76.0046C378.309 76.0046 377.091 74.4506 377.091 72.3646C377.091 70.2786 378.295 68.7246 380.423 68.7246C381.375 68.7246 382.257 69.1726 382.691 69.8726V65.8826H384.049V75.8926H382.691V74.8426C382.271 75.5426 381.375 76.0046 380.409 76.0046ZM380.633 74.8146C381.935 74.8146 382.789 73.8346 382.789 72.3646C382.789 70.8946 381.935 69.9146 380.633 69.9146C379.317 69.9146 378.463 70.8946 378.463 72.3646C378.463 73.8346 379.317 74.8146 380.633 74.8146ZM389.655 76.0046C387.471 76.0046 386.127 74.2826 386.127 72.3226C386.127 70.3486 387.359 68.7246 389.529 68.7246C391.699 68.7246 392.861 70.2786 392.861 72.0706C392.861 72.2526 392.847 72.4906 392.833 72.6166H387.457C387.569 73.9326 388.437 74.8426 389.655 74.8426C390.691 74.8426 391.363 74.3946 391.559 73.5966H392.917C392.679 75.0526 391.405 76.0046 389.655 76.0046ZM387.499 71.5666H391.489C391.405 70.4886 390.691 69.8166 389.529 69.8166C388.437 69.8166 387.709 70.4186 387.499 71.5666ZM394.997 75.8926V68.8366H396.355V70.0826C396.649 69.2846 397.419 68.7246 398.469 68.7246C399.547 68.7246 400.443 69.2566 400.723 70.1806C401.017 69.3406 401.997 68.7246 403.019 68.7246C404.545 68.7246 405.497 69.7746 405.497 71.4126V75.8926H404.139V71.7906C404.139 70.6706 403.579 69.9146 402.641 69.9146C401.563 69.9146 400.919 70.9226 400.919 72.0426V75.8926H399.561V71.7906C399.561 70.6706 399.001 69.9146 398.077 69.9146C396.999 69.9146 396.355 70.9226 396.355 72.0426V75.8926H394.997ZM407.943 78.7486V68.8366H409.301V69.8726C409.735 69.1726 410.617 68.7246 411.555 68.7246C413.683 68.7246 414.901 70.2786 414.901 72.3646C414.901 74.4506 413.683 76.0046 411.569 76.0046C410.617 76.0046 409.721 75.5426 409.301 74.8426V78.7486H407.943ZM411.359 74.8146C412.661 74.8146 413.529 73.8346 413.529 72.3646C413.529 70.8946 412.661 69.9146 411.359 69.9146C410.057 69.9146 409.189 70.8946 409.189 72.3646C409.189 73.8346 410.057 74.8146 411.359 74.8146ZM419.838 75.8926C418.41 75.8926 417.486 75.0246 417.486 73.5826V70.0126H416.044V68.8366H417.486V66.6246H418.844V68.8366H420.93V70.0126H418.844V73.5406C418.844 74.2966 419.264 74.7166 419.936 74.7166H420.93V75.8926H419.838ZM422.831 75.8926V68.8366H424.189V75.8926H422.831ZM422.747 65.8826H424.259V67.5906H422.747V65.8826ZM429.891 76.0046C427.777 76.0046 426.251 74.4786 426.251 72.3646C426.251 70.2506 427.777 68.7246 429.891 68.7246C432.005 68.7246 433.517 70.2506 433.517 72.3646C433.517 74.4786 432.005 76.0046 429.891 76.0046ZM429.891 74.8146C431.221 74.8146 432.131 73.8066 432.131 72.3646C432.131 70.9226 431.221 69.9146 429.891 69.9146C428.547 69.9146 427.637 70.9226 427.637 72.3646C427.637 73.8066 428.547 74.8146 429.891 74.8146ZM435.586 75.8926V68.8366H436.944V70.0826C437.322 69.2006 438.162 68.7246 439.212 68.7246C440.808 68.7246 441.844 69.8726 441.844 71.5526V75.8926H440.486V71.8186C440.486 70.6986 439.828 69.9426 438.834 69.9426C437.728 69.9426 436.944 70.8386 436.944 72.0706V75.8926H435.586ZM373.581 97.8926L377.431 88.0926H378.775L382.625 97.8926H381.113L380.175 95.4006H376.031L375.093 97.8926H373.581ZM376.507 94.1266H379.699L378.103 89.9126L376.507 94.1266ZM387.07 98.0046C384.858 98.0046 383.584 96.3106 383.584 94.3646C383.584 92.4186 384.858 90.7246 387.07 90.7246C388.722 90.7246 390.15 91.7046 390.346 93.3006H388.988C388.862 92.5026 388.064 91.9146 387.098 91.9146C385.698 91.9146 384.998 93.0066 384.998 94.3646C384.998 95.7226 385.712 96.8146 387.112 96.8146C388.078 96.8146 388.778 96.3106 389.002 95.5126H390.346C390.122 96.9966 388.876 98.0046 387.07 98.0046ZM395.409 98.0046C393.197 98.0046 391.923 96.3106 391.923 94.3646C391.923 92.4186 393.197 90.7246 395.409 90.7246C397.061 90.7246 398.489 91.7046 398.685 93.3006H397.327C397.201 92.5026 396.403 91.9146 395.437 91.9146C394.037 91.9146 393.337 93.0066 393.337 94.3646C393.337 95.7226 394.051 96.8146 395.451 96.8146C396.417 96.8146 397.117 96.3106 397.341 95.5126H398.685C398.461 96.9966 397.215 98.0046 395.409 98.0046ZM403.889 98.0046C401.775 98.0046 400.249 96.4786 400.249 94.3646C400.249 92.2506 401.775 90.7246 403.889 90.7246C406.003 90.7246 407.515 92.2506 407.515 94.3646C407.515 96.4786 406.003 98.0046 403.889 98.0046ZM403.889 96.8146C405.219 96.8146 406.129 95.8066 406.129 94.3646C406.129 92.9226 405.219 91.9146 403.889 91.9146C402.545 91.9146 401.635 92.9226 401.635 94.3646C401.635 95.8066 402.545 96.8146 403.889 96.8146ZM412.118 98.0046C410.522 98.0046 409.486 96.8566 409.486 95.1766V90.8366H410.844V94.9106C410.844 96.0306 411.502 96.7866 412.496 96.7866C413.602 96.7866 414.4 95.8906 414.4 94.6586V90.8366H415.758V97.8926H414.4V96.6466C414.022 97.5286 413.168 98.0046 412.118 98.0046ZM418.292 97.8926V90.8366H419.65V92.0826C420.028 91.2006 420.868 90.7246 421.918 90.7246C423.514 90.7246 424.55 91.8726 424.55 93.5526V97.8926H423.192V93.8186C423.192 92.6986 422.534 91.9426 421.54 91.9426C420.434 91.9426 419.65 92.8386 419.65 94.0706V97.8926H418.292ZM429.845 97.8926C428.417 97.8926 427.493 97.0246 427.493 95.5826V92.0126H426.051V90.8366H427.493V88.6246H428.851V90.8366H430.937V92.0126H428.851V95.5406C428.851 96.2966 429.271 96.7166 429.943 96.7166H430.937V97.8926H429.845Z" fill="white"/>
<g filter="url(#filter6_f_224_2)">
<path d="M661.088 35.1902L677.592 18.348C678.76 17.156 680.359 16.4844 682.028 16.4844L783.004 16.4844C786.434 16.4844 789.214 19.2648 789.214 22.6945V102.578C789.214 104.216 788.566 105.789 787.412 106.952L768.595 125.917L749.117 145.471C747.952 146.641 746.369 147.299 744.718 147.299H644.895C641.465 147.299 638.684 144.519 638.684 141.089L638.684 61.1045C638.684 59.5052 639.301 57.9675 640.406 56.8118L661.088 35.1902Z" fill="#FF5E01"/>
</g>
<path d="M682.027 16.7949H783.004C786.262 16.7949 788.903 19.4361 788.903 22.6943V102.578C788.903 104.135 788.288 105.628 787.191 106.733L768.375 125.697L748.897 145.252C747.79 146.363 746.286 146.988 744.718 146.988H644.895C641.636 146.988 638.995 144.347 638.995 141.089L638.994 61.1045C638.994 59.5852 639.581 58.1243 640.631 57.0264L661.312 35.4043L677.813 18.5654C678.923 17.4332 680.442 16.795 682.027 16.7949Z" fill="#FF5100" stroke="white" stroke-width="0.621012"/>
<g filter="url(#filter7_f_224_2)">
<path d="M666.521 39.9902L681.142 25.0706C682.31 23.8787 683.908 23.207 685.577 23.207L775.268 23.207C778.698 23.207 781.478 25.9874 781.478 29.4172V100.189C781.478 101.827 780.831 103.399 779.677 104.563L762.979 121.392L745.69 138.749C744.525 139.918 742.942 140.576 741.29 140.576H652.631C649.201 140.576 646.421 137.796 646.421 134.366L646.42 63.4971C646.42 61.8978 647.037 60.3601 648.142 59.2044L666.521 39.9902Z" fill="#FF833B"/>
</g>
<g filter="url(#filter8_d_224_2)">
<path d="M666.521 39.9902L681.142 25.0706C682.31 23.8787 683.908 23.207 685.577 23.207L775.268 23.207C778.698 23.207 781.478 25.9874 781.478 29.4172V100.189C781.478 101.827 780.831 103.399 779.677 104.563L762.979 121.392L745.69 138.749C744.525 139.918 742.942 140.576 741.29 140.576H652.631C649.201 140.576 646.421 137.796 646.421 134.366L646.42 63.4971C646.42 61.8978 647.037 60.3601 648.142 59.2044L666.521 39.9902Z" fill="#FF5100"/>
<path d="M685.577 23.5176H775.269C778.527 23.5177 781.168 26.1589 781.168 29.417V100.188C781.168 101.745 780.552 103.239 779.456 104.344L762.759 121.173L745.47 138.529C744.363 139.641 742.859 140.266 741.29 140.266H652.631C649.373 140.266 646.732 137.624 646.731 134.366L646.73 63.4971C646.73 61.9777 647.317 60.5169 648.367 59.4189L666.745 40.2041L681.363 25.2881C682.473 24.1557 683.992 23.5176 685.577 23.5176Z" stroke="white" stroke-width="0.621012"/>
</g>
<path d="M662.332 75.8926V66.0926H666.126C668.142 66.0926 669.332 67.3106 669.332 69.0466C669.332 70.7826 668.142 72.0006 666.126 72.0006H663.788V75.8926H662.332ZM666.084 70.7406C667.344 70.7406 667.834 69.9426 667.834 69.0466C667.834 68.1506 667.344 67.3526 666.084 67.3526H663.788V70.7406H666.084ZM671.133 75.8926V68.8366H672.491V70.1946C672.813 69.2566 673.373 68.8366 674.367 68.8366H675.221V70.0126H674.199C672.911 70.0126 672.491 71.1606 672.491 72.7006V75.8926H671.133ZM679.749 76.0046C677.565 76.0046 676.221 74.2826 676.221 72.3226C676.221 70.3486 677.453 68.7246 679.623 68.7246C681.793 68.7246 682.955 70.2786 682.955 72.0706C682.955 72.2526 682.941 72.4906 682.927 72.6166H677.551C677.663 73.9326 678.531 74.8426 679.749 74.8426C680.785 74.8426 681.457 74.3946 681.653 73.5966H683.011C682.773 75.0526 681.499 76.0046 679.749 76.0046ZM677.593 71.5666H681.583C681.499 70.4886 680.785 69.8166 679.623 69.8166C678.531 69.8166 677.803 70.4186 677.593 71.5666ZM684.755 72.6726V71.4966H689.151V72.6726H684.755ZM691.366 78.7486V68.8366H692.724V69.8726C693.158 69.1726 694.04 68.7246 694.978 68.7246C697.106 68.7246 698.324 70.2786 698.324 72.3646C698.324 74.4506 697.106 76.0046 694.992 76.0046C694.04 76.0046 693.144 75.5426 692.724 74.8426V78.7486H691.366ZM694.782 74.8146C696.084 74.8146 696.952 73.8346 696.952 72.3646C696.952 70.8946 696.084 69.9146 694.782 69.9146C693.48 69.9146 692.612 70.8946 692.612 72.3646C692.612 73.8346 693.48 74.8146 694.782 74.8146ZM702.502 76.0046C701.06 76.0046 700.094 75.1366 700.094 73.8766C700.094 72.5186 701.186 71.6226 702.838 71.6226H704.322C704.644 71.6226 704.798 71.5106 704.798 71.2586C704.798 70.4046 704.168 69.8166 703.09 69.8166C702.096 69.8166 701.396 70.4326 701.354 71.1466H700.094C700.206 69.7606 701.452 68.7246 703.132 68.7246C704.952 68.7246 706.142 69.7746 706.142 71.3426V75.8926H704.798V74.7306C704.448 75.5006 703.566 76.0046 702.502 76.0046ZM702.768 74.9266C704.042 74.9266 704.798 74.1006 704.798 72.7986V72.6726H702.978C702.054 72.6726 701.452 73.1066 701.452 73.8486C701.452 74.4926 701.97 74.9266 702.768 74.9266ZM708.591 75.8926V68.8366H709.949V75.8926H708.591ZM708.507 65.8826H710.019V67.5906H708.507V65.8826ZM715.357 76.0046C713.257 76.0046 712.039 74.4506 712.039 72.3646C712.039 70.2786 713.243 68.7246 715.371 68.7246C716.323 68.7246 717.205 69.1726 717.639 69.8726V65.8826H718.997V75.8926H717.639V74.8426C717.219 75.5426 716.323 76.0046 715.357 76.0046ZM715.581 74.8146C716.883 74.8146 717.737 73.8346 717.737 72.3646C717.737 70.8946 716.883 69.9146 715.581 69.9146C714.265 69.9146 713.411 70.8946 713.411 72.3646C713.411 73.8346 714.265 74.8146 715.581 74.8146ZM729.747 76.0046C727.213 76.0046 724.959 74.3526 724.959 70.9926C724.959 67.6326 727.241 65.9806 729.747 65.9806C731.959 65.9806 733.737 67.3386 733.989 69.2426H732.463C732.309 68.0946 731.147 67.2686 729.733 67.2686C727.829 67.2686 726.443 68.5706 726.443 70.9926C726.443 73.4146 727.829 74.7166 729.747 74.7166C731.189 74.7166 732.337 73.8906 732.491 72.7426H733.975C733.765 74.6466 732.001 76.0046 729.747 76.0046ZM738.1 76.0046C736.658 76.0046 735.692 75.1366 735.692 73.8766C735.692 72.5186 736.784 71.6226 738.436 71.6226H739.92C740.242 71.6226 740.396 71.5106 740.396 71.2586C740.396 70.4046 739.766 69.8166 738.688 69.8166C737.694 69.8166 736.994 70.4326 736.952 71.1466H735.692C735.804 69.7606 737.05 68.7246 738.73 68.7246C740.55 68.7246 741.74 69.7746 741.74 71.3426V75.8926H740.396V74.7306C740.046 75.5006 739.164 76.0046 738.1 76.0046ZM738.366 74.9266C739.64 74.9266 740.396 74.1006 740.396 72.7986V72.6726H738.576C737.652 72.6726 737.05 73.1066 737.05 73.8486C737.05 74.4926 737.568 74.9266 738.366 74.9266ZM744.19 75.8926V68.8366H745.548V70.1946C745.87 69.2566 746.43 68.8366 747.424 68.8366H748.278V70.0126H747.256C745.968 70.0126 745.548 71.1606 745.548 72.7006V75.8926H744.19ZM752.61 76.0046C750.51 76.0046 749.292 74.4506 749.292 72.3646C749.292 70.2786 750.496 68.7246 752.624 68.7246C753.576 68.7246 754.458 69.1726 754.892 69.8726V65.8826H756.25V75.8926H754.892V74.8426C754.472 75.5426 753.576 76.0046 752.61 76.0046ZM752.834 74.8146C754.136 74.8146 754.99 73.8346 754.99 72.3646C754.99 70.8946 754.136 69.9146 752.834 69.9146C751.518 69.9146 750.664 70.8946 750.664 72.3646C750.664 73.8346 751.518 74.8146 752.834 74.8146ZM761.128 76.0046C759.42 76.0046 758.398 75.1226 758.286 73.5966H759.532C759.602 74.4086 760.204 74.8986 761.114 74.8986C761.954 74.8986 762.5 74.4926 762.5 73.8626C762.5 72.1406 758.468 73.6386 758.468 70.8246C758.468 69.5786 759.518 68.7246 760.988 68.7246C762.626 68.7246 763.62 69.5506 763.718 70.9226H762.472C762.402 70.2366 761.814 69.7886 761.002 69.7886C760.302 69.7886 759.728 70.1386 759.728 70.7686C759.728 72.4346 763.774 70.8526 763.774 73.7926C763.774 75.1506 762.766 76.0046 761.128 76.0046ZM682.07 97.8926L685.92 88.0926H687.264L691.114 97.8926H689.602L688.664 95.4006H684.52L683.582 97.8926H682.07ZM684.996 94.1266H688.188L686.592 89.9126L684.996 94.1266ZM695.559 98.0046C693.347 98.0046 692.073 96.3106 692.073 94.3646C692.073 92.4186 693.347 90.7246 695.559 90.7246C697.211 90.7246 698.639 91.7046 698.835 93.3006H697.477C697.351 92.5026 696.553 91.9146 695.587 91.9146C694.187 91.9146 693.487 93.0066 693.487 94.3646C693.487 95.7226 694.201 96.8146 695.601 96.8146C696.567 96.8146 697.267 96.3106 697.491 95.5126H698.835C698.611 96.9966 697.365 98.0046 695.559 98.0046ZM703.898 98.0046C701.686 98.0046 700.412 96.3106 700.412 94.3646C700.412 92.4186 701.686 90.7246 703.898 90.7246C705.55 90.7246 706.978 91.7046 707.174 93.3006H705.816C705.69 92.5026 704.892 91.9146 703.926 91.9146C702.526 91.9146 701.826 93.0066 701.826 94.3646C701.826 95.7226 702.54 96.8146 703.94 96.8146C704.906 96.8146 705.606 96.3106 705.83 95.5126H707.174C706.95 96.9966 705.704 98.0046 703.898 98.0046ZM712.377 98.0046C710.263 98.0046 708.737 96.4786 708.737 94.3646C708.737 92.2506 710.263 90.7246 712.377 90.7246C714.491 90.7246 716.003 92.2506 716.003 94.3646C716.003 96.4786 714.491 98.0046 712.377 98.0046ZM712.377 96.8146C713.707 96.8146 714.617 95.8066 714.617 94.3646C714.617 92.9226 713.707 91.9146 712.377 91.9146C711.033 91.9146 710.123 92.9226 710.123 94.3646C710.123 95.8066 711.033 96.8146 712.377 96.8146ZM720.606 98.0046C719.01 98.0046 717.974 96.8566 717.974 95.1766V90.8366H719.332V94.9106C719.332 96.0306 719.99 96.7866 720.984 96.7866C722.09 96.7866 722.888 95.8906 722.888 94.6586V90.8366H724.246V97.8926H722.888V96.6466C722.51 97.5286 721.656 98.0046 720.606 98.0046ZM726.781 97.8926V90.8366H728.139V92.0826C728.517 91.2006 729.357 90.7246 730.407 90.7246C732.003 90.7246 733.039 91.8726 733.039 93.5526V97.8926H731.681V93.8186C731.681 92.6986 731.023 91.9426 730.029 91.9426C728.923 91.9426 728.139 92.8386 728.139 94.0706V97.8926H726.781ZM738.334 97.8926C736.906 97.8926 735.982 97.0246 735.982 95.5826V92.0126H734.54V90.8366H735.982V88.6246H737.34V90.8366H739.426V92.0126H737.34V95.5406C737.34 96.2966 737.76 96.7166 738.432 96.7166H739.426V97.8926H738.334ZM743.65 98.0046C741.942 98.0046 740.92 97.1226 740.808 95.5966H742.054C742.124 96.4086 742.726 96.8986 743.636 96.8986C744.476 96.8986 745.022 96.4926 745.022 95.8626C745.022 94.1406 740.99 95.6386 740.99 92.8246C740.99 91.5786 742.04 90.7246 743.51 90.7246C745.148 90.7246 746.142 91.5506 746.24 92.9226H744.994C744.924 92.2366 744.336 91.7886 743.524 91.7886C742.824 91.7886 742.25 92.1386 742.25 92.7686C742.25 94.4346 746.296 92.8526 746.296 95.7926C746.296 97.1506 745.288 98.0046 743.65 98.0046Z" fill="white"/>
<g filter="url(#filter9_f_224_2)">
<path d="M972.619 35.1902L989.123 18.348C990.291 17.156 991.89 16.4844 993.559 16.4844L1094.54 16.4844C1097.96 16.4844 1100.75 19.2648 1100.75 22.6945V102.578C1100.75 104.216 1100.1 105.789 1098.94 106.952L1080.13 125.917L1060.65 145.471C1059.48 146.641 1057.9 147.299 1056.25 147.299H956.426C952.996 147.299 950.216 144.519 950.216 141.089L950.215 61.1045C950.215 59.5052 950.832 57.9675 951.937 56.8118L972.619 35.1902Z" fill="#FF5E01"/>
</g>
<path d="M993.559 16.7949H1094.54C1097.79 16.7949 1100.43 19.4361 1100.43 22.6943V102.578C1100.43 104.135 1099.82 105.628 1098.72 106.733L1079.91 125.697L1060.43 145.252C1059.32 146.363 1057.82 146.988 1056.25 146.988H956.426C953.168 146.988 950.526 144.347 950.526 141.089L950.525 61.1045C950.525 59.5852 951.112 58.1243 952.162 57.0264L972.843 35.4043L989.345 18.5654C990.454 17.4332 991.973 16.795 993.559 16.7949Z" fill="#FF5100" stroke="white" stroke-width="0.621012"/>
<g filter="url(#filter10_f_224_2)">
<path d="M978.053 39.9902L992.673 25.0706C993.841 23.8787 995.44 23.207 997.108 23.207L1086.8 23.207C1090.23 23.207 1093.01 25.9874 1093.01 29.4172V100.189C1093.01 101.827 1092.36 103.399 1091.21 104.563L1074.51 121.392L1057.22 138.749C1056.06 139.918 1054.47 140.576 1052.82 140.576H964.162C960.732 140.576 957.952 137.796 957.952 134.366L957.951 63.4971C957.951 61.8978 958.568 60.3601 959.674 59.2044L978.053 39.9902Z" fill="#FF833B"/>
</g>
<g filter="url(#filter11_d_224_2)">
<path d="M978.053 39.9902L992.673 25.0706C993.841 23.8787 995.44 23.207 997.108 23.207L1086.8 23.207C1090.23 23.207 1093.01 25.9874 1093.01 29.4172V100.189C1093.01 101.827 1092.36 103.399 1091.21 104.563L1074.51 121.392L1057.22 138.749C1056.06 139.918 1054.47 140.576 1052.82 140.576H964.162C960.732 140.576 957.952 137.796 957.952 134.366L957.951 63.4971C957.951 61.8978 958.568 60.3601 959.674 59.2044L978.053 39.9902Z" fill="#FF5100"/>
<path d="M997.108 23.5176H1086.8C1090.06 23.5177 1092.7 26.1589 1092.7 29.417V100.188C1092.7 101.745 1092.08 103.239 1090.99 104.344L1074.29 121.173L1057 138.529C1055.89 139.641 1054.39 140.266 1052.82 140.266H964.162C960.904 140.266 958.263 137.624 958.263 134.366L958.262 63.4971C958.262 61.9777 958.848 60.5169 959.898 59.4189L978.276 40.2041L992.895 25.2881C994.004 24.1557 995.523 23.5176 997.108 23.5176Z" stroke="white" stroke-width="0.621012"/>
</g>
<path d="M991.469 76.0046C988.935 76.0046 986.681 74.3526 986.681 70.9926C986.681 67.6326 988.963 65.9806 991.469 65.9806C993.681 65.9806 995.459 67.3386 995.711 69.2426H994.185C994.031 68.0946 992.869 67.2686 991.455 67.2686C989.551 67.2686 988.165 68.5706 988.165 70.9926C988.165 73.4146 989.551 74.7166 991.469 74.7166C992.911 74.7166 994.059 73.8906 994.213 72.7426H995.697C995.487 74.6466 993.723 76.0046 991.469 76.0046ZM997.764 75.8926V68.8366H999.122V70.1946C999.444 69.2566 1000 68.8366 1001 68.8366H1001.85V70.0126H1000.83C999.542 70.0126 999.122 71.1606 999.122 72.7006V75.8926H997.764ZM1006.38 76.0046C1004.2 76.0046 1002.85 74.2826 1002.85 72.3226C1002.85 70.3486 1004.08 68.7246 1006.25 68.7246C1008.42 68.7246 1009.59 70.2786 1009.59 72.0706C1009.59 72.2526 1009.57 72.4906 1009.56 72.6166H1004.18C1004.29 73.9326 1005.16 74.8426 1006.38 74.8426C1007.42 74.8426 1008.09 74.3946 1008.28 73.5966H1009.64C1009.4 75.0526 1008.13 76.0046 1006.38 76.0046ZM1004.22 71.5666H1008.21C1008.13 70.4886 1007.42 69.8166 1006.25 69.8166C1005.16 69.8166 1004.43 70.4186 1004.22 71.5666ZM1014.59 76.0046C1012.49 76.0046 1011.27 74.4506 1011.27 72.3646C1011.27 70.2786 1012.48 68.7246 1014.61 68.7246C1015.56 68.7246 1016.44 69.1726 1016.87 69.8726V65.8826H1018.23V75.8926H1016.87V74.8426C1016.45 75.5426 1015.56 76.0046 1014.59 76.0046ZM1014.82 74.8146C1016.12 74.8146 1016.97 73.8346 1016.97 72.3646C1016.97 70.8946 1016.12 69.9146 1014.82 69.9146C1013.5 69.9146 1012.65 70.8946 1012.65 72.3646C1012.65 73.8346 1013.5 74.8146 1014.82 74.8146ZM1020.79 75.8926V68.8366H1022.14V75.8926H1020.79ZM1020.7 65.8826H1022.21V67.5906H1020.7V65.8826ZM1027.64 75.8926C1026.21 75.8926 1025.28 75.0246 1025.28 73.5826V70.0126H1023.84V68.8366H1025.28V66.6246H1026.64V68.8366H1028.73V70.0126H1026.64V73.5406C1026.64 74.2966 1027.06 74.7166 1027.73 74.7166H1028.73V75.8926H1027.64ZM1038.82 76.0046C1036.29 76.0046 1034.04 74.3526 1034.04 70.9926C1034.04 67.6326 1036.32 65.9806 1038.82 65.9806C1041.04 65.9806 1042.81 67.3386 1043.07 69.2426H1041.54C1041.39 68.0946 1040.22 67.2686 1038.81 67.2686C1036.91 67.2686 1035.52 68.5706 1035.52 70.9926C1035.52 73.4146 1036.91 74.7166 1038.82 74.7166C1040.27 74.7166 1041.41 73.8906 1041.57 72.7426H1043.05C1042.84 74.6466 1041.08 76.0046 1038.82 76.0046ZM1047.18 76.0046C1045.74 76.0046 1044.77 75.1366 1044.77 73.8766C1044.77 72.5186 1045.86 71.6226 1047.51 71.6226H1049C1049.32 71.6226 1049.47 71.5106 1049.47 71.2586C1049.47 70.4046 1048.84 69.8166 1047.77 69.8166C1046.77 69.8166 1046.07 70.4326 1046.03 71.1466H1044.77C1044.88 69.7606 1046.13 68.7246 1047.81 68.7246C1049.63 68.7246 1050.82 69.7746 1050.82 71.3426V75.8926H1049.47V74.7306C1049.12 75.5006 1048.24 76.0046 1047.18 76.0046ZM1047.44 74.9266C1048.72 74.9266 1049.47 74.1006 1049.47 72.7986V72.6726H1047.65C1046.73 72.6726 1046.13 73.1066 1046.13 73.8486C1046.13 74.4926 1046.65 74.9266 1047.44 74.9266ZM1053.27 75.8926V68.8366H1054.63V70.1946C1054.95 69.2566 1055.51 68.8366 1056.5 68.8366H1057.36V70.0126H1056.33C1055.05 70.0126 1054.63 71.1606 1054.63 72.7006V75.8926H1053.27ZM1061.69 76.0046C1059.59 76.0046 1058.37 74.4506 1058.37 72.3646C1058.37 70.2786 1059.57 68.7246 1061.7 68.7246C1062.65 68.7246 1063.54 69.1726 1063.97 69.8726V65.8826H1065.33V75.8926H1063.97V74.8426C1063.55 75.5426 1062.65 76.0046 1061.69 76.0046ZM1061.91 74.8146C1063.21 74.8146 1064.07 73.8346 1064.07 72.3646C1064.07 70.8946 1063.21 69.9146 1061.91 69.9146C1060.6 69.9146 1059.74 70.8946 1059.74 72.3646C1059.74 73.8346 1060.6 74.8146 1061.91 74.8146ZM993.881 97.8926L997.731 88.0926H999.075L1002.93 97.8926H1001.41L1000.48 95.4006H996.331L995.393 97.8926H993.881ZM996.807 94.1266H999.999L998.403 89.9126L996.807 94.1266ZM1007.37 98.0046C1005.16 98.0046 1003.88 96.3106 1003.88 94.3646C1003.88 92.4186 1005.16 90.7246 1007.37 90.7246C1009.02 90.7246 1010.45 91.7046 1010.65 93.3006H1009.29C1009.16 92.5026 1008.36 91.9146 1007.4 91.9146C1006 91.9146 1005.3 93.0066 1005.3 94.3646C1005.3 95.7226 1006.01 96.8146 1007.41 96.8146C1008.38 96.8146 1009.08 96.3106 1009.3 95.5126H1010.65C1010.42 96.9966 1009.18 98.0046 1007.37 98.0046ZM1015.71 98.0046C1013.5 98.0046 1012.22 96.3106 1012.22 94.3646C1012.22 92.4186 1013.5 90.7246 1015.71 90.7246C1017.36 90.7246 1018.79 91.7046 1018.99 93.3006H1017.63C1017.5 92.5026 1016.7 91.9146 1015.74 91.9146C1014.34 91.9146 1013.64 93.0066 1013.64 94.3646C1013.64 95.7226 1014.35 96.8146 1015.75 96.8146C1016.72 96.8146 1017.42 96.3106 1017.64 95.5126H1018.99C1018.76 96.9966 1017.52 98.0046 1015.71 98.0046ZM1024.19 98.0046C1022.07 98.0046 1020.55 96.4786 1020.55 94.3646C1020.55 92.2506 1022.07 90.7246 1024.19 90.7246C1026.3 90.7246 1027.81 92.2506 1027.81 94.3646C1027.81 96.4786 1026.3 98.0046 1024.19 98.0046ZM1024.19 96.8146C1025.52 96.8146 1026.43 95.8066 1026.43 94.3646C1026.43 92.9226 1025.52 91.9146 1024.19 91.9146C1022.84 91.9146 1021.93 92.9226 1021.93 94.3646C1021.93 95.8066 1022.84 96.8146 1024.19 96.8146ZM1032.42 98.0046C1030.82 98.0046 1029.79 96.8566 1029.79 95.1766V90.8366H1031.14V94.9106C1031.14 96.0306 1031.8 96.7866 1032.8 96.7866C1033.9 96.7866 1034.7 95.8906 1034.7 94.6586V90.8366H1036.06V97.8926H1034.7V96.6466C1034.32 97.5286 1033.47 98.0046 1032.42 98.0046ZM1038.59 97.8926V90.8366H1039.95V92.0826C1040.33 91.2006 1041.17 90.7246 1042.22 90.7246C1043.81 90.7246 1044.85 91.8726 1044.85 93.5526V97.8926H1043.49V93.8186C1043.49 92.6986 1042.83 91.9426 1041.84 91.9426C1040.73 91.9426 1039.95 92.8386 1039.95 94.0706V97.8926H1038.59ZM1050.14 97.8926C1048.72 97.8926 1047.79 97.0246 1047.79 95.5826V92.0126H1046.35V90.8366H1047.79V88.6246H1049.15V90.8366H1051.24V92.0126H1049.15V95.5406C1049.15 96.2966 1049.57 96.7166 1050.24 96.7166H1051.24V97.8926H1050.14ZM1055.46 98.0046C1053.75 98.0046 1052.73 97.1226 1052.62 95.5966H1053.87C1053.94 96.4086 1054.54 96.8986 1055.45 96.8986C1056.29 96.8986 1056.83 96.4926 1056.83 95.8626C1056.83 94.1406 1052.8 95.6386 1052.8 92.8246C1052.8 91.5786 1053.85 90.7246 1055.32 90.7246C1056.96 90.7246 1057.95 91.5506 1058.05 92.9226H1056.81C1056.74 92.2366 1056.15 91.7886 1055.34 91.7886C1054.64 91.7886 1054.06 92.1386 1054.06 92.7686C1054.06 94.4346 1058.11 92.8526 1058.11 95.7926C1058.11 97.1506 1057.1 98.0046 1055.46 98.0046Z" fill="white"/>
<g filter="url(#filter12_f_224_2)">
<path d="M1284.15 35.1902L1300.65 18.348C1301.82 17.156 1303.42 16.4844 1305.09 16.4844L1406.06 16.4844C1409.49 16.4844 1412.27 19.2648 1412.27 22.6945V102.578C1412.27 104.216 1411.63 105.789 1410.47 106.952L1391.66 125.917L1372.18 145.471C1371.01 146.641 1369.43 147.299 1367.78 147.299H1267.96C1264.53 147.299 1261.74 144.519 1261.74 141.089L1261.74 61.1045C1261.74 59.5052 1262.36 57.9675 1263.47 56.8118L1284.15 35.1902Z" fill="#FF5E01"/>
</g>
<path d="M1305.09 16.7949H1406.06C1409.32 16.7949 1411.96 19.4361 1411.96 22.6943V102.578C1411.96 104.135 1411.35 105.628 1410.25 106.733L1391.44 125.697L1371.96 145.252C1370.85 146.363 1369.35 146.988 1367.78 146.988H1267.96C1264.7 146.988 1262.06 144.347 1262.06 141.089L1262.05 61.1045C1262.05 59.5852 1262.64 58.1243 1263.69 57.0264L1284.37 35.4043L1300.87 18.5654C1301.98 17.4332 1303.5 16.795 1305.09 16.7949Z" fill="#FF5100" stroke="white" stroke-width="0.621012"/>
<g filter="url(#filter13_f_224_2)">
<path d="M1289.58 39.9902L1304.2 25.0706C1305.37 23.8787 1306.97 23.207 1308.64 23.207L1398.33 23.207C1401.76 23.207 1404.54 25.9874 1404.54 29.4172V100.189C1404.54 101.827 1403.89 103.399 1402.74 104.563L1386.04 121.392L1368.75 138.749C1367.59 139.918 1366 140.576 1364.35 140.576H1275.69C1272.26 140.576 1269.48 137.796 1269.48 134.366L1269.48 63.4971C1269.48 61.8978 1270.1 60.3601 1271.2 59.2044L1289.58 39.9902Z" fill="#FF833B"/>
</g>
<g filter="url(#filter14_d_224_2)">
<path d="M1289.58 39.9902L1304.2 25.0706C1305.37 23.8787 1306.97 23.207 1308.64 23.207L1398.33 23.207C1401.76 23.207 1404.54 25.9874 1404.54 29.4172V100.189C1404.54 101.827 1403.89 103.399 1402.74 104.563L1386.04 121.392L1368.75 138.749C1367.59 139.918 1366 140.576 1364.35 140.576H1275.69C1272.26 140.576 1269.48 137.796 1269.48 134.366L1269.48 63.4971C1269.48 61.8978 1270.1 60.3601 1271.2 59.2044L1289.58 39.9902Z" fill="#FF5100"/>
<path d="M1308.64 23.5176H1398.33C1401.59 23.5177 1404.23 26.1589 1404.23 29.417V100.188C1404.23 101.745 1403.61 103.239 1402.52 104.344L1385.82 121.173L1368.53 138.529C1367.42 139.641 1365.92 140.266 1364.35 140.266H1275.69C1272.43 140.266 1269.79 137.624 1269.79 134.366L1269.79 63.4971C1269.79 61.9777 1270.38 60.5169 1271.43 59.4189L1289.81 40.2041L1304.42 25.2881C1305.53 24.1557 1307.05 23.5176 1308.64 23.5176Z" stroke="white" stroke-width="0.621012"/>
</g>
<path d="M1312.86 75.8926V66.0926H1316.69C1318.67 66.0926 1319.87 67.1286 1319.87 68.8086C1319.87 69.9986 1319.3 70.7826 1318.41 71.2306C1319.14 71.6506 1319.59 72.4346 1319.66 73.3866L1319.86 75.8926H1318.41L1318.22 73.5126C1318.16 72.6446 1317.6 72.0286 1316.76 72.0286H1314.31V75.8926H1312.86ZM1316.65 70.7406C1317.92 70.7406 1318.41 69.9146 1318.41 69.0326C1318.41 68.1366 1317.92 67.3526 1316.65 67.3526H1314.31V70.7406H1316.65ZM1325.19 76.0046C1323 76.0046 1321.66 74.2826 1321.66 72.3226C1321.66 70.3486 1322.89 68.7246 1325.06 68.7246C1327.23 68.7246 1328.39 70.2786 1328.39 72.0706C1328.39 72.2526 1328.38 72.4906 1328.37 72.6166H1322.99C1323.1 73.9326 1323.97 74.8426 1325.19 74.8426C1326.22 74.8426 1326.9 74.3946 1327.09 73.5966H1328.45C1328.21 75.0526 1326.94 76.0046 1325.19 76.0046ZM1323.03 71.5666H1327.02C1326.94 70.4886 1326.22 69.8166 1325.06 69.8166C1323.97 69.8166 1323.24 70.4186 1323.03 71.5666ZM1331.92 75.8926L1329.73 68.8366H1331.09L1332.55 74.0866L1334.14 68.8366H1335.43L1337.01 74.0866L1338.46 68.8366H1339.83L1337.64 75.8926H1336.38L1334.79 70.6286L1333.18 75.8926H1331.92ZM1343.58 76.0046C1342.14 76.0046 1341.17 75.1366 1341.17 73.8766C1341.17 72.5186 1342.26 71.6226 1343.92 71.6226H1345.4C1345.72 71.6226 1345.88 71.5106 1345.88 71.2586C1345.88 70.4046 1345.25 69.8166 1344.17 69.8166C1343.17 69.8166 1342.47 70.4326 1342.43 71.1466H1341.17C1341.28 69.7606 1342.53 68.7246 1344.21 68.7246C1346.03 68.7246 1347.22 69.7746 1347.22 71.3426V75.8926H1345.88V74.7306C1345.53 75.5006 1344.64 76.0046 1343.58 76.0046ZM1343.85 74.9266C1345.12 74.9266 1345.88 74.1006 1345.88 72.7986V72.6726H1344.06C1343.13 72.6726 1342.53 73.1066 1342.53 73.8486C1342.53 74.4926 1343.05 74.9266 1343.85 74.9266ZM1349.67 75.8926V68.8366H1351.03V70.1946C1351.35 69.2566 1351.91 68.8366 1352.9 68.8366H1353.76V70.0126H1352.73C1351.45 70.0126 1351.03 71.1606 1351.03 72.7006V75.8926H1349.67ZM1358.09 76.0046C1355.99 76.0046 1354.77 74.4506 1354.77 72.3646C1354.77 70.2786 1355.98 68.7246 1358.1 68.7246C1359.06 68.7246 1359.94 69.1726 1360.37 69.8726V65.8826H1361.73V75.8926H1360.37V74.8426C1359.95 75.5426 1359.06 76.0046 1358.09 76.0046ZM1358.31 74.8146C1359.62 74.8146 1360.47 73.8346 1360.47 72.3646C1360.47 70.8946 1359.62 69.9146 1358.31 69.9146C1357 69.9146 1356.14 70.8946 1356.14 72.3646C1356.14 73.8346 1357 74.8146 1358.31 74.8146ZM1308.45 97.8926L1312.3 88.0926H1313.65L1317.5 97.8926H1315.98L1315.05 95.4006H1310.9L1309.96 97.8926H1308.45ZM1311.38 94.1266H1314.57L1312.97 89.9126L1311.38 94.1266ZM1321.94 98.0046C1319.73 98.0046 1318.45 96.3106 1318.45 94.3646C1318.45 92.4186 1319.73 90.7246 1321.94 90.7246C1323.59 90.7246 1325.02 91.7046 1325.22 93.3006H1323.86C1323.73 92.5026 1322.93 91.9146 1321.97 91.9146C1320.57 91.9146 1319.87 93.0066 1319.87 94.3646C1319.87 95.7226 1320.58 96.8146 1321.98 96.8146C1322.95 96.8146 1323.65 96.3106 1323.87 95.5126H1325.22C1324.99 96.9966 1323.75 98.0046 1321.94 98.0046ZM1330.28 98.0046C1328.07 98.0046 1326.79 96.3106 1326.79 94.3646C1326.79 92.4186 1328.07 90.7246 1330.28 90.7246C1331.93 90.7246 1333.36 91.7046 1333.56 93.3006H1332.2C1332.07 92.5026 1331.27 91.9146 1330.31 91.9146C1328.91 91.9146 1328.21 93.0066 1328.21 94.3646C1328.21 95.7226 1328.92 96.8146 1330.32 96.8146C1331.29 96.8146 1331.99 96.3106 1332.21 95.5126H1333.56C1333.33 96.9966 1332.09 98.0046 1330.28 98.0046ZM1338.76 98.0046C1336.64 98.0046 1335.12 96.4786 1335.12 94.3646C1335.12 92.2506 1336.64 90.7246 1338.76 90.7246C1340.87 90.7246 1342.38 92.2506 1342.38 94.3646C1342.38 96.4786 1340.87 98.0046 1338.76 98.0046ZM1338.76 96.8146C1340.09 96.8146 1341 95.8066 1341 94.3646C1341 92.9226 1340.09 91.9146 1338.76 91.9146C1337.41 91.9146 1336.5 92.9226 1336.5 94.3646C1336.5 95.8066 1337.41 96.8146 1338.76 96.8146ZM1346.99 98.0046C1345.39 98.0046 1344.36 96.8566 1344.36 95.1766V90.8366H1345.71V94.9106C1345.71 96.0306 1346.37 96.7866 1347.37 96.7866C1348.47 96.7866 1349.27 95.8906 1349.27 94.6586V90.8366H1350.63V97.8926H1349.27V96.6466C1348.89 97.5286 1348.04 98.0046 1346.99 98.0046ZM1353.16 97.8926V90.8366H1354.52V92.0826C1354.9 91.2006 1355.74 90.7246 1356.79 90.7246C1358.38 90.7246 1359.42 91.8726 1359.42 93.5526V97.8926H1358.06V93.8186C1358.06 92.6986 1357.4 91.9426 1356.41 91.9426C1355.3 91.9426 1354.52 92.8386 1354.52 94.0706V97.8926H1353.16ZM1364.71 97.8926C1363.29 97.8926 1362.36 97.0246 1362.36 95.5826V92.0126H1360.92V90.8366H1362.36V88.6246H1363.72V90.8366H1365.81V92.0126H1363.72V95.5406C1363.72 96.2966 1364.14 96.7166 1364.81 96.7166H1365.81V97.8926H1364.71Z" fill="white"/>
<g filter="url(#filter15_f_224_2)">
<path d="M1595.68 35.1902L1612.18 18.348C1613.35 17.156 1614.95 16.4844 1616.62 16.4844L1717.6 16.4844C1721.03 16.4844 1723.81 19.2648 1723.81 22.6945V102.578C1723.81 104.216 1723.16 105.789 1722 106.952L1703.19 125.917L1683.71 145.471C1682.54 146.641 1680.96 147.299 1679.31 147.299H1579.49C1576.06 147.299 1573.28 144.519 1573.28 141.089L1573.28 61.1045C1573.28 59.5052 1573.89 57.9675 1575 56.8118L1595.68 35.1902Z" fill="#FF5E01"/>
</g>
<path d="M1616.62 16.7949H1717.6C1720.85 16.7949 1723.5 19.4361 1723.5 22.6943V102.578C1723.5 104.135 1722.88 105.628 1721.78 106.733L1702.97 125.697L1683.49 145.252C1682.38 146.363 1680.88 146.988 1679.31 146.988H1579.49C1576.23 146.988 1573.59 144.347 1573.59 141.089L1573.59 61.1045C1573.59 59.5852 1574.17 58.1243 1575.22 57.0264L1595.9 35.4043L1612.41 18.5654C1613.51 17.4332 1615.03 16.795 1616.62 16.7949Z" fill="#FF5100" stroke="white" stroke-width="0.621012"/>
<g filter="url(#filter16_f_224_2)">
<path d="M1601.11 39.9902L1615.73 25.0706C1616.9 23.8787 1618.5 23.207 1620.17 23.207L1709.86 23.207C1713.29 23.207 1716.07 25.9874 1716.07 29.4172V100.189C1716.07 101.827 1715.42 103.399 1714.27 104.563L1697.57 121.392L1680.28 138.749C1679.12 139.918 1677.53 140.576 1675.88 140.576H1587.22C1583.79 140.576 1581.01 137.796 1581.01 134.366L1581.01 63.4971C1581.01 61.8978 1581.63 60.3601 1582.73 59.2044L1601.11 39.9902Z" fill="#FF833B"/>
</g>
<g filter="url(#filter17_d_224_2)">
<path d="M1601.11 39.9902L1615.73 25.0706C1616.9 23.8787 1618.5 23.207 1620.17 23.207L1709.86 23.207C1713.29 23.207 1716.07 25.9874 1716.07 29.4172V100.189C1716.07 101.827 1715.42 103.399 1714.27 104.563L1697.57 121.392L1680.28 138.749C1679.12 139.918 1677.53 140.576 1675.88 140.576H1587.22C1583.79 140.576 1581.01 137.796 1581.01 134.366L1581.01 63.4971C1581.01 61.8978 1581.63 60.3601 1582.73 59.2044L1601.11 39.9902Z" fill="#FF5100"/>
<path d="M1620.17 23.5176H1709.86C1713.12 23.5177 1715.76 26.1589 1715.76 29.417V100.188C1715.76 101.745 1715.14 103.239 1714.05 104.344L1697.35 121.173L1680.06 138.529C1678.95 139.641 1677.45 140.266 1675.88 140.266H1587.22C1583.96 140.266 1581.32 137.624 1581.32 134.366L1581.32 63.4971C1581.32 61.9777 1581.91 60.5169 1582.96 59.4189L1601.34 40.2041L1615.96 25.2881C1617.06 24.1557 1618.58 23.5176 1620.17 23.5176Z" stroke="white" stroke-width="0.621012"/>
</g>
<path d="M1633.9 75.8926V66.0926H1635.36V74.6046H1640.13V75.8926H1633.9ZM1644.73 76.0046C1642.62 76.0046 1641.09 74.4786 1641.09 72.3646C1641.09 70.2506 1642.62 68.7246 1644.73 68.7246C1646.85 68.7246 1648.36 70.2506 1648.36 72.3646C1648.36 74.4786 1646.85 76.0046 1644.73 76.0046ZM1644.73 74.8146C1646.06 74.8146 1646.97 73.8066 1646.97 72.3646C1646.97 70.9226 1646.06 69.9146 1644.73 69.9146C1643.39 69.9146 1642.48 70.9226 1642.48 72.3646C1642.48 73.8066 1643.39 74.8146 1644.73 74.8146ZM1652.5 76.0046C1651.06 76.0046 1650.09 75.1366 1650.09 73.8766C1650.09 72.5186 1651.18 71.6226 1652.84 71.6226H1654.32C1654.64 71.6226 1654.8 71.5106 1654.8 71.2586C1654.8 70.4046 1654.17 69.8166 1653.09 69.8166C1652.09 69.8166 1651.39 70.4326 1651.35 71.1466H1650.09C1650.2 69.7606 1651.45 68.7246 1653.13 68.7246C1654.95 68.7246 1656.14 69.7746 1656.14 71.3426V75.8926H1654.8V74.7306C1654.45 75.5006 1653.56 76.0046 1652.5 76.0046ZM1652.77 74.9266C1654.04 74.9266 1654.8 74.1006 1654.8 72.7986V72.6726H1652.98C1652.05 72.6726 1651.45 73.1066 1651.45 73.8486C1651.45 74.4926 1651.97 74.9266 1652.77 74.9266ZM1658.59 75.8926V68.8366H1659.95V70.0826C1660.33 69.2006 1661.17 68.7246 1662.22 68.7246C1663.81 68.7246 1664.85 69.8726 1664.85 71.5526V75.8926H1663.49V71.8186C1663.49 70.6986 1662.83 69.9426 1661.84 69.9426C1660.73 69.9426 1659.95 70.8386 1659.95 72.0706V75.8926H1658.59ZM1616.94 97.8926L1620.79 88.0926H1622.14L1625.99 97.8926H1624.47L1623.54 95.4006H1619.39L1618.45 97.8926H1616.94ZM1619.87 94.1266H1623.06L1621.46 89.9126L1619.87 94.1266ZM1630.43 98.0046C1628.22 98.0046 1626.94 96.3106 1626.94 94.3646C1626.94 92.4186 1628.22 90.7246 1630.43 90.7246C1632.08 90.7246 1633.51 91.7046 1633.71 93.3006H1632.35C1632.22 92.5026 1631.42 91.9146 1630.46 91.9146C1629.06 91.9146 1628.36 93.0066 1628.36 94.3646C1628.36 95.7226 1629.07 96.8146 1630.47 96.8146C1631.44 96.8146 1632.14 96.3106 1632.36 95.5126H1633.71C1633.48 96.9966 1632.24 98.0046 1630.43 98.0046ZM1638.77 98.0046C1636.56 98.0046 1635.28 96.3106 1635.28 94.3646C1635.28 92.4186 1636.56 90.7246 1638.77 90.7246C1640.42 90.7246 1641.85 91.7046 1642.05 93.3006H1640.69C1640.56 92.5026 1639.76 91.9146 1638.8 91.9146C1637.4 91.9146 1636.7 93.0066 1636.7 94.3646C1636.7 95.7226 1637.41 96.8146 1638.81 96.8146C1639.78 96.8146 1640.48 96.3106 1640.7 95.5126H1642.05C1641.82 96.9966 1640.58 98.0046 1638.77 98.0046ZM1647.25 98.0046C1645.14 98.0046 1643.61 96.4786 1643.61 94.3646C1643.61 92.2506 1645.14 90.7246 1647.25 90.7246C1649.36 90.7246 1650.88 92.2506 1650.88 94.3646C1650.88 96.4786 1649.36 98.0046 1647.25 98.0046ZM1647.25 96.8146C1648.58 96.8146 1649.49 95.8066 1649.49 94.3646C1649.49 92.9226 1648.58 91.9146 1647.25 91.9146C1645.91 91.9146 1645 92.9226 1645 94.3646C1645 95.8066 1645.91 96.8146 1647.25 96.8146ZM1655.48 98.0046C1653.88 98.0046 1652.85 96.8566 1652.85 95.1766V90.8366H1654.2V94.9106C1654.2 96.0306 1654.86 96.7866 1655.86 96.7866C1656.96 96.7866 1657.76 95.8906 1657.76 94.6586V90.8366H1659.12V97.8926H1657.76V96.6466C1657.38 97.5286 1656.53 98.0046 1655.48 98.0046ZM1661.65 97.8926V90.8366H1663.01V92.0826C1663.39 91.2006 1664.23 90.7246 1665.28 90.7246C1666.87 90.7246 1667.91 91.8726 1667.91 93.5526V97.8926H1666.55V93.8186C1666.55 92.6986 1665.89 91.9426 1664.9 91.9426C1663.79 91.9426 1663.01 92.8386 1663.01 94.0706V97.8926H1661.65ZM1673.21 97.8926C1671.78 97.8926 1670.85 97.0246 1670.85 95.5826V92.0126H1669.41V90.8366H1670.85V88.6246H1672.21V90.8366H1674.3V92.0126H1672.21V95.5406C1672.21 96.2966 1672.63 96.7166 1673.3 96.7166H1674.3V97.8926H1673.21ZM1678.52 98.0046C1676.81 98.0046 1675.79 97.1226 1675.68 95.5966H1676.93C1677 96.4086 1677.6 96.8986 1678.51 96.8986C1679.35 96.8986 1679.89 96.4926 1679.89 95.8626C1679.89 94.1406 1675.86 95.6386 1675.86 92.8246C1675.86 91.5786 1676.91 90.7246 1678.38 90.7246C1680.02 90.7246 1681.01 91.5506 1681.11 92.9226H1679.87C1679.8 92.2366 1679.21 91.7886 1678.4 91.7886C1677.7 91.7886 1677.12 92.1386 1677.12 92.7686C1677.12 94.4346 1681.17 92.8526 1681.17 95.7926C1681.17 97.1506 1680.16 98.0046 1678.52 98.0046Z" fill="white"/>
<defs>
<filter id="filter0_f_224_2" x="10.6549" y="11.5163" width="160.467" height="140.751" filterUnits="userSpaceOnUse" color-interpolation-filters="sRGB">
<feFlood flood-opacity="0" result="BackgroundImageFix"/>
<feBlend mode="normal" in="SourceGraphic" in2="BackgroundImageFix" result="shape"/>
<feGaussianBlur stdDeviation="2.48405" result="effect1_foregroundBlur_224_2"/>
</filter>
<filter id="filter1_f_224_2" x="0.444023" y="0.291679" width="180.889" height="163.2" filterUnits="userSpaceOnUse" color-interpolation-filters="sRGB">
<feFlood flood-opacity="0" result="BackgroundImageFix"/>
<feBlend mode="normal" in="SourceGraphic" in2="BackgroundImageFix" result="shape"/>
<feGaussianBlur stdDeviation="11.4577" result="effect1_foregroundBlur_224_2"/>
</filter>
<filter id="filter2_d_224_2" x="7.39936" y="7.86803" width="170.705" height="153.015" filterUnits="userSpaceOnUse" color-interpolation-filters="sRGB">
<feFlood flood-opacity="0" result="BackgroundImageFix"/>
<feColorMatrix in="SourceAlpha" type="matrix" values="0 0 0 0 0 0 0 0 0 0 0 0 0 0 0 0 0 0 127 0" result="hardAlpha"/>
<feOffset dx="1.86304" dy="2.48405"/>
<feGaussianBlur stdDeviation="8.91153"/>
<feComposite in2="hardAlpha" operator="out"/>
<feColorMatrix type="matrix" values="0 0 0 0 1 0 0 0 0 1 0 0 0 0 1 0 0 0 0.25 0"/>
<feBlend mode="normal" in2="BackgroundImageFix" result="effect1_dropShadow_224_2"/>
<feBlend mode="normal" in="SourceGraphic" in2="effect1_dropShadow_224_2" result="shape"/>
</filter>
<filter id="filter3_f_224_2" x="322.186" y="11.5163" width="160.467" height="140.751" filterUnits="userSpaceOnUse" color-interpolation-filters="sRGB">
<feFlood flood-opacity="0" result="BackgroundImageFix"/>
<feBlend mode="normal" in="SourceGraphic" in2="BackgroundImageFix" result="shape"/>
<feGaussianBlur stdDeviation="2.48405" result="effect1_foregroundBlur_224_2"/>
</filter>
<filter id="filter4_f_224_2" x="311.975" y="0.291679" width="180.889" height="163.2" filterUnits="userSpaceOnUse" color-interpolation-filters="sRGB">
<feFlood flood-opacity="0" result="BackgroundImageFix"/>
<feBlend mode="normal" in="SourceGraphic" in2="BackgroundImageFix" result="shape"/>
<feGaussianBlur stdDeviation="11.4577" result="effect1_foregroundBlur_224_2"/>
</filter>
<filter id="filter5_d_224_2" x="318.931" y="7.86803" width="170.705" height="153.015" filterUnits="userSpaceOnUse" color-interpolation-filters="sRGB">
<feFlood flood-opacity="0" result="BackgroundImageFix"/>
<feColorMatrix in="SourceAlpha" type="matrix" values="0 0 0 0 0 0 0 0 0 0 0 0 0 0 0 0 0 0 127 0" result="hardAlpha"/>
<feOffset dx="1.86304" dy="2.48405"/>
<feGaussianBlur stdDeviation="8.91153"/>
<feComposite in2="hardAlpha" operator="out"/>
<feColorMatrix type="matrix" values="0 0 0 0 1 0 0 0 0 1 0 0 0 0 1 0 0 0 0.25 0"/>
<feBlend mode="normal" in2="BackgroundImageFix" result="effect1_dropShadow_224_2"/>
<feBlend mode="normal" in="SourceGraphic" in2="effect1_dropShadow_224_2" result="shape"/>
</filter>
<filter id="filter6_f_224_2" x="633.715" y="11.5163" width="160.467" height="140.751" filterUnits="userSpaceOnUse" color-interpolation-filters="sRGB">
<feFlood flood-opacity="0" result="BackgroundImageFix"/>
<feBlend mode="normal" in="SourceGraphic" in2="BackgroundImageFix" result="shape"/>
<feGaussianBlur stdDeviation="2.48405" result="effect1_foregroundBlur_224_2"/>
</filter>
<filter id="filter7_f_224_2" x="623.505" y="0.291679" width="180.889" height="163.2" filterUnits="userSpaceOnUse" color-interpolation-filters="sRGB">
<feFlood flood-opacity="0" result="BackgroundImageFix"/>
<feBlend mode="normal" in="SourceGraphic" in2="BackgroundImageFix" result="shape"/>
<feGaussianBlur stdDeviation="11.4577" result="effect1_foregroundBlur_224_2"/>
</filter>
<filter id="filter8_d_224_2" x="630.46" y="7.86803" width="170.705" height="153.015" filterUnits="userSpaceOnUse" color-interpolation-filters="sRGB">
<feFlood flood-opacity="0" result="BackgroundImageFix"/>
<feColorMatrix in="SourceAlpha" type="matrix" values="0 0 0 0 0 0 0 0 0 0 0 0 0 0 0 0 0 0 127 0" result="hardAlpha"/>
<feOffset dx="1.86304" dy="2.48405"/>
<feGaussianBlur stdDeviation="8.91153"/>
<feComposite in2="hardAlpha" operator="out"/>
<feColorMatrix type="matrix" values="0 0 0 0 1 0 0 0 0 1 0 0 0 0 1 0 0 0 0.25 0"/>
<feBlend mode="normal" in2="BackgroundImageFix" result="effect1_dropShadow_224_2"/>
<feBlend mode="normal" in="SourceGraphic" in2="effect1_dropShadow_224_2" result="shape"/>
</filter>
<filter id="filter9_f_224_2" x="945.247" y="11.5163" width="160.467" height="140.751" filterUnits="userSpaceOnUse" color-interpolation-filters="sRGB">
<feFlood flood-opacity="0" result="BackgroundImageFix"/>
<feBlend mode="normal" in="SourceGraphic" in2="BackgroundImageFix" result="shape"/>
<feGaussianBlur stdDeviation="2.48405" result="effect1_foregroundBlur_224_2"/>
</filter>
<filter id="filter10_f_224_2" x="935.036" y="0.291679" width="180.889" height="163.2" filterUnits="userSpaceOnUse" color-interpolation-filters="sRGB">
<feFlood flood-opacity="0" result="BackgroundImageFix"/>
<feBlend mode="normal" in="SourceGraphic" in2="BackgroundImageFix" result="shape"/>
<feGaussianBlur stdDeviation="11.4577" result="effect1_foregroundBlur_224_2"/>
</filter>
<filter id="filter11_d_224_2" x="941.991" y="7.86803" width="170.705" height="153.015" filterUnits="userSpaceOnUse" color-interpolation-filters="sRGB">
<feFlood flood-opacity="0" result="BackgroundImageFix"/>
<feColorMatrix in="SourceAlpha" type="matrix" values="0 0 0 0 0 0 0 0 0 0 0 0 0 0 0 0 0 0 127 0" result="hardAlpha"/>
<feOffset dx="1.86304" dy="2.48405"/>
<feGaussianBlur stdDeviation="8.91153"/>
<feComposite in2="hardAlpha" operator="out"/>
<feColorMatrix type="matrix" values="0 0 0 0 1 0 0 0 0 1 0 0 0 0 1 0 0 0 0.25 0"/>
<feBlend mode="normal" in2="BackgroundImageFix" result="effect1_dropShadow_224_2"/>
<feBlend mode="normal" in="SourceGraphic" in2="effect1_dropShadow_224_2" result="shape"/>
</filter>
<filter id="filter12_f_224_2" x="1256.78" y="11.5163" width="160.467" height="140.751" filterUnits="userSpaceOnUse" color-interpolation-filters="sRGB">
<feFlood flood-opacity="0" result="BackgroundImageFix"/>
<feBlend mode="normal" in="SourceGraphic" in2="BackgroundImageFix" result="shape"/>
<feGaussianBlur stdDeviation="2.48405" result="effect1_foregroundBlur_224_2"/>
</filter>
<filter id="filter13_f_224_2" x="1246.57" y="0.291679" width="180.889" height="163.2" filterUnits="userSpaceOnUse" color-interpolation-filters="sRGB">
<feFlood flood-opacity="0" result="BackgroundImageFix"/>
<feBlend mode="normal" in="SourceGraphic" in2="BackgroundImageFix" result="shape"/>
<feGaussianBlur stdDeviation="11.4577" result="effect1_foregroundBlur_224_2"/>
</filter>
<filter id="filter14_d_224_2" x="1253.52" y="7.86803" width="170.705" height="153.015" filterUnits="userSpaceOnUse" color-interpolation-filters="sRGB">
<feFlood flood-opacity="0" result="BackgroundImageFix"/>
<feColorMatrix in="SourceAlpha" type="matrix" values="0 0 0 0 0 0 0 0 0 0 0 0 0 0 0 0 0 0 127 0" result="hardAlpha"/>
<feOffset dx="1.86304" dy="2.48405"/>
<feGaussianBlur stdDeviation="8.91153"/>
<feComposite in2="hardAlpha" operator="out"/>
<feColorMatrix type="matrix" values="0 0 0 0 1 0 0 0 0 1 0 0 0 0 1 0 0 0 0.25 0"/>
<feBlend mode="normal" in2="BackgroundImageFix" result="effect1_dropShadow_224_2"/>
<feBlend mode="normal" in="SourceGraphic" in2="effect1_dropShadow_224_2" result="shape"/>
</filter>
<filter id="filter15_f_224_2" x="1568.31" y="11.5163" width="160.467" height="140.751" filterUnits="userSpaceOnUse" color-interpolation-filters="sRGB">
<feFlood flood-opacity="0" result="BackgroundImageFix"/>
<feBlend mode="normal" in="SourceGraphic" in2="BackgroundImageFix" result="shape"/>
<feGaussianBlur stdDeviation="2.48405" result="effect1_foregroundBlur_224_2"/>
</filter>
<filter id="filter16_f_224_2" x="1558.1" y="0.291679" width="180.889" height="163.2" filterUnits="userSpaceOnUse" color-interpolation-filters="sRGB">
<feFlood flood-opacity="0" result="BackgroundImageFix"/>
<feBlend mode="normal" in="SourceGraphic" in2="BackgroundImageFix" result="shape"/>
<feGaussianBlur stdDeviation="11.4577" result="effect1_foregroundBlur_224_2"/>
</filter>
<filter id="filter17_d_224_2" x="1565.05" y="7.86803" width="170.705" height="153.015" filterUnits="userSpaceOnUse" color-interpolation-filters="sRGB">
<feFlood flood-opacity="0" result="BackgroundImageFix"/>
<feColorMatrix in="SourceAlpha" type="matrix" values="0 0 0 0 0 0 0 0 0 0 0 0 0 0 0 0 0 0 127 0" result="hardAlpha"/>
<feOffset dx="1.86304" dy="2.48405"/>
<feGaussianBlur stdDeviation="8.91153"/>
<feComposite in2="hardAlpha" operator="out"/>
<feColorMatrix type="matrix" values="0 0 0 0 1 0 0 0 0 1 0 0 0 0 1 0 0 0 0.25 0"/>
<feBlend mode="normal" in2="BackgroundImageFix" result="effect1_dropShadow_224_2"/>
<feBlend mode="normal" in="SourceGraphic" in2="effect1_dropShadow_224_2" result="shape"/>
</filter>
</defs>
</svg>
