<svg xmlns="http://www.w3.org/2000/svg" width="19" height="15" viewBox="0 0 19 15">
<path d="M0 6.5378C0.078006 6.54149 0.156012 6.54888 0.234018 6.54888C5.44482 6.54888 9.77189 6.54888 14.9827 6.54888C15.0568 6.54888 15.1309 6.54888 15.244 6.54888C13.3719 4.77592 11.5309 3.0325 9.70169 1.30387C10.1775 0.849544 10.6339 0.417385 11.0785 0C13.7151 2.49692 16.3634 5.00492 19 7.49815C16.3673 9.99138 13.7151 12.4994 11.0785 15C10.6378 14.5826 10.1853 14.1541 9.72119 13.7146C11.5465 11.986 13.3914 10.2389 15.2362 8.49544C15.2284 8.48067 15.2167 8.4622 15.2089 8.44743C15.1426 8.44743 15.0724 8.44743 15.0061 8.44743C9.7836 8.44743 5.44092 8.44743 0.218417 8.44743C0.148211 8.44743 0.0780059 8.45481 0.00780058 8.45851C-1.81066e-08 7.81581 0 7.1768 0 6.5378Z" fill="gray"/>
</svg>