<svg width="90" height="87" viewBox="0 0 90 87" fill="none" xmlns="http://www.w3.org/2000/svg">
<path d="M21.4658 1.45215C26.7584 1.45215 31.7541 5.91948 35.4678 13.6133C39.1575 21.2577 41.459 31.8676 41.459 43.625C41.459 55.3824 39.1575 65.9923 35.4678 73.6367C31.7541 81.3305 26.7584 85.7979 21.4658 85.7979C16.1734 85.7976 11.1784 81.3303 7.46484 73.6367C3.77514 65.9923 1.47363 55.3824 1.47363 43.625C1.47363 31.8676 3.77514 21.2577 7.46484 13.6133C11.1784 5.9197 16.1734 1.45241 21.4658 1.45215Z" stroke="url(#paint0_linear_668_35890)" stroke-width="1.40381"/>
<path d="M37.3447 1.45215C42.6373 1.45215 47.6331 5.91948 51.3467 13.6133C55.0364 21.2577 57.3379 31.8676 57.3379 43.625C57.3379 55.3824 55.0364 65.9923 51.3467 73.6367C47.6331 81.3305 42.6373 85.7979 37.3447 85.7979C32.0523 85.7976 27.0573 81.3303 23.3438 73.6367C19.654 65.9923 17.3525 55.3824 17.3525 43.625C17.3525 31.8676 19.654 21.2577 23.3438 13.6133C27.0573 5.9197 32.0523 1.45241 37.3447 1.45215Z" stroke="url(#paint1_linear_668_35890)" stroke-width="1.40381"/>
<path d="M53.2246 1.45215C58.5172 1.45215 63.5129 5.91948 67.2266 13.6133C70.9163 21.2577 73.2178 31.8676 73.2178 43.625C73.2178 55.3824 70.9163 65.9923 67.2266 73.6367C63.5129 81.3305 58.5172 85.7979 53.2246 85.7979C47.9322 85.7976 42.9372 81.3303 39.2236 73.6367C35.5339 65.9923 33.2324 55.3824 33.2324 43.625C33.2324 31.8676 35.5339 21.2577 39.2236 13.6133C42.9372 5.9197 47.9322 1.45241 53.2246 1.45215Z" stroke="url(#paint2_linear_668_35890)" stroke-width="1.40381"/>
<path d="M69.1035 1.45215C74.3961 1.45215 79.3918 5.91948 83.1055 13.6133C86.7952 21.2577 89.0967 31.8676 89.0967 43.625C89.0967 55.3824 86.7952 65.9923 83.1055 73.6367C79.3918 81.3305 74.3961 85.7979 69.1035 85.7979C63.8111 85.7976 58.8161 81.3303 55.1025 73.6367C51.4128 65.9923 49.1113 55.3824 49.1113 43.625C49.1113 31.8676 51.4128 21.2577 55.1025 13.6133C58.8161 5.9197 63.8111 1.45241 69.1035 1.45215Z" stroke="url(#paint3_linear_668_35890)" stroke-width="1.40381"/>
<defs>
<linearGradient id="paint0_linear_668_35890" x1="21.4663" y1="0.75" x2="21.4663" y2="86.5" gradientUnits="userSpaceOnUse">
<stop stop-color="white"/>
<stop offset="1" stop-color="#FF935E"/>
</linearGradient>
<linearGradient id="paint1_linear_668_35890" x1="37.3452" y1="0.75" x2="37.3452" y2="86.5" gradientUnits="userSpaceOnUse">
<stop stop-color="white"/>
<stop offset="1" stop-color="#FF935E"/>
</linearGradient>
<linearGradient id="paint2_linear_668_35890" x1="53.2251" y1="0.75" x2="53.2251" y2="86.5" gradientUnits="userSpaceOnUse">
<stop stop-color="white"/>
<stop offset="1" stop-color="#FF935E"/>
</linearGradient>
<linearGradient id="paint3_linear_668_35890" x1="69.104" y1="0.75" x2="69.104" y2="86.5" gradientUnits="userSpaceOnUse">
<stop stop-color="white"/>
<stop offset="1" stop-color="#FF935E"/>
</linearGradient>
</defs>
</svg>
