<svg width="264" height="75" viewBox="0 0 264 75" fill="none" xmlns="http://www.w3.org/2000/svg">
<path d="M2.61068e-07 69.0275C1.16884e-07 72.326 2.67399 75 5.97253 75L50.2954 75C60.156 75 65.77 63.7276 59.8287 55.8578L19.6844 2.68272C18.5557 1.18768 16.791 0.308785 14.9177 0.308785L5.97253 0.308785C2.67399 0.308785 3.14797e-06 2.98277 3.00379e-06 6.28131L2.61068e-07 69.0275Z" fill="#FFAD01"/>
<path d="M-2.61068e-07 5.97253C-1.16884e-07 2.674 2.67399 1.16884e-07 5.97253 2.61067e-07L50.1527 2.19225e-06C60.7724 2.65644e-06 66.1119 12.8205 58.6317 20.3588L17.8199 61.4875C16.6985 62.6175 15.1724 63.2531 13.5804 63.2531L5.29737 63.2531C5.29737 63.2531 1.99765 63.2531 -3.05825e-06 69.9647L-2.61068e-07 5.97253Z" fill="url(#paint0_linear_228_22014)"/>
<path d="M12.9482 37.5001C12.9482 33.5594 16.1429 30.3647 20.0836 30.3647L50.7467 30.3647C52.7411 30.3647 54.3579 31.9816 54.3579 33.976L54.3579 41.0242C54.3579 43.0187 52.7411 44.6355 50.7467 44.6355L20.0836 44.6355C16.1429 44.6355 12.9482 41.4409 12.9482 37.5001Z" fill="black"/>
<circle cx="21.0762" cy="37.5007" r="3.36035" fill="#FE6E00"/>
<path d="M106.321 36.0588L106.321 43.8261L115.038 43.8261C117.368 43.8261 120.691 43.0494 120.691 40.2013C120.691 37.4828 117.368 36.0588 115.038 36.0588L106.321 36.0588ZM106.321 24.1057L106.321 31.0531L115.038 31.0531C118.619 31.0531 119.785 29.5428 119.785 27.8167C119.785 26.4359 118.663 24.1057 115.038 24.1057L106.321 24.1057ZM115.038 18.9274C120.993 18.9274 125.437 21.6029 125.437 27.6873C125.437 30.0175 124.315 32.2614 121.511 33.5128C125.049 34.5916 126.344 38.3458 126.344 40.2445C126.344 46.9762 121.295 49.1338 115.038 49.1338C110.248 49.1338 105.501 49.1338 100.711 49.1338L100.711 18.9274C105.458 18.9274 110.248 18.9274 115.038 18.9274ZM146.652 30.7942L146.824 27.8599L151.873 27.8599L151.873 49.1338L146.911 49.1338L146.652 46.0269C145.443 48.5297 142.121 49.7379 139.747 49.7811C133.447 49.8242 128.787 45.9405 128.787 38.4753C128.787 31.1394 133.663 27.2989 139.877 27.3421C142.725 27.3421 145.443 28.6798 146.652 30.7942ZM140.351 32.0456C136.856 32.0456 134.051 34.419 134.051 38.4753C134.051 42.5315 136.856 44.9481 140.351 44.9481C148.637 44.9481 148.637 32.0456 140.351 32.0456ZM156.332 18.9706L161.553 18.9706L161.553 49.1338L156.332 49.1338L156.332 18.9706ZM182.85 30.7942L183.023 27.8599L188.072 27.8599L188.072 49.1338L183.109 49.1338L182.85 46.0269C181.642 48.5297 178.319 49.7379 175.946 49.7811C169.646 49.8242 164.985 45.9405 164.985 38.4753C164.985 31.1394 169.862 27.2989 176.076 27.3421C178.924 27.3421 181.642 28.6798 182.85 30.7942ZM176.55 32.0456C173.055 32.0456 170.25 34.419 170.25 38.4753C170.25 42.5315 173.055 44.9481 176.55 44.9481C184.835 44.9481 184.835 32.0456 176.55 32.0456ZM213.459 49.1338L208.195 49.1338L208.195 38.0006C208.195 34.7642 206.425 32.3045 203.06 32.3045C199.823 32.3045 197.622 35.0231 197.622 38.2595L197.622 49.1338L192.401 49.1338L192.401 27.8167L197.105 27.8167L197.45 30.7079C199.607 28.5935 201.765 27.5147 204.44 27.5147C209.446 27.5147 213.459 31.2689 213.459 37.9574L213.459 49.1338ZM232.698 42.9631L236.237 46.4152C233.777 48.8317 231.188 49.7811 228.038 49.7811C221.867 49.7811 216.732 46.07 216.732 38.5184C216.732 30.9668 221.867 27.2558 228.038 27.2558C231.058 27.2558 233.389 28.1188 235.719 30.4059L232.396 33.9012C231.145 32.7792 229.591 32.2182 228.124 32.2182C224.586 32.2182 221.997 34.8074 221.997 38.5184C221.997 42.5747 224.758 44.7323 228.038 44.7323C229.721 44.7323 231.404 44.2576 232.698 42.9631ZM260.492 40.374L243.879 40.374C244.224 43.0062 246.511 44.9049 250.222 44.9049C252.164 44.9049 254.71 44.1713 255.918 42.9199L259.284 46.2426C257.04 48.5728 253.372 49.6948 250.136 49.6948C242.8 49.6948 238.442 45.1638 238.442 38.3458C238.442 31.873 242.843 27.2126 249.747 27.2126C256.867 27.2126 261.312 31.6141 260.492 40.374ZM243.965 36.0156L255.443 36.0156C255.098 33.2539 252.941 31.873 249.92 31.873C247.072 31.873 244.742 33.2539 243.965 36.0156Z" fill="#1D1D1D"/>
<defs>
<linearGradient id="paint0_linear_228_22014" x1="-2.04774e-06" y1="59.2913" x2="63.0082" y2="-5.34778" gradientUnits="userSpaceOnUse">
<stop stop-color="#FF6D00"/>
<stop offset="1" stop-color="#FFA200"/>
</linearGradient>
</defs>
</svg>
