<svg width="249" height="250" viewBox="0 0 249 250" fill="none" xmlns="http://www.w3.org/2000/svg">
<path d="M20.7446 150.931C20.7446 157.06 21.9519 163.13 24.2976 168.793C26.6433 174.456 30.0814 179.601 34.4156 183.936C43.169 192.689 55.0412 197.607 67.4203 197.607H191.889C201.078 197.623 209.932 194.154 216.664 187.899C223.397 181.644 227.506 173.069 228.164 163.903C228.822 154.737 225.98 145.662 220.21 138.51C214.44 131.357 206.173 126.659 197.075 125.363C197.176 107.717 190.848 90.6383 179.273 77.319C167.697 63.9998 151.668 55.3519 134.18 52.9918C116.693 50.6318 98.9441 54.7211 84.2523 64.4954C69.5605 74.2697 58.9311 89.06 54.3511 106.101C44.6525 108.93 36.1334 114.829 30.0735 122.913C24.0137 130.997 20.7401 140.828 20.7446 150.931Z" stroke="white" stroke-width="4" stroke-linejoin="round"/>
<path d="M97.5 135.5L114.612 153.04C116.191 154.658 118.797 154.647 120.362 153.015L152.5 119.5" stroke="white" stroke-width="4" stroke-linecap="round"/>
</svg>
