<svg width="233" height="145" viewBox="0 0 233 145" fill="none" xmlns="http://www.w3.org/2000/svg">
<path d="M41.9072 94.8774L86.3936 94.8774L63.7334 117.33L19.4609 117.33L19.4609 117.326L19.4551 117.326L19.4551 72.9868L41.9072 50.8657L41.9072 94.8774Z" fill="black"/>
<path d="M45.0606 46.9943L0.935553 46.9943L23.1475 24.5421L45.0606 24.5421L45.0606 24.5402L66.9199 24.5402L66.9199 68.8712L45.0605 90.882L45.0606 46.9943Z" fill="#FE6E00"/>
<path d="M117.105 90.4798L117.105 51.7506L130.943 51.7506C133.782 51.7506 136.438 52.2419 138.913 53.2244C141.351 54.1888 143.525 55.5443 145.436 57.2911C147.274 59.0015 148.738 61.0667 149.83 63.4867C150.885 65.8703 151.413 68.4177 151.413 71.1288C151.413 73.84 150.885 76.3691 149.83 78.7164C148.738 81.1364 147.274 83.2016 145.436 84.912C143.562 86.6587 141.378 88.0234 138.886 89.0059C136.411 89.9885 133.763 90.4798 130.943 90.4798L117.105 90.4798ZM126.986 59.9932L126.986 82.3191L130.07 82.3191C131.635 82.3191 133.127 82.0189 134.546 81.4184C135.947 80.818 137.175 79.9901 138.23 78.9347C139.304 77.8612 140.123 76.6603 140.687 75.332C141.251 74.0219 141.533 72.6209 141.533 71.1288C141.533 69.7096 141.242 68.2903 140.66 66.8711C140.059 65.5064 139.259 64.3237 138.258 63.3229C137.275 62.3404 136.047 61.5307 134.573 60.8938C133.136 60.2934 131.635 59.9932 130.07 59.9932L126.986 59.9932ZM186.103 51.8052L186.103 77.0788C186.103 80.0083 185.393 82.5556 183.974 84.7209C182.555 86.9044 180.599 88.5602 178.106 89.6883C175.595 90.8346 172.72 91.4078 169.481 91.4078C166.443 91.4078 163.786 90.9165 161.512 89.9339C159.219 88.9514 157.445 87.4411 156.189 85.4032C154.916 83.3653 154.279 80.818 154.279 77.7611L154.279 51.7779L163.804 51.8052L163.804 75.0318C163.804 76.542 163.977 77.843 164.323 78.9347C164.687 80.081 165.305 80.9726 166.179 81.6095C167.034 82.2827 168.217 82.6193 169.727 82.6193C172.547 82.6193 174.403 81.7914 175.295 80.1356C176.168 78.4616 176.605 76.0689 176.605 72.9575L176.605 51.7779L186.103 51.8052ZM210.012 59.7202C208.029 59.7202 206.2 60.257 204.526 61.3305C202.834 62.3859 201.496 63.8051 200.514 65.5883C199.531 67.3533 199.04 69.2092 199.04 71.1561C199.04 73.103 199.54 74.959 200.541 76.724C201.542 78.5253 202.87 79.9537 204.526 81.009C206.2 82.0825 208.029 82.6193 210.012 82.6193C211.977 82.6193 213.797 82.0825 215.471 81.009C217.126 79.9537 218.464 78.5253 219.483 76.724C220.465 74.9408 220.957 73.0849 220.957 71.1561C220.957 69.2092 220.465 67.3533 219.483 65.5883C218.5 63.8233 217.172 62.4041 215.498 61.3305C213.787 60.257 211.959 59.7202 210.012 59.7202ZM210.012 50.8772C213.706 50.8772 217.117 51.7779 220.247 53.5792C223.395 55.3988 225.878 57.8552 227.698 60.9484C229.536 64.0781 230.455 67.4806 230.455 71.1561C230.455 74.8498 229.536 78.2433 227.698 81.3365C225.878 84.448 223.395 86.9044 220.247 88.7057C217.117 90.5071 213.706 91.4078 210.012 91.4078C206.336 91.4078 202.925 90.5071 199.777 88.7057C196.611 86.8862 194.118 84.4298 192.299 81.3365C190.461 78.2433 189.542 74.8498 189.542 71.1561C189.542 67.4806 190.461 64.0781 192.299 60.9484C194.118 57.8734 196.611 55.417 199.777 53.5792C202.925 51.7779 206.336 50.8772 210.012 50.8772Z" fill="black"/>
</svg>
