<svg width="100%" height="fit-content" viewBox="0 0 1430 187" fill="none" xmlns="http://www.w3.org/2000/svg">
<mask id="path-1-inside-1_73_818140" fill="white">
<path d="M1399.4 0.287109C1415.97 0.287251 1429.4 13.7187 1429.4 30.2871V156.5C1429.4 173.068 1415.97 186.5 1399.4 186.5H30.5986C14.0301 186.5 0.598633 173.069 0.598633 156.5V30.2871C0.598633 13.7186 14.0301 0.28711 30.5986 0.287109H114.696C122.799 0.287109 126.851 0.287109 130.5 1.78519C134.15 3.28328 137.033 6.12983 142.799 11.8229L174.318 42.9424C176.19 44.7902 178.714 45.8271 181.344 45.8271H1271.66C1274.87 45.8271 1277.89 44.2871 1279.77 41.6875L1297.74 16.8433C1303.61 8.72499 1306.55 4.66583 1310.83 2.47647C1315.12 0.287109 1320.13 0.287109 1330.15 0.287109H1399.4Z"/>
</mask>
<path d="M1399.4 0.287109C1415.97 0.287251 1429.4 13.7187 1429.4 30.2871V156.5C1429.4 173.068 1415.97 186.5 1399.4 186.5H30.5986C14.0301 186.5 0.598633 173.069 0.598633 156.5V30.2871C0.598633 13.7186 14.0301 0.28711 30.5986 0.287109H114.696C122.799 0.287109 126.851 0.287109 130.5 1.78519C134.15 3.28328 137.033 6.12983 142.799 11.8229L174.318 42.9424C176.19 44.7902 178.714 45.8271 181.344 45.8271H1271.66C1274.87 45.8271 1277.89 44.2871 1279.77 41.6875L1297.74 16.8433C1303.61 8.72499 1306.55 4.66583 1310.83 2.47647C1315.12 0.287109 1320.13 0.287109 1330.15 0.287109H1399.4Z" fill="#F0F0F0"/>
<path d="M1399.4 0.287109V-0.712891V0.287109ZM1429.4 30.2871H1430.4H1429.4ZM1429.4 156.5H1430.4H1429.4ZM1399.4 186.5V187.5V186.5ZM30.5986 186.5V187.5V186.5ZM0.598633 156.5H-0.401367H0.598633ZM0.598633 30.2871H-0.401367H0.598633ZM30.5986 0.287109V-0.712891V0.287109ZM174.318 42.9424L175.021 42.2308L174.318 42.9424ZM181.344 45.8271V46.8271V45.8271ZM1271.66 45.8271V46.8271V45.8271ZM1279.77 41.6875L1278.96 41.1014V41.1014L1279.77 41.6875ZM1297.74 16.8433L1296.93 16.2572L1297.74 16.8433ZM1310.83 2.47647L1311.29 3.367L1310.83 2.47647ZM142.799 11.8229L142.097 12.5345L142.799 11.8229ZM130.5 1.78519L130.88 0.860099L130.5 1.78519ZM1399.4 0.287109V1.28711C1415.42 1.28725 1428.4 14.2709 1428.4 30.2871H1429.4H1430.4C1430.4 13.1664 1416.52 -0.712745 1399.4 -0.712891V0.287109ZM1429.4 30.2871H1428.4V156.5H1429.4H1430.4V30.2871H1429.4ZM1429.4 156.5H1428.4C1428.4 172.516 1415.42 185.5 1399.4 185.5V186.5V187.5C1416.52 187.5 1430.4 173.621 1430.4 156.5H1429.4ZM1399.4 186.5V185.5H30.5986V186.5V187.5H1399.4V186.5ZM30.5986 186.5V185.5C14.5824 185.5 1.59863 172.516 1.59863 156.5H0.598633H-0.401367C-0.401367 173.621 13.4778 187.5 30.5986 187.5V186.5ZM0.598633 156.5H1.59863V30.2871H0.598633H-0.401367V156.5H0.598633ZM0.598633 30.2871H1.59863C1.59863 14.2709 14.5824 1.28711 30.5986 1.28711V0.287109V-0.712891C13.4778 -0.71289 -0.401367 13.1663 -0.401367 30.2871H0.598633ZM30.5986 0.287109V1.28711H114.696V0.287109V-0.712891H30.5986V0.287109ZM142.799 11.8229L142.097 12.5345L173.616 43.654L174.318 42.9424L175.021 42.2308L143.502 11.1113L142.799 11.8229ZM174.318 42.9424L173.616 43.654C175.674 45.6864 178.45 46.8271 181.344 46.8271V45.8271V44.8271C178.977 44.8271 176.706 43.894 175.021 42.2308L174.318 42.9424ZM181.344 45.8271V46.8271H1271.66V45.8271V44.8271H181.344V45.8271ZM1271.66 45.8271V46.8271C1275.19 46.8271 1278.51 45.1331 1280.58 42.2736L1279.77 41.6875L1278.96 41.1014C1277.26 43.4411 1274.55 44.8271 1271.66 44.8271V45.8271ZM1279.77 41.6875L1280.58 42.2736L1298.55 17.4294L1297.74 16.8433L1296.93 16.2572L1278.96 41.1014L1279.77 41.6875ZM1330.15 0.287109V1.28711H1399.4V0.287109V-0.712891H1330.15V0.287109ZM1297.74 16.8433L1298.55 17.4294C1301.49 13.356 1303.67 10.3544 1305.63 8.0929C1307.59 5.84638 1309.3 4.38356 1311.29 3.367L1310.83 2.47647L1310.38 1.58594C1308.08 2.75874 1306.18 4.42018 1304.12 6.78016C1302.08 9.12512 1299.85 12.2123 1296.93 16.2572L1297.74 16.8433ZM1330.15 0.287109V-0.712891C1325.15 -0.712891 1321.34 -0.713821 1318.25 -0.435195C1315.13 -0.154784 1312.67 0.413132 1310.38 1.58594L1310.83 2.47647L1311.29 3.367C1313.28 2.35045 1315.46 1.82368 1318.43 1.55675C1321.41 1.28804 1325.12 1.28711 1330.15 1.28711V0.287109ZM114.696 0.287109V1.28711C122.88 1.28711 126.696 1.30452 130.121 2.71029L130.5 1.78519L130.88 0.860099C127.006 -0.730301 122.718 -0.712891 114.696 -0.712891V0.287109ZM142.799 11.8229L143.502 11.1113C137.793 5.47499 134.755 2.4505 130.88 0.860099L130.5 1.78519L130.121 2.71029C133.545 4.11606 136.273 6.78467 142.097 12.5345L142.799 11.8229Z" fill="#D3D3D3" mask="url(#path-1-inside-1_73_818140)"/>
</svg>
