<svg width="1430" height="774" viewBox="0 0 1430 774" fill="none" xmlns="http://www.w3.org/2000/svg">
<g clip-path="url(#clip0_853_2)">
<mask id="path-2-inside-1_853_2" fill="white">
<path d="M341.436 63.4482C343.307 65.2961 345.831 66.333 348.461 66.333H1388.8C1407.66 66.333 1417.09 66.333 1422.94 72.1909C1428.8 78.0487 1428.8 87.4768 1428.8 106.333V742.646C1428.8 759.214 1415.37 772.645 1398.8 772.646H30C13.4315 772.645 0 759.214 0 742.646V30.793C0 14.2244 13.4315 0.79297 30 0.792969H261.556C269.659 0.792969 273.711 0.792969 277.361 2.29106C281.01 3.78914 283.893 6.6357 289.66 12.3288L341.436 63.4482Z"/>
</mask>
<path d="M341.436 63.4482C343.307 65.2961 345.831 66.333 348.461 66.333H1388.8C1407.66 66.333 1417.09 66.333 1422.94 72.1909C1428.8 78.0487 1428.8 87.4768 1428.8 106.333V742.646C1428.8 759.214 1415.37 772.645 1398.8 772.646H30C13.4315 772.645 0 759.214 0 742.646V30.793C0 14.2244 13.4315 0.79297 30 0.792969H261.556C269.659 0.792969 273.711 0.792969 277.361 2.29106C281.01 3.78914 283.893 6.6357 289.66 12.3288L341.436 63.4482Z" fill="#050505"/>
<path d="M341.436 63.4482L342.138 62.7366L342.138 62.7366L341.436 63.4482ZM348.461 66.333L348.461 67.333H348.461V66.333ZM1398.8 772.646L1398.8 773.646L1398.8 773.646L1398.8 772.646ZM30 772.646L30 773.646H30V772.646ZM30 0.792969L30 -0.207031L30 -0.207031L30 0.792969ZM289.66 12.3288L288.957 13.0404L289.66 12.3288ZM277.361 2.29106L276.981 3.21615L277.361 2.29106ZM1422.94 72.1909L1422.24 72.898L1422.94 72.1909ZM341.436 63.4482L340.733 64.1598C342.791 66.1923 345.568 67.333 348.461 67.333L348.461 66.333L348.461 65.333C346.094 65.333 343.823 64.3999 342.138 62.7366L341.436 63.4482ZM348.461 66.333V67.333H1388.8V66.333V65.333H348.461V66.333ZM1428.8 106.333H1427.8V742.646H1428.8H1429.8V106.333H1428.8ZM1428.8 742.646H1427.8C1427.8 758.662 1414.82 771.645 1398.8 771.646L1398.8 772.646L1398.8 773.646C1415.92 773.645 1429.8 759.766 1429.8 742.646H1428.8ZM1398.8 772.646V771.646H30V772.646V773.646H1398.8V772.646ZM30 772.646L30 771.646C13.9837 771.645 1 758.662 1 742.646H0H-1C-1 759.766 12.8792 773.645 30 773.646L30 772.646ZM0 742.646H1V30.793H0H-1V742.646H0ZM0 30.793H1C1 14.7767 13.9837 1.79297 30 1.79297L30 0.792969L30 -0.207031C12.8792 -0.20703 -1 13.6721 -1 30.793H0ZM30 0.792969V1.79297H261.556V0.792969V-0.207031H30V0.792969ZM289.66 12.3288L288.957 13.0404L340.733 64.1598L341.436 63.4482L342.138 62.7366L290.362 11.6172L289.66 12.3288ZM261.556 0.792969V1.79297C269.74 1.79297 273.556 1.81038 276.981 3.21615L277.361 2.29106L277.74 1.36596C273.866 -0.224442 269.579 -0.207031 261.556 -0.207031V0.792969ZM289.66 12.3288L290.362 11.6172C284.653 5.98086 281.615 2.95636 277.74 1.36596L277.361 2.29106L276.981 3.21615C280.406 4.62192 283.133 7.29054 288.957 13.0404L289.66 12.3288ZM1388.8 66.333V67.333C1398.26 67.333 1405.25 67.3351 1410.61 68.0563C1415.95 68.7736 1419.52 70.1858 1422.24 72.898L1422.94 72.1909L1423.65 71.4838C1420.51 68.3381 1416.44 66.8213 1410.88 66.0742C1405.35 65.3309 1398.2 65.333 1388.8 65.333V66.333ZM1428.8 106.333H1429.8C1429.8 96.9332 1429.8 89.7827 1429.06 84.2543C1428.31 78.6972 1426.8 74.6295 1423.65 71.4838L1422.94 72.1909L1422.24 72.898C1424.95 75.6101 1426.36 79.1854 1427.08 84.5208C1427.8 89.885 1427.8 96.8766 1427.8 106.333H1428.8Z" fill="#282828" mask="url(#path-2-inside-1_853_2)"/>
<mask id="path-4-inside-2_853_2" fill="white">
<path d="M341.436 63.4482C343.307 65.2961 345.831 66.333 348.461 66.333H1388.8C1407.66 66.333 1417.09 66.333 1422.94 72.1909C1428.8 78.0487 1428.8 87.4768 1428.8 106.333V742.646C1428.8 759.214 1415.37 772.645 1398.8 772.646H30C13.4315 772.646 0 759.214 0 742.646V30.793C0 14.2244 13.4315 0.792969 30 0.792969H261.556C269.659 0.792969 273.711 0.792969 277.361 2.29106C281.01 3.78914 283.893 6.6357 289.66 12.3288L341.436 63.4482Z"/>
</mask>
<path d="M341.436 63.4482L342.138 62.7366V62.7366L341.436 63.4482ZM348.461 66.333V67.333V66.333ZM1398.8 772.646V773.646V772.646ZM30 772.646V773.646V772.646ZM30 0.792969V-0.207031V0.792969ZM289.66 12.3288L288.957 13.0404L289.66 12.3288ZM277.361 2.29106L276.981 3.21615L277.361 2.29106ZM1422.94 72.1909L1422.24 72.898L1422.94 72.1909ZM341.436 63.4482L340.733 64.1598C342.791 66.1923 345.568 67.333 348.461 67.333V66.333V65.333C346.094 65.333 343.823 64.3999 342.138 62.7366L341.436 63.4482ZM348.461 66.333V67.333H1388.8V66.333V65.333H348.461V66.333ZM1428.8 106.333H1427.8V742.646H1428.8H1429.8V106.333H1428.8ZM1428.8 742.646H1427.8C1427.8 758.662 1414.82 771.645 1398.8 771.646V772.646V773.646C1415.92 773.645 1429.8 759.766 1429.8 742.646H1428.8ZM1398.8 772.646V771.646H30V772.646V773.646H1398.8V772.646ZM30 772.646V771.646C13.9838 771.646 1 758.662 1 742.646H0H-1C-1 759.766 12.8792 773.646 30 773.646V772.646ZM0 742.646H1V30.793H0H-1V742.646H0ZM0 30.793H1C1 14.7767 13.9837 1.79297 30 1.79297V0.792969V-0.207031C12.8792 -0.207031 -1 13.6721 -1 30.793H0ZM30 0.792969V1.79297H261.556V0.792969V-0.207031H30V0.792969ZM289.66 12.3288L288.957 13.0404L340.733 64.1598L341.436 63.4482L342.138 62.7366L290.362 11.6172L289.66 12.3288ZM261.556 0.792969V1.79297C269.74 1.79297 273.556 1.81038 276.981 3.21615L277.361 2.29106L277.74 1.36596C273.866 -0.224442 269.579 -0.207031 261.556 -0.207031V0.792969ZM289.66 12.3288L290.362 11.6172C284.653 5.98086 281.615 2.95636 277.74 1.36596L277.361 2.29106L276.981 3.21615C280.406 4.62192 283.133 7.29054 288.957 13.0404L289.66 12.3288ZM1388.8 66.333V67.333C1398.26 67.333 1405.25 67.3351 1410.61 68.0563C1415.95 68.7737 1419.52 70.1858 1422.24 72.898L1422.94 72.1909L1423.65 71.4838C1420.51 68.3381 1416.44 66.8213 1410.88 66.0742C1405.35 65.3309 1398.2 65.333 1388.8 65.333V66.333ZM1428.8 106.333H1429.8C1429.8 96.9332 1429.8 89.7827 1429.06 84.2543C1428.31 78.6972 1426.8 74.6295 1423.65 71.4838L1422.94 72.1909L1422.24 72.898C1424.95 75.6101 1426.36 79.1854 1427.08 84.5208C1427.8 89.885 1427.8 96.8766 1427.8 106.333H1428.8Z" fill="url(#paint0_linear_853_2)" mask="url(#path-4-inside-2_853_2)"/>
</g>
<defs>
<linearGradient id="paint0_linear_853_2" x1="183.934" y1="201.676" x2="0.000102211" y2="23.8373" gradientUnits="userSpaceOnUse">
<stop stop-color="#FE6E00" stop-opacity="0"/>
<stop offset="1" stop-color="#FE6E00"/>
</linearGradient>
<clipPath id="clip0_853_2">
<rect y="0.792969" width="1430" height="773" rx="20" fill="white"/>
</clipPath>
</defs>
</svg>
