<svg width="1430" height="773" viewBox="0 0 1430 773" fill="none" xmlns="http://www.w3.org/2000/svg">
<mask id="path-1-inside-1_73_811866" fill="white">
<path d="M342.034 63.5767C343.906 65.4245 346.43 66.4614 349.06 66.4614H1389.4C1408.26 66.4614 1417.68 66.4614 1423.54 72.3193C1429.4 78.1772 1429.4 87.6052 1429.4 106.461V742.774C1429.4 759.342 1415.97 772.774 1399.4 772.774H30.5986C14.0301 772.774 0.598633 759.342 0.598633 742.774V30.9214C0.598633 14.3528 14.0301 0.921387 30.5986 0.921387H262.155C270.258 0.921387 274.31 0.921387 277.959 2.41947C281.609 3.91756 284.492 6.76411 290.258 12.4572L342.034 63.5767Z"/>
</mask>
<path d="M342.034 63.5767C343.906 65.4245 346.43 66.4614 349.06 66.4614H1389.4C1408.26 66.4614 1417.68 66.4614 1423.54 72.3193C1429.4 78.1772 1429.4 87.6052 1429.4 106.461V742.774C1429.4 759.342 1415.97 772.774 1399.4 772.774H30.5986C14.0301 772.774 0.598633 759.342 0.598633 742.774V30.9214C0.598633 14.3528 14.0301 0.921387 30.5986 0.921387H262.155C270.258 0.921387 274.31 0.921387 277.959 2.41947C281.609 3.91756 284.492 6.76411 290.258 12.4572L342.034 63.5767Z" fill="black"/>
<path d="M342.034 63.5767L342.737 62.8651V62.8651L342.034 63.5767ZM349.06 66.4614V67.4614V66.4614ZM1399.4 772.774V773.774V772.774ZM30.5986 772.774V773.774V772.774ZM30.5986 0.921387V-0.0786133V0.921387ZM290.258 12.4572L289.556 13.1688L290.258 12.4572ZM277.959 2.41947L277.58 3.34457L277.959 2.41947ZM1423.54 72.3193L1422.84 73.0264L1423.54 72.3193ZM342.034 63.5767L341.332 64.2883C343.39 66.3207 346.166 67.4614 349.06 67.4614V66.4614V65.4614C346.693 65.4614 344.421 64.5283 342.737 62.8651L342.034 63.5767ZM349.06 66.4614V67.4614H1389.4V66.4614V65.4614H349.06V66.4614ZM1429.4 106.461H1428.4V742.774H1429.4H1430.4V106.461H1429.4ZM1429.4 742.774H1428.4C1428.4 758.79 1415.42 771.774 1399.4 771.774V772.774V773.774C1416.52 773.774 1430.4 759.895 1430.4 742.774H1429.4ZM1399.4 772.774V771.774H30.5986V772.774V773.774H1399.4V772.774ZM30.5986 772.774V771.774C14.5824 771.774 1.59863 758.79 1.59863 742.774H0.598633H-0.401367C-0.401367 759.895 13.4778 773.774 30.5986 773.774V772.774ZM0.598633 742.774H1.59863V30.9214H0.598633H-0.401367V742.774H0.598633ZM0.598633 30.9214H1.59863C1.59863 14.9051 14.5824 1.92139 30.5986 1.92139V0.921387V-0.0786133C13.4778 -0.0786127 -0.401367 13.8006 -0.401367 30.9214H0.598633ZM30.5986 0.921387V1.92139H262.155V0.921387V-0.0786133H30.5986V0.921387ZM290.258 12.4572L289.556 13.1688L341.332 64.2883L342.034 63.5767L342.737 62.8651L290.961 11.7456L290.258 12.4572ZM262.155 0.921387V1.92139C270.339 1.92139 274.155 1.9388 277.58 3.34457L277.959 2.41947L278.339 1.49438C274.465 -0.0960238 270.177 -0.0786133 262.155 -0.0786133V0.921387ZM290.258 12.4572L290.961 11.7456C285.252 6.10927 282.214 3.08478 278.339 1.49438L277.959 2.41947L277.58 3.34457C281.004 4.75034 283.732 7.41895 289.556 13.1688L290.258 12.4572ZM1389.4 66.4614V67.4614C1398.86 67.4614 1405.85 67.4635 1411.21 68.1847C1416.55 68.9021 1420.12 70.3142 1422.84 73.0264L1423.54 72.3193L1424.25 71.6122C1421.1 68.4665 1417.04 66.9497 1411.48 66.2026C1405.95 65.4593 1398.8 65.4614 1389.4 65.4614V66.4614ZM1429.4 106.461H1430.4C1430.4 97.0616 1430.4 89.9111 1429.66 84.3827C1428.91 78.8256 1427.4 74.7579 1424.25 71.6122L1423.54 72.3193L1422.84 73.0264C1425.55 75.7386 1426.96 79.3139 1427.68 84.6492C1428.4 90.0134 1428.4 97.0051 1428.4 106.461H1429.4Z" fill="#282828" mask="url(#path-1-inside-1_73_811866)"/>
<path d="M342.034 63.5767L342.737 62.8651V62.8651L342.034 63.5767ZM349.06 66.4614V67.4614V66.4614ZM1399.4 772.774V773.774V772.774ZM30.5986 772.774V773.774V772.774ZM30.5986 0.921387V-0.0786133V0.921387ZM290.258 12.4572L289.556 13.1688L290.258 12.4572ZM277.959 2.41947L277.58 3.34457L277.959 2.41947ZM1423.54 72.3193L1422.84 73.0264L1423.54 72.3193ZM342.034 63.5767L341.332 64.2883C343.39 66.3207 346.166 67.4614 349.06 67.4614V66.4614V65.4614C346.693 65.4614 344.421 64.5283 342.737 62.8651L342.034 63.5767ZM349.06 66.4614V67.4614H1389.4V66.4614V65.4614H349.06V66.4614ZM1429.4 106.461H1428.4V742.774H1429.4H1430.4V106.461H1429.4ZM1429.4 742.774H1428.4C1428.4 758.79 1415.42 771.774 1399.4 771.774V772.774V773.774C1416.52 773.774 1430.4 759.895 1430.4 742.774H1429.4ZM1399.4 772.774V771.774H30.5986V772.774V773.774H1399.4V772.774ZM30.5986 772.774V771.774C14.5824 771.774 1.59863 758.79 1.59863 742.774H0.598633H-0.401367C-0.401367 759.895 13.4778 773.774 30.5986 773.774V772.774ZM0.598633 742.774H1.59863V30.9214H0.598633H-0.401367V742.774H0.598633ZM0.598633 30.9214H1.59863C1.59863 14.9051 14.5824 1.92139 30.5986 1.92139V0.921387V-0.0786133C13.4778 -0.0786127 -0.401367 13.8006 -0.401367 30.9214H0.598633ZM30.5986 0.921387V1.92139H262.155V0.921387V-0.0786133H30.5986V0.921387ZM290.258 12.4572L289.556 13.1688L341.332 64.2883L342.034 63.5767L342.737 62.8651L290.961 11.7456L290.258 12.4572ZM262.155 0.921387V1.92139C270.339 1.92139 274.155 1.9388 277.58 3.34457L277.959 2.41947L278.339 1.49438C274.465 -0.0960238 270.177 -0.0786133 262.155 -0.0786133V0.921387ZM290.258 12.4572L290.961 11.7456C285.252 6.10927 282.214 3.08478 278.339 1.49438L277.959 2.41947L277.58 3.34457C281.004 4.75034 283.732 7.41895 289.556 13.1688L290.258 12.4572ZM1389.4 66.4614V67.4614C1398.86 67.4614 1405.85 67.4635 1411.21 68.1847C1416.55 68.9021 1420.12 70.3142 1422.84 73.0264L1423.54 72.3193L1424.25 71.6122C1421.1 68.4665 1417.04 66.9497 1411.48 66.2026C1405.95 65.4593 1398.8 65.4614 1389.4 65.4614V66.4614ZM1429.4 106.461H1430.4C1430.4 97.0616 1430.4 89.9111 1429.66 84.3827C1428.91 78.8256 1427.4 74.7579 1424.25 71.6122L1423.54 72.3193L1422.84 73.0264C1425.55 75.7386 1426.96 79.3139 1427.68 84.6492C1428.4 90.0134 1428.4 97.0051 1428.4 106.461H1429.4Z" fill="url(#paint0_linear_73_811866)" mask="url(#path-1-inside-1_73_811866)"/>
<defs>
<linearGradient id="paint0_linear_73_811866" x1="184.533" y1="201.804" x2="0.598735" y2="23.9658" gradientUnits="userSpaceOnUse">
<stop stop-color="#FE6E00" stop-opacity="0"/>
<stop offset="1" stop-color="#FE6E00"/>
</linearGradient>
</defs>
</svg>
