<svg width="24" height="24" viewBox="0 0 24 24" fill="none" xmlns="http://www.w3.org/2000/svg">
<path d="M7.23242 0.419922H17.3711C18.9594 0.421813 20.4865 1.01398 21.6582 2.0752L21.8877 2.29395C23.0856 3.49195 23.7598 5.11641 23.7617 6.81055V16.9492L23.7529 17.2656C23.6782 18.7394 23.0961 20.1426 22.1055 21.2363L21.8877 21.4658C20.6897 22.6638 19.0652 23.3378 17.3711 23.3398H7.23242L6.91504 23.3311C5.44153 23.2563 4.03891 22.674 2.94531 21.6836L2.71582 21.4658C1.51787 20.2679 0.843814 18.6434 0.841797 16.9492V6.81055L0.849609 6.49316C0.92436 5.01974 1.50678 3.61701 2.49707 2.52344L2.71582 2.29395C3.83889 1.17088 5.3363 0.507828 6.91504 0.427734L7.23242 0.419922ZM14.4414 6.71387C13.4834 6.31707 12.4351 6.19427 11.4141 6.3584L11.2109 6.39551C10.1941 6.59777 9.25483 7.07863 8.49707 7.78223L8.34766 7.92578C7.61463 8.6588 7.10052 9.58004 6.86133 10.5859L6.81738 10.7891C6.60171 11.8736 6.71257 12.9979 7.13574 14.0195C7.53253 14.9774 8.18745 15.8042 9.02539 16.4102L9.19531 16.5293C10.0574 17.1052 11.0614 17.4296 12.0947 17.4678L12.3018 17.4717C13.6916 17.4701 15.0275 16.951 16.0527 16.0225L16.2539 15.832C17.3021 14.7838 17.8918 13.3623 17.8936 11.8799L17.8896 11.6729C17.854 10.7082 17.5687 9.76917 17.0625 8.94727L16.9512 8.77344C16.3368 7.85396 15.4631 7.13709 14.4414 6.71387ZM12.3018 8.25391C13.2627 8.2551 14.1837 8.63793 14.8633 9.31738C15.5429 9.99704 15.9257 10.9187 15.9268 11.8799L15.917 12.1475C15.8775 12.6812 15.7197 13.1993 15.4561 13.665L15.3154 13.8936C14.9669 14.4152 14.4902 14.8363 13.9326 15.1172L13.6885 15.2285C13.109 15.4685 12.4789 15.5537 11.8594 15.4775L11.5938 15.4355C10.8908 15.2956 10.2452 14.9501 9.73828 14.4434C9.29461 13.9997 8.97434 13.4494 8.80762 12.8477L8.74609 12.5869C8.62367 11.9715 8.66266 11.3362 8.8584 10.7432L8.95215 10.4922C9.19226 9.91253 9.57819 9.40676 10.0703 9.02246L10.2871 8.86523C10.8087 8.51672 11.4106 8.30986 12.0332 8.26367L12.3018 8.25391ZM18.8447 4.55469C18.5809 4.44548 18.2908 4.41696 18.0107 4.47266C17.7657 4.52143 17.538 4.63253 17.3496 4.79492L17.2715 4.86719C17.0948 5.04385 16.9678 5.26333 16.9014 5.50293L16.876 5.60645C16.8272 5.85143 16.8431 6.10474 16.9209 6.34082L16.958 6.44141C17.0536 6.67211 17.2075 6.87335 17.4033 7.02637L17.4902 7.08887C17.7277 7.24753 18.0074 7.33301 18.293 7.33301C18.6758 7.33288 19.0428 7.17986 19.3135 6.90918C19.5841 6.63842 19.7363 6.27151 19.7363 5.88867C19.7363 5.63886 19.6713 5.3941 19.5488 5.17773L19.4932 5.08594C19.3345 4.8486 19.1085 4.66394 18.8447 4.55469Z" fill="#A8A8A8" stroke="#A8A8A8" stroke-width="0.122863"/>
</svg>
