<svg width="266" height="60" viewBox="0 0 266 60" fill="none" xmlns="http://www.w3.org/2000/svg">
<path d="M7.36957 2.72228C7.7197 1.13237 9.12857 3.99022e-07 10.7566 4.70185e-07L60.1333 2.62851e-06C62.3493 2.72537e-06 63.9969 2.04986 63.5203 4.21403L57.0787 33.465C56.7286 35.0549 55.3197 36.1873 53.6917 36.1873L4.315 36.1873C2.09897 36.1873 0.451413 34.1374 0.928002 31.9732L7.36957 2.72228Z" fill="#FE6E00"/>
<path d="M12.4925 6.72242C12.5513 6.45521 12.7881 6.26489 13.0617 6.26489L21.3604 6.26489C21.7329 6.26489 22.0098 6.60941 21.9297 6.97314L20.847 11.8893C20.7882 12.1565 20.5514 12.3468 20.2778 12.3468L11.9791 12.3468C11.6067 12.3468 11.3298 12.0023 11.4099 11.6386L12.4925 6.72242Z" fill="white"/>
<path d="M8.27013 28.8487C8.27206 28.5502 8.51454 28.3093 8.81298 28.3093L17.2196 28.3093C17.5208 28.3093 17.7644 28.5545 17.7625 28.8557C17.7605 29.1541 17.5181 29.395 17.2196 29.395L8.81298 29.395C8.5118 29.395 8.26819 29.1498 8.27013 28.8487Z" fill="white"/>
<path d="M11.1568 36.1775L13.6255 26.4295C14.0152 24.8906 15.4 23.8127 16.9875 23.8127L65.9965 23.8127C68.2126 23.8127 69.8601 25.8626 69.3835 28.0268L62.942 57.2777C62.5918 58.8676 61.183 60 59.555 60L10.1783 60C7.96225 60 6.31469 57.9501 6.79128 55.786L9.84781 41.9064L11.1568 36.1775Z" fill="#FE8D18"/>
<path d="M36.067 23.8257L39.1823 11.8491L16.6709 36.1655L33.98 36.1655L30.8908 47.9738L53.6978 23.8257L36.067 23.8257Z" fill="white"/>
<path d="M11.3512 54.6311C11.3531 54.3327 11.5956 54.0918 11.894 54.0918L20.3007 54.0918C20.6019 54.0918 20.8455 54.337 20.8435 54.6382C20.8416 54.9366 20.5991 55.1775 20.3007 55.1775L11.894 55.1775C11.5929 55.1775 11.3492 54.9323 11.3512 54.6311Z" fill="white"/>
<path d="M24.0289 54.6311C24.0309 54.3327 24.2733 54.0918 24.5718 54.0918L32.9784 54.0918C33.2796 54.0918 33.5232 54.337 33.5213 54.6382C33.5193 54.9366 33.2768 55.1775 32.9784 55.1775L24.5718 55.1775C24.2706 55.1775 24.027 54.9323 24.0289 54.6311Z" fill="white"/>
<path d="M36.694 54.6311C36.6959 54.3327 36.9384 54.0918 37.2368 54.0918L45.6434 54.0918C45.9446 54.0918 46.1882 54.337 46.1863 54.6382C46.1844 54.9366 45.9419 55.1775 45.6434 55.1775L37.2368 55.1775C36.9356 55.1775 36.692 54.9323 36.694 54.6311Z" fill="white"/>
<path d="M49.3717 54.6311C49.3736 54.3327 49.6161 54.0918 49.9145 54.0918L58.3212 54.0918C58.6224 54.0918 58.866 54.337 58.864 54.6382C58.8621 54.9366 58.6196 55.1775 58.3212 55.1775L49.9145 55.1775C49.6134 55.1775 49.3697 54.9323 49.3717 54.6311Z" fill="white"/>
<path d="M100.405 44.895L100.405 18.0019L105.835 18.0019L105.835 44.895L100.405 44.895ZM128.711 44.895L123.556 44.895L123.556 34.9523C123.556 32.8487 123.446 31.4912 123.226 30.8798C123.006 30.256 122.645 29.773 122.143 29.4305C121.654 29.0881 121.061 28.9169 120.364 28.9169C119.471 28.9169 118.67 29.1615 117.961 29.6507C117.252 30.1399 116.762 30.788 116.493 31.5952C116.237 32.4024 116.108 33.8944 116.108 36.0713L116.108 44.895L110.953 44.895L110.953 25.4131L115.741 25.4131L115.741 28.2748C117.441 26.0735 119.581 24.9728 122.162 24.9728C123.299 24.9728 124.339 25.1807 125.28 25.5965C126.222 26.0001 126.931 26.5199 127.408 27.1558C127.898 27.7918 128.234 28.5133 128.417 29.3205C128.613 30.1276 128.711 31.2833 128.711 32.7876L128.711 44.895ZM132.141 39.3366L137.314 38.5478C137.535 39.5506 137.981 40.315 138.654 40.8409C139.326 41.3545 140.268 41.6113 141.479 41.6113C142.812 41.6113 143.815 41.3667 144.487 40.8776C144.94 40.5351 145.166 40.0765 145.166 39.5017C145.166 39.1104 145.044 38.7863 144.799 38.5294C144.542 38.2849 143.967 38.0586 143.075 37.8507C138.917 36.9335 136.281 36.0957 135.168 35.3375C133.627 34.2857 132.857 32.8243 132.857 30.9531C132.857 29.2654 133.523 27.8468 134.856 26.6972C136.189 25.5476 138.256 24.9728 141.057 24.9728C143.723 24.9728 145.704 25.407 147 26.2753C148.297 27.1436 149.19 28.4277 149.679 30.1276L144.817 31.0265C144.609 30.2683 144.212 29.6874 143.625 29.2838C143.05 28.8802 142.225 28.6784 141.148 28.6784C139.791 28.6784 138.819 28.868 138.232 29.2471C137.84 29.5161 137.645 29.8647 137.645 30.2927C137.645 30.6596 137.816 30.9715 138.158 31.2283C138.623 31.5707 140.225 32.0538 142.965 32.6775C145.716 33.3012 147.636 34.0656 148.725 34.9706C149.801 35.8878 150.339 37.1658 150.339 38.8046C150.339 40.5902 149.593 42.125 148.101 43.4091C146.609 44.6932 144.402 45.3353 141.479 45.3353C138.825 45.3353 136.721 44.7972 135.168 43.721C133.627 42.6448 132.618 41.1833 132.141 39.3366ZM163.804 25.4131L163.804 29.5223L160.282 29.5223L160.282 37.3737C160.282 38.9636 160.312 39.8931 160.374 40.1621C160.447 40.4189 160.6 40.633 160.832 40.8042C161.077 40.9754 161.37 41.061 161.713 41.061C162.19 41.061 162.881 40.8959 163.786 40.5657L164.226 44.5648C163.027 45.0785 161.67 45.3353 160.153 45.3353C159.224 45.3353 158.386 45.1824 157.64 44.8767C156.894 44.5587 156.344 44.1551 155.989 43.6659C155.647 43.1645 155.408 42.4919 155.274 41.648C155.164 41.0488 155.109 39.838 155.109 38.0158L155.109 29.5223L152.742 29.5223L152.742 25.4131L155.109 25.4131L155.109 21.5424L160.282 18.5339L160.282 25.4131L163.804 25.4131ZM171.234 31.3567L166.556 30.5129C167.082 28.6295 167.987 27.2353 169.271 26.3303C170.555 25.4253 172.463 24.9728 174.994 24.9728C177.293 24.9728 179.006 25.248 180.131 25.7983C181.256 26.3364 182.045 27.0274 182.497 27.8712C182.962 28.7029 183.194 30.2377 183.194 32.4757L183.139 38.4928C183.139 40.2049 183.219 41.4707 183.378 42.2901C183.549 43.0973 183.861 43.9656 184.313 44.895L179.213 44.895C179.079 44.5526 178.914 44.0451 178.718 43.3724C178.633 43.0667 178.571 42.8649 178.535 42.7671C177.654 43.6231 176.713 44.2652 175.71 44.6932C174.707 45.1213 173.637 45.3353 172.499 45.3353C170.494 45.3353 168.91 44.7911 167.748 43.7026C166.599 42.6142 166.024 41.2383 166.024 39.5751C166.024 38.4744 166.287 37.496 166.813 36.64C167.338 35.7716 168.072 35.1112 169.014 34.6587C169.968 34.194 171.338 33.7904 173.123 33.448C175.532 32.9955 177.202 32.5736 178.131 32.1822L178.131 31.6686C178.131 30.678 177.887 29.9748 177.397 29.5589C176.908 29.1309 175.985 28.9169 174.627 28.9169C173.71 28.9169 172.995 29.1003 172.481 29.4672C171.967 29.8219 171.552 30.4517 171.234 31.3567ZM178.131 35.5393C177.471 35.7594 176.425 36.0224 174.994 36.3281C173.563 36.6338 172.628 36.9335 172.188 37.227C171.515 37.7039 171.179 38.3093 171.179 39.0431C171.179 39.7647 171.448 40.3884 171.986 40.9142C172.524 41.4401 173.209 41.7031 174.04 41.7031C174.97 41.7031 175.856 41.3973 176.7 40.7858C177.324 40.3211 177.734 39.7524 177.929 39.0798C178.064 38.6395 178.131 37.8018 178.131 36.5666L178.131 35.5393ZM205.281 31.1733L200.2 32.0905C200.028 31.0754 199.637 30.3111 199.026 29.7974C198.426 29.2838 197.644 29.027 196.678 29.027C195.393 29.027 194.366 29.4733 193.596 30.3661C192.837 31.2467 192.458 32.7264 192.458 34.8055C192.458 37.1169 192.844 38.7496 193.614 39.7035C194.397 40.6574 195.442 41.1344 196.751 41.1344C197.729 41.1344 198.53 40.8592 199.154 40.3089C199.778 39.7463 200.218 38.7863 200.475 37.4288L205.538 38.291C205.012 40.6146 204.003 42.3696 202.511 43.5559C201.019 44.7422 199.02 45.3353 196.512 45.3353C193.663 45.3353 191.388 44.4364 189.688 42.6386C188.001 40.8409 187.157 38.3521 187.157 35.1724C187.157 31.956 188.007 29.455 189.707 27.6695C191.407 25.8717 193.706 24.9728 196.604 24.9728C198.977 24.9728 200.86 25.4865 202.254 26.5137C203.661 27.5288 204.67 29.082 205.281 31.1733ZM213.059 31.3567L208.381 30.5129C208.907 28.6295 209.812 27.2353 211.096 26.3303C212.381 25.4253 214.288 24.9728 216.82 24.9728C219.119 24.9728 220.831 25.248 221.956 25.7983C223.082 26.3364 223.87 27.0274 224.323 27.8712C224.788 28.7029 225.02 30.2377 225.02 32.4757L224.965 38.4928C224.965 40.2049 225.044 41.4707 225.203 42.2901C225.375 43.0973 225.686 43.9656 226.139 44.895L221.039 44.895C220.905 44.5526 220.74 44.0451 220.544 43.3724C220.458 43.0667 220.397 42.8649 220.36 42.7671C219.48 43.6231 218.538 44.2652 217.535 44.6932C216.533 45.1213 215.462 45.3353 214.325 45.3353C212.319 45.3353 210.736 44.7911 209.574 43.7026C208.424 42.6142 207.849 41.2383 207.849 39.5751C207.849 38.4744 208.112 37.496 208.638 36.64C209.164 35.7716 209.898 35.1112 210.84 34.6587C211.793 34.194 213.163 33.7904 214.949 33.448C217.358 32.9955 219.027 32.5736 219.957 32.1822L219.957 31.6686C219.957 30.678 219.712 29.9748 219.223 29.559C218.734 29.1309 217.811 28.9169 216.453 28.9169C215.536 28.9169 214.82 29.1003 214.307 29.4672C213.793 29.8219 213.377 30.4517 213.059 31.3567ZM219.957 35.5393C219.296 35.7594 218.251 36.0224 216.82 36.3281C215.389 36.6338 214.453 36.9335 214.013 37.227C213.341 37.7039 213.004 38.3093 213.004 39.0431C213.004 39.7647 213.273 40.3884 213.811 40.9142C214.349 41.4401 215.034 41.7031 215.866 41.7031C216.795 41.7031 217.682 41.3973 218.526 40.7858C219.15 40.3211 219.559 39.7524 219.755 39.0798C219.89 38.6395 219.957 37.8018 219.957 36.5666L219.957 35.5393ZM235.054 44.895L229.9 44.895L229.9 25.4131L234.688 25.4131L234.688 28.1831C235.507 26.8745 236.241 26.0123 236.889 25.5965C237.549 25.1807 238.295 24.9728 239.127 24.9728C240.301 24.9728 241.432 25.2969 242.521 25.9451L240.925 30.4395C240.056 29.8769 239.249 29.5956 238.503 29.5956C237.782 29.5956 237.17 29.7974 236.669 30.201C236.167 30.5924 235.77 31.3078 235.476 32.3473C235.195 33.3869 235.054 35.5637 235.054 38.878L235.054 44.895ZM262.626 44.895L257.838 44.895L257.838 42.0333C257.043 43.1462 256.102 43.9778 255.013 44.5281C253.937 45.0662 252.849 45.3353 251.748 45.3353C249.51 45.3353 247.59 44.4364 245.988 42.6386C244.398 40.8286 243.603 38.3093 243.603 35.0807C243.603 31.7786 244.38 29.2716 245.933 27.5594C247.486 25.835 249.449 24.9728 251.821 24.9728C253.998 24.9728 255.882 25.8778 257.472 27.6878L257.472 18.0019L262.626 18.0019L262.626 44.895ZM248.868 34.7321C248.868 36.8112 249.155 38.3154 249.73 39.2449C250.562 40.5902 251.724 41.2628 253.216 41.2628C254.402 41.2628 255.411 40.7614 256.242 39.7585C257.074 38.7435 257.49 37.2331 257.49 35.2274C257.49 32.9894 257.086 31.3812 256.279 30.4028C255.472 29.4122 254.439 28.9169 253.179 28.9169C251.956 28.9169 250.929 29.4061 250.097 30.3845C249.278 31.3506 248.868 32.7998 248.868 34.7321Z" fill="#1D1D1D"/>
</svg>
