<svg width="332" height="76" viewBox="0 0 332 76" fill="none" xmlns="http://www.w3.org/2000/svg">
<path d="M9.20065 4.3789C9.63777 2.39396 11.3967 0.980225 13.4292 0.980225L75.0743 0.980228C77.8409 0.980228 79.8978 3.53941 79.3028 6.2413L71.2607 42.7601C70.8236 44.745 69.0647 46.1588 67.0322 46.1588L5.38713 46.1587C2.6205 46.1587 0.563574 43.5996 1.15858 40.8977L9.20065 4.3789Z" fill="#FE6E00"/>
<path d="M15.5952 9.37309C15.6686 9.03948 15.9643 8.80188 16.3059 8.80188L26.6664 8.80188C27.1314 8.80188 27.4771 9.232 27.3771 9.6861L26.0255 15.8238C25.952 16.1574 25.6564 16.395 25.3148 16.395L14.9542 16.395C14.4893 16.395 14.1435 15.9648 14.2435 15.5107L15.5952 9.37309Z" fill="white"/>
<path d="M10.3169 36.9968C10.3193 36.6243 10.622 36.3235 10.9946 36.3235L21.49 36.3235C21.866 36.3235 22.1702 36.6296 22.1677 37.0056C22.1653 37.3782 21.8626 37.679 21.49 37.679L10.9946 37.679C10.6186 37.679 10.3145 37.3728 10.3169 36.9968Z" fill="white"/>
<path d="M13.9271 46.1465L17.0092 33.9764C17.4957 32.0551 19.2246 30.7095 21.2065 30.7095L82.3926 30.7095C85.1593 30.7095 87.2162 33.2687 86.6212 35.9705L78.5791 72.4893C78.142 74.4743 76.3831 75.888 74.3506 75.888L12.7055 75.888C9.93886 75.888 7.88193 73.3288 8.47694 70.6269L12.2929 53.2987L13.9271 46.1465Z" fill="#FE8D18"/>
<path d="M45.0298 30.7258L48.9191 15.7734L20.8145 46.1316L42.4243 46.1316L38.5675 60.8739L67.0412 30.7258L45.0298 30.7258Z" fill="white"/>
<path d="M14.1704 69.1848C14.1728 68.8122 14.4756 68.5115 14.8481 68.5115L25.3435 68.5115C25.7196 68.5115 26.0237 68.8176 26.0213 69.1936C26.0189 69.5662 25.7161 69.8669 25.3435 69.8669L14.8481 69.8669C14.4721 69.8669 14.168 69.5608 14.1704 69.1848Z" fill="white"/>
<path d="M29.9907 69.1848C29.9931 68.8122 30.2959 68.5115 30.6685 68.5115L41.1639 68.5115C41.5399 68.5115 41.844 68.8176 41.8416 69.1936C41.8392 69.5662 41.5364 69.8669 41.1639 69.8669L30.6685 69.8669C30.2924 69.8669 29.9883 69.5608 29.9907 69.1848Z" fill="white"/>
<path d="M45.8111 69.1848C45.8135 68.8122 46.1162 68.5115 46.4888 68.5115L56.9842 68.5115C57.3602 68.5115 57.6643 68.8176 57.6619 69.1936C57.6595 69.5662 57.3568 69.8669 56.9842 69.8669L46.4888 69.8669C46.1128 69.8669 45.8086 69.5608 45.8111 69.1848Z" fill="white"/>
<path d="M61.6314 69.1848C61.6338 68.8122 61.9365 68.5115 62.3091 68.5115L72.8045 68.5115C73.1805 68.5115 73.4846 68.8176 73.4822 69.1936C73.4798 69.5662 73.1771 69.8669 72.8045 69.8669L62.3091 69.8669C61.9331 69.8669 61.6289 69.5608 61.6314 69.1848Z" fill="white"/>
<path d="M125.353 57.3401L125.353 23.7649L132.132 23.7649L132.132 57.3401L125.353 57.3401ZM160.692 57.3401L154.256 57.3401L154.256 44.9269C154.256 42.3007 154.118 40.6059 153.844 39.8425C153.569 39.0638 153.118 38.4607 152.492 38.0332C151.882 37.6057 151.141 37.3919 150.271 37.3919C149.156 37.3919 148.156 37.6973 147.271 38.308C146.385 38.9188 145.774 39.728 145.438 40.7357C145.118 41.7434 144.957 43.6062 144.957 46.324L144.957 57.3401L138.522 57.3401L138.522 33.0176L144.499 33.0176L144.499 36.5904C146.622 33.842 149.294 32.4679 152.515 32.4679C153.935 32.4679 155.233 32.7275 156.409 33.2466C157.584 33.7504 158.47 34.3993 159.065 35.1933C159.676 35.9873 160.096 36.8881 160.325 37.8958C160.569 38.9035 160.692 40.3464 160.692 42.2244L160.692 57.3401ZM164.974 50.4006L171.433 49.4158C171.708 50.6678 172.265 51.6221 173.105 52.2786C173.944 52.9199 175.12 53.2405 176.632 53.2405C178.296 53.2405 179.548 52.9352 180.388 52.3244C180.953 51.8969 181.235 51.3243 181.235 50.6067C181.235 50.1181 181.082 49.7135 180.777 49.3929C180.456 49.0875 179.739 48.8051 178.624 48.5455C173.433 47.4004 170.143 46.3545 168.753 45.4078C166.829 44.0948 165.867 42.2702 165.867 39.9341C165.867 37.8271 166.7 36.056 168.364 34.6207C170.028 33.1855 172.608 32.4679 176.105 32.4679C179.433 32.4679 181.907 33.0099 183.525 34.094C185.144 35.178 186.258 36.7812 186.869 38.9035L180.8 40.0257C180.54 39.0791 180.044 38.3539 179.311 37.85C178.594 37.3461 177.563 37.0942 176.219 37.0942C174.525 37.0942 173.311 37.3309 172.578 37.8042C172.089 38.1401 171.845 38.5752 171.845 39.1096C171.845 39.5677 172.059 39.957 172.486 40.2777C173.067 40.7052 175.067 41.3083 178.487 42.087C181.922 42.8657 184.319 43.8199 185.678 44.9498C187.022 46.0949 187.694 47.6905 187.694 49.7364C187.694 51.9656 186.762 53.8818 184.9 55.485C183.037 57.0882 180.281 57.8898 176.632 57.8898C173.318 57.8898 170.692 57.2179 168.753 55.8743C166.829 54.5307 165.57 52.7061 164.974 50.4006ZM204.504 33.0176L204.504 38.1477L200.107 38.1477L200.107 47.95C200.107 49.9349 200.145 51.0953 200.221 51.4312C200.313 51.7519 200.504 52.0191 200.794 52.2328C201.099 52.4466 201.466 52.5535 201.893 52.5535C202.489 52.5535 203.351 52.3473 204.481 51.9351L205.031 56.9278C203.535 57.5691 201.84 57.8898 199.947 57.8898C198.786 57.8898 197.74 57.6989 196.809 57.3172C195.878 56.9202 195.19 56.4164 194.748 55.8056C194.32 55.1796 194.022 54.3399 193.854 53.2863C193.717 52.5382 193.648 51.0266 193.648 48.7516L193.648 38.1477L190.694 38.1477L190.694 33.0176L193.648 33.0176L193.648 28.1851L200.107 24.4291L200.107 33.0176L204.504 33.0176ZM213.78 40.438L207.94 39.3845C208.596 37.0331 209.726 35.2925 211.329 34.1627C212.932 33.0328 215.314 32.4679 218.475 32.4679C221.345 32.4679 223.483 32.8114 224.887 33.4985C226.292 34.1703 227.277 35.033 227.842 36.0865C228.422 37.1248 228.712 39.0409 228.712 41.835L228.643 49.3471C228.643 51.4847 228.743 53.0649 228.941 54.0879C229.155 55.0956 229.544 56.1797 230.109 57.3401L223.742 57.3401C223.574 56.9126 223.368 56.2789 223.124 55.4392C223.017 55.0575 222.941 54.8055 222.895 54.6834C221.796 55.7522 220.62 56.5538 219.368 57.0882C218.116 57.6226 216.78 57.8898 215.36 57.8898C212.856 57.8898 210.879 57.2103 209.428 55.8514C207.993 54.4925 207.275 52.7748 207.275 50.6983C207.275 49.3242 207.604 48.1027 208.26 47.0339C208.917 45.9499 209.833 45.1254 211.008 44.5605C212.199 43.9803 213.909 43.4764 216.139 43.0489C219.147 42.484 221.231 41.9572 222.391 41.4686L222.391 40.8273C222.391 39.5906 222.086 38.7127 221.475 38.1935C220.864 37.6591 219.711 37.3919 218.017 37.3919C216.872 37.3919 215.978 37.621 215.337 38.079C214.696 38.5218 214.177 39.3081 213.78 40.438ZM222.391 45.6598C221.567 45.9346 220.261 46.2629 218.475 46.6446C216.688 47.0263 215.52 47.4004 214.971 47.7668C214.131 48.3623 213.711 49.1181 213.711 50.0342C213.711 50.935 214.047 51.7137 214.719 52.3702C215.39 53.0268 216.246 53.355 217.284 53.355C218.444 53.355 219.551 52.9733 220.605 52.2099C221.383 51.6297 221.895 50.9197 222.139 50.08C222.307 49.5303 222.391 48.4844 222.391 46.9423L222.391 45.6598ZM256.287 40.209L249.943 41.3541C249.729 40.0868 249.241 39.1325 248.477 38.4913C247.729 37.85 246.752 37.5294 245.546 37.5294C243.942 37.5294 242.66 38.0867 241.698 39.2013C240.751 40.3006 240.278 42.1481 240.278 44.7437C240.278 47.6294 240.759 49.6677 241.721 50.8587C242.698 52.0496 244.003 52.6451 245.637 52.6451C246.859 52.6451 247.859 52.3015 248.637 51.6144C249.416 50.9121 249.966 49.7135 250.286 48.0187L256.607 49.0952C255.951 51.9962 254.691 54.1872 252.829 55.6682C250.966 57.1492 248.469 57.8898 245.339 57.8898C241.782 57.8898 238.942 56.7675 236.82 54.5231C234.713 52.2786 233.659 49.1715 233.659 45.2017C233.659 41.1861 234.72 38.0638 236.843 35.8346C238.965 33.5901 241.835 32.4679 245.454 32.4679C248.416 32.4679 250.767 33.1092 252.508 34.3917C254.264 35.659 255.523 37.5981 256.287 40.209ZM265.998 40.438L260.157 39.3845C260.814 37.0331 261.944 35.2925 263.547 34.1627C265.15 33.0328 267.532 32.4679 270.693 32.4679C273.563 32.4679 275.701 32.8114 277.105 33.4985C278.51 34.1703 279.495 35.033 280.06 36.0865C280.64 37.1248 280.93 39.0409 280.93 41.8351L280.861 49.3471C280.861 51.4847 280.961 53.0649 281.159 54.0879C281.373 55.0956 281.762 56.1797 282.327 57.3401L275.96 57.3401C275.792 56.9126 275.586 56.2789 275.342 55.4392C275.235 55.0575 275.159 54.8055 275.113 54.6834C274.013 55.7522 272.838 56.5538 271.586 57.0882C270.334 57.6226 268.998 57.8898 267.578 57.8898C265.074 57.8898 263.097 57.2103 261.646 55.8514C260.211 54.4925 259.493 52.7748 259.493 50.6983C259.493 49.3242 259.821 48.1027 260.478 47.0339C261.135 45.9499 262.051 45.1254 263.226 44.5605C264.417 43.9803 266.127 43.4764 268.357 43.0489C271.364 42.484 273.449 41.9572 274.609 41.4686L274.609 40.8273C274.609 39.5906 274.304 38.7127 273.693 38.1935C273.082 37.6591 271.929 37.392 270.235 37.392C269.089 37.392 268.196 37.621 267.555 38.079C266.914 38.5218 266.395 39.3081 265.998 40.438ZM274.609 45.6598C273.784 45.9346 272.479 46.2629 270.693 46.6446C268.906 47.0263 267.738 47.4004 267.188 47.7668C266.349 48.3623 265.929 49.1181 265.929 50.0342C265.929 50.935 266.265 51.7137 266.937 52.3702C267.608 53.0268 268.463 53.355 269.502 53.355C270.662 53.355 271.769 52.9733 272.823 52.2099C273.601 51.6297 274.113 50.9197 274.357 50.08C274.525 49.5303 274.609 48.4844 274.609 46.9423L274.609 45.6598ZM293.458 57.3401L287.022 57.3401L287.022 33.0176L293 33.0176L293 36.4759C294.023 34.8421 294.939 33.7657 295.748 33.2466C296.572 32.7275 297.504 32.4679 298.542 32.4679C300.008 32.4679 301.42 32.8725 302.779 33.6817L300.787 39.2929C299.703 38.5905 298.695 38.2393 297.763 38.2393C296.863 38.2393 296.099 38.4913 295.473 38.9951C294.847 39.4837 294.351 40.3769 293.984 41.6747C293.633 42.9725 293.458 45.6903 293.458 49.8281L293.458 57.3401ZM327.88 57.3401L321.903 57.3401L321.903 53.7673C320.91 55.1567 319.735 56.195 318.376 56.882C317.032 57.5539 315.673 57.8898 314.299 57.8898C311.505 57.8898 309.108 56.7675 307.108 54.5231C305.123 52.2634 304.13 49.1181 304.13 45.0872C304.13 40.9648 305.1 37.8347 307.039 35.6972C308.978 33.5443 311.429 32.4679 314.391 32.4679C317.108 32.4679 319.46 33.5978 321.445 35.8575L321.445 23.7649L327.88 23.7649L327.88 57.3401ZM310.703 44.6521C310.703 47.2477 311.062 49.1257 311.78 50.2861C312.818 51.9656 314.269 52.8054 316.131 52.8054C317.612 52.8054 318.872 52.1794 319.91 50.9274C320.948 49.6601 321.468 47.7745 321.468 45.2704C321.468 42.4763 320.964 40.4685 319.956 39.2471C318.948 38.0103 317.658 37.392 316.085 37.392C314.559 37.392 313.276 38.0027 312.238 39.2242C311.215 40.4304 310.703 42.2397 310.703 44.6521Z" fill="#1D1D1D"/>
</svg>
