<svg width="338" height="83" viewBox="0 0 338 83" fill="none" xmlns="http://www.w3.org/2000/svg">
<rect x="38.1172" y="35.6442" width="11.7123" height="35.1368" fill="#FE6E00"/>
<rect x="38.1172" y="12.2192" width="11.7123" height="11.7123" fill="#FE8D18"/>
<rect x="14.6934" y="12.2192" width="11.7123" height="35.1368" fill="#FE6E00"/>
<rect x="38.1172" y="59.0692" width="11.7123" height="11.7123" fill="#FE8D18"/>
<rect x="38.1172" y="59.0692" width="11.7123" height="11.7123" fill="#FF8500"/>
<rect x="61.541" y="12.2192" width="11.7123" height="11.7123" fill="#FE8D18"/>
<rect x="61.541" y="35.6442" width="11.7123" height="11.7123" fill="#FE8D18"/>
<rect x="38.1172" y="12.2192" width="11.7123" height="11.7123" fill="#FF7D0D" fill-opacity="0.5"/>
<rect x="26.4043" y="12.2192" width="11.7123" height="11.7123" fill="#FF6D01" fill-opacity="0.18"/>
<rect x="26.4043" y="59.0692" width="11.7123" height="11.7123" fill="#FF6D01" fill-opacity="0.18"/>
<rect x="49.8301" y="12.2192" width="11.7123" height="11.7123" fill="#FE8D18"/>
<rect x="49.8301" y="35.6442" width="11.7123" height="11.7123" fill="#FE8D18"/>
<rect x="38.1172" y="35.6442" width="11.7123" height="11.7123" fill="#FE8D18"/>
<rect x="14.6934" y="59.0692" width="11.7123" height="11.7123" fill="#FE6E00"/>
<rect x="61.541" y="59.0692" width="11.7123" height="11.7123" fill="#FF6D01" fill-opacity="0.18"/>
<rect x="61.541" y="23.9326" width="11.7123" height="11.7123" fill="#FF6D01" fill-opacity="0.18"/>
<rect x="26.4043" y="35.6442" width="11.7123" height="11.7123" fill="#FE6E00"/>
<rect x="38.1172" y="35.6442" width="11.7123" height="11.7123" fill="#FF8500"/>
<rect x="38.1172" y="12.2192" width="11.7123" height="11.7123" fill="#FF8500"/>
<path d="M-2.9725e-06 68.0029L5.77343 68.0029L5.77343 77.5508L19.1172 77.5508L19.1172 83L-3.62805e-06 83L-2.9725e-06 68.0029ZM87.9453 83L68.833 83L68.833 77.5508L82.1719 77.5508L82.1719 68.0029L87.9453 68.0029L87.9453 83ZM87.9453 14.9941L82.1719 14.9941L82.1719 5.44825L68.833 5.44825L68.833 0.000979571L19.1172 0.000977398L19.1172 5.44824L5.77344 5.44824L5.77344 14.9941L-6.55415e-07 14.9941L0 0L87.9453 3.84421e-06L87.9453 14.9941Z" fill="url(#paint0_linear_407_174624)"/>
<path d="M147.817 55.9814C144.302 55.9814 141.345 55.204 138.945 53.6492C136.545 52.0605 134.855 49.9142 133.875 47.2102L139.857 43.7118C141.243 47.3285 143.964 49.1368 148.02 49.1368C149.981 49.1368 151.417 48.7819 152.33 48.0721C153.242 47.3623 153.699 46.4665 153.699 45.3849C153.699 44.1343 153.141 43.171 152.026 42.495C150.91 41.7851 148.916 41.0246 146.043 40.2134C144.454 39.7402 143.102 39.267 141.987 38.7938C140.905 38.3206 139.807 37.6953 138.691 36.9179C137.61 36.1066 136.781 35.0926 136.207 33.8758C135.632 32.659 135.345 31.2393 135.345 29.6169C135.345 26.4058 136.477 23.8539 138.742 21.9611C141.04 20.0344 143.795 19.0711 147.006 19.0711C149.879 19.0711 152.397 19.7809 154.561 21.2005C156.758 22.5864 158.465 24.5299 159.681 27.0312L153.8 30.4281C152.38 27.3861 150.116 25.865 147.006 25.865C145.553 25.865 144.404 26.203 143.559 26.8791C142.747 27.5213 142.342 28.3663 142.342 29.4141C142.342 30.5295 142.798 31.4421 143.711 32.152C144.657 32.828 146.448 33.5716 149.085 34.3828C150.167 34.7208 150.978 34.9912 151.519 35.194C152.093 35.363 152.854 35.6503 153.8 36.0559C154.78 36.4277 155.524 36.7826 156.031 37.1207C156.572 37.4587 157.18 37.915 157.856 38.4896C158.532 39.0642 159.039 39.6557 159.377 40.2641C159.749 40.8725 160.053 41.6161 160.29 42.495C160.56 43.34 160.695 44.2695 160.695 45.2835C160.695 48.5622 159.496 51.1648 157.096 53.0915C154.73 55.0181 151.637 55.9814 147.817 55.9814ZM177.715 55.9814C173.895 55.9814 170.701 54.697 168.132 52.1281C165.597 49.5593 164.33 46.382 164.33 42.5964C164.33 38.8107 165.597 35.6334 168.132 33.0646C170.701 30.4957 173.895 29.2113 177.715 29.2113C180.182 29.2113 182.43 29.8028 184.458 30.9858C186.486 32.1689 188.024 33.7575 189.072 35.7517L183.444 39.0473C182.937 37.9995 182.16 37.1714 181.112 36.5629C180.098 35.9545 178.948 35.6503 177.664 35.6503C175.704 35.6503 174.081 36.3094 172.797 37.6277C171.512 38.9121 170.87 40.5683 170.87 42.5964C170.87 44.5906 171.512 46.2468 172.797 47.5651C174.081 48.8495 175.704 49.4917 177.664 49.4917C178.982 49.4917 180.148 49.2044 181.162 48.6298C182.21 48.0214 182.988 47.1933 183.495 46.1454L189.173 49.3903C188.058 51.3845 186.486 52.9901 184.458 54.2069C182.43 55.3899 180.182 55.9814 177.715 55.9814ZM211.503 29.9211L218.043 29.9211L218.043 55.2716L211.503 55.2716L211.503 52.2803C209.542 54.7477 206.787 55.9814 203.238 55.9814C199.858 55.9814 196.951 54.697 194.518 52.1281C192.118 49.5255 190.918 46.3482 190.918 42.5964C190.918 38.8445 192.118 35.6841 194.518 33.1153C196.951 30.5126 199.858 29.2113 203.238 29.2113C206.787 29.2113 209.542 30.445 211.503 32.9125L211.503 29.9211ZM199.436 47.7679C200.754 49.0861 202.427 49.7452 204.455 49.7452C206.483 49.7452 208.156 49.0861 209.475 47.7679C210.827 46.4158 211.503 44.692 211.503 42.5964C211.503 40.5007 210.827 38.7938 209.475 37.4756C208.156 36.1235 206.483 35.4475 204.455 35.4475C202.427 35.4475 200.754 36.1235 199.436 37.4756C198.118 38.7938 197.458 40.5007 197.458 42.5964C197.458 44.692 198.118 46.4158 199.436 47.7679ZM238.069 29.2113C240.84 29.2113 243.122 30.1408 244.913 31.9999C246.739 33.8589 247.651 36.4277 247.651 39.7064L247.651 55.2716L241.111 55.2716L241.111 40.5176C241.111 38.8276 240.654 37.5432 239.742 36.6644C238.829 35.7517 237.612 35.2954 236.091 35.2954C234.401 35.2954 233.049 35.8193 232.035 36.8672C231.021 37.915 230.514 39.4867 230.514 41.5823L230.514 55.2716L223.974 55.2716L223.974 29.9211L230.514 29.9211L230.514 32.7604C232.103 30.3943 234.621 29.2113 238.069 29.2113ZM266.773 19.7809C270.187 19.7809 273.06 20.9301 275.392 23.2286C277.724 25.527 278.891 28.3494 278.891 31.6957C278.891 35.0419 277.724 37.8643 275.392 40.1627C273.06 42.4612 270.187 43.6104 266.773 43.6104L260.537 43.6104L260.537 55.2716L253.54 55.2716L253.54 19.7809L266.773 19.7809ZM266.773 37.07C268.26 37.07 269.494 36.563 270.474 35.5489C271.454 34.5011 271.944 33.2167 271.944 31.6957C271.944 30.1408 271.454 28.8564 270.474 27.8424C269.494 26.8284 268.26 26.3214 266.773 26.3214L260.537 26.3214L260.537 37.07L266.773 37.07ZM300.724 29.9211L307.265 29.9211L307.265 55.2716L300.724 55.2716L300.724 52.2803C298.764 54.7477 296.009 55.9814 292.46 55.9814C289.08 55.9814 286.173 54.697 283.74 52.1282C281.34 49.5255 280.14 46.3482 280.14 42.5964C280.14 38.8445 281.34 35.6841 283.74 33.1153C286.173 30.5126 289.08 29.2113 292.46 29.2113C296.009 29.2113 298.764 30.445 300.724 32.9125L300.724 29.9211ZM288.658 47.7679C289.976 49.0861 291.649 49.7452 293.677 49.7452C295.705 49.7452 297.378 49.0861 298.696 47.7679C300.048 46.4158 300.724 44.692 300.724 42.5964C300.724 40.5007 300.048 38.7938 298.696 37.4756C297.378 36.1235 295.705 35.4475 293.677 35.4475C291.649 35.4475 289.976 36.1235 288.658 37.4756C287.339 38.7938 286.68 40.5007 286.68 42.5964C286.68 44.692 287.339 46.4158 288.658 47.7679ZM329.724 29.9211L336.721 29.9211L327.493 55.2716C326.175 58.9221 324.417 61.5585 322.22 63.181C320.057 64.8372 317.353 65.5808 314.108 65.4118L314.108 59.3277C315.866 59.3615 317.252 58.9897 318.266 58.2123C319.314 57.4349 320.142 56.1842 320.75 54.4604L310.356 29.9211L317.505 29.9211L324.096 46.9567L329.724 29.9211Z" fill="#1D1D1D"/>
<defs>
<linearGradient id="paint0_linear_407_174624" x1="43.9727" y1="26.1533" x2="43.9727" y2="58.3874" gradientUnits="userSpaceOnUse">
<stop stop-color="#FE8D18"/>
<stop offset="1" stop-color="#FE6E00"/>
</linearGradient>
</defs>
</svg>
