<svg width="332" height="65" viewBox="0 0 332 65" fill="none" xmlns="http://www.w3.org/2000/svg">
<path d="M83.9316 17.8019C88.1536 17.8021 90.6137 22.5701 88.167 26.0109L64.6279 59.1124C62.1906 62.5398 58.2446 64.5753 54.039 64.5753L12.8925 64.5753C10.7818 64.575 9.55214 62.1911 10.7753 60.4708L17.8642 50.5021L51.0859 50.5021C52.0068 50.502 52.8709 50.0571 53.4062 49.3077L65.2021 32.7941C65.8757 31.8505 65.2013 30.5406 64.042 30.5402L32.0605 30.5402L39.5644 19.9874C40.5393 18.6164 42.1175 17.8019 43.7998 17.8019L83.9316 17.8019ZM23.9257 32.0743C23.2516 33.0181 23.9271 34.3292 25.0869 34.3292L57.0732 34.3292L49.5693 44.882C48.5945 46.2528 47.0161 47.0674 45.3339 47.0675L5.20211 47.0675C3.84593 47.0675 2.6725 46.574 1.78414 45.7921L29.249 44.6866C29.2497 44.6844 29.3586 44.335 29.249 44.3263C29.249 44.3263 14.6359 43.8165 7.8066 43.5236L0.17574 43.1954C0.0251526 42.6344 -0.0327123 42.0467 0.013631 41.4552L32.4775 40.1652L32.4775 39.8341C22.6392 39.4003 11.7409 38.8673 1.3066 38.379L2.40328 36.837L35.8339 35.5118C35.8339 35.5118 35.8339 35.3186 35.8339 35.2179C25.8067 34.5733 15.0538 34.2271 4.53414 33.8409L5.67965 32.2296L24.373 31.4474L23.9257 32.0743ZM25.4755 29.9034L7.85738 29.1681L8.97164 27.6007L27.6533 26.8546L25.4755 29.9034ZM28.8837 25.1329C22.9846 24.8838 17.0775 24.7066 11.1738 24.504L12.2744 22.9562L30.9648 22.2189L28.8837 25.1329ZM32.1035 20.6251L14.4882 19.8429L15.5468 18.3536L34.2783 17.5812L32.1035 20.6251ZM76.2402 0.293094C78.3512 0.293181 79.5807 2.67717 78.3574 4.39759L71.2675 14.3673L38.042 14.3673C37.121 14.3674 36.2569 14.8123 35.7216 15.5616L35.3642 16.0616L17.7285 15.2872L18.8603 13.6945L52.1923 12.3116L52.1923 11.9933L51.5166 11.9357C51.5166 11.9357 46.9058 11.7946 44.6972 11.6993C36.8145 11.3612 28.9298 10.9858 21.0468 10.6202L22.1377 9.08606C26.8213 8.86505 31.5032 8.64314 36.1836 8.44837L55.4961 7.63196L55.4961 7.38782C55.4626 7.38617 51.1831 7.17617 50.374 7.1388C41.6974 6.73982 33.0263 6.34071 24.3652 5.95422L24.5058 5.75696C24.834 5.2954 25.1894 4.85885 25.5693 4.44934C35.7329 4.02566 45.9063 3.60322 56.0498 3.17688C56.9786 3.13856 58.8233 3.07981 58.8418 3.07923L58.8349 2.78333L58.8339 2.78333C58.8339 2.78333 57.5151 2.71029 56.8593 2.67786C47.8775 2.22755 38.8704 1.79633 29.8681 1.39075C31.493 0.676819 33.2689 0.293128 35.0937 0.293092L76.2402 0.293094Z" fill="url(#paint0_linear_535_286050)"/>
<path d="M138.773 45.4822C135.71 45.4822 133.195 44.8174 131.23 43.4879C129.293 42.1295 128.051 40.2942 127.502 37.982L132.921 35.2074C133.672 38.2133 135.782 39.7162 139.25 39.7162C140.84 39.7162 142.083 39.4272 142.979 38.8491C143.904 38.2711 144.453 37.5051 144.626 36.5514C144.857 35.4531 144.539 34.6005 143.672 33.9935C142.834 33.3866 141.36 32.7363 139.25 32.0426C136.418 31.0888 134.279 29.8894 132.834 28.4443C131.418 26.9702 130.941 24.9037 131.403 22.2447C131.895 19.499 133.181 17.4325 135.262 16.0451C137.372 14.6289 139.771 13.9208 142.458 13.9208C144.944 13.9208 147.068 14.5133 148.831 15.6983C150.594 16.8833 151.866 18.5452 152.647 20.684L147.401 23.4586C146.331 20.9441 144.525 19.6868 141.982 19.6868C140.768 19.6868 139.756 19.947 138.947 20.4672C138.166 20.9874 137.675 21.6956 137.473 22.5915C137.242 23.6609 137.545 24.5135 138.383 25.1494C139.221 25.7563 140.638 26.4211 142.632 27.1436C143.152 27.346 143.586 27.5049 143.932 27.6205C144.279 27.7361 144.713 27.9096 145.233 28.1408C145.753 28.3431 146.172 28.5454 146.49 28.7477C146.837 28.9211 147.227 29.1524 147.661 29.4414C148.094 29.7015 148.456 29.9761 148.745 30.2651C149.034 30.5252 149.323 30.8432 149.612 31.2189C149.93 31.5657 150.161 31.9414 150.305 32.3461C150.479 32.7507 150.623 33.1987 150.739 33.69C150.855 34.1525 150.912 34.6727 150.912 35.2508C150.912 35.8288 150.855 36.4358 150.739 37.0716C150.248 39.7884 148.918 41.8694 146.75 43.3145C144.612 44.7596 141.953 45.4822 138.773 45.4822ZM168.858 22.5915C171.286 22.5915 173.165 23.4008 174.494 25.0193C175.824 26.6379 176.243 28.82 175.751 31.5657L173.41 44.8752L167.818 44.8752L170.029 32.2594C170.289 30.7853 170.086 29.6726 169.422 28.9211C168.786 28.1697 167.818 27.794 166.517 27.794C165.187 27.794 164.017 28.1841 163.005 28.9645C162.023 29.7449 161.329 30.9154 160.924 32.4761L158.757 44.8752L153.164 44.8752L156.979 23.1985L162.572 23.1985L162.138 25.5396C163.844 23.5742 166.083 22.5915 168.858 22.5915ZM198.39 23.1985L203.983 23.1985L200.168 44.8752L194.575 44.8752L194.922 42.881C193.043 44.6151 190.644 45.4822 187.725 45.4822C184.459 45.4822 182.032 44.2827 180.442 41.8839C178.852 39.485 178.361 36.6959 178.968 33.5166C179.517 30.4241 180.904 27.8373 183.13 25.7563C185.384 23.6465 188.072 22.5915 191.194 22.5915C194.257 22.5915 196.483 23.7621 197.87 26.1032L198.39 23.1985ZM189.459 40.1497C191.136 40.1497 192.624 39.6295 193.925 38.589C195.225 37.5196 196.064 36.1178 196.439 34.3837L196.526 33.69C196.757 31.927 196.382 30.5252 195.399 29.4847C194.445 28.4443 193.145 27.924 191.497 27.924C189.792 27.924 188.289 28.4732 186.988 29.5714C185.688 30.6408 184.878 32.1149 184.561 33.9935C184.243 35.8144 184.546 37.3028 185.471 38.4589C186.396 39.5861 187.725 40.1497 189.459 40.1497ZM221.496 22.5915C224.559 22.5915 226.915 23.791 228.562 26.1899C230.239 28.5599 230.817 31.32 230.296 34.4704C229.834 37.534 228.505 40.1353 226.308 42.274C224.111 44.4128 221.452 45.4822 218.331 45.4822C215.152 45.4822 212.839 44.2683 211.394 41.8405L209.357 53.546L203.764 53.546L209.097 23.1985L214.689 23.1985L214.299 25.4529C216.207 23.5453 218.605 22.5915 221.496 22.5915ZM224.704 34.0802C225.022 32.2594 224.718 30.7853 223.793 29.6582C222.897 28.5021 221.582 27.924 219.848 27.924C218.201 27.924 216.727 28.4298 215.426 29.4414C214.154 30.453 213.302 31.7825 212.868 33.4299L212.695 34.5138C212.493 36.2479 212.883 37.6208 213.865 38.6323C214.848 39.6439 216.163 40.1497 217.811 40.1497C219.487 40.1497 220.975 39.615 222.276 38.5456C223.577 37.4473 224.386 35.9589 224.704 34.0802ZM247.376 45.4822C244.341 45.4822 241.711 44.7452 239.485 43.2712C237.26 41.7971 235.67 39.8318 234.716 37.3751C233.792 34.8895 233.575 32.1871 234.066 29.268C234.789 24.817 236.841 21.1464 240.222 18.2562C243.633 15.3659 247.564 13.9208 252.015 13.9208C254.905 13.9208 257.39 14.5567 259.471 15.8284C261.581 17.1001 263.142 18.8631 264.154 21.1175L258.691 23.9788C257.333 21.1464 254.919 19.7302 251.451 19.7302C248.561 19.7302 246.046 20.6551 243.907 22.5048C241.798 24.3546 240.497 26.7535 240.006 29.7015C239.485 32.6206 239.948 35.0051 241.393 36.8548C242.838 38.7046 244.962 39.6295 247.766 39.6295C251.523 39.6295 254.457 38.1555 256.567 35.2074L261.466 38.3722C259.818 40.5688 257.752 42.3029 255.266 43.5746C252.809 44.8463 250.179 45.4822 247.376 45.4822ZM272.847 26.6668C274.407 24.0077 276.835 22.7071 280.13 22.7649L279.046 29.0079C278.035 28.8922 277.037 28.9645 276.055 29.2246C275.101 29.4558 274.176 30.005 273.28 30.8721C272.384 31.7391 271.792 32.8808 271.503 34.297L269.638 44.8753L264.046 44.8753L267.861 23.1985L273.454 23.1985L272.847 26.6668ZM284.153 25.7563C286.61 23.6465 289.442 22.5915 292.65 22.5915C295.859 22.5915 298.387 23.7043 300.237 25.9298C302.087 28.1263 302.708 30.8287 302.101 34.0369C302.044 34.6727 301.841 35.4386 301.494 36.3346L285.107 36.3346C285.222 37.7219 285.757 38.748 286.711 39.4127C287.665 40.0775 288.864 40.4098 290.309 40.4098C292.477 40.4098 294.254 39.6728 295.642 38.1988L299.587 41.3636C297.159 44.1093 293.922 45.4822 289.876 45.4822C286.292 45.4822 283.561 44.3406 281.682 42.0573C279.832 39.774 279.182 36.956 279.731 33.6033C280.222 30.453 281.696 27.8373 284.153 25.7563ZM285.887 31.9559L296.899 31.9559C296.87 30.4819 296.422 29.398 295.555 28.7044C294.717 27.9818 293.633 27.6205 292.304 27.6205C290.858 27.6205 289.572 27.9963 288.445 28.7477C287.347 29.4992 286.494 30.5686 285.887 31.9559ZM325.864 14.5278L331.456 14.5278L326.124 44.8753L320.531 44.8753L320.878 42.7943C318.999 44.5862 316.571 45.4822 313.595 45.4822C310.329 45.4822 307.901 44.2828 306.311 41.8839C304.721 39.485 304.23 36.6959 304.837 33.5166C305.386 30.4241 306.774 27.8373 308.999 25.7563C311.253 23.6465 313.941 22.5915 317.063 22.5915C320.184 22.5915 322.439 23.791 323.826 26.1899L325.864 14.5278ZM315.372 40.1497C317.135 40.1497 318.667 39.5861 319.967 38.4589C321.297 37.3317 322.106 35.8722 322.395 34.0802C322.742 32.2016 322.439 30.7131 321.485 29.6148C320.531 28.4876 319.187 27.924 317.453 27.924C315.748 27.924 314.23 28.4732 312.901 29.5715C311.571 30.6408 310.748 32.1149 310.43 33.9935C310.112 35.8144 310.415 37.3028 311.34 38.4589C312.294 39.5861 313.638 40.1497 315.372 40.1497Z" fill="#1D1D1D"/>
<defs>
<linearGradient id="paint0_linear_535_286050" x1="44.5679" y1="20.5484" x2="44.5679" y2="45.5133" gradientUnits="userSpaceOnUse">
<stop stop-color="#FF7B00"/>
<stop offset="1" stop-color="#FF5B00"/>
</linearGradient>
</defs>
</svg>
