<svg width="251" height="252" viewBox="0 0 251 252" fill="none" xmlns="http://www.w3.org/2000/svg">
<path d="M173.606 10.3052V124.488V241.536C173.606 246.506 169.576 250.536 164.606 250.536H10.7227C5.75209 250.536 1.72266 246.506 1.72266 241.536V10.3052C1.72266 5.33461 5.7521 1.30518 10.7227 1.30518H164.606C169.576 1.30518 173.606 5.33461 173.606 10.3052Z" stroke="#282828" stroke-width="2"/>
<path d="M173.638 95.018H209.521C210.019 95.018 210.5 94.8319 210.868 94.496L226.561 80.189C226.977 79.81 227.214 79.2735 227.214 78.711V62.6405M173.638 123.568H234.263M173.638 151.06H209.505C210.013 151.06 210.502 151.254 210.872 151.601L226.582 166.329C226.985 166.707 227.214 167.235 227.214 167.788V183.135M105.082 222.284H69.8984C68.7939 222.284 67.8984 223.179 67.8984 224.284V225.898C67.8984 227.003 68.7939 227.898 69.8984 227.898H105.082C106.187 227.898 107.082 227.003 107.082 225.898V224.284C107.082 223.179 106.187 222.284 105.082 222.284Z" stroke="#282828" stroke-width="2" stroke-linecap="round" stroke-linejoin="round"/>
<path d="M136.27 155.642H39.0039C35.6902 155.642 33.0039 158.329 33.0039 161.642V191.586C33.0039 194.9 35.6902 197.586 39.0039 197.586H136.27C139.583 197.586 142.27 194.9 142.27 191.586V161.642C142.27 158.329 139.583 155.642 136.27 155.642Z" stroke="#282828" stroke-width="2"/>
<path d="M124.186 128.855H50.3835C47.404 128.855 44.9885 126.439 44.9885 123.46C44.9885 103.596 61.0914 87.4932 80.9552 87.4932H93.6142C113.478 87.4932 129.581 103.596 129.581 123.46C129.581 126.439 127.165 128.855 124.186 128.855Z" stroke="#282828" stroke-width="2"/>
<circle cx="87.665" cy="50.7832" r="26.2588" stroke="#282828" stroke-width="2"/>
<circle cx="242.007" cy="123.441" r="7.6012" stroke="#282828" stroke-width="2"/>
<circle cx="227.007" cy="54.4408" r="7.6012" stroke="#282828" stroke-width="2"/>
<circle cx="227.007" cy="191.441" r="7.6012" stroke="#282828" stroke-width="2"/>
<circle cx="53.8036" cy="175.238" r="6.08096" fill="#282828" stroke="#282828" stroke-width="2"/>
<circle cx="53.8036" cy="176.238" r="6.08096" fill="#282828" stroke="#282828" stroke-width="2"/>
<circle cx="87.6649" cy="176.238" r="6.08096" fill="#282828" stroke="#282828" stroke-width="2"/>
<circle cx="121.526" cy="176.238" r="6.08096" fill="#282828" stroke="#282828" stroke-width="2"/>
</svg>
