<svg width="327" height="74" viewBox="0 0 327 74" fill="none" xmlns="http://www.w3.org/2000/svg">
<path d="M156.923 53.5L149.164 53.5L155.621 24.0899L145.04 24.0899L146.559 17.3071L175.427 17.3071L173.962 24.0899L163.38 24.0899L156.923 53.5ZM182.747 26.6402C186.22 26.6402 189.367 28.1595 191.103 30.7641L191.809 27.2913L198.754 27.2913L192.948 53.5L186.003 53.5L186.762 50.2443C184.538 52.8489 182.042 54.1511 178.894 54.1511C172.926 54.1511 168.91 50.2443 168.91 43.2987C168.91 35.3764 173.794 26.6402 182.747 26.6402ZM183.832 32.7718C179.329 32.7718 176.127 37.0585 176.127 41.8879C176.127 45.632 178.623 48.0195 181.933 48.0195C184.375 48.0195 186.545 46.7172 187.956 44.9266L189.964 35.8105C188.824 34.0741 186.6 32.7718 183.832 32.7718ZM215.789 54.1512C212.208 54.1512 209.169 52.6318 207.433 50.0272L204.449 63.4843L197.557 63.4843L205.588 27.2913L212.479 27.2913L211.72 30.5471C213.944 27.9425 216.495 26.6402 219.642 26.6402C225.502 26.6402 229.572 30.5471 229.572 37.4926C229.572 45.3607 224.688 54.1512 215.789 54.1512ZM214.65 48.0195C219.208 48.0195 222.355 43.7328 222.355 38.9035C222.355 35.1594 219.859 32.7718 216.549 32.7718C214.107 32.7718 211.991 34.1284 210.526 35.919L208.518 45.0351C209.658 46.7715 211.882 48.0195 214.65 48.0195ZM239.285 53.5L231.58 53.5L239.557 17.3071L255.455 17.3071C262.13 17.3071 266.199 21.8651 266.199 27.3456C266.199 32.7176 262.564 40.6399 251.223 40.6398L242.161 40.6398L239.285 53.5ZM243.626 33.8571L251.711 33.8571C255.564 33.8571 258.114 31.361 258.114 28.1595C258.114 25.772 256.324 24.0899 253.611 24.0899L245.797 24.0899L243.626 33.8571ZM278.978 26.6402C282.451 26.6402 285.598 28.1595 287.334 30.7641L288.04 27.2913L294.985 27.2913L289.179 53.5L282.233 53.5L282.993 50.2443C280.768 52.8489 278.272 54.1512 275.125 54.1512C269.156 54.1512 265.141 50.2443 265.141 43.2987C265.141 35.3764 270.024 26.6402 278.978 26.6402ZM280.063 32.7718C275.559 32.7718 272.358 37.0585 272.358 41.8879C272.358 45.632 274.854 48.0195 278.164 48.0195C280.606 48.0195 282.776 46.7172 284.187 44.9266L286.195 35.8105C285.055 34.0741 282.83 32.7718 280.063 32.7718ZM292.92 63.4843L295.199 57.5154C295.796 57.7867 296.881 57.9495 297.858 57.9495C299.268 57.9495 300.191 57.4612 301.113 56.1046L302.741 53.6628L298.075 27.2913L305.237 27.2913L308.005 45.5235L318.966 27.2913L326.562 27.2913L307.462 57.7867C304.586 62.4533 301.656 64.1354 297.315 64.1354C295.796 64.1354 294.168 63.9184 292.92 63.4843Z" fill="#1D1D1D"/>
<path d="M66.6514 7.60913C67.299 7.60952 67.7344 8.39795 67.7344 9.04566L67.7344 23.8347C67.7342 24.7834 67.1859 25.629 66.4434 26.2195C64.5621 27.7156 63.3555 30.0235 63.3555 32.614C63.3556 37.125 67.0124 40.7819 71.5234 40.782C74.2212 40.782 76.6126 39.4733 78.0996 37.4568C78.6883 36.6585 79.5628 36.0614 80.5547 36.0613L94.3213 36.0613C95.028 36.0613 95.9658 36.5402 95.9658 37.2468L95.9658 65.575C95.9658 68.5993 93.5136 71.0515 90.4893 71.0515L5.47656 71.0515C2.45218 71.0515 -2.66597e-06 68.5993 -2.53377e-06 65.575L-2.39388e-07 13.0857C-1.07188e-07 10.0613 2.45218 7.60913 5.47656 7.60913L66.6514 7.60913ZM10.2422 56.2527C9.41171 56.2527 8.73848 56.9262 8.73828 57.7566L8.73828 57.8347C8.73839 58.6652 9.41166 59.3386 10.2422 59.3386L24.1855 59.3386C25.016 59.3385 25.6893 58.6652 25.6895 57.8347L25.6895 57.7566C25.6892 56.9262 25.016 56.2528 24.1855 56.2527L10.2422 56.2527ZM31.1602 56.2527C30.3296 56.2527 29.6564 56.9261 29.6562 57.7566L29.6562 57.8347C29.6564 58.6653 30.3296 59.3386 31.1602 59.3386L45.1035 59.3386C45.934 59.3385 46.6073 58.6652 46.6074 57.8347L46.6074 57.7566C46.6072 56.9262 45.9339 56.2528 45.1035 56.2527L31.1602 56.2527ZM52.0781 56.2527C51.2476 56.2527 50.5744 56.9261 50.5742 57.7566L50.5742 57.8347C50.5743 58.6653 51.2475 59.3386 52.0781 59.3386L66.0215 59.3386C66.8519 59.3384 67.5253 58.6651 67.5254 57.8347L67.5254 57.7566C67.5252 56.9262 66.8518 56.2529 66.0215 56.2527L52.0781 56.2527ZM72.9961 56.2527C72.1656 56.2527 71.4924 56.9262 71.4922 57.7566L71.4922 57.8347C71.4923 58.6652 72.1656 59.3386 72.9961 59.3386L86.9395 59.3386C87.7699 59.3385 88.4432 58.6652 88.4434 57.8347L88.4434 57.7566C88.4432 56.9262 87.7699 56.2528 86.9395 56.2527L72.9961 56.2527ZM12.6582 16.3767C10.9475 16.3769 9.56072 17.7636 9.56055 19.4744L9.56055 28.4705C9.56055 30.1813 10.9474 31.5679 12.6582 31.5681L29.3125 31.5681C31.0235 31.5681 32.4111 30.1815 32.4111 28.4705L32.4111 19.4744C32.411 17.7635 31.0234 16.3767 29.3125 16.3767L12.6582 16.3767Z" fill="url(#paint0_linear_505_241377)"/>
<path d="M101.547 34.1518C101.547 29.9803 100.725 25.8497 99.1288 21.9957C97.5325 18.1417 95.1926 14.6399 92.2429 11.6902C89.2932 8.74045 85.7914 6.40062 81.9374 4.80425C78.0834 3.20787 73.9528 2.38623 69.7812 2.38623L69.7812 8.1039C73.2019 8.1039 76.5891 8.77765 79.7494 10.0867C82.9096 11.3957 85.7811 13.3144 88.1999 15.7332C90.6187 18.1519 92.5374 21.0234 93.8464 24.1837C95.1554 27.344 95.8292 30.7312 95.8292 34.1518L101.547 34.1518Z" fill="#FE6E00"/>
<path d="M93.4227 34.1529C93.4227 31.0482 92.8111 27.9738 91.623 25.1055C90.4349 22.2371 88.6935 19.6308 86.4981 17.4354C84.3027 15.2401 81.6964 13.4986 78.8281 12.3105C75.9597 11.1224 72.8854 10.5109 69.7807 10.5109L69.7807 16.2011C72.1381 16.2011 74.4725 16.6655 76.6505 17.5676C78.8285 18.4698 80.8075 19.7921 82.4745 21.4591C84.1414 23.126 85.4637 25.105 86.3659 27.283C87.2681 29.461 87.7324 31.7954 87.7324 34.1529L93.4227 34.1529Z" fill="#FE6E00"/>
<path d="M85.3677 34.1797C85.3677 32.1339 84.9648 30.1082 84.1819 28.2181C83.399 26.3281 82.2515 24.6107 80.8049 23.1641C79.3583 21.7175 77.641 20.57 75.7509 19.7872C73.8609 19.0043 71.8351 18.6013 69.7893 18.6013L69.7893 24.3164C71.0846 24.3164 72.3672 24.5715 73.5639 25.0672C74.7605 25.5629 75.8479 26.2894 76.7637 27.2053C77.6796 28.1212 78.4062 29.2085 78.9018 30.4052C79.3975 31.6019 79.6526 32.8845 79.6526 34.1797L85.3677 34.1797Z" fill="#FE6E00"/>
<circle cx="71.3125" cy="32.8144" r="5.3867" fill="#FE6E00"/>
<defs>
<linearGradient id="paint0_linear_505_241377" x1="47.983" y1="27.5998" x2="47.983" y2="52.2384" gradientUnits="userSpaceOnUse">
<stop stop-color="#FF7B00"/>
<stop offset="1" stop-color="#FF5B00"/>
</linearGradient>
</defs>
</svg>
