<svg width="175" height="85" viewBox="0 0 175 85" fill="none" xmlns="http://www.w3.org/2000/svg">
<path d="M9.55792 29.2295C9.92235 28.6284 10.5743 28.2612 11.2772 28.2612L25.8128 28.2612L15.4166 44.9956L-7.31481e-07 44.9956L9.55792 29.2295Z" fill="#2B7A0B"/>
<path d="M11.0945 28.2613C10.6081 28.2612 20.4471 28.2612 25.4344 28.2613C26.9862 28.2613 28.2428 29.5193 28.2428 31.0711L28.2428 72.7085L17.7301 72.7085C14.9376 72.7085 12.6804 70.4323 12.7038 67.6399L13.0117 30.8635C13.0117 30.8635 12.6342 28.2618 11.0945 28.2613Z" fill="#5BB318"/>
<path d="M58.0329 1.81508e-06L75.7516 2.58959e-06L38.7478 65.895C36.2647 70.3168 31.5918 73.0674 26.5207 73.0135C21.3095 72.9581 15.7007 72.8253 16.6055 72.5083C19.0793 71.6417 22.8449 65.5641 22.8449 65.5641L58.0329 1.81508e-06Z" fill="#7DCE13"/>
<path d="M58.4269 72.6742C52.3147 72.6742 48.374 69.3768 48.374 63.9483C48.374 57.635 53.1189 52.2869 59.593 52.2869C64.539 52.2869 68.3189 55.544 68.3189 60.9726C68.3189 62.0985 68.1179 63.4657 67.9168 64.1091L53.4808 64.1091C53.4808 64.1895 53.4808 64.471 53.4808 64.5917C53.4808 66.2403 55.2099 68.6128 58.7888 68.6128C60.4777 68.6128 62.4882 68.0901 63.6946 67.1652L65.3031 70.6636C63.4131 71.9504 60.8396 72.6742 58.4269 72.6742ZM54.0036 60.6509L63.7348 60.6509C63.7348 60.5705 63.7348 60.3292 63.7348 60.2488C63.7348 58.3186 62.3676 56.3483 59.2713 56.3483C56.5369 56.3483 54.4459 58.5197 54.0036 60.6509ZM74.9432 72.1917L69.8363 72.1917L74.1389 52.7694L79.2458 52.7694L78.6426 55.3028C80.3717 53.453 82.4627 52.2869 85.559 52.2869L84.4331 57.3536C84.1114 57.2731 83.3876 57.1123 82.5834 57.1123C80.6934 57.1123 78.8839 58.1578 77.758 59.4446L74.9432 72.1917ZM91.9266 50.6784C90.3584 50.6784 89.1922 49.5123 89.1922 48.0647C89.1922 45.853 91.0822 44.6065 92.6102 44.6065C94.2187 44.6065 95.3848 45.7726 95.3848 47.2202C95.3848 49.4319 93.4949 50.6784 91.9266 50.6784ZM89.4335 72.1917L84.3266 72.1917L88.6293 52.7694L93.7361 52.7694L89.4335 72.1917ZM100.77 72.1917L95.6635 72.1917L98.9608 57.1927L95.7439 57.1927L96.7492 52.7694L99.9259 52.7694L100.167 51.6837C101.012 47.9843 103.263 44.9684 107.647 44.9684C109.697 44.9684 111.467 45.5313 112.753 46.8583L110.22 49.834C109.657 49.271 109.014 48.9895 108.049 48.9895C106.48 48.9895 105.676 49.9546 105.274 51.7641L105.033 52.7694L109.014 52.7694L108.008 57.1927L104.068 57.1927L100.77 72.1917ZM105.36 79.5906L107.049 75.1673C107.492 75.3684 108.296 75.489 109.02 75.489C110.065 75.489 110.749 75.1271 111.432 74.1218L112.639 72.3123L109.181 52.7694L114.488 52.7694L116.539 66.2805L124.662 52.7694L130.292 52.7694L116.137 75.3684C114.006 78.8266 111.835 80.0731 108.618 80.0731C107.492 80.0731 106.285 79.9123 105.36 79.5906ZM139.086 72.6742C132.974 72.6742 129.033 69.3768 129.033 63.9483C129.033 57.635 133.778 52.2869 140.252 52.2869C145.198 52.2869 148.978 55.544 148.978 60.9726C148.978 62.0985 148.777 63.4657 148.576 64.1091L134.14 64.1091C134.14 64.1895 134.14 64.471 134.14 64.5917C134.14 66.2403 135.869 68.6128 139.448 68.6128C141.137 68.6128 143.147 68.0901 144.353 67.1652L145.962 70.6636C144.072 71.9504 141.498 72.6742 139.086 72.6742ZM134.662 60.6509L144.394 60.6509C144.394 60.5705 144.394 60.3292 144.394 60.2488C144.394 58.3186 143.026 56.3483 139.93 56.3483C137.196 56.3483 135.105 58.5197 134.662 60.6509ZM161.433 52.2869C164.006 52.2869 166.339 53.4128 167.625 55.343L169.797 45.3705L174.944 45.3705L168.992 72.1917L163.845 72.1917L164.408 69.779C162.76 71.7091 160.91 72.6742 158.578 72.6742C154.154 72.6742 151.179 69.779 151.179 64.6319C151.179 58.761 154.798 52.2869 161.433 52.2869ZM162.237 56.8308C158.899 56.8308 156.527 60.0075 156.527 63.5864C156.527 66.361 158.377 68.1303 160.83 68.1303C162.639 68.1303 164.248 67.1652 165.293 65.8382L166.781 59.0827C165.936 57.7959 164.288 56.8308 162.237 56.8308Z" fill="#7DCE13"/>
</svg>
