<svg width="19" height="19" viewBox="0 0 19 19" fill="none" xmlns="http://www.w3.org/2000/svg">
<path d="M5.50342 1.1377C6.23056 2.19592 6.95488 3.25121 7.6792 4.30664C8.40967 5.37105 9.14 6.4364 9.87354 7.50391L9.87842 7.50977L9.88232 7.51562C9.89397 7.53115 9.90507 7.54819 9.92822 7.58203C9.94875 7.61204 9.97665 7.65062 10.0093 7.69141L10.2827 8.03418L10.5698 7.70215C10.8677 7.35661 11.1652 7.00995 11.4517 6.67578L11.4526 6.67676C12.2396 5.7646 13.0262 4.85159 13.812 3.9375L16.1646 1.18848L16.1694 1.18359C16.1926 1.15529 16.205 1.14902 16.2085 1.14746C16.2133 1.14532 16.2315 1.13777 16.2798 1.1377C16.4574 1.14249 16.637 1.14228 16.8188 1.1416C14.7775 3.52033 12.7417 5.87915 10.7202 8.24121L10.5493 8.44043L10.6851 8.66504C10.7275 8.73583 10.7704 8.79276 10.8042 8.83789V8.83887C13.037 12.0907 15.272 15.3545 17.5161 18.6084H13.0991C11.5372 16.3598 9.98707 14.0993 8.43604 11.8379H8.43506C8.41056 11.8018 8.38392 11.7698 8.36963 11.7529C8.35145 11.7314 8.34153 11.7193 8.33154 11.7061L8.07861 11.3691L7.78174 11.667C7.71427 11.7345 7.66085 11.801 7.62061 11.8535L3.83838 16.2559C3.48689 16.6669 3.13239 17.081 2.77783 17.4951C2.45918 17.8673 2.1403 18.2402 1.82373 18.6104C1.61641 18.6141 1.41078 18.617 1.20654 18.6182L1.95947 17.7314L7.50439 11.2803L7.51318 11.2705L7.52002 11.2607C7.55696 11.2115 7.57901 11.1832 7.60596 11.1562L7.81982 10.9424L7.64795 10.6924C5.46158 7.51425 3.28697 4.33653 1.09131 1.1377H5.50342ZM2.23779 2.15625C2.25612 2.18373 2.27044 2.20697 2.28369 2.22949L2.3335 2.31152L2.33838 2.31836L13.2388 17.9297C13.2926 18.0114 13.3666 18.0906 13.4722 18.1455C13.5816 18.2022 13.6932 18.2168 13.7876 18.2168H15.8628C15.9118 18.2168 15.9604 18.21 15.978 18.208C16.0012 18.2054 16.0149 18.2041 16.0298 18.2041H16.7388L16.3267 17.6279C16.3008 17.5917 16.28 17.5604 16.2593 17.5293L16.1909 17.4307L8.20752 6.00293H8.20654C7.72978 5.32354 7.25293 4.64079 6.77588 3.95801L5.34424 1.91211L5.3374 1.90234L5.33057 1.89355L5.26807 1.82227C5.24386 1.79689 5.21655 1.77049 5.18701 1.74609C5.15746 1.72169 5.11812 1.69241 5.0708 1.66797C5.02834 1.64604 4.95635 1.61647 4.86572 1.61426L4.8667 1.61328C4.09677 1.58922 3.33959 1.58984 2.5415 1.58984H1.86084L2.23779 2.15625Z" fill="#A8A8A8" stroke="#A8A8A8" stroke-width="0.729004"/>
</svg>
