<svg width="359" height="1061" viewBox="0 0 359 1061" fill="none" xmlns="http://www.w3.org/2000/svg">
<mask id="path-1-outside-1_220_3" maskUnits="userSpaceOnUse" x="0.0625" y="0.789062" width="359" height="1060" fill="black">
<rect fill="white" x="0.0625" y="0.789062" width="359" height="1060"/>
<path d="M228.967 48.3027C230.807 49.9715 233.202 50.8965 235.686 50.8965H337.939C348.985 50.8965 357.939 59.8508 357.939 70.8965V1039.25C357.939 1050.29 348.985 1059.25 337.939 1059.25H21.0625C10.0168 1059.25 1.0625 1050.29 1.0625 1039.25V21.7891C1.0625 10.7434 10.0168 1.78906 21.0625 1.78906H169.968C174.936 1.78906 179.726 3.63781 183.405 6.97533L228.967 48.3027Z"/>
</mask>
<path d="M228.967 48.3027L229.639 47.5621L229.639 47.562L228.967 48.3027ZM337.939 1059.25L337.939 1060.25L337.939 1060.25L337.939 1059.25ZM183.405 6.97533L184.077 6.23465L183.405 6.97533ZM228.967 48.3027L228.295 49.0434C230.319 50.879 232.953 51.8965 235.686 51.8965V50.8965V49.8965C233.45 49.8965 231.295 49.0641 229.639 47.5621L228.967 48.3027ZM235.686 50.8965V51.8965H337.939V50.8965V49.8965H235.686V50.8965ZM357.939 70.8965H356.939V1039.25H357.939H358.939V70.8965H357.939ZM357.939 1039.25H356.939C356.939 1049.74 348.433 1058.25 337.939 1058.25L337.939 1059.25L337.939 1060.25C349.537 1060.25 358.939 1050.84 358.939 1039.25H357.939ZM337.939 1059.25V1058.25H21.0625V1059.25V1060.25H337.939V1059.25ZM21.0625 1059.25V1058.25C10.5691 1058.25 2.0625 1049.74 2.0625 1039.25H1.0625H0.0625C0.0625 1050.85 9.46452 1060.25 21.0625 1060.25V1059.25ZM1.0625 1039.25H2.0625V21.7891H1.0625H0.0625V1039.25H1.0625ZM1.0625 21.7891H2.0625C2.0625 11.2957 10.5691 2.78906 21.0625 2.78906V1.78906V0.789062C9.46452 0.789062 0.0625 10.1911 0.0625 21.7891H1.0625ZM21.0625 1.78906V2.78906H169.968V1.78906V0.789062H21.0625V1.78906ZM183.405 6.97533L182.733 7.71602L228.295 49.0434L228.967 48.3027L229.639 47.562L184.077 6.23465L183.405 6.97533ZM169.968 1.78906V2.78906C174.687 2.78906 179.238 4.54537 182.733 7.71602L183.405 6.97533L184.077 6.23465C180.214 2.73024 175.184 0.789062 169.968 0.789062V1.78906ZM337.939 50.8965V51.8965C348.433 51.8965 356.939 60.4031 356.939 70.8965H357.939H358.939C358.939 59.2985 349.537 49.8965 337.939 49.8965V50.8965Z" fill="#282828" mask="url(#path-1-outside-1_220_3)"/>
<path d="M228.967 48.3027L229.639 47.5621L229.639 47.562L228.967 48.3027ZM337.939 1059.25L337.939 1060.25L337.939 1060.25L337.939 1059.25ZM183.405 6.97533L184.077 6.23465L183.405 6.97533ZM228.967 48.3027L228.295 49.0434C230.319 50.879 232.953 51.8965 235.686 51.8965V50.8965V49.8965C233.45 49.8965 231.295 49.0641 229.639 47.5621L228.967 48.3027ZM235.686 50.8965V51.8965H337.939V50.8965V49.8965H235.686V50.8965ZM357.939 70.8965H356.939V1039.25H357.939H358.939V70.8965H357.939ZM357.939 1039.25H356.939C356.939 1049.74 348.433 1058.25 337.939 1058.25L337.939 1059.25L337.939 1060.25C349.537 1060.25 358.939 1050.84 358.939 1039.25H357.939ZM337.939 1059.25V1058.25H21.0625V1059.25V1060.25H337.939V1059.25ZM21.0625 1059.25V1058.25C10.5691 1058.25 2.0625 1049.74 2.0625 1039.25H1.0625H0.0625C0.0625 1050.85 9.46452 1060.25 21.0625 1060.25V1059.25ZM1.0625 1039.25H2.0625V21.7891H1.0625H0.0625V1039.25H1.0625ZM1.0625 21.7891H2.0625C2.0625 11.2957 10.5691 2.78906 21.0625 2.78906V1.78906V0.789062C9.46452 0.789062 0.0625 10.1911 0.0625 21.7891H1.0625ZM21.0625 1.78906V2.78906H169.968V1.78906V0.789062H21.0625V1.78906ZM183.405 6.97533L182.733 7.71602L228.295 49.0434L228.967 48.3027L229.639 47.562L184.077 6.23465L183.405 6.97533ZM169.968 1.78906V2.78906C174.687 2.78906 179.238 4.54537 182.733 7.71602L183.405 6.97533L184.077 6.23465C180.214 2.73024 175.184 0.789062 169.968 0.789062V1.78906ZM337.939 50.8965V51.8965C348.433 51.8965 356.939 60.4031 356.939 70.8965H357.939H358.939C358.939 59.2985 349.537 49.8965 337.939 49.8965V50.8965Z" fill="url(#paint0_linear_220_3)" mask="url(#path-1-outside-1_220_3)"/>
<defs>
<linearGradient id="paint0_linear_220_3" x1="-27.3813" y1="248.109" x2="-163.271" y2="-165.136" gradientUnits="userSpaceOnUse">
<stop stop-color="#FE6E00" stop-opacity="0"/>
<stop offset="1" stop-color="#FE6E00"/>
</linearGradient>
</defs>
</svg>
