<svg width="330" height="530" viewBox="0 0 330 530" fill="none" xmlns="http://www.w3.org/2000/svg">
<mask id="path-1-inside-1_754_3108" fill="white">
<path d="M127.266 43.7451C129.137 45.593 131.662 46.6289 134.292 46.6289H289.243C308.099 46.6289 317.527 46.6289 323.385 52.4868C329.243 58.3446 329.243 67.7727 329.243 86.6289V499.245C329.243 515.814 315.812 529.245 299.243 529.245H30.0312C13.4627 529.245 0.03125 515.814 0.03125 499.245V30.168C0.03125 13.5994 13.4627 0.167969 30.0312 0.167969H66.7104C74.8136 0.167969 78.8653 0.167969 82.5149 1.6661C86.1646 3.16423 89.0477 6.01087 94.8139 11.7041L127.266 43.7451Z"/>
</mask>
<path d="M127.266 43.7451C129.137 45.593 131.662 46.6289 134.292 46.6289H289.243C308.099 46.6289 317.527 46.6289 323.385 52.4868C329.243 58.3446 329.243 67.7727 329.243 86.6289V499.245C329.243 515.814 315.812 529.245 299.243 529.245H30.0312C13.4627 529.245 0.03125 515.814 0.03125 499.245V30.168C0.03125 13.5994 13.4627 0.167969 30.0312 0.167969H66.7104C74.8136 0.167969 78.8653 0.167969 82.5149 1.6661C86.1646 3.16423 89.0477 6.01087 94.8139 11.7041L127.266 43.7451Z" fill="black"/>
<path d="M127.266 43.7451L126.563 44.4567V44.4567L127.266 43.7451ZM30.0312 529.245V530.245V529.245ZM82.5149 1.6661L82.8947 0.741008L82.5149 1.6661ZM323.385 52.4868L322.678 53.1939L323.385 52.4868ZM127.266 43.7451L126.563 44.4567C128.622 46.4895 131.399 47.6289 134.292 47.6289V46.6289V45.6289C131.925 45.6289 129.653 44.6965 127.968 43.0335L127.266 43.7451ZM134.292 46.6289V47.6289H289.243V46.6289V45.6289H134.292V46.6289ZM329.243 86.6289H328.243V499.245H329.243H330.243V86.6289H329.243ZM329.243 499.245H328.243C328.243 515.261 315.259 528.245 299.243 528.245V529.245V530.245C316.364 530.245 330.243 516.366 330.243 499.245H329.243ZM299.243 529.245V528.245H30.0312V529.245V530.245H299.243V529.245ZM30.0312 529.245V528.245C14.015 528.245 1.03125 515.261 1.03125 499.245H0.03125H-0.96875C-0.96875 516.366 12.9104 530.245 30.0312 530.245V529.245ZM0.03125 499.245H1.03125V30.168H0.03125H-0.96875V499.245H0.03125ZM0.03125 30.168H1.03125C1.03125 14.1517 14.015 1.16797 30.0312 1.16797V0.167969V-0.832031C12.9104 -0.832031 -0.96875 13.0471 -0.96875 30.168H0.03125ZM30.0312 0.167969V1.16797H66.7104V0.167969V-0.832031H30.0312V0.167969ZM94.8139 11.7041L94.1114 12.4157L126.563 44.4567L127.266 43.7451L127.968 43.0335L95.5165 10.9926L94.8139 11.7041ZM66.7104 0.167969V1.16797C74.8944 1.16797 78.7104 1.18538 82.1352 2.59119L82.5149 1.6661L82.8947 0.741008C79.0201 -0.849442 74.7328 -0.832031 66.7104 -0.832031V0.167969ZM94.8139 11.7041L95.5165 10.9926C89.8078 5.35604 86.7692 2.33146 82.8947 0.741008L82.5149 1.6661L82.1352 2.59119C85.5599 3.99701 88.2876 6.6657 94.1114 12.4157L94.8139 11.7041ZM289.243 46.6289V47.6289C298.7 47.6289 305.691 47.631 311.055 48.3522C316.391 49.0695 319.966 50.4817 322.678 53.1939L323.385 52.4868L324.092 51.7797C320.947 48.634 316.879 47.1172 311.322 46.3701C305.793 45.6268 298.643 45.6289 289.243 45.6289V46.6289ZM329.243 86.6289H330.243C330.243 77.2291 330.245 70.0786 329.502 64.5502C328.755 58.9931 327.238 54.9254 324.092 51.7797L323.385 52.4868L322.678 53.1939C325.39 55.906 326.803 59.4813 327.52 64.8167C328.241 70.1809 328.243 77.1725 328.243 86.6289H329.243Z" fill="#282828" mask="url(#path-1-inside-1_754_3108)"/>
<path d="M127.266 43.7451L126.563 44.4567V44.4567L127.266 43.7451ZM30.0312 529.245V530.245V529.245ZM82.5149 1.6661L82.8947 0.741008L82.5149 1.6661ZM323.385 52.4868L322.678 53.1939L323.385 52.4868ZM127.266 43.7451L126.563 44.4567C128.622 46.4895 131.399 47.6289 134.292 47.6289V46.6289V45.6289C131.925 45.6289 129.653 44.6965 127.968 43.0335L127.266 43.7451ZM134.292 46.6289V47.6289H289.243V46.6289V45.6289H134.292V46.6289ZM329.243 86.6289H328.243V499.245H329.243H330.243V86.6289H329.243ZM329.243 499.245H328.243C328.243 515.261 315.259 528.245 299.243 528.245V529.245V530.245C316.364 530.245 330.243 516.366 330.243 499.245H329.243ZM299.243 529.245V528.245H30.0312V529.245V530.245H299.243V529.245ZM30.0312 529.245V528.245C14.015 528.245 1.03125 515.261 1.03125 499.245H0.03125H-0.96875C-0.96875 516.366 12.9104 530.245 30.0312 530.245V529.245ZM0.03125 499.245H1.03125V30.168H0.03125H-0.96875V499.245H0.03125ZM0.03125 30.168H1.03125C1.03125 14.1517 14.015 1.16797 30.0312 1.16797V0.167969V-0.832031C12.9104 -0.832031 -0.96875 13.0471 -0.96875 30.168H0.03125ZM30.0312 0.167969V1.16797H66.7104V0.167969V-0.832031H30.0312V0.167969ZM94.8139 11.7041L94.1114 12.4157L126.563 44.4567L127.266 43.7451L127.968 43.0335L95.5165 10.9926L94.8139 11.7041ZM66.7104 0.167969V1.16797C74.8944 1.16797 78.7104 1.18538 82.1352 2.59119L82.5149 1.6661L82.8947 0.741008C79.0201 -0.849442 74.7328 -0.832031 66.7104 -0.832031V0.167969ZM94.8139 11.7041L95.5165 10.9926C89.8078 5.35604 86.7692 2.33146 82.8947 0.741008L82.5149 1.6661L82.1352 2.59119C85.5599 3.99701 88.2876 6.6657 94.1114 12.4157L94.8139 11.7041ZM289.243 46.6289V47.6289C298.7 47.6289 305.691 47.631 311.055 48.3522C316.391 49.0695 319.966 50.4817 322.678 53.1939L323.385 52.4868L324.092 51.7797C320.947 48.634 316.879 47.1172 311.322 46.3701C305.793 45.6268 298.643 45.6289 289.243 45.6289V46.6289ZM329.243 86.6289H330.243C330.243 77.2291 330.245 70.0786 329.502 64.5502C328.755 58.9931 327.238 54.9254 324.092 51.7797L323.385 52.4868L322.678 53.1939C325.39 55.906 326.803 59.4813 327.52 64.8167C328.241 70.1809 328.243 77.1725 328.243 86.6289H329.243Z" fill="url(#paint0_linear_754_3108)" mask="url(#path-1-inside-1_754_3108)"/>
<defs>
<linearGradient id="paint0_linear_754_3108" x1="183.966" y1="201.972" x2="0.031355" y2="24.1337" gradientUnits="userSpaceOnUse">
<stop stop-color="#FE6E00" stop-opacity="0"/>
<stop offset="1" stop-color="#FE6E00"/>
</linearGradient>
</defs>
</svg>
