<svg width="1366" height="1772" viewBox="0 0 1366 1772" fill="none" xmlns="http://www.w3.org/2000/svg">
<g filter="url(#filter0_f_63_3292)">
<path d="M447.606 180.25L474.183 153.13C476.064 151.21 478.638 150.129 481.325 150.129L643.925 150.129C649.447 150.129 653.925 154.606 653.925 160.129V288.763C653.925 291.402 652.882 293.933 651.023 295.806L620.723 326.345L589.358 357.833C587.481 359.717 584.932 360.776 582.273 360.776H421.531C416.008 360.776 411.531 356.299 411.531 350.776L411.529 221.979C411.529 219.404 412.523 216.928 414.303 215.067L447.606 180.25Z" fill="#FF5E01"/>
</g>
<path d="M481.325 150.629H643.925C649.171 150.629 653.425 154.882 653.425 160.129V288.763C653.425 291.269 652.434 293.675 650.668 295.454L620.368 325.992L589.004 357.48C587.221 359.27 584.799 360.276 582.273 360.276H421.53C416.284 360.276 412.03 356.023 412.03 350.776L412.029 221.979C412.029 219.533 412.973 217.181 414.664 215.413L447.963 180.6L447.964 180.601L474.54 153.479C476.327 151.656 478.772 150.629 481.325 150.629Z" fill="#FF5100" stroke="white"/>
<g filter="url(#filter1_f_63_3292)">
<path d="M456.355 187.981L479.898 163.956C481.779 162.037 484.353 160.955 487.04 160.955L631.468 160.955C636.99 160.955 641.468 165.432 641.468 170.955V284.917C641.468 287.555 640.425 290.087 638.566 291.96L611.679 319.059L583.839 347.009C581.962 348.892 579.413 349.951 576.754 349.951H433.988C428.465 349.951 423.988 345.474 423.988 339.951L423.986 225.833C423.986 223.258 424.98 220.782 426.76 218.921L456.355 187.981Z" fill="#FF833B"/>
</g>
<g filter="url(#filter2_d_63_3292)">
<path d="M456.355 187.981L479.898 163.956C481.779 162.037 484.353 160.955 487.04 160.955L631.468 160.955C636.99 160.955 641.468 165.432 641.468 170.955V284.917C641.468 287.555 640.425 290.087 638.566 291.96L611.679 319.059L583.839 347.009C581.962 348.892 579.413 349.951 576.754 349.951H433.988C428.465 349.951 423.988 345.474 423.988 339.951L423.986 225.833C423.986 223.258 424.98 220.782 426.76 218.921L456.355 187.981Z" fill="#FF5100"/>
<path d="M487.04 161.455H631.468C636.714 161.455 640.968 165.708 640.968 170.955V284.917C640.968 287.424 639.976 289.828 638.211 291.607L611.324 318.706L583.484 346.655C581.702 348.445 579.28 349.451 576.754 349.451H433.987C428.741 349.451 424.487 345.198 424.487 339.951L424.486 225.833C424.486 223.387 425.43 221.035 427.121 219.267L456.717 188.326L456.716 188.325L480.255 164.306C482.042 162.482 484.487 161.455 487.04 161.455Z" stroke="white"/>
</g>
<path d="M152.531 0H141.919L159.919 27.461H170.531L152.531 0Z" fill="white"/>
<path d="M138.225 0H127.613L145.613 27.461H156.225L138.225 0Z" fill="white"/>
<path d="M123.918 0H113.306L131.306 27.461H141.918L123.918 0Z" fill="white"/>
<path d="M109.611 0H98.9993L116.999 27.461H127.611L109.611 0Z" fill="white"/>
<path d="M440.5 141.5L329.177 27.7028C328.424 26.9336 327.393 26.5 326.317 26.5H165.5" stroke="white" stroke-width="2" stroke-linecap="round"/>
<path d="M1118 64H1128.61L1110.61 91.461H1100L1118 64Z" fill="white"/>
<path d="M1132.31 64H1142.92L1124.92 91.461H1114.31L1132.31 64Z" fill="white"/>
<path d="M1146.61 64H1157.23L1139.23 91.461H1128.61L1146.61 64Z" fill="white"/>
<path d="M1160.92 64H1171.53L1153.53 91.461H1142.92L1160.92 64Z" fill="white"/>
<path d="M664.5 205.479L777.326 91.6625C778.077 90.9048 779.1 90.4785 780.167 90.4785H1106.5" stroke="white" stroke-width="2" stroke-linecap="round"/>
<path d="M66.5312 300H55.9192L73.9192 327.461H84.5312L66.5312 300Z" fill="white"/>
<path d="M52.2246 300H41.6126L59.6126 327.461H70.2246L52.2246 300Z" fill="white"/>
<path d="M37.918 300H27.3059L45.3059 327.461H55.918L37.918 300Z" fill="white"/>
<path d="M23.6113 300H12.9993L30.9993 327.461H41.6113L23.6113 300Z" fill="white"/>
<path d="M401.5 267.963L252.201 326.19C251.738 326.37 251.245 326.463 250.748 326.463H80" stroke="white" stroke-width="2" stroke-linecap="round"/>
<g filter="url(#filter3_f_63_3292)">
<path d="M628.608 407.586L655.185 380.466C657.066 378.546 659.64 377.465 662.327 377.465L824.927 377.465C830.449 377.465 834.927 381.942 834.927 387.465V516.099C834.927 518.738 833.884 521.269 832.025 523.142L801.725 553.681L770.36 585.169C768.483 587.053 765.934 588.112 763.275 588.112H602.533C597.01 588.112 592.533 583.635 592.533 578.112L592.531 449.315C592.531 446.74 593.525 444.264 595.305 442.403L628.608 407.586Z" fill="#FF5E01"/>
</g>
<path d="M662.327 377.965H824.927C830.173 377.965 834.427 382.218 834.427 387.465V516.099C834.427 518.605 833.435 521.011 831.67 522.79L801.37 553.328L770.006 584.816C768.223 586.606 765.801 587.612 763.275 587.612H602.532C597.286 587.612 593.032 583.359 593.032 578.112L593.031 449.315C593.031 446.869 593.975 444.517 595.666 442.749L628.965 407.936L628.966 407.937L655.542 380.815C657.329 378.992 659.774 377.965 662.327 377.965Z" fill="#FF5100" stroke="white"/>
<g filter="url(#filter4_f_63_3292)">
<path d="M637.357 415.317L660.9 391.292C662.781 389.373 665.355 388.291 668.042 388.291L812.47 388.291C817.992 388.291 822.47 392.768 822.47 398.291V512.253C822.47 514.891 821.427 517.423 819.568 519.296L792.68 546.395L764.841 574.345C762.964 576.228 760.415 577.287 757.756 577.287H614.989C609.467 577.287 604.99 572.81 604.989 567.287L604.988 453.169C604.988 450.594 605.982 448.118 607.762 446.257L637.357 415.317Z" fill="#FF833B"/>
</g>
<g filter="url(#filter5_d_63_3292)">
<path d="M637.357 415.317L660.9 391.292C662.781 389.373 665.355 388.291 668.042 388.291L812.47 388.291C817.992 388.291 822.47 392.768 822.47 398.291V512.253C822.47 514.891 821.427 517.423 819.568 519.296L792.68 546.395L764.841 574.345C762.964 576.228 760.415 577.287 757.756 577.287H614.989C609.467 577.287 604.99 572.81 604.989 567.287L604.988 453.169C604.988 450.594 605.982 448.118 607.762 446.257L637.357 415.317Z" fill="#FF5100"/>
<path d="M668.042 388.791H812.47C817.716 388.791 821.97 393.044 821.97 398.291V512.253C821.97 514.759 820.978 517.164 819.213 518.943L792.326 546.042L764.486 573.991C762.704 575.781 760.282 576.787 757.756 576.787H614.989C609.743 576.787 605.489 572.534 605.489 567.287L605.488 453.169C605.488 450.723 606.432 448.37 608.123 446.603L637.719 415.662L637.718 415.661L661.257 391.642C663.044 389.818 665.489 388.791 668.042 388.791Z" stroke="white"/>
</g>
<path d="M166.531 477H155.919L173.919 504.461H184.531L166.531 477Z" fill="white"/>
<path d="M152.225 477H141.613L159.613 504.461H170.225L152.225 477Z" fill="white"/>
<path d="M137.918 477H127.306L145.306 504.461H155.918L137.918 477Z" fill="white"/>
<path d="M123.611 477H112.999L130.999 504.461H141.611L123.611 477Z" fill="white"/>
<path d="M581 553.465L466.26 503.794C465.759 503.577 465.218 503.465 464.671 503.465H179.406" stroke="white" stroke-width="2" stroke-linecap="round"/>
<path d="M1211.25 327H1221.86L1203.86 354.461H1193.25L1211.25 327Z" fill="white"/>
<path d="M1225.56 327H1236.17L1218.17 354.461H1207.56L1225.56 327Z" fill="white"/>
<path d="M1239.86 327H1250.48L1232.48 354.461H1221.86L1239.86 327Z" fill="white"/>
<path d="M1254.17 327H1264.78L1246.78 354.461H1236.17L1254.17 327Z" fill="white"/>
<path d="M848 468.471L960.826 354.655C961.577 353.897 962.6 353.471 963.667 353.471H1200" stroke="white" stroke-width="2" stroke-linecap="round"/>
<g filter="url(#filter6_f_63_3292)">
<path d="M777.608 672.981L804.185 645.86C806.066 643.941 808.64 642.859 811.327 642.859L973.927 642.859C979.449 642.859 983.927 647.337 983.927 652.859V781.494C983.927 784.132 982.884 786.664 981.025 788.537L950.725 819.075L919.36 850.564C917.483 852.448 914.934 853.507 912.275 853.507H751.533C746.01 853.507 741.533 849.029 741.533 843.507L741.531 714.71C741.531 712.135 742.525 709.659 744.305 707.798L777.608 672.981Z" fill="#FF5E01"/>
</g>
<path d="M811.327 643.359H973.927C979.173 643.359 983.427 647.613 983.427 652.859V781.493C983.427 784 982.435 786.405 980.67 788.185L950.37 818.723L919.006 850.211C917.223 852.001 914.801 853.007 912.275 853.007H751.532C746.286 853.007 742.032 848.753 742.032 843.507L742.031 714.71C742.031 712.264 742.975 709.911 744.666 708.144L777.965 673.33L777.966 673.331L804.542 646.21C806.329 644.387 808.774 643.359 811.327 643.359Z" fill="#FF5100" stroke="white"/>
<g filter="url(#filter7_f_63_3292)">
<path d="M786.357 680.711L809.9 656.686C811.781 654.767 814.355 653.686 817.042 653.686L961.47 653.686C966.992 653.686 971.47 658.163 971.47 663.686V777.647C971.47 780.286 970.427 782.817 968.568 784.69L941.68 811.789L913.841 839.739C911.964 841.623 909.415 842.682 906.756 842.682H763.989C758.467 842.682 753.99 838.205 753.989 832.682L753.988 718.564C753.988 715.988 754.982 713.512 756.762 711.651L786.357 680.711Z" fill="#FF833B"/>
</g>
<g filter="url(#filter8_d_63_3292)">
<path d="M786.357 680.711L809.9 656.686C811.781 654.767 814.355 653.686 817.042 653.686L961.47 653.686C966.992 653.686 971.47 658.163 971.47 663.686V777.647C971.47 780.286 970.427 782.817 968.568 784.69L941.68 811.789L913.841 839.739C911.964 841.623 909.415 842.682 906.756 842.682H763.989C758.467 842.682 753.99 838.205 753.989 832.682L753.988 718.564C753.988 715.988 754.982 713.512 756.762 711.651L786.357 680.711Z" fill="#FF5100"/>
<path d="M817.042 654.186H961.47C966.716 654.186 970.97 658.439 970.97 663.686V777.647C970.97 780.154 969.978 782.559 968.213 784.338L941.326 811.437L913.486 839.386C911.704 841.175 909.282 842.182 906.756 842.182H763.989C758.743 842.182 754.489 837.928 754.489 832.682L754.488 718.563C754.488 716.117 755.432 713.765 757.123 711.997L786.719 681.057L786.718 681.056L810.257 657.036C812.044 655.213 814.489 654.186 817.042 654.186Z" stroke="white"/>
</g>
<path d="M1311.47 757.23H1322.08L1304.08 784.691H1293.47L1311.47 757.23Z" fill="white"/>
<path d="M1325.78 757.23H1336.39L1318.39 784.691H1307.78L1325.78 757.23Z" fill="white"/>
<path d="M1340.08 757.23H1350.7L1332.7 784.691H1322.08L1340.08 757.23Z" fill="white"/>
<path d="M1354.39 757.23H1365L1347 784.691H1336.39L1354.39 757.23Z" fill="white"/>
<path d="M1000 739.955L1112.31 783.416C1112.77 783.594 1113.26 783.686 1113.75 783.686H1298.6" stroke="white" stroke-width="2" stroke-linecap="round"/>
<path d="M1280.25 506H1290.86L1272.86 533.461H1262.25L1280.25 506Z" fill="white"/>
<path d="M1294.56 506H1305.17L1287.17 533.461H1276.56L1294.56 506Z" fill="white"/>
<path d="M1308.87 506H1319.48L1301.48 533.461H1290.87L1308.87 506Z" fill="white"/>
<path d="M1323.17 506H1333.78L1315.78 533.461H1305.17L1323.17 506Z" fill="white"/>
<path d="M993.502 641.169L1099.83 533.646C1100.58 532.887 1101.6 532.459 1102.67 532.459H1269" stroke="white" stroke-width="2" stroke-linecap="round"/>
<path d="M478.533 797.049H467.921L485.921 824.51H496.533L478.533 797.049Z" fill="white"/>
<path d="M464.227 797.049H453.615L471.615 824.51H482.227L464.227 797.049Z" fill="white"/>
<path d="M449.92 797.049H439.308L457.308 824.51H467.92L449.92 797.049Z" fill="white"/>
<path d="M435.613 797.049H425.001L443.001 824.51H453.613L435.613 797.049Z" fill="white"/>
<path d="M728.002 770.031L589.696 823.264C589.237 823.441 588.75 823.531 588.259 823.531H492.002" stroke="white" stroke-width="2" stroke-linecap="round"/>
<path d="M331.533 597.047H320.921L338.921 624.508H349.533L331.533 597.047Z" fill="white"/>
<path d="M317.227 597.047H306.615L324.615 624.508H335.227L317.227 597.047Z" fill="white"/>
<path d="M302.92 597.047H292.308L310.308 624.508H320.92L302.92 597.047Z" fill="white"/>
<path d="M288.613 597.047H278.001L296.001 624.508H306.613L288.613 597.047Z" fill="white"/>
<path d="M727.502 703.516L485.111 623.716C484.708 623.583 484.285 623.516 483.86 623.516H345.002" stroke="white" stroke-width="2" stroke-linecap="round"/>
<g filter="url(#filter9_f_63_3292)">
<path d="M618.606 1070.98L645.183 1043.86C647.064 1041.94 649.638 1040.86 652.325 1040.86L814.925 1040.86C820.447 1040.86 824.925 1045.34 824.925 1050.86V1179.49C824.925 1182.13 823.882 1184.66 822.023 1186.54L791.723 1217.08L760.358 1248.56C758.481 1250.45 755.932 1251.51 753.273 1251.51H592.531C587.008 1251.51 582.531 1247.03 582.531 1241.51L582.529 1112.71C582.529 1110.13 583.523 1107.66 585.303 1105.8L618.606 1070.98Z" fill="#FF5E01"/>
</g>
<path d="M652.325 1041.36H814.925C820.171 1041.36 824.425 1045.61 824.425 1050.86V1179.49C824.425 1182 823.434 1184.41 821.668 1186.18L791.368 1216.72L760.004 1248.21C758.221 1250 755.799 1251.01 753.273 1251.01H592.53C587.284 1251.01 583.03 1246.75 583.03 1241.51L583.029 1112.71C583.029 1110.26 583.973 1107.91 585.664 1106.14L618.963 1071.33L618.964 1071.33L645.54 1044.21C647.327 1042.39 649.772 1041.36 652.325 1041.36Z" fill="#FF5100" stroke="white"/>
<g filter="url(#filter10_f_63_3292)">
<path d="M627.355 1078.71L650.898 1054.69C652.779 1052.77 655.353 1051.69 658.04 1051.69L802.468 1051.69C807.99 1051.69 812.468 1056.16 812.468 1061.69V1175.65C812.468 1178.29 811.425 1180.82 809.566 1182.69L782.679 1209.79L754.839 1237.74C752.962 1239.62 750.413 1240.68 747.754 1240.68H604.988C599.465 1240.68 594.988 1236.2 594.988 1230.68L594.986 1116.56C594.986 1113.99 595.98 1111.51 597.76 1109.65L627.355 1078.71Z" fill="#FF833B"/>
</g>
<g filter="url(#filter11_d_63_3292)">
<path d="M627.355 1078.71L650.898 1054.69C652.779 1052.77 655.353 1051.69 658.04 1051.69L802.468 1051.69C807.99 1051.69 812.468 1056.16 812.468 1061.69V1175.65C812.468 1178.29 811.425 1180.82 809.566 1182.69L782.679 1209.79L754.839 1237.74C752.962 1239.62 750.413 1240.68 747.754 1240.68H604.988C599.465 1240.68 594.988 1236.2 594.988 1230.68L594.986 1116.56C594.986 1113.99 595.98 1111.51 597.76 1109.65L627.355 1078.71Z" fill="#FF5100"/>
<path d="M658.04 1052.19H802.468C807.714 1052.19 811.968 1056.44 811.968 1061.69V1175.65C811.968 1178.15 810.976 1180.56 809.211 1182.34L782.324 1209.44L754.484 1237.39C752.702 1239.18 750.28 1240.18 747.754 1240.18H604.987C599.741 1240.18 595.487 1235.93 595.487 1230.68L595.486 1116.56C595.486 1114.12 596.43 1111.76 598.121 1110L627.717 1079.06L627.716 1079.06L651.255 1055.04C653.042 1053.21 655.487 1052.19 658.04 1052.19Z" stroke="white"/>
</g>
<path d="M1098.47 1235.23H1109.08L1091.08 1262.69H1080.47L1098.47 1235.23Z" fill="white"/>
<path d="M1112.78 1235.23H1123.39L1105.39 1262.69H1094.78L1112.78 1235.23Z" fill="white"/>
<path d="M1127.08 1235.23H1137.69L1119.69 1262.69H1109.08L1127.08 1235.23Z" fill="white"/>
<path d="M1141.39 1235.23H1152L1134 1262.69H1123.39L1141.39 1235.23Z" fill="white"/>
<path d="M787 1217.96L932.94 1261.52C933.311 1261.64 933.697 1261.69 934.084 1261.69H1085.59" stroke="white" stroke-width="2" stroke-linecap="round"/>
<path d="M1252.75 923H1263.36L1245.36 950.461H1234.75L1252.75 923Z" fill="white"/>
<path d="M1267.06 923H1277.67L1259.67 950.461H1249.06L1267.06 923Z" fill="white"/>
<path d="M1281.36 923H1291.98L1273.98 950.461H1263.36L1281.36 923Z" fill="white"/>
<path d="M1295.67 923H1306.28L1288.28 950.461H1277.67L1295.67 923Z" fill="white"/>
<path d="M850 1057.19L1072.68 949.877C1073.22 949.616 1073.81 949.48 1074.41 949.48H1241.5" stroke="white" stroke-width="2" stroke-linecap="round"/>
<path d="M53.5312 1180.05H42.9192L60.9192 1207.51H71.5312L53.5312 1180.05Z" fill="white"/>
<path d="M39.2246 1180.05H28.6126L46.6126 1207.51H57.2246L39.2246 1180.05Z" fill="white"/>
<path d="M24.918 1180.05H14.3059L32.3059 1207.51H42.918L24.918 1180.05Z" fill="white"/>
<path d="M10.6113 1180.05H-0.000724792L17.9993 1207.51H28.6113L10.6113 1180.05Z" fill="white"/>
<path d="M565.5 1148.5L414.691 1206.24C414.234 1206.41 413.749 1206.5 413.26 1206.5H67" stroke="white" stroke-width="2" stroke-linecap="round"/>
<path d="M1070.97 1074H1081.58L1063.58 1101.46H1052.97L1070.97 1074Z" fill="white"/>
<path d="M1085.28 1074H1095.89L1077.89 1101.46H1067.28L1085.28 1074Z" fill="white"/>
<path d="M1099.58 1074H1110.19L1092.19 1101.46H1081.58L1099.58 1074Z" fill="white"/>
<path d="M1113.89 1074H1124.5L1106.5 1101.46H1095.89L1113.89 1074Z" fill="white"/>
<path d="M841 1145.46L959.819 1100.72C960.269 1100.55 960.747 1100.46 961.228 1100.46H1057.5" stroke="white" stroke-width="2" stroke-linecap="round"/>
<path d="M80.5332 980.047H69.9212L87.9211 1007.51H98.5332L80.5332 980.047Z" fill="white"/>
<path d="M66.2266 980.047H55.6145L73.6145 1007.51H84.2266L66.2266 980.047Z" fill="white"/>
<path d="M51.9199 980.047H41.3079L59.3079 1007.51H69.9199L51.9199 980.047Z" fill="white"/>
<path d="M37.6133 980.047H27.0012L45.0012 1007.51H55.6133L37.6133 980.047Z" fill="white"/>
<path d="M562 1093.03L295.101 1006.73C294.703 1006.6 294.288 1006.53 293.87 1006.53H94" stroke="white" stroke-width="2" stroke-linecap="round"/>
<path d="M319.531 865H308.919L326.919 892.461H337.531L319.531 865Z" fill="white"/>
<path d="M305.225 865H294.613L312.613 892.461H323.225L305.225 865Z" fill="white"/>
<path d="M290.918 865H280.306L298.306 892.461H308.918L290.918 865Z" fill="white"/>
<path d="M276.611 865H265.999L283.999 892.461H294.611L276.611 865Z" fill="white"/>
<path d="M617.406 1006.47L506.083 892.672C505.33 891.902 504.3 891.469 503.224 891.469H332.406" stroke="white" stroke-width="2" stroke-linecap="round"/>
<g filter="url(#filter12_f_63_3292)">
<path d="M461.077 1338.12L487.654 1311C489.534 1309.08 492.109 1308 494.796 1308L657.395 1308C662.918 1308 667.395 1312.48 667.395 1318V1446.63C667.395 1449.27 666.352 1451.8 664.494 1453.68L634.194 1484.22L602.829 1515.7C600.952 1517.59 598.403 1518.65 595.744 1518.65H435.001C429.479 1518.65 425.001 1514.17 425.001 1508.65L425 1379.85C425 1377.28 425.994 1374.8 427.774 1372.94L461.077 1338.12Z" fill="#FF5E01"/>
</g>
<path d="M494.796 1308.5H657.396C662.642 1308.5 666.896 1312.75 666.896 1318V1446.63C666.896 1449.14 665.904 1451.55 664.139 1453.33L633.839 1483.86L602.475 1515.35C600.692 1517.14 598.27 1518.15 595.744 1518.15H435.001C429.755 1518.15 425.501 1513.89 425.501 1508.65L425.5 1379.85C425.5 1377.4 426.444 1375.05 428.135 1373.28L461.434 1338.47L461.435 1338.47L488.011 1311.35C489.798 1309.53 492.243 1308.5 494.796 1308.5Z" fill="#FF5100" stroke="white"/>
<g filter="url(#filter13_f_63_3292)">
<path d="M469.826 1345.85L493.369 1321.83C495.249 1319.91 497.824 1318.83 500.511 1318.83L644.938 1318.83C650.461 1318.83 654.938 1323.3 654.938 1328.83V1442.79C654.938 1445.43 653.895 1447.96 652.037 1449.83L625.149 1476.93L597.309 1504.88C595.433 1506.76 592.883 1507.82 590.224 1507.82H447.458C441.935 1507.82 437.458 1503.35 437.458 1497.82L437.457 1383.7C437.457 1381.13 438.451 1378.65 440.231 1376.79L469.826 1345.85Z" fill="#FF833B"/>
</g>
<g filter="url(#filter14_d_63_3292)">
<path d="M469.826 1345.85L493.369 1321.83C495.249 1319.91 497.824 1318.83 500.511 1318.83L644.938 1318.83C650.461 1318.83 654.938 1323.3 654.938 1328.83V1442.79C654.938 1445.43 653.895 1447.96 652.037 1449.83L625.149 1476.93L597.309 1504.88C595.433 1506.76 592.883 1507.82 590.224 1507.82H447.458C441.935 1507.82 437.458 1503.35 437.458 1497.82L437.457 1383.7C437.457 1381.13 438.451 1378.65 440.231 1376.79L469.826 1345.85Z" fill="#FF5100"/>
<path d="M500.511 1319.33H644.938C650.185 1319.33 654.438 1323.58 654.438 1328.83V1442.79C654.438 1445.29 653.447 1447.7 651.682 1449.48L624.795 1476.58L596.955 1504.53C595.172 1506.32 592.751 1507.32 590.225 1507.32H447.458C442.211 1507.32 437.958 1503.07 437.958 1497.82L437.957 1383.7C437.957 1381.26 438.901 1378.91 440.592 1377.14L470.188 1346.2L470.187 1346.2L493.726 1322.18C495.512 1320.35 497.958 1319.33 500.511 1319.33Z" stroke="white"/>
</g>
<g filter="url(#filter15_f_63_3292)">
<path d="M633.604 1564.98L660.181 1537.86C662.062 1535.94 664.636 1534.86 667.323 1534.86L829.923 1534.86C835.446 1534.86 839.923 1539.34 839.923 1544.86V1673.49C839.923 1676.13 838.88 1678.66 837.021 1680.54L806.721 1711.08L775.356 1742.56C773.48 1744.45 770.93 1745.51 768.271 1745.51H607.529C602.006 1745.51 597.529 1741.03 597.529 1735.51L597.527 1606.71C597.527 1604.13 598.521 1601.66 600.301 1599.8L633.604 1564.98Z" fill="#FF5E01"/>
</g>
<path d="M667.323 1535.36H829.923C835.169 1535.36 839.423 1539.61 839.423 1544.86V1673.49C839.423 1676 838.432 1678.41 836.666 1680.18L806.366 1710.72L775.002 1742.21C773.219 1744 770.797 1745.01 768.271 1745.01H607.528C602.282 1745.01 598.028 1740.75 598.028 1735.51L598.027 1606.71C598.027 1604.26 598.971 1601.91 600.662 1600.14L633.961 1565.33L633.962 1565.33L660.538 1538.21C662.325 1536.39 664.77 1535.36 667.323 1535.36Z" fill="#FF5100" stroke="white"/>
<g filter="url(#filter16_f_63_3292)">
<path d="M642.353 1572.71L665.896 1548.69C667.777 1546.77 670.351 1545.69 673.038 1545.69L817.466 1545.69C822.988 1545.69 827.466 1550.16 827.466 1555.69V1669.65C827.466 1672.29 826.423 1674.82 824.564 1676.69L797.677 1703.79L769.837 1731.74C767.96 1733.62 765.411 1734.68 762.752 1734.68H619.986C614.463 1734.68 609.986 1730.2 609.986 1724.68L609.984 1610.56C609.984 1607.99 610.978 1605.51 612.758 1603.65L642.353 1572.71Z" fill="#FF833B"/>
</g>
<g filter="url(#filter17_d_63_3292)">
<path d="M642.353 1572.71L665.896 1548.69C667.777 1546.77 670.351 1545.69 673.038 1545.69L817.466 1545.69C822.988 1545.69 827.466 1550.16 827.466 1555.69V1669.65C827.466 1672.29 826.423 1674.82 824.564 1676.69L797.677 1703.79L769.837 1731.74C767.96 1733.62 765.411 1734.68 762.752 1734.68H619.986C614.463 1734.68 609.986 1730.2 609.986 1724.68L609.984 1610.56C609.984 1607.99 610.978 1605.51 612.758 1603.65L642.353 1572.71Z" fill="#FF5100"/>
<path d="M673.038 1546.19H817.466C822.712 1546.19 826.966 1550.44 826.966 1555.69V1669.65C826.966 1672.15 825.974 1674.56 824.209 1676.34L797.322 1703.44L769.482 1731.39C767.7 1733.18 765.278 1734.18 762.752 1734.18H619.985C614.739 1734.18 610.485 1729.93 610.485 1724.68L610.484 1610.56C610.484 1608.12 611.428 1605.76 613.119 1604L642.715 1573.06L642.714 1573.06L666.253 1549.04C668.04 1547.21 670.485 1546.19 673.038 1546.19Z" stroke="white"/>
</g>
<path d="M1112 1729.73H1122.61L1104.61 1757.19H1094L1112 1729.73Z" fill="white"/>
<path d="M1126.31 1729.73H1136.92L1118.92 1757.19H1108.31L1126.31 1729.73Z" fill="white"/>
<path d="M1140.62 1729.73H1151.23L1133.23 1757.19H1122.62L1140.62 1729.73Z" fill="white"/>
<path d="M1154.92 1729.73H1165.53L1147.53 1757.19H1136.92L1154.92 1729.73Z" fill="white"/>
<path d="M800 1712.47L912.303 1755.93C912.764 1756.11 913.253 1756.2 913.747 1756.2H1098.59" stroke="white" stroke-width="2" stroke-linecap="round"/>
<path d="M1311.75 1413H1322.36L1304.36 1440.46H1293.75L1311.75 1413Z" fill="white"/>
<path d="M1326.06 1413H1336.67L1318.67 1440.46H1308.06L1326.06 1413Z" fill="white"/>
<path d="M1340.36 1413H1350.98L1332.98 1440.46H1322.36L1340.36 1413Z" fill="white"/>
<path d="M1354.67 1413H1365.28L1347.28 1440.46H1336.67L1354.67 1413Z" fill="white"/>
<path d="M853 1548.17L959.326 1440.65C960.077 1439.89 961.101 1439.46 962.17 1439.46H1300.5" stroke="white" stroke-width="2" stroke-linecap="round"/>
<path d="M208.531 1742.05H197.919L215.919 1769.51H226.531L208.531 1742.05Z" fill="white"/>
<path d="M194.225 1742.05H183.613L201.613 1769.51H212.225L194.225 1742.05Z" fill="white"/>
<path d="M179.918 1742.05H169.306L187.306 1769.51H197.918L179.918 1742.05Z" fill="white"/>
<path d="M165.611 1742.05H154.999L172.999 1769.51H183.611L165.611 1742.05Z" fill="white"/>
<path d="M582.497 1688.51L429.865 1768.05C429.294 1768.35 428.66 1768.51 428.016 1768.51H221.996" stroke="white" stroke-width="2" stroke-linecap="round"/>
<path d="M132.531 1558H121.919L139.919 1585.46H150.531L132.531 1558Z" fill="white"/>
<path d="M118.225 1558H107.613L125.613 1585.46H136.225L118.225 1558Z" fill="white"/>
<path d="M103.918 1558H93.3059L111.306 1585.46H121.918L103.918 1558Z" fill="white"/>
<path d="M89.6113 1558H78.9993L96.9993 1585.46H107.611L89.6113 1558Z" fill="white"/>
<path d="M582.023 1647.02L337.009 1584.59C336.687 1584.51 336.355 1584.46 336.022 1584.46H146.025" stroke="white" stroke-width="2" stroke-linecap="round"/>
<defs>
<filter id="filter0_f_63_3292" x="403.529" y="142.129" width="258.395" height="226.646" filterUnits="userSpaceOnUse" color-interpolation-filters="sRGB">
<feFlood flood-opacity="0" result="BackgroundImageFix"/>
<feBlend mode="normal" in="SourceGraphic" in2="BackgroundImageFix" result="shape"/>
<feGaussianBlur stdDeviation="4" result="effect1_foregroundBlur_63_3292"/>
</filter>
<filter id="filter1_f_63_3292" x="387.086" y="124.055" width="291.28" height="262.796" filterUnits="userSpaceOnUse" color-interpolation-filters="sRGB">
<feFlood flood-opacity="0" result="BackgroundImageFix"/>
<feBlend mode="normal" in="SourceGraphic" in2="BackgroundImageFix" result="shape"/>
<feGaussianBlur stdDeviation="18.45" result="effect1_foregroundBlur_63_3292"/>
</filter>
<filter id="filter2_d_63_3292" x="398.286" y="136.255" width="274.88" height="246.396" filterUnits="userSpaceOnUse" color-interpolation-filters="sRGB">
<feFlood flood-opacity="0" result="BackgroundImageFix"/>
<feColorMatrix in="SourceAlpha" type="matrix" values="0 0 0 0 0 0 0 0 0 0 0 0 0 0 0 0 0 0 127 0" result="hardAlpha"/>
<feOffset dx="3" dy="4"/>
<feGaussianBlur stdDeviation="14.35"/>
<feComposite in2="hardAlpha" operator="out"/>
<feColorMatrix type="matrix" values="0 0 0 0 1 0 0 0 0 1 0 0 0 0 1 0 0 0 0.25 0"/>
<feBlend mode="normal" in2="BackgroundImageFix" result="effect1_dropShadow_63_3292"/>
<feBlend mode="normal" in="SourceGraphic" in2="effect1_dropShadow_63_3292" result="shape"/>
</filter>
<filter id="filter3_f_63_3292" x="584.531" y="369.465" width="258.395" height="226.646" filterUnits="userSpaceOnUse" color-interpolation-filters="sRGB">
<feFlood flood-opacity="0" result="BackgroundImageFix"/>
<feBlend mode="normal" in="SourceGraphic" in2="BackgroundImageFix" result="shape"/>
<feGaussianBlur stdDeviation="4" result="effect1_foregroundBlur_63_3292"/>
</filter>
<filter id="filter4_f_63_3292" x="568.088" y="351.391" width="291.28" height="262.796" filterUnits="userSpaceOnUse" color-interpolation-filters="sRGB">
<feFlood flood-opacity="0" result="BackgroundImageFix"/>
<feBlend mode="normal" in="SourceGraphic" in2="BackgroundImageFix" result="shape"/>
<feGaussianBlur stdDeviation="18.45" result="effect1_foregroundBlur_63_3292"/>
</filter>
<filter id="filter5_d_63_3292" x="579.288" y="363.591" width="274.88" height="246.396" filterUnits="userSpaceOnUse" color-interpolation-filters="sRGB">
<feFlood flood-opacity="0" result="BackgroundImageFix"/>
<feColorMatrix in="SourceAlpha" type="matrix" values="0 0 0 0 0 0 0 0 0 0 0 0 0 0 0 0 0 0 127 0" result="hardAlpha"/>
<feOffset dx="3" dy="4"/>
<feGaussianBlur stdDeviation="14.35"/>
<feComposite in2="hardAlpha" operator="out"/>
<feColorMatrix type="matrix" values="0 0 0 0 1 0 0 0 0 1 0 0 0 0 1 0 0 0 0.25 0"/>
<feBlend mode="normal" in2="BackgroundImageFix" result="effect1_dropShadow_63_3292"/>
<feBlend mode="normal" in="SourceGraphic" in2="effect1_dropShadow_63_3292" result="shape"/>
</filter>
<filter id="filter6_f_63_3292" x="733.531" y="634.859" width="258.395" height="226.646" filterUnits="userSpaceOnUse" color-interpolation-filters="sRGB">
<feFlood flood-opacity="0" result="BackgroundImageFix"/>
<feBlend mode="normal" in="SourceGraphic" in2="BackgroundImageFix" result="shape"/>
<feGaussianBlur stdDeviation="4" result="effect1_foregroundBlur_63_3292"/>
</filter>
<filter id="filter7_f_63_3292" x="717.088" y="616.786" width="291.28" height="262.796" filterUnits="userSpaceOnUse" color-interpolation-filters="sRGB">
<feFlood flood-opacity="0" result="BackgroundImageFix"/>
<feBlend mode="normal" in="SourceGraphic" in2="BackgroundImageFix" result="shape"/>
<feGaussianBlur stdDeviation="18.45" result="effect1_foregroundBlur_63_3292"/>
</filter>
<filter id="filter8_d_63_3292" x="728.288" y="628.986" width="274.88" height="246.396" filterUnits="userSpaceOnUse" color-interpolation-filters="sRGB">
<feFlood flood-opacity="0" result="BackgroundImageFix"/>
<feColorMatrix in="SourceAlpha" type="matrix" values="0 0 0 0 0 0 0 0 0 0 0 0 0 0 0 0 0 0 127 0" result="hardAlpha"/>
<feOffset dx="3" dy="4"/>
<feGaussianBlur stdDeviation="14.35"/>
<feComposite in2="hardAlpha" operator="out"/>
<feColorMatrix type="matrix" values="0 0 0 0 1 0 0 0 0 1 0 0 0 0 1 0 0 0 0.25 0"/>
<feBlend mode="normal" in2="BackgroundImageFix" result="effect1_dropShadow_63_3292"/>
<feBlend mode="normal" in="SourceGraphic" in2="effect1_dropShadow_63_3292" result="shape"/>
</filter>
<filter id="filter9_f_63_3292" x="574.529" y="1032.86" width="258.395" height="226.646" filterUnits="userSpaceOnUse" color-interpolation-filters="sRGB">
<feFlood flood-opacity="0" result="BackgroundImageFix"/>
<feBlend mode="normal" in="SourceGraphic" in2="BackgroundImageFix" result="shape"/>
<feGaussianBlur stdDeviation="4" result="effect1_foregroundBlur_63_3292"/>
</filter>
<filter id="filter10_f_63_3292" x="558.086" y="1014.79" width="291.28" height="262.796" filterUnits="userSpaceOnUse" color-interpolation-filters="sRGB">
<feFlood flood-opacity="0" result="BackgroundImageFix"/>
<feBlend mode="normal" in="SourceGraphic" in2="BackgroundImageFix" result="shape"/>
<feGaussianBlur stdDeviation="18.45" result="effect1_foregroundBlur_63_3292"/>
</filter>
<filter id="filter11_d_63_3292" x="569.286" y="1026.99" width="274.88" height="246.396" filterUnits="userSpaceOnUse" color-interpolation-filters="sRGB">
<feFlood flood-opacity="0" result="BackgroundImageFix"/>
<feColorMatrix in="SourceAlpha" type="matrix" values="0 0 0 0 0 0 0 0 0 0 0 0 0 0 0 0 0 0 127 0" result="hardAlpha"/>
<feOffset dx="3" dy="4"/>
<feGaussianBlur stdDeviation="14.35"/>
<feComposite in2="hardAlpha" operator="out"/>
<feColorMatrix type="matrix" values="0 0 0 0 1 0 0 0 0 1 0 0 0 0 1 0 0 0 0.25 0"/>
<feBlend mode="normal" in2="BackgroundImageFix" result="effect1_dropShadow_63_3292"/>
<feBlend mode="normal" in="SourceGraphic" in2="effect1_dropShadow_63_3292" result="shape"/>
</filter>
<filter id="filter12_f_63_3292" x="417" y="1300" width="258.395" height="226.646" filterUnits="userSpaceOnUse" color-interpolation-filters="sRGB">
<feFlood flood-opacity="0" result="BackgroundImageFix"/>
<feBlend mode="normal" in="SourceGraphic" in2="BackgroundImageFix" result="shape"/>
<feGaussianBlur stdDeviation="4" result="effect1_foregroundBlur_63_3292"/>
</filter>
<filter id="filter13_f_63_3292" x="400.557" y="1281.93" width="291.28" height="262.796" filterUnits="userSpaceOnUse" color-interpolation-filters="sRGB">
<feFlood flood-opacity="0" result="BackgroundImageFix"/>
<feBlend mode="normal" in="SourceGraphic" in2="BackgroundImageFix" result="shape"/>
<feGaussianBlur stdDeviation="18.45" result="effect1_foregroundBlur_63_3292"/>
</filter>
<filter id="filter14_d_63_3292" x="411.757" y="1294.13" width="274.88" height="246.396" filterUnits="userSpaceOnUse" color-interpolation-filters="sRGB">
<feFlood flood-opacity="0" result="BackgroundImageFix"/>
<feColorMatrix in="SourceAlpha" type="matrix" values="0 0 0 0 0 0 0 0 0 0 0 0 0 0 0 0 0 0 127 0" result="hardAlpha"/>
<feOffset dx="3" dy="4"/>
<feGaussianBlur stdDeviation="14.35"/>
<feComposite in2="hardAlpha" operator="out"/>
<feColorMatrix type="matrix" values="0 0 0 0 1 0 0 0 0 1 0 0 0 0 1 0 0 0 0.25 0"/>
<feBlend mode="normal" in2="BackgroundImageFix" result="effect1_dropShadow_63_3292"/>
<feBlend mode="normal" in="SourceGraphic" in2="effect1_dropShadow_63_3292" result="shape"/>
</filter>
<filter id="filter15_f_63_3292" x="589.527" y="1526.86" width="258.395" height="226.646" filterUnits="userSpaceOnUse" color-interpolation-filters="sRGB">
<feFlood flood-opacity="0" result="BackgroundImageFix"/>
<feBlend mode="normal" in="SourceGraphic" in2="BackgroundImageFix" result="shape"/>
<feGaussianBlur stdDeviation="4" result="effect1_foregroundBlur_63_3292"/>
</filter>
<filter id="filter16_f_63_3292" x="573.084" y="1508.79" width="291.28" height="262.796" filterUnits="userSpaceOnUse" color-interpolation-filters="sRGB">
<feFlood flood-opacity="0" result="BackgroundImageFix"/>
<feBlend mode="normal" in="SourceGraphic" in2="BackgroundImageFix" result="shape"/>
<feGaussianBlur stdDeviation="18.45" result="effect1_foregroundBlur_63_3292"/>
</filter>
<filter id="filter17_d_63_3292" x="584.284" y="1520.99" width="274.88" height="246.396" filterUnits="userSpaceOnUse" color-interpolation-filters="sRGB">
<feFlood flood-opacity="0" result="BackgroundImageFix"/>
<feColorMatrix in="SourceAlpha" type="matrix" values="0 0 0 0 0 0 0 0 0 0 0 0 0 0 0 0 0 0 127 0" result="hardAlpha"/>
<feOffset dx="3" dy="4"/>
<feGaussianBlur stdDeviation="14.35"/>
<feComposite in2="hardAlpha" operator="out"/>
<feColorMatrix type="matrix" values="0 0 0 0 1 0 0 0 0 1 0 0 0 0 1 0 0 0 0.25 0"/>
<feBlend mode="normal" in2="BackgroundImageFix" result="effect1_dropShadow_63_3292"/>
<feBlend mode="normal" in="SourceGraphic" in2="effect1_dropShadow_63_3292" result="shape"/>
</filter>
</defs>
</svg>
