<svg width="1378" height="1537" viewBox="0 0 1378 1537" fill="none" xmlns="http://www.w3.org/2000/svg">
<g filter="url(#filter0_f_62_3290)">
<path d="M447.607 147.25L474.184 120.13C476.065 118.21 478.639 117.129 481.326 117.129L643.926 117.129C649.448 117.129 653.926 121.606 653.926 127.129V255.763C653.926 258.402 652.883 260.933 651.024 262.806L620.724 293.345L589.359 324.833C587.482 326.717 584.933 327.776 582.274 327.776H421.532C416.009 327.776 411.532 323.299 411.532 317.776L411.53 188.979C411.53 186.404 412.524 183.928 414.304 182.067L447.607 147.25Z" fill="#FF5E01"/>
</g>
<path d="M481.326 117.629H643.926C649.172 117.629 653.426 121.882 653.426 127.129V255.763C653.426 258.269 652.434 260.675 650.669 262.454L620.369 292.992L589.005 324.48C587.222 326.27 584.8 327.276 582.274 327.276H421.531C416.285 327.276 412.031 323.023 412.031 317.776L412.03 188.979C412.03 186.533 412.974 184.181 414.665 182.413L447.964 147.6L447.965 147.601L474.541 120.479C476.328 118.656 478.773 117.629 481.326 117.629Z" fill="#FF5100" stroke="white"/>
<g filter="url(#filter1_f_62_3290)">
<path d="M456.356 154.981L479.899 130.956C481.78 129.037 484.354 127.955 487.041 127.955L631.469 127.955C636.991 127.955 641.469 132.432 641.469 137.955V251.917C641.469 254.555 640.426 257.087 638.567 258.96L611.68 286.059L583.84 314.009C581.963 315.892 579.414 316.951 576.755 316.951H433.988C428.466 316.951 423.989 312.474 423.988 306.951L423.987 192.833C423.987 190.258 424.981 187.782 426.761 185.921L456.356 154.981Z" fill="#FF833B"/>
</g>
<g filter="url(#filter2_d_62_3290)">
<path d="M456.356 154.981L479.899 130.956C481.78 129.037 484.354 127.955 487.041 127.955L631.469 127.955C636.991 127.955 641.469 132.432 641.469 137.955V251.917C641.469 254.555 640.426 257.087 638.567 258.96L611.68 286.059L583.84 314.009C581.963 315.892 579.414 316.951 576.755 316.951H433.988C428.466 316.951 423.989 312.474 423.988 306.951L423.987 192.833C423.987 190.258 424.981 187.782 426.761 185.921L456.356 154.981Z" fill="#FF5100"/>
<path d="M487.041 128.455H631.469C636.715 128.455 640.969 132.708 640.969 137.955V251.917C640.969 254.424 639.977 256.828 638.212 258.607L611.325 285.706L583.485 313.655C581.703 315.445 579.281 316.451 576.755 316.451H433.988C428.742 316.451 424.488 312.198 424.488 306.951L424.487 192.833C424.487 190.387 425.431 188.035 427.122 186.267L456.718 155.326L456.717 155.325L480.256 131.306C482.043 129.482 484.488 128.455 487.041 128.455Z" stroke="white"/>
</g>
<path d="M653.172 799.57H815.771C821.018 799.57 825.271 803.824 825.271 809.07V937.704C825.271 940.211 824.28 942.616 822.515 944.396L792.215 974.934L760.851 1006.42C759.068 1008.21 756.646 1009.22 754.12 1009.22H593.377C588.13 1009.22 583.877 1004.96 583.877 999.718L583.876 870.921C583.876 868.474 584.82 866.122 586.511 864.354L619.81 829.541L619.811 829.542L646.387 802.421C648.174 800.598 650.619 799.57 653.172 799.57Z" stroke="#FF8A4A"/>
<path d="M658.887 810.396H803.314C808.561 810.397 812.814 814.65 812.814 819.896V933.858C812.814 936.365 811.823 938.769 810.058 940.549L783.171 967.647L755.331 995.597C753.548 997.386 751.127 998.393 748.601 998.393H605.834C600.587 998.392 596.334 994.139 596.334 988.893L596.333 874.774C596.333 872.328 597.277 869.976 598.968 868.208L628.563 837.268L628.562 837.267L652.102 813.247C653.888 811.424 656.334 810.397 658.887 810.396Z" stroke="#FF8A4A"/>
<path d="M645.029 900.587C640.685 900.587 636.821 897.755 636.821 891.995C636.821 886.235 640.733 883.403 645.029 883.403C648.821 883.403 651.869 885.731 652.301 888.995H649.685C649.421 887.027 647.429 885.611 645.005 885.611C641.741 885.611 639.365 887.843 639.365 891.995C639.365 896.147 641.741 898.379 645.029 898.379C647.501 898.379 649.469 896.963 649.733 894.995H652.277C651.917 898.259 648.893 900.587 645.029 900.587ZM655.82 900.395V888.299H658.148V890.627C658.7 889.019 659.66 888.299 661.364 888.299H662.828V890.315H661.076C658.868 890.315 658.148 892.283 658.148 894.923V900.395H655.82ZM670.59 900.587C666.846 900.587 664.542 897.635 664.542 894.275C664.542 890.891 666.654 888.107 670.374 888.107C674.094 888.107 676.086 890.771 676.086 893.843C676.086 894.155 676.062 894.563 676.038 894.779H666.822C667.014 897.035 668.502 898.595 670.59 898.595C672.366 898.595 673.518 897.827 673.854 896.459H676.182C675.774 898.955 673.59 900.587 670.59 900.587ZM666.894 892.979H673.734C673.59 891.131 672.366 889.979 670.374 889.979C668.502 889.979 667.254 891.011 666.894 892.979ZM684.668 900.587C681.068 900.587 678.98 897.923 678.98 894.347C678.98 890.771 681.044 888.107 684.692 888.107C686.324 888.107 687.836 888.875 688.58 890.075V883.235H690.908V900.395H688.58V898.595C687.86 899.795 686.324 900.587 684.668 900.587ZM685.052 898.547C687.284 898.547 688.748 896.867 688.748 894.347C688.748 891.827 687.284 890.147 685.052 890.147C682.796 890.147 681.332 891.827 681.332 894.347C681.332 896.867 682.796 898.547 685.052 898.547ZM695.286 900.395V888.299H697.614V900.395H695.286ZM695.142 883.235H697.734V886.163H695.142V883.235ZM707.029 900.395C704.581 900.395 702.997 898.907 702.997 896.435V890.315H700.525V888.299H702.997V884.507H705.325V888.299H708.901V890.315H705.325V896.363C705.325 897.659 706.045 898.379 707.197 898.379H708.901V900.395H707.029ZM726.21 900.587C721.866 900.587 718.002 897.755 718.002 891.995C718.002 886.235 721.914 883.403 726.21 883.403C730.002 883.403 733.05 885.731 733.482 888.995H730.866C730.602 887.027 728.61 885.611 726.186 885.611C722.922 885.611 720.546 887.843 720.546 891.995C720.546 896.147 722.922 898.379 726.21 898.379C728.682 898.379 730.65 896.963 730.914 894.995H733.458C733.098 898.259 730.074 900.587 726.21 900.587ZM740.53 900.587C738.058 900.587 736.402 899.099 736.402 896.939C736.402 894.611 738.274 893.075 741.106 893.075H743.65C744.202 893.075 744.466 892.883 744.466 892.451C744.466 890.987 743.386 889.979 741.538 889.979C739.834 889.979 738.634 891.035 738.562 892.259H736.402C736.594 889.883 738.73 888.107 741.61 888.107C744.73 888.107 746.77 889.907 746.77 892.595V900.395H744.466V898.403C743.866 899.723 742.354 900.587 740.53 900.587ZM740.986 898.739C743.17 898.739 744.466 897.323 744.466 895.091V894.875H741.346C739.762 894.875 738.73 895.619 738.73 896.891C738.73 897.995 739.618 898.739 740.986 898.739ZM750.969 900.395V888.299H753.297V890.627C753.849 889.019 754.809 888.299 756.513 888.299H757.977V890.315H756.225C754.017 890.315 753.297 892.283 753.297 894.923V900.395H750.969ZM765.403 900.587C761.803 900.587 759.715 897.923 759.715 894.347C759.715 890.771 761.779 888.107 765.427 888.107C767.059 888.107 768.571 888.875 769.315 890.075V883.235H771.643V900.395H769.315V898.595C768.595 899.795 767.059 900.587 765.403 900.587ZM765.787 898.547C768.019 898.547 769.483 896.867 769.483 894.347C769.483 891.827 768.019 890.147 765.787 890.147C763.531 890.147 762.067 891.827 762.067 894.347C762.067 896.867 763.531 898.547 765.787 898.547ZM649.164 934.395L655.764 917.595H658.068L664.668 934.395H662.076L660.468 930.123H653.364L651.756 934.395H649.164ZM654.18 927.939H659.652L656.916 920.715L654.18 927.939ZM672.288 934.587C668.496 934.587 666.312 931.683 666.312 928.347C666.312 925.011 668.496 922.107 672.288 922.107C675.12 922.107 677.568 923.787 677.904 926.523H675.576C675.36 925.155 673.992 924.147 672.336 924.147C669.936 924.147 668.736 926.019 668.736 928.347C668.736 930.675 669.96 932.547 672.36 932.547C674.016 932.547 675.216 931.683 675.6 930.315H677.904C677.52 932.859 675.384 934.587 672.288 934.587ZM686.584 934.587C682.792 934.587 680.608 931.683 680.608 928.347C680.608 925.011 682.792 922.107 686.584 922.107C689.416 922.107 691.864 923.787 692.2 926.523H689.872C689.656 925.155 688.288 924.147 686.632 924.147C684.232 924.147 683.032 926.019 683.032 928.347C683.032 930.675 684.256 932.547 686.656 932.547C688.312 932.547 689.512 931.683 689.896 930.315H692.2C691.816 932.859 689.68 934.587 686.584 934.587ZM701.12 934.587C697.496 934.587 694.88 931.971 694.88 928.347C694.88 924.723 697.496 922.107 701.12 922.107C704.744 922.107 707.336 924.723 707.336 928.347C707.336 931.971 704.744 934.587 701.12 934.587ZM701.12 932.547C703.4 932.547 704.96 930.819 704.96 928.347C704.96 925.875 703.4 924.147 701.12 924.147C698.816 924.147 697.256 925.875 697.256 928.347C697.256 930.819 698.816 932.547 701.12 932.547ZM715.226 934.587C712.49 934.587 710.714 932.619 710.714 929.739V922.299H713.042V929.283C713.042 931.203 714.17 932.499 715.874 932.499C717.77 932.499 719.138 930.963 719.138 928.851V922.299H721.466V934.395H719.138V932.259C718.49 933.771 717.026 934.587 715.226 934.587ZM725.811 934.395V922.299H728.139V924.435C728.787 922.923 730.227 922.107 732.027 922.107C734.763 922.107 736.539 924.075 736.539 926.955V934.395H734.211V927.411C734.211 925.491 733.083 924.195 731.379 924.195C729.483 924.195 728.139 925.731 728.139 927.843V934.395H725.811ZM745.616 934.395C743.168 934.395 741.584 932.907 741.584 930.435V924.315H739.112V922.299H741.584V918.507H743.912V922.299H747.488V924.315H743.912V930.363C743.912 931.659 744.632 932.379 745.784 932.379H747.488V934.395H745.616ZM754.731 934.587C751.803 934.587 750.051 933.075 749.859 930.459H751.995C752.115 931.851 753.147 932.691 754.707 932.691C756.147 932.691 757.083 931.995 757.083 930.915C757.083 927.963 750.171 930.531 750.171 925.707C750.171 923.571 751.971 922.107 754.491 922.107C757.299 922.107 759.003 923.523 759.171 925.875H757.035C756.915 924.699 755.907 923.931 754.515 923.931C753.315 923.931 752.331 924.531 752.331 925.611C752.331 928.467 759.267 925.755 759.267 930.795C759.267 933.123 757.539 934.587 754.731 934.587Z" fill="#FF8A4A"/>
<path d="M823.723 558.922H986.322C991.569 558.922 995.822 563.175 995.822 568.422V697.056C995.822 699.562 994.831 701.968 993.065 703.747L962.766 734.285L931.401 765.773C929.619 767.563 927.197 768.569 924.671 768.569H763.928C758.681 768.569 754.428 764.316 754.428 759.069L754.427 630.272C754.427 627.826 755.371 625.474 757.062 623.706L790.36 588.893L790.361 588.894L816.938 561.772C818.724 559.949 821.17 558.922 823.723 558.922Z" stroke="#FF8A4A"/>
<path d="M829.438 569.748H973.865C979.112 569.748 983.365 574.001 983.365 579.248V693.21C983.365 695.717 982.374 698.121 980.608 699.9L953.722 726.999L925.882 754.948C924.099 756.738 921.677 757.744 919.151 757.744H776.385C771.138 757.744 766.885 753.491 766.885 748.244L766.884 634.126C766.884 631.68 767.828 629.327 769.519 627.56L799.114 596.619L799.113 596.618L822.652 572.599C824.439 570.775 826.885 569.748 829.438 569.748Z" stroke="#FF8A4A"/>
<path d="M785.398 659.746V642.946H791.902C795.358 642.946 797.398 645.034 797.398 648.01C797.398 650.986 795.358 653.074 791.902 653.074H787.894V659.746H785.398ZM791.83 650.914C793.99 650.914 794.83 649.546 794.83 648.01C794.83 646.474 793.99 645.106 791.83 645.106H787.894V650.914H791.83ZM800.486 659.746V647.65H802.814V649.978C803.366 648.37 804.326 647.65 806.03 647.65H807.494V649.666H805.742C803.534 649.666 802.814 651.634 802.814 654.274V659.746H800.486ZM815.256 659.938C811.512 659.938 809.208 656.986 809.208 653.626C809.208 650.242 811.32 647.458 815.04 647.458C818.76 647.458 820.752 650.122 820.752 653.194C820.752 653.506 820.728 653.914 820.704 654.13H811.488C811.68 656.386 813.168 657.946 815.256 657.946C817.032 657.946 818.184 657.178 818.52 655.81H820.848C820.44 658.306 818.256 659.938 815.256 659.938ZM811.56 652.33H818.4C818.256 650.482 817.032 649.33 815.04 649.33C813.168 649.33 811.92 650.362 811.56 652.33ZM823.838 654.226V652.21H831.374V654.226H823.838ZM835.171 664.642V647.65H837.499V649.426C838.243 648.226 839.755 647.458 841.363 647.458C845.011 647.458 847.099 650.122 847.099 653.698C847.099 657.274 845.011 659.938 841.387 659.938C839.755 659.938 838.219 659.146 837.499 657.946V664.642H835.171ZM841.027 657.898C843.259 657.898 844.747 656.218 844.747 653.698C844.747 651.178 843.259 649.498 841.027 649.498C838.795 649.498 837.307 651.178 837.307 653.698C837.307 656.218 838.795 657.898 841.027 657.898ZM854.261 659.938C851.789 659.938 850.133 658.45 850.133 656.29C850.133 653.962 852.005 652.426 854.837 652.426H857.381C857.933 652.426 858.197 652.234 858.197 651.802C858.197 650.338 857.117 649.33 855.269 649.33C853.565 649.33 852.365 650.386 852.293 651.61H850.133C850.325 649.234 852.461 647.458 855.341 647.458C858.461 647.458 860.501 649.258 860.501 651.946V659.746H858.197V657.754C857.597 659.074 856.085 659.938 854.261 659.938ZM854.717 658.09C856.901 658.09 858.197 656.674 858.197 654.442V654.226H855.077C853.493 654.226 852.461 654.97 852.461 656.242C852.461 657.346 853.349 658.09 854.717 658.09ZM864.7 659.746V647.65H867.028V659.746H864.7ZM864.556 642.586H867.148V645.514H864.556V642.586ZM876.299 659.938C872.699 659.938 870.611 657.274 870.611 653.698C870.611 650.122 872.675 647.458 876.323 647.458C877.955 647.458 879.467 648.226 880.211 649.426V642.586H882.539V659.746H880.211V657.946C879.491 659.146 877.955 659.938 876.299 659.938ZM876.683 657.898C878.915 657.898 880.379 656.218 880.379 653.698C880.379 651.178 878.915 649.498 876.683 649.498C874.427 649.498 872.963 651.178 872.963 653.698C872.963 656.218 874.427 657.898 876.683 657.898ZM900.968 659.938C896.624 659.938 892.76 657.106 892.76 651.346C892.76 645.586 896.672 642.754 900.968 642.754C904.76 642.754 907.808 645.082 908.24 648.346H905.624C905.36 646.378 903.368 644.962 900.944 644.962C897.68 644.962 895.304 647.194 895.304 651.346C895.304 655.498 897.68 657.73 900.968 657.73C903.44 657.73 905.408 656.314 905.672 654.346H908.216C907.856 657.61 904.832 659.938 900.968 659.938ZM915.287 659.938C912.815 659.938 911.159 658.45 911.159 656.29C911.159 653.962 913.031 652.426 915.863 652.426H918.407C918.959 652.426 919.223 652.234 919.223 651.802C919.223 650.338 918.143 649.33 916.295 649.33C914.591 649.33 913.391 650.386 913.319 651.61H911.159C911.351 649.234 913.487 647.458 916.367 647.458C919.487 647.458 921.527 649.258 921.527 651.946V659.746H919.223V657.754C918.623 659.074 917.111 659.938 915.287 659.938ZM915.743 658.09C917.927 658.09 919.223 656.674 919.223 654.442V654.226H916.103C914.519 654.226 913.487 654.97 913.487 656.242C913.487 657.346 914.375 658.09 915.743 658.09ZM925.727 659.746V647.65H928.055V649.978C928.607 648.37 929.567 647.65 931.271 647.65H932.735V649.666H930.983C928.775 649.666 928.055 651.634 928.055 654.274V659.746H925.727ZM940.161 659.938C936.561 659.938 934.473 657.274 934.473 653.698C934.473 650.122 936.537 647.458 940.185 647.458C941.817 647.458 943.329 648.226 944.073 649.426V642.586H946.401V659.746H944.073V657.946C943.353 659.146 941.817 659.938 940.161 659.938ZM940.545 657.898C942.777 657.898 944.241 656.218 944.241 653.698C944.241 651.178 942.777 649.498 940.545 649.498C938.289 649.498 936.825 651.178 936.825 653.698C936.825 656.218 938.289 657.898 940.545 657.898ZM954.763 659.938C951.835 659.938 950.083 658.426 949.891 655.81H952.027C952.147 657.202 953.179 658.042 954.739 658.042C956.179 658.042 957.115 657.346 957.115 656.266C957.115 653.314 950.203 655.882 950.203 651.058C950.203 648.922 952.003 647.458 954.523 647.458C957.331 647.458 959.035 648.874 959.203 651.226H957.067C956.947 650.05 955.939 649.282 954.547 649.282C953.347 649.282 952.363 649.882 952.363 650.962C952.363 653.818 959.299 651.106 959.299 656.146C959.299 658.474 957.571 659.938 954.763 659.938ZM819.715 693.746L826.315 676.946H828.619L835.219 693.746H832.627L831.019 689.474H823.915L822.307 693.746H819.715ZM824.731 687.29H830.203L827.467 680.066L824.731 687.29ZM842.839 693.938C839.047 693.938 836.863 691.034 836.863 687.698C836.863 684.362 839.047 681.458 842.839 681.458C845.671 681.458 848.119 683.138 848.455 685.874H846.127C845.911 684.506 844.543 683.498 842.887 683.498C840.487 683.498 839.287 685.37 839.287 687.698C839.287 690.026 840.511 691.898 842.911 691.898C844.567 691.898 845.767 691.034 846.151 689.666H848.455C848.071 692.21 845.935 693.938 842.839 693.938ZM857.135 693.938C853.343 693.938 851.159 691.034 851.159 687.698C851.159 684.362 853.343 681.458 857.135 681.458C859.967 681.458 862.415 683.138 862.751 685.874H860.423C860.207 684.506 858.839 683.498 857.183 683.498C854.783 683.498 853.583 685.37 853.583 687.698C853.583 690.026 854.807 691.898 857.207 691.898C858.863 691.898 860.063 691.034 860.447 689.666H862.751C862.367 692.21 860.231 693.938 857.135 693.938ZM871.67 693.938C868.046 693.938 865.43 691.322 865.43 687.698C865.43 684.074 868.046 681.458 871.67 681.458C875.294 681.458 877.886 684.074 877.886 687.698C877.886 691.322 875.294 693.938 871.67 693.938ZM871.67 691.898C873.95 691.898 875.51 690.17 875.51 687.698C875.51 685.226 873.95 683.498 871.67 683.498C869.366 683.498 867.806 685.226 867.806 687.698C867.806 690.17 869.366 691.898 871.67 691.898ZM885.777 693.938C883.041 693.938 881.265 691.97 881.265 689.09V681.65H883.593V688.634C883.593 690.554 884.721 691.85 886.425 691.85C888.321 691.85 889.689 690.314 889.689 688.202V681.65H892.017V693.746H889.689V691.61C889.041 693.122 887.577 693.938 885.777 693.938ZM896.362 693.746V681.65H898.69V683.786C899.338 682.274 900.778 681.458 902.578 681.458C905.314 681.458 907.09 683.426 907.09 686.306V693.746H904.762V686.762C904.762 684.842 903.634 683.546 901.93 683.546C900.034 683.546 898.69 685.082 898.69 687.194V693.746H896.362ZM916.167 693.746C913.719 693.746 912.135 692.258 912.135 689.786V683.666H909.663V681.65H912.135V677.858H914.463V681.65H918.039V683.666H914.463V689.714C914.463 691.01 915.183 691.73 916.335 691.73H918.039V693.746H916.167ZM925.281 693.938C922.353 693.938 920.601 692.426 920.409 689.81H922.545C922.665 691.202 923.697 692.042 925.257 692.042C926.697 692.042 927.633 691.346 927.633 690.266C927.633 687.314 920.721 689.882 920.721 685.058C920.721 682.922 922.521 681.458 925.041 681.458C927.849 681.458 929.553 682.874 929.721 685.226H927.585C927.465 684.05 926.457 683.282 925.065 683.282C923.865 683.282 922.881 683.882 922.881 684.962C922.881 687.818 929.817 685.106 929.817 690.146C929.817 692.474 928.089 693.938 925.281 693.938Z" fill="#FF8A4A"/>
<path d="M653.172 1270.87H815.771C821.018 1270.87 825.271 1275.12 825.271 1280.37V1409C825.271 1411.51 824.28 1413.91 822.515 1415.69L792.215 1446.23L760.851 1477.72C759.068 1479.51 756.646 1480.51 754.12 1480.51H593.377C588.13 1480.51 583.877 1476.26 583.877 1471.01L583.876 1342.22C583.876 1339.77 584.82 1337.42 586.511 1335.65L619.81 1300.84L619.811 1300.84L646.387 1273.72C648.174 1271.89 650.619 1270.87 653.172 1270.87Z" stroke="#FF8A4A"/>
<path d="M658.887 1281.69H803.314C808.561 1281.69 812.814 1285.94 812.814 1291.19V1405.15C812.814 1407.66 811.823 1410.06 810.058 1411.84L783.171 1438.94L755.331 1466.89C753.548 1468.68 751.127 1469.69 748.601 1469.69H605.834C600.587 1469.69 596.334 1465.43 596.334 1460.19L596.333 1346.07C596.333 1343.62 597.277 1341.27 598.968 1339.5L628.563 1308.56L628.562 1308.56L652.102 1284.54C653.888 1282.72 656.334 1281.69 658.887 1281.69Z" stroke="#FF8A4A"/>
<path d="M674.983 1371.69V1354.89H677.479V1369.48H685.663V1371.69H674.983ZM693.55 1371.88C689.926 1371.88 687.31 1369.27 687.31 1365.64C687.31 1362.02 689.926 1359.4 693.55 1359.4C697.174 1359.4 699.766 1362.02 699.766 1365.64C699.766 1369.27 697.174 1371.88 693.55 1371.88ZM693.55 1369.84C695.83 1369.84 697.39 1368.11 697.39 1365.64C697.39 1363.17 695.83 1361.44 693.55 1361.44C691.246 1361.44 689.686 1363.17 689.686 1365.64C689.686 1368.11 691.246 1369.84 693.55 1369.84ZM706.864 1371.88C704.392 1371.88 702.736 1370.39 702.736 1368.23C702.736 1365.91 704.608 1364.37 707.44 1364.37H709.984C710.536 1364.37 710.8 1364.18 710.8 1363.75C710.8 1362.28 709.72 1361.27 707.872 1361.27C706.168 1361.27 704.968 1362.33 704.896 1363.55H702.736C702.928 1361.18 705.064 1359.4 707.944 1359.4C711.064 1359.4 713.104 1361.2 713.104 1363.89V1371.69H710.8V1369.7C710.2 1371.02 708.688 1371.88 706.864 1371.88ZM707.32 1370.03C709.504 1370.03 710.8 1368.62 710.8 1366.39V1366.17H707.68C706.096 1366.17 705.064 1366.91 705.064 1368.19C705.064 1369.29 705.952 1370.03 707.32 1370.03ZM717.304 1371.69V1359.59H719.632V1361.73C720.28 1360.22 721.72 1359.4 723.52 1359.4C726.256 1359.4 728.032 1361.37 728.032 1364.25V1371.69H725.704V1364.71C725.704 1362.79 724.576 1361.49 722.872 1361.49C720.976 1361.49 719.632 1363.03 719.632 1365.14V1371.69H717.304ZM649.164 1405.69L655.764 1388.89H658.068L664.668 1405.69H662.076L660.468 1401.42H653.364L651.756 1405.69H649.164ZM654.18 1399.23H659.652L656.916 1392.01L654.18 1399.23ZM672.288 1405.88C668.496 1405.88 666.312 1402.98 666.312 1399.64C666.312 1396.31 668.496 1393.4 672.288 1393.4C675.12 1393.4 677.568 1395.08 677.904 1397.82H675.576C675.36 1396.45 673.992 1395.44 672.336 1395.44C669.936 1395.44 668.736 1397.31 668.736 1399.64C668.736 1401.97 669.96 1403.84 672.36 1403.84C674.016 1403.84 675.216 1402.98 675.6 1401.61H677.904C677.52 1404.15 675.384 1405.88 672.288 1405.88ZM686.584 1405.88C682.792 1405.88 680.608 1402.98 680.608 1399.64C680.608 1396.31 682.792 1393.4 686.584 1393.4C689.416 1393.4 691.864 1395.08 692.2 1397.82H689.872C689.656 1396.45 688.288 1395.44 686.632 1395.44C684.232 1395.44 683.032 1397.31 683.032 1399.64C683.032 1401.97 684.256 1403.84 686.656 1403.84C688.312 1403.84 689.512 1402.98 689.896 1401.61H692.2C691.816 1404.15 689.68 1405.88 686.584 1405.88ZM701.12 1405.88C697.496 1405.88 694.88 1403.27 694.88 1399.64C694.88 1396.02 697.496 1393.4 701.12 1393.4C704.744 1393.4 707.336 1396.02 707.336 1399.64C707.336 1403.27 704.744 1405.88 701.12 1405.88ZM701.12 1403.84C703.4 1403.84 704.96 1402.11 704.96 1399.64C704.96 1397.17 703.4 1395.44 701.12 1395.44C698.816 1395.44 697.256 1397.17 697.256 1399.64C697.256 1402.11 698.816 1403.84 701.12 1403.84ZM715.226 1405.88C712.49 1405.88 710.714 1403.91 710.714 1401.03V1393.59H713.042V1400.58C713.042 1402.5 714.17 1403.79 715.874 1403.79C717.77 1403.79 719.138 1402.26 719.138 1400.15V1393.59H721.466V1405.69H719.138V1403.55C718.49 1405.07 717.026 1405.88 715.226 1405.88ZM725.811 1405.69V1393.59H728.139V1395.73C728.787 1394.22 730.227 1393.4 732.027 1393.4C734.763 1393.4 736.539 1395.37 736.539 1398.25V1405.69H734.211V1398.71C734.211 1396.79 733.083 1395.49 731.379 1395.49C729.483 1395.49 728.139 1397.03 728.139 1399.14V1405.69H725.811ZM745.616 1405.69C743.168 1405.69 741.584 1404.2 741.584 1401.73V1395.61H739.112V1393.59H741.584V1389.8H743.912V1393.59H747.488V1395.61H743.912V1401.66C743.912 1402.95 744.632 1403.67 745.784 1403.67H747.488V1405.69H745.616ZM754.731 1405.88C751.803 1405.88 750.051 1404.37 749.859 1401.75H751.995C752.115 1403.15 753.147 1403.99 754.707 1403.99C756.147 1403.99 757.083 1403.29 757.083 1402.21C757.083 1399.26 750.171 1401.83 750.171 1397C750.171 1394.87 751.971 1393.4 754.491 1393.4C757.299 1393.4 759.003 1394.82 759.171 1397.17H757.035C756.915 1395.99 755.907 1395.23 754.515 1395.23C753.315 1395.23 752.331 1395.83 752.331 1396.91C752.331 1399.76 759.267 1397.05 759.267 1402.09C759.267 1404.42 757.539 1405.88 754.731 1405.88Z" fill="#FF8A4A"/>
<path d="M653.172 338.277H815.771C821.018 338.277 825.271 342.531 825.271 347.777V476.411C825.271 478.918 824.28 481.323 822.515 483.103L792.215 513.641L760.851 545.129C759.068 546.918 756.646 547.925 754.12 547.925H593.377C588.13 547.925 583.877 543.671 583.877 538.425L583.876 409.628C583.876 407.182 584.82 404.829 586.511 403.062L619.81 368.248L619.811 368.249L646.387 341.128C648.174 339.305 650.619 338.277 653.172 338.277Z" stroke="#FF8A4A"/>
<path d="M658.887 349.104H803.314C808.561 349.104 812.814 353.357 812.814 358.604V472.565C812.814 475.072 811.823 477.477 810.058 479.256L783.171 506.354L755.331 534.304C753.548 536.093 751.127 537.1 748.601 537.1H605.834C600.587 537.099 596.334 532.846 596.334 527.6L596.333 413.481C596.333 411.035 597.277 408.683 598.968 406.915L628.563 375.975L628.562 375.974L652.102 351.954C653.888 350.131 656.334 349.104 658.887 349.104Z" stroke="#FF8A4A"/>
<path d="M631.74 439.102V422.302H638.316C641.7 422.302 643.764 424.078 643.764 426.958C643.764 428.998 642.78 430.342 641.268 431.11C642.516 431.83 643.284 433.174 643.404 434.806L643.74 439.102H641.268L640.932 435.022C640.836 433.534 639.876 432.478 638.436 432.478H634.236V439.102H631.74ZM638.244 430.27C640.428 430.27 641.268 428.854 641.268 427.342C641.268 425.806 640.428 424.462 638.244 424.462H634.236V430.27H638.244ZM652.88 439.294C649.136 439.294 646.832 436.342 646.832 432.982C646.832 429.598 648.944 426.814 652.664 426.814C656.384 426.814 658.376 429.478 658.376 432.55C658.376 432.862 658.352 433.27 658.328 433.486H649.112C649.304 435.742 650.792 437.302 652.88 437.302C654.656 437.302 655.808 436.534 656.144 435.166H658.472C658.064 437.662 655.88 439.294 652.88 439.294ZM649.184 431.686H656.024C655.88 429.838 654.656 428.686 652.664 428.686C650.792 428.686 649.544 429.718 649.184 431.686ZM666.958 439.294C663.358 439.294 661.27 436.63 661.27 433.054C661.27 429.478 663.334 426.814 666.982 426.814C668.614 426.814 670.126 427.582 670.87 428.782V421.942H673.198V439.102H670.87V437.302C670.15 438.502 668.614 439.294 666.958 439.294ZM667.342 437.254C669.574 437.254 671.038 435.574 671.038 433.054C671.038 430.534 669.574 428.854 667.342 428.854C665.086 428.854 663.622 430.534 663.622 433.054C663.622 435.574 665.086 437.254 667.342 437.254ZM682.808 439.294C679.064 439.294 676.76 436.342 676.76 432.982C676.76 429.598 678.872 426.814 682.592 426.814C686.312 426.814 688.304 429.478 688.304 432.55C688.304 432.862 688.28 433.27 688.256 433.486H679.04C679.232 435.742 680.72 437.302 682.808 437.302C684.584 437.302 685.736 436.534 686.072 435.166H688.4C687.992 437.662 685.808 439.294 682.808 439.294ZM679.112 431.686H685.952C685.808 429.838 684.584 428.686 682.592 428.686C680.72 428.686 679.472 429.718 679.112 431.686ZM691.966 439.102V427.006H694.294V429.142C694.798 427.774 696.118 426.814 697.918 426.814C699.766 426.814 701.302 427.726 701.782 429.31C702.286 427.87 703.966 426.814 705.718 426.814C708.334 426.814 709.966 428.614 709.966 431.422V439.102H707.638V432.07C707.638 430.15 706.678 428.854 705.07 428.854C703.222 428.854 702.118 430.582 702.118 432.502V439.102H699.79V432.07C699.79 430.15 698.83 428.854 697.246 428.854C695.398 428.854 694.294 430.582 694.294 432.502V439.102H691.966ZM714.16 443.998V427.006H716.488V428.782C717.232 427.582 718.744 426.814 720.352 426.814C724 426.814 726.088 429.478 726.088 433.054C726.088 436.63 724 439.294 720.376 439.294C718.744 439.294 717.208 438.502 716.488 437.302V443.998H714.16ZM720.016 437.254C722.248 437.254 723.736 435.574 723.736 433.054C723.736 430.534 722.248 428.854 720.016 428.854C717.784 428.854 716.296 430.534 716.296 433.054C716.296 435.574 717.784 437.254 720.016 437.254ZM734.551 439.102C732.103 439.102 730.519 437.614 730.519 435.142V429.022H728.047V427.006H730.519V423.214H732.847V427.006H736.423V429.022H732.847V435.07C732.847 436.366 733.567 437.086 734.719 437.086H736.423V439.102H734.551ZM739.682 439.102V427.006H742.01V439.102H739.682ZM739.538 421.942H742.13V424.87H739.538V421.942ZM751.784 439.294C748.16 439.294 745.544 436.678 745.544 433.054C745.544 429.43 748.16 426.814 751.784 426.814C755.408 426.814 758 429.43 758 433.054C758 436.678 755.408 439.294 751.784 439.294ZM751.784 437.254C754.064 437.254 755.624 435.526 755.624 433.054C755.624 430.582 754.064 428.854 751.784 428.854C749.48 428.854 747.92 430.582 747.92 433.054C747.92 435.526 749.48 437.254 751.784 437.254ZM761.547 439.102V427.006H763.875V429.142C764.523 427.63 765.963 426.814 767.763 426.814C770.499 426.814 772.275 428.782 772.275 431.662V439.102H769.947V432.118C769.947 430.198 768.819 428.902 767.115 428.902C765.219 428.902 763.875 430.438 763.875 432.55V439.102H761.547ZM655.254 473.102L661.854 456.302H664.158L670.758 473.102H668.166L666.558 468.83H659.454L657.846 473.102H655.254ZM660.27 466.646H665.742L663.006 459.422L660.27 466.646ZM678.378 473.294C674.586 473.294 672.402 470.39 672.402 467.054C672.402 463.718 674.586 460.814 678.378 460.814C681.21 460.814 683.658 462.494 683.994 465.23H681.666C681.45 463.862 680.082 462.854 678.426 462.854C676.026 462.854 674.826 464.726 674.826 467.054C674.826 469.382 676.05 471.254 678.45 471.254C680.106 471.254 681.306 470.39 681.69 469.022H683.994C683.61 471.566 681.474 473.294 678.378 473.294ZM692.674 473.294C688.882 473.294 686.698 470.39 686.698 467.054C686.698 463.718 688.882 460.814 692.674 460.814C695.506 460.814 697.954 462.494 698.29 465.23H695.962C695.746 463.862 694.378 462.854 692.722 462.854C690.322 462.854 689.122 464.726 689.122 467.054C689.122 469.382 690.346 471.254 692.746 471.254C694.402 471.254 695.602 470.39 695.986 469.022H698.29C697.906 471.566 695.77 473.294 692.674 473.294ZM707.21 473.294C703.586 473.294 700.97 470.678 700.97 467.054C700.97 463.43 703.586 460.814 707.21 460.814C710.834 460.814 713.426 463.43 713.426 467.054C713.426 470.678 710.834 473.294 707.21 473.294ZM707.21 471.254C709.49 471.254 711.05 469.526 711.05 467.054C711.05 464.582 709.49 462.854 707.21 462.854C704.906 462.854 703.346 464.582 703.346 467.054C703.346 469.526 704.906 471.254 707.21 471.254ZM721.316 473.294C718.58 473.294 716.804 471.326 716.804 468.446V461.006H719.132V467.99C719.132 469.91 720.26 471.206 721.964 471.206C723.86 471.206 725.228 469.67 725.228 467.558V461.006H727.556V473.102H725.228V470.966C724.58 472.478 723.116 473.294 721.316 473.294ZM731.901 473.102V461.006H734.229V463.142C734.877 461.63 736.317 460.814 738.117 460.814C740.853 460.814 742.629 462.782 742.629 465.662V473.102H740.301V466.118C740.301 464.198 739.173 462.902 737.469 462.902C735.573 462.902 734.229 464.438 734.229 466.55V473.102H731.901ZM751.706 473.102C749.258 473.102 747.674 471.614 747.674 469.142V463.022H745.202V461.006H747.674V457.214H750.002V461.006H753.578V463.022H750.002V469.07C750.002 470.366 750.722 471.086 751.874 471.086H753.578V473.102H751.706Z" fill="#FF8A4A"/>
<path d="M481.326 1050.22H643.926C649.172 1050.22 653.426 1054.47 653.426 1059.72V1188.35C653.426 1190.86 652.434 1193.26 650.669 1195.04L620.369 1225.58L589.005 1257.07C587.222 1258.86 584.8 1259.87 582.274 1259.87H421.531C416.285 1259.87 412.031 1255.61 412.031 1250.37L412.03 1121.57C412.03 1119.12 412.974 1116.77 414.665 1115L447.964 1080.19L447.965 1080.19L474.541 1053.07C476.328 1051.25 478.773 1050.22 481.326 1050.22Z" stroke="#FF8A4A"/>
<path d="M487.041 1061.04H631.469C636.715 1061.05 640.969 1065.3 640.969 1070.54V1184.51C640.969 1187.01 639.977 1189.42 638.212 1191.2L611.325 1218.3L583.485 1246.25C581.703 1248.03 579.281 1249.04 576.755 1249.04H433.988C428.742 1249.04 424.488 1244.79 424.488 1239.54L424.487 1125.42C424.487 1122.98 425.431 1120.62 427.122 1118.86L456.718 1087.92L456.717 1087.92L480.256 1063.9C482.043 1062.07 484.488 1061.04 487.041 1061.04Z" stroke="#FF8A4A"/>
<path d="M484.924 1151.04V1134.24H491.5C494.884 1134.24 496.948 1136.02 496.948 1138.9C496.948 1140.94 495.964 1142.28 494.452 1143.05C495.7 1143.77 496.468 1145.11 496.588 1146.75L496.924 1151.04H494.452L494.116 1146.96C494.02 1145.47 493.06 1144.42 491.62 1144.42H487.42V1151.04H484.924ZM491.428 1142.21C493.612 1142.21 494.452 1140.79 494.452 1139.28C494.452 1137.75 493.612 1136.4 491.428 1136.4H487.42V1142.21H491.428ZM506.064 1151.23C502.32 1151.23 500.016 1148.28 500.016 1144.92C500.016 1141.54 502.128 1138.75 505.848 1138.75C509.568 1138.75 511.56 1141.42 511.56 1144.49C511.56 1144.8 511.536 1145.21 511.512 1145.43H502.296C502.488 1147.68 503.976 1149.24 506.064 1149.24C507.84 1149.24 508.992 1148.47 509.328 1147.11H511.656C511.248 1149.6 509.064 1151.23 506.064 1151.23ZM502.368 1143.63H509.208C509.064 1141.78 507.84 1140.63 505.848 1140.63C503.976 1140.63 502.728 1141.66 502.368 1143.63ZM517.601 1151.04L513.857 1138.95H516.185L518.681 1147.95L521.417 1138.95H523.625L526.337 1147.95L528.809 1138.95H531.161L527.417 1151.04H525.257L522.521 1142.02L519.761 1151.04H517.601ZM537.593 1151.23C535.121 1151.23 533.465 1149.75 533.465 1147.59C533.465 1145.26 535.337 1143.72 538.169 1143.72H540.713C541.265 1143.72 541.529 1143.53 541.529 1143.1C541.529 1141.63 540.449 1140.63 538.601 1140.63C536.897 1140.63 535.697 1141.68 535.625 1142.91H533.465C533.657 1140.53 535.793 1138.75 538.673 1138.75C541.793 1138.75 543.833 1140.55 543.833 1143.24V1151.04H541.529V1149.05C540.929 1150.37 539.417 1151.23 537.593 1151.23ZM538.049 1149.39C540.233 1149.39 541.529 1147.97 541.529 1145.74V1145.52H538.409C536.825 1145.52 535.793 1146.27 535.793 1147.54C535.793 1148.64 536.681 1149.39 538.049 1149.39ZM548.033 1151.04V1138.95H550.361V1141.27C550.913 1139.67 551.873 1138.95 553.577 1138.95H555.041V1140.96H553.289C551.081 1140.96 550.361 1142.93 550.361 1145.57V1151.04H548.033ZM562.467 1151.23C558.867 1151.23 556.779 1148.57 556.779 1144.99C556.779 1141.42 558.843 1138.75 562.491 1138.75C564.123 1138.75 565.635 1139.52 566.379 1140.72V1133.88H568.707V1151.04H566.379V1149.24C565.659 1150.44 564.123 1151.23 562.467 1151.23ZM562.851 1149.19C565.083 1149.19 566.547 1147.51 566.547 1144.99C566.547 1142.47 565.083 1140.79 562.851 1140.79C560.595 1140.79 559.131 1142.47 559.131 1144.99C559.131 1147.51 560.595 1149.19 562.851 1149.19ZM483.408 1185.04L490.008 1168.24H492.312L498.912 1185.04H496.32L494.712 1180.77H487.608L486 1185.04H483.408ZM488.424 1178.59H493.896L491.16 1171.36L488.424 1178.59ZM506.532 1185.23C502.74 1185.23 500.556 1182.33 500.556 1178.99C500.556 1175.66 502.74 1172.75 506.532 1172.75C509.364 1172.75 511.812 1174.43 512.148 1177.17H509.82C509.604 1175.8 508.236 1174.79 506.58 1174.79C504.18 1174.79 502.98 1176.67 502.98 1178.99C502.98 1181.32 504.204 1183.19 506.604 1183.19C508.26 1183.19 509.46 1182.33 509.844 1180.96H512.148C511.764 1183.51 509.628 1185.23 506.532 1185.23ZM520.828 1185.23C517.036 1185.23 514.852 1182.33 514.852 1178.99C514.852 1175.66 517.036 1172.75 520.828 1172.75C523.66 1172.75 526.108 1174.43 526.444 1177.17H524.116C523.9 1175.8 522.532 1174.79 520.876 1174.79C518.476 1174.79 517.276 1176.67 517.276 1178.99C517.276 1181.32 518.5 1183.19 520.9 1183.19C522.556 1183.19 523.756 1182.33 524.14 1180.96H526.444C526.06 1183.51 523.924 1185.23 520.828 1185.23ZM535.364 1185.23C531.74 1185.23 529.124 1182.62 529.124 1178.99C529.124 1175.37 531.74 1172.75 535.364 1172.75C538.988 1172.75 541.58 1175.37 541.58 1178.99C541.58 1182.62 538.988 1185.23 535.364 1185.23ZM535.364 1183.19C537.644 1183.19 539.204 1181.47 539.204 1178.99C539.204 1176.52 537.644 1174.79 535.364 1174.79C533.06 1174.79 531.5 1176.52 531.5 1178.99C531.5 1181.47 533.06 1183.19 535.364 1183.19ZM549.47 1185.23C546.734 1185.23 544.958 1183.27 544.958 1180.39V1172.95H547.286V1179.93C547.286 1181.85 548.414 1183.15 550.118 1183.15C552.014 1183.15 553.382 1181.61 553.382 1179.5V1172.95H555.71V1185.04H553.382V1182.91C552.734 1184.42 551.27 1185.23 549.47 1185.23ZM560.055 1185.04V1172.95H562.383V1175.08C563.031 1173.57 564.471 1172.75 566.271 1172.75C569.007 1172.75 570.783 1174.72 570.783 1177.6V1185.04H568.455V1178.06C568.455 1176.14 567.327 1174.84 565.623 1174.84C563.727 1174.84 562.383 1176.38 562.383 1178.49V1185.04H560.055ZM579.86 1185.04C577.412 1185.04 575.828 1183.55 575.828 1181.08V1174.96H573.356V1172.95H575.828V1169.15H578.156V1172.95H581.732V1174.96H578.156V1181.01C578.156 1182.31 578.876 1183.03 580.028 1183.03H581.732V1185.04H579.86Z" fill="#FF8A4A"/>
<path d="M152.532 0H141.92L159.92 27.461H170.532L152.532 0Z" fill="white"/>
<path d="M138.226 0H127.614L145.614 27.461H156.226L138.226 0Z" fill="white"/>
<path d="M123.919 0H113.307L131.307 27.461H141.919L123.919 0Z" fill="white"/>
<path d="M109.612 0H99.0003L117 27.461H127.612L109.612 0Z" fill="white"/>
<path d="M440.5 141.5L329.177 27.7028C328.424 26.9336 327.393 26.5 326.317 26.5H165.5" stroke="white" stroke-width="2" stroke-linecap="round"/>
<path d="M1118 64H1128.61L1110.61 91.461H1100L1118 64Z" fill="white"/>
<path d="M1132.31 64H1142.92L1124.92 91.461H1114.31L1132.31 64Z" fill="white"/>
<path d="M1146.61 64H1157.23L1139.23 91.461H1128.61L1146.61 64Z" fill="white"/>
<path d="M1160.92 64H1171.53L1153.53 91.461H1142.92L1160.92 64Z" fill="white"/>
<path d="M664.5 205.479L777.326 91.6625C778.077 90.9048 779.1 90.4785 780.167 90.4785H1106.5" stroke="white" stroke-width="2" stroke-linecap="round"/>
<path d="M66.5322 300H55.9202L73.9202 327.461H84.5322L66.5322 300Z" fill="white"/>
<path d="M52.2256 300H41.6135L59.6135 327.461H70.2256L52.2256 300Z" fill="white"/>
<path d="M37.9189 300H27.3069L45.3069 327.461H55.9189L37.9189 300Z" fill="white"/>
<path d="M23.6123 300H13.0003L31.0002 327.461H41.6123L23.6123 300Z" fill="white"/>
<path d="M401.5 267.963L252.201 326.19C251.738 326.37 251.245 326.463 250.748 326.463H80" stroke="white" stroke-width="2" stroke-linecap="round"/>
<g filter="url(#filter3_f_62_3290)">
<path d="M614.607 364.586L641.184 337.466C643.065 335.546 645.639 334.465 648.326 334.465L810.926 334.465C816.448 334.465 820.926 338.942 820.926 344.465V473.099C820.926 475.738 819.883 478.269 818.024 480.142L787.724 510.681L756.359 542.169C754.482 544.053 751.933 545.112 749.274 545.112H588.532C583.009 545.112 578.532 540.635 578.532 535.112L578.53 406.315C578.53 403.74 579.524 401.264 581.304 399.403L614.607 364.586Z" fill="#FF5E01"/>
</g>
<path d="M648.326 334.965H810.926C816.172 334.965 820.426 339.218 820.426 344.465V473.099C820.426 475.605 819.434 478.011 817.669 479.79L787.369 510.328L756.005 541.816C754.222 543.606 751.8 544.612 749.274 544.612H588.531C583.285 544.612 579.031 540.359 579.031 535.112L579.03 406.315C579.03 403.869 579.974 401.517 581.665 399.749L614.964 364.936L614.965 364.937L641.541 337.815C643.328 335.992 645.773 334.965 648.326 334.965Z" fill="#FF5100" stroke="white"/>
<g filter="url(#filter4_f_62_3290)">
<path d="M623.356 372.317L646.899 348.292C648.78 346.373 651.354 345.291 654.041 345.291L798.469 345.291C803.991 345.291 808.469 349.768 808.469 355.291V469.253C808.469 471.891 807.426 474.423 805.567 476.296L778.68 503.395L750.84 531.345C748.963 533.228 746.414 534.287 743.755 534.287H600.988C595.466 534.287 590.989 529.81 590.988 524.287L590.987 410.169C590.987 407.594 591.981 405.118 593.761 403.257L623.356 372.317Z" fill="#FF833B"/>
</g>
<g filter="url(#filter5_d_62_3290)">
<path d="M623.356 372.317L646.899 348.292C648.78 346.373 651.354 345.291 654.041 345.291L798.469 345.291C803.991 345.291 808.469 349.768 808.469 355.291V469.253C808.469 471.891 807.426 474.423 805.567 476.296L778.68 503.395L750.84 531.345C748.963 533.228 746.414 534.287 743.755 534.287H600.988C595.466 534.287 590.989 529.81 590.988 524.287L590.987 410.169C590.987 407.594 591.981 405.118 593.761 403.257L623.356 372.317Z" fill="#FF5100"/>
<path d="M654.041 345.791H798.469C803.715 345.791 807.969 350.044 807.969 355.291V469.253C807.969 471.759 806.977 474.164 805.212 475.943L778.325 503.042L750.485 530.991C748.703 532.781 746.281 533.787 743.755 533.787H600.988C595.742 533.787 591.488 529.534 591.488 524.287L591.487 410.169C591.487 407.723 592.431 405.37 594.122 403.603L623.718 372.662L623.717 372.661L647.256 348.642C649.043 346.818 651.488 345.791 654.041 345.791Z" stroke="white"/>
</g>
<path d="M152.532 467H141.92L159.92 494.461H170.532L152.532 467Z" fill="white"/>
<path d="M138.226 467H127.614L145.614 494.461H156.226L138.226 467Z" fill="white"/>
<path d="M123.919 467H113.307L131.307 494.461H141.919L123.919 467Z" fill="white"/>
<path d="M109.612 467H99.0003L117 494.461H127.612L109.612 467Z" fill="white"/>
<path d="M567 543.465L452.26 493.794C451.759 493.577 451.218 493.465 450.671 493.465H165.406" stroke="white" stroke-width="2" stroke-linecap="round"/>
<path d="M1197.25 317H1207.86L1189.86 344.461H1179.25L1197.25 317Z" fill="white"/>
<path d="M1211.56 317H1222.17L1204.17 344.461H1193.56L1211.56 317Z" fill="white"/>
<path d="M1225.86 317H1236.48L1218.48 344.461H1207.86L1225.86 317Z" fill="white"/>
<path d="M1240.17 317H1250.78L1232.78 344.461H1222.17L1240.17 317Z" fill="white"/>
<path d="M834 458.471L946.826 344.655C947.577 343.897 948.6 343.471 949.667 343.471H1186" stroke="white" stroke-width="2" stroke-linecap="round"/>
<g filter="url(#filter6_f_62_3290)">
<path d="M790.607 591.981L817.184 564.86C819.065 562.941 821.639 561.859 824.326 561.859L986.926 561.859C992.448 561.859 996.926 566.337 996.926 571.859V700.494C996.926 703.132 995.883 705.664 994.024 707.537L963.724 738.075L932.359 769.564C930.482 771.448 927.933 772.507 925.274 772.507H764.532C759.009 772.507 754.532 768.029 754.532 762.507L754.53 633.71C754.53 631.135 755.524 628.659 757.304 626.798L790.607 591.981Z" fill="#FF5E01"/>
</g>
<path d="M824.326 562.359H986.926C992.172 562.359 996.426 566.613 996.426 571.859V700.493C996.426 703 995.434 705.405 993.669 707.185L963.369 737.723L932.005 769.211C930.222 771.001 927.8 772.007 925.274 772.007H764.531C759.285 772.007 755.031 767.753 755.031 762.507L755.03 633.71C755.03 631.264 755.974 628.911 757.665 627.144L790.964 592.33L790.965 592.331L817.541 565.21C819.328 563.387 821.773 562.359 824.326 562.359Z" fill="#FF5100" stroke="white"/>
<g filter="url(#filter7_f_62_3290)">
<path d="M799.356 599.711L822.899 575.686C824.78 573.767 827.354 572.686 830.041 572.686L974.469 572.686C979.991 572.686 984.469 577.163 984.469 582.686V696.647C984.469 699.286 983.426 701.817 981.567 703.69L954.68 730.789L926.84 758.739C924.963 760.623 922.414 761.682 919.755 761.682H776.988C771.466 761.682 766.989 757.205 766.988 751.682L766.987 637.564C766.987 634.988 767.981 632.512 769.761 630.651L799.356 599.711Z" fill="#FF833B"/>
</g>
<g filter="url(#filter8_d_62_3290)">
<path d="M799.356 599.711L822.899 575.686C824.78 573.767 827.354 572.686 830.041 572.686L974.469 572.686C979.991 572.686 984.469 577.163 984.469 582.686V696.647C984.469 699.286 983.426 701.817 981.567 703.69L954.68 730.789L926.84 758.739C924.963 760.623 922.414 761.682 919.755 761.682H776.988C771.466 761.682 766.989 757.205 766.988 751.682L766.987 637.564C766.987 634.988 767.981 632.512 769.761 630.651L799.356 599.711Z" fill="#FF5100"/>
<path d="M830.041 573.186H974.469C979.715 573.186 983.969 577.439 983.969 582.686V696.647C983.969 699.154 982.977 701.559 981.212 703.338L954.325 730.437L926.485 758.386C924.703 760.175 922.281 761.182 919.755 761.182H776.988C771.742 761.182 767.488 756.928 767.488 751.682L767.487 637.563C767.487 635.117 768.431 632.765 770.122 630.997L799.718 600.057L799.717 600.056L823.256 576.036C825.043 574.213 827.488 573.186 830.041 573.186Z" stroke="white"/>
</g>
<path d="M1324.47 709.23H1335.08L1317.08 736.691H1306.47L1324.47 709.23Z" fill="white"/>
<path d="M1338.77 709.23H1349.39L1331.39 736.691H1320.77L1338.77 709.23Z" fill="white"/>
<path d="M1353.08 709.23H1363.69L1345.69 736.691H1335.08L1353.08 709.23Z" fill="white"/>
<path d="M1367.39 709.23H1378L1360 736.691H1349.39L1367.39 709.23Z" fill="white"/>
<path d="M1013 691.955L1125.3 735.416C1125.76 735.594 1126.25 735.686 1126.75 735.686H1311.59" stroke="white" stroke-width="2" stroke-linecap="round"/>
<path d="M1293.25 458H1303.86L1285.86 485.461H1275.25L1293.25 458Z" fill="white"/>
<path d="M1307.56 458H1318.17L1300.17 485.461H1289.56L1307.56 458Z" fill="white"/>
<path d="M1321.86 458H1332.48L1314.48 485.461H1303.86L1321.86 458Z" fill="white"/>
<path d="M1336.17 458H1346.78L1328.78 485.461H1318.17L1336.17 458Z" fill="white"/>
<path d="M1006.5 593.169L1112.83 485.646C1113.58 484.887 1114.6 484.459 1115.67 484.459H1282" stroke="white" stroke-width="2" stroke-linecap="round"/>
<path d="M491.532 749.049H480.92L498.92 776.51H509.532L491.532 749.049Z" fill="white"/>
<path d="M477.226 749.049H466.614L484.614 776.51H495.226L477.226 749.049Z" fill="white"/>
<path d="M462.919 749.049H452.307L470.307 776.51H480.919L462.919 749.049Z" fill="white"/>
<path d="M448.612 749.049H438L456 776.51H466.612L448.612 749.049Z" fill="white"/>
<path d="M741 722.031L602.694 775.264C602.235 775.441 601.748 775.531 601.257 775.531H505" stroke="white" stroke-width="2" stroke-linecap="round"/>
<path d="M344.532 549.047H333.92L351.92 576.508H362.532L344.532 549.047Z" fill="white"/>
<path d="M330.226 549.047H319.614L337.614 576.508H348.226L330.226 549.047Z" fill="white"/>
<path d="M315.919 549.047H305.307L323.307 576.508H333.919L315.919 549.047Z" fill="white"/>
<path d="M301.612 549.047H291L309 576.508H319.612L301.612 549.047Z" fill="white"/>
<path d="M740.5 655.516L498.109 575.716C497.706 575.583 497.283 575.516 496.858 575.516H358" stroke="white" stroke-width="2" stroke-linecap="round"/>
<g filter="url(#filter9_f_62_3290)">
<path d="M618.606 828.981L645.183 801.86C647.064 799.941 649.638 798.859 652.325 798.859L814.925 798.859C820.447 798.859 824.925 803.337 824.925 808.859V937.494C824.925 940.132 823.882 942.664 822.023 944.537L791.723 975.075L760.358 1006.56C758.481 1008.45 755.932 1009.51 753.273 1009.51H592.531C587.008 1009.51 582.531 1005.03 582.531 999.507L582.529 870.71C582.529 868.135 583.523 865.659 585.303 863.798L618.606 828.981Z" fill="#FF5E01"/>
</g>
<path d="M652.325 799.359H814.925C820.171 799.359 824.425 803.613 824.425 808.859V937.493C824.425 940 823.434 942.405 821.668 944.185L791.368 974.723L760.004 1006.21C758.221 1008 755.799 1009.01 753.273 1009.01H592.53C587.284 1009.01 583.03 1004.75 583.03 999.507L583.029 870.71C583.029 868.264 583.973 865.911 585.664 864.144L618.963 829.33L618.964 829.331L645.54 802.21C647.327 800.387 649.772 799.359 652.325 799.359Z" fill="#FF5100" stroke="white"/>
<g filter="url(#filter10_f_62_3290)">
<path d="M627.355 836.711L650.898 812.686C652.779 810.767 655.353 809.686 658.04 809.686L802.468 809.686C807.99 809.686 812.468 814.163 812.468 819.686V933.647C812.468 936.286 811.425 938.817 809.566 940.69L782.679 967.789L754.839 995.739C752.962 997.623 750.413 998.682 747.754 998.682H604.988C599.465 998.682 594.988 994.205 594.988 988.682L594.986 874.564C594.986 871.988 595.98 869.512 597.76 867.651L627.355 836.711Z" fill="#FF833B"/>
</g>
<g filter="url(#filter11_d_62_3290)">
<path d="M627.355 836.711L650.898 812.686C652.779 810.767 655.353 809.686 658.04 809.686L802.468 809.686C807.99 809.686 812.468 814.163 812.468 819.686V933.647C812.468 936.286 811.425 938.817 809.566 940.69L782.679 967.789L754.839 995.739C752.962 997.623 750.413 998.682 747.754 998.682H604.988C599.465 998.682 594.988 994.205 594.988 988.682L594.986 874.564C594.986 871.988 595.98 869.512 597.76 867.651L627.355 836.711Z" fill="#FF5100"/>
<path d="M658.04 810.186H802.468C807.714 810.186 811.968 814.439 811.968 819.686V933.647C811.968 936.154 810.976 938.559 809.211 940.338L782.324 967.437L754.484 995.386C752.702 997.175 750.28 998.182 747.754 998.182H604.987C599.741 998.182 595.487 993.928 595.487 988.682L595.486 874.563C595.486 872.117 596.43 869.765 598.121 867.997L627.717 837.057L627.716 837.056L651.255 813.036C653.042 811.213 655.487 810.186 658.04 810.186Z" stroke="white"/>
</g>
<path d="M1098.47 1026.23H1109.08L1091.08 1053.69H1080.47L1098.47 1026.23Z" fill="white"/>
<path d="M1112.77 1026.23H1123.39L1105.39 1053.69H1094.77L1112.77 1026.23Z" fill="white"/>
<path d="M1127.08 1026.23H1137.69L1119.69 1053.69H1109.08L1127.08 1026.23Z" fill="white"/>
<path d="M1141.39 1026.23H1152L1134 1053.69H1123.39L1141.39 1026.23Z" fill="white"/>
<path d="M787 1008.96L932.94 1052.52C933.311 1052.64 933.697 1052.69 934.084 1052.69H1085.59" stroke="white" stroke-width="2" stroke-linecap="round"/>
<path d="M1252.75 714H1263.36L1245.36 741.461H1234.75L1252.75 714Z" fill="white"/>
<path d="M1267.06 714H1277.67L1259.67 741.461H1249.06L1267.06 714Z" fill="white"/>
<path d="M1281.36 714H1291.98L1273.98 741.461H1263.36L1281.36 714Z" fill="white"/>
<path d="M1295.67 714H1306.28L1288.28 741.461H1277.67L1295.67 714Z" fill="white"/>
<path d="M850 848.19L1072.68 740.877C1073.22 740.616 1073.81 740.48 1074.41 740.48H1241.5" stroke="white" stroke-width="2" stroke-linecap="round"/>
<path d="M53.5322 971.047H42.9202L60.9202 998.508H71.5322L53.5322 971.047Z" fill="white"/>
<path d="M39.2256 971.047H28.6135L46.6135 998.508H57.2256L39.2256 971.047Z" fill="white"/>
<path d="M24.9189 971.047H14.3069L32.3069 998.508H42.9189L24.9189 971.047Z" fill="white"/>
<path d="M10.6123 971.047H0.00025177L18.0002 998.508H28.6123L10.6123 971.047Z" fill="white"/>
<path d="M565.5 939.502L414.691 997.238C414.234 997.412 413.749 997.502 413.26 997.502H67" stroke="white" stroke-width="2" stroke-linecap="round"/>
<path d="M1070.97 864.996H1081.58L1063.58 892.457H1052.97L1070.97 864.996Z" fill="white"/>
<path d="M1085.27 864.996H1095.89L1077.89 892.457H1067.27L1085.27 864.996Z" fill="white"/>
<path d="M1099.58 864.996H1110.19L1092.19 892.457H1081.58L1099.58 864.996Z" fill="white"/>
<path d="M1113.89 864.996H1124.5L1106.5 892.457H1095.89L1113.89 864.996Z" fill="white"/>
<path d="M841 936.461L959.819 891.718C960.269 891.548 960.747 891.461 961.228 891.461H1057.5" stroke="white" stroke-width="2" stroke-linecap="round"/>
<path d="M80.5312 771.047H69.9192L87.9192 798.508H98.5312L80.5312 771.047Z" fill="white"/>
<path d="M66.2246 771.047H55.6126L73.6126 798.508H84.2246L66.2246 771.047Z" fill="white"/>
<path d="M51.918 771.047H41.3059L59.3059 798.508H69.918L51.918 771.047Z" fill="white"/>
<path d="M37.6113 771.047H26.9993L44.9993 798.508H55.6113L37.6113 771.047Z" fill="white"/>
<path d="M562 884.031L295.1 797.725C294.702 797.597 294.287 797.531 293.869 797.531H93.999" stroke="white" stroke-width="2" stroke-linecap="round"/>
<path d="M319.532 656H308.92L326.92 683.461H337.532L319.532 656Z" fill="white"/>
<path d="M305.226 656H294.614L312.614 683.461H323.226L305.226 656Z" fill="white"/>
<path d="M290.919 656H280.307L298.307 683.461H308.919L290.919 656Z" fill="white"/>
<path d="M276.612 656H266L284 683.461H294.612L276.612 656Z" fill="white"/>
<path d="M617.406 797.469L506.083 683.672C505.33 682.902 504.3 682.469 503.224 682.469H332.406" stroke="white" stroke-width="2" stroke-linecap="round"/>
<g filter="url(#filter12_f_62_3290)">
<path d="M448.077 1079.12L474.654 1052C476.534 1050.08 479.109 1049 481.796 1049L644.395 1049C649.918 1049 654.395 1053.48 654.395 1059V1187.63C654.395 1190.27 653.352 1192.8 651.494 1194.68L621.194 1225.22L589.829 1256.7C587.952 1258.59 585.403 1259.65 582.744 1259.65H422.001C416.479 1259.65 412.001 1255.17 412.001 1249.65L412 1120.85C412 1118.28 412.994 1115.8 414.774 1113.94L448.077 1079.12Z" fill="#FF5E01"/>
</g>
<path d="M481.796 1049.5H644.396C649.642 1049.5 653.896 1053.75 653.896 1059V1187.63C653.896 1190.14 652.904 1192.55 651.139 1194.33L620.839 1224.86L589.475 1256.35C587.692 1258.14 585.27 1259.15 582.744 1259.15H422.001C416.755 1259.15 412.501 1254.89 412.501 1249.65L412.5 1120.85C412.5 1118.4 413.444 1116.05 415.135 1114.28L448.434 1079.47L448.435 1079.47L475.011 1052.35C476.798 1050.53 479.243 1049.5 481.796 1049.5Z" fill="#FF5100" stroke="white"/>
<g filter="url(#filter13_f_62_3290)">
<path d="M456.826 1086.85L480.369 1062.83C482.249 1060.91 484.824 1059.83 487.511 1059.83L631.938 1059.83C637.461 1059.83 641.938 1064.3 641.938 1069.83V1183.79C641.938 1186.43 640.895 1188.96 639.037 1190.83L612.149 1217.93L584.309 1245.88C582.433 1247.76 579.883 1248.82 577.224 1248.82H434.458C428.935 1248.82 424.458 1244.35 424.458 1238.82L424.457 1124.7C424.457 1122.13 425.451 1119.65 427.231 1117.79L456.826 1086.85Z" fill="#FF833B"/>
</g>
<g filter="url(#filter14_d_62_3290)">
<path d="M456.826 1086.85L480.369 1062.83C482.249 1060.91 484.824 1059.83 487.511 1059.83L631.938 1059.83C637.461 1059.83 641.938 1064.3 641.938 1069.83V1183.79C641.938 1186.43 640.895 1188.96 639.037 1190.83L612.149 1217.93L584.309 1245.88C582.433 1247.76 579.883 1248.82 577.224 1248.82H434.458C428.935 1248.82 424.458 1244.35 424.458 1238.82L424.457 1124.7C424.457 1122.13 425.451 1119.65 427.231 1117.79L456.826 1086.85Z" fill="#FF5100"/>
<path d="M487.511 1060.33H631.938C637.185 1060.33 641.438 1064.58 641.438 1069.83V1183.79C641.438 1186.29 640.447 1188.7 638.682 1190.48L611.795 1217.58L583.955 1245.53C582.172 1247.32 579.751 1248.32 577.225 1248.32H434.458C429.211 1248.32 424.958 1244.07 424.958 1238.82L424.957 1124.7C424.957 1122.26 425.901 1119.91 427.592 1118.14L457.188 1087.2L457.187 1087.2L480.726 1063.18C482.512 1061.35 484.958 1060.33 487.511 1060.33Z" stroke="white"/>
</g>
<g filter="url(#filter15_f_62_3290)">
<path d="M621.605 1298.98L648.182 1271.86C650.063 1269.94 652.637 1268.86 655.324 1268.86L817.924 1268.86C823.447 1268.86 827.924 1273.34 827.924 1278.86V1407.49C827.924 1410.13 826.881 1412.66 825.022 1414.54L794.722 1445.08L763.357 1476.56C761.481 1478.45 758.931 1479.51 756.272 1479.51H595.53C590.007 1479.51 585.53 1475.03 585.53 1469.51L585.528 1340.71C585.528 1338.13 586.522 1335.66 588.302 1333.8L621.605 1298.98Z" fill="#FF5E01"/>
</g>
<path d="M655.324 1269.36H817.924C823.17 1269.36 827.424 1273.61 827.424 1278.86V1407.49C827.424 1410 826.433 1412.41 824.667 1414.18L794.367 1444.72L763.003 1476.21C761.22 1478 758.798 1479.01 756.272 1479.01H595.529C590.283 1479.01 586.029 1474.75 586.029 1469.51L586.028 1340.71C586.028 1338.26 586.972 1335.91 588.663 1334.14L621.962 1299.33L621.963 1299.33L648.539 1272.21C650.326 1270.39 652.771 1269.36 655.324 1269.36Z" fill="#FF5100" stroke="white"/>
<g filter="url(#filter16_f_62_3290)">
<path d="M630.354 1306.71L653.897 1282.69C655.778 1280.77 658.352 1279.69 661.039 1279.69L805.467 1279.69C810.989 1279.69 815.467 1284.16 815.467 1289.69V1403.65C815.467 1406.29 814.424 1408.82 812.565 1410.69L785.678 1437.79L757.838 1465.74C755.961 1467.62 753.412 1468.68 750.753 1468.68H607.987C602.464 1468.68 597.987 1464.2 597.987 1458.68L597.985 1344.56C597.985 1341.99 598.979 1339.51 600.759 1337.65L630.354 1306.71Z" fill="#FF833B"/>
</g>
<g filter="url(#filter17_d_62_3290)">
<path d="M630.354 1306.71L653.897 1282.69C655.778 1280.77 658.352 1279.69 661.039 1279.69L805.467 1279.69C810.989 1279.69 815.467 1284.16 815.467 1289.69V1403.65C815.467 1406.29 814.424 1408.82 812.565 1410.69L785.678 1437.79L757.838 1465.74C755.961 1467.62 753.412 1468.68 750.753 1468.68H607.987C602.464 1468.68 597.987 1464.2 597.987 1458.68L597.985 1344.56C597.985 1341.99 598.979 1339.51 600.759 1337.65L630.354 1306.71Z" fill="#FF5100"/>
<path d="M661.039 1280.19H805.467C810.713 1280.19 814.967 1284.44 814.967 1289.69V1403.65C814.967 1406.15 813.975 1408.56 812.21 1410.34L785.323 1437.44L757.483 1465.39C755.701 1467.18 753.279 1468.18 750.753 1468.18H607.986C602.74 1468.18 598.486 1463.93 598.486 1458.68L598.485 1344.56C598.485 1342.12 599.429 1339.76 601.12 1338L630.716 1307.06L630.715 1307.06L654.254 1283.04C656.041 1281.21 658.486 1280.19 661.039 1280.19Z" stroke="white"/>
</g>
<path d="M1100 1496.73H1110.61L1092.61 1524.19H1082L1100 1496.73Z" fill="white"/>
<path d="M1114.3 1496.73H1124.92L1106.92 1524.19H1096.3L1114.3 1496.73Z" fill="white"/>
<path d="M1128.61 1496.73H1139.22L1121.22 1524.19H1110.61L1128.61 1496.73Z" fill="white"/>
<path d="M1142.92 1496.73H1153.53L1135.53 1524.19H1124.92L1142.92 1496.73Z" fill="white"/>
<path d="M787.997 1479.47L900.3 1522.93C900.761 1523.11 901.25 1523.2 901.744 1523.2H1086.59" stroke="white" stroke-width="2" stroke-linecap="round"/>
<path d="M1299.75 1180H1310.36L1292.36 1207.46H1281.75L1299.75 1180Z" fill="white"/>
<path d="M1314.06 1180H1324.67L1306.67 1207.46H1296.06L1314.06 1180Z" fill="white"/>
<path d="M1328.36 1180H1338.97L1320.97 1207.46H1310.36L1328.36 1180Z" fill="white"/>
<path d="M1342.67 1180H1353.28L1335.28 1207.46H1324.67L1342.67 1180Z" fill="white"/>
<path d="M840.998 1315.17L947.324 1207.65C948.075 1206.89 949.099 1206.46 950.168 1206.46H1288.5" stroke="white" stroke-width="2" stroke-linecap="round"/>
<path d="M196.529 1509.05H185.917L203.917 1536.51H214.529L196.529 1509.05Z" fill="white"/>
<path d="M182.223 1509.05H171.611L189.611 1536.51H200.223L182.223 1509.05Z" fill="white"/>
<path d="M167.916 1509.05H157.304L175.304 1536.51H185.916L167.916 1509.05Z" fill="white"/>
<path d="M153.609 1509.05H142.997L160.997 1536.51H171.609L153.609 1509.05Z" fill="white"/>
<path d="M570.497 1455.51L417.865 1535.05C417.294 1535.35 416.66 1535.51 416.016 1535.51H209.996" stroke="white" stroke-width="2" stroke-linecap="round"/>
<path d="M120.532 1325H109.92L127.92 1352.46H138.532L120.532 1325Z" fill="white"/>
<path d="M106.226 1325H95.6135L113.614 1352.46H124.226L106.226 1325Z" fill="white"/>
<path d="M91.9189 1325H81.3069L99.3069 1352.46H109.919L91.9189 1325Z" fill="white"/>
<path d="M77.6123 1325H67.0003L85.0002 1352.46H95.6123L77.6123 1325Z" fill="white"/>
<path d="M570.023 1414.02L325.009 1351.59C324.687 1351.51 324.355 1351.46 324.022 1351.46H134.025" stroke="white" stroke-width="2" stroke-linecap="round"/>
<defs>
<filter id="filter0_f_62_3290" x="403.53" y="109.129" width="258.396" height="226.646" filterUnits="userSpaceOnUse" color-interpolation-filters="sRGB">
<feFlood flood-opacity="0" result="BackgroundImageFix"/>
<feBlend mode="normal" in="SourceGraphic" in2="BackgroundImageFix" result="shape"/>
<feGaussianBlur stdDeviation="4" result="effect1_foregroundBlur_62_3290"/>
</filter>
<filter id="filter1_f_62_3290" x="387.087" y="91.0551" width="291.281" height="262.796" filterUnits="userSpaceOnUse" color-interpolation-filters="sRGB">
<feFlood flood-opacity="0" result="BackgroundImageFix"/>
<feBlend mode="normal" in="SourceGraphic" in2="BackgroundImageFix" result="shape"/>
<feGaussianBlur stdDeviation="18.45" result="effect1_foregroundBlur_62_3290"/>
</filter>
<filter id="filter2_d_62_3290" x="398.287" y="103.255" width="274.881" height="246.396" filterUnits="userSpaceOnUse" color-interpolation-filters="sRGB">
<feFlood flood-opacity="0" result="BackgroundImageFix"/>
<feColorMatrix in="SourceAlpha" type="matrix" values="0 0 0 0 0 0 0 0 0 0 0 0 0 0 0 0 0 0 127 0" result="hardAlpha"/>
<feOffset dx="3" dy="4"/>
<feGaussianBlur stdDeviation="14.35"/>
<feComposite in2="hardAlpha" operator="out"/>
<feColorMatrix type="matrix" values="0 0 0 0 1 0 0 0 0 1 0 0 0 0 1 0 0 0 0.25 0"/>
<feBlend mode="normal" in2="BackgroundImageFix" result="effect1_dropShadow_62_3290"/>
<feBlend mode="normal" in="SourceGraphic" in2="effect1_dropShadow_62_3290" result="shape"/>
</filter>
<filter id="filter3_f_62_3290" x="570.53" y="326.465" width="258.396" height="226.646" filterUnits="userSpaceOnUse" color-interpolation-filters="sRGB">
<feFlood flood-opacity="0" result="BackgroundImageFix"/>
<feBlend mode="normal" in="SourceGraphic" in2="BackgroundImageFix" result="shape"/>
<feGaussianBlur stdDeviation="4" result="effect1_foregroundBlur_62_3290"/>
</filter>
<filter id="filter4_f_62_3290" x="554.087" y="308.391" width="291.281" height="262.796" filterUnits="userSpaceOnUse" color-interpolation-filters="sRGB">
<feFlood flood-opacity="0" result="BackgroundImageFix"/>
<feBlend mode="normal" in="SourceGraphic" in2="BackgroundImageFix" result="shape"/>
<feGaussianBlur stdDeviation="18.45" result="effect1_foregroundBlur_62_3290"/>
</filter>
<filter id="filter5_d_62_3290" x="565.287" y="320.591" width="274.881" height="246.396" filterUnits="userSpaceOnUse" color-interpolation-filters="sRGB">
<feFlood flood-opacity="0" result="BackgroundImageFix"/>
<feColorMatrix in="SourceAlpha" type="matrix" values="0 0 0 0 0 0 0 0 0 0 0 0 0 0 0 0 0 0 127 0" result="hardAlpha"/>
<feOffset dx="3" dy="4"/>
<feGaussianBlur stdDeviation="14.35"/>
<feComposite in2="hardAlpha" operator="out"/>
<feColorMatrix type="matrix" values="0 0 0 0 1 0 0 0 0 1 0 0 0 0 1 0 0 0 0.25 0"/>
<feBlend mode="normal" in2="BackgroundImageFix" result="effect1_dropShadow_62_3290"/>
<feBlend mode="normal" in="SourceGraphic" in2="effect1_dropShadow_62_3290" result="shape"/>
</filter>
<filter id="filter6_f_62_3290" x="746.53" y="553.859" width="258.396" height="226.646" filterUnits="userSpaceOnUse" color-interpolation-filters="sRGB">
<feFlood flood-opacity="0" result="BackgroundImageFix"/>
<feBlend mode="normal" in="SourceGraphic" in2="BackgroundImageFix" result="shape"/>
<feGaussianBlur stdDeviation="4" result="effect1_foregroundBlur_62_3290"/>
</filter>
<filter id="filter7_f_62_3290" x="730.087" y="535.786" width="291.281" height="262.796" filterUnits="userSpaceOnUse" color-interpolation-filters="sRGB">
<feFlood flood-opacity="0" result="BackgroundImageFix"/>
<feBlend mode="normal" in="SourceGraphic" in2="BackgroundImageFix" result="shape"/>
<feGaussianBlur stdDeviation="18.45" result="effect1_foregroundBlur_62_3290"/>
</filter>
<filter id="filter8_d_62_3290" x="741.287" y="547.986" width="274.881" height="246.396" filterUnits="userSpaceOnUse" color-interpolation-filters="sRGB">
<feFlood flood-opacity="0" result="BackgroundImageFix"/>
<feColorMatrix in="SourceAlpha" type="matrix" values="0 0 0 0 0 0 0 0 0 0 0 0 0 0 0 0 0 0 127 0" result="hardAlpha"/>
<feOffset dx="3" dy="4"/>
<feGaussianBlur stdDeviation="14.35"/>
<feComposite in2="hardAlpha" operator="out"/>
<feColorMatrix type="matrix" values="0 0 0 0 1 0 0 0 0 1 0 0 0 0 1 0 0 0 0.25 0"/>
<feBlend mode="normal" in2="BackgroundImageFix" result="effect1_dropShadow_62_3290"/>
<feBlend mode="normal" in="SourceGraphic" in2="effect1_dropShadow_62_3290" result="shape"/>
</filter>
<filter id="filter9_f_62_3290" x="574.529" y="790.859" width="258.396" height="226.646" filterUnits="userSpaceOnUse" color-interpolation-filters="sRGB">
<feFlood flood-opacity="0" result="BackgroundImageFix"/>
<feBlend mode="normal" in="SourceGraphic" in2="BackgroundImageFix" result="shape"/>
<feGaussianBlur stdDeviation="4" result="effect1_foregroundBlur_62_3290"/>
</filter>
<filter id="filter10_f_62_3290" x="558.086" y="772.786" width="291.281" height="262.796" filterUnits="userSpaceOnUse" color-interpolation-filters="sRGB">
<feFlood flood-opacity="0" result="BackgroundImageFix"/>
<feBlend mode="normal" in="SourceGraphic" in2="BackgroundImageFix" result="shape"/>
<feGaussianBlur stdDeviation="18.45" result="effect1_foregroundBlur_62_3290"/>
</filter>
<filter id="filter11_d_62_3290" x="569.286" y="784.986" width="274.881" height="246.396" filterUnits="userSpaceOnUse" color-interpolation-filters="sRGB">
<feFlood flood-opacity="0" result="BackgroundImageFix"/>
<feColorMatrix in="SourceAlpha" type="matrix" values="0 0 0 0 0 0 0 0 0 0 0 0 0 0 0 0 0 0 127 0" result="hardAlpha"/>
<feOffset dx="3" dy="4"/>
<feGaussianBlur stdDeviation="14.35"/>
<feComposite in2="hardAlpha" operator="out"/>
<feColorMatrix type="matrix" values="0 0 0 0 1 0 0 0 0 1 0 0 0 0 1 0 0 0 0.25 0"/>
<feBlend mode="normal" in2="BackgroundImageFix" result="effect1_dropShadow_62_3290"/>
<feBlend mode="normal" in="SourceGraphic" in2="effect1_dropShadow_62_3290" result="shape"/>
</filter>
<filter id="filter12_f_62_3290" x="404" y="1041" width="258.396" height="226.646" filterUnits="userSpaceOnUse" color-interpolation-filters="sRGB">
<feFlood flood-opacity="0" result="BackgroundImageFix"/>
<feBlend mode="normal" in="SourceGraphic" in2="BackgroundImageFix" result="shape"/>
<feGaussianBlur stdDeviation="4" result="effect1_foregroundBlur_62_3290"/>
</filter>
<filter id="filter13_f_62_3290" x="387.557" y="1022.93" width="291.281" height="262.796" filterUnits="userSpaceOnUse" color-interpolation-filters="sRGB">
<feFlood flood-opacity="0" result="BackgroundImageFix"/>
<feBlend mode="normal" in="SourceGraphic" in2="BackgroundImageFix" result="shape"/>
<feGaussianBlur stdDeviation="18.45" result="effect1_foregroundBlur_62_3290"/>
</filter>
<filter id="filter14_d_62_3290" x="398.757" y="1035.13" width="274.881" height="246.396" filterUnits="userSpaceOnUse" color-interpolation-filters="sRGB">
<feFlood flood-opacity="0" result="BackgroundImageFix"/>
<feColorMatrix in="SourceAlpha" type="matrix" values="0 0 0 0 0 0 0 0 0 0 0 0 0 0 0 0 0 0 127 0" result="hardAlpha"/>
<feOffset dx="3" dy="4"/>
<feGaussianBlur stdDeviation="14.35"/>
<feComposite in2="hardAlpha" operator="out"/>
<feColorMatrix type="matrix" values="0 0 0 0 1 0 0 0 0 1 0 0 0 0 1 0 0 0 0.25 0"/>
<feBlend mode="normal" in2="BackgroundImageFix" result="effect1_dropShadow_62_3290"/>
<feBlend mode="normal" in="SourceGraphic" in2="effect1_dropShadow_62_3290" result="shape"/>
</filter>
<filter id="filter15_f_62_3290" x="577.528" y="1260.86" width="258.396" height="226.646" filterUnits="userSpaceOnUse" color-interpolation-filters="sRGB">
<feFlood flood-opacity="0" result="BackgroundImageFix"/>
<feBlend mode="normal" in="SourceGraphic" in2="BackgroundImageFix" result="shape"/>
<feGaussianBlur stdDeviation="4" result="effect1_foregroundBlur_62_3290"/>
</filter>
<filter id="filter16_f_62_3290" x="561.085" y="1242.79" width="291.281" height="262.796" filterUnits="userSpaceOnUse" color-interpolation-filters="sRGB">
<feFlood flood-opacity="0" result="BackgroundImageFix"/>
<feBlend mode="normal" in="SourceGraphic" in2="BackgroundImageFix" result="shape"/>
<feGaussianBlur stdDeviation="18.45" result="effect1_foregroundBlur_62_3290"/>
</filter>
<filter id="filter17_d_62_3290" x="572.285" y="1254.99" width="274.881" height="246.396" filterUnits="userSpaceOnUse" color-interpolation-filters="sRGB">
<feFlood flood-opacity="0" result="BackgroundImageFix"/>
<feColorMatrix in="SourceAlpha" type="matrix" values="0 0 0 0 0 0 0 0 0 0 0 0 0 0 0 0 0 0 127 0" result="hardAlpha"/>
<feOffset dx="3" dy="4"/>
<feGaussianBlur stdDeviation="14.35"/>
<feComposite in2="hardAlpha" operator="out"/>
<feColorMatrix type="matrix" values="0 0 0 0 1 0 0 0 0 1 0 0 0 0 1 0 0 0 0.25 0"/>
<feBlend mode="normal" in2="BackgroundImageFix" result="effect1_dropShadow_62_3290"/>
<feBlend mode="normal" in="SourceGraphic" in2="effect1_dropShadow_62_3290" result="shape"/>
</filter>
</defs>
</svg>
