<svg width="1493" height="2609" viewBox="0 0 1493 2609" fill="none" xmlns="http://www.w3.org/2000/svg">
<g filter="url(#filter0_f_194_7)">
<path d="M487.147 147.647L513.724 120.526C515.605 118.607 518.179 117.525 520.866 117.525L683.466 117.525C688.988 117.525 693.466 122.003 693.466 127.525V256.16C693.466 258.798 692.423 261.33 690.564 263.203L660.264 293.741L628.899 325.23C627.022 327.114 624.473 328.173 621.814 328.173H461.072C455.549 328.173 451.072 323.696 451.072 318.173L451.07 189.376C451.07 186.801 452.064 184.325 453.844 182.464L487.147 147.647Z" fill="#FF5E01"/>
</g>
<path d="M520.866 118.025H683.466C688.712 118.025 692.966 122.279 692.966 127.525V256.159C692.966 258.666 691.975 261.071 690.209 262.851L659.909 293.389L628.545 324.877C626.762 326.667 624.34 327.673 621.814 327.673H461.071C455.825 327.673 451.571 323.419 451.571 318.173L451.57 189.376C451.57 186.93 452.514 184.578 454.205 182.81L487.504 147.996L487.505 147.997L514.081 120.876C515.868 119.053 518.313 118.025 520.866 118.025Z" fill="#FF5100" stroke="white"/>
<g filter="url(#filter1_f_194_7)">
<path d="M495.896 155.377L519.439 131.352C521.32 129.433 523.894 128.351 526.581 128.351L671.009 128.351C676.531 128.351 681.009 132.828 681.009 138.351V252.313C681.009 254.951 679.966 257.483 678.107 259.356L651.22 286.455L623.38 314.405C621.503 316.288 618.954 317.347 616.295 317.347H473.529C468.006 317.347 463.529 312.87 463.529 307.347L463.527 193.229C463.527 190.654 464.521 188.178 466.301 186.317L495.896 155.377Z" fill="#FF833B"/>
</g>
<g filter="url(#filter2_d_194_7)">
<path d="M495.896 155.376L519.439 131.352C521.32 129.432 523.894 128.351 526.581 128.351L671.009 128.351C676.531 128.351 681.009 132.828 681.009 138.351V252.312C681.009 254.951 679.966 257.482 678.107 259.355L651.22 286.455L623.38 314.404C621.503 316.288 618.954 317.347 616.295 317.347H473.529C468.006 317.347 463.529 312.87 463.529 307.347L463.527 193.229C463.527 190.653 464.521 188.177 466.301 186.316L495.896 155.376Z" fill="#FF5100"/>
<path d="M526.581 128.851H671.009C676.255 128.851 680.509 133.104 680.509 138.351V252.312C680.509 254.819 679.517 257.224 677.752 259.003L650.865 286.102L623.025 314.051C621.243 315.84 618.821 316.847 616.295 316.847H473.528C468.282 316.847 464.028 312.593 464.028 307.347L464.027 193.229C464.027 190.782 464.971 188.43 466.662 186.662L496.258 155.722L496.257 155.721L519.796 131.701C521.583 129.878 524.028 128.851 526.581 128.851Z" stroke="white"/>
</g>
<path d="M192.07 0.396484H181.458L199.458 27.8575H210.07L192.07 0.396484Z" fill="white"/>
<path d="M177.764 0.396484H167.152L185.152 27.8575H195.764L177.764 0.396484Z" fill="white"/>
<path d="M163.457 0.396484H152.845L170.845 27.8575H181.457L163.457 0.396484Z" fill="white"/>
<path d="M149.15 0.396484H138.538L156.538 27.8575H167.15L149.15 0.396484Z" fill="white"/>
<path d="M480.039 141.896L368.716 28.0993C367.963 27.3301 366.933 26.8965 365.856 26.8965H205.039" stroke="white" stroke-width="2" stroke-linecap="round"/>
<path d="M1157.54 64.3965H1168.15L1150.15 91.8575H1139.54L1157.54 64.3965Z" fill="white"/>
<path d="M1171.85 64.3965H1182.46L1164.46 91.8575H1153.85L1171.85 64.3965Z" fill="white"/>
<path d="M1186.15 64.3965H1196.76L1178.76 91.8575H1168.15L1186.15 64.3965Z" fill="white"/>
<path d="M1200.46 64.3965H1211.07L1193.07 91.8575H1182.46L1200.46 64.3965Z" fill="white"/>
<path d="M704.039 205.875L816.865 92.0585C817.617 91.3007 818.639 90.8745 819.706 90.8745H1146.04" stroke="white" stroke-width="2" stroke-linecap="round"/>
<path d="M106.07 300.396H95.4583L113.458 327.857H124.07L106.07 300.396Z" fill="white"/>
<path d="M91.7637 300.396H81.1516L99.1516 327.857H109.764L91.7637 300.396Z" fill="white"/>
<path d="M77.457 300.396H66.845L84.845 327.857H95.457L77.457 300.396Z" fill="white"/>
<path d="M63.1504 300.396H52.5383L70.5383 327.857H81.1504L63.1504 300.396Z" fill="white"/>
<path d="M441.039 268.359L291.74 326.586C291.277 326.766 290.784 326.859 290.287 326.859H119.539" stroke="white" stroke-width="2" stroke-linecap="round"/>
<g filter="url(#filter3_f_194_7)">
<path d="M638.147 598.595L664.724 571.475C666.605 569.555 669.179 568.474 671.866 568.474L834.466 568.474C839.988 568.474 844.466 572.951 844.466 578.474V707.108C844.466 709.746 843.423 712.278 841.564 714.151L811.264 744.69L779.899 776.178C778.022 778.062 775.473 779.121 772.814 779.121H612.072C606.549 779.121 602.072 774.644 602.072 769.121L602.07 640.324C602.07 637.749 603.064 635.273 604.844 633.412L638.147 598.595Z" fill="#FF5E01"/>
</g>
<path d="M671.866 568.974H834.466C839.712 568.974 843.966 573.227 843.966 578.474V707.107C843.966 709.614 842.975 712.019 841.209 713.799L810.909 744.337L779.545 775.825C777.762 777.615 775.34 778.621 772.814 778.621H612.071C606.825 778.621 602.571 774.368 602.571 769.121L602.57 640.324C602.57 637.878 603.514 635.526 605.205 633.758L638.504 598.944L638.505 598.945L665.081 571.824C666.868 570.001 669.313 568.974 671.866 568.974Z" fill="#FF5100" stroke="white"/>
<g filter="url(#filter4_f_194_7)">
<path d="M646.896 606.325L670.439 582.3C672.32 580.381 674.894 579.299 677.581 579.299L822.009 579.299C827.531 579.299 832.009 583.776 832.009 589.299V703.261C832.009 705.899 830.966 708.431 829.107 710.304L802.22 737.403L774.38 765.353C772.503 767.237 769.954 768.296 767.295 768.296H624.529C619.006 768.296 614.529 763.819 614.529 758.296L614.527 644.177C614.527 641.602 615.521 639.126 617.301 637.265L646.896 606.325Z" fill="#FF833B"/>
</g>
<g filter="url(#filter5_d_194_7)">
<path d="M646.896 606.324L670.439 582.3C672.32 580.38 674.894 579.299 677.581 579.299L822.009 579.299C827.531 579.299 832.009 583.776 832.009 589.299V703.26C832.009 705.899 830.966 708.431 829.107 710.304L802.22 737.403L774.38 765.352C772.503 767.236 769.954 768.295 767.295 768.295H624.529C619.006 768.295 614.529 763.818 614.529 758.295L614.527 644.177C614.527 641.602 615.521 639.125 617.301 637.264L646.896 606.324Z" fill="#FF5100"/>
<path d="M677.581 579.799H822.009C827.255 579.799 831.509 584.052 831.509 589.299V703.261C831.509 705.767 830.517 708.172 828.752 709.951L801.865 737.05L774.025 764.999C772.243 766.789 769.821 767.795 767.295 767.795H624.528C619.282 767.795 615.028 763.542 615.028 758.295L615.027 644.177C615.027 641.73 615.971 639.378 617.662 637.61L647.258 606.67L647.257 606.669L670.796 582.649C672.583 580.826 675.028 579.799 677.581 579.799Z" stroke="white"/>
</g>
<path d="M1173.08 697.19H1183.69L1165.69 724.651H1155.08L1173.08 697.19Z" fill="white"/>
<path d="M1187.39 697.19H1198L1180 724.651H1169.39L1187.39 697.19Z" fill="white"/>
<path d="M1201.7 697.19H1212.31L1194.31 724.651H1183.7L1201.7 697.19Z" fill="white"/>
<path d="M1216 697.19H1226.61L1208.61 724.651H1198L1216 697.19Z" fill="white"/>
<path d="M861.615 679.916L973.919 723.377C974.379 723.555 974.869 723.646 975.362 723.646H1160.21" stroke="white" stroke-width="2" stroke-linecap="round"/>
<path d="M1141.87 445.96H1152.48L1134.48 473.421H1123.87L1141.87 445.96Z" fill="white"/>
<path d="M1156.17 445.96H1166.78L1148.78 473.421H1138.17L1156.17 445.96Z" fill="white"/>
<path d="M1170.48 445.96H1181.09L1163.09 473.421H1152.48L1170.48 445.96Z" fill="white"/>
<path d="M1184.79 445.96H1195.4L1177.4 473.421H1166.79L1184.79 445.96Z" fill="white"/>
<path d="M855.115 581.128L961.441 473.605C962.192 472.846 963.217 472.418 964.285 472.418H1130.62" stroke="white" stroke-width="2" stroke-linecap="round"/>
<path d="M340.145 737.008H329.532L347.532 764.469H358.145L340.145 737.008Z" fill="white"/>
<path d="M325.838 737.008H315.226L333.226 764.469H343.838L325.838 737.008Z" fill="white"/>
<path d="M311.531 737.008H300.919L318.919 764.469H329.531L311.531 737.008Z" fill="white"/>
<path d="M297.225 737.008H286.613L304.613 764.469H315.225L297.225 737.008Z" fill="white"/>
<path d="M589.613 709.991L451.307 763.224C450.848 763.4 450.361 763.491 449.87 763.491H353.613" stroke="white" stroke-width="2" stroke-linecap="round"/>
<path d="M193.145 537.008H182.532L200.532 564.469H211.145L193.145 537.008Z" fill="white"/>
<path d="M178.838 537.008H168.226L186.226 564.469H196.838L178.838 537.008Z" fill="white"/>
<path d="M164.531 537.008H153.919L171.919 564.469H182.531L164.531 537.008Z" fill="white"/>
<path d="M150.225 537.008H139.613L157.613 564.469H168.225L150.225 537.008Z" fill="white"/>
<path d="M591.018 661.405L346.828 563.763C346.356 563.574 345.852 563.477 345.343 563.477H206.613" stroke="white" stroke-width="2" stroke-linecap="round"/>
<g filter="url(#filter6_f_194_7)">
<path d="M803.515 1049.54L830.091 1022.42C831.972 1020.5 834.546 1019.42 837.233 1019.42L999.833 1019.42C1005.36 1019.42 1009.83 1023.9 1009.83 1029.42V1158.06C1009.83 1160.69 1008.79 1163.23 1006.93 1165.1L976.631 1195.64L945.266 1227.13C943.39 1229.01 940.84 1230.07 938.181 1230.07H777.439C771.916 1230.07 767.439 1225.59 767.439 1220.07L767.438 1091.27C767.438 1088.7 768.431 1086.22 770.211 1084.36L803.515 1049.54Z" fill="#FF5E01"/>
</g>
<path d="M837.233 1019.92H999.833C1005.08 1019.92 1009.33 1024.18 1009.33 1029.42V1158.06C1009.33 1160.56 1008.34 1162.97 1006.58 1164.75L976.276 1195.29L944.912 1226.77C943.13 1228.56 940.708 1229.57 938.182 1229.57H777.438C772.192 1229.57 767.939 1225.32 767.938 1220.07L767.938 1091.27C767.937 1088.83 768.881 1086.47 770.572 1084.71L803.871 1049.89L803.872 1049.89L830.448 1022.77C832.235 1020.95 834.681 1019.92 837.233 1019.92Z" fill="#FF5100" stroke="white"/>
<g filter="url(#filter7_f_194_7)">
<path d="M812.263 1057.27L835.806 1033.25C837.687 1031.33 840.261 1030.25 842.948 1030.25L987.376 1030.25C992.899 1030.25 997.376 1034.72 997.376 1040.25V1154.21C997.376 1156.85 996.333 1159.38 994.474 1161.25L967.587 1188.35L939.747 1216.3C937.87 1218.18 935.321 1219.24 932.662 1219.24H789.896C784.373 1219.24 779.896 1214.77 779.896 1209.24L779.895 1095.13C779.895 1092.55 780.888 1090.07 782.668 1088.21L812.263 1057.27Z" fill="#FF833B"/>
</g>
<g filter="url(#filter8_d_194_7)">
<path d="M812.263 1057.27L835.806 1033.25C837.687 1031.33 840.261 1030.25 842.948 1030.25L987.376 1030.25C992.899 1030.25 997.376 1034.72 997.376 1040.25V1154.21C997.376 1156.85 996.333 1159.38 994.474 1161.25L967.587 1188.35L939.747 1216.3C937.87 1218.18 935.321 1219.24 932.662 1219.24H789.896C784.373 1219.24 779.896 1214.77 779.896 1209.24L779.895 1095.13C779.895 1092.55 780.888 1090.07 782.668 1088.21L812.263 1057.27Z" fill="#FF5100"/>
<path d="M842.948 1030.75H987.376C992.623 1030.75 996.876 1035 996.876 1040.25V1154.21C996.876 1156.72 995.885 1159.12 994.119 1160.9L967.232 1188L939.393 1215.95C937.61 1217.74 935.188 1218.74 932.662 1218.74H789.896C784.649 1218.74 780.396 1214.49 780.396 1209.24L780.395 1095.12C780.395 1092.68 781.338 1090.33 783.029 1088.56L812.625 1057.62L812.624 1057.62L836.163 1033.6C837.95 1031.77 840.395 1030.75 842.948 1030.75Z" stroke="white"/>
</g>
<path d="M1284.91 1251.53H1295.52L1277.52 1278.99H1266.91L1284.91 1251.53Z" fill="white"/>
<path d="M1299.22 1251.53H1309.83L1291.83 1278.99H1281.22L1299.22 1251.53Z" fill="white"/>
<path d="M1313.53 1251.53H1324.14L1306.14 1278.99H1295.53L1313.53 1251.53Z" fill="white"/>
<path d="M1327.83 1251.53H1338.44L1320.44 1278.99H1309.83L1327.83 1251.53Z" fill="white"/>
<path d="M972.463 1220.16L1119.24 1277.71C1119.7 1277.9 1120.2 1277.99 1120.7 1277.99H1272.04" stroke="white" stroke-width="2" stroke-linecap="round"/>
<path d="M1439.19 939.299H1449.81L1431.81 966.76H1421.19L1439.19 939.299Z" fill="white"/>
<path d="M1453.5 939.299H1464.11L1446.11 966.76H1435.5L1453.5 939.299Z" fill="white"/>
<path d="M1467.81 939.299H1478.42L1460.42 966.76H1449.81L1467.81 939.299Z" fill="white"/>
<path d="M1482.11 939.299H1492.73L1474.73 966.76H1464.11L1482.11 939.299Z" fill="white"/>
<path d="M1036.44 1073.49L1259.12 966.176C1259.66 965.915 1260.26 965.779 1260.86 965.779H1427.94" stroke="white" stroke-width="2" stroke-linecap="round"/>
<path d="M239.977 1196.35H229.365L247.365 1223.81H257.977L239.977 1196.35Z" fill="white"/>
<path d="M225.67 1196.35H215.058L233.058 1223.81H243.67L225.67 1196.35Z" fill="white"/>
<path d="M211.363 1196.35H200.751L218.751 1223.81H229.363L211.363 1196.35Z" fill="white"/>
<path d="M197.057 1196.35H186.445L204.445 1223.81H215.057L197.057 1196.35Z" fill="white"/>
<path d="M751.943 1164.8L601.134 1222.54C600.677 1222.71 600.193 1222.8 599.704 1222.8H253.443" stroke="white" stroke-width="2" stroke-linecap="round"/>
<path d="M1257.41 1090.3H1268.02L1250.02 1117.76H1239.41L1257.41 1090.3Z" fill="white"/>
<path d="M1271.72 1090.3H1282.33L1264.33 1117.76H1253.72L1271.72 1090.3Z" fill="white"/>
<path d="M1286.02 1090.3H1296.64L1278.64 1117.76H1268.02L1286.02 1090.3Z" fill="white"/>
<path d="M1300.33 1090.3H1310.94L1292.94 1117.76H1282.33L1300.33 1090.3Z" fill="white"/>
<path d="M1027.44 1161.76L1146.26 1117.02C1146.71 1116.85 1147.19 1116.76 1147.67 1116.76H1243.94" stroke="white" stroke-width="2" stroke-linecap="round"/>
<path d="M266.977 996.347H256.365L274.365 1023.81H284.977L266.977 996.347Z" fill="white"/>
<path d="M252.67 996.347H242.058L260.058 1023.81H270.67L252.67 996.347Z" fill="white"/>
<path d="M238.363 996.347H227.751L245.751 1023.81H256.363L238.363 996.347Z" fill="white"/>
<path d="M224.057 996.347H213.445L231.445 1023.81H242.057L224.057 996.347Z" fill="white"/>
<path d="M748.446 1109.33L481.546 1023.03C481.148 1022.9 480.733 1022.83 480.315 1022.83H280.445" stroke="white" stroke-width="2" stroke-linecap="round"/>
<path d="M505.977 881.299H495.365L513.365 908.76H523.977L505.977 881.299Z" fill="white"/>
<path d="M491.67 881.299H481.058L499.058 908.76H509.67L491.67 881.299Z" fill="white"/>
<path d="M477.363 881.299H466.751L484.751 908.76H495.363L477.363 881.299Z" fill="white"/>
<path d="M463.057 881.299H452.445L470.445 908.76H481.057L463.057 881.299Z" fill="white"/>
<path d="M797.054 1016.3L692.529 908.976C691.776 908.203 690.743 907.767 689.664 907.767H518.852" stroke="white" stroke-width="2" stroke-linecap="round"/>
<g filter="url(#filter9_f_194_7)">
<path d="M638.147 1500.49L664.724 1473.37C666.605 1471.45 669.179 1470.37 671.866 1470.37L834.466 1470.37C839.988 1470.37 844.466 1474.85 844.466 1480.37V1609C844.466 1611.64 843.423 1614.17 841.564 1616.05L811.264 1646.59L779.899 1678.07C778.022 1679.96 775.473 1681.02 772.814 1681.02H612.072C606.549 1681.02 602.072 1676.54 602.072 1671.02L602.07 1542.22C602.07 1539.65 603.064 1537.17 604.844 1535.31L638.147 1500.49Z" fill="#FF5E01"/>
</g>
<path d="M671.866 1470.87H834.466C839.712 1470.87 843.966 1475.12 843.966 1480.37V1609C843.966 1611.51 842.975 1613.92 841.209 1615.7L810.909 1646.23L779.545 1677.72C777.762 1679.51 775.34 1680.52 772.814 1680.52H612.071C606.825 1680.52 602.571 1676.26 602.571 1671.02L602.57 1542.22C602.57 1539.77 603.514 1537.42 605.205 1535.65L638.504 1500.84L638.505 1500.84L665.081 1473.72C666.868 1471.9 669.313 1470.87 671.866 1470.87Z" fill="#FF5100" stroke="white"/>
<g filter="url(#filter10_f_194_7)">
<path d="M646.896 1508.22L670.439 1484.2C672.32 1482.28 674.894 1481.2 677.581 1481.2L822.009 1481.2C827.531 1481.2 832.009 1485.67 832.009 1491.2V1605.16C832.009 1607.8 830.966 1610.33 829.107 1612.2L802.22 1639.3L774.38 1667.25C772.503 1669.13 769.954 1670.19 767.295 1670.19H624.529C619.006 1670.19 614.529 1665.72 614.529 1660.19L614.527 1546.07C614.527 1543.5 615.521 1541.02 617.301 1539.16L646.896 1508.22Z" fill="#FF833B"/>
</g>
<g filter="url(#filter11_d_194_7)">
<path d="M646.896 1508.22L670.439 1484.2C672.32 1482.28 674.894 1481.2 677.581 1481.2L822.009 1481.2C827.531 1481.2 832.009 1485.67 832.009 1491.2V1605.16C832.009 1607.8 830.966 1610.33 829.107 1612.2L802.22 1639.3L774.38 1667.25C772.503 1669.13 769.954 1670.19 767.295 1670.19H624.529C619.006 1670.19 614.529 1665.71 614.529 1660.19L614.527 1546.07C614.527 1543.5 615.521 1541.02 617.301 1539.16L646.896 1508.22Z" fill="#FF5100"/>
<path d="M677.581 1481.7H822.009C827.255 1481.7 831.509 1485.95 831.509 1491.2V1605.16C831.509 1607.66 830.517 1610.07 828.752 1611.85L801.865 1638.95L774.025 1666.9C772.243 1668.69 769.821 1669.69 767.295 1669.69H624.528C619.282 1669.69 615.028 1665.44 615.028 1660.19L615.027 1546.07C615.027 1543.63 615.971 1541.27 617.662 1539.51L647.258 1508.57L647.257 1508.57L670.796 1484.55C672.583 1482.72 675.028 1481.7 677.581 1481.7Z" stroke="white"/>
</g>
<path d="M1116.95 1692.85H1127.56L1109.56 1720.31H1098.95L1116.95 1692.85Z" fill="white"/>
<path d="M1131.26 1692.85H1141.87L1123.87 1720.31H1113.26L1131.26 1692.85Z" fill="white"/>
<path d="M1145.56 1692.85H1156.17L1138.17 1720.31H1127.56L1145.56 1692.85Z" fill="white"/>
<path d="M1159.87 1692.85H1170.48L1152.48 1720.31H1141.87L1159.87 1692.85Z" fill="white"/>
<path d="M804.947 1675.58L917.251 1719.04C917.711 1719.22 918.201 1719.31 918.694 1719.31H1103.54" stroke="white" stroke-width="2" stroke-linecap="round"/>
<path d="M1316.7 1376.12H1327.31L1309.31 1403.58H1298.7L1316.7 1376.12Z" fill="white"/>
<path d="M1331 1376.12H1341.62L1323.62 1403.58H1313L1331 1376.12Z" fill="white"/>
<path d="M1345.31 1376.12H1355.92L1337.92 1403.58H1327.31L1345.31 1376.12Z" fill="white"/>
<path d="M1359.62 1376.12H1370.23L1352.23 1403.58H1341.62L1359.62 1376.12Z" fill="white"/>
<path d="M857.947 1511.28L964.273 1403.76C965.024 1403 966.049 1402.57 967.117 1402.57H1305.45" stroke="white" stroke-width="2" stroke-linecap="round"/>
<path d="M213.48 1705.16H202.868L220.868 1732.62H231.48L213.48 1705.16Z" fill="white"/>
<path d="M199.174 1705.16H188.562L206.562 1732.62H217.174L199.174 1705.16Z" fill="white"/>
<path d="M184.867 1705.16H174.255L192.255 1732.62H202.867L184.867 1705.16Z" fill="white"/>
<path d="M170.561 1705.16H159.948L177.948 1732.62H188.561L170.561 1705.16Z" fill="white"/>
<path d="M587.446 1651.62L434.814 1731.17C434.243 1731.47 433.609 1731.62 432.966 1731.62H226.945" stroke="white" stroke-width="2" stroke-linecap="round"/>
<path d="M137.48 1521.11H126.868L144.868 1548.57H155.48L137.48 1521.11Z" fill="white"/>
<path d="M123.174 1521.11H112.562L130.562 1548.57H141.174L123.174 1521.11Z" fill="white"/>
<path d="M108.867 1521.11H98.2551L116.255 1548.57H126.867L108.867 1521.11Z" fill="white"/>
<path d="M94.5605 1521.11H83.9485L101.948 1548.57H112.561L94.5605 1521.11Z" fill="white"/>
<path d="M586.973 1610.13L341.959 1547.7C341.636 1547.62 341.304 1547.58 340.971 1547.58H150.975" stroke="white" stroke-width="2" stroke-linecap="round"/>
<g filter="url(#filter12_f_194_7)">
<path d="M488.821 1951.44L515.398 1924.32C517.279 1922.4 519.853 1921.32 522.54 1921.32L685.139 1921.32C690.662 1921.32 695.139 1925.8 695.139 1931.32V2059.95C695.139 2062.59 694.097 2065.12 692.238 2067L661.938 2097.53L630.573 2129.02C628.696 2130.91 626.147 2131.97 623.488 2131.97H462.745C457.223 2131.97 452.746 2127.49 452.745 2121.97L452.744 1993.17C452.744 1990.59 453.738 1988.12 455.518 1986.26L488.821 1951.44Z" fill="#FF5E01"/>
</g>
<path d="M522.54 1921.82H685.14C690.386 1921.82 694.64 1926.07 694.64 1931.32V2059.95C694.64 2062.46 693.648 2064.86 691.883 2066.64L661.583 2097.18L630.219 2128.67C628.436 2130.46 626.014 2131.47 623.488 2131.47H462.745C457.499 2131.47 453.245 2127.21 453.245 2121.97L453.244 1993.17C453.244 1990.72 454.188 1988.37 455.879 1986.6L489.178 1951.79L489.179 1951.79L515.755 1924.67C517.542 1922.85 519.987 1921.82 522.54 1921.82Z" fill="#FF5100" stroke="white"/>
<g filter="url(#filter13_f_194_7)">
<path d="M497.57 1959.17L521.113 1935.14C522.994 1933.23 525.568 1932.14 528.255 1932.14L672.682 1932.14C678.205 1932.14 682.682 1936.62 682.682 1942.14V2056.11C682.682 2058.74 681.64 2061.28 679.781 2063.15L652.893 2090.25L625.053 2118.2C623.177 2120.08 620.627 2121.14 617.968 2121.14H475.202C469.68 2121.14 465.202 2116.66 465.202 2111.14L465.201 1997.02C465.201 1994.45 466.195 1991.97 467.975 1990.11L497.57 1959.17Z" fill="#FF833B"/>
</g>
<g filter="url(#filter14_d_194_7)">
<path d="M497.57 1959.17L521.113 1935.14C522.994 1933.23 525.568 1932.14 528.255 1932.14L672.682 1932.14C678.205 1932.14 682.682 1936.62 682.682 1942.14V2056.11C682.682 2058.74 681.64 2061.28 679.781 2063.15L652.893 2090.25L625.053 2118.2C623.177 2120.08 620.627 2121.14 617.968 2121.14H475.202C469.68 2121.14 465.202 2116.66 465.202 2111.14L465.201 1997.02C465.201 1994.45 466.195 1991.97 467.975 1990.11L497.57 1959.17Z" fill="#FF5100"/>
<path d="M528.255 1932.64H672.683C677.929 1932.64 682.183 1936.9 682.183 1942.14V2056.11C682.183 2058.61 681.191 2061.02 679.426 2062.8L652.539 2089.89L624.699 2117.84C622.917 2119.63 620.495 2120.64 617.969 2120.64H475.202C469.956 2120.64 465.702 2116.39 465.702 2111.14L465.701 1997.02C465.701 1994.58 466.645 1992.22 468.336 1990.46L497.932 1959.51L497.931 1959.51L521.47 1935.49C523.256 1933.67 525.702 1932.64 528.255 1932.64Z" stroke="white"/>
</g>
<path d="M127.332 1908.63H116.72L134.72 1936.09H145.332L127.332 1908.63Z" fill="white"/>
<path d="M113.025 1908.63H102.413L120.413 1936.09H131.025L113.025 1908.63Z" fill="white"/>
<path d="M98.7188 1908.63H88.1067L106.107 1936.09H116.719L98.7188 1908.63Z" fill="white"/>
<path d="M84.4121 1908.63H73.8001L91.8001 1936.09H102.412L84.4121 1908.63Z" fill="white"/>
<path d="M442.632 2002.26L355.468 1935.94C354.772 1935.41 353.921 1935.13 353.046 1935.13H140.301" stroke="white" stroke-width="2" stroke-linecap="round"/>
<path d="M1043.76 1975.45H1054.37L1036.37 2002.91H1025.76L1043.76 1975.45Z" fill="white"/>
<path d="M1058.06 1975.45H1068.68L1050.68 2002.91H1040.06L1058.06 1975.45Z" fill="white"/>
<path d="M1072.37 1975.45H1082.98L1064.98 2002.91H1054.37L1072.37 1975.45Z" fill="white"/>
<path d="M1086.68 1975.45H1097.29L1079.29 2002.91H1068.68L1086.68 1975.45Z" fill="white"/>
<path d="M706.972 2040.48L823.649 2002.13C824.053 2002 824.474 2001.93 824.899 2001.93H1032.26" stroke="white" stroke-width="2" stroke-linecap="round"/>
<path d="M53.6816 2134.25H43.0696L61.0696 2161.71H71.6816L53.6816 2134.25Z" fill="white"/>
<path d="M39.375 2134.25H28.7629L46.7629 2161.71H57.375L39.375 2134.25Z" fill="white"/>
<path d="M25.0684 2134.25H14.4563L32.4563 2161.71H43.0684L25.0684 2134.25Z" fill="white"/>
<path d="M10.7617 2134.25H0.149666L18.1497 2161.71H28.7617L10.7617 2134.25Z" fill="white"/>
<path d="M439.002 2095.21L313.514 2160.27C312.946 2160.56 312.314 2160.72 311.673 2160.72H67.1504" stroke="white" stroke-width="2" stroke-linecap="round"/>
<g filter="url(#filter15_f_194_7)">
<path d="M638.147 2402.39L664.724 2375.27C666.605 2373.35 669.179 2372.27 671.866 2372.27L834.466 2372.27C839.988 2372.27 844.466 2376.74 844.466 2382.27V2510.9C844.466 2513.54 843.423 2516.07 841.564 2517.94L811.264 2548.48L779.899 2579.97C778.022 2581.85 775.473 2582.91 772.814 2582.91H612.072C606.549 2582.91 602.072 2578.44 602.072 2572.91L602.07 2444.12C602.07 2441.54 603.064 2439.07 604.844 2437.2L638.147 2402.39Z" fill="#FF5E01"/>
</g>
<path d="M671.866 2372.77H834.466C839.712 2372.77 843.966 2377.02 843.966 2382.27V2510.9C843.966 2513.41 842.975 2515.81 841.209 2517.59L810.909 2548.13L779.545 2579.62C777.762 2581.41 775.34 2582.41 772.814 2582.41H612.071C606.825 2582.41 602.571 2578.16 602.571 2572.91L602.57 2444.12C602.57 2441.67 603.514 2439.32 605.205 2437.55L638.504 2402.74L638.505 2402.74L665.081 2375.62C666.868 2373.79 669.313 2372.77 671.866 2372.77Z" fill="#FF5100" stroke="white"/>
<g filter="url(#filter16_f_194_7)">
<path d="M646.896 2410.12L670.439 2386.09C672.32 2384.17 674.894 2383.09 677.581 2383.09L822.009 2383.09C827.531 2383.09 832.009 2387.57 832.009 2393.09V2507.05C832.009 2509.69 830.966 2512.22 829.107 2514.1L802.22 2541.2L774.38 2569.15C772.503 2571.03 769.954 2572.09 767.295 2572.09H624.529C619.006 2572.09 614.529 2567.61 614.529 2562.09L614.527 2447.97C614.527 2445.39 615.521 2442.92 617.301 2441.06L646.896 2410.12Z" fill="#FF833B"/>
</g>
<g filter="url(#filter17_d_194_7)">
<path d="M646.896 2410.12L670.439 2386.09C672.32 2384.17 674.894 2383.09 677.581 2383.09L822.009 2383.09C827.531 2383.09 832.009 2387.57 832.009 2393.09V2507.05C832.009 2509.69 830.966 2512.22 829.107 2514.1L802.22 2541.2L774.38 2569.15C772.503 2571.03 769.954 2572.09 767.295 2572.09H624.529C619.006 2572.09 614.529 2567.61 614.529 2562.09L614.527 2447.97C614.527 2445.39 615.521 2442.92 617.301 2441.06L646.896 2410.12Z" fill="#FF5100"/>
<path d="M677.581 2383.59H822.009C827.255 2383.59 831.509 2387.85 831.509 2393.09V2507.05C831.509 2509.56 830.517 2511.96 828.752 2513.74L801.865 2540.84L774.025 2568.79C772.243 2570.58 769.821 2571.59 767.295 2571.59H624.528C619.282 2571.59 615.028 2567.33 615.028 2562.09L615.027 2447.97C615.027 2445.52 615.971 2443.17 617.662 2441.4L647.258 2410.46L647.257 2410.46L670.796 2386.44C672.583 2384.62 675.028 2383.59 677.581 2383.59Z" stroke="white"/>
</g>
<path d="M177.863 2440.41H167.251L185.251 2467.87H195.863L177.863 2440.41Z" fill="white"/>
<path d="M163.557 2440.41H152.945L170.945 2467.87H181.557L163.557 2440.41Z" fill="white"/>
<path d="M149.25 2440.41H138.638L156.638 2467.87H167.25L149.25 2440.41Z" fill="white"/>
<path d="M134.943 2440.41H124.331L142.331 2467.87H152.943L134.943 2440.41Z" fill="white"/>
<path d="M592.332 2516.87L477.592 2467.2C477.091 2466.99 476.55 2466.87 476.003 2466.87H190.738" stroke="white" stroke-width="2" stroke-linecap="round"/>
<path d="M1222.58 2290.41H1233.19L1215.19 2317.87H1204.58L1222.58 2290.41Z" fill="white"/>
<path d="M1236.89 2290.41H1247.5L1229.5 2317.87H1218.89L1236.89 2290.41Z" fill="white"/>
<path d="M1251.2 2290.41H1261.81L1243.81 2317.87H1233.2L1251.2 2290.41Z" fill="white"/>
<path d="M1265.5 2290.41H1276.11L1258.11 2317.87H1247.5L1265.5 2290.41Z" fill="white"/>
<path d="M859.332 2431.88L972.158 2318.06C972.91 2317.3 973.932 2316.88 974.999 2316.88H1211.33" stroke="white" stroke-width="2" stroke-linecap="round"/>
<defs>
<filter id="filter0_f_194_7" x="443.07" y="109.525" width="258.396" height="226.647" filterUnits="userSpaceOnUse" color-interpolation-filters="sRGB">
<feFlood flood-opacity="0" result="BackgroundImageFix"/>
<feBlend mode="normal" in="SourceGraphic" in2="BackgroundImageFix" result="shape"/>
<feGaussianBlur stdDeviation="4" result="effect1_foregroundBlur_194_7"/>
</filter>
<filter id="filter1_f_194_7" x="426.627" y="91.4511" width="291.281" height="262.796" filterUnits="userSpaceOnUse" color-interpolation-filters="sRGB">
<feFlood flood-opacity="0" result="BackgroundImageFix"/>
<feBlend mode="normal" in="SourceGraphic" in2="BackgroundImageFix" result="shape"/>
<feGaussianBlur stdDeviation="18.45" result="effect1_foregroundBlur_194_7"/>
</filter>
<filter id="filter2_d_194_7" x="437.827" y="103.651" width="274.881" height="246.396" filterUnits="userSpaceOnUse" color-interpolation-filters="sRGB">
<feFlood flood-opacity="0" result="BackgroundImageFix"/>
<feColorMatrix in="SourceAlpha" type="matrix" values="0 0 0 0 0 0 0 0 0 0 0 0 0 0 0 0 0 0 127 0" result="hardAlpha"/>
<feOffset dx="3" dy="4"/>
<feGaussianBlur stdDeviation="14.35"/>
<feComposite in2="hardAlpha" operator="out"/>
<feColorMatrix type="matrix" values="0 0 0 0 1 0 0 0 0 1 0 0 0 0 1 0 0 0 0.25 0"/>
<feBlend mode="normal" in2="BackgroundImageFix" result="effect1_dropShadow_194_7"/>
<feBlend mode="normal" in="SourceGraphic" in2="effect1_dropShadow_194_7" result="shape"/>
</filter>
<filter id="filter3_f_194_7" x="594.07" y="560.474" width="258.396" height="226.647" filterUnits="userSpaceOnUse" color-interpolation-filters="sRGB">
<feFlood flood-opacity="0" result="BackgroundImageFix"/>
<feBlend mode="normal" in="SourceGraphic" in2="BackgroundImageFix" result="shape"/>
<feGaussianBlur stdDeviation="4" result="effect1_foregroundBlur_194_7"/>
</filter>
<filter id="filter4_f_194_7" x="577.627" y="542.399" width="291.281" height="262.796" filterUnits="userSpaceOnUse" color-interpolation-filters="sRGB">
<feFlood flood-opacity="0" result="BackgroundImageFix"/>
<feBlend mode="normal" in="SourceGraphic" in2="BackgroundImageFix" result="shape"/>
<feGaussianBlur stdDeviation="18.45" result="effect1_foregroundBlur_194_7"/>
</filter>
<filter id="filter5_d_194_7" x="588.827" y="554.599" width="274.881" height="246.396" filterUnits="userSpaceOnUse" color-interpolation-filters="sRGB">
<feFlood flood-opacity="0" result="BackgroundImageFix"/>
<feColorMatrix in="SourceAlpha" type="matrix" values="0 0 0 0 0 0 0 0 0 0 0 0 0 0 0 0 0 0 127 0" result="hardAlpha"/>
<feOffset dx="3" dy="4"/>
<feGaussianBlur stdDeviation="14.35"/>
<feComposite in2="hardAlpha" operator="out"/>
<feColorMatrix type="matrix" values="0 0 0 0 1 0 0 0 0 1 0 0 0 0 1 0 0 0 0.25 0"/>
<feBlend mode="normal" in2="BackgroundImageFix" result="effect1_dropShadow_194_7"/>
<feBlend mode="normal" in="SourceGraphic" in2="effect1_dropShadow_194_7" result="shape"/>
</filter>
<filter id="filter6_f_194_7" x="759.438" y="1011.42" width="258.396" height="226.647" filterUnits="userSpaceOnUse" color-interpolation-filters="sRGB">
<feFlood flood-opacity="0" result="BackgroundImageFix"/>
<feBlend mode="normal" in="SourceGraphic" in2="BackgroundImageFix" result="shape"/>
<feGaussianBlur stdDeviation="4" result="effect1_foregroundBlur_194_7"/>
</filter>
<filter id="filter7_f_194_7" x="742.995" y="993.348" width="291.281" height="262.796" filterUnits="userSpaceOnUse" color-interpolation-filters="sRGB">
<feFlood flood-opacity="0" result="BackgroundImageFix"/>
<feBlend mode="normal" in="SourceGraphic" in2="BackgroundImageFix" result="shape"/>
<feGaussianBlur stdDeviation="18.45" result="effect1_foregroundBlur_194_7"/>
</filter>
<filter id="filter8_d_194_7" x="754.195" y="1005.55" width="274.881" height="246.396" filterUnits="userSpaceOnUse" color-interpolation-filters="sRGB">
<feFlood flood-opacity="0" result="BackgroundImageFix"/>
<feColorMatrix in="SourceAlpha" type="matrix" values="0 0 0 0 0 0 0 0 0 0 0 0 0 0 0 0 0 0 127 0" result="hardAlpha"/>
<feOffset dx="3" dy="4"/>
<feGaussianBlur stdDeviation="14.35"/>
<feComposite in2="hardAlpha" operator="out"/>
<feColorMatrix type="matrix" values="0 0 0 0 1 0 0 0 0 1 0 0 0 0 1 0 0 0 0.25 0"/>
<feBlend mode="normal" in2="BackgroundImageFix" result="effect1_dropShadow_194_7"/>
<feBlend mode="normal" in="SourceGraphic" in2="effect1_dropShadow_194_7" result="shape"/>
</filter>
<filter id="filter9_f_194_7" x="594.07" y="1462.37" width="258.396" height="226.647" filterUnits="userSpaceOnUse" color-interpolation-filters="sRGB">
<feFlood flood-opacity="0" result="BackgroundImageFix"/>
<feBlend mode="normal" in="SourceGraphic" in2="BackgroundImageFix" result="shape"/>
<feGaussianBlur stdDeviation="4" result="effect1_foregroundBlur_194_7"/>
</filter>
<filter id="filter10_f_194_7" x="577.627" y="1444.3" width="291.281" height="262.796" filterUnits="userSpaceOnUse" color-interpolation-filters="sRGB">
<feFlood flood-opacity="0" result="BackgroundImageFix"/>
<feBlend mode="normal" in="SourceGraphic" in2="BackgroundImageFix" result="shape"/>
<feGaussianBlur stdDeviation="18.45" result="effect1_foregroundBlur_194_7"/>
</filter>
<filter id="filter11_d_194_7" x="588.827" y="1456.5" width="274.881" height="246.396" filterUnits="userSpaceOnUse" color-interpolation-filters="sRGB">
<feFlood flood-opacity="0" result="BackgroundImageFix"/>
<feColorMatrix in="SourceAlpha" type="matrix" values="0 0 0 0 0 0 0 0 0 0 0 0 0 0 0 0 0 0 127 0" result="hardAlpha"/>
<feOffset dx="3" dy="4"/>
<feGaussianBlur stdDeviation="14.35"/>
<feComposite in2="hardAlpha" operator="out"/>
<feColorMatrix type="matrix" values="0 0 0 0 1 0 0 0 0 1 0 0 0 0 1 0 0 0 0.25 0"/>
<feBlend mode="normal" in2="BackgroundImageFix" result="effect1_dropShadow_194_7"/>
<feBlend mode="normal" in="SourceGraphic" in2="effect1_dropShadow_194_7" result="shape"/>
</filter>
<filter id="filter12_f_194_7" x="444.744" y="1913.32" width="258.396" height="226.647" filterUnits="userSpaceOnUse" color-interpolation-filters="sRGB">
<feFlood flood-opacity="0" result="BackgroundImageFix"/>
<feBlend mode="normal" in="SourceGraphic" in2="BackgroundImageFix" result="shape"/>
<feGaussianBlur stdDeviation="4" result="effect1_foregroundBlur_194_7"/>
</filter>
<filter id="filter13_f_194_7" x="428.301" y="1895.24" width="291.281" height="262.796" filterUnits="userSpaceOnUse" color-interpolation-filters="sRGB">
<feFlood flood-opacity="0" result="BackgroundImageFix"/>
<feBlend mode="normal" in="SourceGraphic" in2="BackgroundImageFix" result="shape"/>
<feGaussianBlur stdDeviation="18.45" result="effect1_foregroundBlur_194_7"/>
</filter>
<filter id="filter14_d_194_7" x="439.501" y="1907.44" width="274.881" height="246.396" filterUnits="userSpaceOnUse" color-interpolation-filters="sRGB">
<feFlood flood-opacity="0" result="BackgroundImageFix"/>
<feColorMatrix in="SourceAlpha" type="matrix" values="0 0 0 0 0 0 0 0 0 0 0 0 0 0 0 0 0 0 127 0" result="hardAlpha"/>
<feOffset dx="3" dy="4"/>
<feGaussianBlur stdDeviation="14.35"/>
<feComposite in2="hardAlpha" operator="out"/>
<feColorMatrix type="matrix" values="0 0 0 0 1 0 0 0 0 1 0 0 0 0 1 0 0 0 0.25 0"/>
<feBlend mode="normal" in2="BackgroundImageFix" result="effect1_dropShadow_194_7"/>
<feBlend mode="normal" in="SourceGraphic" in2="effect1_dropShadow_194_7" result="shape"/>
</filter>
<filter id="filter15_f_194_7" x="594.07" y="2364.27" width="258.396" height="226.647" filterUnits="userSpaceOnUse" color-interpolation-filters="sRGB">
<feFlood flood-opacity="0" result="BackgroundImageFix"/>
<feBlend mode="normal" in="SourceGraphic" in2="BackgroundImageFix" result="shape"/>
<feGaussianBlur stdDeviation="4" result="effect1_foregroundBlur_194_7"/>
</filter>
<filter id="filter16_f_194_7" x="577.627" y="2346.19" width="291.281" height="262.796" filterUnits="userSpaceOnUse" color-interpolation-filters="sRGB">
<feFlood flood-opacity="0" result="BackgroundImageFix"/>
<feBlend mode="normal" in="SourceGraphic" in2="BackgroundImageFix" result="shape"/>
<feGaussianBlur stdDeviation="18.45" result="effect1_foregroundBlur_194_7"/>
</filter>
<filter id="filter17_d_194_7" x="588.827" y="2358.39" width="274.881" height="246.396" filterUnits="userSpaceOnUse" color-interpolation-filters="sRGB">
<feFlood flood-opacity="0" result="BackgroundImageFix"/>
<feColorMatrix in="SourceAlpha" type="matrix" values="0 0 0 0 0 0 0 0 0 0 0 0 0 0 0 0 0 0 127 0" result="hardAlpha"/>
<feOffset dx="3" dy="4"/>
<feGaussianBlur stdDeviation="14.35"/>
<feComposite in2="hardAlpha" operator="out"/>
<feColorMatrix type="matrix" values="0 0 0 0 1 0 0 0 0 1 0 0 0 0 1 0 0 0 0.25 0"/>
<feBlend mode="normal" in2="BackgroundImageFix" result="effect1_dropShadow_194_7"/>
<feBlend mode="normal" in="SourceGraphic" in2="effect1_dropShadow_194_7" result="shape"/>
</filter>
</defs>
</svg>
