<svg width="1287" height="357" viewBox="0 0 1287 357" fill="none" xmlns="http://www.w3.org/2000/svg">
<g filter="url(#filter0_f_58_1060)">
<path d="M554.607 119.25L581.184 92.1298C583.065 90.2105 585.639 89.1289 588.326 89.1289L750.926 89.1289C756.448 89.1289 760.926 93.6061 760.926 99.1289V227.763C760.926 230.402 759.883 232.933 758.024 234.806L727.724 265.345L696.359 296.833C694.482 298.717 691.933 299.776 689.274 299.776H528.532C523.009 299.776 518.532 295.299 518.532 289.776L518.53 160.979C518.53 158.404 519.524 155.928 521.304 154.067L554.607 119.25Z" fill="#FF5E01"/>
</g>
<path d="M588.326 89.6289H750.926C756.172 89.629 760.426 93.8823 760.426 99.1289V227.763C760.426 230.269 759.434 232.675 757.669 234.454L727.369 264.992L696.005 296.48C694.222 298.27 691.8 299.276 689.274 299.276H528.531C523.285 299.276 519.031 295.023 519.031 289.776L519.03 160.979C519.03 158.533 519.974 156.181 521.665 154.413L554.964 119.6L554.965 119.601L581.541 92.4795C583.328 90.6562 585.773 89.6289 588.326 89.6289Z" fill="#FF5100" stroke="white"/>
<g filter="url(#filter1_f_58_1060)">
<path d="M563.356 126.979L586.899 102.954C588.78 101.035 591.354 99.9531 594.041 99.9531L738.469 99.9531C743.991 99.9531 748.469 104.43 748.469 109.953V223.915C748.469 226.553 747.426 229.085 745.567 230.958L718.68 258.057L690.84 286.007C688.963 287.89 686.414 288.949 683.755 288.949H540.988C535.466 288.949 530.989 284.472 530.988 278.95L530.987 164.831C530.987 162.256 531.981 159.78 533.761 157.919L563.356 126.979Z" fill="#FF833B"/>
</g>
<g filter="url(#filter2_d_58_1060)">
<path d="M563.356 126.979L586.899 102.954C588.78 101.035 591.354 99.9531 594.041 99.9531L738.469 99.9531C743.991 99.9531 748.469 104.43 748.469 109.953V223.915C748.469 226.553 747.426 229.085 745.567 230.958L718.68 258.057L690.84 286.007C688.963 287.89 686.414 288.949 683.755 288.949H540.988C535.466 288.949 530.989 284.472 530.988 278.95L530.987 164.831C530.987 162.256 531.981 159.78 533.761 157.919L563.356 126.979Z" fill="#FF5100"/>
<path d="M594.041 100.453H738.469C743.715 100.453 747.969 104.706 747.969 109.953V223.915C747.969 226.422 746.977 228.826 745.212 230.605L718.325 257.704L690.485 285.653C688.703 287.443 686.281 288.449 683.755 288.449H540.988C535.742 288.449 531.488 284.196 531.488 278.949L531.487 164.831C531.487 162.385 532.431 160.033 534.122 158.265L563.718 127.324L563.717 127.323L587.256 103.304C589.043 101.48 591.488 100.453 594.041 100.453Z" stroke="white"/>
</g>
<path d="M1033 317H1043.61L1025.61 344.461H1015L1033 317Z" fill="white"/>
<path d="M1047.31 317H1057.92L1039.92 344.461H1029.31L1047.31 317Z" fill="white"/>
<path d="M1061.61 317H1072.23L1054.23 344.461H1043.61L1061.61 317Z" fill="white"/>
<path d="M1075.92 317H1086.53L1068.53 344.461H1057.92L1075.92 317Z" fill="white"/>
<path d="M720.999 299.738L833.302 343.199C833.763 343.377 834.252 343.469 834.746 343.469H1019.59" stroke="white" stroke-width="2" stroke-linecap="round"/>
<path d="M1232.75 0.269531H1243.36L1225.36 27.7305H1214.75L1232.75 0.269531Z" fill="white"/>
<path d="M1247.06 0.269531H1257.67L1239.67 27.7305H1229.06L1247.06 0.269531Z" fill="white"/>
<path d="M1261.36 0.269531H1271.98L1253.98 27.7305H1243.36L1261.36 0.269531Z" fill="white"/>
<path d="M1275.67 0.269531H1286.28L1268.28 27.7305H1257.67L1275.67 0.269531Z" fill="white"/>
<path d="M773.999 135.44L880.325 27.9179C881.076 27.1581 882.1 26.7305 883.169 26.7305H1221.5" stroke="white" stroke-width="2" stroke-linecap="round"/>
<path d="M129.531 329.316H118.919L136.919 356.777H147.531L129.531 329.316Z" fill="white"/>
<path d="M115.225 329.316H104.613L122.613 356.777H133.225L115.225 329.316Z" fill="white"/>
<path d="M100.918 329.316H90.3059L108.306 356.777H118.918L100.918 329.316Z" fill="white"/>
<path d="M86.6113 329.316H75.9993L93.9993 356.777H104.611L86.6113 329.316Z" fill="white"/>
<path d="M503.499 275.777L350.867 355.325C350.296 355.622 349.662 355.777 349.018 355.777H142.998" stroke="white" stroke-width="2" stroke-linecap="round"/>
<path d="M53.5332 145.266H42.9212L60.9211 172.727H71.5332L53.5332 145.266Z" fill="white"/>
<path d="M39.2266 145.266H28.6145L46.6145 172.727H57.2266L39.2266 145.266Z" fill="white"/>
<path d="M24.9199 145.266H14.3079L32.3079 172.727H42.9199L24.9199 145.266Z" fill="white"/>
<path d="M10.6133 145.266H0.00122833L18.0012 172.727H28.6133L10.6133 145.266Z" fill="white"/>
<path d="M503.024 234.285L258.01 171.858C257.688 171.776 257.356 171.734 257.023 171.734L67.0264 171.734" stroke="white" stroke-width="2" stroke-linecap="round"/>
<defs>
<filter id="filter0_f_58_1060" x="510.53" y="81.1289" width="258.396" height="226.648" filterUnits="userSpaceOnUse" color-interpolation-filters="sRGB">
<feFlood flood-opacity="0" result="BackgroundImageFix"/>
<feBlend mode="normal" in="SourceGraphic" in2="BackgroundImageFix" result="shape"/>
<feGaussianBlur stdDeviation="4" result="effect1_foregroundBlur_58_1060"/>
</filter>
<filter id="filter1_f_58_1060" x="494.087" y="63.0531" width="291.281" height="262.796" filterUnits="userSpaceOnUse" color-interpolation-filters="sRGB">
<feFlood flood-opacity="0" result="BackgroundImageFix"/>
<feBlend mode="normal" in="SourceGraphic" in2="BackgroundImageFix" result="shape"/>
<feGaussianBlur stdDeviation="18.45" result="effect1_foregroundBlur_58_1060"/>
</filter>
<filter id="filter2_d_58_1060" x="505.287" y="75.2531" width="274.881" height="246.396" filterUnits="userSpaceOnUse" color-interpolation-filters="sRGB">
<feFlood flood-opacity="0" result="BackgroundImageFix"/>
<feColorMatrix in="SourceAlpha" type="matrix" values="0 0 0 0 0 0 0 0 0 0 0 0 0 0 0 0 0 0 127 0" result="hardAlpha"/>
<feOffset dx="3" dy="4"/>
<feGaussianBlur stdDeviation="14.35"/>
<feComposite in2="hardAlpha" operator="out"/>
<feColorMatrix type="matrix" values="0 0 0 0 1 0 0 0 0 1 0 0 0 0 1 0 0 0 0.25 0"/>
<feBlend mode="normal" in2="BackgroundImageFix" result="effect1_dropShadow_58_1060"/>
<feBlend mode="normal" in="SourceGraphic" in2="effect1_dropShadow_58_1060" result="shape"/>
</filter>
</defs>
</svg>
