<svg width="1160" height="364" viewBox="0 0 1160 364" fill="none" xmlns="http://www.w3.org/2000/svg">
<g filter="url(#filter0_f_46_9)">
<path d="M435.107 157.25L461.684 130.13C463.565 128.21 466.139 127.129 468.826 127.129L631.426 127.129C636.948 127.129 641.426 131.606 641.426 137.129V265.763C641.426 268.402 640.383 270.933 638.524 272.806L608.224 303.345L576.859 334.833C574.982 336.717 572.433 337.776 569.774 337.776H409.032C403.509 337.776 399.032 333.299 399.032 327.776L399.03 198.979C399.03 196.404 400.024 193.928 401.804 192.067L435.107 157.25Z" fill="#FF5E01"/>
</g>
<path d="M468.826 127.629H631.426C636.672 127.629 640.926 131.882 640.926 137.129V265.763C640.926 268.269 639.934 270.675 638.169 272.454L607.869 302.992L576.505 334.48C574.722 336.27 572.3 337.276 569.774 337.276H409.031C403.785 337.276 399.531 333.023 399.531 327.776L399.53 198.979C399.53 196.533 400.474 194.181 402.165 192.413L435.464 157.6L435.465 157.601L462.041 130.479C463.828 128.656 466.273 127.629 468.826 127.629Z" fill="#FF5100" stroke="white"/>
<g filter="url(#filter1_f_46_9)">
<path d="M443.856 164.981L467.399 140.956C469.28 139.037 471.854 137.955 474.541 137.955L618.969 137.955C624.491 137.955 628.969 142.432 628.969 147.955V261.917C628.969 264.555 627.926 267.087 626.067 268.96L599.18 296.059L571.34 324.009C569.463 325.892 566.914 326.951 564.255 326.951H421.488C415.966 326.951 411.489 322.474 411.488 316.951L411.487 202.833C411.487 200.258 412.481 197.782 414.261 195.921L443.856 164.981Z" fill="#FF833B"/>
</g>
<g filter="url(#filter2_d_46_9)">
<path d="M443.856 164.981L467.399 140.956C469.28 139.037 471.854 137.955 474.541 137.955L618.969 137.955C624.491 137.955 628.969 142.432 628.969 147.955V261.917C628.969 264.555 627.926 267.087 626.067 268.96L599.18 296.059L571.34 324.009C569.463 325.892 566.914 326.951 564.255 326.951H421.488C415.966 326.951 411.489 322.474 411.488 316.951L411.487 202.833C411.487 200.258 412.481 197.782 414.261 195.921L443.856 164.981Z" fill="#FF5100"/>
<path d="M474.541 138.455H618.969C624.215 138.455 628.469 142.708 628.469 147.955V261.917C628.469 264.424 627.477 266.828 625.712 268.607L598.825 295.706L570.985 323.655C569.203 325.445 566.781 326.451 564.255 326.451H421.488C416.242 326.451 411.988 322.198 411.988 316.951L411.987 202.833C411.987 200.387 412.931 198.035 414.622 196.267L444.218 165.326L444.217 165.325L467.756 141.306C469.543 139.482 471.988 138.455 474.541 138.455Z" stroke="white"/>
</g>
<path d="M480.748 228.453V211.653H485.908C490.588 211.653 494.38 214.581 494.38 220.053C494.38 225.525 490.588 228.453 485.908 228.453H480.748ZM485.764 226.245C488.884 226.245 491.812 224.493 491.812 220.053C491.812 215.613 488.884 213.861 485.764 213.861H483.244V226.245H485.764ZM498.016 228.453V216.357H500.344V228.453H498.016ZM497.872 211.293H500.464V214.221H497.872V211.293ZM505.535 233.349V231.405H511.127C512.543 231.405 513.527 230.373 513.527 228.885V226.917C512.927 227.949 511.367 228.645 509.615 228.645C506.015 228.645 503.927 225.981 503.927 222.405C503.927 218.829 505.991 216.165 509.639 216.165C511.199 216.165 512.759 216.885 513.527 217.965V216.357H515.855V229.029C515.855 231.621 514.079 233.349 511.367 233.349H505.535ZM509.999 226.605C512.231 226.605 513.695 224.925 513.695 222.405C513.695 219.885 512.231 218.205 509.999 218.205C507.743 218.205 506.279 219.885 506.279 222.405C506.279 224.925 507.743 226.605 509.999 226.605ZM520.233 228.453V216.357H522.561V228.453H520.233ZM520.089 211.293H522.681V214.221H520.089V211.293ZM531.976 228.453C529.528 228.453 527.944 226.965 527.944 224.493V218.373H525.472V216.357H527.944V212.565H530.272V216.357H533.848V218.373H530.272V224.421C530.272 225.717 530.992 226.437 532.144 226.437H533.848V228.453H531.976ZM540.658 228.645C538.186 228.645 536.53 227.157 536.53 224.997C536.53 222.669 538.402 221.133 541.234 221.133H543.778C544.33 221.133 544.594 220.941 544.594 220.509C544.594 219.045 543.514 218.037 541.666 218.037C539.962 218.037 538.762 219.093 538.69 220.317H536.53C536.722 217.941 538.858 216.165 541.738 216.165C544.858 216.165 546.898 217.965 546.898 220.653V228.453H544.594V226.461C543.994 227.781 542.482 228.645 540.658 228.645ZM541.114 226.797C543.298 226.797 544.594 225.381 544.594 223.149V222.933H541.474C539.89 222.933 538.858 223.677 538.858 224.949C538.858 226.053 539.746 226.797 541.114 226.797ZM551.097 228.453V211.293H553.425V228.453H551.097ZM464.818 262.453L471.418 245.653H473.722L480.322 262.453H477.73L476.122 258.181H469.018L467.41 262.453H464.818ZM469.834 255.997H475.306L472.57 248.773L469.834 255.997ZM487.942 262.645C484.15 262.645 481.966 259.741 481.966 256.405C481.966 253.069 484.15 250.165 487.942 250.165C490.774 250.165 493.222 251.845 493.558 254.581H491.23C491.014 253.213 489.646 252.205 487.99 252.205C485.59 252.205 484.39 254.077 484.39 256.405C484.39 258.733 485.614 260.605 488.014 260.605C489.67 260.605 490.87 259.741 491.254 258.373H493.558C493.174 260.917 491.038 262.645 487.942 262.645ZM502.238 262.645C498.446 262.645 496.262 259.741 496.262 256.405C496.262 253.069 498.446 250.165 502.238 250.165C505.07 250.165 507.518 251.845 507.854 254.581H505.526C505.31 253.213 503.942 252.205 502.286 252.205C499.886 252.205 498.686 254.077 498.686 256.405C498.686 258.733 499.91 260.605 502.31 260.605C503.966 260.605 505.166 259.741 505.55 258.373H507.854C507.47 260.917 505.334 262.645 502.238 262.645ZM516.774 262.645C513.15 262.645 510.534 260.029 510.534 256.405C510.534 252.781 513.15 250.165 516.774 250.165C520.398 250.165 522.99 252.781 522.99 256.405C522.99 260.029 520.398 262.645 516.774 262.645ZM516.774 260.605C519.054 260.605 520.614 258.877 520.614 256.405C520.614 253.933 519.054 252.205 516.774 252.205C514.47 252.205 512.91 253.933 512.91 256.405C512.91 258.877 514.47 260.605 516.774 260.605ZM530.881 262.645C528.145 262.645 526.369 260.677 526.369 257.797V250.357H528.697V257.341C528.697 259.261 529.825 260.557 531.529 260.557C533.425 260.557 534.793 259.021 534.793 256.909V250.357H537.121V262.453H534.793V260.317C534.145 261.829 532.681 262.645 530.881 262.645ZM541.465 262.453V250.357H543.793V252.493C544.441 250.981 545.881 250.165 547.681 250.165C550.417 250.165 552.193 252.133 552.193 255.013V262.453H549.865V255.469C549.865 253.549 548.737 252.253 547.033 252.253C545.137 252.253 543.793 253.789 543.793 255.901V262.453H541.465ZM561.271 262.453C558.823 262.453 557.239 260.965 557.239 258.493V252.373H554.767V250.357H557.239V246.565H559.567V250.357H563.143V252.373H559.567V258.421C559.567 259.717 560.287 260.437 561.439 260.437H563.143V262.453H561.271ZM570.385 262.645C567.457 262.645 565.705 261.133 565.513 258.517H567.649C567.769 259.909 568.801 260.749 570.361 260.749C571.801 260.749 572.737 260.053 572.737 258.973C572.737 256.021 565.825 258.589 565.825 253.765C565.825 251.629 567.625 250.165 570.145 250.165C572.953 250.165 574.657 251.581 574.825 253.933H572.689C572.569 252.757 571.561 251.989 570.169 251.989C568.969 251.989 567.985 252.589 567.985 253.669C567.985 256.525 574.921 253.813 574.921 258.853C574.921 261.181 573.193 262.645 570.385 262.645Z" fill="white"/>
<path d="M140.032 10H129.42L147.42 37.461H158.032L140.032 10Z" fill="white"/>
<path d="M125.726 10H115.114L133.114 37.461H143.726L125.726 10Z" fill="white"/>
<path d="M111.419 10H100.807L118.807 37.461H129.419L111.419 10Z" fill="white"/>
<path d="M97.1123 10H86.5003L104.5 37.461H115.112L97.1123 10Z" fill="white"/>
<path d="M428 151.5L316.677 37.7028C315.924 36.9336 314.893 36.5 313.817 36.5H153" stroke="white" stroke-width="2" stroke-linecap="round"/>
<path d="M1105.5 74H1116.11L1098.11 101.461H1087.5L1105.5 74Z" fill="white"/>
<path d="M1119.81 74H1130.42L1112.42 101.461H1101.81L1119.81 74Z" fill="white"/>
<path d="M1134.11 74H1144.73L1126.73 101.461H1116.11L1134.11 74Z" fill="white"/>
<path d="M1148.42 74H1159.03L1141.03 101.461H1130.42L1148.42 74Z" fill="white"/>
<path d="M652 215.479L764.826 101.662C765.577 100.905 766.6 100.479 767.667 100.479H1094" stroke="white" stroke-width="2" stroke-linecap="round"/>
<path d="M54.0322 310H43.4202L61.4202 337.461H72.0322L54.0322 310Z" fill="white"/>
<path d="M39.7256 310H29.1135L47.1135 337.461H57.7256L39.7256 310Z" fill="white"/>
<path d="M25.4189 310H14.8069L32.8069 337.461H43.4189L25.4189 310Z" fill="white"/>
<path d="M11.1123 310H0.500252L18.5002 337.461H29.1123L11.1123 310Z" fill="white"/>
<path d="M389 277.963L239.701 336.19C239.238 336.37 238.745 336.463 238.248 336.463H67.5" stroke="white" stroke-width="2" stroke-linecap="round"/>
<path d="M787.786 91.3709C786.56 91.3709 785.433 91.1043 784.406 90.5709C783.38 90.0243 782.56 89.2176 781.946 88.1509C781.333 87.0709 781.026 85.7576 781.026 84.2109C781.026 82.6776 781.333 81.3709 781.946 80.2909C782.573 79.2109 783.4 78.4043 784.426 77.8709C785.453 77.3243 786.573 77.0509 787.786 77.0509C788.786 77.0509 789.713 77.2443 790.566 77.6309C791.42 78.0176 792.12 78.5576 792.666 79.2509C793.226 79.9443 793.566 80.7176 793.686 81.5709H791.906C791.826 81.0109 791.586 80.5043 791.186 80.0509C790.8 79.5976 790.306 79.2443 789.706 78.9909C789.106 78.7243 788.46 78.5909 787.766 78.5909C786.793 78.5909 785.926 78.8109 785.166 79.2509C784.42 79.6776 783.833 80.3176 783.406 81.1709C782.993 82.0109 782.786 83.0243 782.786 84.2109C782.786 85.3976 782.993 86.4176 783.406 87.2709C783.833 88.1109 784.42 88.7509 785.166 89.1909C785.926 89.6176 786.793 89.8309 787.766 89.8309C788.486 89.8309 789.146 89.7043 789.746 89.4509C790.36 89.1843 790.853 88.8243 791.226 88.3709C791.613 87.9176 791.846 87.4109 791.926 86.8509H793.686C793.58 87.7043 793.253 88.4776 792.706 89.1709C792.173 89.8643 791.473 90.4043 790.606 90.7909C789.753 91.1776 788.813 91.3709 787.786 91.3709ZM800.841 91.3709C799.868 91.3709 798.988 91.1509 798.201 90.7109C797.414 90.2576 796.801 89.6376 796.361 88.8509C795.934 88.0643 795.721 87.1709 795.721 86.1709C795.721 85.1709 795.934 84.2776 796.361 83.4909C796.801 82.7043 797.414 82.0909 798.201 81.6509C798.988 81.1976 799.868 80.9709 800.841 80.9709C801.828 80.9709 802.708 81.1976 803.481 81.6509C804.268 82.0909 804.881 82.7043 805.321 83.4909C805.761 84.2776 805.981 85.1709 805.981 86.1709C805.981 87.1709 805.761 88.0643 805.321 88.8509C804.881 89.6376 804.268 90.2576 803.481 90.7109C802.708 91.1509 801.828 91.3709 800.841 91.3709ZM800.841 89.9309C801.521 89.9309 802.128 89.7709 802.661 89.4509C803.194 89.1309 803.601 88.6843 803.881 88.1109C804.174 87.5376 804.321 86.8909 804.321 86.1709C804.321 85.4509 804.174 84.8043 803.881 84.2309C803.601 83.6576 803.194 83.2109 802.661 82.8909C802.128 82.5709 801.521 82.4109 800.841 82.4109C800.161 82.4109 799.554 82.5709 799.021 82.8909C798.501 83.2109 798.094 83.6576 797.801 84.2309C797.508 84.8043 797.361 85.4509 797.361 86.1709C797.361 86.8909 797.508 87.5376 797.801 88.1109C798.094 88.6843 798.501 89.1309 799.021 89.4509C799.554 89.7709 800.161 89.9309 800.841 89.9309ZM808.716 76.9909H810.316V91.2109H808.716V76.9909ZM813.764 76.9909H815.364V91.2109H813.764V76.9909ZM823.092 91.3709C822.119 91.3709 821.252 91.1376 820.492 90.6709C819.732 90.1909 819.139 89.5509 818.712 88.7509C818.299 87.9509 818.092 87.0709 818.092 86.1109C818.092 85.1243 818.286 84.2443 818.672 83.4709C819.072 82.6976 819.632 82.0909 820.352 81.6509C821.086 81.1976 821.939 80.9709 822.912 80.9709C823.872 80.9709 824.706 81.1776 825.412 81.5909C826.119 82.0043 826.659 82.5709 827.032 83.2909C827.419 83.9976 827.612 84.7976 827.612 85.6909C827.612 85.9443 827.599 86.1843 827.572 86.4109H819.032V85.0909H825.952C825.886 84.2376 825.586 83.5643 825.052 83.0709C824.519 82.5776 823.806 82.3309 822.912 82.3309C822.246 82.3309 821.666 82.4843 821.172 82.7909C820.692 83.0843 820.326 83.5109 820.072 84.0709C819.819 84.6309 819.692 85.3043 819.692 86.0909C819.692 86.8243 819.839 87.4843 820.132 88.0709C820.426 88.6576 820.832 89.1176 821.352 89.4509C821.872 89.7843 822.452 89.9509 823.092 89.9509C823.892 89.9509 824.546 89.7843 825.052 89.4509C825.572 89.1043 825.912 88.6109 826.072 87.9709H827.712C827.539 88.9976 827.032 89.8243 826.192 90.4509C825.366 91.0643 824.332 91.3709 823.092 91.3709ZM834.623 91.3709C833.597 91.3709 832.71 91.1309 831.963 90.6509C831.23 90.1709 830.67 89.5376 830.283 88.7509C829.91 87.9509 829.723 87.0909 829.723 86.1709C829.723 85.2509 829.91 84.3976 830.283 83.6109C830.67 82.8109 831.23 82.1709 831.963 81.6909C832.71 81.2109 833.597 80.9709 834.623 80.9709C835.383 80.9709 836.09 81.1176 836.743 81.4109C837.41 81.6909 837.963 82.1043 838.403 82.6509C838.843 83.1843 839.11 83.8109 839.203 84.5309H837.623C837.517 83.9176 837.183 83.4109 836.623 83.0109C836.063 82.6109 835.403 82.4109 834.643 82.4109C833.937 82.4109 833.337 82.5776 832.843 82.9109C832.363 83.2443 831.997 83.6976 831.743 84.2709C831.503 84.8309 831.383 85.4643 831.383 86.1709C831.383 87.2643 831.663 88.1643 832.223 88.8709C832.797 89.5776 833.603 89.9309 834.643 89.9309C835.403 89.9309 836.043 89.7576 836.563 89.4109C837.097 89.0509 837.45 88.5643 837.623 87.9509H839.183C839.077 88.6443 838.823 89.2443 838.423 89.7509C838.023 90.2576 837.497 90.6576 836.843 90.9509C836.203 91.2309 835.463 91.3709 834.623 91.3709ZM845.76 91.2109C845.12 91.2109 844.56 91.0843 844.08 90.8309C843.614 90.5776 843.247 90.2109 842.98 89.7309C842.727 89.2509 842.6 88.6909 842.6 88.0509V82.5509H840.5V81.1309H842.6V77.9109H844.2V81.1309H847.3V82.5509H844.2V88.0109C844.2 88.5709 844.34 89.0109 844.62 89.3309C844.914 89.6376 845.314 89.7909 845.82 89.7909H847.3V91.2109H845.76ZM854.924 81.1309H856.524V82.7709C856.844 82.2376 857.311 81.8043 857.924 81.4709C858.537 81.1376 859.197 80.9709 859.904 80.9709C860.917 80.9709 861.784 81.1976 862.504 81.6509C863.237 82.1043 863.791 82.7243 864.164 83.5109C864.551 84.2976 864.744 85.1843 864.744 86.1709C864.744 87.1576 864.551 88.0443 864.164 88.8309C863.791 89.6176 863.237 90.2376 862.504 90.6909C861.784 91.1443 860.917 91.3709 859.904 91.3709C859.197 91.3709 858.531 91.2043 857.904 90.8709C857.291 90.5376 856.831 90.0976 856.524 89.5509V95.2909H854.924V81.1309ZM859.724 89.9309C860.404 89.9309 860.991 89.7776 861.484 89.4709C861.991 89.1643 862.384 88.7243 862.664 88.1509C862.944 87.5776 863.084 86.9176 863.084 86.1709C863.084 85.0243 862.777 84.1109 862.164 83.4309C861.564 82.7509 860.757 82.4109 859.744 82.4109C859.064 82.4109 858.471 82.5643 857.964 82.8709C857.471 83.1776 857.084 83.6176 856.804 84.1909C856.524 84.7643 856.384 85.4243 856.384 86.1709C856.384 87.3176 856.684 88.2309 857.284 88.9109C857.897 89.5909 858.711 89.9309 859.724 89.9309ZM870.492 91.3709C869.799 91.3709 869.185 91.2443 868.652 90.9909C868.132 90.7376 867.725 90.3843 867.432 89.9309C867.152 89.4643 867.012 88.9309 867.012 88.3309C867.012 87.6909 867.172 87.1309 867.492 86.6509C867.825 86.1576 868.292 85.7843 868.892 85.5309C869.505 85.2643 870.212 85.1309 871.012 85.1309H873.352C873.565 85.1309 873.719 85.0909 873.812 85.0109C873.905 84.9309 873.952 84.8109 873.952 84.6509C873.952 83.9576 873.712 83.3976 873.232 82.9709C872.752 82.5443 872.092 82.3309 871.252 82.3309C870.759 82.3309 870.312 82.4243 869.912 82.6109C869.512 82.7976 869.185 83.0443 868.932 83.3509C868.692 83.6576 868.559 83.9976 868.532 84.3709H866.992C867.059 83.7309 867.285 83.1509 867.672 82.6309C868.072 82.1109 868.585 81.7043 869.212 81.4109C869.852 81.1176 870.539 80.9709 871.272 80.9709C872.139 80.9709 872.892 81.1309 873.532 81.4509C874.172 81.7576 874.665 82.1909 875.012 82.7509C875.372 83.3109 875.552 83.9643 875.552 84.7109V91.2109H873.952V89.4709L873.832 89.6709C873.632 90.0176 873.359 90.3176 873.012 90.5709C872.679 90.8243 872.299 91.0243 871.872 91.1709C871.445 91.3043 870.985 91.3709 870.492 91.3709ZM870.732 90.0109C871.745 90.0109 872.532 89.7176 873.092 89.1309C873.665 88.5309 873.952 87.7109 873.952 86.6709V86.4509H871.112C870.365 86.4509 869.765 86.6176 869.312 86.9509C868.872 87.2843 868.652 87.7376 868.652 88.3109C868.652 88.8309 868.839 89.2443 869.212 89.5509C869.599 89.8576 870.105 90.0109 870.732 90.0109ZM881.253 91.4509L877.573 81.1309H879.233L882.053 89.3109L884.853 81.1309H886.513L881.473 95.2909H879.873L881.253 91.4509ZM888.858 81.1309H890.478V83.0709C890.665 82.4309 891.032 81.9243 891.578 81.5509C892.125 81.1643 892.778 80.9709 893.538 80.9709C894.352 80.9709 895.058 81.1643 895.658 81.5509C896.258 81.9243 896.652 82.4509 896.838 83.1309C897.025 82.5176 897.425 82.0043 898.038 81.5909C898.665 81.1776 899.345 80.9709 900.078 80.9709C900.798 80.9709 901.425 81.1309 901.958 81.4509C902.492 81.7576 902.898 82.2043 903.178 82.7909C903.458 83.3776 903.598 84.0709 903.598 84.8709V91.2109H901.978V85.2909C901.978 84.4243 901.772 83.7309 901.358 83.2109C900.958 82.6776 900.405 82.4109 899.698 82.4109C899.165 82.4109 898.692 82.5709 898.278 82.8909C897.878 83.1976 897.565 83.6043 897.338 84.1109C897.125 84.6176 897.018 85.1643 897.018 85.7509V91.2109H895.418V85.2909C895.418 84.4243 895.212 83.7309 894.798 83.2109C894.398 82.6776 893.852 82.4109 893.158 82.4109C892.625 82.4109 892.152 82.5709 891.738 82.8909C891.325 83.1976 891.012 83.6043 890.798 84.1109C890.585 84.6176 890.478 85.1643 890.478 85.7509V91.2109H888.858V81.1309ZM911.175 91.3709C910.202 91.3709 909.335 91.1376 908.575 90.6709C907.815 90.1909 907.222 89.5509 906.795 88.7509C906.382 87.9509 906.175 87.0709 906.175 86.1109C906.175 85.1243 906.369 84.2443 906.755 83.4709C907.155 82.6976 907.715 82.0909 908.435 81.6509C909.169 81.1976 910.022 80.9709 910.995 80.9709C911.955 80.9709 912.789 81.1776 913.495 81.5909C914.202 82.0043 914.742 82.5709 915.115 83.2909C915.502 83.9976 915.695 84.7976 915.695 85.6909C915.695 85.9443 915.682 86.1843 915.655 86.4109H907.115V85.0909H914.035C913.969 84.2376 913.669 83.5643 913.135 83.0709C912.602 82.5776 911.889 82.3309 910.995 82.3309C910.329 82.3309 909.749 82.4843 909.255 82.7909C908.775 83.0843 908.409 83.5109 908.155 84.0709C907.902 84.6309 907.775 85.3043 907.775 86.0909C907.775 86.8243 907.922 87.4843 908.215 88.0709C908.509 88.6576 908.915 89.1176 909.435 89.4509C909.955 89.7843 910.535 89.9509 911.175 89.9509C911.975 89.9509 912.629 89.7843 913.135 89.4509C913.655 89.1043 913.995 88.6109 914.155 87.9709H915.795C915.622 88.9976 915.115 89.8243 914.275 90.4509C913.449 91.0643 912.415 91.3709 911.175 91.3709ZM918.506 81.1309H920.106V83.0709C920.373 82.3776 920.793 81.8576 921.366 81.5109C921.953 81.1509 922.646 80.9709 923.446 80.9709C924.193 80.9709 924.846 81.1443 925.406 81.4909C925.979 81.8243 926.419 82.2976 926.726 82.9109C927.046 83.5243 927.206 84.2376 927.206 85.0509V91.2109H925.586V85.3109C925.586 84.4443 925.359 83.7509 924.906 83.2309C924.453 82.6976 923.846 82.4309 923.086 82.4309C922.513 82.4309 921.999 82.5776 921.546 82.8709C921.093 83.1509 920.739 83.5443 920.486 84.0509C920.233 84.5576 920.106 85.1309 920.106 85.7709V91.2109H918.506V81.1309ZM934.331 91.2109C933.691 91.2109 933.131 91.0843 932.651 90.8309C932.185 90.5776 931.818 90.2109 931.551 89.7309C931.298 89.2509 931.171 88.6909 931.171 88.0509V82.5509H929.071V81.1309H931.171V77.9109H932.771V81.1309H935.871V82.5509H932.771V88.0109C932.771 88.5709 932.911 89.0109 933.191 89.3309C933.485 89.6376 933.885 89.7909 934.391 89.7909H935.871V91.2109H934.331ZM941.491 91.3709C940.704 91.3709 940.024 91.2376 939.451 90.9709C938.877 90.7043 938.424 90.3176 938.091 89.8109C937.757 89.3043 937.571 88.6976 937.531 87.9909H939.031C939.097 88.6176 939.344 89.1109 939.771 89.4709C940.197 89.8176 940.771 89.9909 941.491 89.9909C942.144 89.9909 942.664 89.8443 943.051 89.5509C943.451 89.2443 943.651 88.8376 943.651 88.3309C943.651 87.9576 943.544 87.6709 943.331 87.4709C943.117 87.2576 942.851 87.1043 942.531 87.0109C942.211 86.9176 941.757 86.8176 941.171 86.7109C940.451 86.5909 939.864 86.4576 939.411 86.3109C938.957 86.1509 938.571 85.8909 938.251 85.5309C937.931 85.1576 937.771 84.6309 937.771 83.9509C937.771 83.3643 937.924 82.8509 938.231 82.4109C938.537 81.9576 938.957 81.6043 939.491 81.3509C940.024 81.0976 940.637 80.9709 941.331 80.9709C942.091 80.9709 942.744 81.0909 943.291 81.3309C943.851 81.5709 944.291 81.9243 944.611 82.3909C944.931 82.8576 945.117 83.4109 945.171 84.0509H943.651C943.597 83.5176 943.357 83.0976 942.931 82.7909C942.517 82.4709 941.991 82.3109 941.351 82.3109C940.791 82.3109 940.311 82.4509 939.911 82.7309C939.524 83.0109 939.331 83.3843 939.331 83.8509C939.331 84.1976 939.431 84.4709 939.631 84.6709C939.844 84.8709 940.111 85.0176 940.431 85.1109C940.751 85.1909 941.184 85.2709 941.731 85.3509C942.477 85.4709 943.084 85.6109 943.551 85.7709C944.017 85.9176 944.411 86.1909 944.731 86.5909C945.064 86.9909 945.231 87.5509 945.231 88.2709C945.231 88.8976 945.077 89.4443 944.771 89.9109C944.477 90.3776 944.051 90.7376 943.491 90.9909C942.931 91.2443 942.264 91.3709 941.491 91.3709ZM958.252 77.2109H959.672L953.372 91.2109H951.972L958.252 77.2109ZM971.738 91.3709C970.631 91.3709 969.685 91.1776 968.898 90.7909C968.125 90.3909 967.525 89.8376 967.098 89.1309C966.671 88.4243 966.431 87.5909 966.378 86.6309H968.058C968.151 87.6309 968.498 88.4176 969.098 88.9909C969.698 89.5509 970.578 89.8309 971.738 89.8309C972.765 89.8309 973.571 89.6309 974.158 89.2309C974.745 88.8309 975.038 88.2176 975.038 87.3909C975.038 86.8443 974.878 86.4043 974.558 86.0709C974.238 85.7376 973.838 85.4843 973.358 85.3109C972.891 85.1376 972.245 84.9443 971.418 84.7309C970.431 84.4909 969.638 84.2509 969.038 84.0109C968.438 83.7576 967.918 83.3709 967.478 82.8509C967.051 82.3309 966.838 81.6376 966.838 80.7709C966.838 80.0376 967.038 79.3909 967.438 78.8309C967.838 78.2709 968.398 77.8376 969.118 77.5309C969.851 77.2109 970.678 77.0509 971.598 77.0509C972.518 77.0509 973.338 77.2243 974.058 77.5709C974.791 77.9043 975.371 78.3843 975.798 79.0109C976.225 79.6376 976.471 80.3643 976.538 81.1909H974.858C974.778 80.4043 974.445 79.7776 973.858 79.3109C973.271 78.8309 972.518 78.5909 971.598 78.5909C970.665 78.5909 969.925 78.7843 969.378 79.1709C968.845 79.5576 968.578 80.0909 968.578 80.7709C968.578 81.3043 968.731 81.7309 969.038 82.0509C969.358 82.3709 969.751 82.6176 970.218 82.7909C970.698 82.9509 971.338 83.1243 972.138 83.3109C973.165 83.5509 973.978 83.7976 974.578 84.0509C975.191 84.2909 975.718 84.6776 976.158 85.2109C976.598 85.7443 976.818 86.4709 976.818 87.3909C976.818 88.2176 976.598 88.9309 976.158 89.5309C975.731 90.1309 975.131 90.5909 974.358 90.9109C973.598 91.2176 972.725 91.3709 971.738 91.3709ZM983.828 91.3709C982.855 91.3709 981.988 91.1376 981.228 90.6709C980.468 90.1909 979.875 89.5509 979.448 88.7509C979.035 87.9509 978.828 87.0709 978.828 86.1109C978.828 85.1243 979.022 84.2443 979.408 83.4709C979.808 82.6976 980.368 82.0909 981.088 81.6509C981.822 81.1976 982.675 80.9709 983.648 80.9709C984.608 80.9709 985.442 81.1776 986.148 81.5909C986.855 82.0043 987.395 82.5709 987.768 83.2909C988.155 83.9976 988.348 84.7976 988.348 85.6909C988.348 85.9443 988.335 86.1843 988.308 86.4109H979.768V85.0909H986.688C986.622 84.2376 986.322 83.5643 985.788 83.0709C985.255 82.5776 984.542 82.3309 983.648 82.3309C982.982 82.3309 982.402 82.4843 981.908 82.7909C981.428 83.0843 981.062 83.5109 980.808 84.0709C980.555 84.6309 980.428 85.3043 980.428 86.0909C980.428 86.8243 980.575 87.4843 980.868 88.0709C981.162 88.6576 981.568 89.1176 982.088 89.4509C982.608 89.7843 983.188 89.9509 983.828 89.9509C984.628 89.9509 985.282 89.7843 985.788 89.4509C986.308 89.1043 986.648 88.6109 986.808 87.9709H988.448C988.275 88.9976 987.768 89.8243 986.928 90.4509C986.102 91.0643 985.068 91.3709 983.828 91.3709ZM1001.26 91.2109C1000.62 91.2109 1000.06 91.0843 999.583 90.8309C999.116 90.5776 998.749 90.2109 998.483 89.7309C998.229 89.2509 998.103 88.6909 998.103 88.0509V82.5509H996.003V81.1309H998.103V77.9109H999.703V81.1309H1002.8V82.5509H999.703V88.0109C999.703 88.5709 999.843 89.0109 1000.12 89.3309C1000.42 89.6376 1000.82 89.7909 1001.32 89.7909H1002.8V91.2109H1001.26ZM995.003 91.2109C994.363 91.2109 993.803 91.0843 993.323 90.8309C992.856 90.5776 992.489 90.2109 992.223 89.7309C991.969 89.2509 991.843 88.6909 991.843 88.0509V82.5509H989.743V81.1309H991.843V77.9109H993.443V81.1309H996.543V82.5509H993.443V88.0109C993.443 88.5709 993.583 89.0109 993.863 89.3309C994.156 89.6376 994.556 89.7909 995.063 89.7909H996.543V91.2109H995.003ZM1005.21 76.9909H1006.81V91.2109H1005.21V76.9909ZM1014.54 91.3709C1013.57 91.3709 1012.7 91.1376 1011.94 90.6709C1011.18 90.1909 1010.59 89.5509 1010.16 88.7509C1009.75 87.9509 1009.54 87.0709 1009.54 86.1109C1009.54 85.1243 1009.73 84.2443 1010.12 83.4709C1010.52 82.6976 1011.08 82.0909 1011.8 81.6509C1012.53 81.1976 1013.39 80.9709 1014.36 80.9709C1015.32 80.9709 1016.15 81.1776 1016.86 81.5909C1017.57 82.0043 1018.11 82.5709 1018.48 83.2909C1018.87 83.9976 1019.06 84.7976 1019.06 85.6909C1019.06 85.9443 1019.05 86.1843 1019.02 86.4109H1010.48V85.0909H1017.4C1017.33 84.2376 1017.03 83.5643 1016.5 83.0709C1015.97 82.5776 1015.25 82.3309 1014.36 82.3309C1013.69 82.3309 1013.11 82.4843 1012.62 82.7909C1012.14 83.0843 1011.77 83.5109 1011.52 84.0709C1011.27 84.6309 1011.14 85.3043 1011.14 86.0909C1011.14 86.8243 1011.29 87.4843 1011.58 88.0709C1011.87 88.6576 1012.28 89.1176 1012.8 89.4509C1013.32 89.7843 1013.9 89.9509 1014.54 89.9509C1015.34 89.9509 1015.99 89.7843 1016.5 89.4509C1017.02 89.1043 1017.36 88.6109 1017.52 87.9709H1019.16C1018.99 88.9976 1018.48 89.8243 1017.64 90.4509C1016.81 91.0643 1015.78 91.3709 1014.54 91.3709ZM1021.87 81.1309H1023.49V83.0709C1023.68 82.4309 1024.04 81.9243 1024.59 81.5509C1025.14 81.1643 1025.79 80.9709 1026.55 80.9709C1027.36 80.9709 1028.07 81.1643 1028.67 81.5509C1029.27 81.9243 1029.66 82.4509 1029.85 83.1309C1030.04 82.5176 1030.44 82.0043 1031.05 81.5909C1031.68 81.1776 1032.36 80.9709 1033.09 80.9709C1033.81 80.9709 1034.44 81.1309 1034.97 81.4509C1035.5 81.7576 1035.91 82.2043 1036.19 82.7909C1036.47 83.3776 1036.61 84.0709 1036.61 84.8709V91.2109H1034.99V85.2909C1034.99 84.4243 1034.78 83.7309 1034.37 83.2109C1033.97 82.6776 1033.42 82.4109 1032.71 82.4109C1032.18 82.4109 1031.7 82.5709 1031.29 82.8909C1030.89 83.1976 1030.58 83.6043 1030.35 84.1109C1030.14 84.6176 1030.03 85.1643 1030.03 85.7509V91.2109H1028.43V85.2909C1028.43 84.4243 1028.22 83.7309 1027.81 83.2109C1027.41 82.6776 1026.86 82.4109 1026.17 82.4109C1025.64 82.4109 1025.16 82.5709 1024.75 82.8909C1024.34 83.1976 1024.02 83.6043 1023.81 84.1109C1023.6 84.6176 1023.49 85.1643 1023.49 85.7509V91.2109H1021.87V81.1309ZM1044.19 91.3709C1043.21 91.3709 1042.35 91.1376 1041.59 90.6709C1040.83 90.1909 1040.23 89.5509 1039.81 88.7509C1039.39 87.9509 1039.19 87.0709 1039.19 86.1109C1039.19 85.1243 1039.38 84.2443 1039.77 83.4709C1040.17 82.6976 1040.73 82.0909 1041.45 81.6509C1042.18 81.1976 1043.03 80.9709 1044.01 80.9709C1044.97 80.9709 1045.8 81.1776 1046.51 81.5909C1047.21 82.0043 1047.75 82.5709 1048.13 83.2909C1048.51 83.9976 1048.71 84.7976 1048.71 85.6909C1048.71 85.9443 1048.69 86.1843 1048.67 86.4109H1040.13V85.0909H1047.05C1046.98 84.2376 1046.68 83.5643 1046.15 83.0709C1045.61 82.5776 1044.9 82.3309 1044.01 82.3309C1043.34 82.3309 1042.76 82.4843 1042.27 82.7909C1041.79 83.0843 1041.42 83.5109 1041.17 84.0709C1040.91 84.6309 1040.79 85.3043 1040.79 86.0909C1040.79 86.8243 1040.93 87.4843 1041.23 88.0709C1041.52 88.6576 1041.93 89.1176 1042.45 89.4509C1042.97 89.7843 1043.55 89.9509 1044.19 89.9509C1044.99 89.9509 1045.64 89.7843 1046.15 89.4509C1046.67 89.1043 1047.01 88.6109 1047.17 87.9709H1048.81C1048.63 88.9976 1048.13 89.8243 1047.29 90.4509C1046.46 91.0643 1045.43 91.3709 1044.19 91.3709ZM1051.52 81.1309H1053.12V83.0709C1053.39 82.3776 1053.81 81.8576 1054.38 81.5109C1054.97 81.1509 1055.66 80.9709 1056.46 80.9709C1057.21 80.9709 1057.86 81.1443 1058.42 81.4909C1058.99 81.8243 1059.43 82.2976 1059.74 82.9109C1060.06 83.5243 1060.22 84.2376 1060.22 85.0509V91.2109H1058.6V85.3109C1058.6 84.4443 1058.37 83.7509 1057.92 83.2309C1057.47 82.6976 1056.86 82.4309 1056.1 82.4309C1055.53 82.4309 1055.01 82.5776 1054.56 82.8709C1054.11 83.1509 1053.75 83.5443 1053.5 84.0509C1053.25 84.5576 1053.12 85.1309 1053.12 85.7709V91.2109H1051.52V81.1309ZM1067.34 91.2109C1066.7 91.2109 1066.14 91.0843 1065.66 90.8309C1065.2 90.5776 1064.83 90.2109 1064.56 89.7309C1064.31 89.2509 1064.18 88.6909 1064.18 88.0509V82.5509H1062.08V81.1309H1064.18V77.9109H1065.78V81.1309H1068.88V82.5509H1065.78V88.0109C1065.78 88.5709 1065.92 89.0109 1066.2 89.3309C1066.5 89.6376 1066.9 89.7909 1067.4 89.7909H1068.88V91.2109H1067.34ZM1074.5 91.3709C1073.72 91.3709 1073.04 91.2376 1072.46 90.9709C1071.89 90.7043 1071.44 90.3176 1071.1 89.8109C1070.77 89.3043 1070.58 88.6976 1070.54 87.9909H1072.04C1072.11 88.6176 1072.36 89.1109 1072.78 89.4709C1073.21 89.8176 1073.78 89.9909 1074.5 89.9909C1075.16 89.9909 1075.68 89.8443 1076.06 89.5509C1076.46 89.2443 1076.66 88.8376 1076.66 88.3309C1076.66 87.9576 1076.56 87.6709 1076.34 87.4709C1076.13 87.2576 1075.86 87.1043 1075.54 87.0109C1075.22 86.9176 1074.77 86.8176 1074.18 86.7109C1073.46 86.5909 1072.88 86.4576 1072.42 86.3109C1071.97 86.1509 1071.58 85.8909 1071.26 85.5309C1070.94 85.1576 1070.78 84.6309 1070.78 83.9509C1070.78 83.3643 1070.94 82.8509 1071.24 82.4109C1071.55 81.9576 1071.97 81.6043 1072.5 81.3509C1073.04 81.0976 1073.65 80.9709 1074.34 80.9709C1075.1 80.9709 1075.76 81.0909 1076.3 81.3309C1076.86 81.5709 1077.3 81.9243 1077.62 82.3909C1077.94 82.8576 1078.13 83.4109 1078.18 84.0509H1076.66C1076.61 83.5176 1076.37 83.0976 1075.94 82.7909C1075.53 82.4709 1075 82.3109 1074.36 82.3109C1073.8 82.3109 1073.32 82.4509 1072.92 82.7309C1072.54 83.0109 1072.34 83.3843 1072.34 83.8509C1072.34 84.1976 1072.44 84.4709 1072.64 84.6709C1072.86 84.8709 1073.12 85.0176 1073.44 85.1109C1073.76 85.1909 1074.2 85.2709 1074.74 85.3509C1075.49 85.4709 1076.1 85.6109 1076.56 85.7709C1077.03 85.9176 1077.42 86.1909 1077.74 86.5909C1078.08 86.9909 1078.24 87.5509 1078.24 88.2709C1078.24 88.8976 1078.09 89.4443 1077.78 89.9109C1077.49 90.3776 1077.06 90.7376 1076.5 90.9909C1075.94 91.2443 1075.28 91.3709 1074.5 91.3709Z" fill="white"/>
<path d="M78.1463 311.051H82.2663C83.5996 311.051 84.793 311.324 85.8463 311.871C86.8996 312.417 87.733 313.224 88.3463 314.291C88.9596 315.344 89.2663 316.597 89.2663 318.051C89.2663 319.504 88.9596 320.764 88.3463 321.831C87.733 322.884 86.8996 323.684 85.8463 324.231C84.793 324.777 83.5996 325.051 82.2663 325.051H78.1463V311.051ZM82.2263 323.511C83.1863 323.511 84.0596 323.317 84.8463 322.931C85.6463 322.544 86.2863 321.944 86.7663 321.131C87.2463 320.304 87.4863 319.277 87.4863 318.051C87.4863 316.824 87.2463 315.804 86.7663 314.991C86.2863 314.164 85.6463 313.557 84.8463 313.171C84.0596 312.784 83.1863 312.591 82.2263 312.591H79.8663V323.511H82.2263ZM92.0772 314.971H93.6772V325.051H92.0772V314.971ZM93.7972 310.831V313.071H91.9572V310.831H93.7972ZM97.7852 327.751H102.445C103.099 327.751 103.632 327.531 104.045 327.091C104.459 326.664 104.665 326.111 104.665 325.431V323.651C104.425 324.117 103.992 324.497 103.365 324.791C102.739 325.071 102.045 325.211 101.285 325.211C100.272 325.211 99.4052 324.984 98.6852 324.531C97.9652 324.077 97.4119 323.457 97.0252 322.671C96.6519 321.884 96.4652 320.997 96.4652 320.011C96.4652 319.024 96.6519 318.137 97.0252 317.351C97.4119 316.564 97.9652 315.944 98.6852 315.491C99.4052 315.037 100.279 314.811 101.305 314.811C101.985 314.811 102.632 314.964 103.245 315.271C103.872 315.577 104.345 315.971 104.665 316.451V314.971H106.265V325.491C106.265 326.211 106.112 326.844 105.805 327.391C105.499 327.937 105.059 328.364 104.485 328.671C103.912 328.977 103.265 329.131 102.545 329.131H97.7852V327.751ZM101.465 323.771C102.132 323.771 102.712 323.617 103.205 323.311C103.712 323.004 104.105 322.564 104.385 321.991C104.665 321.417 104.805 320.757 104.805 320.011C104.805 318.864 104.499 317.951 103.885 317.271C103.285 316.591 102.479 316.251 101.465 316.251C100.799 316.251 100.212 316.404 99.7052 316.711C99.1985 317.017 98.8052 317.457 98.5252 318.031C98.2585 318.604 98.1252 319.264 98.1252 320.011C98.1252 321.157 98.4252 322.071 99.0252 322.751C99.6385 323.431 100.452 323.771 101.465 323.771ZM109.713 314.971H111.313V325.051H109.713V314.971ZM111.433 310.831V313.071H109.593V310.831H111.433ZM118.761 325.051C118.121 325.051 117.561 324.924 117.081 324.671C116.614 324.417 116.248 324.051 115.981 323.571C115.728 323.091 115.601 322.531 115.601 321.891V316.391H113.501V314.971H115.601V311.751H117.201V314.971H120.301V316.391H117.201V321.851C117.201 322.411 117.341 322.851 117.621 323.171C117.914 323.477 118.314 323.631 118.821 323.631H120.301V325.051H118.761ZM125.72 325.211C125.027 325.211 124.414 325.084 123.88 324.831C123.36 324.577 122.954 324.224 122.66 323.771C122.38 323.304 122.24 322.771 122.24 322.171C122.24 321.531 122.4 320.971 122.72 320.491C123.054 319.997 123.52 319.624 124.12 319.371C124.734 319.104 125.44 318.971 126.24 318.971H128.58C128.794 318.971 128.947 318.931 129.04 318.851C129.134 318.771 129.18 318.651 129.18 318.491C129.18 317.797 128.94 317.237 128.46 316.811C127.98 316.384 127.32 316.171 126.48 316.171C125.987 316.171 125.54 316.264 125.14 316.451C124.74 316.637 124.414 316.884 124.16 317.191C123.92 317.497 123.787 317.837 123.76 318.211H122.22C122.287 317.571 122.514 316.991 122.9 316.471C123.3 315.951 123.814 315.544 124.44 315.251C125.08 314.957 125.767 314.811 126.5 314.811C127.367 314.811 128.12 314.971 128.76 315.291C129.4 315.597 129.894 316.031 130.24 316.591C130.6 317.151 130.78 317.804 130.78 318.551V325.051H129.18V323.311L129.06 323.511C128.86 323.857 128.587 324.157 128.24 324.411C127.907 324.664 127.527 324.864 127.1 325.011C126.674 325.144 126.214 325.211 125.72 325.211ZM125.96 323.851C126.974 323.851 127.76 323.557 128.32 322.971C128.894 322.371 129.18 321.551 129.18 320.511V320.291H126.34C125.594 320.291 124.994 320.457 124.54 320.791C124.1 321.124 123.88 321.577 123.88 322.151C123.88 322.671 124.067 323.084 124.44 323.391C124.827 323.697 125.334 323.851 125.96 323.851ZM134.077 310.831H135.677V325.051H134.077V310.831ZM144.51 311.051H149.79C150.71 311.051 151.504 311.224 152.17 311.571C152.85 311.917 153.37 312.404 153.73 313.031C154.09 313.657 154.27 314.377 154.27 315.191C154.27 316.004 154.09 316.724 153.73 317.351C153.37 317.977 152.85 318.464 152.17 318.811C151.504 319.157 150.71 319.331 149.79 319.331H146.23V325.051H144.51V311.051ZM149.77 317.811C150.397 317.811 150.91 317.697 151.31 317.471C151.724 317.231 152.024 316.911 152.21 316.511C152.397 316.111 152.49 315.671 152.49 315.191C152.49 314.431 152.27 313.804 151.83 313.311C151.39 312.817 150.704 312.571 149.77 312.571H146.23V317.811H149.77ZM159.469 325.211C158.775 325.211 158.162 325.084 157.629 324.831C157.109 324.577 156.702 324.224 156.409 323.771C156.129 323.304 155.989 322.771 155.989 322.171C155.989 321.531 156.149 320.971 156.469 320.491C156.802 319.997 157.269 319.624 157.869 319.371C158.482 319.104 159.189 318.971 159.989 318.971H162.329C162.542 318.971 162.695 318.931 162.789 318.851C162.882 318.771 162.929 318.651 162.929 318.491C162.929 317.797 162.689 317.237 162.209 316.811C161.729 316.384 161.069 316.171 160.229 316.171C159.735 316.171 159.289 316.264 158.889 316.451C158.489 316.637 158.162 316.884 157.909 317.191C157.669 317.497 157.535 317.837 157.509 318.211H155.969C156.035 317.571 156.262 316.991 156.649 316.471C157.049 315.951 157.562 315.544 158.189 315.251C158.829 314.957 159.515 314.811 160.249 314.811C161.115 314.811 161.869 314.971 162.509 315.291C163.149 315.597 163.642 316.031 163.989 316.591C164.349 317.151 164.529 317.804 164.529 318.551V325.051H162.929V323.311L162.809 323.511C162.609 323.857 162.335 324.157 161.989 324.411C161.655 324.664 161.275 324.864 160.849 325.011C160.422 325.144 159.962 325.211 159.469 325.211ZM159.709 323.851C160.722 323.851 161.509 323.557 162.069 322.971C162.642 322.371 162.929 321.551 162.929 320.511V320.291H160.089C159.342 320.291 158.742 320.457 158.289 320.791C157.849 321.124 157.629 321.577 157.629 322.151C157.629 322.671 157.815 323.084 158.189 323.391C158.575 323.697 159.082 323.851 159.709 323.851ZM170.23 325.291L166.55 314.971H168.21L171.03 323.151L173.83 314.971H175.49L170.45 329.131H168.85L170.23 325.291ZM177.835 314.971H179.455V316.911C179.642 316.271 180.008 315.764 180.555 315.391C181.102 315.004 181.755 314.811 182.515 314.811C183.328 314.811 184.035 315.004 184.635 315.391C185.235 315.764 185.628 316.291 185.815 316.971C186.002 316.357 186.402 315.844 187.015 315.431C187.642 315.017 188.322 314.811 189.055 314.811C189.775 314.811 190.402 314.971 190.935 315.291C191.468 315.597 191.875 316.044 192.155 316.631C192.435 317.217 192.575 317.911 192.575 318.711V325.051H190.955V319.131C190.955 318.264 190.748 317.571 190.335 317.051C189.935 316.517 189.382 316.251 188.675 316.251C188.142 316.251 187.668 316.411 187.255 316.731C186.855 317.037 186.542 317.444 186.315 317.951C186.102 318.457 185.995 319.004 185.995 319.591V325.051H184.395V319.131C184.395 318.264 184.188 317.571 183.775 317.051C183.375 316.517 182.828 316.251 182.135 316.251C181.602 316.251 181.128 316.411 180.715 316.731C180.302 317.037 179.988 317.444 179.775 317.951C179.562 318.457 179.455 319.004 179.455 319.591V325.051H177.835V314.971ZM200.152 325.211C199.178 325.211 198.312 324.977 197.552 324.511C196.792 324.031 196.198 323.391 195.772 322.591C195.358 321.791 195.152 320.911 195.152 319.951C195.152 318.964 195.345 318.084 195.732 317.311C196.132 316.537 196.692 315.931 197.412 315.491C198.145 315.037 198.998 314.811 199.972 314.811C200.932 314.811 201.765 315.017 202.472 315.431C203.178 315.844 203.718 316.411 204.092 317.131C204.478 317.837 204.672 318.637 204.672 319.531C204.672 319.784 204.658 320.024 204.632 320.251H196.092V318.931H203.012C202.945 318.077 202.645 317.404 202.112 316.911C201.578 316.417 200.865 316.171 199.972 316.171C199.305 316.171 198.725 316.324 198.232 316.631C197.752 316.924 197.385 317.351 197.132 317.911C196.878 318.471 196.752 319.144 196.752 319.931C196.752 320.664 196.898 321.324 197.192 321.911C197.485 322.497 197.892 322.957 198.412 323.291C198.932 323.624 199.512 323.791 200.152 323.791C200.952 323.791 201.605 323.624 202.112 323.291C202.632 322.944 202.972 322.451 203.132 321.811H204.772C204.598 322.837 204.092 323.664 203.252 324.291C202.425 324.904 201.392 325.211 200.152 325.211ZM207.483 314.971H209.083V316.911C209.349 316.217 209.769 315.697 210.343 315.351C210.929 314.991 211.623 314.811 212.423 314.811C213.169 314.811 213.823 314.984 214.383 315.331C214.956 315.664 215.396 316.137 215.703 316.751C216.023 317.364 216.183 318.077 216.183 318.891V325.051H214.563V319.151C214.563 318.284 214.336 317.591 213.883 317.071C213.429 316.537 212.823 316.271 212.063 316.271C211.489 316.271 210.976 316.417 210.523 316.711C210.069 316.991 209.716 317.384 209.463 317.891C209.209 318.397 209.083 318.971 209.083 319.611V325.051H207.483V314.971ZM223.308 325.051C222.668 325.051 222.108 324.924 221.628 324.671C221.161 324.417 220.795 324.051 220.528 323.571C220.275 323.091 220.148 322.531 220.148 321.891V316.391H218.048V314.971H220.148V311.751H221.748V314.971H224.848V316.391H221.748V321.851C221.748 322.411 221.888 322.851 222.168 323.171C222.461 323.477 222.861 323.631 223.368 323.631H224.848V325.051H223.308ZM230.467 325.211C229.68 325.211 229 325.077 228.427 324.811C227.854 324.544 227.4 324.157 227.067 323.651C226.734 323.144 226.547 322.537 226.507 321.831H228.007C228.074 322.457 228.32 322.951 228.747 323.311C229.174 323.657 229.747 323.831 230.467 323.831C231.12 323.831 231.64 323.684 232.027 323.391C232.427 323.084 232.627 322.677 232.627 322.171C232.627 321.797 232.52 321.511 232.307 321.311C232.094 321.097 231.827 320.944 231.507 320.851C231.187 320.757 230.734 320.657 230.147 320.551C229.427 320.431 228.84 320.297 228.387 320.151C227.934 319.991 227.547 319.731 227.227 319.371C226.907 318.997 226.747 318.471 226.747 317.791C226.747 317.204 226.9 316.691 227.207 316.251C227.514 315.797 227.934 315.444 228.467 315.191C229 314.937 229.614 314.811 230.307 314.811C231.067 314.811 231.72 314.931 232.267 315.171C232.827 315.411 233.267 315.764 233.587 316.231C233.907 316.697 234.094 317.251 234.147 317.891H232.627C232.574 317.357 232.334 316.937 231.907 316.631C231.494 316.311 230.967 316.151 230.327 316.151C229.767 316.151 229.287 316.291 228.887 316.571C228.5 316.851 228.307 317.224 228.307 317.691C228.307 318.037 228.407 318.311 228.607 318.511C228.82 318.711 229.087 318.857 229.407 318.951C229.727 319.031 230.16 319.111 230.707 319.191C231.454 319.311 232.06 319.451 232.527 319.611C232.994 319.757 233.387 320.031 233.707 320.431C234.04 320.831 234.207 321.391 234.207 322.111C234.207 322.737 234.054 323.284 233.747 323.751C233.454 324.217 233.027 324.577 232.467 324.831C231.907 325.084 231.24 325.211 230.467 325.211Z" fill="white"/>
<path d="M166.629 10H175.389V11.54H168.349V16.16H174.089V17.7H168.349V24H166.629V10ZM180.586 24.16C179.853 24.16 179.199 23.9933 178.626 23.66C178.053 23.3133 177.613 22.8333 177.306 22.22C176.999 21.6067 176.846 20.8933 176.846 20.08V13.92H178.446V19.82C178.446 20.6867 178.673 21.3867 179.126 21.92C179.593 22.44 180.206 22.7 180.966 22.7C181.526 22.7 182.033 22.56 182.486 22.28C182.939 21.9867 183.293 21.5867 183.546 21.08C183.799 20.5733 183.926 20 183.926 19.36V13.92H185.526V24H183.926V22.06C183.659 22.7533 183.233 23.28 182.646 23.64C182.073 23.9867 181.386 24.16 180.586 24.16ZM188.967 13.92H190.567V15.86C190.834 15.1667 191.254 14.6467 191.827 14.3C192.414 13.94 193.107 13.76 193.907 13.76C194.654 13.76 195.307 13.9333 195.867 14.28C196.441 14.6133 196.881 15.0867 197.187 15.7C197.507 16.3133 197.667 17.0267 197.667 17.84V24H196.047V18.1C196.047 17.2333 195.821 16.54 195.367 16.02C194.914 15.4867 194.307 15.22 193.547 15.22C192.974 15.22 192.461 15.3667 192.007 15.66C191.554 15.94 191.201 16.3333 190.947 16.84C190.694 17.3467 190.567 17.92 190.567 18.56V24H188.967V13.92ZM205.109 24.16C204.096 24.16 203.229 23.9333 202.509 23.48C201.789 23.0267 201.236 22.4067 200.849 21.62C200.476 20.8333 200.289 19.9467 200.289 18.96C200.289 17.9733 200.476 17.0867 200.849 16.3C201.236 15.5133 201.789 14.8933 202.509 14.44C203.229 13.9867 204.102 13.76 205.129 13.76C205.822 13.76 206.476 13.9267 207.089 14.26C207.716 14.5933 208.182 15.0267 208.489 15.56V9.78H210.089V24H208.489V22.34C208.182 22.8867 207.716 23.3267 207.089 23.66C206.476 23.9933 205.816 24.16 205.109 24.16ZM205.289 22.72C205.956 22.72 206.536 22.5667 207.029 22.26C207.536 21.9533 207.929 21.5133 208.209 20.94C208.489 20.3667 208.629 19.7067 208.629 18.96C208.629 17.8133 208.322 16.9 207.709 16.22C207.109 15.54 206.302 15.2 205.289 15.2C204.622 15.2 204.036 15.3533 203.529 15.66C203.022 15.9667 202.629 16.4067 202.349 16.98C202.082 17.5533 201.949 18.2133 201.949 18.96C201.949 20.1067 202.249 21.02 202.849 21.7C203.462 22.38 204.276 22.72 205.289 22.72ZM221.922 11.54H217.442V10H228.122V11.54H223.642V24H221.922V11.54ZM228.243 13.92H229.843V15.96C230.057 15.2667 230.383 14.7533 230.823 14.42C231.277 14.0867 231.863 13.92 232.583 13.92H233.863V15.34H232.483C231.523 15.34 230.843 15.72 230.443 16.48C230.043 17.2267 229.843 18.2533 229.843 19.56V24H228.243V13.92ZM238.616 24.16C237.923 24.16 237.309 24.0333 236.776 23.78C236.256 23.5267 235.849 23.1733 235.556 22.72C235.276 22.2533 235.136 21.72 235.136 21.12C235.136 20.48 235.296 19.92 235.616 19.44C235.949 18.9467 236.416 18.5733 237.016 18.32C237.629 18.0533 238.336 17.92 239.136 17.92H241.476C241.689 17.92 241.843 17.88 241.936 17.8C242.029 17.72 242.076 17.6 242.076 17.44C242.076 16.7467 241.836 16.1867 241.356 15.76C240.876 15.3333 240.216 15.12 239.376 15.12C238.883 15.12 238.436 15.2133 238.036 15.4C237.636 15.5867 237.309 15.8333 237.056 16.14C236.816 16.4467 236.683 16.7867 236.656 17.16H235.116C235.183 16.52 235.409 15.94 235.796 15.42C236.196 14.9 236.709 14.4933 237.336 14.2C237.976 13.9067 238.663 13.76 239.396 13.76C240.263 13.76 241.016 13.92 241.656 14.24C242.296 14.5467 242.789 14.98 243.136 15.54C243.496 16.1 243.676 16.7533 243.676 17.5V24H242.076V22.26L241.956 22.46C241.756 22.8067 241.483 23.1067 241.136 23.36C240.803 23.6133 240.423 23.8133 239.996 23.96C239.569 24.0933 239.109 24.16 238.616 24.16ZM238.856 22.8C239.869 22.8 240.656 22.5067 241.216 21.92C241.789 21.32 242.076 20.5 242.076 19.46V19.24H239.236C238.489 19.24 237.889 19.4067 237.436 19.74C236.996 20.0733 236.776 20.5267 236.776 21.1C236.776 21.62 236.963 22.0333 237.336 22.34C237.723 22.6467 238.229 22.8 238.856 22.8ZM246.973 13.92H248.573V15.86C248.84 15.1667 249.26 14.6467 249.833 14.3C250.42 13.94 251.113 13.76 251.913 13.76C252.66 13.76 253.313 13.9333 253.873 14.28C254.446 14.6133 254.886 15.0867 255.193 15.7C255.513 16.3133 255.673 17.0267 255.673 17.84V24H254.053V18.1C254.053 17.2333 253.826 16.54 253.373 16.02C252.92 15.4867 252.313 15.22 251.553 15.22C250.98 15.22 250.466 15.3667 250.013 15.66C249.56 15.94 249.206 16.3333 248.953 16.84C248.7 17.3467 248.573 17.92 248.573 18.56V24H246.973V13.92ZM262.174 24.16C261.388 24.16 260.708 24.0267 260.134 23.76C259.561 23.4933 259.108 23.1067 258.774 22.6C258.441 22.0933 258.254 21.4867 258.214 20.78H259.714C259.781 21.4067 260.028 21.9 260.454 22.26C260.881 22.6067 261.454 22.78 262.174 22.78C262.828 22.78 263.348 22.6333 263.734 22.34C264.134 22.0333 264.334 21.6267 264.334 21.12C264.334 20.7467 264.228 20.46 264.014 20.26C263.801 20.0467 263.534 19.8933 263.214 19.8C262.894 19.7067 262.441 19.6067 261.854 19.5C261.134 19.38 260.548 19.2467 260.094 19.1C259.641 18.94 259.254 18.68 258.934 18.32C258.614 17.9467 258.454 17.42 258.454 16.74C258.454 16.1533 258.608 15.64 258.914 15.2C259.221 14.7467 259.641 14.3933 260.174 14.14C260.708 13.8867 261.321 13.76 262.014 13.76C262.774 13.76 263.428 13.88 263.974 14.12C264.534 14.36 264.974 14.7133 265.294 15.18C265.614 15.6467 265.801 16.2 265.854 16.84H264.334C264.281 16.3067 264.041 15.8867 263.614 15.58C263.201 15.26 262.674 15.1 262.034 15.1C261.474 15.1 260.994 15.24 260.594 15.52C260.208 15.8 260.014 16.1733 260.014 16.64C260.014 16.9867 260.114 17.26 260.314 17.46C260.528 17.66 260.794 17.8067 261.114 17.9C261.434 17.98 261.868 18.06 262.414 18.14C263.161 18.26 263.768 18.4 264.234 18.56C264.701 18.7067 265.094 18.98 265.414 19.38C265.748 19.78 265.914 20.34 265.914 21.06C265.914 21.6867 265.761 22.2333 265.454 22.7C265.161 23.1667 264.734 23.5267 264.174 23.78C263.614 24.0333 262.948 24.16 262.174 24.16ZM269.531 15.34H267.431V13.92H269.531V12.9C269.531 12.2733 269.658 11.7267 269.911 11.26C270.165 10.78 270.531 10.4133 271.011 10.16C271.491 9.90667 272.045 9.78 272.671 9.78H274.251V11.2H272.731C272.238 11.2 271.845 11.36 271.551 11.68C271.271 11.9867 271.131 12.4067 271.131 12.94V13.92H274.251V15.34H271.131V24H269.531V15.34ZM280.324 24.16C279.351 24.16 278.484 23.9267 277.724 23.46C276.964 22.98 276.371 22.34 275.944 21.54C275.531 20.74 275.324 19.86 275.324 18.9C275.324 17.9133 275.517 17.0333 275.904 16.26C276.304 15.4867 276.864 14.88 277.584 14.44C278.317 13.9867 279.171 13.76 280.144 13.76C281.104 13.76 281.937 13.9667 282.644 14.38C283.351 14.7933 283.891 15.36 284.264 16.08C284.651 16.7867 284.844 17.5867 284.844 18.48C284.844 18.7333 284.831 18.9733 284.804 19.2H276.264V17.88H283.184C283.117 17.0267 282.817 16.3533 282.284 15.86C281.751 15.3667 281.037 15.12 280.144 15.12C279.477 15.12 278.897 15.2733 278.404 15.58C277.924 15.8733 277.557 16.3 277.304 16.86C277.051 17.42 276.924 18.0933 276.924 18.88C276.924 19.6133 277.071 20.2733 277.364 20.86C277.657 21.4467 278.064 21.9067 278.584 22.24C279.104 22.5733 279.684 22.74 280.324 22.74C281.124 22.74 281.777 22.5733 282.284 22.24C282.804 21.8933 283.144 21.4 283.304 20.76H284.944C284.771 21.7867 284.264 22.6133 283.424 23.24C282.597 23.8533 281.564 24.16 280.324 24.16ZM287.655 13.92H289.255V15.96C289.468 15.2667 289.795 14.7533 290.235 14.42C290.688 14.0867 291.275 13.92 291.995 13.92H293.275V15.34H291.895C290.935 15.34 290.255 15.72 289.855 16.48C289.455 17.2267 289.255 18.2533 289.255 19.56V24H287.655V13.92ZM298.482 24.16C297.695 24.16 297.015 24.0267 296.442 23.76C295.868 23.4933 295.415 23.1067 295.082 22.6C294.748 22.0933 294.562 21.4867 294.522 20.78H296.022C296.088 21.4067 296.335 21.9 296.762 22.26C297.188 22.6067 297.762 22.78 298.482 22.78C299.135 22.78 299.655 22.6333 300.042 22.34C300.442 22.0333 300.642 21.6267 300.642 21.12C300.642 20.7467 300.535 20.46 300.322 20.26C300.108 20.0467 299.842 19.8933 299.522 19.8C299.202 19.7067 298.748 19.6067 298.162 19.5C297.442 19.38 296.855 19.2467 296.402 19.1C295.948 18.94 295.562 18.68 295.242 18.32C294.922 17.9467 294.762 17.42 294.762 16.74C294.762 16.1533 294.915 15.64 295.222 15.2C295.528 14.7467 295.948 14.3933 296.482 14.14C297.015 13.8867 297.628 13.76 298.322 13.76C299.082 13.76 299.735 13.88 300.282 14.12C300.842 14.36 301.282 14.7133 301.602 15.18C301.922 15.6467 302.108 16.2 302.162 16.84H300.642C300.588 16.3067 300.348 15.8867 299.922 15.58C299.508 15.26 298.982 15.1 298.342 15.1C297.782 15.1 297.302 15.24 296.902 15.52C296.515 15.8 296.322 16.1733 296.322 16.64C296.322 16.9867 296.422 17.26 296.622 17.46C296.835 17.66 297.102 17.8067 297.422 17.9C297.742 17.98 298.175 18.06 298.722 18.14C299.468 18.26 300.075 18.4 300.542 18.56C301.008 18.7067 301.402 18.98 301.722 19.38C302.055 19.78 302.222 20.34 302.222 21.06C302.222 21.6867 302.068 22.2333 301.762 22.7C301.468 23.1667 301.042 23.5267 300.482 23.78C299.922 24.0333 299.255 24.16 298.482 24.16Z" fill="white"/>
<defs>
<filter id="filter0_f_46_9" x="391.03" y="119.129" width="258.396" height="226.646" filterUnits="userSpaceOnUse" color-interpolation-filters="sRGB">
<feFlood flood-opacity="0" result="BackgroundImageFix"/>
<feBlend mode="normal" in="SourceGraphic" in2="BackgroundImageFix" result="shape"/>
<feGaussianBlur stdDeviation="4" result="effect1_foregroundBlur_46_9"/>
</filter>
<filter id="filter1_f_46_9" x="374.587" y="101.055" width="291.281" height="262.796" filterUnits="userSpaceOnUse" color-interpolation-filters="sRGB">
<feFlood flood-opacity="0" result="BackgroundImageFix"/>
<feBlend mode="normal" in="SourceGraphic" in2="BackgroundImageFix" result="shape"/>
<feGaussianBlur stdDeviation="18.45" result="effect1_foregroundBlur_46_9"/>
</filter>
<filter id="filter2_d_46_9" x="385.787" y="113.255" width="274.881" height="246.396" filterUnits="userSpaceOnUse" color-interpolation-filters="sRGB">
<feFlood flood-opacity="0" result="BackgroundImageFix"/>
<feColorMatrix in="SourceAlpha" type="matrix" values="0 0 0 0 0 0 0 0 0 0 0 0 0 0 0 0 0 0 127 0" result="hardAlpha"/>
<feOffset dx="3" dy="4"/>
<feGaussianBlur stdDeviation="14.35"/>
<feComposite in2="hardAlpha" operator="out"/>
<feColorMatrix type="matrix" values="0 0 0 0 1 0 0 0 0 1 0 0 0 0 1 0 0 0 0.25 0"/>
<feBlend mode="normal" in2="BackgroundImageFix" result="effect1_dropShadow_46_9"/>
<feBlend mode="normal" in="SourceGraphic" in2="effect1_dropShadow_46_9" result="shape"/>
</filter>
</defs>
</svg>
