<svg width="1307" height="398" viewBox="0 0 1307 398" fill="none" xmlns="http://www.w3.org/2000/svg">
<g filter="url(#filter0_f_57_670)">
<path d="M618.606 173.25L645.183 146.13C647.064 144.21 649.638 143.129 652.325 143.129L814.925 143.129C820.447 143.129 824.925 147.606 824.925 153.129V281.763C824.925 284.402 823.882 286.933 822.023 288.806L791.723 319.345L760.358 350.833C758.481 352.717 755.932 353.776 753.273 353.776H592.531C587.008 353.776 582.531 349.299 582.531 343.776L582.529 214.979C582.529 212.404 583.523 209.928 585.303 208.067L618.606 173.25Z" fill="#FF5E01"/>
</g>
<path d="M652.325 143.629H814.925C820.171 143.629 824.425 147.882 824.425 153.129V281.763C824.425 284.269 823.434 286.675 821.668 288.454L791.368 318.992L760.004 350.48C758.221 352.27 755.799 353.276 753.273 353.276H592.53C587.284 353.276 583.03 349.023 583.03 343.776L583.029 214.979C583.029 212.533 583.973 210.181 585.664 208.413L618.963 173.6L618.964 173.601L645.54 146.479C647.327 144.656 649.772 143.629 652.325 143.629Z" fill="#FF5100" stroke="white"/>
<g filter="url(#filter1_f_57_670)">
<path d="M627.355 180.981L650.898 156.956C652.779 155.037 655.353 153.955 658.04 153.955L802.468 153.955C807.99 153.955 812.468 158.432 812.468 163.955V277.917C812.468 280.555 811.425 283.087 809.566 284.96L782.679 312.059L754.839 340.009C752.962 341.892 750.413 342.951 747.754 342.951H604.988C599.465 342.951 594.988 338.474 594.988 332.951L594.986 218.833C594.986 216.258 595.98 213.782 597.76 211.921L627.355 180.981Z" fill="#FF833B"/>
</g>
<g filter="url(#filter2_d_57_670)">
<path d="M627.355 180.981L650.898 156.956C652.779 155.037 655.353 153.955 658.04 153.955L802.468 153.955C807.99 153.955 812.468 158.432 812.468 163.955V277.917C812.468 280.555 811.425 283.087 809.566 284.96L782.679 312.059L754.839 340.009C752.962 341.892 750.413 342.951 747.754 342.951H604.988C599.465 342.951 594.988 338.474 594.988 332.951L594.986 218.833C594.986 216.258 595.98 213.782 597.76 211.921L627.355 180.981Z" fill="#FF5100"/>
<path d="M658.04 154.455H802.468C807.714 154.455 811.968 158.708 811.968 163.955V277.917C811.968 280.424 810.976 282.828 809.211 284.607L782.324 311.706L754.484 339.655C752.702 341.445 750.28 342.451 747.754 342.451H604.987C599.741 342.451 595.487 338.198 595.487 332.951L595.486 218.833C595.486 216.387 596.43 214.035 598.121 212.267L627.717 181.326L627.716 181.325L651.255 157.306C653.042 155.482 655.487 154.455 658.04 154.455Z" stroke="white"/>
</g>
<path d="M1098.47 370.5H1109.08L1091.08 397.961H1080.47L1098.47 370.5Z" fill="white"/>
<path d="M1112.77 370.5H1123.39L1105.39 397.961H1094.77L1112.77 370.5Z" fill="white"/>
<path d="M1127.08 370.5H1137.69L1119.69 397.961H1109.08L1127.08 370.5Z" fill="white"/>
<path d="M1141.39 370.5H1152L1134 397.961H1123.39L1141.39 370.5Z" fill="white"/>
<path d="M787 353.23L932.94 396.794C933.311 396.905 933.697 396.961 934.084 396.961H1085.59" stroke="white" stroke-width="2" stroke-linecap="round"/>
<path d="M1252.75 58.2695H1263.36L1245.36 85.7305H1234.75L1252.75 58.2695Z" fill="white"/>
<path d="M1267.06 58.2695H1277.67L1259.67 85.7305H1249.06L1267.06 58.2695Z" fill="white"/>
<path d="M1281.36 58.2695H1291.98L1273.98 85.7305H1263.36L1281.36 58.2695Z" fill="white"/>
<path d="M1295.67 58.2695H1306.28L1288.28 85.7305H1277.67L1295.67 58.2695Z" fill="white"/>
<path d="M850 192.46L1072.68 85.1466C1073.22 84.8856 1073.81 84.75 1074.41 84.75H1241.5" stroke="white" stroke-width="2" stroke-linecap="round"/>
<path d="M53.5322 315.316H42.9202L60.9202 342.777H71.5322L53.5322 315.316Z" fill="white"/>
<path d="M39.2256 315.316H28.6135L46.6135 342.777H57.2256L39.2256 315.316Z" fill="white"/>
<path d="M24.9189 315.316H14.3069L32.3069 342.777H42.9189L24.9189 315.316Z" fill="white"/>
<path d="M10.6123 315.316H0.00025177L18.0002 342.777H28.6123L10.6123 315.316Z" fill="white"/>
<path d="M565.5 283.771L414.691 341.507C414.234 341.682 413.749 341.771 413.26 341.771H67" stroke="white" stroke-width="2" stroke-linecap="round"/>
<path d="M1070.97 209.266H1081.58L1063.58 236.727H1052.97L1070.97 209.266Z" fill="white"/>
<path d="M1085.27 209.266H1095.89L1077.89 236.727H1067.27L1085.27 209.266Z" fill="white"/>
<path d="M1099.58 209.266H1110.19L1092.19 236.727H1081.58L1099.58 209.266Z" fill="white"/>
<path d="M1113.89 209.266H1124.5L1106.5 236.727H1095.89L1113.89 209.266Z" fill="white"/>
<path d="M841 280.73L959.819 235.987C960.269 235.817 960.747 235.73 961.228 235.73H1057.5" stroke="white" stroke-width="2" stroke-linecap="round"/>
<path d="M80.5312 115.316H69.9192L87.9192 142.777H98.5312L80.5312 115.316Z" fill="white"/>
<path d="M66.2246 115.316H55.6126L73.6126 142.777H84.2246L66.2246 115.316Z" fill="white"/>
<path d="M51.918 115.316H41.3059L59.3059 142.777H69.918L51.918 115.316Z" fill="white"/>
<path d="M37.6113 115.316H26.9993L44.9993 142.777H55.6113L37.6113 115.316Z" fill="white"/>
<path d="M562 228.301L295.101 141.995C294.703 141.866 294.288 141.801 293.87 141.801L94 141.801" stroke="white" stroke-width="2" stroke-linecap="round"/>
<path d="M319.532 0.269531H308.92L326.92 27.7305H337.532L319.532 0.269531Z" fill="white"/>
<path d="M305.226 0.269531H294.614L312.614 27.7305H323.226L305.226 0.269531Z" fill="white"/>
<path d="M290.919 0.269531H280.307L298.307 27.7305H308.919L290.919 0.269531Z" fill="white"/>
<path d="M276.612 0.269531H266L284 27.7305H294.612L276.612 0.269531Z" fill="white"/>
<path d="M617.406 141.738L506.083 27.9411C505.33 27.1719 504.3 26.7383 503.224 26.7383H332.406" stroke="white" stroke-width="2" stroke-linecap="round"/>
<defs>
<filter id="filter0_f_57_670" x="574.529" y="135.129" width="258.396" height="226.646" filterUnits="userSpaceOnUse" color-interpolation-filters="sRGB">
<feFlood flood-opacity="0" result="BackgroundImageFix"/>
<feBlend mode="normal" in="SourceGraphic" in2="BackgroundImageFix" result="shape"/>
<feGaussianBlur stdDeviation="4" result="effect1_foregroundBlur_57_670"/>
</filter>
<filter id="filter1_f_57_670" x="558.086" y="117.055" width="291.281" height="262.796" filterUnits="userSpaceOnUse" color-interpolation-filters="sRGB">
<feFlood flood-opacity="0" result="BackgroundImageFix"/>
<feBlend mode="normal" in="SourceGraphic" in2="BackgroundImageFix" result="shape"/>
<feGaussianBlur stdDeviation="18.45" result="effect1_foregroundBlur_57_670"/>
</filter>
<filter id="filter2_d_57_670" x="569.286" y="129.255" width="274.881" height="246.396" filterUnits="userSpaceOnUse" color-interpolation-filters="sRGB">
<feFlood flood-opacity="0" result="BackgroundImageFix"/>
<feColorMatrix in="SourceAlpha" type="matrix" values="0 0 0 0 0 0 0 0 0 0 0 0 0 0 0 0 0 0 127 0" result="hardAlpha"/>
<feOffset dx="3" dy="4"/>
<feGaussianBlur stdDeviation="14.35"/>
<feComposite in2="hardAlpha" operator="out"/>
<feColorMatrix type="matrix" values="0 0 0 0 1 0 0 0 0 1 0 0 0 0 1 0 0 0 0.25 0"/>
<feBlend mode="normal" in2="BackgroundImageFix" result="effect1_dropShadow_57_670"/>
<feBlend mode="normal" in="SourceGraphic" in2="effect1_dropShadow_57_670" result="shape"/>
</filter>
</defs>
</svg>
