<svg width="1152" height="319" viewBox="0 0 1152 319" fill="none" xmlns="http://www.w3.org/2000/svg">
<g filter="url(#filter0_f_50_288)">
<path d="M515.607 112.25L542.184 85.1298C544.065 83.2105 546.639 82.1289 549.326 82.1289L711.926 82.1289C717.448 82.1289 721.926 86.6061 721.926 92.1289V220.763C721.926 223.402 720.883 225.933 719.024 227.806L688.724 258.345L657.359 289.833C655.482 291.717 652.933 292.776 650.274 292.776H489.532C484.009 292.776 479.532 288.299 479.532 282.776L479.53 153.979C479.53 151.404 480.524 148.928 482.304 147.067L515.607 112.25Z" fill="#FF5E01"/>
</g>
<path d="M549.326 82.6289H711.926C717.172 82.629 721.426 86.8823 721.426 92.1289V220.763C721.426 223.269 720.434 225.675 718.669 227.454L688.369 257.992L657.005 289.48C655.222 291.27 652.8 292.276 650.274 292.276H489.531C484.285 292.276 480.031 288.023 480.031 282.776L480.03 153.979C480.03 151.533 480.974 149.181 482.665 147.413L515.964 112.6L515.965 112.601L542.541 85.4795C544.328 83.6562 546.773 82.6289 549.326 82.6289Z" fill="#FF5100" stroke="white"/>
<g filter="url(#filter1_f_50_288)">
<path d="M524.356 119.981L547.899 95.956C549.78 94.0367 552.354 92.9551 555.041 92.9551L699.469 92.9551C704.991 92.9551 709.469 97.4322 709.469 102.955V216.917C709.469 219.555 708.426 222.087 706.567 223.96L679.68 251.059L651.84 279.009C649.963 280.892 647.414 281.951 644.755 281.951H501.988C496.466 281.951 491.989 277.474 491.988 271.951L491.987 157.833C491.987 155.258 492.981 152.782 494.761 150.921L524.356 119.981Z" fill="#FF833B"/>
</g>
<g filter="url(#filter2_d_50_288)">
<path d="M524.356 119.981L547.899 95.956C549.78 94.0367 552.354 92.9551 555.041 92.9551L699.469 92.9551C704.991 92.9551 709.469 97.4322 709.469 102.955V216.917C709.469 219.555 708.426 222.087 706.567 223.96L679.68 251.059L651.84 279.009C649.963 280.892 647.414 281.951 644.755 281.951H501.988C496.466 281.951 491.989 277.474 491.988 271.951L491.987 157.833C491.987 155.258 492.981 152.782 494.761 150.921L524.356 119.981Z" fill="#FF5100"/>
<path d="M555.041 93.4551H699.469C704.715 93.4552 708.969 97.7084 708.969 102.955V216.917C708.969 219.424 707.977 221.828 706.212 223.607L679.325 250.706L651.485 278.655C649.703 280.445 647.281 281.451 644.755 281.451H501.988C496.742 281.451 492.488 277.198 492.488 271.951L492.487 157.833C492.487 155.387 493.431 153.035 495.122 151.267L524.718 120.326L524.717 120.325L548.256 96.3057C550.043 94.4824 552.488 93.4551 555.041 93.4551Z" stroke="white"/>
</g>
<path d="M53.5322 150.27H42.9202L60.9202 177.731H71.5322L53.5322 150.27Z" fill="white"/>
<path d="M39.2256 150.27H28.6135L46.6135 177.731H57.2256L39.2256 150.27Z" fill="white"/>
<path d="M24.9189 150.27H14.3069L32.3069 177.731H42.9189L24.9189 150.27Z" fill="white"/>
<path d="M10.6123 150.27H0.00025177L18.0002 177.731H28.6123L10.6123 150.27Z" fill="white"/>
<path d="M468 226.734L353.26 177.064C352.759 176.846 352.218 176.734 351.671 176.734H66.4062" stroke="white" stroke-width="2" stroke-linecap="round"/>
<path d="M1098.25 0.269531H1108.86L1090.86 27.7305H1080.25L1098.25 0.269531Z" fill="white"/>
<path d="M1112.56 0.269531H1123.17L1105.17 27.7305H1094.56L1112.56 0.269531Z" fill="white"/>
<path d="M1126.86 0.269531H1137.48L1119.48 27.7305H1108.86L1126.86 0.269531Z" fill="white"/>
<path d="M1141.17 0.269531H1151.78L1133.78 27.7305H1123.17L1141.17 0.269531Z" fill="white"/>
<path d="M735 141.74L847.826 27.9242C848.577 27.1665 849.6 26.7402 850.667 26.7402H1087" stroke="white" stroke-width="2" stroke-linecap="round"/>
<defs>
<filter id="filter0_f_50_288" x="471.53" y="74.1289" width="258.396" height="226.646" filterUnits="userSpaceOnUse" color-interpolation-filters="sRGB">
<feFlood flood-opacity="0" result="BackgroundImageFix"/>
<feBlend mode="normal" in="SourceGraphic" in2="BackgroundImageFix" result="shape"/>
<feGaussianBlur stdDeviation="4" result="effect1_foregroundBlur_50_288"/>
</filter>
<filter id="filter1_f_50_288" x="455.087" y="56.0551" width="291.281" height="262.796" filterUnits="userSpaceOnUse" color-interpolation-filters="sRGB">
<feFlood flood-opacity="0" result="BackgroundImageFix"/>
<feBlend mode="normal" in="SourceGraphic" in2="BackgroundImageFix" result="shape"/>
<feGaussianBlur stdDeviation="18.45" result="effect1_foregroundBlur_50_288"/>
</filter>
<filter id="filter2_d_50_288" x="466.287" y="68.2551" width="274.881" height="246.396" filterUnits="userSpaceOnUse" color-interpolation-filters="sRGB">
<feFlood flood-opacity="0" result="BackgroundImageFix"/>
<feColorMatrix in="SourceAlpha" type="matrix" values="0 0 0 0 0 0 0 0 0 0 0 0 0 0 0 0 0 0 127 0" result="hardAlpha"/>
<feOffset dx="3" dy="4"/>
<feGaussianBlur stdDeviation="14.35"/>
<feComposite in2="hardAlpha" operator="out"/>
<feColorMatrix type="matrix" values="0 0 0 0 1 0 0 0 0 1 0 0 0 0 1 0 0 0 0.25 0"/>
<feBlend mode="normal" in2="BackgroundImageFix" result="effect1_dropShadow_50_288"/>
<feBlend mode="normal" in="SourceGraphic" in2="effect1_dropShadow_50_288" result="shape"/>
</filter>
</defs>
</svg>
