<svg width="1087" height="341" viewBox="0 0 1087 341" fill="none" xmlns="http://www.w3.org/2000/svg">
<g filter="url(#filter0_f_55_471)">
<path d="M499.607 134.25L526.184 107.13C528.065 105.21 530.639 104.129 533.326 104.129L695.926 104.129C701.448 104.129 705.926 108.606 705.926 114.129V242.763C705.926 245.402 704.883 247.933 703.024 249.806L672.724 280.345L641.359 311.833C639.482 313.717 636.933 314.776 634.274 314.776H473.532C468.009 314.776 463.532 310.299 463.532 304.776L463.53 175.979C463.53 173.404 464.524 170.928 466.304 169.067L499.607 134.25Z" fill="#FF5E01"/>
</g>
<path d="M533.326 104.629H695.926C701.172 104.629 705.426 108.882 705.426 114.129V242.763C705.426 245.269 704.434 247.675 702.669 249.454L672.369 279.992L641.005 311.48C639.222 313.27 636.8 314.276 634.274 314.276H473.531C468.285 314.276 464.031 310.023 464.031 304.776L464.03 175.979C464.03 173.533 464.974 171.181 466.665 169.413L499.964 134.6L499.965 134.601L526.541 107.479C528.328 105.656 530.773 104.629 533.326 104.629Z" fill="#FF5100" stroke="white"/>
<g filter="url(#filter1_f_55_471)">
<path d="M508.356 141.981L531.899 117.956C533.78 116.037 536.354 114.955 539.041 114.955L683.469 114.955C688.991 114.955 693.469 119.432 693.469 124.955V238.917C693.469 241.555 692.426 244.087 690.567 245.96L663.68 273.059L635.84 301.009C633.963 302.892 631.414 303.951 628.755 303.951H485.988C480.466 303.951 475.989 299.474 475.988 293.951L475.987 179.833C475.987 177.258 476.981 174.782 478.761 172.921L508.356 141.981Z" fill="#FF833B"/>
</g>
<g filter="url(#filter2_d_55_471)">
<path d="M508.356 141.981L531.899 117.956C533.78 116.037 536.354 114.955 539.041 114.955L683.469 114.955C688.991 114.955 693.469 119.432 693.469 124.955V238.917C693.469 241.555 692.426 244.087 690.567 245.96L663.68 273.059L635.84 301.009C633.963 302.892 631.414 303.951 628.755 303.951H485.988C480.466 303.951 475.989 299.474 475.988 293.951L475.987 179.833C475.987 177.258 476.981 174.782 478.761 172.921L508.356 141.981Z" fill="#FF5100"/>
<path d="M539.041 115.455H683.469C688.715 115.455 692.969 119.708 692.969 124.955V238.917C692.969 241.424 691.977 243.828 690.212 245.607L663.325 272.706L635.485 300.655C633.703 302.445 631.281 303.451 628.755 303.451H485.988C480.742 303.451 476.488 299.198 476.488 293.951L476.487 179.833C476.487 177.387 477.431 175.035 479.122 173.267L508.718 142.326L508.717 142.325L532.256 118.306C534.043 116.482 536.488 115.455 539.041 115.455Z" stroke="white"/>
</g>
<path d="M1033.47 251.5H1044.08L1026.08 278.961H1015.47L1033.47 251.5Z" fill="white"/>
<path d="M1047.77 251.5H1058.39L1040.39 278.961H1029.77L1047.77 251.5Z" fill="white"/>
<path d="M1062.08 251.5H1072.69L1054.69 278.961H1044.08L1062.08 251.5Z" fill="white"/>
<path d="M1076.39 251.5H1087L1069 278.961H1058.39L1076.39 251.5Z" fill="white"/>
<path d="M722 234.225L834.303 277.685C834.764 277.864 835.253 277.955 835.747 277.955H1020.59" stroke="white" stroke-width="2" stroke-linecap="round"/>
<path d="M1002.25 0.269531H1012.86L994.863 27.7305H984.251L1002.25 0.269531Z" fill="white"/>
<path d="M1016.56 0.269531H1027.17L1009.17 27.7305H998.558L1016.56 0.269531Z" fill="white"/>
<path d="M1030.86 0.269531H1041.48L1023.48 27.7305H1012.86L1030.86 0.269531Z" fill="white"/>
<path d="M1045.17 0.269531H1055.78L1037.78 27.7305H1027.17L1045.17 0.269531Z" fill="white"/>
<path d="M715.5 135.438L821.826 27.916C822.577 27.1561 823.601 26.7285 824.67 26.7285H991" stroke="white" stroke-width="2" stroke-linecap="round"/>
<path d="M200.532 291.318H189.92L207.92 318.779H218.532L200.532 291.318Z" fill="white"/>
<path d="M186.226 291.318H175.614L193.614 318.779H204.226L186.226 291.318Z" fill="white"/>
<path d="M171.919 291.318H161.307L179.307 318.779H189.919L171.919 291.318Z" fill="white"/>
<path d="M157.612 291.318H147L165 318.779H175.612L157.612 291.318Z" fill="white"/>
<path d="M450 264.301L311.694 317.534C311.235 317.71 310.748 317.801 310.257 317.801H214" stroke="white" stroke-width="2" stroke-linecap="round"/>
<path d="M53.5322 91.3164H42.9202L60.9202 118.777H71.5322L53.5322 91.3164Z" fill="white"/>
<path d="M39.2256 91.3164H28.6135L46.6135 118.777H57.2256L39.2256 91.3164Z" fill="white"/>
<path d="M24.9189 91.3164H14.3069L32.3069 118.777H42.9189L24.9189 91.3164Z" fill="white"/>
<path d="M10.6123 91.3164H0.00025177L18.0002 118.777H28.6123L10.6123 91.3164Z" fill="white"/>
<path d="M449.5 197.785L207.109 117.986C206.706 117.853 206.283 117.785 205.858 117.785L67 117.785" stroke="white" stroke-width="2" stroke-linecap="round"/>
<defs>
<filter id="filter0_f_55_471" x="455.53" y="96.1289" width="258.396" height="226.646" filterUnits="userSpaceOnUse" color-interpolation-filters="sRGB">
<feFlood flood-opacity="0" result="BackgroundImageFix"/>
<feBlend mode="normal" in="SourceGraphic" in2="BackgroundImageFix" result="shape"/>
<feGaussianBlur stdDeviation="4" result="effect1_foregroundBlur_55_471"/>
</filter>
<filter id="filter1_f_55_471" x="439.087" y="78.0551" width="291.281" height="262.796" filterUnits="userSpaceOnUse" color-interpolation-filters="sRGB">
<feFlood flood-opacity="0" result="BackgroundImageFix"/>
<feBlend mode="normal" in="SourceGraphic" in2="BackgroundImageFix" result="shape"/>
<feGaussianBlur stdDeviation="18.45" result="effect1_foregroundBlur_55_471"/>
</filter>
<filter id="filter2_d_55_471" x="450.287" y="90.2551" width="274.881" height="246.396" filterUnits="userSpaceOnUse" color-interpolation-filters="sRGB">
<feFlood flood-opacity="0" result="BackgroundImageFix"/>
<feColorMatrix in="SourceAlpha" type="matrix" values="0 0 0 0 0 0 0 0 0 0 0 0 0 0 0 0 0 0 127 0" result="hardAlpha"/>
<feOffset dx="3" dy="4"/>
<feGaussianBlur stdDeviation="14.35"/>
<feComposite in2="hardAlpha" operator="out"/>
<feColorMatrix type="matrix" values="0 0 0 0 1 0 0 0 0 1 0 0 0 0 1 0 0 0 0.25 0"/>
<feBlend mode="normal" in2="BackgroundImageFix" result="effect1_dropShadow_55_471"/>
<feBlend mode="normal" in="SourceGraphic" in2="effect1_dropShadow_55_471" result="shape"/>
</filter>
</defs>
</svg>
