<svg width="105" height="40" viewBox="0 0 105 40" fill="none" xmlns="http://www.w3.org/2000/svg">
<path d="M48.4386 35.2376H51.173V24.9233H48.4386V35.2376ZM48.4386 23.3148H51.173V20.8619H48.4386V23.3148Z" fill="white"/>
<path d="M52.9349 38.6154H55.6693V34.0715H55.7096C56.2926 34.9561 57.2376 35.5392 58.6852 35.5392C61.3392 35.5392 63.1487 33.4281 63.1487 30.0905C63.1487 26.8735 61.3995 24.6418 58.6651 24.6418C57.2577 24.6418 56.2926 25.3053 55.6291 26.21H55.5688V24.9233H52.9349V38.6154ZM58.1022 33.2672C56.4736 33.2672 55.609 32.0408 55.609 30.1709C55.609 28.3212 56.2926 26.8534 58.0016 26.8534C59.6905 26.8534 60.3741 28.2206 60.3741 30.1709C60.3741 32.1212 59.4895 33.2672 58.1022 33.2672Z" fill="white"/>
<path d="M68.6033 35.5392C71.1768 35.5392 72.9461 34.2926 72.9461 32.2217C72.9461 29.809 71.0361 29.3265 69.307 28.9646C67.8392 28.663 66.472 28.5825 66.472 27.6979C66.472 26.954 67.1757 26.5518 68.2414 26.5518C69.4075 26.5518 70.1112 26.954 70.2318 28.0598H72.7049C72.5038 25.9889 70.9959 24.6418 68.2816 24.6418C65.9292 24.6418 64.0794 25.7074 64.0794 27.9391C64.0794 30.191 65.889 30.6937 67.7387 31.0556C69.1461 31.337 70.453 31.4376 70.453 32.4228C70.453 33.1466 69.7694 33.609 68.563 33.609C67.3366 33.609 66.4921 33.0863 66.3112 31.9H63.7778C63.9387 34.0916 65.6075 35.5392 68.6033 35.5392Z" fill="white"/>
<path d="M83.3278 35.2376V24.9233H80.5934V30.8746C80.5934 32.2418 79.8093 33.2069 78.5225 33.2069C77.3564 33.2069 76.8135 32.5434 76.8135 31.337V24.9233H74.0992V31.7995C74.0992 34.0513 75.386 35.5191 77.6781 35.5191C79.1257 35.5191 79.9299 34.9762 80.6337 34.0312H80.694V35.2376H83.3278Z" fill="white"/>
<path d="M85.0965 35.2376H87.831V29.246C87.831 27.8788 88.5749 26.9942 89.6807 26.9942C90.686 26.9942 91.2691 27.5973 91.2691 28.7635V35.2376H94.0035V29.246C94.0035 27.8788 94.7072 26.9942 95.8532 26.9942C96.8585 26.9942 97.4416 27.5973 97.4416 28.7635V35.2376H100.176V28.3011C100.176 26.0492 98.9495 24.6418 96.7781 24.6418C95.4712 24.6418 94.3855 25.3254 93.6818 26.4513H93.6416C93.1389 25.3656 92.0934 24.6418 90.7865 24.6418C89.359 24.6418 88.3537 25.3656 87.7907 26.3106H87.7304V24.9233H85.0965V35.2376Z" fill="white"/>
<path d="M48.4788 17.5715H51.2132V3.1958H48.4788V17.5715Z" fill="white"/>
<path d="M57.8992 17.8731C61.0961 17.8731 63.2876 15.5006 63.2876 12.4244C63.2876 9.34821 61.0961 6.97572 57.8992 6.97572C54.7024 6.97572 52.5108 9.34821 52.5108 12.4244C52.5108 15.5006 54.7024 17.8731 57.8992 17.8731ZM57.8992 15.7821C56.2103 15.7821 55.2855 14.435 55.2855 12.4244C55.2855 10.4138 56.2103 9.04663 57.8992 9.04663C59.568 9.04663 60.513 10.4138 60.513 12.4244C60.513 14.435 59.568 15.7821 57.8992 15.7821Z" fill="white"/>
<path d="M69.1026 21.0901C70.6307 21.0901 71.9577 20.7282 72.8222 19.9239C73.5862 19.2202 74.0487 18.235 74.0487 16.7874V7.2572H71.4148V8.34292H71.3746C70.7513 7.47836 69.8063 6.97572 68.5195 6.97572C65.9058 6.97572 64.056 8.9461 64.056 12.0223C64.056 15.1387 66.3079 16.9482 68.6 16.9482C69.9069 16.9482 70.691 16.4255 71.2942 15.7419H71.3545V16.8678C71.3545 18.2752 70.6106 19.0191 69.0624 19.0191C67.7957 19.0191 67.2127 18.5165 66.9915 17.8731H64.2772C64.5587 19.8837 66.2878 21.0901 69.1026 21.0901ZM69.0624 14.7567C67.655 14.7567 66.7301 13.7313 66.7301 11.9821C66.7301 10.253 67.655 9.16726 69.0423 9.16726C70.691 9.16726 71.4952 10.454 71.4952 11.962C71.4952 13.49 70.7915 14.7567 69.0624 14.7567Z" fill="white"/>
<path d="M80.6951 17.8731C83.8919 17.8731 86.0835 15.5006 86.0835 12.4244C86.0835 9.34821 83.8919 6.97572 80.6951 6.97572C77.4983 6.97572 75.3067 9.34821 75.3067 12.4244C75.3067 15.5006 77.4983 17.8731 80.6951 17.8731ZM80.6951 15.7821C79.0062 15.7821 78.0813 14.435 78.0813 12.4244C78.0813 10.4138 79.0062 9.04663 80.6951 9.04663C82.3639 9.04663 83.3089 10.4138 83.3089 12.4244C83.3089 14.435 82.3639 15.7821 80.6951 15.7821Z" fill="white"/>
<path d="M88.4805 13.6308H100.303V11.2784H88.4805V13.6308Z" fill="white"/>
<path d="M101.17 23.1712C101.17 22.7085 101.545 22.3334 102.008 22.3334H103.683C104.146 22.3334 104.521 22.7085 104.521 23.1712C104.521 23.6338 104.146 24.0089 103.683 24.0089H102.008C101.545 24.0089 101.17 23.6338 101.17 23.1712Z" fill="white"/>
<path fill-rule="evenodd" clip-rule="evenodd" d="M20.8242 -0.000488281C31.8699 -0.000488281 40.8242 8.95381 40.8242 19.9995C40.8242 31.0452 31.8699 39.9995 20.8242 39.9995C9.77852 39.9995 0.824219 31.0452 0.824219 19.9995C0.824219 8.95381 9.77852 -0.000488281 20.8242 -0.000488281ZM20.1013 1.4961C17.8197 1.8172 15.6471 3.65059 13.9606 6.71691C13.4714 7.60634 13.03 8.58897 12.6453 9.64995C14.9385 9.07368 17.4576 8.73393 20.1013 8.68138V1.4961ZM10.955 10.1303C11.4333 8.62909 12.0185 7.24791 12.6938 6.02016C13.5298 4.5001 14.522 3.18746 15.6399 2.17928C9.56101 3.94474 4.76944 8.7363 3.00399 14.8152C4.01216 13.6973 5.32481 12.7051 6.84487 11.8691C8.07262 11.1938 9.45379 10.6086 10.955 10.1303ZM10.4746 11.8206C9.89838 14.1138 9.55864 16.6329 9.50609 19.2766H2.3208C2.64191 16.9949 4.4753 14.8223 7.54162 13.1359C8.43105 12.6467 9.41368 12.2053 10.4746 11.8206ZM10.9522 19.2766C11.0119 16.3915 11.4272 13.6829 12.1144 11.2897C14.5076 10.6025 17.2163 10.1871 20.1013 10.1274V13.2503C19.025 16.0057 16.8298 18.2007 14.0743 19.2766H10.9522ZM9.50609 20.7224H2.3208C2.64191 23.0041 4.4753 25.1766 7.54162 26.8631C8.43105 27.3523 9.41368 27.7937 10.4746 28.1784C9.89838 25.8852 9.55864 23.3661 9.50609 20.7224ZM12.1144 28.7093C11.4272 26.3161 11.0119 23.6075 10.9522 20.7224H14.0743C16.8298 21.7983 19.0251 23.9933 20.1013 26.7487V29.8716C17.2163 29.8119 14.5076 29.3965 12.1144 28.7093ZM10.955 29.8687C9.45379 29.3904 8.07262 28.8052 6.84487 28.1299C5.32481 27.2939 4.01216 26.3017 3.00399 25.1838C4.76944 31.2627 9.56101 36.0543 15.6399 37.8197C14.522 36.8115 13.5298 35.4989 12.6938 33.9788C12.0185 32.7511 11.4333 31.3699 10.955 29.8687ZM20.1013 38.5029C17.8197 38.1818 15.6471 36.3484 13.9606 33.2821C13.4714 32.3927 13.03 31.41 12.6453 30.3491C14.9385 30.9253 17.4576 31.2651 20.1013 31.3176V38.5029ZM26.0085 37.8197C27.1264 36.8115 28.1186 35.4989 28.9547 33.9788C29.6299 32.7511 30.2151 31.3699 30.6934 29.8687C32.1946 29.3904 33.5758 28.8052 34.8036 28.1299C36.3236 27.2939 37.6363 26.3017 38.6444 25.1838C36.879 31.2627 32.0874 36.0543 26.0085 37.8197ZM29.0031 30.3491C28.6184 31.41 28.177 32.3927 27.6878 33.2821C26.0014 36.3484 23.8288 38.1818 21.5471 38.5029V31.3176C24.1908 31.2651 26.7099 30.9253 29.0031 30.3491ZM31.1738 28.1784C32.2347 27.7937 33.2174 27.3523 34.1068 26.8631C37.1731 25.1766 39.0065 23.0041 39.3276 20.7224H32.1423C32.0898 23.3661 31.75 25.8852 31.1738 28.1784ZM30.6963 20.7224C30.6366 23.6075 30.2212 26.3161 29.534 28.7093C27.1408 29.3965 24.4322 29.8119 21.5471 29.8716V26.751C22.623 23.9946 24.8187 21.7986 27.575 20.7224H30.6963ZM32.1423 19.2766H39.3276C39.0065 16.9949 37.1731 14.8223 34.1068 13.1359C33.2174 12.6467 32.2347 12.2053 31.1738 11.8206C31.75 14.1138 32.0898 16.6329 32.1423 19.2766ZM29.534 11.2897C30.2212 13.6829 30.6366 16.3915 30.6963 19.2766H27.575C24.8187 18.2004 22.623 16.0044 21.5471 13.248V10.1274C24.4322 10.1871 27.1408 10.6025 29.534 11.2897ZM30.6934 10.1303C32.1946 10.6086 33.5758 11.1938 34.8036 11.8691C36.3236 12.7051 37.6363 13.6973 38.6444 14.8152C36.879 8.7363 32.0874 3.94474 26.0085 2.17928C27.1264 3.18746 28.1186 4.5001 28.9547 6.02016C29.6299 7.24791 30.2151 8.62909 30.6934 10.1303ZM21.5471 1.4961C23.8288 1.8172 26.0014 3.65059 27.6878 6.71691C28.177 7.60635 28.6184 8.58897 29.0031 9.64995C26.7099 9.07368 24.1908 8.73393 21.5471 8.68138V1.4961Z" fill="white"/>
</svg>
