<svg width="176" height="40" viewBox="0 0 176 40" fill="none" xmlns="http://www.w3.org/2000/svg">
<path d="M171.217 7.66317L175.391 11.8658C175.537 11.9819 175.645 12.1386 175.701 12.3161C175.786 13.3505 175.003 13.4071 174.203 13.4649C173.857 13.4899 173.508 13.5152 173.225 13.62C171.821 13.9999 170.569 14.8023 169.638 15.9183C168.706 17.0343 168.141 18.4099 168.018 19.8583C167.928 20.0256 167.792 20.1633 167.625 20.2548C167.459 20.3464 167.27 20.3878 167.08 20.3743C166.86 20.3548 166.654 20.2585 166.498 20.1022L165.128 18.7228C165.138 18.8172 165.138 18.9107 165.138 18.9859V19.8958C165.138 19.9533 165.14 20.0087 165.133 20.064C165.124 20.126 165.103 20.1878 165.054 20.2522V20.3367C165.054 20.3798 165.059 20.4199 165.064 20.4606C165.074 20.5439 165.085 20.6297 165.054 20.7495C165.024 20.8612 165.021 20.9915 165.017 21.1078C165.016 21.1769 165.014 21.2411 165.007 21.2935C164.997 21.3662 164.997 21.4438 164.991 21.5213C164.985 21.5939 164.973 21.6664 164.941 21.7344C164.897 21.8296 164.882 21.9205 164.878 22.0129C164.875 22.0571 164.875 22.1016 164.875 22.1472L164.819 22.438L162.69 32.5881L162.521 33.3479L162.455 34.4549L161.517 39.2485L161.367 39.999H85.448L85.0821 39.6331L85.0164 39.9521H76.8926L72.371 35.4024L72.8025 33.3479H70.2509L68.6656 31.7438C66.6981 33.1765 64.3166 33.9275 61.8832 33.8827C59.2674 33.9856 56.7173 33.0478 54.7913 31.2748L52.3241 28.7889L51.7894 31.2841C51.7238 31.6406 51.6393 31.9784 51.5455 32.3067L51.4611 32.6163L51.3204 33.0665C51.3088 33.1056 51.2931 33.1434 51.2735 33.1791C51.1338 33.5927 50.9678 33.9969 50.7763 34.3892C50.7813 34.4044 50.7813 34.4209 50.7763 34.4361C50.7517 34.4881 50.7235 34.5382 50.6918 34.5862C50.5502 34.8665 50.3937 35.1389 50.2228 35.4024C50.1911 35.4503 50.1629 35.5005 50.1384 35.5525L50.0352 35.665C49.8059 35.9939 49.5552 36.3072 49.2847 36.6031C49.2105 36.6773 49.1363 36.747 49.0609 36.8154C48.9839 36.8854 48.9057 36.9541 48.825 37.0252L48.6187 37.2222C48.4886 37.3303 48.3555 37.4346 48.2196 37.5351C48.1075 37.618 47.9935 37.6982 47.8776 37.7757C45.9443 38.9212 43.7142 39.4664 41.4705 39.3423C38.3748 39.3423 35.8982 38.4417 34.3316 36.8658L29.9226 32.4286C28.1615 33.4252 26.1674 33.9367 24.144 33.9108C21.5361 33.9915 19.0014 33.041 17.0896 31.2654L14.6225 28.7795L13.8251 32.6163L13.6656 33.3761H5.3636L0.823242 28.7982L1.05776 27.6913L6.04839 3.7232L6.19845 2.97274H14.5286L14.7444 3.17915V2.97274H70.8701L71.0765 3.17915V2.97274H79.2003L83.7406 7.5506L83.5155 8.64815L83.2716 9.84892H85.6074L85.9733 10.2148C87.0011 9.61246 88.1685 9.28907 89.3598 9.27671C90.2358 9.25941 91.1057 9.4258 91.9135 9.7651C92.7214 10.1044 93.4492 10.609 94.0502 11.2466L93.9282 11.1059L96.1327 13.3292C97.4742 10.8058 100.485 9.27671 104.575 9.27671C107.746 9.27671 110.082 10.0834 111.498 11.5468L113.093 13.151L113.628 10.5712L113.787 9.82075H121.92L124.247 12.1566L124.575 10.5806L124.735 9.83014H140.739L141.17 10.2617C142.254 9.62208 143.495 9.2972 144.754 9.3236C145.511 9.29405 146.265 9.43267 146.963 9.72949C147.66 10.0263 148.283 10.474 148.787 11.0403C148.761 11.0108 148.736 10.9813 148.711 10.9523C148.666 10.8985 148.621 10.846 148.573 10.7974L149.388 11.6125C150.098 10.8772 150.952 10.2949 151.895 9.90137C152.839 9.50779 153.853 9.31112 154.875 9.3236C155.418 9.29022 155.96 9.33642 156.486 9.45935L155.598 8.56375C155.477 8.4343 155.395 8.27323 155.362 8.09923C155.329 7.92523 155.346 7.74533 155.41 7.58049C155.475 7.41559 155.585 7.27245 155.728 7.16756C155.871 7.06267 156.04 7.00031 156.217 6.98777H156.93C157.122 6.96945 157.313 6.94128 157.502 6.90332C158.499 6.69376 159.437 6.26526 160.248 5.64872C161.06 5.03225 161.724 4.2432 162.193 3.33861C162.234 3.26864 162.271 3.19667 162.305 3.12286V3.07597C162.628 2.38117 162.824 1.63483 162.887 0.871439C162.903 0.634226 163.01 0.412129 163.184 0.250209C163.358 0.0882314 163.587 -0.0015464 163.825 -0.000973841H163.9C164.042 0.0125386 164.18 0.0584581 164.302 0.133234C164.424 0.208068 164.527 0.309755 164.604 0.430566C165.279 1.08723 169.031 4.90519 169.031 4.90519C169.344 5.2414 169.321 5.67787 169.297 6.11948C169.282 6.39254 169.267 6.6676 169.331 6.9221C169.502 6.95273 169.675 6.97592 169.847 6.99161C170.013 7.00655 170.179 7.01468 170.345 7.01589C170.539 7.01995 170.728 7.08442 170.884 7.20042C171.04 7.31637 171.157 7.47812 171.217 7.66317Z" fill="black"/>
<path d="M43.7593 10.7495H49.688L46.3672 26.4999C45.7575 29.483 44.5942 31.1904 42.8306 32.4005C41.0468 33.4356 38.9985 33.9248 36.9395 33.8076C33.0183 33.8076 29.2565 32.166 28.8813 28.1791H34.8475C35.0351 29.1172 35.8982 29.6519 37.2115 29.6519C38.9845 29.6519 39.8006 28.5825 40.1665 26.9033L40.5229 25.1678H40.3916C39.8681 25.7433 39.2331 26.2063 38.5252 26.5288C37.8172 26.8513 37.0512 27.0266 36.2734 27.044C32.8213 27.044 30.082 24.2954 30.1383 20.271C30.2134 15.5806 33.2715 10.2523 38.4029 10.2523C39.3753 10.1868 40.3461 10.4011 41.2006 10.8699C42.0551 11.3386 42.7574 12.0423 43.2246 12.8977H43.3278L43.7593 10.7495ZM38.6655 22.6444C40.9451 22.6444 42.2115 20.0178 42.249 17.757C42.249 16.2467 41.658 14.6988 39.9132 14.6988C37.5304 14.6988 36.3203 17.3536 36.2828 19.6331C36.2828 21.1716 36.8738 22.6444 38.6186 22.6444M105.223 23.151C105.223 24.1547 104.359 24.5581 103.224 24.5581C101.348 24.5581 100.72 23.62 100.711 22.3067H94.81C94.7068 27.2035 99.0783 28.4136 102.962 28.4136C107.924 28.4136 111.142 26.2654 111.208 21.9784C111.208 18.5543 108.29 17.5131 105.42 16.847C103.215 16.3405 102.249 15.9746 102.258 15.1397C102.268 14.3048 103.253 13.9671 104.219 13.9671C105.429 13.9671 106.254 14.3986 106.339 15.5056H112.071C112.005 11.4155 108.318 10.2148 104.566 10.2148C100.007 10.2148 96.4516 12.2879 96.3953 16.2091C96.3953 19.2954 98.4779 20.4305 101.62 21.2373C103.637 21.772 105.241 21.9408 105.223 23.151ZM149.059 13.2917H148.956C148.701 12.3679 148.137 11.5592 147.359 10.9995C146.581 10.4399 145.635 10.163 144.678 10.2148C142.127 10.2148 140.57 11.4812 139.097 13.3949H138.994L139.538 10.7495H133.571L129.997 27.8414H136.236L138.112 18.62C138.543 16.6125 139.566 15.2054 141.114 15.2054C142.662 15.2054 142.868 16.4436 142.549 17.954L140.485 27.8414H146.723L148.6 18.62C149.031 16.4812 150.054 15.2054 151.601 15.2054C153.149 15.2054 153.356 16.378 153.037 17.954L150.973 27.8414H157.211L159.444 17.6819C160.382 13.3949 158.947 10.1772 154.829 10.1772C153.683 10.1725 152.555 10.4551 151.547 10.9992C150.539 11.5433 149.684 12.3315 149.059 13.2917ZM1.96765 27.8414H8.4123L13.3935 3.87332H6.95827L1.96765 27.8414ZM21.3672 10.2429C25.7199 10.2429 29.8757 12.6256 29.81 18.0196C29.7537 23.9202 25.7387 28.3386 19.6036 28.3386C15.3822 28.3386 11.1609 25.9934 11.2359 20.6275C11.3391 14.8677 15.2978 10.2429 21.3672 10.2429ZM19.7819 24.1547C22.5305 24.1547 23.5342 20.1678 23.5342 17.8226C23.5342 16.1435 23.0183 14.5018 21.2077 14.5018C18.4873 14.5018 17.5586 18.7232 17.5586 20.8996C17.5586 22.6444 18.0464 24.1547 19.8194 24.1547M15.5417 3.87332L14.6036 8.66694H68.7218L69.6599 3.87332H15.5417ZM59.0689 10.2429C63.4216 10.2429 67.5773 12.6256 67.5117 18.0196C67.4554 23.9202 63.431 28.3386 57.2959 28.3386C53.0745 28.3386 48.8531 25.9934 48.9376 20.6275C49.0689 14.8677 53.0276 10.2429 59.0689 10.2429ZM57.5117 24.1547C60.2603 24.1547 61.264 20.1678 61.264 17.8226C61.264 16.1435 60.7387 14.5018 58.9282 14.5018C56.2171 14.5018 55.279 18.7232 55.279 20.8996C55.279 22.6444 55.7668 24.1547 57.5492 24.1547M71.8738 3.87332L70.9357 8.66694H77.1646L78.1027 3.87332H71.8738ZM66.8832 27.8414H73.1214L76.6955 10.7495H70.4197L66.8832 27.8414ZM86.7893 28.4136C85.7965 28.4841 84.8036 28.2766 83.922 27.8143C83.0405 27.352 82.3052 26.6532 81.7987 25.7964H81.6955L79.8194 34.4455H73.506L78.5717 10.7495H84.5004L84.0314 13.029C84.6505 12.187 85.4525 11.4963 86.377 11.0088C87.3015 10.5214 88.3245 10.2499 89.3691 10.2148C93.1214 10.2148 95.3259 13.4324 95.2603 17.6163C95.1758 22.8789 92.446 28.4136 86.7518 28.4136H86.7893ZM86.5454 15.0553C84.1346 15.0553 82.6524 18.1416 82.6149 20.515C82.6149 22.166 83.1965 24.0046 85.1758 24.0046C87.7556 24.0046 88.8156 20.59 88.8437 18.3104C88.8437 16.7626 88.3935 15.0553 86.5454 15.0553ZM122.615 25.1491H122.718L122.174 27.8602H128.102L131.677 10.7682H125.448L123.459 20.3179C123.056 22.2973 121.836 23.3386 120.298 23.3386C118.759 23.3386 118.421 21.8939 118.731 20.3836L120.748 10.7682H114.519L112.314 21.3217C111.376 25.9183 113.515 28.3949 117.099 28.3949C118.224 28.3839 119.327 28.0764 120.295 27.5032C121.263 26.93 122.064 26.1115 122.615 25.1303V25.1491ZM156.076 34.53L157.014 29.7363H83.037L82.0989 34.53H156.076Z" fill="white"/>
<path d="M162.783 15.4399C162.722 15.4352 162.662 15.4183 162.607 15.3902C162.551 15.3622 162.502 15.3235 162.462 15.2764C162.422 15.2293 162.392 15.1748 162.373 15.1159C162.354 15.057 162.347 14.995 162.352 14.9333C162.43 14.0979 162.331 13.2553 162.061 12.4609C161.791 11.6665 161.356 10.938 160.784 10.3234C160.213 9.70878 159.518 9.22176 158.746 8.89426C157.973 8.56677 157.14 8.40619 156.301 8.42305C156.177 8.42305 156.058 8.37364 155.97 8.28567C155.882 8.19771 155.832 8.0784 155.832 7.954C155.832 7.8296 155.882 7.71031 155.97 7.62235C156.058 7.53438 156.177 7.48496 156.301 7.48496C156.526 7.4995 156.752 7.4995 156.977 7.48496C158.643 7.30745 160.195 6.55466 161.366 5.35613C162.538 4.1576 163.254 2.5883 163.393 0.91836C163.403 0.800577 163.456 0.690711 163.543 0.610708C163.63 0.530706 163.744 0.48647 163.862 0.486849C163.924 0.491584 163.984 0.508472 164.039 0.536533C164.094 0.564594 164.143 0.603277 164.183 0.650358C164.224 0.69744 164.254 0.751986 164.273 0.810862C164.292 0.869738 164.299 0.931774 164.294 0.99341C164.216 1.82807 164.315 2.66982 164.584 3.4636C164.854 4.25737 165.288 4.9853 165.858 5.5998C166.429 6.21429 167.122 6.70151 167.893 7.0296C168.665 7.35769 169.497 7.51925 170.335 7.50372C170.459 7.50372 170.579 7.55315 170.667 7.64111C170.755 7.72907 170.804 7.84837 170.804 7.97277C170.804 8.09717 170.755 8.21648 170.667 8.30444C170.579 8.3924 170.459 8.44181 170.335 8.44181C168.553 8.47125 166.844 9.15779 165.537 10.3697C164.23 11.5816 163.416 13.2335 163.253 15.0084C163.243 15.1262 163.19 15.2361 163.103 15.3161C163.016 15.3961 162.902 15.4403 162.783 15.4399Z" fill="white"/>
</svg>
