<svg width="101" height="40" viewBox="0 0 101 40" fill="none" xmlns="http://www.w3.org/2000/svg">
<path d="M5.59332 4.23451C5.85332 3.00051 7.08332 1.99951 8.33632 1.99951H15.1483L9.48332 28.8225H2.67132C1.41732 28.8225 0.611322 27.8225 0.872322 26.5875L5.59332 4.23451ZM28.3003 4.23451C28.5613 3.00051 29.7903 1.99951 31.0433 1.99951H37.8553L32.1903 28.8225H25.3783C24.1243 28.8225 23.3183 27.8225 23.5793 26.5875L28.3003 4.23451ZM73.7153 4.23451C73.9753 3.00051 75.2033 1.99951 76.4583 1.99951H83.2703L77.6053 28.8225H70.7923C69.5383 28.8225 68.7333 27.8225 68.9943 26.5875L73.7153 4.23451ZM40.1263 1.99951H46.9383C48.1923 1.99951 48.9983 2.99951 48.7373 4.23451L44.0163 26.5875C43.7563 27.8225 42.5273 28.8225 41.2733 28.8225H34.4613L40.1263 1.99951ZM85.5413 1.99951H92.3533C93.6073 1.99951 94.4133 2.99951 94.1523 4.23451L89.4303 26.5875C89.1703 27.8225 87.9423 28.8225 86.6883 28.8225H79.8753L85.5413 1.99951ZM51.0083 4.23451C51.2683 3.00051 52.4963 1.99951 53.7503 1.99951H60.5633L54.8973 28.8225H48.0853C46.8313 28.8225 46.0253 27.8225 46.2873 26.5875L51.0073 4.23451H51.0083ZM62.8333 1.99951H69.6463C70.9003 1.99951 71.7053 2.99951 71.4443 4.23451L64.3633 37.7645C64.1013 38.9985 62.8733 39.9995 61.6193 39.9995H54.8063L62.8333 1.99951ZM13.6423 19.8815H22.7253L21.3093 26.5875C21.0483 27.8225 19.8193 28.8225 18.5663 28.8225H11.7533L13.6413 19.8825L13.6423 19.8815ZM45.3433 31.0585H54.4253L52.5373 39.9995H45.7253C44.4703 39.9995 43.6653 38.9995 43.9263 37.7645L45.3433 31.0585ZM69.9973 33.1375L68.8473 38.5835C68.7973 38.8175 68.7193 38.8815 68.4813 38.8815H67.9583C67.7203 38.8815 67.6683 38.8175 67.7183 38.5835L68.8683 33.1375C68.9183 32.9045 68.9963 32.8395 69.2343 32.8395H69.7573C69.9953 32.8395 70.0473 32.9045 69.9973 33.1375ZM71.5093 36.8115H71.4023C71.2883 36.8115 71.2483 36.8435 71.2253 36.9565L70.8813 38.5835C70.8313 38.8175 70.7523 38.8815 70.5153 38.8815H69.9913C69.7543 38.8815 69.7023 38.8175 69.7513 38.5835L70.9013 33.1375C70.9513 32.9045 71.0313 32.8395 71.2683 32.8395H72.3483C73.5923 32.8395 74.0633 33.2825 73.8333 34.3695L73.6413 35.2805C73.4113 36.3685 72.7533 36.8115 71.5093 36.8115ZM71.8253 34.1125L71.5253 35.5385C71.5003 35.6515 71.5263 35.6835 71.6413 35.6835H71.8133C72.2133 35.6835 72.4283 35.5225 72.5153 35.1115L72.6353 34.5395C72.7223 34.1295 72.5763 33.9675 72.1753 33.9675H72.0033C71.8893 33.9675 71.8493 33.9995 71.8253 34.1125ZM75.5633 34.9905L76.4133 35.9255C76.8593 36.4085 76.9213 36.6985 76.8073 37.2385L76.7773 37.3835C76.5623 38.3985 76.0503 38.9625 74.8633 38.9625C73.6773 38.9625 73.3843 38.4875 73.6583 37.1895L73.6923 37.0295C73.7423 36.7955 73.8213 36.7305 74.0583 36.7305H74.6143C74.8523 36.7305 74.9043 36.7955 74.8543 37.0285L74.7793 37.3835C74.7113 37.7055 74.8153 37.8345 75.1013 37.8345C75.3883 37.8345 75.5443 37.7145 75.6063 37.4245L75.6383 37.2705C75.6863 37.0445 75.6603 36.9325 75.4143 36.6665L74.6143 35.8045C74.1663 35.3295 74.1093 35.0545 74.2233 34.5145L74.2603 34.3385C74.4753 33.3235 74.9873 32.7585 76.1733 32.7585C77.3603 32.7585 77.6533 33.2345 77.3793 34.5315L77.3453 34.6925C77.2953 34.9265 77.2163 34.9905 76.9793 34.9905H76.4223C76.1853 34.9905 76.1333 34.9265 76.1823 34.6925L76.2573 34.3385C76.3253 34.0155 76.2223 33.8875 75.9353 33.8875C75.6493 33.8875 75.4923 34.0075 75.4313 34.2975L75.4023 34.4345C75.3523 34.6685 75.3783 34.7815 75.5633 34.9905ZM80.3553 33.1375C80.4053 32.9045 80.4833 32.8395 80.7213 32.8395H81.2443C81.4823 32.8395 81.5343 32.9045 81.4843 33.1375L80.6283 37.1905C80.3543 38.4875 79.8613 38.9625 78.6743 38.9625C77.4883 38.9625 77.1953 38.4875 77.4693 37.1895L78.3253 33.1375C78.3753 32.9045 78.4543 32.8395 78.6913 32.8395H79.2153C79.4523 32.8395 79.5043 32.9045 79.4553 33.1375L78.5583 37.3835C78.4903 37.7055 78.6023 37.8345 78.9133 37.8345C79.2153 37.8345 79.3903 37.7055 79.4583 37.3835L80.3553 33.1375ZM83.7613 36.4165C83.7643 36.4815 83.7853 36.4965 83.8263 36.4965C83.8663 36.4965 83.8953 36.4815 83.9253 36.4165L85.3393 33.0495C85.4083 32.8795 85.4903 32.8395 85.6953 32.8395H86.4893C86.7263 32.8395 86.7783 32.9045 86.7293 33.1375L85.5793 38.5835C85.5293 38.8175 85.4493 38.8815 85.2123 38.8815H84.8363C84.5993 38.8815 84.5463 38.8175 84.5963 38.5835L85.1483 35.9735C85.1633 35.9015 85.1503 35.8845 85.1013 35.8845C85.0683 35.8845 85.0313 35.9015 85.0113 35.9575L83.8693 38.6165C83.7873 38.8095 83.6823 38.8815 83.4453 38.8815H83.2233C82.9773 38.8815 82.9033 38.8095 82.9033 38.6165L82.8753 35.9565C82.8703 35.9005 82.8573 35.8845 82.8163 35.8845C82.7673 35.8845 82.7473 35.9015 82.7323 35.9735L82.1813 38.5835C82.1313 38.8175 82.0533 38.8815 81.8153 38.8815H81.4393C81.2013 38.8815 81.1493 38.8175 81.1993 38.5835L82.3493 33.1375C82.3993 32.9045 82.4783 32.8395 82.7153 32.8395H83.3953C83.6813 32.8395 83.7733 32.9045 83.7713 33.1865L83.7603 36.4165H83.7613ZM100.823 1.99951C100.823 3.10451 99.9333 3.99951 98.8363 3.99951C98.5745 3.99873 98.3154 3.94636 98.0739 3.84541C97.8323 3.74447 97.613 3.59691 97.4285 3.41118C97.2439 3.22545 97.0978 3.00518 96.9984 2.76296C96.8991 2.52075 96.8484 2.26132 96.8493 1.99951C96.8493 0.894512 97.7393 -0.000488281 98.8363 -0.000488281C99.9333 -0.000488281 100.823 0.894512 100.823 1.99951Z" fill="white"/>
</svg>
