<svg width="64" height="63" viewBox="0 0 64 63" fill="none" xmlns="http://www.w3.org/2000/svg">
<path fill-rule="evenodd" clip-rule="evenodd" d="M16.5742 -0.000488281C25.2726 -0.000488281 32.3242 7.05102 32.3242 15.7495V-0.000488281H48.0742C56.7726 -0.000488281 63.8242 7.05102 63.8242 15.7495C63.8242 24.4479 56.7726 31.4995 48.0742 31.4995C56.7726 31.4995 63.8242 38.5511 63.8242 47.2495C63.8242 51.5686 62.0856 55.4817 59.2701 58.3271L59.2112 58.3865L59.1589 58.4385C56.3129 61.258 52.397 62.9995 48.0742 62.9995C43.7809 62.9995 39.8888 61.2817 37.0476 58.4958C37.0108 58.4596 36.9739 58.423 36.9372 58.3865C36.9027 58.352 36.8684 58.3174 36.8342 58.2825C34.0448 55.4409 32.3242 51.5461 32.3242 47.2495C32.3242 55.9479 25.2726 62.9995 16.5742 62.9995C7.87573 62.9995 0.824219 55.9479 0.824219 47.2495V31.4995H16.5742C7.87573 31.4995 0.824219 24.4479 0.824219 15.7495C0.824219 7.05102 7.87573 -0.000488281 16.5742 -0.000488281ZM29.1742 15.7495C29.1742 22.7083 23.533 28.3495 16.5742 28.3495V3.14951C23.533 3.14951 29.1742 8.79072 29.1742 15.7495ZM60.6742 47.2495C60.6742 40.2907 55.033 34.6495 48.0742 34.6495C41.1154 34.6495 35.4742 40.2907 35.4742 47.2495H60.6742ZM3.97422 34.6495V47.2495C3.97422 54.2083 9.61543 59.8495 16.5742 59.8495C23.533 59.8495 29.1742 54.2083 29.1742 47.2495V34.6495H3.97422ZM35.4742 28.3495V3.14951H48.0742C55.033 3.14951 60.6742 8.79072 60.6742 15.7495C60.6742 22.7083 55.033 28.3495 48.0742 28.3495H35.4742Z" fill="white"/>
</svg>
