<svg width="550" height="157" viewBox="0 0 550 157" fill="none" xmlns="http://www.w3.org/2000/svg">
<path d="M0.359437 143.984C0.359436 150.864 5.93646 156.441 12.8161 156.441L105.258 156.441C125.824 156.441 137.533 132.931 125.142 116.517L41.4143 5.61203C39.0602 2.49387 35.3796 0.660829 31.4726 0.660829L12.8161 0.660828C5.93647 0.660828 0.359443 6.23784 0.359442 13.1174L0.359437 143.984Z" fill="#FFAD01"/>
<path d="M0.359435 12.4717C0.359436 5.59213 5.93646 0.015137 12.8161 0.0151373L104.961 0.0151413C127.11 0.0151423 138.246 26.7544 122.645 42.4765L37.5256 128.257C35.1868 130.614 32.0039 131.939 28.6835 131.939L11.4079 131.939C11.4079 131.939 4.52584 131.939 0.35943 145.937L0.359435 12.4717Z" fill="url(#paint0_linear_2111_116)"/>
<path d="M27.3653 78.2291C27.3653 70.01 34.0281 63.3472 42.2472 63.3472L106.2 63.3472C110.359 63.3472 113.732 66.7193 113.732 70.879L113.732 85.5791C113.732 89.7389 110.359 93.111 106.2 93.111L42.2472 93.111C34.0282 93.111 27.3653 86.4481 27.3653 78.2291Z" fill="white"/>
<circle cx="44.3152" cy="78.2307" r="7.00852" fill="#FE6E00"/>
<path d="M222.117 75.6524L222.117 91.8524L240.297 91.8524C245.157 91.8524 252.087 90.2324 252.087 84.2924C252.087 78.6224 245.157 75.6524 240.297 75.6524L222.117 75.6524ZM222.117 50.7224L222.117 65.2124L240.297 65.2124C247.767 65.2124 250.197 62.0624 250.197 58.4624C250.197 55.5824 247.857 50.7224 240.297 50.7224L222.117 50.7224ZM240.297 39.9224C252.717 39.9224 261.987 45.5024 261.987 58.1924C261.987 63.0524 259.647 67.7324 253.797 70.3424C261.177 72.5924 263.877 80.4224 263.877 84.3824C263.877 98.4224 253.347 102.922 240.297 102.922C230.307 102.922 220.407 102.922 210.417 102.922L210.417 39.9224C220.317 39.9224 230.307 39.9224 240.297 39.9224ZM306.233 64.6724L306.593 58.5524L317.123 58.5524L317.123 102.922L306.773 102.922L306.233 96.4424C303.713 101.662 296.783 104.182 291.833 104.272C278.693 104.362 268.973 96.2624 268.973 80.6924C268.973 65.3924 279.143 57.3824 292.103 57.4724C298.043 57.4724 303.713 60.2624 306.233 64.6724ZM293.093 67.2824C285.803 67.2824 279.953 72.2324 279.953 80.6924C279.953 89.1524 285.803 94.1924 293.093 94.1924C310.373 94.1924 310.373 67.2824 293.093 67.2824ZM326.422 40.0124L337.312 40.0124L337.312 102.922L326.422 102.922L326.422 40.0124ZM381.731 64.6724L382.091 58.5524L392.621 58.5524L392.621 102.922L382.271 102.922L381.731 96.4424C379.211 101.662 372.281 104.182 367.331 104.272C354.191 104.362 344.471 96.2624 344.471 80.6924C344.471 65.3924 354.641 57.3824 367.601 57.4724C373.541 57.4724 379.211 60.2624 381.731 64.6724ZM368.591 67.2824C361.301 67.2824 355.451 72.2324 355.451 80.6924C355.451 89.1524 361.301 94.1924 368.591 94.1924C385.871 94.1924 385.871 67.2824 368.591 67.2824ZM445.57 102.922L434.59 102.922L434.59 79.7024C434.59 72.9524 430.9 67.8224 423.88 67.8224C417.13 67.8224 412.54 73.4924 412.54 80.2424L412.54 102.922L401.65 102.922L401.65 58.4624L411.46 58.4624L412.18 64.4924C416.68 60.0824 421.18 57.8324 426.76 57.8324C437.2 57.8324 445.57 65.6624 445.57 79.6124L445.57 102.922ZM485.696 90.0524L493.076 97.2524C487.946 102.292 482.546 104.272 475.976 104.272C463.106 104.272 452.396 96.5324 452.396 80.7824C452.396 65.0324 463.106 57.2924 475.976 57.2924C482.276 57.2924 487.136 59.0924 491.996 63.8624L485.066 71.1524C482.456 68.8124 479.216 67.6424 476.156 67.6424C468.776 67.6424 463.376 73.0424 463.376 80.7824C463.376 89.2424 469.136 93.7424 475.976 93.7424C479.486 93.7424 482.996 92.7524 485.696 90.0524ZM543.665 84.6524L509.015 84.6524C509.735 90.1424 514.505 94.1024 522.245 94.1024C526.295 94.1024 531.605 92.5724 534.125 89.9624L541.145 96.8924C536.465 101.752 528.815 104.092 522.065 104.092C506.765 104.092 497.675 94.6424 497.675 80.4224C497.675 66.9224 506.855 57.2024 521.255 57.2024C536.105 57.2024 545.375 66.3824 543.665 84.6524ZM509.195 75.5624L533.135 75.5624C532.415 69.8024 527.915 66.9224 521.615 66.9224C515.675 66.9224 510.815 69.8024 509.195 75.5624Z" fill="white"/>
<defs>
<linearGradient id="paint0_linear_2111_116" x1="0.359432" y1="123.676" x2="131.773" y2="-11.1385" gradientUnits="userSpaceOnUse">
<stop stop-color="#FF6D00"/>
<stop offset="1" stop-color="#FFA200"/>
</linearGradient>
</defs>
</svg>
