<svg width="593" height="146" viewBox="0 0 593 146" fill="none" xmlns="http://www.w3.org/2000/svg">
<path d="M244.939 106.097C224.939 106.097 209.439 92.0975 209.439 71.5975C209.439 51.0975 224.939 37.0975 244.939 37.0975C259.639 37.0975 268.139 45.0975 272.839 53.3975L260.639 59.3975C257.839 53.9975 251.839 49.6975 244.939 49.6975C232.839 49.6975 224.039 58.9975 224.039 71.5975C224.039 84.1975 232.839 93.4975 244.939 93.4975C251.839 93.4975 257.839 89.2975 260.639 83.7975L272.839 89.6975C268.039 97.9975 259.639 106.097 244.939 106.097ZM326.391 104.897L313.691 104.897L313.691 75.4975C313.691 68.7975 310.191 66.6975 304.691 66.6975C299.791 66.6975 295.891 69.4975 293.691 72.3975L293.691 104.897L280.991 104.897L280.991 38.1975L293.691 38.1975L293.691 62.8975C296.791 59.1975 302.791 55.3975 310.691 55.3975C321.291 55.3975 326.391 61.1975 326.391 70.5975L326.391 104.897ZM380.699 104.897L367.999 104.897L367.999 99.8975C364.699 103.797 358.999 106.097 352.699 106.097C344.999 106.097 335.899 100.897 335.899 90.0975C335.899 78.7975 344.999 74.4975 352.699 74.4975C359.099 74.4975 364.799 76.5975 367.999 80.3975L367.999 73.8975C367.999 68.9975 363.799 65.7975 357.399 65.7975C352.199 65.7975 347.399 67.6975 343.299 71.4975L338.499 62.9975C344.399 57.7975 351.999 55.3975 359.599 55.3975C370.599 55.3975 380.699 59.7975 380.699 73.6975L380.699 104.897ZM357.799 97.4975C361.899 97.4975 365.899 96.0975 367.999 93.2975L367.999 87.2975C365.899 84.4975 361.899 83.0975 357.799 83.0975C352.799 83.0975 348.699 85.6975 348.699 90.3975C348.699 94.8975 352.799 97.4975 357.799 97.4975ZM409.496 106.097C400.596 106.097 395.796 101.497 395.796 92.8975L395.796 67.6975L387.796 67.6975L387.796 56.5975L395.796 56.5975L395.796 43.3975L408.596 43.3975L408.596 56.5975L418.396 56.5975L418.396 67.6975L408.596 67.6975L408.596 89.4975C408.596 92.4975 410.196 94.7975 412.996 94.7975C414.896 94.7975 416.696 94.0975 417.396 93.3975L420.096 102.997C418.196 104.697 414.796 106.097 409.496 106.097ZM463.585 104.897L427.385 104.897L427.385 38.1975L462.485 38.1975C475.185 38.1975 481.685 46.2975 481.685 55.1975C481.685 63.5975 476.485 69.1975 470.185 70.4975C477.285 71.5975 482.985 78.4975 482.985 86.8975C482.985 96.8975 476.285 104.897 463.585 104.897ZM459.385 64.8975C464.185 64.8975 467.185 61.8975 467.185 57.6975C467.185 53.4975 464.185 50.3975 459.385 50.3975L441.585 50.3975L441.585 64.8975L459.385 64.8975ZM459.885 92.5975C465.285 92.5975 468.485 89.6975 468.485 84.8975C468.485 80.6975 465.485 77.0975 459.885 77.0975L441.585 77.0975L441.585 92.5975L459.885 92.5975ZM515.794 106.097C499.894 106.097 490.294 94.4975 490.294 80.6975C490.294 66.9975 499.894 55.3975 515.794 55.3975C531.794 55.3975 541.394 66.9975 541.394 80.6975C541.394 94.4975 531.794 106.097 515.794 106.097ZM515.794 94.7975C523.694 94.7975 528.194 88.2975 528.194 80.6975C528.194 73.1975 523.694 66.6975 515.794 66.6975C507.894 66.6975 503.494 73.1975 503.494 80.6975C503.494 88.2975 507.894 94.7975 515.794 94.7975ZM591.498 104.897L577.298 104.897L566.298 88.5975L555.198 104.897L541.098 104.897L558.198 80.0975L542.098 56.5975L556.298 56.5975L566.298 71.4975L576.198 56.5975L590.398 56.5975L574.198 80.0975L591.498 104.897Z" fill="white"/>
<path d="M111.353 0.897466C119.868 0.897466 126.771 7.80075 126.772 16.3164L126.772 27.667L41.501 27.667C32.9854 27.6671 26.0821 34.5703 26.0821 43.0859L26.0821 98.708C26.0821 107.224 32.9854 114.127 41.501 114.127L55.9444 114.127L55.3555 131.879L81.8614 114.127L126.772 114.127L126.772 125.479C126.771 133.994 119.868 140.897 111.353 140.897L15.6495 140.897C7.13385 140.897 0.230582 133.994 0.230524 125.479L0.230529 16.3164C0.230588 7.80078 7.13385 0.897519 15.6495 0.897462L111.353 0.897466Z" fill="url(#paint0_linear_2111_58)"/>
<circle cx="56.8544" cy="70.8983" r="10.2001" fill="url(#paint1_linear_2111_58)"/>
<circle cx="86.5048" cy="70.8983" r="10.2001" fill="url(#paint2_linear_2111_58)"/>
<circle cx="116.157" cy="70.8983" r="10.2001" fill="url(#paint3_linear_2111_58)"/>
<defs>
<linearGradient id="paint0_linear_2111_58" x1="63.501" y1="45.0114" x2="63.501" y2="99.3823" gradientUnits="userSpaceOnUse">
<stop stop-color="#FF7B00"/>
<stop offset="1" stop-color="#FF5B00"/>
</linearGradient>
<linearGradient id="paint1_linear_2111_58" x1="56.8544" y1="67.1263" x2="56.8544" y2="75.049" gradientUnits="userSpaceOnUse">
<stop stop-color="#FF7B00"/>
<stop offset="1" stop-color="#FF5B00"/>
</linearGradient>
<linearGradient id="paint2_linear_2111_58" x1="86.5048" y1="67.1263" x2="86.5048" y2="75.049" gradientUnits="userSpaceOnUse">
<stop stop-color="#FF7B00"/>
<stop offset="1" stop-color="#FF5B00"/>
</linearGradient>
<linearGradient id="paint3_linear_2111_58" x1="116.157" y1="67.1263" x2="116.157" y2="75.049" gradientUnits="userSpaceOnUse">
<stop stop-color="#FF7B00"/>
<stop offset="1" stop-color="#FF5B00"/>
</linearGradient>
</defs>
</svg>
