<svg width="407" height="145" viewBox="0 0 407 145" fill="none" xmlns="http://www.w3.org/2000/svg">
<path d="M63.7587 109.982L132.726 109.983L97.5927 144.793H63.7587V144.794H28.9492V76.0498L63.7587 41.7529V109.982Z" fill="white"/>
<path d="M68.6552 35.7461L0.244086 35.7461L34.6816 0.936518L68.6552 0.93652L68.6552 0.935544L102.546 0.935547L102.546 69.666L68.6552 103.792L68.6552 35.7461Z" fill="#FE6E00"/>
<path d="M212.623 103.817L212.623 38.6344L235.913 38.6344C240.69 38.6344 245.161 39.4613 249.326 41.115C253.43 42.738 257.089 45.0195 260.305 47.9594C263.398 50.838 265.863 54.3139 267.7 58.3868C269.476 62.3986 270.365 66.6859 270.365 71.2489C270.365 75.8118 269.476 80.0685 267.7 84.019C265.863 88.092 263.398 91.5678 260.305 94.4464C257.15 97.3863 253.475 99.6831 249.28 101.337C245.115 102.991 240.659 103.817 235.913 103.817L212.623 103.817ZM229.252 52.507L229.252 90.0825L234.443 90.0825C237.076 90.0825 239.588 89.5772 241.976 88.5667C244.334 87.5561 246.401 86.1627 248.178 84.3865C249.984 82.5797 251.362 80.5585 252.312 78.323C253.261 76.1181 253.736 73.76 253.736 71.2489C253.736 68.8602 253.246 66.4715 252.266 64.0829C251.255 61.7861 249.908 59.7955 248.223 58.1112C246.57 56.4575 244.503 55.0948 242.022 54.0229C239.603 53.0123 237.076 52.507 234.443 52.507L229.252 52.507ZM328.749 38.7263L328.749 81.2629C328.749 86.1933 327.555 90.4807 325.166 94.1249C322.777 97.7998 319.485 100.587 315.29 102.485C311.064 104.415 306.225 105.379 300.774 105.379C295.66 105.379 291.189 104.552 287.361 102.899C283.502 101.245 280.516 98.7032 278.403 95.2733C276.26 91.8434 275.188 87.5561 275.188 82.4113L275.188 38.6804L291.219 38.7263L291.219 77.8177C291.219 80.3595 291.51 82.5491 292.092 84.3865C292.705 86.3158 293.746 87.8164 295.216 88.8882C296.655 90.0213 298.646 90.5878 301.187 90.5878C305.934 90.5878 309.058 89.1945 310.558 86.4077C312.028 83.5903 312.763 79.5632 312.763 74.3266L312.763 38.6804L328.749 38.7263ZM368.989 52.0477C365.651 52.0477 362.573 52.9511 359.756 54.7579C356.908 56.5341 354.657 58.9228 353.003 61.9239C351.349 64.8944 350.523 68.018 350.523 71.2948C350.523 74.5716 351.365 77.6952 353.049 80.6657C354.733 83.6975 356.969 86.1014 359.756 87.8776C362.573 89.6844 365.651 90.5878 368.989 90.5878C372.296 90.5878 375.358 89.6844 378.176 87.8776C380.963 86.1014 383.214 83.6975 384.928 80.6657C386.582 77.6646 387.409 74.5409 387.409 71.2948C387.409 68.018 386.582 64.8944 384.928 61.9239C383.275 58.9534 381.039 56.5647 378.222 54.7579C375.343 52.9511 372.265 52.0477 368.989 52.0477ZM368.989 37.1645C375.205 37.1645 380.947 38.6804 386.215 41.7121C391.513 44.7745 395.693 48.9087 398.755 54.1148C401.848 59.3821 403.395 65.1088 403.395 71.2948C403.395 77.5114 401.848 83.2228 398.755 88.4289C395.693 93.6655 391.513 97.7998 386.215 100.832C380.947 103.863 375.205 105.379 368.989 105.379C362.803 105.379 357.061 103.863 351.763 100.832C346.434 97.7691 342.239 93.6349 339.176 88.4289C336.083 83.2228 334.537 77.5114 334.537 71.2948C334.537 65.1088 336.083 59.3821 339.176 54.1148C342.239 48.9394 346.434 44.8051 351.763 41.7121C357.061 38.6804 362.803 37.1645 368.989 37.1645Z" fill="white"/>
</svg>
