<svg width="707" height="161" viewBox="0 0 707 161" fill="none" xmlns="http://www.w3.org/2000/svg">
<path d="M19.7759 8.03647C20.7079 3.80458 24.4579 0.790528 28.7912 0.790529L160.218 0.790534C166.116 0.790535 170.502 6.24668 169.233 12.0071L152.088 89.8649C151.156 94.0968 147.406 97.1108 143.072 97.1108L11.6455 97.1108C5.7471 97.1108 1.36175 91.6547 2.6303 85.8943L19.7759 8.03647Z" fill="#FE6E00"/>
<path d="M33.4121 18.6841C33.5687 17.9729 34.199 17.4663 34.9273 17.4663L57.016 17.4663C58.0073 17.4663 58.7443 18.3833 58.5311 19.3515L55.6495 32.4369C55.4929 33.1481 54.8626 33.6547 54.1343 33.6547L32.0456 33.6547C31.0543 33.6547 30.3172 32.7377 30.5304 31.7696L33.4121 18.6841Z" fill="white"/>
<path d="M22.1599 77.5777C22.165 76.7833 22.8104 76.1421 23.6047 76.1421L45.9809 76.1421C46.7825 76.1421 47.4309 76.7947 47.4258 77.5964C47.4206 78.3907 46.7752 79.0319 45.9809 79.0319L23.6047 79.0319C22.8031 79.0319 22.1547 78.3793 22.1599 77.5777Z" fill="white"/>
<path d="M29.8517 97.0849L36.4225 71.1383C37.4599 67.0422 41.1459 64.1733 45.3713 64.1733L175.82 64.1733C181.718 64.1733 186.103 69.6295 184.835 75.3899L167.689 153.248C166.757 157.48 163.007 160.494 158.674 160.494L27.2471 160.494C21.3487 160.494 16.9633 155.037 18.2319 149.277L26.3675 112.333L29.8517 97.0849Z" fill="#FE8D18"/>
<path d="M96.1583 64.2079L104.45 32.3296L44.5313 97.0529L90.6033 97.0529L82.3808 128.483L143.086 64.2079L96.1583 64.2079Z" fill="white"/>
<path d="M30.3688 146.203C30.374 145.408 31.0194 144.767 31.8137 144.767L54.1898 144.767C54.9915 144.767 55.6399 145.42 55.6347 146.221C55.6296 147.016 54.9842 147.657 54.1898 147.657L31.8137 147.657C31.0121 147.657 30.3637 147.004 30.3688 146.203Z" fill="white"/>
<path d="M64.0993 146.203C64.1044 145.408 64.7498 144.767 65.5442 144.767L87.9203 144.767C88.722 144.767 89.3704 145.42 89.3652 146.221C89.3601 147.016 88.7147 147.657 87.9203 147.657L65.5442 147.657C64.7425 147.657 64.0941 147.004 64.0993 146.203Z" fill="white"/>
<path d="M97.8298 146.203C97.8349 145.408 98.4803 144.767 99.2747 144.767L121.651 144.767C122.452 144.767 123.101 145.42 123.096 146.221C123.091 147.016 122.445 147.657 121.651 147.657L99.2747 147.657C98.473 147.657 97.8246 147.004 97.8298 146.203Z" fill="white"/>
<path d="M131.56 146.203C131.565 145.408 132.211 144.767 133.005 144.767L155.381 144.767C156.183 144.767 156.831 145.42 156.826 146.221C156.821 147.016 156.176 147.657 155.381 147.657L133.005 147.657C132.203 147.657 131.555 147.004 131.56 146.203Z" fill="white"/>
<path d="M267.413 121.482L267.413 49.8999L281.866 49.8999L281.866 121.482L267.413 121.482ZM342.754 121.482L329.034 121.482L329.034 95.0171C329.034 89.4181 328.741 85.8049 328.155 84.1772C327.569 82.5171 326.609 81.2313 325.274 80.3198C323.972 79.4084 322.393 78.9526 320.538 78.9526C318.161 78.9526 316.029 79.6037 314.141 80.9058C312.253 82.2078 310.951 83.9331 310.235 86.0815C309.551 88.23 309.21 92.2013 309.21 97.9956L309.21 121.482L295.489 121.482L295.489 69.6265L308.233 69.6265L308.233 77.2437C312.758 71.3843 318.454 68.4546 325.323 68.4546C328.35 68.4546 331.117 69.008 333.624 70.1147C336.13 71.189 338.018 72.5724 339.288 74.2651C340.59 75.9578 341.485 77.8784 341.973 80.0269C342.494 82.1753 342.754 85.2515 342.754 89.2554L342.754 121.482ZM351.885 106.687L365.655 104.587C366.241 107.257 367.429 109.291 369.219 110.691C371.01 112.058 373.516 112.742 376.739 112.742C380.287 112.742 382.956 112.091 384.747 110.789C385.951 109.877 386.553 108.656 386.553 107.126C386.553 106.085 386.228 105.222 385.577 104.539C384.893 103.888 383.363 103.285 380.987 102.732C369.919 100.291 362.904 98.0607 359.942 96.0425C355.84 93.243 353.79 89.353 353.79 84.3726C353.79 79.8804 355.564 76.1043 359.112 73.0444C362.66 69.9845 368.161 68.4546 375.616 68.4546C382.712 68.4546 387.986 69.6102 391.436 71.9214C394.887 74.2326 397.263 77.6506 398.565 82.1753L385.626 84.5679C385.072 82.5496 384.014 81.0034 382.452 79.9292C380.922 78.855 378.725 78.3179 375.86 78.3179C372.247 78.3179 369.659 78.8224 368.096 79.8315C367.055 80.5477 366.534 81.4754 366.534 82.6148C366.534 83.5913 366.989 84.4214 367.901 85.105C369.138 86.0164 373.402 87.3023 380.694 88.9624C388.018 90.6226 393.129 92.6571 396.026 95.0659C398.891 97.5073 400.323 100.909 400.323 105.271C400.323 110.024 398.337 114.109 394.366 117.527C390.394 120.945 384.519 122.654 376.739 122.654C369.675 122.654 364.076 121.222 359.942 118.357C355.84 115.492 353.155 111.602 351.885 106.687ZM436.163 69.6265L436.163 80.564L426.788 80.564L426.788 101.462C426.788 105.694 426.869 108.168 427.032 108.884C427.227 109.568 427.634 110.138 428.252 110.593C428.904 111.049 429.685 111.277 430.596 111.277C431.866 111.277 433.705 110.837 436.114 109.959L437.286 120.603C434.096 121.97 430.482 122.654 426.446 122.654C423.972 122.654 421.742 122.247 419.756 121.433C417.771 120.587 416.306 119.513 415.362 118.21C414.45 116.876 413.816 115.085 413.458 112.839C413.165 111.244 413.018 108.022 413.018 103.171L413.018 80.564L406.719 80.564L406.719 69.6265L413.018 69.6265L413.018 59.3237L426.788 51.3159L426.788 69.6265L436.163 69.6265ZM455.938 85.4468L443.487 83.2007C444.887 78.1877 447.295 74.4767 450.713 72.0679C454.131 69.659 459.21 68.4546 465.948 68.4546C472.068 68.4546 476.625 69.187 479.62 70.6519C482.614 72.0842 484.714 73.9233 485.919 76.1694C487.155 78.383 487.774 82.4683 487.774 88.4253L487.627 104.441C487.627 108.998 487.839 112.367 488.262 114.548C488.718 116.697 489.548 119.008 490.752 121.482L477.178 121.482C476.82 120.57 476.381 119.22 475.86 117.429C475.632 116.615 475.469 116.078 475.372 115.818C473.028 118.097 470.521 119.806 467.852 120.945C465.183 122.084 462.335 122.654 459.307 122.654C453.969 122.654 449.753 121.205 446.661 118.308C443.601 115.411 442.071 111.749 442.071 107.322C442.071 104.392 442.771 101.788 444.17 99.5093C445.57 97.1981 447.523 95.4403 450.03 94.2358C452.569 92.9989 456.215 91.9247 460.967 91.0132C467.38 89.8088 471.823 88.6857 474.297 87.6441L474.297 86.2769C474.297 83.6401 473.646 81.7684 472.344 80.6616C471.042 79.5223 468.585 78.9526 464.971 78.9526C462.53 78.9526 460.626 79.4409 459.258 80.4175C457.891 81.3615 456.784 83.0379 455.938 85.4468ZM474.297 96.5796C472.54 97.1655 469.756 97.8654 465.948 98.6792C462.139 99.493 459.649 100.291 458.477 101.072C456.687 102.341 455.792 103.953 455.792 105.906C455.792 107.826 456.508 109.486 457.94 110.886C459.372 112.286 461.195 112.986 463.409 112.986C465.883 112.986 468.243 112.172 470.489 110.544C472.149 109.307 473.239 107.794 473.76 106.003C474.118 104.832 474.297 102.602 474.297 99.314L474.297 96.5796ZM546.563 84.9585L533.038 87.3999C532.582 84.6981 531.54 82.6636 529.913 81.2964C528.318 79.9292 526.234 79.2456 523.663 79.2456C520.245 79.2456 517.51 80.4338 515.46 82.8101C513.441 85.1538 512.432 89.0926 512.432 94.6265C512.432 100.779 513.458 105.125 515.508 107.664C517.592 110.203 520.375 111.472 523.858 111.472C526.462 111.472 528.594 110.74 530.254 109.275C531.915 107.778 533.086 105.222 533.77 101.609L547.247 103.904C545.847 110.089 543.161 114.76 539.19 117.917C535.219 121.075 529.896 122.654 523.223 122.654C515.639 122.654 509.584 120.261 505.059 115.476C500.567 110.691 498.321 104.067 498.321 95.603C498.321 87.0418 500.583 80.3849 505.108 75.6323C509.633 70.8472 515.753 68.4546 523.467 68.4546C529.782 68.4546 534.795 69.8218 538.506 72.5562C542.25 75.258 544.935 79.3921 546.563 84.9585ZM567.266 85.4468L554.815 83.2007C556.215 78.1877 558.624 74.4767 562.042 72.0679C565.46 69.659 570.538 68.4546 577.276 68.4546C583.396 68.4546 587.953 69.187 590.948 70.6519C593.943 72.0842 596.042 73.9234 597.247 76.1694C598.484 78.383 599.102 82.4683 599.102 88.4253L598.956 104.441C598.956 108.998 599.167 112.367 599.59 114.548C600.046 116.697 600.876 119.008 602.081 121.482L588.506 121.482C588.148 120.57 587.709 119.22 587.188 117.429C586.96 116.615 586.797 116.078 586.7 115.818C584.356 118.097 581.85 119.806 579.18 120.945C576.511 122.084 573.663 122.654 570.635 122.654C565.297 122.654 561.081 121.205 557.989 118.308C554.929 115.411 553.399 111.749 553.399 107.322C553.399 104.392 554.099 101.788 555.499 99.5093C556.898 97.1981 558.851 95.4403 561.358 94.2359C563.897 92.9989 567.543 91.9247 572.295 91.0132C578.708 89.8088 583.152 88.6857 585.626 87.6441L585.626 86.2769C585.626 83.6402 584.975 81.7684 583.672 80.6616C582.37 79.5223 579.913 78.9527 576.299 78.9527C573.858 78.9527 571.954 79.4409 570.586 80.4175C569.219 81.3615 568.113 83.0379 567.266 85.4468ZM585.626 96.5796C583.868 97.1655 581.085 97.8654 577.276 98.6792C573.467 99.493 570.977 100.291 569.805 101.072C568.015 102.341 567.12 103.953 567.12 105.906C567.12 107.826 567.836 109.487 569.268 110.886C570.7 112.286 572.523 112.986 574.737 112.986C577.211 112.986 579.571 112.172 581.817 110.544C583.477 109.307 584.568 107.794 585.088 106.003C585.447 104.832 585.626 102.602 585.626 99.314L585.626 96.5796ZM625.811 121.482L612.09 121.482L612.09 69.6265L624.835 69.6265L624.835 76.9995C627.016 73.5165 628.969 71.2215 630.694 70.1148C632.452 69.008 634.437 68.4546 636.651 68.4546C639.776 68.4546 642.787 69.3172 645.684 71.0425L641.436 83.0054C639.125 81.508 636.976 80.7593 634.991 80.7593C633.07 80.7593 631.443 81.2964 630.108 82.3706C628.773 83.4123 627.715 85.3166 626.934 88.0835C626.185 90.8504 625.811 96.6447 625.811 105.466L625.811 121.482ZM699.2 121.482L686.456 121.482L686.456 113.865C684.34 116.827 681.833 119.041 678.936 120.505C676.072 121.938 673.174 122.654 670.245 122.654C664.288 122.654 659.177 120.261 654.913 115.476C650.681 110.658 648.565 103.953 648.565 95.3589C648.565 86.5698 650.632 79.8967 654.766 75.3394C658.9 70.7495 664.125 68.4546 670.44 68.4546C676.234 68.4546 681.247 70.8635 685.479 75.6812L685.479 49.8999L699.2 49.8999L699.2 121.482ZM662.579 94.4312C662.579 99.965 663.344 103.969 664.874 106.443C667.087 110.024 670.18 111.814 674.151 111.814C677.308 111.814 679.994 110.479 682.208 107.81C684.421 105.108 685.528 101.088 685.528 95.7495C685.528 89.7925 684.454 85.5119 682.305 82.9077C680.157 80.271 677.406 78.9527 674.053 78.9527C670.798 78.9527 668.064 80.2547 665.85 82.8589C663.669 85.4305 662.579 89.2879 662.579 94.4312Z" fill="white"/>
</svg>
