<svg width="294" height="73" viewBox="0 0 294 73" fill="none" xmlns="http://www.w3.org/2000/svg">
<rect x="33.6221" y="31.1582" width="10.1667" height="30.5" fill="#FE6E00"/>
<rect x="33.6221" y="10.8242" width="10.1667" height="10.1667" fill="#FE8D18"/>
<rect x="13.2881" y="10.8242" width="10.1667" height="30.5" fill="#FE6E00"/>
<rect x="33.6221" y="51.4917" width="10.1667" height="10.1667" fill="#FE8D18"/>
<rect x="33.6221" y="51.4917" width="10.1667" height="10.1667" fill="#FF8500"/>
<rect x="53.9551" y="10.8242" width="10.1667" height="10.1667" fill="#FE8D18"/>
<rect x="53.9551" y="31.1582" width="10.1667" height="10.1667" fill="#FE8D18"/>
<rect x="33.6221" y="10.8242" width="10.1667" height="10.1667" fill="#FF7D0D" fill-opacity="0.5"/>
<rect x="23.4551" y="10.8242" width="10.1667" height="10.1667" fill="#FF6D01" fill-opacity="0.18"/>
<rect x="23.4551" y="51.4917" width="10.1667" height="10.1667" fill="#FF6D01" fill-opacity="0.18"/>
<rect x="43.7881" y="10.8242" width="10.1667" height="10.1667" fill="#FE8D18"/>
<rect x="43.7881" y="31.1582" width="10.1667" height="10.1667" fill="#FE8D18"/>
<rect x="33.6221" y="31.1582" width="10.1667" height="10.1667" fill="#FE8D18"/>
<rect x="13.2881" y="51.4917" width="10.1667" height="10.1667" fill="#FE6E00"/>
<rect x="53.9551" y="51.4917" width="10.1667" height="10.1667" fill="#FF6D01" fill-opacity="0.18"/>
<rect x="53.9551" y="20.9922" width="10.1667" height="10.1667" fill="#FF6D01" fill-opacity="0.18"/>
<rect x="23.4551" y="31.1582" width="10.1667" height="10.1667" fill="#FE6E00"/>
<rect x="33.6221" y="31.1582" width="10.1667" height="10.1667" fill="#FF8500"/>
<rect x="33.6221" y="10.8242" width="10.1667" height="10.1667" fill="#FF8500"/>
<path d="M0.53613 59.2476L5.54883 59.2476L5.54883 67.5337L17.1289 67.5337L17.1289 72.2642L0.53613 72.2642L0.53613 59.2476ZM76.876 72.2642L60.2842 72.2642L60.2842 67.5337L71.8652 67.5337L71.8652 59.2476L76.876 59.2476L76.876 72.2642ZM76.876 13.2339L71.8652 13.2339L71.8652 4.94678L60.2842 4.94678L60.2842 0.218264L17.1289 0.218262L17.1289 4.94678L5.54883 4.94678L5.54883 13.2339L0.536132 13.2339L0.536133 0.217285L76.876 0.217288L76.876 13.2339Z" fill="url(#paint0_linear_86_837994)"/>
<path d="M128.843 48.4858C125.792 48.4858 123.224 47.8109 121.141 46.4613C119.058 45.0823 117.591 43.2192 116.74 40.872L121.933 37.8353C123.136 40.9747 125.498 42.5444 129.019 42.5444C130.721 42.5444 131.968 42.2363 132.76 41.6202C133.552 41.004 133.948 40.2265 133.948 39.2876C133.948 38.202 133.464 37.3658 132.496 36.779C131.528 36.1629 129.797 35.5027 127.303 34.7986C125.924 34.3878 124.75 33.977 123.782 33.5663C122.843 33.1555 121.889 32.6127 120.921 31.9379C119.982 31.2337 119.263 30.3535 118.765 29.2973C118.266 28.241 118.016 27.0087 118.016 25.6004C118.016 22.8131 118.999 20.5979 120.965 18.9549C122.96 17.2825 125.352 16.4463 128.139 16.4463C130.633 16.4463 132.819 17.0624 134.696 18.2947C136.603 19.4976 138.085 21.1847 139.141 23.3559L134.036 26.3046C132.804 23.664 130.838 22.3436 128.139 22.3436C126.877 22.3436 125.88 22.637 125.146 23.2239C124.442 23.7813 124.09 24.5148 124.09 25.4244C124.09 26.3926 124.486 27.1848 125.278 27.8009C126.1 28.3877 127.655 29.0332 129.943 29.7374C130.882 30.0308 131.586 30.2655 132.056 30.4415C132.555 30.5882 133.215 30.8376 134.036 31.1897C134.887 31.5125 135.533 31.8205 135.973 32.1139C136.442 32.4073 136.97 32.8034 137.557 33.3022C138.144 33.801 138.584 34.3145 138.877 34.8426C139.2 35.3707 139.464 36.0162 139.67 36.779C139.904 37.5125 140.022 38.3194 140.022 39.1996C140.022 42.0456 138.98 44.3048 136.897 45.9772C134.843 47.6496 132.158 48.4858 128.843 48.4858ZM154.795 48.4858C151.48 48.4858 148.707 47.3708 146.477 45.141C144.277 42.9111 143.176 40.1532 143.176 36.8671C143.176 33.5809 144.277 30.823 146.477 28.5931C148.707 26.3633 151.48 25.2483 154.795 25.2483C156.937 25.2483 158.888 25.7618 160.648 26.7887C162.409 27.8156 163.744 29.1946 164.653 30.9257L159.768 33.7863C159.328 32.8768 158.653 32.1579 157.744 31.6298C156.863 31.1017 155.866 30.8376 154.751 30.8376C153.049 30.8376 151.641 31.4098 150.526 32.554C149.411 33.669 148.854 35.1066 148.854 36.8671C148.854 38.5981 149.411 40.0358 150.526 41.1801C151.641 42.295 153.049 42.8525 154.751 42.8525C155.895 42.8525 156.907 42.6031 157.788 42.1043C158.697 41.5762 159.372 40.8573 159.812 39.9478L164.741 42.7644C163.773 44.4955 162.409 45.8892 160.648 46.9454C158.888 47.9723 156.937 48.4858 154.795 48.4858ZM184.124 25.8645L189.801 25.8645L189.801 47.8696L184.124 47.8696L184.124 45.273C182.422 47.4149 180.031 48.4858 176.95 48.4858C174.016 48.4858 171.493 47.3708 169.381 45.141C167.297 42.8818 166.256 40.1238 166.256 36.8671C166.256 33.6103 167.297 30.867 169.381 28.6371C171.493 26.3779 174.016 25.2483 176.95 25.2483C180.031 25.2483 182.422 26.3192 184.124 28.4611L184.124 25.8645ZM173.65 41.3561C174.794 42.5004 176.246 43.0725 178.007 43.0725C179.767 43.0725 181.219 42.5004 182.364 41.3561C183.537 40.1825 184.124 38.6861 184.124 36.8671C184.124 35.048 183.537 33.5663 182.364 32.422C181.219 31.2484 179.767 30.6616 178.007 30.6616C176.246 30.6616 174.794 31.2484 173.65 32.422C172.505 33.5663 171.933 35.048 171.933 36.8671C171.933 38.6861 172.505 40.1825 173.65 41.3561ZM207.184 25.2483C209.59 25.2483 211.571 26.0552 213.126 27.6689C214.71 29.2826 215.502 31.5125 215.502 34.3585L215.502 47.8696L209.825 47.8696L209.825 35.0626C209.825 33.5956 209.429 32.4807 208.637 31.7178C207.845 30.9257 206.788 30.5296 205.468 30.5296C204.001 30.5296 202.827 30.9843 201.947 31.8939C201.067 32.8034 200.627 34.1678 200.627 35.9868L200.627 47.8696L194.95 47.8696L194.95 25.8645L200.627 25.8645L200.627 28.3291C202.006 26.2752 204.192 25.2483 207.184 25.2483ZM232.101 17.0624C235.064 17.0624 237.558 18.06 239.583 20.0551C241.607 22.0502 242.619 24.5002 242.619 27.4048C242.619 30.3095 241.607 32.7594 239.583 34.7546C237.558 36.7497 235.064 37.7473 232.101 37.7473L226.688 37.7473L226.688 47.8696L220.614 47.8696L220.614 17.0624L232.101 17.0624ZM232.101 32.0699C233.392 32.0699 234.463 31.6298 235.314 30.7496C236.164 29.8401 236.59 28.7251 236.59 27.4048C236.59 26.0552 236.164 24.9403 235.314 24.0601C234.463 23.1798 233.392 22.7397 232.101 22.7397L226.688 22.7397L226.688 32.0699L232.101 32.0699ZM261.572 25.8645L267.249 25.8645L267.249 47.8696L261.572 47.8696L261.572 45.273C259.87 47.4149 257.479 48.4858 254.398 48.4858C251.464 48.4858 248.941 47.3709 246.828 45.141C244.745 42.8818 243.704 40.1238 243.704 36.8671C243.704 33.6103 244.745 30.867 246.828 28.6371C248.941 26.3779 251.464 25.2483 254.398 25.2483C257.479 25.2483 259.87 26.3193 261.572 28.4611L261.572 25.8645ZM251.097 41.3561C252.242 42.5004 253.694 43.0725 255.454 43.0725C257.215 43.0725 258.667 42.5004 259.812 41.3561C260.985 40.1825 261.572 38.6861 261.572 36.8671C261.572 35.048 260.985 33.5663 259.812 32.422C258.667 31.2484 257.215 30.6616 255.454 30.6616C253.694 30.6616 252.242 31.2484 251.097 32.422C249.953 33.5663 249.381 35.048 249.381 36.8671C249.381 38.6861 249.953 40.1825 251.097 41.3561ZM286.745 25.8645L292.818 25.8645L284.808 47.8696C283.664 51.0384 282.138 53.3269 280.231 54.7352C278.353 56.1729 276.006 56.8184 273.19 56.6717L273.19 51.3905C274.715 51.4198 275.918 51.0971 276.798 50.4222C277.708 49.7474 278.427 48.6618 278.955 47.1655L269.933 25.8645L276.138 25.8645L281.86 40.6519L286.745 25.8645Z" fill="white"/>
<defs>
<linearGradient id="paint0_linear_86_837994" x1="38.7061" y1="22.9192" x2="38.7061" y2="50.8996" gradientUnits="userSpaceOnUse">
<stop stop-color="#FE8D18"/>
<stop offset="1" stop-color="#FE6E00"/>
</linearGradient>
</defs>
</svg>
