<svg width="599" height="148" viewBox="0 0 599 148" fill="none" xmlns="http://www.w3.org/2000/svg">
<rect x="67.8106" y="63.4702" width="20.7906" height="62.3718" fill="#FE6E00"/>
<rect x="67.8106" y="21.8882" width="20.7906" height="20.7906" fill="#FE8D18"/>
<rect x="26.2286" y="21.8882" width="20.7906" height="62.3718" fill="#FE6E00"/>
<rect x="67.8106" y="105.052" width="20.7906" height="20.7906" fill="#FE8D18"/>
<rect x="67.8106" y="105.052" width="20.7906" height="20.7906" fill="#FF8500"/>
<rect x="109.391" y="21.8882" width="20.7906" height="20.7906" fill="#FE8D18"/>
<rect x="109.391" y="63.4702" width="20.7906" height="20.7906" fill="#FE8D18"/>
<rect x="67.8106" y="21.8882" width="20.7906" height="20.7906" fill="#FF7D0D" fill-opacity="0.5"/>
<rect x="47.0196" y="21.8882" width="20.7906" height="20.7906" fill="#FF6D01" fill-opacity="0.18"/>
<rect x="47.0196" y="105.052" width="20.7906" height="20.7906" fill="#FF6D01" fill-opacity="0.18"/>
<rect x="88.5997" y="21.8882" width="20.7906" height="20.7906" fill="#FE8D18"/>
<rect x="88.5997" y="63.4702" width="20.7906" height="20.7906" fill="#FE8D18"/>
<rect x="67.8106" y="63.4702" width="20.7906" height="20.7906" fill="#FE8D18"/>
<rect x="26.2286" y="105.052" width="20.7906" height="20.7906" fill="#FE6E00"/>
<rect x="109.391" y="105.052" width="20.7906" height="20.7906" fill="#FF6D01" fill-opacity="0.18"/>
<rect x="109.391" y="42.6812" width="20.7906" height="20.7906" fill="#FF6D01" fill-opacity="0.18"/>
<rect x="47.0196" y="63.4702" width="20.7906" height="20.7906" fill="#FE6E00"/>
<rect x="67.8106" y="63.4702" width="20.7906" height="20.7906" fill="#FF8500"/>
<rect x="67.8106" y="21.8882" width="20.7906" height="20.7906" fill="#FF8500"/>
<path d="M0.150446 120.911L10.4004 120.911L10.4004 137.858L34.0821 137.858L34.0821 147.532L0.150445 147.532L0.150446 120.911ZM156.264 147.532L122.334 147.532L122.334 137.858L146.016 137.858L146.016 120.911L156.264 120.911L156.264 147.532ZM156.264 26.814L146.016 26.814L146.016 9.86866L122.334 9.86866L122.334 0.197759L34.0821 0.197755L34.0821 9.86865L10.4005 9.86865L10.4005 26.814L0.15045 26.814L0.150452 0.196777L156.264 0.196784L156.264 26.814Z" fill="url(#paint0_linear_2111_86)"/>
<path d="M262.534 100.241C256.294 100.241 251.044 98.861 246.784 96.101C242.524 93.281 239.524 89.471 237.784 84.671L248.404 78.461C250.864 84.881 255.694 88.091 262.894 88.091C266.374 88.091 268.924 87.461 270.544 86.201C272.164 84.941 272.974 83.351 272.974 81.431C272.974 79.211 271.984 77.501 270.004 76.301C268.024 75.041 264.484 73.691 259.384 72.251C256.564 71.411 254.164 70.571 252.184 69.731C250.264 68.891 248.314 67.781 246.334 66.401C244.414 64.961 242.944 63.161 241.924 61.001C240.904 58.841 240.394 56.321 240.394 53.441C240.394 47.741 242.404 43.211 246.424 39.851C250.504 36.431 255.394 34.721 261.094 34.721C266.194 34.721 270.664 35.981 274.504 38.501C278.404 40.961 281.434 44.411 283.594 48.851L273.154 54.881C270.634 49.481 266.614 46.781 261.094 46.781C258.514 46.781 256.474 47.381 254.974 48.581C253.534 49.721 252.814 51.221 252.814 53.081C252.814 55.061 253.624 56.681 255.244 57.941C256.924 59.141 260.104 60.461 264.784 61.901C266.704 62.501 268.144 62.981 269.104 63.341C270.124 63.641 271.474 64.151 273.154 64.871C274.894 65.531 276.214 66.161 277.114 66.761C278.074 67.361 279.154 68.171 280.354 69.191C281.554 70.211 282.454 71.261 283.054 72.341C283.714 73.421 284.254 74.741 284.674 76.301C285.154 77.801 285.394 79.451 285.394 81.251C285.394 87.071 283.264 91.691 279.004 95.111C274.804 98.531 269.314 100.241 262.534 100.241ZM315.605 100.241C308.825 100.241 303.155 97.961 298.595 93.401C294.095 88.841 291.845 83.201 291.845 76.481C291.845 69.761 294.095 64.121 298.595 59.561C303.155 55.001 308.825 52.721 315.605 52.721C319.985 52.721 323.975 53.771 327.575 55.871C331.175 57.971 333.905 60.791 335.765 64.331L325.775 70.181C324.875 68.321 323.495 66.851 321.635 65.771C319.835 64.691 317.795 64.151 315.515 64.151C312.035 64.151 309.155 65.321 306.875 67.661C304.595 69.941 303.455 72.881 303.455 76.481C303.455 80.021 304.595 82.961 306.875 85.301C309.155 87.581 312.035 88.721 315.515 88.721C317.855 88.721 319.925 88.211 321.725 87.191C323.585 86.111 324.965 84.641 325.865 82.781L335.945 88.541C333.965 92.081 331.175 94.931 327.575 97.091C323.975 99.191 319.985 100.241 315.605 100.241ZM375.582 53.981L387.192 53.981L387.192 98.981L375.582 98.981L375.582 93.671C372.102 98.051 367.212 100.241 360.912 100.241C354.912 100.241 349.752 97.961 345.432 93.401C341.172 88.781 339.042 83.141 339.042 76.481C339.042 69.821 341.172 64.211 345.432 59.651C349.752 55.031 354.912 52.721 360.912 52.721C367.212 52.721 372.102 54.911 375.582 59.291L375.582 53.981ZM354.162 85.661C356.502 88.001 359.472 89.171 363.072 89.171C366.672 89.171 369.642 88.001 371.982 85.661C374.382 83.261 375.582 80.201 375.582 76.481C375.582 72.761 374.382 69.731 371.982 67.391C369.642 64.991 366.672 63.791 363.072 63.791C359.472 63.791 356.502 64.991 354.162 67.391C351.822 69.731 350.652 72.761 350.652 76.481C350.652 80.201 351.822 83.261 354.162 85.661ZM422.74 52.721C427.66 52.721 431.71 54.371 434.89 57.671C438.13 60.971 439.75 65.531 439.75 71.351L439.75 98.981L428.14 98.981L428.14 72.791C428.14 69.791 427.33 67.511 425.71 65.951C424.09 64.331 421.93 63.521 419.23 63.521C416.23 63.521 413.83 64.451 412.03 66.311C410.23 68.171 409.33 70.961 409.33 74.681L409.33 98.981L397.72 98.981L397.72 53.981L409.33 53.981L409.33 59.021C412.15 54.821 416.62 52.721 422.74 52.721ZM473.694 35.981C479.754 35.981 484.854 38.021 488.994 42.101C493.134 46.181 495.204 51.191 495.204 57.131C495.204 63.071 493.134 68.081 488.994 72.161C484.854 76.241 479.754 78.281 473.694 78.281L462.624 78.281L462.624 98.981L450.204 98.981L450.204 35.981L473.694 35.981ZM473.694 66.671C476.334 66.671 478.524 65.771 480.264 63.971C482.004 62.111 482.874 59.831 482.874 57.131C482.874 54.371 482.004 52.091 480.264 50.291C478.524 48.491 476.334 47.591 473.694 47.591L462.624 47.591L462.624 66.671L473.694 66.671ZM533.961 53.981L545.571 53.981L545.571 98.981L533.961 98.981L533.961 93.671C530.481 98.051 525.591 100.241 519.291 100.241C513.291 100.241 508.131 97.961 503.811 93.401C499.551 88.781 497.421 83.141 497.421 76.481C497.421 69.821 499.551 64.211 503.811 59.651C508.131 55.031 513.291 52.721 519.291 52.721C525.591 52.721 530.481 54.911 533.961 59.291L533.961 53.981ZM512.541 85.661C514.881 88.001 517.851 89.171 521.451 89.171C525.051 89.171 528.021 88.001 530.361 85.661C532.761 83.261 533.961 80.201 533.961 76.481C533.961 72.761 532.761 69.731 530.361 67.391C528.021 64.991 525.051 63.791 521.451 63.791C517.851 63.791 514.881 64.991 512.541 67.391C510.201 69.731 509.031 72.761 509.031 76.481C509.031 80.201 510.201 83.261 512.541 85.661ZM585.439 53.981L597.859 53.981L581.479 98.981C579.139 105.461 576.019 110.141 572.119 113.021C568.279 115.961 563.479 117.281 557.719 116.981L557.719 106.181C560.839 106.241 563.299 105.581 565.099 104.201C566.959 102.821 568.429 100.601 569.509 97.541L551.059 53.981L563.749 53.981L575.449 84.221L585.439 53.981Z" fill="white"/>
<defs>
<linearGradient id="paint0_linear_2111_86" x1="78.2071" y1="46.622" x2="78.2071" y2="103.842" gradientUnits="userSpaceOnUse">
<stop stop-color="#FE8D18"/>
<stop offset="1" stop-color="#FE6E00"/>
</linearGradient>
</defs>
</svg>
