<svg width="697" height="136" viewBox="0 0 697 136" fill="none" xmlns="http://www.w3.org/2000/svg">
<path d="M176.937 37.3408C185.796 37.3409 190.959 47.3462 185.824 54.5664L136.431 124.025C131.317 131.217 123.037 135.489 114.212 135.489L27.8733 135.489C23.4438 135.489 20.8631 130.487 23.43 126.877L38.3059 105.958L108.017 105.958C109.949 105.958 111.764 105.025 112.887 103.452L137.638 68.8008C139.052 66.8205 137.636 64.0694 135.202 64.0693L68.093 64.0693L83.8391 41.9268C85.8849 39.05 89.1968 37.3408 92.7268 37.3408L176.937 37.3408ZM51.0598 67.291C49.6455 69.2713 51.0618 72.0225 53.4954 72.0225L120.607 72.0225L104.861 94.165C102.815 97.0418 99.5029 98.751 95.9729 98.751L11.763 98.751C8.91587 98.751 6.45159 97.7162 4.58718 96.0742L62.2063 93.7539C63.018 93.2967 60.6344 93.016 60.4026 92.999C46.0853 91.9442 31.5422 91.9291 17.2122 91.3145L1.21413 90.6289C0.897684 89.4509 0.774013 88.2157 0.871358 86.9736L68.9817 84.2666C69.7047 82.6376 65.7512 83.2823 64.6389 83.2334C44.2819 82.3357 23.9549 81.4076 3.60769 80.4941L5.89187 77.2832L76.0237 74.5029C76.2172 73.1484 73.7764 73.7183 72.7298 73.6504C51.9877 72.317 31.177 71.7001 10.3782 70.9736L12.7649 67.6162L51.9993 65.9746L51.0598 67.291ZM54.3118 62.7373L17.3333 61.1924L19.6731 57.9014L58.8831 56.3369L54.3118 62.7373ZM61.4622 52.7266C49.0803 52.2035 36.6817 51.8343 24.2903 51.4092L26.6028 48.1572L65.8303 46.6104L61.4622 52.7266ZM68.218 43.2676L31.2483 41.625L33.471 38.5L72.7825 36.8789L68.218 43.2676ZM160.826 0.602546C165.256 0.60277 167.837 5.60485 165.27 9.21485L150.394 30.1338L80.6809 30.1338C78.7484 30.1338 76.9341 31.0671 75.8108 32.6397L75.0598 33.6904L38.0462 32.0654L40.4251 28.7207L110.35 25.8213L110.477 25.167C109.845 25.2838 109.25 24.9965 108.665 24.9561C104.055 24.6434 99.2565 24.737 94.6223 24.5371C78.0863 23.8277 61.5466 23.0394 45.01 22.2725L47.3001 19.0518C57.1227 18.5882 66.9414 18.1233 76.7571 17.7148L117.493 16.0195C117.534 15.7835 117.493 15.62 117.282 15.4902C116.43 14.9607 108.239 15.0455 106.534 14.9668C88.3326 14.1298 70.1423 13.2922 51.9729 12.4814L52.2688 12.0664C52.9578 11.0975 53.7057 10.1828 54.5032 9.32324C75.8241 8.43446 97.1649 7.54769 118.444 6.65333C120.402 6.57251 122.359 6.77673 124.303 6.44922L124.288 5.82813L124.286 5.82813C122.966 5.38364 121.519 5.67451 120.143 5.60645C101.301 4.66179 82.4058 3.75614 63.5208 2.90528C66.9308 1.40693 70.658 0.602542 74.4876 0.602542L160.826 0.602546Z" fill="url(#paint0_linear_2111_70)"/>
<path d="M292.03 94.588C285.601 94.588 280.325 93.1932 276.201 90.4034C272.137 87.553 269.53 83.7019 268.377 78.8501L279.749 73.0279C281.326 79.3353 285.753 82.4889 293.03 82.4889C296.366 82.4889 298.974 81.8824 300.854 80.6695C302.795 79.4566 303.947 77.8494 304.311 75.848C304.796 73.5434 304.129 71.7544 302.309 70.4808C300.551 69.2072 297.458 67.8426 293.03 66.3871C287.087 64.3857 282.599 61.8688 279.567 58.8365C276.595 55.7435 275.594 51.4072 276.565 45.8276C277.596 40.0662 280.295 35.7299 284.661 32.8188C289.088 29.8471 294.122 28.3612 299.762 28.3612C304.978 28.3612 309.436 29.6045 313.135 32.091C316.834 34.5776 319.503 38.0648 321.14 42.5527L310.133 48.3748C307.889 43.0985 304.099 40.4604 298.762 40.4604C296.214 40.4604 294.092 41.0062 292.394 42.0978C290.756 43.1895 289.725 44.6754 289.301 46.5554C288.815 48.7994 289.452 50.5885 291.211 51.9227C292.97 53.1963 295.942 54.5912 300.126 56.1074C301.218 56.5319 302.128 56.8655 302.855 57.108C303.583 57.3506 304.493 57.7145 305.584 58.1997C306.676 58.6242 307.555 59.0488 308.223 59.4733C308.95 59.8372 309.769 60.3223 310.679 60.9288C311.589 61.4746 312.347 62.0508 312.953 62.6573C313.56 63.2031 314.166 63.8702 314.772 64.6586C315.44 65.3864 315.925 66.1748 316.228 67.0239C316.592 67.8729 316.895 68.813 317.138 69.844C317.38 70.8143 317.502 71.906 317.502 73.1189C317.502 74.3319 317.38 75.6055 317.138 76.9397C316.107 82.6405 313.317 87.0071 308.768 90.0395C304.281 93.0719 298.701 94.588 292.03 94.588ZM355.158 46.5554C360.252 46.5554 364.194 48.2535 366.984 51.6498C369.774 55.046 370.653 59.6249 369.622 65.3864L364.71 93.3145L352.975 93.3145L357.614 66.8419C358.16 63.7489 357.735 61.414 356.34 59.8372C355.006 58.2603 352.975 57.4719 350.245 57.4719C347.456 57.4719 344.999 58.2907 342.877 59.9281C340.815 61.5656 339.359 64.0218 338.51 67.2968L333.962 93.3145L322.226 93.3145L330.232 47.829L341.967 47.829L341.057 52.7414C344.636 48.6174 349.336 46.5554 355.158 46.5554ZM417.127 47.829L428.862 47.829L420.857 93.3145L409.121 93.3145L409.849 89.1298C405.907 92.7686 400.873 94.5881 394.748 94.5881C387.895 94.5881 382.8 92.0712 379.465 87.0375C376.129 82.0037 375.098 76.1513 376.372 69.4801C377.524 62.9908 380.435 57.5629 385.105 53.1963C389.836 48.769 395.476 46.5554 402.026 46.5554C408.454 46.5554 413.124 49.0116 416.035 53.9241L417.127 47.829ZM398.387 83.3986C401.904 83.3986 405.028 82.307 407.757 80.1237C410.486 77.8797 412.245 74.9383 413.033 71.2995L413.215 69.844C413.7 66.1445 412.912 63.2031 410.85 61.0198C408.848 58.8365 406.119 57.7448 402.662 57.7448C399.084 57.7448 395.931 58.8971 393.201 61.2017C390.472 63.4457 388.774 66.5387 388.107 70.4808C387.44 74.3015 388.077 77.4249 390.017 79.8508C391.958 82.216 394.748 83.3986 398.387 83.3986ZM465.61 46.5554C472.039 46.5554 476.981 49.0723 480.438 54.106C483.956 59.0791 485.169 64.8709 484.077 71.4814C483.107 77.9101 480.317 83.3683 475.708 87.8562C471.099 92.3441 465.519 94.5881 458.969 94.5881C452.298 94.5881 447.446 92.0409 444.414 86.9465L440.138 111.509L428.403 111.509L439.592 47.829L451.328 47.829L450.509 52.5595C454.512 48.5568 459.545 46.5554 465.61 46.5554ZM472.342 70.6627C473.009 66.8419 472.372 63.7489 470.431 61.3837C468.551 58.9578 465.792 57.7448 462.153 57.7448C458.696 57.7448 455.603 58.8062 452.874 60.9288C450.206 63.0515 448.417 65.8413 447.507 69.2981L447.143 71.5724C446.718 75.2113 447.537 78.092 449.599 80.2147C451.661 82.3373 454.421 83.3986 457.877 83.3986C461.395 83.3986 464.518 82.2767 467.247 80.0327C469.977 77.7281 471.675 74.6048 472.342 70.6627ZM519.915 94.5881C513.547 94.5881 508.029 93.0416 503.359 89.9485C498.689 86.8555 495.353 82.7315 493.352 77.5765C491.411 72.3608 490.956 66.6903 491.987 60.5649C493.504 51.2253 497.809 43.5231 504.905 37.4583C512.062 31.3936 520.31 28.3612 529.649 28.3612C535.714 28.3612 540.93 29.6955 545.296 32.364C549.724 35.0324 552.998 38.7319 555.121 43.4624L543.659 49.4665C540.808 43.5231 535.744 40.5513 528.467 40.5513C522.402 40.5513 517.126 42.4921 512.638 46.3735C508.21 50.2549 505.481 55.2886 504.45 61.4747C503.359 67.6 504.329 72.6034 507.361 76.4848C510.394 80.3663 514.851 82.307 520.734 82.307C528.618 82.307 534.774 79.214 539.201 73.028L549.481 79.6688C546.024 84.278 541.688 87.9169 536.472 90.5853C531.317 93.2538 525.798 94.5881 519.915 94.5881ZM573.362 55.1067C576.637 49.5271 581.732 46.798 588.645 46.9193L586.371 60.0191C584.248 59.7765 582.156 59.9282 580.094 60.474C578.093 60.9592 576.152 62.1115 574.272 63.9309C572.392 65.7503 571.149 68.1459 570.542 71.1176L566.63 93.3145L554.895 93.3145L562.901 47.829L574.636 47.829L573.362 55.1067ZM597.087 53.1963C602.242 48.7691 608.186 46.5554 614.917 46.5554C621.649 46.5554 626.956 48.8904 630.837 53.5602C634.719 58.1694 636.023 63.8399 634.749 70.5717C634.628 71.906 634.203 73.5131 633.475 75.3932L599.088 75.3932C599.331 78.3043 600.453 80.4572 602.454 81.8521C604.456 83.247 606.973 83.9445 610.005 83.9445C614.554 83.9445 618.283 82.398 621.194 79.305L629.473 85.9458C624.378 91.7073 617.586 94.5881 609.095 94.5881C601.575 94.5881 595.844 92.1925 591.902 87.4014C588.02 82.6102 586.656 76.6971 587.808 69.662C588.839 63.0515 591.932 57.5629 597.087 53.1963ZM600.726 66.2051L623.833 66.2051C623.772 63.1121 622.832 60.8379 621.012 59.3823C619.254 57.8661 616.979 57.1081 614.19 57.1081C611.157 57.1081 608.458 57.8965 606.093 59.4733C603.789 61.0501 602 63.2941 600.726 66.2051ZM684.61 29.6348L696.346 29.6348L685.156 93.3145L673.421 93.3145L674.149 88.9479C670.207 92.708 665.112 94.5881 658.866 94.5881C652.012 94.5881 646.918 92.0712 643.582 87.0375C640.247 82.0038 639.216 76.1513 640.489 69.4801C641.642 62.9908 644.553 57.5629 649.223 53.1963C653.953 48.7691 659.593 46.5554 666.143 46.5554C672.693 46.5554 677.424 49.0723 680.335 54.106L684.61 29.6348ZM662.595 83.3986C666.295 83.3986 669.509 82.216 672.238 79.8508C675.028 77.4855 676.726 74.4228 677.333 70.6627C678.06 66.7206 677.424 63.5973 675.422 61.2927C673.421 58.9275 670.601 57.7449 666.962 57.7449C663.384 57.7449 660.2 58.8971 657.41 61.2017C654.62 63.4457 652.892 66.5387 652.225 70.4808C651.558 74.3016 652.194 77.4249 654.135 79.8508C656.136 82.216 658.957 83.3986 662.595 83.3986Z" fill="white"/>
<defs>
<linearGradient id="paint0_linear_2111_70" x1="94.3502" y1="43.1053" x2="94.3502" y2="95.4904" gradientUnits="userSpaceOnUse">
<stop stop-color="#FF7B00"/>
<stop offset="1" stop-color="#FF5B00"/>
</linearGradient>
</defs>
</svg>
