<svg width="315" height="62" viewBox="0 0 315 62" fill="none" xmlns="http://www.w3.org/2000/svg">
<path d="M80.4112 16.729C84.4117 16.729 86.7423 21.2471 84.4239 24.5073L62.1212 55.8706C59.8119 59.118 56.0737 61.0472 52.089 61.0474L13.1026 61.0474C11.1027 61.0471 9.93775 58.7887 11.0968 57.1587L17.8145 47.7124L49.2901 47.7124C50.1626 47.7123 50.9812 47.2906 51.4884 46.5806L62.6642 30.9341C63.3028 30.04 62.6642 28.7986 61.5655 28.7983L31.2647 28.7983L38.3741 18.8003C39.2978 17.5013 40.7929 16.729 42.3868 16.729L80.4112 16.729ZM23.5724 30.2534C22.9338 31.1475 23.5724 32.3889 24.671 32.3892L54.9737 32.3892L47.8643 42.3872C46.9406 43.6862 45.4456 44.4585 43.8517 44.4585L5.82724 44.4585C4.54198 44.4585 3.43073 43.9897 2.58896 43.2485L28.6046 42.2017C28.6078 42.1914 28.7074 41.8686 28.6046 41.8608C28.5601 41.8593 14.7484 41.3772 8.28817 41.1001L1.06552 40.7905C0.92258 40.2585 0.867236 39.7011 0.911221 39.1401L31.6642 37.9175L31.6642 37.605C22.3447 37.194 12.0211 36.6886 2.13681 36.2261L3.17587 34.7642L34.8438 33.5093L34.8438 33.231C25.3453 32.6204 15.1595 32.2921 5.19442 31.9263L6.28036 30.3989L23.9972 29.6577L23.5724 30.2534ZM25.0411 28.1968L8.34286 27.4985L9.3995 26.0132L27.1046 25.3062L25.0411 28.1968ZM28.2696 23.6763C22.6789 23.4401 17.0805 23.2715 11.4854 23.0796L12.5284 21.6128L30.2423 20.9146L28.2696 23.6763ZM31.3204 19.4048L14.6261 18.6626L15.629 17.2515L33.381 16.52L31.3204 19.4048ZM73.1358 0.14014C75.1358 0.14045 76.3007 2.39882 75.1417 4.02881L68.4239 13.4751L36.9464 13.4751C36.0739 13.4752 35.2553 13.897 34.7481 14.6069L34.4093 15.0806L17.6954 14.3472L18.7686 12.8364L50.3429 11.5278L50.3429 11.2251L49.7022 11.1714C49.6521 11.1699 45.3217 11.0375 43.2413 10.9478C35.7748 10.6274 28.3066 10.2716 20.8399 9.92529L21.8731 8.47119C26.3087 8.26189 30.7425 8.05116 35.1749 7.8667L53.4737 7.09326L53.4737 6.8628C53.4496 6.86161 49.3871 6.66189 48.6202 6.62647C40.4013 6.24854 32.1877 5.86952 23.9835 5.50342L24.1173 5.3169C24.4284 4.87941 24.766 4.46577 25.1261 4.07764C34.7534 3.67631 44.3899 3.2764 53.9981 2.87256C54.8777 2.83627 56.6244 2.7804 56.6436 2.77979L56.6368 2.49951L56.6358 2.49951C56.6136 2.49828 55.3815 2.43037 54.7657 2.3999C46.2575 1.97334 37.7249 1.56439 29.1974 1.18018C30.7372 0.503464 32.4202 0.140204 34.1495 0.140138L73.1358 0.14014Z" fill="url(#paint0_linear_86_837951)"/>
<path d="M132.378 43.0038C129.475 43.0038 127.093 42.3739 125.23 41.1142C123.396 39.8272 122.218 38.0882 121.698 35.8975L126.832 33.2685C127.544 36.1165 129.544 37.5405 132.83 37.5405C134.336 37.5405 135.513 37.2667 136.362 36.719C137.239 36.1713 137.759 35.4456 137.923 34.5419C138.142 33.5013 137.841 32.6935 137.02 32.1184C136.225 31.5433 134.829 30.9271 132.83 30.2699C130.146 29.3662 128.12 28.2298 126.75 26.8605C125.408 25.4639 124.957 23.5059 125.395 20.9865C125.86 18.385 127.079 16.427 129.051 15.1125C131.05 13.7706 133.323 13.0997 135.869 13.0997C138.224 13.0997 140.237 13.6611 141.908 14.7839C143.578 15.9066 144.783 17.4813 145.522 19.5077L140.552 22.1367C139.539 19.7542 137.827 18.563 135.418 18.563C134.267 18.563 133.309 18.8094 132.542 19.3023C131.803 19.7953 131.337 20.4662 131.146 21.3151C130.926 22.3284 131.214 23.1362 132.008 23.7387C132.802 24.3137 134.144 24.9436 136.034 25.6282C136.527 25.8199 136.937 25.9705 137.266 26.0801C137.595 26.1896 138.005 26.3539 138.498 26.573C138.991 26.7647 139.388 26.9564 139.69 27.1481C140.018 27.3124 140.388 27.5314 140.799 27.8053C141.209 28.0518 141.552 28.3119 141.826 28.5858C142.099 28.8322 142.373 29.1334 142.647 29.4894C142.948 29.8181 143.167 30.1741 143.304 30.5575C143.469 30.9408 143.606 31.3653 143.715 31.8308C143.825 32.269 143.879 32.7619 143.879 33.3096C143.879 33.8573 143.825 34.4324 143.715 35.0348C143.25 37.609 141.99 39.5807 139.936 40.9499C137.91 42.3192 135.39 43.0038 132.378 43.0038ZM160.883 21.3151C163.183 21.3151 164.963 22.0819 166.223 23.6154C167.482 25.149 167.88 27.2165 167.414 29.8181L165.196 42.4287L159.897 42.4287L161.992 30.4753C162.238 29.0787 162.047 28.0244 161.417 27.3124C160.814 26.6004 159.897 26.2444 158.665 26.2444C157.405 26.2444 156.296 26.6141 155.337 27.3534C154.406 28.0928 153.749 29.2019 153.366 30.6807L151.312 42.4287L146.013 42.4287L149.628 21.8902L154.927 21.8902L154.516 24.1084C156.131 22.2462 158.254 21.3151 160.883 21.3151ZM188.864 21.8902L194.163 21.8902L190.548 42.4287L185.249 42.4287L185.578 40.5392C183.798 42.1823 181.525 43.0038 178.759 43.0038C175.665 43.0038 173.364 41.8673 171.858 39.5944C170.352 37.3215 169.887 34.6788 170.462 31.6665C170.982 28.7364 172.296 26.2854 174.405 24.3137C176.541 22.3147 179.088 21.3151 182.045 21.3151C184.948 21.3151 187.057 22.4242 188.371 24.6424L188.864 21.8902ZM180.402 37.9513C181.991 37.9513 183.401 37.4584 184.633 36.4725C185.866 35.4593 186.66 34.1312 187.016 32.4881L187.098 31.8308C187.317 30.1604 186.961 28.8322 186.03 27.8464C185.126 26.8605 183.894 26.3676 182.333 26.3676C180.717 26.3676 179.293 26.8879 178.061 27.9285C176.829 28.9418 176.062 30.3384 175.761 32.1184C175.459 33.8436 175.747 35.2539 176.623 36.3493C177.5 37.4173 178.759 37.9513 180.402 37.9513ZM210.756 21.3151C213.659 21.3151 215.891 22.4516 217.452 24.7245C219.04 26.9701 219.588 29.5853 219.095 32.5702C218.657 35.473 217.397 37.9376 215.316 39.9641C213.235 41.9906 210.715 43.0038 207.758 43.0038C204.745 43.0038 202.555 41.8536 201.185 39.5533L199.255 50.6441L193.956 50.6441L199.008 21.8902L204.307 21.8902L203.938 24.0262C205.745 22.2188 208.018 21.3151 210.756 21.3151ZM213.796 32.2005C214.097 30.4753 213.81 29.0787 212.933 28.0107C212.084 26.9153 210.838 26.3676 209.195 26.3676C207.634 26.3676 206.238 26.8468 205.006 27.8053C203.801 28.7638 202.993 30.0235 202.582 31.5844L202.418 32.6113C202.226 34.2544 202.596 35.5552 203.527 36.5136C204.458 37.4721 205.704 37.9513 207.265 37.9513C208.853 37.9513 210.263 37.4447 211.496 36.4315C212.728 35.3909 213.495 33.9805 213.796 32.2005ZM235.277 43.0038C232.402 43.0038 229.91 42.3055 227.801 40.9089C225.693 39.5122 224.187 37.6501 223.283 35.3224C222.407 32.9673 222.201 30.4068 222.667 27.641C223.351 23.4237 225.296 19.9459 228.5 17.2074C231.731 14.469 235.455 13.0997 239.673 13.0997C242.411 13.0997 244.766 13.7022 246.738 14.9071C248.737 16.112 250.216 17.7825 251.174 19.9185L245.999 22.6296C244.711 19.9459 242.425 18.604 239.139 18.604C236.4 18.604 234.018 19.4803 231.991 21.233C229.992 22.9856 228.76 25.2585 228.294 28.0518C227.801 30.8176 228.24 33.0768 229.609 34.8295C230.978 36.5821 232.991 37.4584 235.647 37.4584C239.207 37.4584 241.987 36.0618 243.986 33.2685L248.627 36.2672C247.067 38.3484 245.109 39.9915 242.753 41.1964C240.426 42.4013 237.934 43.0038 235.277 43.0038ZM259.411 25.1764C260.89 22.657 263.19 21.4247 266.312 21.4794L265.285 27.3945C264.326 27.285 263.382 27.3534 262.451 27.5999C261.547 27.819 260.67 28.3393 259.822 29.1608C258.973 29.9824 258.411 31.0641 258.137 32.4059L256.371 42.4287L251.072 42.4287L254.687 21.8902L259.986 21.8902L259.411 25.1764ZM270.124 24.3137C272.451 22.3147 275.135 21.3151 278.175 21.3151C281.214 21.3151 283.611 22.3694 285.363 24.4781C287.116 26.5593 287.705 29.1198 287.129 32.1595C287.075 32.7619 286.883 33.4876 286.554 34.3365L271.027 34.3365C271.137 35.651 271.643 36.6232 272.547 37.253C273.451 37.8829 274.587 38.1978 275.956 38.1978C278.01 38.1978 279.695 37.4995 281.009 36.1029L284.747 39.1015C282.447 41.703 279.38 43.0038 275.546 43.0038C272.15 43.0038 269.562 41.9221 267.782 39.7587C266.03 37.5953 265.413 34.9253 265.934 31.7487C266.399 28.7638 267.796 26.2854 270.124 24.3137ZM271.767 30.1878L282.2 30.1878C282.173 28.7911 281.748 27.7642 280.927 27.107C280.133 26.4224 279.106 26.0801 277.846 26.0801C276.477 26.0801 275.258 26.4361 274.19 27.1481C273.15 27.8601 272.342 28.8733 271.767 30.1878ZM309.644 13.6748L314.943 13.6748L309.89 42.4287L304.591 42.4287L304.92 40.457C303.14 42.1549 300.84 43.0038 298.019 43.0038C294.925 43.0038 292.624 41.8673 291.118 39.5944C289.612 37.3215 289.146 34.6789 289.721 31.6665C290.242 28.7364 291.556 26.2854 293.665 24.3137C295.801 22.3147 298.348 21.3151 301.305 21.3151C304.263 21.3151 306.399 22.4516 307.713 24.7245L309.644 13.6748ZM299.703 37.9513C301.374 37.9513 302.825 37.4173 304.057 36.3493C305.317 35.2813 306.084 33.8984 306.358 32.2005C306.686 30.4205 306.399 29.0102 305.495 27.9696C304.591 26.9016 303.318 26.3676 301.675 26.3676C300.059 26.3676 298.621 26.8879 297.362 27.9285C296.102 28.9418 295.322 30.3384 295.02 32.1184C294.719 33.8436 295.007 35.2539 295.883 36.3493C296.787 37.4173 298.06 37.9513 299.703 37.9513Z" fill="white"/>
<defs>
<linearGradient id="paint0_linear_86_837951" x1="43.1202" y1="19.332" x2="43.1202" y2="42.9861" gradientUnits="userSpaceOnUse">
<stop stop-color="#FF7B00"/>
<stop offset="1" stop-color="#FF5B00"/>
</linearGradient>
</defs>
</svg>
