<svg width="602" height="136" viewBox="0 0 602 136" fill="none" xmlns="http://www.w3.org/2000/svg">
<path d="M289.357 98.79L275.057 98.79L286.957 44.59L267.457 44.59L270.257 32.09L323.457 32.09L320.757 44.59L301.257 44.59L289.357 98.79ZM336.948 49.29C343.348 49.29 349.148 52.09 352.348 56.89L353.648 50.49L366.448 50.49L355.748 98.79L342.948 98.79L344.348 92.79C340.248 97.59 335.648 99.99 329.848 99.99C318.848 99.99 311.448 92.79 311.448 79.99C311.448 65.39 320.448 49.29 336.948 49.29ZM338.948 60.59C330.648 60.59 324.748 68.49 324.748 77.39C324.748 84.29 329.348 88.69 335.448 88.69C339.948 88.69 343.948 86.29 346.548 82.99L350.248 66.19C348.148 62.99 344.048 60.59 338.948 60.59ZM397.841 99.99C391.241 99.99 385.641 97.19 382.441 92.39L376.941 117.19L364.241 117.19L379.041 50.49L391.741 50.49L390.341 56.49C394.441 51.69 399.141 49.29 404.941 49.29C415.741 49.29 423.241 56.49 423.241 69.29C423.241 83.79 414.241 99.99 397.841 99.99ZM395.741 88.69C404.141 88.69 409.941 80.79 409.941 71.89C409.941 64.99 405.341 60.59 399.241 60.59C394.741 60.59 390.841 63.09 388.141 66.39L384.441 83.19C386.541 86.39 390.641 88.69 395.741 88.69ZM441.142 98.79L426.942 98.79L441.642 32.09L470.942 32.09C483.242 32.09 490.742 40.49 490.742 50.59C490.742 60.49 484.042 75.09 463.142 75.09L446.442 75.09L441.142 98.79ZM449.142 62.59L464.042 62.59C471.142 62.59 475.842 57.99 475.842 52.09C475.842 47.69 472.542 44.59 467.542 44.59L453.142 44.59L449.142 62.59ZM514.291 49.29C520.691 49.29 526.491 52.0901 529.691 56.89L530.991 50.49L543.791 50.4901L533.091 98.7901L520.291 98.7901L521.691 92.7901C517.591 97.5901 512.991 99.9901 507.191 99.99C496.191 99.99 488.791 92.79 488.791 79.99C488.791 65.39 497.791 49.29 514.291 49.29ZM516.291 60.59C507.991 60.59 502.091 68.49 502.091 77.39C502.091 84.29 506.691 88.69 512.791 88.69C517.291 88.6901 521.291 86.2901 523.891 82.99L527.591 66.1901C525.491 62.99 521.391 60.59 516.291 60.59ZM539.985 117.19L544.185 106.19C545.285 106.69 547.285 106.99 549.085 106.99C551.685 106.99 553.385 106.09 555.085 103.59L558.085 99.0901L549.485 50.4901L562.685 50.4901L567.785 84.0901L587.985 50.4901L601.985 50.4901L566.785 106.69C561.485 115.29 556.085 118.39 548.085 118.39C545.285 118.39 542.285 117.99 539.985 117.19Z" fill="white"/>
<path d="M122.991 13.8916C124.184 13.8919 124.986 15.3439 124.986 16.5371L124.986 43.7949C124.986 45.5427 123.977 47.0999 122.609 48.1885C119.145 50.9462 116.924 55.1996 116.924 59.9717C116.924 68.2852 123.663 75.0252 131.977 75.0254C136.949 75.0254 141.358 72.6141 144.099 68.8975C145.184 67.426 146.796 66.3243 148.624 66.3242L173.983 66.3242C175.286 66.3242 177.015 67.2084 177.016 68.5107L177.016 120.717C177.016 126.29 172.497 130.809 166.924 130.809L10.252 130.809C4.67845 130.809 0.160212 126.29 0.160213 120.717L0.160217 23.9834C0.160307 18.4099 4.67851 13.8917 10.252 13.8916L122.991 13.8916ZM19.0391 103.536C17.5085 103.536 16.2678 104.777 16.2676 106.308L16.2676 106.451C16.2678 107.982 17.5086 109.223 19.0391 109.223L44.7354 109.223C46.266 109.223 47.5067 107.982 47.5069 106.451L47.5069 106.308C47.5068 104.777 46.266 103.536 44.7354 103.536L19.0391 103.536ZM57.5899 103.536C56.0593 103.536 54.8185 104.777 54.8184 106.308L54.8184 106.451C54.8186 107.982 56.0594 109.223 57.5899 109.223L83.2862 109.223C84.8167 109.223 86.0575 107.982 86.0577 106.451L86.0577 106.308C86.0575 104.777 84.8168 103.536 83.2862 103.536L57.5899 103.536ZM96.1426 103.536C94.612 103.536 93.3713 104.777 93.3712 106.308L93.3712 106.451C93.3714 107.982 94.6121 109.223 96.1426 109.223L121.839 109.223C123.369 109.223 124.61 107.982 124.61 106.451L124.61 106.308C124.61 104.777 123.37 103.536 121.839 103.536L96.1426 103.536ZM134.691 103.536C133.161 103.536 131.92 104.777 131.92 106.308L131.92 106.451C131.92 107.982 133.161 109.223 134.691 109.223L160.388 109.223C161.918 109.223 163.159 107.982 163.159 106.451L163.159 106.308C163.159 104.777 161.918 103.536 160.388 103.536L134.691 103.536ZM23.4932 30.0479C20.34 30.0479 17.7833 32.6045 17.7833 35.7578L17.7833 52.3359C17.7834 55.4891 20.3401 58.0449 23.4932 58.0449L54.1846 58.0449C57.3378 58.0449 59.8944 55.4891 59.8946 52.3359L59.8946 35.7578C59.8946 32.6045 57.3379 30.0479 54.1846 30.0479L23.4932 30.0479Z" fill="url(#paint0_linear_2111_17)"/>
<path d="M187.305 62.8075C187.305 55.1198 185.79 47.5074 182.848 40.4049C179.906 33.3024 175.594 26.8489 170.158 21.4128C164.722 15.9768 158.269 11.6647 151.166 8.72276C144.064 5.78081 136.451 4.2666 128.764 4.2666L128.764 14.8037C135.068 14.8037 141.31 16.0454 147.134 18.4578C152.958 20.8702 158.25 24.4061 162.707 28.8637C167.165 33.3213 170.701 38.6132 173.113 44.4372C175.526 50.2613 176.767 56.5036 176.767 62.8075L187.305 62.8075Z" fill="#FE6E00"/>
<path d="M172.333 62.8091C172.333 57.0875 171.206 51.4218 169.017 46.1357C166.827 40.8495 163.618 36.0464 159.572 32.0006C155.526 27.9547 150.723 24.7454 145.437 22.5558C140.151 20.3662 134.485 19.2393 128.763 19.2393L128.763 29.7259C133.108 29.7259 137.41 30.5816 141.424 32.2442C145.438 33.9068 149.085 36.3437 152.157 39.4157C155.229 42.4878 157.666 46.1349 159.328 50.1487C160.991 54.1626 161.847 58.4646 161.847 62.8091L172.333 62.8091Z" fill="#FE6E00"/>
<path d="M157.485 62.8589C157.485 59.0887 156.743 55.3554 155.3 51.8722C153.857 48.3891 151.743 45.2241 149.077 42.5582C146.411 39.8923 143.246 37.7776 139.763 36.3348C136.279 34.892 132.546 34.1494 128.776 34.1494L128.776 44.6818C131.163 44.6818 133.527 45.1519 135.732 46.0654C137.937 46.9789 139.941 48.3178 141.629 50.0057C143.317 51.6936 144.656 53.6975 145.569 55.9028C146.483 58.1082 146.953 60.4718 146.953 62.8589L157.485 62.8589Z" fill="#FE6E00"/>
<circle cx="131.583" cy="60.3422" r="9.92716" fill="#FE6E00"/>
<defs>
<linearGradient id="paint0_linear_2111_17" x1="88.588" y1="50.7321" x2="88.588" y2="96.1384" gradientUnits="userSpaceOnUse">
<stop stop-color="#FF7B00"/>
<stop offset="1" stop-color="#FF5B00"/>
</linearGradient>
</defs>
</svg>
