<svg width="301" height="75" viewBox="0 0 301 75" fill="none" xmlns="http://www.w3.org/2000/svg">
<path d="M124.09 52.759C113.948 52.759 106.087 45.6596 106.087 35.2639C106.087 24.8682 113.948 17.7688 124.09 17.7688C131.544 17.7688 135.855 21.8256 138.238 26.0346L132.051 29.0772C130.631 26.3388 127.589 24.1583 124.09 24.1583C117.954 24.1583 113.491 28.8744 113.491 35.2639C113.491 41.6534 117.954 46.3695 124.09 46.3695C127.589 46.3695 130.631 44.2397 132.051 41.4506L138.238 44.4425C135.804 48.6515 131.544 52.759 124.09 52.759ZM165.395 52.1505L158.954 52.1505L158.954 37.2416C158.954 33.844 157.18 32.7791 154.39 32.7791C151.906 32.7791 149.928 34.199 148.812 35.6696L148.812 52.1505L142.372 52.1505L142.372 18.3266L148.812 18.3266L148.812 30.8521C150.384 28.9758 153.427 27.0488 157.433 27.0488C162.808 27.0488 165.395 29.99 165.395 34.7568L165.395 52.1505ZM192.934 52.1505L186.494 52.1505L186.494 49.615C184.821 51.5927 181.93 52.759 178.735 52.759C174.831 52.759 170.216 50.1221 170.216 44.6454C170.216 38.9151 174.831 36.7345 178.735 36.7345C181.981 36.7345 184.871 37.7994 186.494 39.7264L186.494 36.4302C186.494 33.9454 184.364 32.3227 181.119 32.3227C178.482 32.3227 176.048 33.2862 173.969 35.2132L171.535 30.9028C174.526 28.2658 178.38 27.0488 182.234 27.0488C187.813 27.0488 192.934 29.2801 192.934 36.3288L192.934 52.1505ZM181.322 48.3979C183.401 48.3979 185.429 47.688 186.494 46.2681L186.494 43.2255C185.429 41.8056 183.401 41.0956 181.322 41.0956C178.786 41.0956 176.707 42.4141 176.707 44.7975C176.707 47.0795 178.786 48.3979 181.322 48.3979ZM207.537 52.759C203.024 52.759 200.59 50.4264 200.59 46.0653L200.59 33.2862L196.533 33.2862L196.533 27.6573L200.59 27.6573L200.59 20.9635L207.081 20.9635L207.081 27.6573L212.051 27.6573L212.051 33.2862L207.081 33.2862L207.081 44.3411C207.081 45.8624 207.892 47.0288 209.312 47.0288C210.276 47.0288 211.189 46.6738 211.544 46.3188L212.913 51.187C211.949 52.0491 210.225 52.759 207.537 52.759ZM234.966 52.1505L216.609 52.1505L216.609 18.3266L234.409 18.3266C240.849 18.3266 244.145 22.4341 244.145 26.9474C244.145 31.2071 241.508 34.0469 238.313 34.7061C241.914 35.2639 244.804 38.7629 244.804 43.0226C244.804 48.0937 241.407 52.1505 234.966 52.1505ZM232.836 31.8663C235.271 31.8663 236.792 30.345 236.792 28.2151C236.792 26.0853 235.271 24.5133 232.836 24.5133L223.81 24.5133L223.81 31.8663L232.836 31.8663ZM233.09 45.9131C235.828 45.9131 237.451 44.4425 237.451 42.0084C237.451 39.8786 235.93 38.053 233.09 38.053L223.81 38.053L223.81 45.9131L233.09 45.9131ZM261.442 52.759C253.379 52.759 248.51 46.8766 248.51 39.8786C248.51 32.9312 253.379 27.0488 261.442 27.0488C269.555 27.0488 274.423 32.9312 274.423 39.8786C274.423 46.8766 269.555 52.759 261.442 52.759ZM261.442 47.0288C265.448 47.0288 267.73 43.7326 267.73 39.8786C267.73 36.0753 265.448 32.7791 261.442 32.7791C257.435 32.7791 255.204 36.0753 255.204 39.8786C255.204 43.7326 257.435 47.0288 261.442 47.0288ZM299.831 52.1505L292.631 52.1505L287.052 43.8847L281.424 52.1505L274.273 52.1505L282.945 39.5743L274.78 27.6573L281.981 27.6573L287.052 35.2132L292.073 27.6573L299.274 27.6573L291.059 39.5743L299.831 52.1505Z" fill="#1D1D1D"/>
<path d="M56.3506 0.150881C60.6689 0.150882 64.1699 3.65186 64.1699 7.97022L64.1699 13.7241L20.9326 13.7241C16.6143 13.7241 13.1134 17.2252 13.1133 21.5435L13.1133 49.7495C13.1133 54.0679 16.6143 57.5688 20.9326 57.5688L28.2568 57.5688L27.958 66.5708L41.3994 57.5688L64.1699 57.5689L64.1699 63.3267C64.1699 67.645 60.6689 71.146 56.3506 71.146L7.81933 71.146C3.501 71.146 3.76812e-05 67.645 -2.7615e-06 63.3267L-3.41794e-07 7.97021C-1.53032e-07 3.65185 3.50097 0.150879 7.81934 0.150879L56.3506 0.150881Z" fill="url(#paint0_linear_603_356198)"/>
<circle cx="28.7155" cy="35.6511" r="5.17251" fill="url(#paint1_linear_603_356198)"/>
<circle cx="43.7467" cy="35.6511" r="5.17251" fill="url(#paint2_linear_603_356198)"/>
<circle cx="58.7858" cy="35.6511" r="5.17251" fill="url(#paint3_linear_603_356198)"/>
<defs>
<linearGradient id="paint0_linear_603_356198" x1="32.085" y1="22.5214" x2="32.085" y2="50.0933" gradientUnits="userSpaceOnUse">
<stop stop-color="#FF7B00"/>
<stop offset="1" stop-color="#FF5B00"/>
</linearGradient>
<linearGradient id="paint1_linear_603_356198" x1="28.7155" y1="33.7383" x2="28.7155" y2="37.756" gradientUnits="userSpaceOnUse">
<stop stop-color="#FF7B00"/>
<stop offset="1" stop-color="#FF5B00"/>
</linearGradient>
<linearGradient id="paint2_linear_603_356198" x1="43.7467" y1="33.7383" x2="43.7467" y2="37.756" gradientUnits="userSpaceOnUse">
<stop stop-color="#FF7B00"/>
<stop offset="1" stop-color="#FF5B00"/>
</linearGradient>
<linearGradient id="paint3_linear_603_356198" x1="58.7858" y1="33.7383" x2="58.7858" y2="37.756" gradientUnits="userSpaceOnUse">
<stop stop-color="#FF7B00"/>
<stop offset="1" stop-color="#FF5B00"/>
</linearGradient>
</defs>
</svg>
