<svg width="306" height="88" viewBox="0 0 306 88" fill="none" xmlns="http://www.w3.org/2000/svg">
<path d="M3.03726e-07 80.9998C1.35982e-07 84.8373 3.11092 87.9482 6.94845 87.9482L58.5138 87.9482C69.9857 87.9482 76.517 74.8339 69.6049 65.6781L22.9009 3.81419C21.5878 2.07485 19.5347 1.05235 17.3553 1.05235L6.94845 1.05235C3.11093 1.05235 3.66236e-06 4.16328 3.49461e-06 8.0008L3.03726e-07 80.9998Z" fill="#FFAD01"/>
<path d="M-3.03726e-07 7.64108C-1.35983e-07 3.80356 3.11093 0.692627 6.94845 0.692627L58.3477 0.69263C70.7026 0.69263 76.9147 15.6081 68.2123 24.378L20.7317 72.2272C19.4271 73.542 17.6516 74.2814 15.7995 74.2814L6.16297 74.2814C6.16297 74.2814 2.32407 74.2814 -3.55798e-06 82.0896L-3.03726e-07 7.64108Z" fill="url(#paint0_linear_210_22231)"/>
<path d="M15.0664 44.3207C15.0664 39.736 18.783 36.0194 23.3677 36.0194L59.0412 36.0194C61.3615 36.0194 63.2425 37.9004 63.2425 40.2208L63.2425 48.4207C63.2425 50.741 61.3615 52.622 59.0412 52.622L23.3677 52.622C18.783 52.622 15.0664 48.9054 15.0664 44.3207Z" fill="black"/>
<circle cx="24.5208" cy="44.3208" r="3.90943" fill="#FE6E00"/>
<path d="M123.698 42.7416L123.698 51.7782L133.839 51.7782C136.55 51.7782 140.415 50.8745 140.415 47.5611C140.415 44.3983 136.55 42.7416 133.839 42.7416L123.698 42.7416ZM123.698 28.8354L123.698 36.9181L133.839 36.9181C138.005 36.9181 139.361 35.161 139.361 33.1528C139.361 31.5463 138.056 28.8354 133.839 28.8354L123.698 28.8354ZM133.839 22.811C140.767 22.811 145.938 25.9236 145.938 33.0022C145.938 35.7132 144.632 38.3237 141.369 39.7796C145.486 41.0347 146.992 45.4024 146.992 47.6113C146.992 55.443 141.118 57.9531 133.839 57.9531C128.266 57.9531 122.744 57.9531 117.171 57.9531L117.171 22.811C122.694 22.811 128.266 22.811 133.839 22.811ZM170.618 36.6168L170.819 33.203L176.693 33.203L176.693 57.9531L170.919 57.9531L170.618 54.3385C169.213 57.2503 165.347 58.656 162.586 58.7062C155.256 58.7564 149.834 54.2381 149.834 45.553C149.834 37.0185 155.507 32.5504 162.736 32.6006C166.05 32.6006 169.213 34.1569 170.618 36.6168ZM163.289 38.0727C159.222 38.0727 155.959 40.8339 155.959 45.553C155.959 50.2721 159.222 53.0834 163.289 53.0834C172.928 53.0834 172.928 38.0727 163.289 38.0727ZM181.88 22.8612L187.955 22.8612L187.955 57.9531L181.88 57.9531L181.88 22.8612ZM212.732 36.6168L212.933 33.203L218.806 33.203L218.806 57.9531L213.033 57.9531L212.732 54.3385C211.326 57.2503 207.461 58.656 204.699 58.7062C197.37 58.7564 191.948 54.2381 191.948 45.553C191.948 37.0185 197.621 32.5504 204.85 32.6006C208.163 32.6006 211.326 34.1569 212.732 36.6168ZM205.402 38.0727C201.336 38.0727 198.073 40.8339 198.073 45.553C198.073 50.2721 201.336 53.0834 205.402 53.0834C215.041 53.0834 215.041 38.0727 205.402 38.0727ZM248.342 57.9531L242.218 57.9531L242.218 45.0008C242.218 41.2355 240.159 38.374 236.243 38.374C232.478 38.374 229.918 41.5367 229.918 45.302L229.918 57.9531L223.843 57.9531L223.843 33.1528L229.315 33.1528L229.717 36.5164C232.227 34.0565 234.737 32.8014 237.85 32.8014C243.673 32.8014 248.342 37.1691 248.342 44.9505L248.342 57.9531ZM270.725 50.7741L274.842 54.7903C271.98 57.6017 268.968 58.7062 265.303 58.7062C258.124 58.7062 252.15 54.3887 252.15 45.6032C252.15 36.8177 258.124 32.5002 265.303 32.5002C268.817 32.5002 271.528 33.5043 274.239 36.165L270.374 40.2315C268.918 38.9262 267.11 38.2735 265.404 38.2735C261.287 38.2735 258.275 41.2857 258.275 45.6032C258.275 50.3223 261.488 52.8324 265.303 52.8324C267.261 52.8324 269.219 52.2802 270.725 50.7741ZM303.06 47.7619L283.732 47.7619C284.134 50.8243 286.795 53.0332 291.112 53.0332C293.371 53.0332 296.333 52.1798 297.739 50.7239L301.655 54.5895C299.044 57.3005 294.777 58.6058 291.012 58.6058C282.477 58.6058 277.407 53.3345 277.407 45.4024C277.407 37.8719 282.527 32.45 290.56 32.45C298.843 32.45 304.014 37.5707 303.06 47.7619ZM283.833 42.6914L297.187 42.6914C296.785 39.4784 294.275 37.8719 290.761 37.8719C287.447 37.8719 284.736 39.4784 283.833 42.6914Z" fill="#1D1D1D"/>
<defs>
<linearGradient id="paint0_linear_210_22231" x1="-2.38234e-06" y1="69.6722" x2="73.3038" y2="-5.529" gradientUnits="userSpaceOnUse">
<stop stop-color="#FF6D00"/>
<stop offset="1" stop-color="#FFA200"/>
</linearGradient>
</defs>
</svg>
