<svg width="239" height="116" viewBox="0 0 239 116" fill="none" xmlns="http://www.w3.org/2000/svg">
<path d="M13.0112 40.1813C13.5073 39.363 14.3948 38.8632 15.3517 38.8632L35.139 38.8632L20.9866 61.6436L-9.95765e-07 61.6436L13.0112 40.1813Z" fill="#2B7A0B"/>
<path d="M15.1116 38.8633C14.4493 38.8631 27.8432 38.8632 34.6325 38.8632C36.7449 38.8633 38.4555 40.5758 38.4555 42.6882L38.4555 99.3692L24.1445 99.3692C20.3431 99.3692 17.2704 96.2707 17.3022 92.4694L17.7215 42.4056C17.7215 42.4056 17.2076 38.8639 15.1116 38.8633Z" fill="#5BB318"/>
<path d="M78.9936 0.391848L103.114 0.391849L52.7408 90.0947C49.3605 96.1141 42.9993 99.8585 36.096 99.7851C29.0021 99.7097 21.3668 99.5289 22.5984 99.0974C25.9661 97.9177 31.0922 89.6442 31.0922 89.6442L78.9936 0.391848Z" fill="#7DCE13"/>
<path d="M79.5381 100.316C71.2176 100.316 65.853 95.8273 65.853 88.4373C65.853 79.8431 72.3124 72.5627 81.1255 72.5627C87.8586 72.5627 93.0041 76.9967 93.0041 84.3866C93.0041 85.9193 92.7304 87.7805 92.4567 88.6563L72.805 88.6563C72.805 88.7658 72.805 89.149 72.805 89.3132C72.805 91.5575 75.1589 94.7872 80.0307 94.7872C82.3298 94.7872 85.0668 94.0756 86.709 92.8165L88.8986 97.5789C86.3258 99.3306 82.8225 100.316 79.5381 100.316ZM73.5166 83.9486L86.7638 83.9486C86.7638 83.8392 86.7638 83.5107 86.7638 83.4012C86.7638 80.7737 84.9026 78.0915 80.6876 78.0915C76.9653 78.0915 74.1188 81.0474 73.5166 83.9486ZM102.022 99.6591L95.0697 99.6591L100.927 73.2196L107.879 73.2196L107.058 76.6682C109.412 74.1502 112.258 72.5627 116.473 72.5627L114.94 79.46C114.502 79.3505 113.517 79.1315 112.422 79.1315C109.85 79.1315 107.386 80.5548 105.854 82.3064L102.022 99.6591ZM125.141 70.3731C123.006 70.3731 121.419 68.7856 121.419 66.815C121.419 63.8043 123.992 62.1073 126.072 62.1073C128.261 62.1073 129.849 63.6948 129.849 65.6655C129.849 68.6762 127.276 70.3731 125.141 70.3731ZM121.747 99.6591L114.795 99.6591L120.653 73.2196L127.605 73.2196L121.747 99.6591ZM137.18 99.6591L130.228 99.6591L134.717 79.241L130.338 79.241L131.706 73.2196L136.031 73.2196L136.359 71.7416C137.509 66.7055 140.574 62.6 146.541 62.6C149.333 62.6 151.741 63.3664 153.493 65.1728L150.044 69.2236C149.278 68.4572 148.402 68.074 147.088 68.074C144.953 68.074 143.859 69.3878 143.311 71.8511L142.983 73.2196L148.402 73.2196L147.033 79.241L141.669 79.241L137.18 99.6591ZM143.429 109.731L145.728 103.71C146.33 103.984 147.425 104.148 148.41 104.148C149.833 104.148 150.764 103.655 151.695 102.287L153.337 99.8233L148.629 73.2196L155.855 73.2196L158.646 91.6123L169.704 73.2196L177.368 73.2196L158.099 103.984C155.198 108.691 152.242 110.388 147.863 110.388C146.33 110.388 144.688 110.169 143.429 109.731ZM189.339 100.316C181.019 100.316 175.654 95.8273 175.654 88.4373C175.654 79.8431 182.113 72.5627 190.926 72.5627C197.66 72.5627 202.805 76.9967 202.805 84.3866C202.805 85.9193 202.531 87.7805 202.258 88.6563L182.606 88.6563C182.606 88.7658 182.606 89.149 182.606 89.3132C182.606 91.5575 184.96 94.7872 189.832 94.7872C192.131 94.7872 194.868 94.0756 196.51 92.8165L198.7 97.5789C196.127 99.3306 192.623 100.316 189.339 100.316ZM183.318 83.9487L196.565 83.9487C196.565 83.8392 196.565 83.5107 196.565 83.4013C196.565 80.7737 194.704 78.0915 190.489 78.0915C186.766 78.0915 183.92 81.0474 183.318 83.9487ZM219.76 72.5627C223.263 72.5627 226.438 74.0954 228.19 76.723L231.146 63.1474L238.153 63.1474L230.051 99.6591L223.044 99.6591L223.811 96.3747C221.566 99.0022 219.048 100.316 215.873 100.316C209.852 100.316 205.801 96.3747 205.801 89.3679C205.801 81.3759 210.728 72.5627 219.76 72.5627ZM220.855 78.7483C216.311 78.7483 213.082 83.0728 213.082 87.9447C213.082 91.7217 215.6 94.1303 218.939 94.1303C221.402 94.1303 223.592 92.8166 225.015 91.0101L227.04 81.8138C225.891 80.0621 223.647 78.7483 220.855 78.7483Z" fill="#7DCE13"/>
</svg>
