<svg width="292" height="263" viewBox="0 0 292 263" fill="none" xmlns="http://www.w3.org/2000/svg">
<g filter="url(#filter0_f_237_605)">
<path d="M60.8797 56.1937L87.4562 29.0732C89.3371 27.1538 91.9113 26.0723 94.5986 26.0723L257.198 26.0723C262.721 26.0723 267.198 30.5494 267.198 36.0723V164.706C267.198 167.345 266.155 169.877 264.297 171.75L233.996 202.288L202.631 233.777C200.755 235.661 198.205 236.719 195.546 236.719H34.804C29.2812 236.719 24.8041 232.242 24.8041 226.72L24.8028 97.9228C24.8027 95.3475 25.7963 92.8715 27.5764 91.0105L60.8797 56.1937Z" fill="#FF5E01"/>
</g>
<path d="M94.5986 26.5723H257.198C262.445 26.5724 266.698 30.8256 266.698 36.0723V164.706C266.698 167.213 265.707 169.618 263.941 171.397L233.642 201.936L202.277 233.424C200.495 235.213 198.073 236.22 195.547 236.22H34.8037C29.5572 236.22 25.3038 231.966 25.3037 226.72L25.3027 97.9229C25.3027 95.4764 26.2466 93.1244 27.9375 91.3564L61.2363 56.543L61.2373 56.5439L87.8135 29.4229C89.6003 27.5996 92.0458 26.5723 94.5986 26.5723Z" fill="#FF5100" stroke="white"/>
<g filter="url(#filter1_f_237_605)">
<path d="M69.6287 63.9229L93.1713 39.8984C95.0522 37.979 97.6264 36.8975 100.314 36.8975L244.741 36.8975C250.264 36.8975 254.741 41.3746 254.741 46.8975V160.859C254.741 163.498 253.698 166.029 251.84 167.902L224.952 195.001L197.112 222.951C195.236 224.835 192.686 225.894 190.027 225.894H47.261C41.7381 225.894 37.261 221.417 37.2609 215.894L37.2598 101.775C37.2598 99.2002 38.2533 96.7241 40.0334 94.8631L69.6287 63.9229Z" fill="#FF833B"/>
</g>
<g filter="url(#filter2_d_237_605)">
<path d="M69.6287 63.9229L93.1713 39.8984C95.0522 37.979 97.6264 36.8975 100.314 36.8975L244.741 36.8975C250.264 36.8975 254.741 41.3746 254.741 46.8975V160.859C254.741 163.498 253.698 166.029 251.84 167.902L224.952 195.001L197.112 222.951C195.236 224.835 192.686 225.894 190.027 225.894H47.261C41.7381 225.894 37.261 221.417 37.2609 215.894L37.2598 101.775C37.2598 99.2002 38.2533 96.7241 40.0334 94.8631L69.6287 63.9229Z" fill="#FF5100"/>
<path d="M100.313 37.3975H244.741C249.988 37.3976 254.241 41.6508 254.241 46.8975V160.859C254.241 163.366 253.25 165.77 251.484 167.55L224.598 194.648L196.758 222.598C194.975 224.387 192.553 225.393 190.027 225.394H47.2607C42.0142 225.393 37.7608 221.14 37.7607 215.894L37.7598 101.775C37.7598 99.329 38.7036 96.9769 40.3945 95.209L69.9902 64.2686L69.9893 64.2676L93.5283 40.248C95.3151 38.4248 97.7607 37.3975 100.313 37.3975Z" stroke="white"/>
</g>
<g clip-path="url(#clip0_237_605)">
<path d="M178.347 103.18L146.909 93.4386C146.29 93.2447 145.692 93.2447 145.086 93.4371L113.636 103.18C112.344 103.583 111.477 104.762 111.477 106.116V111.459C111.477 123.479 111.477 137.102 117.399 148.573C120.301 154.195 124.123 158.66 129.085 162.225C133.119 165.122 138.011 167.536 144.952 170.055C145.298 170.178 145.645 170.24 145.994 170.24C146.344 170.24 146.693 170.176 147.04 170.052C153.975 167.537 158.866 165.125 162.898 162.231C167.862 158.668 171.686 154.2 174.591 148.573C180.511 137.108 180.511 123.482 180.511 111.459V106.116C180.509 104.761 179.641 103.58 178.347 103.18ZM178.106 111.458C178.106 123.207 178.106 136.525 172.456 147.47C166.739 158.545 158.179 163.456 146.222 167.79C146.057 167.849 145.928 167.849 145.765 167.791C133.807 163.453 125.247 158.54 119.533 147.47C113.878 136.516 113.878 123.204 113.878 111.458V106.116C113.878 105.811 114.058 105.565 114.348 105.475L145.804 95.7289C145.874 95.7063 145.932 95.6958 145.992 95.6958C146.054 95.6958 146.117 95.7078 146.192 95.7319L177.635 105.475C177.929 105.566 178.105 105.807 178.105 106.116V111.458H178.106ZM170.547 110.311L146.35 102.809C146.118 102.737 145.871 102.737 145.639 102.809L121.442 110.311C120.938 110.467 120.596 110.932 120.596 111.458C120.596 123.063 120.839 132.587 123.896 140.76C125.606 145.33 128.06 149.099 131.401 152.284C135.061 155.773 139.701 158.493 145.589 160.599C145.72 160.645 145.857 160.67 145.994 160.67C146.131 160.67 146.267 160.645 146.398 160.599C152.285 158.493 156.925 155.773 160.585 152.284C163.924 149.099 166.38 145.33 168.09 140.76C171.148 132.586 171.392 123.061 171.392 111.458C171.393 110.932 171.051 110.466 170.547 110.311ZM145.994 158.19C123.329 149.881 123.003 132.511 122.999 112.343L145.994 105.213L168.989 112.343C168.986 132.511 168.66 149.879 145.994 158.19ZM139.066 115.397C137.21 117.253 136.188 119.711 136.188 122.322V125.61H134.79C133.131 125.61 131.783 126.959 131.783 128.617V143.208C131.783 144.867 133.132 146.215 134.79 146.215H157.193C158.854 146.215 160.205 144.866 160.205 143.208V128.617C160.205 126.958 158.854 125.61 157.193 125.61H155.795V122.322C155.795 119.713 154.773 117.254 152.917 115.397C151.061 113.541 148.603 112.519 145.994 112.519C143.382 112.519 140.922 113.541 139.066 115.397ZM157.803 128.617V143.208C157.803 143.536 157.524 143.812 157.194 143.812H134.79C134.462 143.812 134.186 143.536 134.186 143.208V128.617C134.186 128.289 134.462 128.013 134.79 128.013H157.193C157.524 128.013 157.803 128.289 157.803 128.617ZM150.616 125.61H141.368V122.322C141.368 121.095 141.85 119.938 142.728 119.06C143.606 118.183 144.766 117.7 145.994 117.7C147.22 117.7 148.377 118.183 149.255 119.06C150.133 119.938 150.615 121.095 150.615 122.322V125.61H150.616ZM153.394 122.322V125.61H153.02V122.322C153.02 120.454 152.286 118.692 150.955 117.361C149.623 116.029 147.862 115.296 145.994 115.296C144.123 115.296 142.36 116.029 141.028 117.361C139.697 118.692 138.963 120.454 138.963 122.322V125.61H138.589V122.322C138.589 120.354 139.362 118.498 140.764 117.096C142.166 115.694 144.024 114.922 145.994 114.922C147.961 114.922 149.817 115.694 151.219 117.096C152.621 118.498 153.394 120.354 153.394 122.322ZM141.874 139.221C141.874 139.885 141.336 140.422 140.674 140.422H136.627C136.604 140.422 136.581 140.42 136.557 140.419C136.53 140.42 136.505 140.422 136.478 140.422C136.14 140.422 135.805 140.281 135.567 140.004C135.134 139.501 135.191 138.743 135.695 138.31C136.784 137.373 137.875 136.43 138.965 135.488L139.168 135.312C139.363 135.144 139.471 134.933 139.471 134.719C139.471 134.504 139.368 134.301 139.172 134.134C138.663 133.692 137.772 133.694 137.262 134.132C136.76 134.565 136.001 134.51 135.569 134.008C135.136 133.506 135.191 132.747 135.693 132.314C137.11 131.092 139.327 131.092 140.74 132.315C141.458 132.932 141.873 133.808 141.873 134.717C141.874 135.628 141.46 136.508 140.737 137.132L140.534 137.306C140.259 137.544 139.982 137.781 139.707 138.019H140.672C141.336 138.019 141.874 138.557 141.874 139.221ZM148.772 135.676C148.772 136.34 148.234 136.877 147.572 136.877H145.238V139.22C145.238 139.884 144.7 140.42 144.037 140.42C143.374 140.42 142.836 139.882 142.836 139.22V132.604C142.836 131.94 143.374 131.403 144.037 131.403H147.573C148.237 131.403 148.774 131.941 148.774 132.604C148.774 133.267 148.236 133.805 147.573 133.805H145.239V134.474H147.573C148.234 134.475 148.772 135.013 148.772 135.676ZM152.639 131.403C152.16 131.403 151.727 131.687 151.536 132.128L148.673 138.743C148.41 139.352 148.69 140.06 149.298 140.323C149.907 140.587 150.615 140.306 150.878 139.697L151.17 139.024C151.284 139.06 151.405 139.08 151.53 139.08H153.899C153.977 139.08 154.052 139.072 154.126 139.057L154.404 139.697C154.601 140.151 155.042 140.422 155.507 140.422C155.666 140.422 155.828 140.39 155.983 140.323C156.592 140.058 156.871 139.352 156.608 138.743L153.741 132.128C153.552 131.687 153.119 131.403 152.639 131.403ZM152.187 136.677L152.641 135.628L153.096 136.677H152.187Z" fill="white"/>
</g>
<defs>
<filter id="filter0_f_237_605" x="16.8027" y="18.0723" width="258.396" height="226.647" filterUnits="userSpaceOnUse" color-interpolation-filters="sRGB">
<feFlood flood-opacity="0" result="BackgroundImageFix"/>
<feBlend mode="normal" in="SourceGraphic" in2="BackgroundImageFix" result="shape"/>
<feGaussianBlur stdDeviation="4" result="effect1_foregroundBlur_237_605"/>
</filter>
<filter id="filter1_f_237_605" x="0.359764" y="-0.00254059" width="291.281" height="262.796" filterUnits="userSpaceOnUse" color-interpolation-filters="sRGB">
<feFlood flood-opacity="0" result="BackgroundImageFix"/>
<feBlend mode="normal" in="SourceGraphic" in2="BackgroundImageFix" result="shape"/>
<feGaussianBlur stdDeviation="18.45" result="effect1_foregroundBlur_237_605"/>
</filter>
<filter id="filter2_d_237_605" x="11.5598" y="12.1975" width="274.881" height="246.396" filterUnits="userSpaceOnUse" color-interpolation-filters="sRGB">
<feFlood flood-opacity="0" result="BackgroundImageFix"/>
<feColorMatrix in="SourceAlpha" type="matrix" values="0 0 0 0 0 0 0 0 0 0 0 0 0 0 0 0 0 0 127 0" result="hardAlpha"/>
<feOffset dx="3" dy="4"/>
<feGaussianBlur stdDeviation="14.35"/>
<feComposite in2="hardAlpha" operator="out"/>
<feColorMatrix type="matrix" values="0 0 0 0 1 0 0 0 0 1 0 0 0 0 1 0 0 0 0.25 0"/>
<feBlend mode="normal" in2="BackgroundImageFix" result="effect1_dropShadow_237_605"/>
<feBlend mode="normal" in="SourceGraphic" in2="effect1_dropShadow_237_605" result="shape"/>
</filter>
<clipPath id="clip0_237_605">
<rect width="76.9453" height="76.9453" fill="white" transform="translate(107.521 93.293)"/>
</clipPath>
</defs>
</svg>
