<svg width="292" height="264" viewBox="0 0 292 264" fill="none" xmlns="http://www.w3.org/2000/svg">
<g filter="url(#filter0_f_237_560)">
<path d="M60.8797 57.1214L87.4562 30.0009C89.3371 28.0816 91.9113 27 94.5986 27L257.198 27C262.721 27 267.198 31.4772 267.198 37V165.634C267.198 168.273 266.155 170.804 264.297 172.677L233.996 203.216L202.631 234.704C200.755 236.588 198.205 237.647 195.546 237.647H34.804C29.2812 237.647 24.8041 233.17 24.8041 227.647L24.8028 98.8506C24.8027 96.2753 25.7963 93.7992 27.5764 91.9382L60.8797 57.1214Z" fill="#FF5E01"/>
</g>
<path d="M94.5986 27.5H257.198C262.445 27.5001 266.698 31.7534 266.698 37V165.634C266.698 168.14 265.707 170.546 263.941 172.325L233.642 202.863L202.277 234.352C200.495 236.141 198.073 237.147 195.547 237.147H34.8037C29.5572 237.147 25.3038 232.894 25.3037 227.647L25.3027 98.8506C25.3027 96.4042 26.2466 94.0521 27.9375 92.2842L61.2363 57.4707L61.2373 57.4717L87.8135 30.3506C89.6003 28.5273 92.0458 27.5 94.5986 27.5Z" fill="#FF5100" stroke="white"/>
<g filter="url(#filter1_f_237_560)">
<path d="M69.6287 64.8507L93.1713 40.8261C95.0522 38.9068 97.6264 37.8252 100.314 37.8252L244.741 37.8252C250.264 37.8252 254.741 42.3024 254.741 47.8252V161.787C254.741 164.425 253.698 166.957 251.84 168.83L224.952 195.929L197.112 223.879C195.236 225.763 192.686 226.822 190.027 226.822H47.261C41.7381 226.822 37.261 222.344 37.2609 216.822L37.2598 102.703C37.2598 100.128 38.2533 97.6519 40.0334 95.7908L69.6287 64.8507Z" fill="#FF833B"/>
</g>
<g filter="url(#filter2_d_237_560)">
<path d="M69.6287 64.8507L93.1713 40.8261C95.0522 38.9068 97.6264 37.8252 100.314 37.8252L244.741 37.8252C250.264 37.8252 254.741 42.3024 254.741 47.8252V161.787C254.741 164.425 253.698 166.957 251.84 168.83L224.952 195.929L197.112 223.879C195.236 225.763 192.686 226.822 190.027 226.822H47.261C41.7381 226.822 37.261 222.344 37.2609 216.822L37.2598 102.703C37.2598 100.128 38.2533 97.6519 40.0334 95.7908L69.6287 64.8507Z" fill="#FF5100"/>
<path d="M100.313 38.3252H244.741C249.988 38.3253 254.241 42.5786 254.241 47.8252V161.787C254.241 164.294 253.25 166.698 251.484 168.478L224.598 195.576L196.758 223.525C194.975 225.315 192.553 226.321 190.027 226.321H47.2607C42.0142 226.321 37.7608 222.068 37.7607 216.821L37.7598 102.703C37.7598 100.257 38.7036 97.9046 40.3945 96.1367L69.9902 65.1963L69.9893 65.1953L93.5283 41.1758C95.3151 39.3525 97.7607 38.3252 100.313 38.3252Z" stroke="white"/>
</g>
<path d="M128.801 138.227H163.197C163.51 138.227 163.81 138.103 164.031 137.882C164.253 137.66 164.377 137.36 164.377 137.047V120.524C164.377 120.211 164.253 119.911 164.031 119.689C163.81 119.468 163.51 119.344 163.197 119.344H128.801C128.488 119.344 128.188 119.468 127.967 119.689C127.745 119.911 127.621 120.211 127.621 120.524V137.047C127.621 137.36 127.745 137.66 127.967 137.882C128.188 138.103 128.488 138.227 128.801 138.227ZM129.982 121.704H162.016V135.867H129.982V121.704Z" fill="white"/>
<path d="M151.311 146.147H149.288C148.975 146.147 148.674 146.272 148.453 146.493C148.232 146.714 148.107 147.015 148.107 147.328C148.107 147.641 148.232 147.941 148.453 148.162C148.674 148.384 148.975 148.508 149.288 148.508H151.311C151.624 148.508 151.924 148.384 152.145 148.162C152.367 147.941 152.491 147.641 152.491 147.328C152.491 147.015 152.367 146.714 152.145 146.493C151.924 146.272 151.624 146.147 151.311 146.147Z" fill="white"/>
<path d="M157.262 146.152H155.239C154.926 146.152 154.626 146.277 154.404 146.498C154.183 146.719 154.059 147.02 154.059 147.333C154.059 147.646 154.183 147.946 154.404 148.167C154.626 148.388 154.926 148.513 155.239 148.513H157.262C157.575 148.513 157.875 148.388 158.097 148.167C158.318 147.946 158.442 147.646 158.442 147.333C158.442 147.02 158.318 146.719 158.097 146.498C157.875 146.277 157.575 146.152 157.262 146.152Z" fill="white"/>
<path d="M163.194 146.147H161.17C160.857 146.147 160.557 146.272 160.336 146.493C160.115 146.714 159.99 147.015 159.99 147.328C159.99 147.641 160.115 147.941 160.336 148.162C160.557 148.384 160.857 148.508 161.17 148.508H163.194C163.507 148.508 163.807 148.384 164.028 148.162C164.25 147.941 164.374 147.641 164.374 147.328C164.374 147.015 164.25 146.714 164.028 146.493C163.807 146.272 163.507 146.147 163.194 146.147Z" fill="white"/>
<path d="M151.311 149.859H149.288C148.975 149.859 148.674 149.984 148.453 150.205C148.232 150.426 148.107 150.727 148.107 151.04C148.107 151.353 148.232 151.653 148.453 151.874C148.674 152.095 148.975 152.22 149.288 152.22H151.311C151.624 152.22 151.924 152.095 152.145 151.874C152.367 151.653 152.491 151.353 152.491 151.04C152.491 150.727 152.367 150.426 152.145 150.205C151.924 149.984 151.624 149.859 151.311 149.859Z" fill="white"/>
<path d="M157.262 149.859H155.239C154.926 149.859 154.626 149.984 154.404 150.205C154.183 150.426 154.059 150.727 154.059 151.04C154.059 151.353 154.183 151.653 154.404 151.874C154.626 152.095 154.926 152.22 155.239 152.22H157.262C157.575 152.22 157.875 152.095 158.097 151.874C158.318 151.653 158.442 151.353 158.442 151.04C158.442 150.727 158.318 150.426 158.097 150.205C157.875 149.984 157.575 149.859 157.262 149.859Z" fill="white"/>
<path d="M163.194 149.859H161.17C160.857 149.859 160.557 149.984 160.336 150.205C160.115 150.426 159.99 150.727 159.99 151.04C159.99 151.353 160.115 151.653 160.336 151.874C160.557 152.095 160.857 152.22 161.17 152.22H163.194C163.507 152.22 163.807 152.095 164.028 151.874C164.25 151.653 164.374 151.353 164.374 151.04C164.374 150.727 164.25 150.426 164.028 150.205C163.807 149.984 163.507 149.859 163.194 149.859Z" fill="white"/>
<path d="M151.311 153.566H149.288C148.975 153.566 148.674 153.691 148.453 153.912C148.232 154.133 148.107 154.434 148.107 154.747C148.107 155.06 148.232 155.36 148.453 155.581C148.674 155.803 148.975 155.927 149.288 155.927H151.311C151.624 155.927 151.924 155.803 152.145 155.581C152.367 155.36 152.491 155.06 152.491 154.747C152.491 154.434 152.367 154.133 152.145 153.912C151.924 153.691 151.624 153.566 151.311 153.566Z" fill="white"/>
<path d="M157.262 153.566H155.239C154.926 153.566 154.626 153.691 154.404 153.912C154.183 154.133 154.059 154.434 154.059 154.747C154.059 155.06 154.183 155.36 154.404 155.581C154.626 155.803 154.926 155.927 155.239 155.927H157.262C157.575 155.927 157.875 155.803 158.097 155.581C158.318 155.36 158.442 155.06 158.442 154.747C158.442 154.434 158.318 154.133 158.097 153.912C157.875 153.691 157.575 153.566 157.262 153.566Z" fill="white"/>
<path d="M163.194 153.566H161.17C160.857 153.566 160.557 153.691 160.336 153.912C160.115 154.133 159.99 154.434 159.99 154.747C159.99 155.06 160.115 155.36 160.336 155.581C160.557 155.803 160.857 155.927 161.17 155.927H163.194C163.507 155.927 163.807 155.803 164.028 155.581C164.25 155.36 164.374 155.06 164.374 154.747C164.374 154.434 164.25 154.133 164.028 153.912C163.807 153.691 163.507 153.566 163.194 153.566Z" fill="white"/>
<path d="M172.847 92.3643H119.153C118.84 92.3643 118.54 92.4886 118.318 92.7099C118.097 92.9313 117.973 93.2315 117.973 93.5445V114.451C117.973 114.764 118.097 115.065 118.318 115.286C118.54 115.507 118.84 115.632 119.153 115.632H121.552V171.103C121.552 171.416 121.677 171.716 121.898 171.937C122.119 172.158 122.42 172.283 122.733 172.283H169.268C169.581 172.283 169.881 172.158 170.102 171.937C170.323 171.716 170.448 171.416 170.448 171.103V115.632H172.847C173.16 115.632 173.461 115.507 173.682 115.286C173.903 115.065 174.028 114.764 174.028 114.451V93.5445C174.028 93.2315 173.903 92.9313 173.682 92.7099C173.461 92.4886 173.16 92.3643 172.847 92.3643ZM168.087 169.922H123.913V115.632H168.087V169.922ZM171.667 113.271H120.333V94.7247H171.667V113.271Z" fill="white"/>
<path d="M133.065 106.088H137.545L138.246 107.761H140.108L136.236 98.4951H134.36L130.488 107.764H132.364L133.065 106.088ZM135.305 100.731L136.937 104.63H133.672L135.305 100.731Z" fill="white"/>
<path d="M143.652 107.764H145.324V100.033H148.292V98.4951H140.684V100.033H143.652V107.764Z" fill="white"/>
<path d="M152.214 101.57L155.263 107.223L158.326 101.57V107.764H159.999V98.4951H158.326L155.263 104.148L152.214 98.4951H150.527V107.764H152.214V101.57Z" fill="white"/>
<path d="M142.29 146.152H128.801C128.488 146.152 128.188 146.277 127.967 146.498C127.745 146.719 127.621 147.02 127.621 147.333C127.621 147.646 127.745 147.946 127.967 148.167C128.188 148.388 128.488 148.513 128.801 148.513H142.29C142.603 148.513 142.903 148.388 143.124 148.167C143.346 147.946 143.47 147.646 143.47 147.333C143.47 147.02 143.346 146.719 143.124 146.498C142.903 146.277 142.603 146.152 142.29 146.152Z" fill="white"/>
<defs>
<filter id="filter0_f_237_560" x="16.8027" y="19" width="258.396" height="226.647" filterUnits="userSpaceOnUse" color-interpolation-filters="sRGB">
<feFlood flood-opacity="0" result="BackgroundImageFix"/>
<feBlend mode="normal" in="SourceGraphic" in2="BackgroundImageFix" result="shape"/>
<feGaussianBlur stdDeviation="4" result="effect1_foregroundBlur_237_560"/>
</filter>
<filter id="filter1_f_237_560" x="0.359764" y="0.925194" width="291.281" height="262.796" filterUnits="userSpaceOnUse" color-interpolation-filters="sRGB">
<feFlood flood-opacity="0" result="BackgroundImageFix"/>
<feBlend mode="normal" in="SourceGraphic" in2="BackgroundImageFix" result="shape"/>
<feGaussianBlur stdDeviation="18.45" result="effect1_foregroundBlur_237_560"/>
</filter>
<filter id="filter2_d_237_560" x="11.5598" y="13.1252" width="274.881" height="246.396" filterUnits="userSpaceOnUse" color-interpolation-filters="sRGB">
<feFlood flood-opacity="0" result="BackgroundImageFix"/>
<feColorMatrix in="SourceAlpha" type="matrix" values="0 0 0 0 0 0 0 0 0 0 0 0 0 0 0 0 0 0 127 0" result="hardAlpha"/>
<feOffset dx="3" dy="4"/>
<feGaussianBlur stdDeviation="14.35"/>
<feComposite in2="hardAlpha" operator="out"/>
<feColorMatrix type="matrix" values="0 0 0 0 1 0 0 0 0 1 0 0 0 0 1 0 0 0 0.25 0"/>
<feBlend mode="normal" in2="BackgroundImageFix" result="effect1_dropShadow_237_560"/>
<feBlend mode="normal" in="SourceGraphic" in2="effect1_dropShadow_237_560" result="shape"/>
</filter>
</defs>
</svg>
