<svg width="1740" height="164" viewBox="0 0 1740 164" fill="none" xmlns="http://www.w3.org/2000/svg">
<line x1="166.282" y1="75.209" x2="327.488" y2="75.209" stroke="white"/>
<line x1="477.812" y1="75.209" x2="639.019" y2="75.209" stroke="white"/>
<line x1="789.343" y1="75.209" x2="950.549" y2="75.209" stroke="white"/>
<line x1="1100.87" y1="75.209" x2="1262.08" y2="75.209" stroke="white"/>
<line x1="1412.4" y1="75.209" x2="1573.61" y2="75.209" stroke="white"/>
<g filter="url(#filter0_f_240_780)">
<path d="M38.1562 35.3015L54.6605 18.4593C55.8286 17.2674 57.4272 16.5957 59.096 16.5957L160.072 16.5957C163.502 16.5957 166.282 19.3761 166.282 22.8058V102.689C166.282 104.328 165.635 105.9 164.481 107.063L145.664 126.028L126.186 145.583C125.02 146.753 123.437 147.41 121.786 147.41H21.9629C18.5332 147.41 15.7528 144.63 15.7528 141.2L15.752 61.2158C15.752 59.6165 16.369 58.0788 17.4744 56.9231L38.1562 35.3015Z" fill="#FF5E01"/>
</g>
<path d="M59.0957 16.9062H160.072C163.33 16.9063 165.972 19.5475 165.972 22.8057V102.689C165.972 104.246 165.356 105.74 164.26 106.845L145.443 125.809L125.966 145.363C124.859 146.475 123.355 147.1 121.786 147.1H21.9629C18.7047 147.1 16.0635 144.458 16.0635 141.2L16.0625 61.2158C16.0625 59.6965 16.649 58.2356 17.6992 57.1377L38.3799 35.5156L54.8818 18.6768C55.9914 17.5445 57.5104 16.9063 59.0957 16.9062Z" fill="#FF5100" stroke="white" stroke-width="0.621012"/>
<g filter="url(#filter1_f_240_780)">
<path d="M43.5893 40.1015L58.2095 25.182C59.3776 23.99 60.9762 23.3184 62.645 23.3184L152.336 23.3184C155.766 23.3184 158.546 26.0987 158.546 29.5285V100.3C158.546 101.939 157.899 103.511 156.745 104.674L140.047 121.503L122.758 138.86C121.593 140.03 120.009 140.687 118.358 140.687H29.6986C26.2689 140.687 23.4886 137.907 23.4885 134.477L23.4878 63.6084C23.4878 62.0091 24.1048 60.4714 25.2103 59.3157L43.5893 40.1015Z" fill="#FF833B"/>
</g>
<g filter="url(#filter2_d_240_780)">
<path d="M43.5893 40.1015L58.2095 25.182C59.3776 23.99 60.9762 23.3184 62.645 23.3184L152.336 23.3184C155.766 23.3184 158.546 26.0987 158.546 29.5285V100.3C158.546 101.939 157.899 103.511 156.745 104.674L140.047 121.503L122.758 138.86C121.593 140.03 120.009 140.687 118.358 140.687H29.6986C26.2689 140.687 23.4886 137.907 23.4885 134.477L23.4878 63.6084C23.4878 62.0091 24.1048 60.4714 25.2103 59.3157L43.5893 40.1015Z" fill="#FF5100"/>
<path d="M62.645 23.6289H152.336C155.595 23.629 158.236 26.2702 158.236 29.5283V100.3C158.236 101.856 157.62 103.35 156.524 104.455L139.827 121.284L122.538 138.641C121.431 139.752 119.927 140.377 118.358 140.377H29.6987C26.4406 140.377 23.7995 137.736 23.7993 134.478L23.7983 63.6084C23.7983 62.0891 24.3849 60.6282 25.4351 59.5303L43.813 40.3154L58.4312 25.3994C59.5408 24.2671 61.0596 23.6289 62.645 23.6289Z" stroke="white" stroke-width="0.621012"/>
</g>
<path d="M68.7245 66.2039H71.7345C72.6585 66.2039 73.4938 66.3952 74.2405 66.7779C74.9871 67.1512 75.5798 67.7112 76.0185 68.4579C76.4571 69.1952 76.6765 70.0772 76.6765 71.1039C76.6765 72.1306 76.4571 73.0172 76.0185 73.7639C75.5798 74.5012 74.9871 75.0612 74.2405 75.4439C73.4938 75.8172 72.6585 76.0039 71.7345 76.0039H68.7245V66.2039ZM71.6505 74.7159C72.2945 74.7159 72.8825 74.5899 73.4145 74.3379C73.9465 74.0859 74.3711 73.6892 74.6885 73.1479C75.0151 72.6066 75.1785 71.9252 75.1785 71.1039C75.1785 70.2826 75.0151 69.6012 74.6885 69.0599C74.3711 68.5186 73.9465 68.1219 73.4145 67.8699C72.8825 67.6179 72.2945 67.4919 71.6505 67.4919H70.1805V74.7159H71.6505ZM78.7835 68.9479H80.1415V76.0039H78.7835V68.9479ZM80.2115 65.9939V67.7019H78.6995V65.9939H80.2115ZM83.1694 77.7259H86.4314C86.8421 77.7259 87.1781 77.5906 87.4394 77.3199C87.7007 77.0492 87.8314 76.6946 87.8314 76.2559V75.1079C87.6541 75.4066 87.3554 75.6492 86.9354 75.8359C86.5247 76.0226 86.0627 76.1159 85.5494 76.1159C84.8587 76.1159 84.2614 75.9619 83.7574 75.6539C83.2627 75.3366 82.8847 74.9026 82.6234 74.3519C82.3621 73.8012 82.2314 73.1759 82.2314 72.4759C82.2314 71.7759 82.3621 71.1506 82.6234 70.5999C82.8847 70.0492 83.2674 69.6199 83.7714 69.3119C84.2754 68.9946 84.8727 68.8359 85.5634 68.8359C86.0207 68.8359 86.4547 68.9339 86.8654 69.1299C87.2854 69.3259 87.6074 69.5779 87.8314 69.8859V68.9479H89.1894V76.3399C89.1894 76.8439 89.0821 77.2826 88.8674 77.6559C88.6527 78.0386 88.3447 78.3326 87.9434 78.5379C87.5514 78.7526 87.0941 78.8599 86.5714 78.8599H83.1694V77.7259ZM85.7734 74.9259C86.2027 74.9259 86.5807 74.8232 86.9074 74.6179C87.2341 74.4126 87.4861 74.1279 87.6634 73.7639C87.8407 73.3906 87.9294 72.9612 87.9294 72.4759C87.9294 71.7386 87.7334 71.1459 87.3414 70.6979C86.9494 70.2499 86.4267 70.0259 85.7734 70.0259C85.3347 70.0259 84.9521 70.1286 84.6254 70.3339C84.3081 70.5392 84.0561 70.8286 83.8694 71.2019C83.6921 71.5659 83.6034 71.9906 83.6034 72.4759C83.6034 73.2132 83.7994 73.8059 84.1914 74.2539C84.5834 74.7019 85.1107 74.9259 85.7734 74.9259ZM91.7296 68.9479H93.0876V76.0039H91.7296V68.9479ZM93.1576 65.9939V67.7019H91.6456V65.9939H93.1576ZM98.5796 76.0039C98.1036 76.0039 97.6882 75.9106 97.3336 75.7239C96.9789 75.5372 96.7036 75.2712 96.5076 74.9259C96.3209 74.5806 96.2276 74.1699 96.2276 73.6939V70.1239H94.7856V68.9479H96.2276V66.7359H97.5856V68.9479H99.6716V70.1239H97.5856V73.6519C97.5856 74.0252 97.6789 74.3146 97.8656 74.5199C98.0616 74.7252 98.3322 74.8279 98.6776 74.8279H99.6716V76.0039H98.5796ZM103.644 76.1159C103.168 76.1159 102.748 76.0272 102.384 75.8499C102.02 75.6726 101.736 75.4252 101.53 75.1079C101.334 74.7812 101.236 74.4079 101.236 73.9879C101.236 73.5399 101.348 73.1479 101.572 72.8119C101.806 72.4666 102.128 72.2006 102.538 72.0139C102.958 71.8272 103.439 71.7339 103.98 71.7339H105.464C105.623 71.7339 105.74 71.7059 105.814 71.6499C105.898 71.5846 105.94 71.4912 105.94 71.3699C105.94 70.9406 105.786 70.5952 105.478 70.3339C105.18 70.0632 104.764 69.9279 104.232 69.9279C103.906 69.9279 103.612 69.9886 103.35 70.1099C103.098 70.2312 102.898 70.3946 102.748 70.5999C102.599 70.7959 102.515 71.0152 102.496 71.2579H101.236C101.274 70.8006 101.428 70.3899 101.698 70.0259C101.969 69.6526 102.328 69.3632 102.776 69.1579C103.224 68.9432 103.724 68.8359 104.274 68.8359C104.872 68.8359 105.399 68.9479 105.856 69.1719C106.314 69.3866 106.664 69.6899 106.906 70.0819C107.158 70.4739 107.284 70.9312 107.284 71.4539V76.0039H105.94V74.8419L105.87 74.9819C105.74 75.2059 105.562 75.4066 105.338 75.5839C105.114 75.7519 104.858 75.8826 104.568 75.9759C104.279 76.0692 103.971 76.1159 103.644 76.1159ZM103.91 75.0379C104.545 75.0379 105.04 74.8466 105.394 74.4639C105.758 74.0812 105.94 73.5632 105.94 72.9099V72.7839H104.12C103.654 72.7839 103.28 72.8912 103 73.1059C102.73 73.3112 102.594 73.5959 102.594 73.9599C102.594 74.2866 102.711 74.5479 102.944 74.7439C103.187 74.9399 103.509 75.0379 103.91 75.0379ZM109.734 65.9939H111.092V76.0039H109.734V65.9939ZM63.2614 88.2039H64.6054L68.4554 98.0039H66.9434L63.9334 90.0239L60.9234 98.0039H59.4114L63.2614 88.2039ZM61.5954 94.2379H66.2714L66.4814 95.5119H61.3854L61.5954 94.2379ZM72.9002 98.1159C72.1816 98.1159 71.5562 97.9526 71.0242 97.6259C70.5016 97.2899 70.1002 96.8466 69.8202 96.2959C69.5496 95.7359 69.4142 95.1292 69.4142 94.4759C69.4142 93.8226 69.5496 93.2206 69.8202 92.6699C70.1002 92.1099 70.5016 91.6666 71.0242 91.3399C71.5562 91.0039 72.1816 90.8359 72.9002 90.8359C73.4509 90.8359 73.9642 90.9432 74.4402 91.1579C74.9256 91.3632 75.3222 91.6619 75.6302 92.0539C75.9382 92.4366 76.1202 92.8892 76.1762 93.4119H74.8182C74.7529 93.0106 74.5382 92.6792 74.1742 92.4179C73.8196 92.1566 73.4042 92.0259 72.9282 92.0259C72.4709 92.0259 72.0836 92.1332 71.7662 92.3479C71.4582 92.5626 71.2249 92.8566 71.0662 93.2299C70.9076 93.6032 70.8282 94.0186 70.8282 94.4759C70.8282 95.1852 71.0102 95.7732 71.3742 96.2399C71.7382 96.6972 72.2609 96.9259 72.9422 96.9259C73.4182 96.9259 73.8242 96.8092 74.1602 96.5759C74.4962 96.3426 74.7202 96.0252 74.8322 95.6239H76.1762C76.1016 96.1186 75.9196 96.5526 75.6302 96.9259C75.3409 97.2992 74.9629 97.5932 74.4962 97.8079C74.0296 98.0132 73.4976 98.1159 72.9002 98.1159ZM81.2395 98.1159C80.5209 98.1159 79.8955 97.9526 79.3635 97.6259C78.8409 97.2899 78.4395 96.8466 78.1595 96.2959C77.8889 95.7359 77.7535 95.1292 77.7535 94.4759C77.7535 93.8226 77.8889 93.2206 78.1595 92.6699C78.4395 92.1099 78.8409 91.6666 79.3635 91.3399C79.8955 91.0039 80.5209 90.8359 81.2395 90.8359C81.7902 90.8359 82.3035 90.9432 82.7795 91.1579C83.2649 91.3632 83.6615 91.6619 83.9695 92.0539C84.2775 92.4366 84.4595 92.8892 84.5155 93.4119H83.1575C83.0922 93.0106 82.8775 92.6792 82.5135 92.4179C82.1589 92.1566 81.7435 92.0259 81.2675 92.0259C80.8102 92.0259 80.4229 92.1332 80.1055 92.3479C79.7975 92.5626 79.5642 92.8566 79.4055 93.2299C79.2469 93.6032 79.1675 94.0186 79.1675 94.4759C79.1675 95.1852 79.3495 95.7732 79.7135 96.2399C80.0775 96.6972 80.6002 96.9259 81.2815 96.9259C81.7575 96.9259 82.1635 96.8092 82.4995 96.5759C82.8355 96.3426 83.0595 96.0252 83.1715 95.6239H84.5155C84.4409 96.1186 84.2589 96.5526 83.9695 96.9259C83.6802 97.2992 83.3022 97.5932 82.8355 97.8079C82.3689 98.0132 81.8369 98.1159 81.2395 98.1159ZM89.7188 98.1159C89.0188 98.1159 88.3935 97.9619 87.8428 97.6539C87.2922 97.3366 86.8582 96.9026 86.5408 96.3519C86.2328 95.8012 86.0788 95.1759 86.0788 94.4759C86.0788 93.7759 86.2328 93.1506 86.5408 92.5999C86.8582 92.0492 87.2922 91.6199 87.8428 91.3119C88.3935 90.9946 89.0188 90.8359 89.7188 90.8359C90.4095 90.8359 91.0302 90.9946 91.5808 91.3119C92.1315 91.6199 92.5608 92.0492 92.8688 92.5999C93.1862 93.1506 93.3448 93.7759 93.3448 94.4759C93.3448 95.1759 93.1862 95.8012 92.8688 96.3519C92.5608 96.9026 92.1315 97.3366 91.5808 97.6539C91.0302 97.9619 90.4095 98.1159 89.7188 98.1159ZM89.7188 96.9259C90.1575 96.9259 90.5448 96.8232 90.8808 96.6179C91.2262 96.4032 91.4922 96.1139 91.6788 95.7499C91.8655 95.3766 91.9588 94.9519 91.9588 94.4759C91.9588 93.9999 91.8655 93.5799 91.6788 93.2159C91.4922 92.8426 91.2262 92.5532 90.8808 92.3479C90.5448 92.1332 90.1575 92.0259 89.7188 92.0259C89.2802 92.0259 88.8882 92.1332 88.5428 92.3479C88.1975 92.5532 87.9315 92.8426 87.7448 93.2159C87.5582 93.5799 87.4648 93.9999 87.4648 94.4759C87.4648 94.9519 87.5582 95.3766 87.7448 95.7499C87.9315 96.1139 88.1975 96.4032 88.5428 96.6179C88.8882 96.8232 89.2802 96.9259 89.7188 96.9259ZM97.9613 98.1159C97.4387 98.1159 96.9767 97.9992 96.5753 97.7659C96.1833 97.5232 95.8753 97.1919 95.6513 96.7719C95.4367 96.3426 95.3293 95.8479 95.3293 95.2879V90.9479H96.6873V95.0219C96.6873 95.5819 96.8367 96.0346 97.1353 96.3799C97.4433 96.7252 97.8447 96.8979 98.3393 96.8979C98.7033 96.8979 99.03 96.8092 99.3193 96.6319C99.6087 96.4452 99.8327 96.1932 99.9913 95.8759C100.159 95.5492 100.243 95.1806 100.243 94.7699V90.9479H101.601V98.0039H100.243V96.7579C100.057 97.1966 99.7627 97.5326 99.3613 97.7659C98.96 97.9992 98.4933 98.1159 97.9613 98.1159ZM104.136 90.9479H105.494V92.1939C105.68 91.7552 105.97 91.4192 106.362 91.1859C106.763 90.9526 107.23 90.8359 107.762 90.8359C108.284 90.8359 108.746 90.9572 109.148 91.1999C109.549 91.4332 109.857 91.7646 110.072 92.1939C110.286 92.6139 110.394 93.1039 110.394 93.6639V98.0039H109.036V93.9299C109.036 93.3699 108.882 92.9172 108.574 92.5719C108.275 92.2266 107.878 92.0539 107.384 92.0539C107.02 92.0539 106.693 92.1472 106.404 92.3339C106.114 92.5112 105.89 92.7632 105.732 93.0899C105.573 93.4072 105.494 93.7712 105.494 94.1819V98.0039H104.136V90.9479ZM115.689 98.0039C115.213 98.0039 114.797 97.9106 114.443 97.7239C114.088 97.5372 113.813 97.2712 113.617 96.9259C113.43 96.5806 113.337 96.1699 113.337 95.6939V92.1239H111.895V90.9479H113.337V88.7359H114.695V90.9479H116.781V92.1239H114.695V95.6519C114.695 96.0252 114.788 96.3146 114.975 96.5199C115.171 96.7252 115.441 96.8279 115.787 96.8279H116.781V98.0039H115.689ZM121.006 98.1159C120.436 98.1159 119.946 98.0226 119.536 97.8359C119.125 97.6399 118.803 97.3646 118.57 97.0099C118.336 96.6459 118.201 96.2119 118.164 95.7079H119.41C119.447 96.1186 119.606 96.4406 119.886 96.6739C120.166 96.8979 120.534 97.0099 120.992 97.0099C121.412 97.0099 121.748 96.9166 122 96.7299C122.252 96.5432 122.378 96.2912 122.378 95.9739C122.378 95.7312 122.303 95.5446 122.154 95.4139C122.014 95.2832 121.841 95.1899 121.636 95.1339C121.43 95.0686 121.132 95.0032 120.74 94.9379C120.245 94.8539 119.834 94.7606 119.508 94.6579C119.19 94.5459 118.915 94.3546 118.682 94.0839C118.458 93.8132 118.346 93.4306 118.346 92.9359C118.346 92.5346 118.453 92.1752 118.668 91.8579C118.882 91.5312 119.181 91.2792 119.564 91.1019C119.946 90.9246 120.38 90.8359 120.866 90.8359C121.407 90.8359 121.874 90.9246 122.266 91.1019C122.667 91.2699 122.98 91.5219 123.204 91.8579C123.437 92.1846 123.568 92.5766 123.596 93.0339H122.35C122.312 92.6886 122.158 92.4132 121.888 92.2079C121.626 92.0026 121.29 91.8999 120.88 91.8999C120.516 91.8999 120.212 91.9886 119.97 92.1659C119.727 92.3339 119.606 92.5719 119.606 92.8799C119.606 93.1039 119.671 93.2812 119.802 93.4119C119.942 93.5332 120.114 93.6219 120.32 93.6779C120.534 93.7339 120.828 93.7899 121.202 93.8459C121.715 93.9299 122.135 94.0232 122.462 94.1259C122.798 94.2286 123.078 94.4199 123.302 94.6999C123.535 94.9799 123.652 95.3812 123.652 95.9039C123.652 96.3519 123.544 96.7439 123.33 97.0799C123.115 97.4066 122.807 97.6632 122.406 97.8499C122.014 98.0272 121.547 98.1159 121.006 98.1159Z" fill="white"/>
<g filter="url(#filter3_f_240_780)">
<path d="M349.686 35.3015L366.191 18.4593C367.359 17.2674 368.957 16.5957 370.626 16.5957L471.603 16.5957C475.032 16.5957 477.813 19.3761 477.813 22.8058V102.689C477.813 104.328 477.165 105.9 476.011 107.063L457.194 126.028L437.716 145.583C436.551 146.753 434.967 147.41 433.316 147.41H333.493C330.063 147.41 327.283 144.63 327.283 141.2L327.282 61.2158C327.282 59.6165 327.899 58.0788 329.005 56.9231L349.686 35.3015Z" fill="#FF5E01"/>
</g>
<path d="M370.626 16.9062H471.603C474.861 16.9063 477.502 19.5475 477.502 22.8057V102.689C477.502 104.246 476.886 105.74 475.79 106.845L456.974 125.809L437.496 145.363C436.389 146.475 434.885 147.1 433.316 147.1H333.493C330.235 147.1 327.594 144.458 327.594 141.2L327.593 61.2158C327.593 59.6965 328.179 58.2356 329.229 57.1377L349.91 35.5156L366.412 18.6768C367.522 17.5445 369.041 16.9063 370.626 16.9062Z" fill="#FF5100" stroke="white" stroke-width="0.621012"/>
<g filter="url(#filter4_f_240_780)">
<path d="M355.12 40.1015L369.74 25.182C370.908 23.99 372.506 23.3184 374.175 23.3184L463.866 23.3184C467.296 23.3184 470.077 26.0987 470.077 29.5285V100.3C470.077 101.939 469.429 103.511 468.275 104.674L451.577 121.503L434.288 138.86C433.123 140.03 431.54 140.687 429.888 140.687H341.229C337.799 140.687 335.019 137.907 335.019 134.477L335.018 63.6084C335.018 62.0091 335.635 60.4714 336.741 59.3157L355.12 40.1015Z" fill="#FF833B"/>
</g>
<g filter="url(#filter5_d_240_780)">
<path d="M355.12 40.1015L369.74 25.182C370.908 23.99 372.506 23.3184 374.175 23.3184L463.866 23.3184C467.296 23.3184 470.077 26.0987 470.077 29.5285V100.3C470.077 101.939 469.429 103.511 468.275 104.674L451.577 121.503L434.288 138.86C433.123 140.03 431.54 140.687 429.888 140.687H341.229C337.799 140.687 335.019 137.907 335.019 134.477L335.018 63.6084C335.018 62.0091 335.635 60.4714 336.741 59.3157L355.12 40.1015Z" fill="#FF5100"/>
<path d="M374.175 23.6289H463.867C467.125 23.629 469.766 26.2702 469.766 29.5283V100.3C469.766 101.856 469.151 103.35 468.054 104.455L451.357 121.284L434.068 138.641C432.961 139.752 431.457 140.377 429.888 140.377H341.229C337.971 140.377 335.33 137.736 335.33 134.478L335.329 63.6084C335.329 62.0891 335.915 60.6282 336.965 59.5303L355.343 40.3154L369.961 25.3994C371.071 24.2671 372.59 23.6289 374.175 23.6289Z" stroke="white" stroke-width="0.621012"/>
</g>
<path d="M350.951 66.2039H354.745C355.408 66.2039 355.977 66.3299 356.453 66.5819C356.938 66.8246 357.307 67.1699 357.559 67.6179C357.82 68.0659 357.951 68.5792 357.951 69.1579C357.951 69.7366 357.82 70.2499 357.559 70.6979C357.307 71.1459 356.938 71.4959 356.453 71.7479C355.977 71.9906 355.408 72.1119 354.745 72.1119H352.407V76.0039H350.951V66.2039ZM354.703 70.8519C355.104 70.8519 355.436 70.7772 355.697 70.6279C355.958 70.4692 356.15 70.2639 356.271 70.0119C356.392 69.7506 356.453 69.4659 356.453 69.1579C356.453 68.6726 356.308 68.2712 356.019 67.9539C355.739 67.6272 355.3 67.4639 354.703 67.4639H352.407V70.8519H354.703ZM359.752 68.9479H361.11V70.3059C361.269 69.8299 361.497 69.4846 361.796 69.2699C362.095 69.0552 362.491 68.9479 362.986 68.9479H363.84V70.1239H362.818C362.202 70.1239 361.763 70.3619 361.502 70.8379C361.241 71.3139 361.11 71.9719 361.11 72.8119V76.0039H359.752V68.9479ZM368.368 76.1159C367.659 76.1159 367.038 75.9479 366.506 75.6119C365.974 75.2759 365.563 74.8279 365.274 74.2679C364.985 73.7079 364.84 73.0966 364.84 72.4339C364.84 71.7712 364.975 71.1692 365.246 70.6279C365.517 70.0772 365.909 69.6432 366.422 69.3259C366.935 68.9992 367.542 68.8359 368.242 68.8359C368.942 68.8359 369.539 68.9899 370.034 69.2979C370.538 69.5966 370.921 70.0026 371.182 70.5159C371.443 71.0199 371.574 71.5752 371.574 72.1819C371.574 72.3779 371.565 72.5599 371.546 72.7279H365.624V71.6779H370.202C370.155 71.1366 369.959 70.7119 369.614 70.4039C369.278 70.0866 368.821 69.9279 368.242 69.9279C367.803 69.9279 367.425 70.0259 367.108 70.2219C366.8 70.4086 366.562 70.6886 366.394 71.0619C366.235 71.4352 366.156 71.8879 366.156 72.4199C366.156 72.9146 366.249 73.3532 366.436 73.7359C366.623 74.1186 366.884 74.4172 367.22 74.6319C367.556 74.8466 367.939 74.9539 368.368 74.9539C368.881 74.9539 369.301 74.8466 369.628 74.6319C369.955 74.4172 370.169 74.1092 370.272 73.7079H371.63C371.509 74.4359 371.154 75.0192 370.566 75.4579C369.978 75.8966 369.245 76.1159 368.368 76.1159ZM373.374 71.6079H377.77V72.7839H373.374V71.6079ZM379.985 68.9479H381.343V69.9839C381.558 69.6386 381.87 69.3632 382.281 69.1579C382.692 68.9432 383.13 68.8359 383.597 68.8359C384.297 68.8359 384.894 68.9946 385.389 69.3119C385.893 69.6199 386.276 70.0492 386.537 70.5999C386.808 71.1506 386.943 71.7759 386.943 72.4759C386.943 73.1759 386.808 73.8012 386.537 74.3519C386.276 74.9026 385.893 75.3366 385.389 75.6539C384.894 75.9619 384.302 76.1159 383.611 76.1159C383.135 76.1159 382.687 76.0086 382.267 75.7939C381.856 75.5792 381.548 75.2992 381.343 74.9539V78.8599H379.985V68.9479ZM383.401 74.9259C383.83 74.9259 384.208 74.8232 384.535 74.6179C384.862 74.4126 385.114 74.1279 385.291 73.7639C385.478 73.3906 385.571 72.9612 385.571 72.4759C385.571 71.7386 385.37 71.1459 384.969 70.6979C384.577 70.2499 384.054 70.0259 383.401 70.0259C382.972 70.0259 382.594 70.1286 382.267 70.3339C381.94 70.5392 381.684 70.8286 381.497 71.2019C381.32 71.5659 381.231 71.9906 381.231 72.4759C381.231 73.2132 381.427 73.8059 381.819 74.2539C382.22 74.7019 382.748 74.9259 383.401 74.9259ZM391.107 76.1159C390.631 76.1159 390.211 76.0272 389.847 75.8499C389.483 75.6726 389.198 75.4252 388.993 75.1079C388.797 74.7812 388.699 74.4079 388.699 73.9879C388.699 73.5399 388.811 73.1479 389.035 72.8119C389.268 72.4666 389.59 72.2006 390.001 72.0139C390.421 71.8272 390.902 71.7339 391.443 71.7339H392.927C393.086 71.7339 393.202 71.7059 393.277 71.6499C393.361 71.5846 393.403 71.4912 393.403 71.3699C393.403 70.9406 393.249 70.5952 392.941 70.3339C392.642 70.0632 392.227 69.9279 391.695 69.9279C391.368 69.9279 391.074 69.9886 390.813 70.1099C390.561 70.2312 390.36 70.3946 390.211 70.5999C390.062 70.7959 389.978 71.0152 389.959 71.2579H388.699C388.736 70.8006 388.89 70.3899 389.161 70.0259C389.432 69.6526 389.791 69.3632 390.239 69.1579C390.687 68.9432 391.186 68.8359 391.737 68.8359C392.334 68.8359 392.862 68.9479 393.319 69.1719C393.776 69.3866 394.126 69.6899 394.369 70.0819C394.621 70.4739 394.747 70.9312 394.747 71.4539V76.0039H393.403V74.8419L393.333 74.9819C393.202 75.2059 393.025 75.4066 392.801 75.5839C392.577 75.7519 392.32 75.8826 392.031 75.9759C391.742 76.0692 391.434 76.1159 391.107 76.1159ZM391.373 75.0379C392.008 75.0379 392.502 74.8466 392.857 74.4639C393.221 74.0812 393.403 73.5632 393.403 72.9099V72.7839H391.583C391.116 72.7839 390.743 72.8912 390.463 73.1059C390.192 73.3112 390.057 73.5959 390.057 73.9599C390.057 74.2866 390.174 74.5479 390.407 74.7439C390.65 74.9399 390.972 75.0379 391.373 75.0379ZM397.197 68.9479H398.555V76.0039H397.197V68.9479ZM398.625 65.9939V67.7019H397.113V65.9939H398.625ZM403.963 76.1159C403.272 76.1159 402.675 75.9619 402.171 75.6539C401.676 75.3366 401.298 74.9026 401.037 74.3519C400.775 73.8012 400.645 73.1759 400.645 72.4759C400.645 71.7759 400.775 71.1506 401.037 70.5999C401.298 70.0492 401.681 69.6199 402.185 69.3119C402.689 68.9946 403.286 68.8359 403.977 68.8359C404.453 68.8359 404.896 68.9432 405.307 69.1579C405.717 69.3632 406.03 69.6386 406.245 69.9839V65.9939H407.603V76.0039H406.245V74.9539C406.03 75.2992 405.713 75.5792 405.293 75.7939C404.882 76.0086 404.439 76.1159 403.963 76.1159ZM404.187 74.9259C404.616 74.9259 404.994 74.8232 405.321 74.6179C405.647 74.4126 405.899 74.1279 406.077 73.7639C406.254 73.3906 406.343 72.9612 406.343 72.4759C406.343 71.7386 406.147 71.1459 405.755 70.6979C405.363 70.2499 404.84 70.0259 404.187 70.0259C403.748 70.0259 403.365 70.1286 403.039 70.3339C402.721 70.5392 402.469 70.8286 402.283 71.2019C402.105 71.5659 402.017 71.9906 402.017 72.4759C402.017 73.2132 402.213 73.8059 402.605 74.2539C402.997 74.7019 403.524 74.9259 404.187 74.9259ZM418.339 76.1159C417.471 76.1159 416.673 75.9292 415.945 75.5559C415.217 75.1732 414.634 74.6039 414.195 73.8479C413.766 73.0919 413.551 72.1772 413.551 71.1039C413.551 70.0306 413.77 69.1159 414.209 68.3599C414.648 67.6039 415.231 67.0392 415.959 66.6659C416.687 66.2832 417.48 66.0919 418.339 66.0919C419.067 66.0919 419.739 66.2319 420.355 66.5119C420.971 66.7919 421.475 67.1792 421.867 67.6739C422.259 68.1686 422.497 68.7286 422.581 69.3539H421.055C421.008 68.9806 420.854 68.6446 420.593 68.3459C420.341 68.0379 420.014 67.7999 419.613 67.6319C419.221 67.4639 418.792 67.3799 418.325 67.3799C417.681 67.3799 417.112 67.5246 416.617 67.8139C416.122 68.1032 415.735 68.5279 415.455 69.0879C415.175 69.6386 415.035 70.3106 415.035 71.1039C415.035 71.8972 415.175 72.5739 415.455 73.1339C415.735 73.6846 416.122 74.1046 416.617 74.3939C417.121 74.6832 417.695 74.8279 418.339 74.8279C418.815 74.8279 419.254 74.7439 419.655 74.5759C420.056 74.4079 420.383 74.1746 420.635 73.8759C420.887 73.5679 421.036 73.2272 421.083 72.8539H422.567C422.502 73.4792 422.278 74.0392 421.895 74.5339C421.512 75.0286 421.008 75.4159 420.383 75.6959C419.767 75.9759 419.086 76.1159 418.339 76.1159ZM426.706 76.1159C426.23 76.1159 425.81 76.0272 425.446 75.8499C425.082 75.6726 424.797 75.4252 424.592 75.1079C424.396 74.7812 424.298 74.4079 424.298 73.9879C424.298 73.5399 424.41 73.1479 424.634 72.8119C424.867 72.4666 425.189 72.2006 425.6 72.0139C426.02 71.8272 426.501 71.7339 427.042 71.7339H428.526C428.685 71.7339 428.801 71.7059 428.876 71.6499C428.96 71.5846 429.002 71.4912 429.002 71.3699C429.002 70.9406 428.848 70.5952 428.54 70.3339C428.241 70.0632 427.826 69.9279 427.294 69.9279C426.967 69.9279 426.673 69.9886 426.412 70.1099C426.16 70.2312 425.959 70.3946 425.81 70.5999C425.661 70.7959 425.577 71.0152 425.558 71.2579H424.298C424.335 70.8006 424.489 70.3899 424.76 70.0259C425.031 69.6526 425.39 69.3632 425.838 69.1579C426.286 68.9432 426.785 68.8359 427.336 68.8359C427.933 68.8359 428.461 68.9479 428.918 69.1719C429.375 69.3866 429.725 69.6899 429.968 70.0819C430.22 70.4739 430.346 70.9312 430.346 71.4539V76.0039H429.002V74.8419L428.932 74.9819C428.801 75.2059 428.624 75.4066 428.4 75.5839C428.176 75.7519 427.919 75.8826 427.63 75.9759C427.341 76.0692 427.033 76.1159 426.706 76.1159ZM426.972 75.0379C427.607 75.0379 428.101 74.8466 428.456 74.4639C428.82 74.0812 429.002 73.5632 429.002 72.9099V72.7839H427.182C426.715 72.7839 426.342 72.8912 426.062 73.1059C425.791 73.3112 425.656 73.5959 425.656 73.9599C425.656 74.2866 425.773 74.5479 426.006 74.7439C426.249 74.9399 426.571 75.0379 426.972 75.0379ZM432.796 68.9479H434.154V70.3059C434.312 69.8299 434.541 69.4846 434.84 69.2699C435.138 69.0552 435.535 68.9479 436.03 68.9479H436.884V70.1239H435.862C435.246 70.1239 434.807 70.3619 434.546 70.8379C434.284 71.3139 434.154 71.9719 434.154 72.8119V76.0039H432.796V68.9479ZM441.202 76.1159C440.511 76.1159 439.914 75.9619 439.41 75.6539C438.915 75.3366 438.537 74.9026 438.276 74.3519C438.015 73.8012 437.884 73.1759 437.884 72.4759C437.884 71.7759 438.015 71.1506 438.276 70.5999C438.537 70.0492 438.92 69.6199 439.424 69.3119C439.928 68.9946 440.525 68.8359 441.216 68.8359C441.692 68.8359 442.135 68.9432 442.546 69.1579C442.957 69.3632 443.269 69.6386 443.484 69.9839V65.9939H444.842V76.0039H443.484V74.9539C443.269 75.2992 442.952 75.5792 442.532 75.7939C442.121 76.0086 441.678 76.1159 441.202 76.1159ZM441.426 74.9259C441.855 74.9259 442.233 74.8232 442.56 74.6179C442.887 74.4126 443.139 74.1279 443.316 73.7639C443.493 73.3906 443.582 72.9612 443.582 72.4759C443.582 71.7386 443.386 71.1459 442.994 70.6979C442.602 70.2499 442.079 70.0259 441.426 70.0259C440.987 70.0259 440.605 70.1286 440.278 70.3339C439.961 70.5392 439.709 70.8286 439.522 71.2019C439.345 71.5659 439.256 71.9906 439.256 72.4759C439.256 73.2132 439.452 73.8059 439.844 74.2539C440.236 74.7019 440.763 74.9259 441.426 74.9259ZM449.706 76.1159C449.137 76.1159 448.647 76.0226 448.236 75.8359C447.826 75.6399 447.504 75.3646 447.27 75.0099C447.037 74.6459 446.902 74.2119 446.864 73.7079H448.11C448.148 74.1186 448.306 74.4406 448.586 74.6739C448.866 74.8979 449.235 75.0099 449.692 75.0099C450.112 75.0099 450.448 74.9166 450.7 74.7299C450.952 74.5432 451.078 74.2912 451.078 73.9739C451.078 73.7312 451.004 73.5446 450.854 73.4139C450.714 73.2832 450.542 73.1899 450.336 73.1339C450.131 73.0686 449.832 73.0032 449.44 72.9379C448.946 72.8539 448.535 72.7606 448.208 72.6579C447.891 72.5459 447.616 72.3546 447.382 72.0839C447.158 71.8132 447.046 71.4306 447.046 70.9359C447.046 70.5346 447.154 70.1752 447.368 69.8579C447.583 69.5312 447.882 69.2792 448.264 69.1019C448.647 68.9246 449.081 68.8359 449.566 68.8359C450.108 68.8359 450.574 68.9246 450.966 69.1019C451.368 69.2699 451.68 69.5219 451.904 69.8579C452.138 70.1846 452.268 70.5766 452.296 71.0339H451.05C451.013 70.6886 450.859 70.4132 450.588 70.2079C450.327 70.0026 449.991 69.8999 449.58 69.8999C449.216 69.8999 448.913 69.9886 448.67 70.1659C448.428 70.3339 448.306 70.5719 448.306 70.8799C448.306 71.1039 448.372 71.2812 448.502 71.4119C448.642 71.5332 448.815 71.6219 449.02 71.6779C449.235 71.7339 449.529 71.7899 449.902 71.8459C450.416 71.9299 450.836 72.0232 451.162 72.1259C451.498 72.2286 451.778 72.4199 452.002 72.6999C452.236 72.9799 452.352 73.3812 452.352 73.9039C452.352 74.3519 452.245 74.7439 452.03 75.0799C451.816 75.4066 451.508 75.6632 451.106 75.8499C450.714 76.0272 450.248 76.1159 449.706 76.1159ZM374.512 88.2039H375.856L379.706 98.0039H378.194L375.184 90.0239L372.174 98.0039H370.662L374.512 88.2039ZM372.846 94.2379H377.522L377.732 95.5119H372.636L372.846 94.2379ZM384.15 98.1159C383.432 98.1159 382.806 97.9526 382.274 97.6259C381.752 97.2899 381.35 96.8466 381.07 96.2959C380.8 95.7359 380.664 95.1292 380.664 94.4759C380.664 93.8226 380.8 93.2206 381.07 92.6699C381.35 92.1099 381.752 91.6666 382.274 91.3399C382.806 91.0039 383.432 90.8359 384.15 90.8359C384.701 90.8359 385.214 90.9432 385.69 91.1579C386.176 91.3632 386.573 91.6619 386.881 92.0539C387.189 92.4366 387.371 92.8892 387.427 93.4119H386.069C386.003 93.0106 385.789 92.6792 385.424 92.4179C385.07 92.1566 384.654 92.0259 384.178 92.0259C383.721 92.0259 383.334 92.1332 383.016 92.3479C382.708 92.5626 382.475 92.8566 382.316 93.2299C382.158 93.6032 382.078 94.0186 382.078 94.4759C382.078 95.1852 382.26 95.7732 382.624 96.2399C382.988 96.6972 383.511 96.9259 384.192 96.9259C384.668 96.9259 385.074 96.8092 385.41 96.5759C385.746 96.3426 385.97 96.0252 386.082 95.6239H387.427C387.352 96.1186 387.17 96.5526 386.881 96.9259C386.591 97.2992 386.213 97.5932 385.747 97.8079C385.28 98.0132 384.748 98.1159 384.15 98.1159ZM392.49 98.1159C391.771 98.1159 391.146 97.9526 390.614 97.6259C390.091 97.2899 389.69 96.8466 389.41 96.2959C389.139 95.7359 389.004 95.1292 389.004 94.4759C389.004 93.8226 389.139 93.2206 389.41 92.6699C389.69 92.1099 390.091 91.6666 390.614 91.3399C391.146 91.0039 391.771 90.8359 392.49 90.8359C393.04 90.8359 393.554 90.9432 394.03 91.1579C394.515 91.3632 394.912 91.6619 395.22 92.0539C395.528 92.4366 395.71 92.8892 395.766 93.4119H394.408C394.342 93.0106 394.128 92.6792 393.764 92.4179C393.409 92.1566 392.994 92.0259 392.518 92.0259C392.06 92.0259 391.673 92.1332 391.356 92.3479C391.048 92.5626 390.814 92.8566 390.656 93.2299C390.497 93.6032 390.418 94.0186 390.418 94.4759C390.418 95.1852 390.6 95.7732 390.964 96.2399C391.328 96.6972 391.85 96.9259 392.532 96.9259C393.008 96.9259 393.414 96.8092 393.75 96.5759C394.086 96.3426 394.31 96.0252 394.422 95.6239H395.766C395.691 96.1186 395.509 96.5526 395.22 96.9259C394.93 97.2992 394.552 97.5932 394.086 97.8079C393.619 98.0132 393.087 98.1159 392.49 98.1159ZM400.969 98.1159C400.269 98.1159 399.644 97.9619 399.093 97.6539C398.542 97.3366 398.108 96.9026 397.791 96.3519C397.483 95.8012 397.329 95.1759 397.329 94.4759C397.329 93.7759 397.483 93.1506 397.791 92.5999C398.108 92.0492 398.542 91.6199 399.093 91.3119C399.644 90.9946 400.269 90.8359 400.969 90.8359C401.66 90.8359 402.28 90.9946 402.831 91.3119C403.382 91.6199 403.811 92.0492 404.119 92.5999C404.436 93.1506 404.595 93.7759 404.595 94.4759C404.595 95.1759 404.436 95.8012 404.119 96.3519C403.811 96.9026 403.382 97.3366 402.831 97.6539C402.28 97.9619 401.66 98.1159 400.969 98.1159ZM400.969 96.9259C401.408 96.9259 401.795 96.8232 402.131 96.6179C402.476 96.4032 402.742 96.1139 402.929 95.7499C403.116 95.3766 403.209 94.9519 403.209 94.4759C403.209 93.9999 403.116 93.5799 402.929 93.2159C402.742 92.8426 402.476 92.5532 402.131 92.3479C401.795 92.1332 401.408 92.0259 400.969 92.0259C400.53 92.0259 400.138 92.1332 399.793 92.3479C399.448 92.5532 399.182 92.8426 398.995 93.2159C398.808 93.5799 398.715 93.9999 398.715 94.4759C398.715 94.9519 398.808 95.3766 398.995 95.7499C399.182 96.1139 399.448 96.4032 399.793 96.6179C400.138 96.8232 400.53 96.9259 400.969 96.9259ZM409.212 98.1159C408.689 98.1159 408.227 97.9992 407.826 97.7659C407.434 97.5232 407.126 97.1919 406.902 96.7719C406.687 96.3426 406.58 95.8479 406.58 95.2879V90.9479H407.938V95.0219C407.938 95.5819 408.087 96.0346 408.386 96.3799C408.694 96.7252 409.095 96.8979 409.59 96.8979C409.954 96.8979 410.28 96.8092 410.57 96.6319C410.859 96.4452 411.083 96.1932 411.242 95.8759C411.41 95.5492 411.494 95.1806 411.494 94.7699V90.9479H412.852V98.0039H411.494V96.7579C411.307 97.1966 411.013 97.5326 410.612 97.7659C410.21 97.9992 409.744 98.1159 409.212 98.1159ZM415.386 90.9479H416.744V92.1939C416.931 91.7552 417.22 91.4192 417.612 91.1859C418.013 90.9526 418.48 90.8359 419.012 90.8359C419.535 90.8359 419.997 90.9572 420.398 91.1999C420.799 91.4332 421.107 91.7646 421.322 92.1939C421.537 92.6139 421.644 93.1039 421.644 93.6639V98.0039H420.286V93.9299C420.286 93.3699 420.132 92.9172 419.824 92.5719C419.525 92.2266 419.129 92.0539 418.634 92.0539C418.27 92.0539 417.943 92.1472 417.654 92.3339C417.365 92.5112 417.141 92.7632 416.982 93.0899C416.823 93.4072 416.744 93.7712 416.744 94.1819V98.0039H415.386V90.9479ZM426.939 98.0039C426.463 98.0039 426.048 97.9106 425.693 97.7239C425.338 97.5372 425.063 97.2712 424.867 96.9259C424.68 96.5806 424.587 96.1699 424.587 95.6939V92.1239H423.145V90.9479H424.587V88.7359H425.945V90.9479H428.031V92.1239H425.945V95.6519C425.945 96.0252 426.038 96.3146 426.225 96.5199C426.421 96.7252 426.692 96.8279 427.037 96.8279H428.031V98.0039H426.939ZM432.256 98.1159C431.686 98.1159 431.196 98.0226 430.786 97.8359C430.375 97.6399 430.053 97.3646 429.82 97.0099C429.586 96.6459 429.451 96.2119 429.414 95.7079H430.66C430.697 96.1186 430.856 96.4406 431.136 96.6739C431.416 96.8979 431.784 97.0099 432.242 97.0099C432.662 97.0099 432.998 96.9166 433.25 96.7299C433.502 96.5432 433.628 96.2912 433.628 95.9739C433.628 95.7312 433.553 95.5446 433.404 95.4139C433.264 95.2832 433.091 95.1899 432.886 95.1339C432.68 95.0686 432.382 95.0032 431.99 94.9379C431.495 94.8539 431.084 94.7606 430.758 94.6579C430.44 94.5459 430.165 94.3546 429.932 94.0839C429.708 93.8132 429.596 93.4306 429.596 92.9359C429.596 92.5346 429.703 92.1752 429.918 91.8579C430.132 91.5312 430.431 91.2792 430.814 91.1019C431.196 90.9246 431.63 90.8359 432.116 90.8359C432.657 90.8359 433.124 90.9246 433.516 91.1019C433.917 91.2699 434.23 91.5219 434.454 91.8579C434.687 92.1846 434.818 92.5766 434.846 93.0339H433.6C433.562 92.6886 433.408 92.4132 433.138 92.2079C432.876 92.0026 432.54 91.8999 432.13 91.8999C431.766 91.8999 431.462 91.9886 431.22 92.1659C430.977 92.3339 430.856 92.5719 430.856 92.8799C430.856 93.1039 430.921 93.2812 431.052 93.4119C431.192 93.5332 431.364 93.6219 431.57 93.6779C431.784 93.7339 432.078 93.7899 432.452 93.8459C432.965 93.9299 433.385 94.0232 433.712 94.1259C434.048 94.2286 434.328 94.4199 434.552 94.6999C434.785 94.9799 434.902 95.3812 434.902 95.9039C434.902 96.3519 434.794 96.7439 434.58 97.0799C434.365 97.4066 434.057 97.6632 433.656 97.8499C433.264 98.0272 432.797 98.1159 432.256 98.1159Z" fill="white"/>
<g filter="url(#filter6_f_240_780)">
<path d="M661.217 35.3015L677.722 18.4593C678.89 17.2674 680.488 16.5957 682.157 16.5957L783.133 16.5957C786.563 16.5957 789.343 19.3761 789.343 22.8058V102.689C789.343 104.328 788.696 105.9 787.542 107.063L768.725 126.028L749.247 145.583C748.081 146.753 746.498 147.41 744.847 147.41H645.024C641.594 147.41 638.814 144.63 638.814 141.2L638.813 61.2158C638.813 59.6165 639.43 58.0788 640.535 56.9231L661.217 35.3015Z" fill="#FF5E01"/>
</g>
<path d="M682.157 16.9062H783.133C786.392 16.9063 789.033 19.5475 789.033 22.8057V102.689C789.033 104.246 788.417 105.74 787.321 106.845L768.504 125.809L749.027 145.363C747.92 146.475 746.416 147.1 744.847 147.1H645.024C641.766 147.1 639.125 144.458 639.125 141.2L639.124 61.2158C639.124 59.6965 639.71 58.2356 640.76 57.1377L661.441 35.5156L677.943 18.6768C679.052 17.5445 680.571 16.9063 682.157 16.9062Z" fill="#FF5100" stroke="white" stroke-width="0.621012"/>
<g filter="url(#filter7_f_240_780)">
<path d="M666.65 40.1015L681.271 25.182C682.439 23.99 684.037 23.3184 685.706 23.3184L775.397 23.3184C778.827 23.3184 781.607 26.0987 781.607 29.5285V100.3C781.607 101.939 780.96 103.511 779.806 104.674L763.108 121.503L745.819 138.86C744.654 140.03 743.07 140.687 741.419 140.687H652.76C649.33 140.687 646.55 137.907 646.55 134.477L646.549 63.6084C646.549 62.0091 647.166 60.4714 648.271 59.3157L666.65 40.1015Z" fill="#FF833B"/>
</g>
<g filter="url(#filter8_d_240_780)">
<path d="M666.65 40.1015L681.271 25.182C682.439 23.99 684.037 23.3184 685.706 23.3184L775.397 23.3184C778.827 23.3184 781.607 26.0987 781.607 29.5285V100.3C781.607 101.939 780.96 103.511 779.806 104.674L763.108 121.503L745.819 138.86C744.654 140.03 743.07 140.687 741.419 140.687H652.76C649.33 140.687 646.55 137.907 646.55 134.477L646.549 63.6084C646.549 62.0091 647.166 60.4714 648.271 59.3157L666.65 40.1015Z" fill="#FF5100"/>
<path d="M685.706 23.6289H775.397C778.656 23.629 781.297 26.2702 781.297 29.5283V100.3C781.297 101.856 780.681 103.35 779.585 104.455L762.888 121.284L745.599 138.641C744.492 139.752 742.988 140.377 741.419 140.377H652.76C649.502 140.377 646.86 137.736 646.86 134.478L646.859 63.6084C646.859 62.0891 647.446 60.6282 648.496 59.5303L666.874 40.3154L681.492 25.3994C682.602 24.2671 684.121 23.6289 685.706 23.6289Z" stroke="white" stroke-width="0.621012"/>
</g>
<path d="M680.074 76.1159C679.206 76.1159 678.408 75.9292 677.68 75.5559C676.952 75.1732 676.369 74.6039 675.93 73.8479C675.501 73.0919 675.286 72.1772 675.286 71.1039C675.286 70.0306 675.505 69.1159 675.944 68.3599C676.383 67.6039 676.966 67.0392 677.694 66.6659C678.422 66.2832 679.215 66.0919 680.074 66.0919C680.802 66.0919 681.474 66.2319 682.09 66.5119C682.706 66.7919 683.21 67.1792 683.602 67.6739C683.994 68.1686 684.232 68.7286 684.316 69.3539H682.79C682.743 68.9806 682.589 68.6446 682.328 68.3459C682.076 68.0379 681.749 67.7999 681.348 67.6319C680.956 67.4639 680.527 67.3799 680.06 67.3799C679.416 67.3799 678.847 67.5246 678.352 67.8139C677.857 68.1032 677.47 68.5279 677.19 69.0879C676.91 69.6386 676.77 70.3106 676.77 71.1039C676.77 71.8972 676.91 72.5739 677.19 73.1339C677.47 73.6846 677.857 74.1046 678.352 74.3939C678.856 74.6832 679.43 74.8279 680.074 74.8279C680.55 74.8279 680.989 74.7439 681.39 74.5759C681.791 74.4079 682.118 74.1746 682.37 73.8759C682.622 73.5679 682.771 73.2272 682.818 72.8539H684.302C684.237 73.4792 684.013 74.0392 683.63 74.5339C683.247 75.0286 682.743 75.4159 682.118 75.6959C681.502 75.9759 680.821 76.1159 680.074 76.1159ZM686.382 68.9479H687.74V70.3059C687.899 69.8299 688.128 69.4846 688.426 69.2699C688.725 69.0552 689.122 68.9479 689.616 68.9479H690.47V70.1239H689.448C688.832 70.1239 688.394 70.3619 688.132 70.8379C687.871 71.3139 687.74 71.9719 687.74 72.8119V76.0039H686.382V68.9479ZM694.998 76.1159C694.289 76.1159 693.668 75.9479 693.136 75.6119C692.604 75.2759 692.194 74.8279 691.904 74.2679C691.615 73.7079 691.47 73.0966 691.47 72.4339C691.47 71.7712 691.606 71.1692 691.876 70.6279C692.147 70.0772 692.539 69.6432 693.052 69.3259C693.566 68.9992 694.172 68.8359 694.872 68.8359C695.572 68.8359 696.17 68.9899 696.664 69.2979C697.168 69.5966 697.551 70.0026 697.812 70.5159C698.074 71.0199 698.204 71.5752 698.204 72.1819C698.204 72.3779 698.195 72.5599 698.176 72.7279H692.254V71.6779H696.832C696.786 71.1366 696.59 70.7119 696.244 70.4039C695.908 70.0866 695.451 69.9279 694.872 69.9279C694.434 69.9279 694.056 70.0259 693.738 70.2219C693.43 70.4086 693.192 70.6886 693.024 71.0619C692.866 71.4352 692.786 71.8879 692.786 72.4199C692.786 72.9146 692.88 73.3532 693.066 73.7359C693.253 74.1186 693.514 74.4172 693.85 74.6319C694.186 74.8466 694.569 74.9539 694.998 74.9539C695.512 74.9539 695.932 74.8466 696.258 74.6319C696.585 74.4172 696.8 74.1092 696.902 73.7079H698.26C698.139 74.4359 697.784 75.0192 697.196 75.4579C696.608 75.8966 695.876 76.1159 694.998 76.1159ZM703.21 76.1159C702.52 76.1159 701.922 75.9619 701.418 75.6539C700.924 75.3366 700.546 74.9026 700.284 74.3519C700.023 73.8012 699.892 73.1759 699.892 72.4759C699.892 71.7759 700.023 71.1506 700.284 70.5999C700.546 70.0492 700.928 69.6199 701.432 69.3119C701.936 68.9946 702.534 68.8359 703.224 68.8359C703.7 68.8359 704.144 68.9432 704.554 69.1579C704.965 69.3632 705.278 69.6386 705.492 69.9839V65.9939H706.85V76.0039H705.492V74.9539C705.278 75.2992 704.96 75.5792 704.54 75.7939C704.13 76.0086 703.686 76.1159 703.21 76.1159ZM703.434 74.9259C703.864 74.9259 704.242 74.8232 704.568 74.6179C704.895 74.4126 705.147 74.1279 705.324 73.7639C705.502 73.3906 705.59 72.9612 705.59 72.4759C705.59 71.7386 705.394 71.1459 705.002 70.6979C704.61 70.2499 704.088 70.0259 703.434 70.0259C702.996 70.0259 702.613 70.1286 702.286 70.3339C701.969 70.5392 701.717 70.8286 701.53 71.2019C701.353 71.5659 701.264 71.9906 701.264 72.4759C701.264 73.2132 701.46 73.8059 701.852 74.2539C702.244 74.7019 702.772 74.9259 703.434 74.9259ZM709.391 68.9479H710.749V76.0039H709.391V68.9479ZM710.819 65.9939V67.7019H709.307V65.9939H710.819ZM716.24 76.0039C715.764 76.0039 715.349 75.9106 714.994 75.7239C714.64 75.5372 714.364 75.2712 714.168 74.9259C713.982 74.5806 713.888 74.1699 713.888 73.6939V70.1239H712.446V68.9479H713.888V66.7359H715.246V68.9479H717.332V70.1239H715.246V73.6519C715.246 74.0252 715.34 74.3146 715.526 74.5199C715.722 74.7252 715.993 74.8279 716.338 74.8279H717.332V76.0039H716.24ZM727.429 76.1159C726.561 76.1159 725.763 75.9292 725.035 75.5559C724.307 75.1732 723.724 74.6039 723.285 73.8479C722.856 73.0919 722.641 72.1772 722.641 71.1039C722.641 70.0306 722.861 69.1159 723.299 68.3599C723.738 67.6039 724.321 67.0392 725.049 66.6659C725.777 66.2832 726.571 66.0919 727.429 66.0919C728.157 66.0919 728.829 66.2319 729.445 66.5119C730.061 66.7919 730.565 67.1792 730.957 67.6739C731.349 68.1686 731.587 68.7286 731.671 69.3539H730.145C730.099 68.9806 729.945 68.6446 729.683 68.3459C729.431 68.0379 729.105 67.7999 728.703 67.6319C728.311 67.4639 727.882 67.3799 727.415 67.3799C726.771 67.3799 726.202 67.5246 725.707 67.8139C725.213 68.1032 724.825 68.5279 724.545 69.0879C724.265 69.6386 724.125 70.3106 724.125 71.1039C724.125 71.8972 724.265 72.5739 724.545 73.1339C724.825 73.6846 725.213 74.1046 725.707 74.3939C726.211 74.6832 726.785 74.8279 727.429 74.8279C727.905 74.8279 728.344 74.7439 728.745 74.5759C729.147 74.4079 729.473 74.1746 729.725 73.8759C729.977 73.5679 730.127 73.2272 730.173 72.8539H731.657C731.592 73.4792 731.368 74.0392 730.985 74.5339C730.603 75.0286 730.099 75.4159 729.473 75.6959C728.857 75.9759 728.176 76.1159 727.429 76.1159ZM735.796 76.1159C735.32 76.1159 734.9 76.0272 734.536 75.8499C734.172 75.6726 733.888 75.4252 733.682 75.1079C733.486 74.7812 733.388 74.4079 733.388 73.9879C733.388 73.5399 733.5 73.1479 733.724 72.8119C733.958 72.4666 734.28 72.2006 734.69 72.0139C735.11 71.8272 735.591 71.7339 736.132 71.7339H737.616C737.775 71.7339 737.892 71.7059 737.966 71.6499C738.05 71.5846 738.092 71.4912 738.092 71.3699C738.092 70.9406 737.938 70.5952 737.63 70.3339C737.332 70.0632 736.916 69.9279 736.384 69.9279C736.058 69.9279 735.764 69.9886 735.502 70.1099C735.25 70.2312 735.05 70.3946 734.9 70.5999C734.751 70.7959 734.667 71.0152 734.648 71.2579H733.388C733.426 70.8006 733.58 70.3899 733.85 70.0259C734.121 69.6526 734.48 69.3632 734.928 69.1579C735.376 68.9432 735.876 68.8359 736.426 68.8359C737.024 68.8359 737.551 68.9479 738.008 69.1719C738.466 69.3866 738.816 69.6899 739.058 70.0819C739.31 70.4739 739.436 70.9312 739.436 71.4539V76.0039H738.092V74.8419L738.022 74.9819C737.892 75.2059 737.714 75.4066 737.49 75.5839C737.266 75.7519 737.01 75.8826 736.72 75.9759C736.431 76.0692 736.123 76.1159 735.796 76.1159ZM736.062 75.0379C736.697 75.0379 737.192 74.8466 737.546 74.4639C737.91 74.0812 738.092 73.5632 738.092 72.9099V72.7839H736.272C735.806 72.7839 735.432 72.8912 735.152 73.1059C734.882 73.3112 734.746 73.5959 734.746 73.9599C734.746 74.2866 734.863 74.5479 735.096 74.7439C735.339 74.9399 735.661 75.0379 736.062 75.0379ZM741.886 68.9479H743.244V70.3059C743.403 69.8299 743.631 69.4846 743.93 69.2699C744.229 69.0552 744.625 68.9479 745.12 68.9479H745.974V70.1239H744.952C744.336 70.1239 743.897 70.3619 743.636 70.8379C743.375 71.3139 743.244 71.9719 743.244 72.8119V76.0039H741.886V68.9479ZM750.292 76.1159C749.602 76.1159 749.004 75.9619 748.5 75.6539C748.006 75.3366 747.628 74.9026 747.366 74.3519C747.105 73.8012 746.974 73.1759 746.974 72.4759C746.974 71.7759 747.105 71.1506 747.366 70.5999C747.628 70.0492 748.01 69.6199 748.514 69.3119C749.018 68.9946 749.616 68.8359 750.306 68.8359C750.782 68.8359 751.226 68.9432 751.636 69.1579C752.047 69.3632 752.36 69.6386 752.574 69.9839V65.9939H753.932V76.0039H752.574V74.9539C752.36 75.2992 752.042 75.5792 751.622 75.7939C751.212 76.0086 750.768 76.1159 750.292 76.1159ZM750.516 74.9259C750.946 74.9259 751.324 74.8232 751.65 74.6179C751.977 74.4126 752.229 74.1279 752.406 73.7639C752.584 73.3906 752.672 72.9612 752.672 72.4759C752.672 71.7386 752.476 71.1459 752.084 70.6979C751.692 70.2499 751.17 70.0259 750.516 70.0259C750.078 70.0259 749.695 70.1286 749.368 70.3339C749.051 70.5392 748.799 70.8286 748.612 71.2019C748.435 71.5659 748.346 71.9906 748.346 72.4759C748.346 73.2132 748.542 73.8059 748.934 74.2539C749.326 74.7019 749.854 74.9259 750.516 74.9259ZM686.322 88.2039H687.666L691.516 98.0039H690.004L686.994 90.0239L683.984 98.0039H682.472L686.322 88.2039ZM684.656 94.2379H689.332L689.542 95.5119H684.446L684.656 94.2379ZM695.961 98.1159C695.243 98.1159 694.617 97.9526 694.085 97.6259C693.563 97.2899 693.161 96.8466 692.881 96.2959C692.611 95.7359 692.475 95.1292 692.475 94.4759C692.475 93.8226 692.611 93.2206 692.881 92.6699C693.161 92.1099 693.563 91.6666 694.085 91.3399C694.617 91.0039 695.243 90.8359 695.961 90.8359C696.512 90.8359 697.025 90.9432 697.501 91.1579C697.987 91.3632 698.383 91.6619 698.691 92.0539C698.999 92.4366 699.181 92.8892 699.237 93.4119H697.879C697.814 93.0106 697.599 92.6792 697.235 92.4179C696.881 92.1566 696.465 92.0259 695.989 92.0259C695.532 92.0259 695.145 92.1332 694.827 92.3479C694.519 92.5626 694.286 92.8566 694.127 93.2299C693.969 93.6032 693.889 94.0186 693.889 94.4759C693.889 95.1852 694.071 95.7732 694.435 96.2399C694.799 96.6972 695.322 96.9259 696.003 96.9259C696.479 96.9259 696.885 96.8092 697.221 96.5759C697.557 96.3426 697.781 96.0252 697.893 95.6239H699.237C699.163 96.1186 698.981 96.5526 698.691 96.9259C698.402 97.2992 698.024 97.5932 697.557 97.8079C697.091 98.0132 696.559 98.1159 695.961 98.1159ZM704.301 98.1159C703.582 98.1159 702.957 97.9526 702.425 97.6259C701.902 97.2899 701.501 96.8466 701.221 96.2959C700.95 95.7359 700.815 95.1292 700.815 94.4759C700.815 93.8226 700.95 93.2206 701.221 92.6699C701.501 92.1099 701.902 91.6666 702.425 91.3399C702.957 91.0039 703.582 90.8359 704.301 90.8359C704.851 90.8359 705.365 90.9432 705.841 91.1579C706.326 91.3632 706.723 91.6619 707.031 92.0539C707.339 92.4366 707.521 92.8892 707.577 93.4119H706.219C706.153 93.0106 705.939 92.6792 705.575 92.4179C705.22 92.1566 704.805 92.0259 704.329 92.0259C703.871 92.0259 703.484 92.1332 703.167 92.3479C702.859 92.5626 702.625 92.8566 702.467 93.2299C702.308 93.6032 702.229 94.0186 702.229 94.4759C702.229 95.1852 702.411 95.7732 702.775 96.2399C703.139 96.6972 703.661 96.9259 704.343 96.9259C704.819 96.9259 705.225 96.8092 705.561 96.5759C705.897 96.3426 706.121 96.0252 706.233 95.6239H707.577C707.502 96.1186 707.32 96.5526 707.031 96.9259C706.741 97.2992 706.363 97.5932 705.897 97.8079C705.43 98.0132 704.898 98.1159 704.301 98.1159ZM712.78 98.1159C712.08 98.1159 711.455 97.9619 710.904 97.6539C710.353 97.3366 709.919 96.9026 709.602 96.3519C709.294 95.8012 709.14 95.1759 709.14 94.4759C709.14 93.7759 709.294 93.1506 709.602 92.5999C709.919 92.0492 710.353 91.6199 710.904 91.3119C711.455 90.9946 712.08 90.8359 712.78 90.8359C713.471 90.8359 714.091 90.9946 714.642 91.3119C715.193 91.6199 715.622 92.0492 715.93 92.5999C716.247 93.1506 716.406 93.7759 716.406 94.4759C716.406 95.1759 716.247 95.8012 715.93 96.3519C715.622 96.9026 715.193 97.3366 714.642 97.6539C714.091 97.9619 713.471 98.1159 712.78 98.1159ZM712.78 96.9259C713.219 96.9259 713.606 96.8232 713.942 96.6179C714.287 96.4032 714.553 96.1139 714.74 95.7499C714.927 95.3766 715.02 94.9519 715.02 94.4759C715.02 93.9999 714.927 93.5799 714.74 93.2159C714.553 92.8426 714.287 92.5532 713.942 92.3479C713.606 92.1332 713.219 92.0259 712.78 92.0259C712.341 92.0259 711.949 92.1332 711.604 92.3479C711.259 92.5532 710.993 92.8426 710.806 93.2159C710.619 93.5799 710.526 93.9999 710.526 94.4759C710.526 94.9519 710.619 95.3766 710.806 95.7499C710.993 96.1139 711.259 96.4032 711.604 96.6179C711.949 96.8232 712.341 96.9259 712.78 96.9259ZM721.022 98.1159C720.5 98.1159 720.038 97.9992 719.636 97.7659C719.244 97.5232 718.936 97.1919 718.712 96.7719C718.498 96.3426 718.39 95.8479 718.39 95.2879V90.9479H719.748V95.0219C719.748 95.5819 719.898 96.0346 720.196 96.3799C720.504 96.7252 720.906 96.8979 721.4 96.8979C721.764 96.8979 722.091 96.8092 722.38 96.6319C722.67 96.4452 722.894 96.1932 723.052 95.8759C723.22 95.5492 723.304 95.1806 723.304 94.7699V90.9479H724.662V98.0039H723.304V96.7579C723.118 97.1966 722.824 97.5326 722.422 97.7659C722.021 97.9992 721.554 98.1159 721.022 98.1159ZM727.197 90.9479H728.555V92.1939C728.741 91.7552 729.031 91.4192 729.423 91.1859C729.824 90.9526 730.291 90.8359 730.823 90.8359C731.345 90.8359 731.807 90.9572 732.209 91.1999C732.61 91.4332 732.918 91.7646 733.133 92.1939C733.347 92.6139 733.455 93.1039 733.455 93.6639V98.0039H732.097V93.9299C732.097 93.3699 731.943 92.9172 731.635 92.5719C731.336 92.2266 730.939 92.0539 730.445 92.0539C730.081 92.0539 729.754 92.1472 729.465 92.3339C729.175 92.5112 728.951 92.7632 728.793 93.0899C728.634 93.4072 728.555 93.7712 728.555 94.1819V98.0039H727.197V90.9479ZM738.75 98.0039C738.274 98.0039 737.859 97.9106 737.504 97.7239C737.149 97.5372 736.874 97.2712 736.678 96.9259C736.491 96.5806 736.398 96.1699 736.398 95.6939V92.1239H734.956V90.9479H736.398V88.7359H737.756V90.9479H739.842V92.1239H737.756V95.6519C737.756 96.0252 737.849 96.3146 738.036 96.5199C738.232 96.7252 738.503 96.8279 738.848 96.8279H739.842V98.0039H738.75ZM744.067 98.1159C743.497 98.1159 743.007 98.0226 742.597 97.8359C742.186 97.6399 741.864 97.3646 741.631 97.0099C741.397 96.6459 741.262 96.2119 741.225 95.7079H742.471C742.508 96.1186 742.667 96.4406 742.947 96.6739C743.227 96.8979 743.595 97.0099 744.053 97.0099C744.473 97.0099 744.809 96.9166 745.061 96.7299C745.313 96.5432 745.439 96.2912 745.439 95.9739C745.439 95.7312 745.364 95.5446 745.215 95.4139C745.075 95.2832 744.902 95.1899 744.697 95.1339C744.491 95.0686 744.193 95.0032 743.801 94.9379C743.306 94.8539 742.895 94.7606 742.569 94.6579C742.251 94.5459 741.976 94.3546 741.743 94.0839C741.519 93.8132 741.407 93.4306 741.407 92.9359C741.407 92.5346 741.514 92.1752 741.729 91.8579C741.943 91.5312 742.242 91.2792 742.625 91.1019C743.007 90.9246 743.441 90.8359 743.927 90.8359C744.468 90.8359 744.935 90.9246 745.327 91.1019C745.728 91.2699 746.041 91.5219 746.265 91.8579C746.498 92.1846 746.629 92.5766 746.657 93.0339H745.411C745.373 92.6886 745.219 92.4132 744.949 92.2079C744.687 92.0026 744.351 91.8999 743.941 91.8999C743.577 91.8999 743.273 91.9886 743.031 92.1659C742.788 92.3339 742.667 92.5719 742.667 92.8799C742.667 93.1039 742.732 93.2812 742.863 93.4119C743.003 93.5332 743.175 93.6219 743.381 93.6779C743.595 93.7339 743.889 93.7899 744.263 93.8459C744.776 93.9299 745.196 94.0232 745.523 94.1259C745.859 94.2286 746.139 94.4199 746.363 94.6999C746.596 94.9799 746.713 95.3812 746.713 95.9039C746.713 96.3519 746.605 96.7439 746.391 97.0799C746.176 97.4066 745.868 97.6632 745.467 97.8499C745.075 98.0272 744.608 98.1159 744.067 98.1159Z" fill="white"/>
<g filter="url(#filter9_f_240_780)">
<path d="M972.748 35.3015L989.252 18.4593C990.42 17.2674 992.018 16.5957 993.687 16.5957L1094.66 16.5957C1098.09 16.5957 1100.87 19.3761 1100.87 22.8058V102.689C1100.87 104.328 1100.23 105.9 1099.07 107.063L1080.26 126.028L1060.78 145.583C1059.61 146.753 1058.03 147.41 1056.38 147.41H956.554C953.124 147.41 950.344 144.63 950.344 141.2L950.343 61.2158C950.343 59.6165 950.96 58.0788 952.066 56.9231L972.748 35.3015Z" fill="#FF5E01"/>
</g>
<path d="M993.687 16.9062H1094.66C1097.92 16.9063 1100.56 19.5475 1100.56 22.8057V102.689C1100.56 104.246 1099.95 105.74 1098.85 106.845L1080.03 125.809L1060.56 145.363C1059.45 146.475 1057.95 147.1 1056.38 147.1H956.554C953.296 147.1 950.655 144.458 950.655 141.2L950.654 61.2158C950.654 59.6965 951.24 58.2356 952.291 57.1377L972.971 35.5156L989.473 18.6768C990.583 17.5445 992.102 16.9063 993.687 16.9062Z" fill="#FF5100" stroke="white" stroke-width="0.621012"/>
<g filter="url(#filter10_f_240_780)">
<path d="M978.181 40.1015L992.801 25.182C993.969 23.99 995.567 23.3184 997.236 23.3184L1086.93 23.3184C1090.36 23.3184 1093.14 26.0987 1093.14 29.5285V100.3C1093.14 101.939 1092.49 103.511 1091.34 104.674L1074.64 121.503L1057.35 138.86C1056.18 140.03 1054.6 140.687 1052.95 140.687H964.29C960.86 140.687 958.08 137.907 958.08 134.477L958.079 63.6084C958.079 62.0091 958.696 60.4714 959.802 59.3157L978.181 40.1015Z" fill="#FF833B"/>
</g>
<g filter="url(#filter11_d_240_780)">
<path d="M978.181 40.1015L992.801 25.182C993.969 23.99 995.567 23.3184 997.236 23.3184L1086.93 23.3184C1090.36 23.3184 1093.14 26.0987 1093.14 29.5285V100.3C1093.14 101.939 1092.49 103.511 1091.34 104.674L1074.64 121.503L1057.35 138.86C1056.18 140.03 1054.6 140.687 1052.95 140.687H964.29C960.86 140.687 958.08 137.907 958.08 134.477L958.079 63.6084C958.079 62.0091 958.696 60.4714 959.802 59.3157L978.181 40.1015Z" fill="#FF5100"/>
<path d="M997.236 23.6289H1086.93C1090.19 23.629 1092.83 26.2702 1092.83 29.5283V100.3C1092.83 101.856 1092.21 103.35 1091.12 104.455L1074.42 121.284L1057.13 138.641C1056.02 139.752 1054.52 140.377 1052.95 140.377H964.29C961.032 140.377 958.391 137.736 958.391 134.478L958.39 63.6084C958.39 62.0891 958.976 60.6282 960.026 59.5303L978.404 40.3154L993.022 25.3994C994.132 24.2671 995.651 23.6289 997.236 23.6289Z" stroke="white" stroke-width="0.621012"/>
</g>
<path d="M1010.97 66.2039H1012.43V74.7159H1017.2V76.0039H1010.97V66.2039ZM1021.79 76.1159C1021.09 76.1159 1020.46 75.9619 1019.91 75.6539C1019.36 75.3366 1018.93 74.9026 1018.61 74.3519C1018.3 73.8012 1018.15 73.1759 1018.15 72.4759C1018.15 71.7759 1018.3 71.1506 1018.61 70.5999C1018.93 70.0492 1019.36 69.6199 1019.91 69.3119C1020.46 68.9946 1021.09 68.8359 1021.79 68.8359C1022.48 68.8359 1023.1 68.9946 1023.65 69.3119C1024.2 69.6199 1024.63 70.0492 1024.94 70.5999C1025.26 71.1506 1025.41 71.7759 1025.41 72.4759C1025.41 73.1759 1025.26 73.8012 1024.94 74.3519C1024.63 74.9026 1024.2 75.3366 1023.65 75.6539C1023.1 75.9619 1022.48 76.1159 1021.79 76.1159ZM1021.79 74.9259C1022.23 74.9259 1022.61 74.8232 1022.95 74.6179C1023.3 74.4032 1023.56 74.1139 1023.75 73.7499C1023.93 73.3766 1024.03 72.9519 1024.03 72.4759C1024.03 71.9999 1023.93 71.5799 1023.75 71.2159C1023.56 70.8426 1023.3 70.5532 1022.95 70.3479C1022.61 70.1332 1022.23 70.0259 1021.79 70.0259C1021.35 70.0259 1020.96 70.1332 1020.61 70.3479C1020.27 70.5532 1020 70.8426 1019.81 71.2159C1019.63 71.5799 1019.53 71.9999 1019.53 72.4759C1019.53 72.9519 1019.63 73.3766 1019.81 73.7499C1020 74.1139 1020.27 74.4032 1020.61 74.6179C1020.96 74.8232 1021.35 74.9259 1021.79 74.9259ZM1029.57 76.1159C1029.09 76.1159 1028.67 76.0272 1028.31 75.8499C1027.94 75.6726 1027.66 75.4252 1027.45 75.1079C1027.26 74.7812 1027.16 74.4079 1027.16 73.9879C1027.16 73.5399 1027.27 73.1479 1027.5 72.8119C1027.73 72.4666 1028.05 72.2006 1028.46 72.0139C1028.88 71.8272 1029.36 71.7339 1029.9 71.7339H1031.39C1031.55 71.7339 1031.66 71.7059 1031.74 71.6499C1031.82 71.5846 1031.86 71.4912 1031.86 71.3699C1031.86 70.9406 1031.71 70.5952 1031.4 70.3339C1031.1 70.0632 1030.69 69.9279 1030.16 69.9279C1029.83 69.9279 1029.54 69.9886 1029.27 70.1099C1029.02 70.2312 1028.82 70.3946 1028.67 70.5999C1028.52 70.7959 1028.44 71.0152 1028.42 71.2579H1027.16C1027.2 70.8006 1027.35 70.3899 1027.62 70.0259C1027.89 69.6526 1028.25 69.3632 1028.7 69.1579C1029.15 68.9432 1029.65 68.8359 1030.2 68.8359C1030.8 68.8359 1031.32 68.9479 1031.78 69.1719C1032.24 69.3866 1032.59 69.6899 1032.83 70.0819C1033.08 70.4739 1033.21 70.9312 1033.21 71.4539V76.0039H1031.86V74.8419L1031.79 74.9819C1031.66 75.2059 1031.49 75.4066 1031.26 75.5839C1031.04 75.7519 1030.78 75.8826 1030.49 75.9759C1030.2 76.0692 1029.89 76.1159 1029.57 76.1159ZM1029.83 75.0379C1030.47 75.0379 1030.96 74.8466 1031.32 74.4639C1031.68 74.0812 1031.86 73.5632 1031.86 72.9099V72.7839H1030.04C1029.58 72.7839 1029.2 72.8912 1028.92 73.1059C1028.65 73.3112 1028.52 73.5959 1028.52 73.9599C1028.52 74.2866 1028.63 74.5479 1028.87 74.7439C1029.11 74.9399 1029.43 75.0379 1029.83 75.0379ZM1035.66 68.9479H1037.02V70.1939C1037.2 69.7552 1037.49 69.4192 1037.88 69.1859C1038.29 68.9526 1038.75 68.8359 1039.28 68.8359C1039.81 68.8359 1040.27 68.9572 1040.67 69.1999C1041.07 69.4332 1041.38 69.7646 1041.59 70.1939C1041.81 70.6139 1041.92 71.1039 1041.92 71.6639V76.0039H1040.56V71.9299C1040.56 71.3699 1040.4 70.9172 1040.1 70.5719C1039.8 70.2266 1039.4 70.0539 1038.91 70.0539C1038.54 70.0539 1038.22 70.1472 1037.93 70.3339C1037.64 70.5112 1037.41 70.7632 1037.25 71.0899C1037.1 71.4072 1037.02 71.7712 1037.02 72.1819V76.0039H1035.66V68.9479ZM997.853 88.2039H999.197L1003.05 98.0039H1001.53L998.525 90.0239L995.515 98.0039H994.003L997.853 88.2039ZM996.187 94.2379H1000.86L1001.07 95.5119H995.977L996.187 94.2379ZM1007.49 98.1159C1006.77 98.1159 1006.15 97.9526 1005.62 97.6259C1005.09 97.2899 1004.69 96.8466 1004.41 96.2959C1004.14 95.7359 1004.01 95.1292 1004.01 94.4759C1004.01 93.8226 1004.14 93.2206 1004.41 92.6699C1004.69 92.1099 1005.09 91.6666 1005.62 91.3399C1006.15 91.0039 1006.77 90.8359 1007.49 90.8359C1008.04 90.8359 1008.56 90.9432 1009.03 91.1579C1009.52 91.3632 1009.91 91.6619 1010.22 92.0539C1010.53 92.4366 1010.71 92.8892 1010.77 93.4119H1009.41C1009.34 93.0106 1009.13 92.6792 1008.77 92.4179C1008.41 92.1566 1008 92.0259 1007.52 92.0259C1007.06 92.0259 1006.67 92.1332 1006.36 92.3479C1006.05 92.5626 1005.82 92.8566 1005.66 93.2299C1005.5 93.6032 1005.42 94.0186 1005.42 94.4759C1005.42 95.1852 1005.6 95.7732 1005.97 96.2399C1006.33 96.6972 1006.85 96.9259 1007.53 96.9259C1008.01 96.9259 1008.42 96.8092 1008.75 96.5759C1009.09 96.3426 1009.31 96.0252 1009.42 95.6239H1010.77C1010.69 96.1186 1010.51 96.5526 1010.22 96.9259C1009.93 97.2992 1009.55 97.5932 1009.09 97.8079C1008.62 98.0132 1008.09 98.1159 1007.49 98.1159ZM1015.83 98.1159C1015.11 98.1159 1014.49 97.9526 1013.95 97.6259C1013.43 97.2899 1013.03 96.8466 1012.75 96.2959C1012.48 95.7359 1012.34 95.1292 1012.34 94.4759C1012.34 93.8226 1012.48 93.2206 1012.75 92.6699C1013.03 92.1099 1013.43 91.6666 1013.95 91.3399C1014.49 91.0039 1015.11 90.8359 1015.83 90.8359C1016.38 90.8359 1016.89 90.9432 1017.37 91.1579C1017.86 91.3632 1018.25 91.6619 1018.56 92.0539C1018.87 92.4366 1019.05 92.8892 1019.11 93.4119H1017.75C1017.68 93.0106 1017.47 92.6792 1017.1 92.4179C1016.75 92.1566 1016.33 92.0259 1015.86 92.0259C1015.4 92.0259 1015.01 92.1332 1014.7 92.3479C1014.39 92.5626 1014.16 92.8566 1014 93.2299C1013.84 93.6032 1013.76 94.0186 1013.76 94.4759C1013.76 95.1852 1013.94 95.7732 1014.3 96.2399C1014.67 96.6972 1015.19 96.9259 1015.87 96.9259C1016.35 96.9259 1016.75 96.8092 1017.09 96.5759C1017.43 96.3426 1017.65 96.0252 1017.76 95.6239H1019.11C1019.03 96.1186 1018.85 96.5526 1018.56 96.9259C1018.27 97.2992 1017.89 97.5932 1017.43 97.8079C1016.96 98.0132 1016.43 98.1159 1015.83 98.1159ZM1024.31 98.1159C1023.61 98.1159 1022.98 97.9619 1022.43 97.6539C1021.88 97.3366 1021.45 96.9026 1021.13 96.3519C1020.82 95.8012 1020.67 95.1759 1020.67 94.4759C1020.67 93.7759 1020.82 93.1506 1021.13 92.5999C1021.45 92.0492 1021.88 91.6199 1022.43 91.3119C1022.98 90.9946 1023.61 90.8359 1024.31 90.8359C1025 90.8359 1025.62 90.9946 1026.17 91.3119C1026.72 91.6199 1027.15 92.0492 1027.46 92.5999C1027.78 93.1506 1027.94 93.7759 1027.94 94.4759C1027.94 95.1759 1027.78 95.8012 1027.46 96.3519C1027.15 96.9026 1026.72 97.3366 1026.17 97.6539C1025.62 97.9619 1025 98.1159 1024.31 98.1159ZM1024.31 96.9259C1024.75 96.9259 1025.14 96.8232 1025.47 96.6179C1025.82 96.4032 1026.08 96.1139 1026.27 95.7499C1026.46 95.3766 1026.55 94.9519 1026.55 94.4759C1026.55 93.9999 1026.46 93.5799 1026.27 93.2159C1026.08 92.8426 1025.82 92.5532 1025.47 92.3479C1025.14 92.1332 1024.75 92.0259 1024.31 92.0259C1023.87 92.0259 1023.48 92.1332 1023.13 92.3479C1022.79 92.5532 1022.52 92.8426 1022.34 93.2159C1022.15 93.5799 1022.06 93.9999 1022.06 94.4759C1022.06 94.9519 1022.15 95.3766 1022.34 95.7499C1022.52 96.1139 1022.79 96.4032 1023.13 96.6179C1023.48 96.8232 1023.87 96.9259 1024.31 96.9259ZM1032.55 98.1159C1032.03 98.1159 1031.57 97.9992 1031.17 97.7659C1030.77 97.5232 1030.47 97.1919 1030.24 96.7719C1030.03 96.3426 1029.92 95.8479 1029.92 95.2879V90.9479H1031.28V95.0219C1031.28 95.5819 1031.43 96.0346 1031.73 96.3799C1032.03 96.7252 1032.44 96.8979 1032.93 96.8979C1033.29 96.8979 1033.62 96.8092 1033.91 96.6319C1034.2 96.4452 1034.42 96.1932 1034.58 95.8759C1034.75 95.5492 1034.83 95.1806 1034.83 94.7699V90.9479H1036.19V98.0039H1034.83V96.7579C1034.65 97.1966 1034.35 97.5326 1033.95 97.7659C1033.55 97.9992 1033.08 98.1159 1032.55 98.1159ZM1038.73 90.9479H1040.09V92.1939C1040.27 91.7552 1040.56 91.4192 1040.95 91.1859C1041.35 90.9526 1041.82 90.8359 1042.35 90.8359C1042.88 90.8359 1043.34 90.9572 1043.74 91.1999C1044.14 91.4332 1044.45 91.7646 1044.66 92.1939C1044.88 92.6139 1044.99 93.1039 1044.99 93.6639V98.0039H1043.63V93.9299C1043.63 93.3699 1043.47 92.9172 1043.17 92.5719C1042.87 92.2266 1042.47 92.0539 1041.98 92.0539C1041.61 92.0539 1041.28 92.1472 1041 92.3339C1040.71 92.5112 1040.48 92.7632 1040.32 93.0899C1040.16 93.4072 1040.09 93.7712 1040.09 94.1819V98.0039H1038.73V90.9479ZM1050.28 98.0039C1049.8 98.0039 1049.39 97.9106 1049.03 97.7239C1048.68 97.5372 1048.4 97.2712 1048.21 96.9259C1048.02 96.5806 1047.93 96.1699 1047.93 95.6939V92.1239H1046.49V90.9479H1047.93V88.7359H1049.29V90.9479H1051.37V92.1239H1049.29V95.6519C1049.29 96.0252 1049.38 96.3146 1049.57 96.5199C1049.76 96.7252 1050.03 96.8279 1050.38 96.8279H1051.37V98.0039H1050.28ZM1055.6 98.1159C1055.03 98.1159 1054.54 98.0226 1054.13 97.8359C1053.72 97.6399 1053.39 97.3646 1053.16 97.0099C1052.93 96.6459 1052.79 96.2119 1052.75 95.7079H1054C1054.04 96.1186 1054.2 96.4406 1054.48 96.6739C1054.76 96.8979 1055.13 97.0099 1055.58 97.0099C1056 97.0099 1056.34 96.9166 1056.59 96.7299C1056.84 96.5432 1056.97 96.2912 1056.97 95.9739C1056.97 95.7312 1056.89 95.5446 1056.74 95.4139C1056.6 95.2832 1056.43 95.1899 1056.23 95.1339C1056.02 95.0686 1055.72 95.0032 1055.33 94.9379C1054.84 94.8539 1054.43 94.7606 1054.1 94.6579C1053.78 94.5459 1053.51 94.3546 1053.27 94.0839C1053.05 93.8132 1052.94 93.4306 1052.94 92.9359C1052.94 92.5346 1053.04 92.1752 1053.26 91.8579C1053.47 91.5312 1053.77 91.2792 1054.15 91.1019C1054.54 90.9246 1054.97 90.8359 1055.46 90.8359C1056 90.8359 1056.46 90.9246 1056.86 91.1019C1057.26 91.2699 1057.57 91.5219 1057.79 91.8579C1058.03 92.1846 1058.16 92.5766 1058.19 93.0339H1056.94C1056.9 92.6886 1056.75 92.4132 1056.48 92.2079C1056.22 92.0026 1055.88 91.8999 1055.47 91.8999C1055.11 91.8999 1054.8 91.9886 1054.56 92.1659C1054.32 92.3339 1054.2 92.5719 1054.2 92.8799C1054.2 93.1039 1054.26 93.2812 1054.39 93.4119C1054.53 93.5332 1054.71 93.6219 1054.91 93.6779C1055.13 93.7339 1055.42 93.7899 1055.79 93.8459C1056.31 93.9299 1056.73 94.0232 1057.05 94.1259C1057.39 94.2286 1057.67 94.4199 1057.89 94.6999C1058.13 94.9799 1058.24 95.3812 1058.24 95.9039C1058.24 96.3519 1058.14 96.7439 1057.92 97.0799C1057.71 97.4066 1057.4 97.6632 1057 97.8499C1056.6 98.0272 1056.14 98.1159 1055.6 98.1159Z" fill="white"/>
<g filter="url(#filter12_f_240_780)">
<path d="M1284.28 35.3015L1300.78 18.4593C1301.95 17.2674 1303.55 16.5957 1305.22 16.5957L1406.19 16.5957C1409.62 16.5957 1412.4 19.3761 1412.4 22.8058V102.689C1412.4 104.328 1411.76 105.9 1410.6 107.063L1391.79 126.028L1372.31 145.583C1371.14 146.753 1369.56 147.41 1367.91 147.41H1268.08C1264.66 147.41 1261.87 144.63 1261.87 141.2L1261.87 61.2158C1261.87 59.6165 1262.49 58.0788 1263.6 56.9231L1284.28 35.3015Z" fill="#FF5E01"/>
</g>
<path d="M1305.22 16.9062H1406.19C1409.45 16.9063 1412.09 19.5475 1412.09 22.8057V102.689C1412.09 104.246 1411.48 105.74 1410.38 106.845L1391.57 125.809L1372.09 145.363C1370.98 146.475 1369.48 147.1 1367.91 147.1H1268.08C1264.83 147.1 1262.19 144.458 1262.19 141.2L1262.18 61.2158C1262.18 59.6965 1262.77 58.2356 1263.82 57.1377L1284.5 35.5156L1301 18.6768C1302.11 17.5445 1303.63 16.9063 1305.22 16.9062Z" fill="#FF5100" stroke="white" stroke-width="0.621012"/>
<g filter="url(#filter13_f_240_780)">
<path d="M1289.71 40.1015L1304.33 25.182C1305.5 23.99 1307.1 23.3184 1308.77 23.3184L1398.46 23.3184C1401.89 23.3184 1404.67 26.0987 1404.67 29.5285V100.3C1404.67 101.939 1404.02 103.511 1402.87 104.674L1386.17 121.503L1368.88 138.86C1367.71 140.03 1366.13 140.687 1364.48 140.687H1275.82C1272.39 140.687 1269.61 137.907 1269.61 134.477L1269.61 63.6084C1269.61 62.0091 1270.23 60.4714 1271.33 59.3157L1289.71 40.1015Z" fill="#FF833B"/>
</g>
<g filter="url(#filter14_d_240_780)">
<path d="M1289.71 40.1015L1304.33 25.182C1305.5 23.99 1307.1 23.3184 1308.77 23.3184L1398.46 23.3184C1401.89 23.3184 1404.67 26.0987 1404.67 29.5285V100.3C1404.67 101.939 1404.02 103.511 1402.87 104.674L1386.17 121.503L1368.88 138.86C1367.71 140.03 1366.13 140.687 1364.48 140.687H1275.82C1272.39 140.687 1269.61 137.907 1269.61 134.477L1269.61 63.6084C1269.61 62.0091 1270.23 60.4714 1271.33 59.3157L1289.71 40.1015Z" fill="#FF5100"/>
<path d="M1308.77 23.6289H1398.46C1401.72 23.629 1404.36 26.2702 1404.36 29.5283V100.3C1404.36 101.856 1403.74 103.35 1402.65 104.455L1385.95 121.284L1368.66 138.641C1367.55 139.752 1366.05 140.377 1364.48 140.377H1275.82C1272.56 140.377 1269.92 137.736 1269.92 134.478L1269.92 63.6084C1269.92 62.0891 1270.51 60.6282 1271.56 59.5303L1289.94 40.3154L1304.55 25.3994C1305.66 24.2671 1307.18 23.6289 1308.77 23.6289Z" stroke="white" stroke-width="0.621012"/>
</g>
<path d="M1312.99 76.0039V66.2039H1316.82C1318.8 66.2039 1320 67.2399 1320 68.9199C1320 70.1099 1319.43 70.8939 1318.54 71.3419C1319.27 71.7619 1319.72 72.5459 1319.79 73.4979L1319.99 76.0039H1318.54L1318.35 73.6239C1318.29 72.7559 1317.73 72.1399 1316.89 72.1399H1314.44V76.0039H1312.99ZM1316.78 70.8519C1318.05 70.8519 1318.54 70.0259 1318.54 69.1439C1318.54 68.2479 1318.05 67.4639 1316.78 67.4639H1314.44V70.8519H1316.78ZM1325.32 76.1159C1323.13 76.1159 1321.79 74.3939 1321.79 72.4339C1321.79 70.4599 1323.02 68.8359 1325.19 68.8359C1327.36 68.8359 1328.52 70.3899 1328.52 72.1819C1328.52 72.3639 1328.51 72.6019 1328.5 72.7279H1323.12C1323.23 74.0439 1324.1 74.9539 1325.32 74.9539C1326.35 74.9539 1327.03 74.5059 1327.22 73.7079H1328.58C1328.34 75.1639 1327.07 76.1159 1325.32 76.1159ZM1323.16 71.6779H1327.15C1327.07 70.5999 1326.35 69.9279 1325.19 69.9279C1324.1 69.9279 1323.37 70.5299 1323.16 71.6779ZM1332.05 76.0039L1329.86 68.9479H1331.22L1332.68 74.1979L1334.27 68.9479H1335.56L1337.14 74.1979L1338.58 68.9479H1339.96L1337.77 76.0039H1336.51L1334.92 70.7399L1333.31 76.0039H1332.05ZM1343.71 76.1159C1342.27 76.1159 1341.3 75.2479 1341.3 73.9879C1341.3 72.6299 1342.39 71.7339 1344.05 71.7339H1345.53C1345.85 71.7339 1346.01 71.6219 1346.01 71.3699C1346.01 70.5159 1345.38 69.9279 1344.3 69.9279C1343.3 69.9279 1342.6 70.5439 1342.56 71.2579H1341.3C1341.41 69.8719 1342.66 68.8359 1344.34 68.8359C1346.16 68.8359 1347.35 69.8859 1347.35 71.4539V76.0039H1346.01V74.8419C1345.66 75.6119 1344.77 76.1159 1343.71 76.1159ZM1343.98 75.0379C1345.25 75.0379 1346.01 74.2119 1346.01 72.9099V72.7839H1344.19C1343.26 72.7839 1342.66 73.2179 1342.66 73.9599C1342.66 74.6039 1343.18 75.0379 1343.98 75.0379ZM1349.8 76.0039V68.9479H1351.16V70.3059C1351.48 69.3679 1352.04 68.9479 1353.03 68.9479H1353.89V70.1239H1352.86C1351.58 70.1239 1351.16 71.2719 1351.16 72.8119V76.0039H1349.8ZM1358.22 76.1159C1356.12 76.1159 1354.9 74.5619 1354.9 72.4759C1354.9 70.3899 1356.11 68.8359 1358.23 68.8359C1359.19 68.8359 1360.07 69.2839 1360.5 69.9839V65.9939H1361.86V76.0039H1360.5V74.9539C1360.08 75.6539 1359.19 76.1159 1358.22 76.1159ZM1358.44 74.9259C1359.75 74.9259 1360.6 73.9459 1360.6 72.4759C1360.6 71.0059 1359.75 70.0259 1358.44 70.0259C1357.13 70.0259 1356.27 71.0059 1356.27 72.4759C1356.27 73.9459 1357.13 74.9259 1358.44 74.9259ZM1308.58 98.0039L1312.43 88.2039H1313.78L1317.63 98.0039H1316.11L1315.18 95.5119H1311.03L1310.09 98.0039H1308.58ZM1311.51 94.2379H1314.7L1313.1 90.0239L1311.51 94.2379ZM1322.07 98.1159C1319.86 98.1159 1318.58 96.4219 1318.58 94.4759C1318.58 92.5299 1319.86 90.8359 1322.07 90.8359C1323.72 90.8359 1325.15 91.8159 1325.35 93.4119H1323.99C1323.86 92.6139 1323.06 92.0259 1322.1 92.0259C1320.7 92.0259 1320 93.1179 1320 94.4759C1320 95.8339 1320.71 96.9259 1322.11 96.9259C1323.08 96.9259 1323.78 96.4219 1324 95.6239H1325.35C1325.12 97.1079 1323.88 98.1159 1322.07 98.1159ZM1330.41 98.1159C1328.2 98.1159 1326.92 96.4219 1326.92 94.4759C1326.92 92.5299 1328.2 90.8359 1330.41 90.8359C1332.06 90.8359 1333.49 91.8159 1333.69 93.4119H1332.33C1332.2 92.6139 1331.4 92.0259 1330.44 92.0259C1329.04 92.0259 1328.34 93.1179 1328.34 94.4759C1328.34 95.8339 1329.05 96.9259 1330.45 96.9259C1331.42 96.9259 1332.12 96.4219 1332.34 95.6239H1333.69C1333.46 97.1079 1332.22 98.1159 1330.41 98.1159ZM1338.89 98.1159C1336.77 98.1159 1335.25 96.5899 1335.25 94.4759C1335.25 92.3619 1336.77 90.8359 1338.89 90.8359C1341 90.8359 1342.51 92.3619 1342.51 94.4759C1342.51 96.5899 1341 98.1159 1338.89 98.1159ZM1338.89 96.9259C1340.22 96.9259 1341.13 95.9179 1341.13 94.4759C1341.13 93.0339 1340.22 92.0259 1338.89 92.0259C1337.54 92.0259 1336.63 93.0339 1336.63 94.4759C1336.63 95.9179 1337.54 96.9259 1338.89 96.9259ZM1347.12 98.1159C1345.52 98.1159 1344.49 96.9679 1344.49 95.2879V90.9479H1345.84V95.0219C1345.84 96.1419 1346.5 96.8979 1347.5 96.8979C1348.6 96.8979 1349.4 96.0019 1349.4 94.7699V90.9479H1350.76V98.0039H1349.4V96.7579C1349.02 97.6399 1348.17 98.1159 1347.12 98.1159ZM1353.29 98.0039V90.9479H1354.65V92.1939C1355.03 91.3119 1355.87 90.8359 1356.92 90.8359C1358.51 90.8359 1359.55 91.9839 1359.55 93.6639V98.0039H1358.19V93.9299C1358.19 92.8099 1357.53 92.0539 1356.54 92.0539C1355.43 92.0539 1354.65 92.9499 1354.65 94.1819V98.0039H1353.29ZM1364.84 98.0039C1363.42 98.0039 1362.49 97.1359 1362.49 95.6939V92.1239H1361.05V90.9479H1362.49V88.7359H1363.85V90.9479H1365.94V92.1239H1363.85V95.6519C1363.85 96.4079 1364.27 96.8279 1364.94 96.8279H1365.94V98.0039H1364.84Z" fill="white"/>
<g filter="url(#filter15_f_240_780)">
<path d="M1595.81 35.3015L1612.31 18.4593C1613.48 17.2674 1615.08 16.5957 1616.75 16.5957L1717.72 16.5957C1721.15 16.5957 1723.93 19.3761 1723.93 22.8058V102.689C1723.93 104.328 1723.29 105.9 1722.13 107.063L1703.32 126.028L1683.84 145.583C1682.67 146.753 1681.09 147.41 1679.44 147.41H1579.62C1576.19 147.41 1573.41 144.63 1573.41 141.2L1573.4 61.2158C1573.4 59.6165 1574.02 58.0788 1575.13 56.9231L1595.81 35.3015Z" fill="#FF5E01"/>
</g>
<path d="M1616.75 16.9062H1717.72C1720.98 16.9063 1723.62 19.5475 1723.62 22.8057V102.689C1723.62 104.246 1723.01 105.74 1721.91 106.845L1703.1 125.809L1683.62 145.363C1682.51 146.475 1681.01 147.1 1679.44 147.1H1579.62C1576.36 147.1 1573.72 144.458 1573.72 141.2L1573.71 61.2158C1573.71 59.6965 1574.3 58.2356 1575.35 57.1377L1596.03 35.5156L1612.53 18.6768C1613.64 17.5445 1615.16 16.9063 1616.75 16.9062Z" fill="#FF5100" stroke="white" stroke-width="0.621012"/>
<g filter="url(#filter16_f_240_780)">
<path d="M1601.24 40.1015L1615.86 25.182C1617.03 23.99 1618.63 23.3184 1620.3 23.3184L1709.99 23.3184C1713.42 23.3184 1716.2 26.0987 1716.2 29.5285V100.3C1716.2 101.939 1715.55 103.511 1714.4 104.674L1697.7 121.503L1680.41 138.86C1679.24 140.03 1677.66 140.687 1676.01 140.687H1587.35C1583.92 140.687 1581.14 137.907 1581.14 134.477L1581.14 63.6084C1581.14 62.0091 1581.76 60.4714 1582.86 59.3157L1601.24 40.1015Z" fill="#FF833B"/>
</g>
<g filter="url(#filter17_d_240_780)">
<path d="M1601.24 40.1015L1615.86 25.182C1617.03 23.99 1618.63 23.3184 1620.3 23.3184L1709.99 23.3184C1713.42 23.3184 1716.2 26.0987 1716.2 29.5285V100.3C1716.2 101.939 1715.55 103.511 1714.4 104.674L1697.7 121.503L1680.41 138.86C1679.24 140.03 1677.66 140.687 1676.01 140.687H1587.35C1583.92 140.687 1581.14 137.907 1581.14 134.477L1581.14 63.6084C1581.14 62.0091 1581.76 60.4714 1582.86 59.3157L1601.24 40.1015Z" fill="#FF5100"/>
<path d="M1620.3 23.6289H1709.99C1713.25 23.629 1715.89 26.2702 1715.89 29.5283V100.3C1715.89 101.856 1715.27 103.35 1714.18 104.455L1697.48 121.284L1680.19 138.641C1679.08 139.752 1677.58 140.377 1676.01 140.377H1587.35C1584.09 140.377 1581.45 137.736 1581.45 134.478L1581.45 63.6084C1581.45 62.0891 1582.04 60.6282 1583.09 59.5303L1601.47 40.3154L1616.08 25.3994C1617.19 24.2671 1618.71 23.6289 1620.3 23.6289Z" stroke="white" stroke-width="0.621012"/>
</g>
<path d="M1605.89 66.2039H1609.73C1610.38 66.2039 1610.95 66.3159 1611.42 66.5399C1611.9 66.7546 1612.26 67.0672 1612.51 67.4779C1612.78 67.8886 1612.91 68.3692 1612.91 68.9199C1612.91 69.5546 1612.75 70.0866 1612.43 70.5159C1612.11 70.9452 1611.68 71.2672 1611.14 71.4819C1610.6 71.6872 1609.99 71.7899 1609.31 71.7899H1607.35V76.0039H1605.89V66.2039ZM1611.25 73.6239C1611.23 73.1852 1611.08 72.8306 1610.81 72.5599C1610.54 72.2799 1610.21 72.1399 1609.8 72.1399H1607.1V70.9779H1610.01C1610.78 70.9779 1611.41 71.2112 1611.88 71.6779C1612.37 72.1446 1612.64 72.7512 1612.7 73.4979L1612.89 76.0039H1611.45L1611.25 73.6239ZM1609.69 70.8519C1610.09 70.8519 1610.42 70.7772 1610.68 70.6279C1610.94 70.4692 1611.13 70.2592 1611.25 69.9979C1611.38 69.7366 1611.45 69.4519 1611.45 69.1439C1611.45 68.6492 1611.31 68.2479 1611.02 67.9399C1610.73 67.6226 1610.28 67.4639 1609.69 67.4639H1607.35V70.8519H1609.69ZM1618.24 76.1159C1617.53 76.1159 1616.91 75.9479 1616.38 75.6119C1615.84 75.2759 1615.43 74.8279 1615.14 74.2679C1614.85 73.7079 1614.71 73.0966 1614.71 72.4339C1614.71 71.7712 1614.84 71.1692 1615.12 70.6279C1615.39 70.0772 1615.78 69.6432 1616.29 69.3259C1616.8 68.9992 1617.41 68.8359 1618.11 68.8359C1618.81 68.8359 1619.41 68.9899 1619.9 69.2979C1620.41 69.5966 1620.79 70.0026 1621.05 70.5159C1621.31 71.0199 1621.44 71.5752 1621.44 72.1819C1621.44 72.3779 1621.43 72.5599 1621.42 72.7279H1615.49V71.6779H1620.07C1620.02 71.1366 1619.83 70.7119 1619.48 70.4039C1619.15 70.0866 1618.69 69.9279 1618.11 69.9279C1617.67 69.9279 1617.29 70.0259 1616.98 70.2219C1616.67 70.4086 1616.43 70.6886 1616.26 71.0619C1616.1 71.4352 1616.03 71.8879 1616.03 72.4199C1616.03 72.9146 1616.12 73.3532 1616.31 73.7359C1616.49 74.1186 1616.75 74.4172 1617.09 74.6319C1617.43 74.8466 1617.81 74.9539 1618.24 74.9539C1618.75 74.9539 1619.17 74.8466 1619.5 74.6319C1619.82 74.4172 1620.04 74.1092 1620.14 73.7079H1621.5C1621.38 74.4359 1621.02 75.0192 1620.44 75.4579C1619.85 75.8966 1619.11 76.1159 1618.24 76.1159ZM1626.45 76.1159C1625.76 76.1159 1625.16 75.9619 1624.66 75.6539C1624.16 75.3366 1623.78 74.9026 1623.52 74.3519C1623.26 73.8012 1623.13 73.1759 1623.13 72.4759C1623.13 71.7759 1623.26 71.1506 1623.52 70.5999C1623.78 70.0492 1624.17 69.6199 1624.67 69.3119C1625.18 68.9946 1625.77 68.8359 1626.46 68.8359C1626.94 68.8359 1627.38 68.9432 1627.79 69.1579C1628.2 69.3632 1628.52 69.6386 1628.73 69.9839V65.9939H1630.09V76.0039H1628.73V74.9539C1628.52 75.2992 1628.2 75.5792 1627.78 75.7939C1627.37 76.0086 1626.93 76.1159 1626.45 76.1159ZM1626.67 74.9259C1627.1 74.9259 1627.48 74.8232 1627.81 74.6179C1628.13 74.4126 1628.39 74.1279 1628.56 73.7639C1628.74 73.3906 1628.83 72.9612 1628.83 72.4759C1628.83 71.7386 1628.63 71.1459 1628.24 70.6979C1627.85 70.2499 1627.33 70.0259 1626.67 70.0259C1626.23 70.0259 1625.85 70.1286 1625.53 70.3339C1625.21 70.5392 1624.96 70.8286 1624.77 71.2019C1624.59 71.5659 1624.5 71.9906 1624.5 72.4759C1624.5 73.2132 1624.7 73.8059 1625.09 74.2539C1625.48 74.7019 1626.01 74.9259 1626.67 74.9259ZM1635.68 76.1159C1634.97 76.1159 1634.35 75.9479 1633.82 75.6119C1633.29 75.2759 1632.88 74.8279 1632.59 74.2679C1632.3 73.7079 1632.15 73.0966 1632.15 72.4339C1632.15 71.7712 1632.29 71.1692 1632.56 70.6279C1632.83 70.0772 1633.22 69.6432 1633.74 69.3259C1634.25 68.9992 1634.86 68.8359 1635.56 68.8359C1636.26 68.8359 1636.85 68.9899 1637.35 69.2979C1637.85 69.5966 1638.23 70.0026 1638.5 70.5159C1638.76 71.0199 1638.89 71.5752 1638.89 72.1819C1638.89 72.3779 1638.88 72.5599 1638.86 72.7279H1632.94V71.6779H1637.52C1637.47 71.1366 1637.27 70.7119 1636.93 70.4039C1636.59 70.0866 1636.13 69.9279 1635.56 69.9279C1635.12 69.9279 1634.74 70.0259 1634.42 70.2219C1634.11 70.4086 1633.88 70.6886 1633.71 71.0619C1633.55 71.4352 1633.47 71.8879 1633.47 72.4199C1633.47 72.9146 1633.56 73.3532 1633.75 73.7359C1633.94 74.1186 1634.2 74.4172 1634.53 74.6319C1634.87 74.8466 1635.25 74.9539 1635.68 74.9539C1636.19 74.9539 1636.61 74.8466 1636.94 74.6319C1637.27 74.4172 1637.48 74.1092 1637.59 73.7079H1638.94C1638.82 74.4359 1638.47 75.0192 1637.88 75.4579C1637.29 75.8966 1636.56 76.1159 1635.68 76.1159ZM1641.02 68.9479H1642.38V70.1939C1642.53 69.7832 1642.79 69.4566 1643.17 69.2139C1643.54 68.9619 1643.98 68.8359 1644.5 68.8359C1645.05 68.8359 1645.52 68.9666 1645.92 69.2279C1646.33 69.4799 1646.61 69.8346 1646.75 70.2919C1646.9 69.8719 1647.19 69.5266 1647.62 69.2559C1648.06 68.9759 1648.53 68.8359 1649.05 68.8359C1649.55 68.8359 1649.99 68.9479 1650.36 69.1719C1650.73 69.3866 1651.02 69.6992 1651.22 70.1099C1651.42 70.5112 1651.52 70.9826 1651.52 71.5239V76.0039H1650.17V71.9019C1650.17 71.3326 1650.03 70.8799 1649.76 70.5439C1649.5 70.1986 1649.13 70.0259 1648.67 70.0259C1648.32 70.0259 1648.02 70.1239 1647.76 70.3199C1647.5 70.5159 1647.3 70.7772 1647.16 71.1039C1647.02 71.4212 1646.95 71.7712 1646.95 72.1539V76.0039H1645.59V71.9019C1645.59 71.3326 1645.45 70.8799 1645.18 70.5439C1644.92 70.1986 1644.56 70.0259 1644.1 70.0259C1643.76 70.0259 1643.45 70.1239 1643.19 70.3199C1642.93 70.5159 1642.73 70.7772 1642.59 71.1039C1642.45 71.4212 1642.38 71.7712 1642.38 72.1539V76.0039H1641.02V68.9479ZM1653.97 68.9479H1655.33V69.9839C1655.54 69.6386 1655.86 69.3632 1656.27 69.1579C1656.68 68.9432 1657.12 68.8359 1657.58 68.8359C1658.28 68.8359 1658.88 68.9946 1659.37 69.3119C1659.88 69.6199 1660.26 70.0492 1660.52 70.5999C1660.79 71.1506 1660.93 71.7759 1660.93 72.4759C1660.93 73.1759 1660.79 73.8012 1660.52 74.3519C1660.26 74.9026 1659.88 75.3366 1659.37 75.6539C1658.88 75.9619 1658.29 76.1159 1657.6 76.1159C1657.12 76.1159 1656.67 76.0086 1656.25 75.7939C1655.84 75.5792 1655.53 75.2992 1655.33 74.9539V78.8599H1653.97V68.9479ZM1657.39 74.9259C1657.82 74.9259 1658.19 74.8232 1658.52 74.6179C1658.85 74.4126 1659.1 74.1279 1659.28 73.7639C1659.46 73.3906 1659.56 72.9612 1659.56 72.4759C1659.56 71.7386 1659.36 71.1459 1658.95 70.6979C1658.56 70.2499 1658.04 70.0259 1657.39 70.0259C1656.96 70.0259 1656.58 70.1286 1656.25 70.3339C1655.93 70.5392 1655.67 70.8286 1655.48 71.2019C1655.3 71.5659 1655.22 71.9906 1655.22 72.4759C1655.22 73.2132 1655.41 73.8059 1655.8 74.2539C1656.21 74.7019 1656.73 74.9259 1657.39 74.9259ZM1665.85 76.0039C1665.38 76.0039 1664.96 75.9106 1664.61 75.7239C1664.25 75.5372 1663.98 75.2712 1663.78 74.9259C1663.59 74.5806 1663.5 74.1699 1663.5 73.6939V70.1239H1662.06V68.9479H1663.5V66.7359H1664.86V68.9479H1666.94V70.1239H1664.86V73.6519C1664.86 74.0252 1664.95 74.3146 1665.14 74.5199C1665.33 74.7252 1665.6 74.8279 1665.95 74.8279H1666.94V76.0039H1665.85ZM1668.84 68.9479H1670.2V76.0039H1668.84V68.9479ZM1670.27 65.9939V67.7019H1668.76V65.9939H1670.27ZM1675.9 76.1159C1675.2 76.1159 1674.58 75.9619 1674.03 75.6539C1673.48 75.3366 1673.04 74.9026 1672.73 74.3519C1672.42 73.8012 1672.26 73.1759 1672.26 72.4759C1672.26 71.7759 1672.42 71.1506 1672.73 70.5999C1673.04 70.0492 1673.48 69.6199 1674.03 69.3119C1674.58 68.9946 1675.2 68.8359 1675.9 68.8359C1676.59 68.8359 1677.22 68.9946 1677.77 69.3119C1678.32 69.6199 1678.75 70.0492 1679.05 70.5999C1679.37 71.1506 1679.53 71.7759 1679.53 72.4759C1679.53 73.1759 1679.37 73.8012 1679.05 74.3519C1678.75 74.9026 1678.32 75.3366 1677.77 75.6539C1677.22 75.9619 1676.59 76.1159 1675.9 76.1159ZM1675.9 74.9259C1676.34 74.9259 1676.73 74.8232 1677.07 74.6179C1677.41 74.4032 1677.68 74.1139 1677.86 73.7499C1678.05 73.3766 1678.14 72.9519 1678.14 72.4759C1678.14 71.9999 1678.05 71.5799 1677.86 71.2159C1677.68 70.8426 1677.41 70.5532 1677.07 70.3479C1676.73 70.1332 1676.34 70.0259 1675.9 70.0259C1675.47 70.0259 1675.07 70.1332 1674.73 70.3479C1674.38 70.5532 1674.12 70.8426 1673.93 71.2159C1673.74 71.5799 1673.65 71.9999 1673.65 72.4759C1673.65 72.9519 1673.74 73.3766 1673.93 73.7499C1674.12 74.1139 1674.38 74.4032 1674.73 74.6179C1675.07 74.8232 1675.47 74.9259 1675.9 74.9259ZM1681.61 68.9479H1682.97V70.1939C1683.16 69.7552 1683.45 69.4192 1683.84 69.1859C1684.24 68.9526 1684.71 68.8359 1685.24 68.8359C1685.76 68.8359 1686.22 68.9572 1686.62 69.1999C1687.03 69.4332 1687.33 69.7646 1687.55 70.1939C1687.76 70.6139 1687.87 71.1039 1687.87 71.6639V76.0039H1686.51V71.9299C1686.51 71.3699 1686.36 70.9172 1686.05 70.5719C1685.75 70.2266 1685.36 70.0539 1684.86 70.0539C1684.5 70.0539 1684.17 70.1472 1683.88 70.3339C1683.59 70.5112 1683.37 70.7632 1683.21 71.0899C1683.05 71.4072 1682.97 71.7712 1682.97 72.1819V76.0039H1681.61V68.9479ZM1623.45 88.2039H1624.8L1628.65 98.0039H1627.13L1624.12 90.0239L1621.11 98.0039H1619.6L1623.45 88.2039ZM1621.79 94.2379H1626.46L1626.67 95.5119H1621.58L1621.79 94.2379ZM1633.09 98.1159C1632.37 98.1159 1631.75 97.9526 1631.21 97.6259C1630.69 97.2899 1630.29 96.8466 1630.01 96.2959C1629.74 95.7359 1629.6 95.1292 1629.6 94.4759C1629.6 93.8226 1629.74 93.2206 1630.01 92.6699C1630.29 92.1099 1630.69 91.6666 1631.21 91.3399C1631.75 91.0039 1632.37 90.8359 1633.09 90.8359C1633.64 90.8359 1634.15 90.9432 1634.63 91.1579C1635.12 91.3632 1635.51 91.6619 1635.82 92.0539C1636.13 92.4366 1636.31 92.8892 1636.37 93.4119H1635.01C1634.94 93.0106 1634.73 92.6792 1634.36 92.4179C1634.01 92.1566 1633.59 92.0259 1633.12 92.0259C1632.66 92.0259 1632.27 92.1332 1631.96 92.3479C1631.65 92.5626 1631.41 92.8566 1631.26 93.2299C1631.1 93.6032 1631.02 94.0186 1631.02 94.4759C1631.02 95.1852 1631.2 95.7732 1631.56 96.2399C1631.93 96.6972 1632.45 96.9259 1633.13 96.9259C1633.61 96.9259 1634.01 96.8092 1634.35 96.5759C1634.69 96.3426 1634.91 96.0252 1635.02 95.6239H1636.37C1636.29 96.1186 1636.11 96.5526 1635.82 96.9259C1635.53 97.2992 1635.15 97.5932 1634.69 97.8079C1634.22 98.0132 1633.69 98.1159 1633.09 98.1159ZM1641.43 98.1159C1640.71 98.1159 1640.09 97.9526 1639.55 97.6259C1639.03 97.2899 1638.63 96.8466 1638.35 96.2959C1638.08 95.7359 1637.94 95.1292 1637.94 94.4759C1637.94 93.8226 1638.08 93.2206 1638.35 92.6699C1638.63 92.1099 1639.03 91.6666 1639.55 91.3399C1640.09 91.0039 1640.71 90.8359 1641.43 90.8359C1641.98 90.8359 1642.49 90.9432 1642.97 91.1579C1643.45 91.3632 1643.85 91.6619 1644.16 92.0539C1644.47 92.4366 1644.65 92.8892 1644.71 93.4119H1643.35C1643.28 93.0106 1643.07 92.6792 1642.7 92.4179C1642.35 92.1566 1641.93 92.0259 1641.46 92.0259C1641 92.0259 1640.61 92.1332 1640.3 92.3479C1639.99 92.5626 1639.75 92.8566 1639.6 93.2299C1639.44 93.6032 1639.36 94.0186 1639.36 94.4759C1639.36 95.1852 1639.54 95.7732 1639.9 96.2399C1640.27 96.6972 1640.79 96.9259 1641.47 96.9259C1641.95 96.9259 1642.35 96.8092 1642.69 96.5759C1643.03 96.3426 1643.25 96.0252 1643.36 95.6239H1644.71C1644.63 96.1186 1644.45 96.5526 1644.16 96.9259C1643.87 97.2992 1643.49 97.5932 1643.03 97.8079C1642.56 98.0132 1642.03 98.1159 1641.43 98.1159ZM1649.91 98.1159C1649.21 98.1159 1648.58 97.9619 1648.03 97.6539C1647.48 97.3366 1647.05 96.9026 1646.73 96.3519C1646.42 95.8012 1646.27 95.1759 1646.27 94.4759C1646.27 93.7759 1646.42 93.1506 1646.73 92.5999C1647.05 92.0492 1647.48 91.6199 1648.03 91.3119C1648.58 90.9946 1649.21 90.8359 1649.91 90.8359C1650.6 90.8359 1651.22 90.9946 1651.77 91.3119C1652.32 91.6199 1652.75 92.0492 1653.06 92.5999C1653.38 93.1506 1653.53 93.7759 1653.53 94.4759C1653.53 95.1759 1653.38 95.8012 1653.06 96.3519C1652.75 96.9026 1652.32 97.3366 1651.77 97.6539C1651.22 97.9619 1650.6 98.1159 1649.91 98.1159ZM1649.91 96.9259C1650.35 96.9259 1650.73 96.8232 1651.07 96.6179C1651.42 96.4032 1651.68 96.1139 1651.87 95.7499C1652.06 95.3766 1652.15 94.9519 1652.15 94.4759C1652.15 93.9999 1652.06 93.5799 1651.87 93.2159C1651.68 92.8426 1651.42 92.5532 1651.07 92.3479C1650.73 92.1332 1650.35 92.0259 1649.91 92.0259C1649.47 92.0259 1649.08 92.1332 1648.73 92.3479C1648.39 92.5532 1648.12 92.8426 1647.93 93.2159C1647.75 93.5799 1647.65 93.9999 1647.65 94.4759C1647.65 94.9519 1647.75 95.3766 1647.93 95.7499C1648.12 96.1139 1648.39 96.4032 1648.73 96.6179C1649.08 96.8232 1649.47 96.9259 1649.91 96.9259ZM1658.15 98.1159C1657.63 98.1159 1657.17 97.9992 1656.77 97.7659C1656.37 97.5232 1656.07 97.1919 1655.84 96.7719C1655.63 96.3426 1655.52 95.8479 1655.52 95.2879V90.9479H1656.88V95.0219C1656.88 95.5819 1657.03 96.0346 1657.33 96.3799C1657.63 96.7252 1658.03 96.8979 1658.53 96.8979C1658.89 96.8979 1659.22 96.8092 1659.51 96.6319C1659.8 96.4452 1660.02 96.1932 1660.18 95.8759C1660.35 95.5492 1660.43 95.1806 1660.43 94.7699V90.9479H1661.79V98.0039H1660.43V96.7579C1660.25 97.1966 1659.95 97.5326 1659.55 97.7659C1659.15 97.9992 1658.68 98.1159 1658.15 98.1159ZM1664.33 90.9479H1665.68V92.1939C1665.87 91.7552 1666.16 91.4192 1666.55 91.1859C1666.95 90.9526 1667.42 90.8359 1667.95 90.8359C1668.47 90.8359 1668.94 90.9572 1669.34 91.1999C1669.74 91.4332 1670.05 91.7646 1670.26 92.1939C1670.48 92.6139 1670.58 93.1039 1670.58 93.6639V98.0039H1669.23V93.9299C1669.23 93.3699 1669.07 92.9172 1668.76 92.5719C1668.47 92.2266 1668.07 92.0539 1667.57 92.0539C1667.21 92.0539 1666.88 92.1472 1666.59 92.3339C1666.3 92.5112 1666.08 92.7632 1665.92 93.0899C1665.76 93.4072 1665.68 93.7712 1665.68 94.1819V98.0039H1664.33V90.9479ZM1675.88 98.0039C1675.4 98.0039 1674.99 97.9106 1674.63 97.7239C1674.28 97.5372 1674 97.2712 1673.81 96.9259C1673.62 96.5806 1673.53 96.1699 1673.53 95.6939V92.1239H1672.08V90.9479H1673.53V88.7359H1674.88V90.9479H1676.97V92.1239H1674.88V95.6519C1674.88 96.0252 1674.98 96.3146 1675.16 96.5199C1675.36 96.7252 1675.63 96.8279 1675.98 96.8279H1676.97V98.0039H1675.88Z" fill="white"/>
<defs>
<filter id="filter0_f_240_780" x="10.7839" y="11.6276" width="160.466" height="140.751" filterUnits="userSpaceOnUse" color-interpolation-filters="sRGB">
<feFlood flood-opacity="0" result="BackgroundImageFix"/>
<feBlend mode="normal" in="SourceGraphic" in2="BackgroundImageFix" result="shape"/>
<feGaussianBlur stdDeviation="2.48405" result="effect1_foregroundBlur_240_780"/>
</filter>
<filter id="filter1_f_240_780" x="0.572441" y="0.403008" width="180.889" height="163.2" filterUnits="userSpaceOnUse" color-interpolation-filters="sRGB">
<feFlood flood-opacity="0" result="BackgroundImageFix"/>
<feBlend mode="normal" in="SourceGraphic" in2="BackgroundImageFix" result="shape"/>
<feGaussianBlur stdDeviation="11.4577" result="effect1_foregroundBlur_240_780"/>
</filter>
<filter id="filter2_d_240_780" x="7.52778" y="7.97936" width="170.705" height="153.015" filterUnits="userSpaceOnUse" color-interpolation-filters="sRGB">
<feFlood flood-opacity="0" result="BackgroundImageFix"/>
<feColorMatrix in="SourceAlpha" type="matrix" values="0 0 0 0 0 0 0 0 0 0 0 0 0 0 0 0 0 0 127 0" result="hardAlpha"/>
<feOffset dx="1.86304" dy="2.48405"/>
<feGaussianBlur stdDeviation="8.91153"/>
<feComposite in2="hardAlpha" operator="out"/>
<feColorMatrix type="matrix" values="0 0 0 0 1 0 0 0 0 1 0 0 0 0 1 0 0 0 0.25 0"/>
<feBlend mode="normal" in2="BackgroundImageFix" result="effect1_dropShadow_240_780"/>
<feBlend mode="normal" in="SourceGraphic" in2="effect1_dropShadow_240_780" result="shape"/>
</filter>
<filter id="filter3_f_240_780" x="322.314" y="11.6276" width="160.466" height="140.751" filterUnits="userSpaceOnUse" color-interpolation-filters="sRGB">
<feFlood flood-opacity="0" result="BackgroundImageFix"/>
<feBlend mode="normal" in="SourceGraphic" in2="BackgroundImageFix" result="shape"/>
<feGaussianBlur stdDeviation="2.48405" result="effect1_foregroundBlur_240_780"/>
</filter>
<filter id="filter4_f_240_780" x="312.103" y="0.403008" width="180.889" height="163.2" filterUnits="userSpaceOnUse" color-interpolation-filters="sRGB">
<feFlood flood-opacity="0" result="BackgroundImageFix"/>
<feBlend mode="normal" in="SourceGraphic" in2="BackgroundImageFix" result="shape"/>
<feGaussianBlur stdDeviation="11.4577" result="effect1_foregroundBlur_240_780"/>
</filter>
<filter id="filter5_d_240_780" x="319.058" y="7.97936" width="170.705" height="153.015" filterUnits="userSpaceOnUse" color-interpolation-filters="sRGB">
<feFlood flood-opacity="0" result="BackgroundImageFix"/>
<feColorMatrix in="SourceAlpha" type="matrix" values="0 0 0 0 0 0 0 0 0 0 0 0 0 0 0 0 0 0 127 0" result="hardAlpha"/>
<feOffset dx="1.86304" dy="2.48405"/>
<feGaussianBlur stdDeviation="8.91153"/>
<feComposite in2="hardAlpha" operator="out"/>
<feColorMatrix type="matrix" values="0 0 0 0 1 0 0 0 0 1 0 0 0 0 1 0 0 0 0.25 0"/>
<feBlend mode="normal" in2="BackgroundImageFix" result="effect1_dropShadow_240_780"/>
<feBlend mode="normal" in="SourceGraphic" in2="effect1_dropShadow_240_780" result="shape"/>
</filter>
<filter id="filter6_f_240_780" x="633.845" y="11.6276" width="160.466" height="140.751" filterUnits="userSpaceOnUse" color-interpolation-filters="sRGB">
<feFlood flood-opacity="0" result="BackgroundImageFix"/>
<feBlend mode="normal" in="SourceGraphic" in2="BackgroundImageFix" result="shape"/>
<feGaussianBlur stdDeviation="2.48405" result="effect1_foregroundBlur_240_780"/>
</filter>
<filter id="filter7_f_240_780" x="623.633" y="0.403008" width="180.889" height="163.2" filterUnits="userSpaceOnUse" color-interpolation-filters="sRGB">
<feFlood flood-opacity="0" result="BackgroundImageFix"/>
<feBlend mode="normal" in="SourceGraphic" in2="BackgroundImageFix" result="shape"/>
<feGaussianBlur stdDeviation="11.4577" result="effect1_foregroundBlur_240_780"/>
</filter>
<filter id="filter8_d_240_780" x="630.589" y="7.97936" width="170.705" height="153.015" filterUnits="userSpaceOnUse" color-interpolation-filters="sRGB">
<feFlood flood-opacity="0" result="BackgroundImageFix"/>
<feColorMatrix in="SourceAlpha" type="matrix" values="0 0 0 0 0 0 0 0 0 0 0 0 0 0 0 0 0 0 127 0" result="hardAlpha"/>
<feOffset dx="1.86304" dy="2.48405"/>
<feGaussianBlur stdDeviation="8.91153"/>
<feComposite in2="hardAlpha" operator="out"/>
<feColorMatrix type="matrix" values="0 0 0 0 1 0 0 0 0 1 0 0 0 0 1 0 0 0 0.25 0"/>
<feBlend mode="normal" in2="BackgroundImageFix" result="effect1_dropShadow_240_780"/>
<feBlend mode="normal" in="SourceGraphic" in2="effect1_dropShadow_240_780" result="shape"/>
</filter>
<filter id="filter9_f_240_780" x="945.375" y="11.6276" width="160.466" height="140.751" filterUnits="userSpaceOnUse" color-interpolation-filters="sRGB">
<feFlood flood-opacity="0" result="BackgroundImageFix"/>
<feBlend mode="normal" in="SourceGraphic" in2="BackgroundImageFix" result="shape"/>
<feGaussianBlur stdDeviation="2.48405" result="effect1_foregroundBlur_240_780"/>
</filter>
<filter id="filter10_f_240_780" x="935.164" y="0.403008" width="180.889" height="163.2" filterUnits="userSpaceOnUse" color-interpolation-filters="sRGB">
<feFlood flood-opacity="0" result="BackgroundImageFix"/>
<feBlend mode="normal" in="SourceGraphic" in2="BackgroundImageFix" result="shape"/>
<feGaussianBlur stdDeviation="11.4577" result="effect1_foregroundBlur_240_780"/>
</filter>
<filter id="filter11_d_240_780" x="942.119" y="7.97936" width="170.705" height="153.015" filterUnits="userSpaceOnUse" color-interpolation-filters="sRGB">
<feFlood flood-opacity="0" result="BackgroundImageFix"/>
<feColorMatrix in="SourceAlpha" type="matrix" values="0 0 0 0 0 0 0 0 0 0 0 0 0 0 0 0 0 0 127 0" result="hardAlpha"/>
<feOffset dx="1.86304" dy="2.48405"/>
<feGaussianBlur stdDeviation="8.91153"/>
<feComposite in2="hardAlpha" operator="out"/>
<feColorMatrix type="matrix" values="0 0 0 0 1 0 0 0 0 1 0 0 0 0 1 0 0 0 0.25 0"/>
<feBlend mode="normal" in2="BackgroundImageFix" result="effect1_dropShadow_240_780"/>
<feBlend mode="normal" in="SourceGraphic" in2="effect1_dropShadow_240_780" result="shape"/>
</filter>
<filter id="filter12_f_240_780" x="1256.91" y="11.6276" width="160.466" height="140.751" filterUnits="userSpaceOnUse" color-interpolation-filters="sRGB">
<feFlood flood-opacity="0" result="BackgroundImageFix"/>
<feBlend mode="normal" in="SourceGraphic" in2="BackgroundImageFix" result="shape"/>
<feGaussianBlur stdDeviation="2.48405" result="effect1_foregroundBlur_240_780"/>
</filter>
<filter id="filter13_f_240_780" x="1246.69" y="0.403008" width="180.889" height="163.2" filterUnits="userSpaceOnUse" color-interpolation-filters="sRGB">
<feFlood flood-opacity="0" result="BackgroundImageFix"/>
<feBlend mode="normal" in="SourceGraphic" in2="BackgroundImageFix" result="shape"/>
<feGaussianBlur stdDeviation="11.4577" result="effect1_foregroundBlur_240_780"/>
</filter>
<filter id="filter14_d_240_780" x="1253.65" y="7.97936" width="170.705" height="153.015" filterUnits="userSpaceOnUse" color-interpolation-filters="sRGB">
<feFlood flood-opacity="0" result="BackgroundImageFix"/>
<feColorMatrix in="SourceAlpha" type="matrix" values="0 0 0 0 0 0 0 0 0 0 0 0 0 0 0 0 0 0 127 0" result="hardAlpha"/>
<feOffset dx="1.86304" dy="2.48405"/>
<feGaussianBlur stdDeviation="8.91153"/>
<feComposite in2="hardAlpha" operator="out"/>
<feColorMatrix type="matrix" values="0 0 0 0 1 0 0 0 0 1 0 0 0 0 1 0 0 0 0.25 0"/>
<feBlend mode="normal" in2="BackgroundImageFix" result="effect1_dropShadow_240_780"/>
<feBlend mode="normal" in="SourceGraphic" in2="effect1_dropShadow_240_780" result="shape"/>
</filter>
<filter id="filter15_f_240_780" x="1568.44" y="11.6276" width="160.466" height="140.751" filterUnits="userSpaceOnUse" color-interpolation-filters="sRGB">
<feFlood flood-opacity="0" result="BackgroundImageFix"/>
<feBlend mode="normal" in="SourceGraphic" in2="BackgroundImageFix" result="shape"/>
<feGaussianBlur stdDeviation="2.48405" result="effect1_foregroundBlur_240_780"/>
</filter>
<filter id="filter16_f_240_780" x="1558.22" y="0.403008" width="180.889" height="163.2" filterUnits="userSpaceOnUse" color-interpolation-filters="sRGB">
<feFlood flood-opacity="0" result="BackgroundImageFix"/>
<feBlend mode="normal" in="SourceGraphic" in2="BackgroundImageFix" result="shape"/>
<feGaussianBlur stdDeviation="11.4577" result="effect1_foregroundBlur_240_780"/>
</filter>
<filter id="filter17_d_240_780" x="1565.18" y="7.97936" width="170.705" height="153.015" filterUnits="userSpaceOnUse" color-interpolation-filters="sRGB">
<feFlood flood-opacity="0" result="BackgroundImageFix"/>
<feColorMatrix in="SourceAlpha" type="matrix" values="0 0 0 0 0 0 0 0 0 0 0 0 0 0 0 0 0 0 127 0" result="hardAlpha"/>
<feOffset dx="1.86304" dy="2.48405"/>
<feGaussianBlur stdDeviation="8.91153"/>
<feComposite in2="hardAlpha" operator="out"/>
<feColorMatrix type="matrix" values="0 0 0 0 1 0 0 0 0 1 0 0 0 0 1 0 0 0 0.25 0"/>
<feBlend mode="normal" in2="BackgroundImageFix" result="effect1_dropShadow_240_780"/>
<feBlend mode="normal" in="SourceGraphic" in2="effect1_dropShadow_240_780" result="shape"/>
</filter>
</defs>
</svg>
