<svg width="1160" height="1492" viewBox="0 0 1160 1492" fill="none" xmlns="http://www.w3.org/2000/svg">
<g filter="url(#filter0_f_210_18512)">
<path d="M435.466 157.309L462.042 130.188C463.923 128.269 466.497 127.188 469.185 127.188L631.784 127.188C637.307 127.188 641.784 131.665 641.784 137.188V265.822C641.784 268.46 640.741 270.992 638.883 272.865L608.582 303.403L577.217 334.892C575.341 336.776 572.791 337.835 570.132 337.835H409.39C403.867 337.835 399.39 333.358 399.39 327.835L399.389 199.038C399.389 196.463 400.382 193.987 402.162 192.126L435.466 157.309Z" fill="#FF5E01"/>
</g>
<path d="M469.185 127.688H631.784C637.031 127.688 641.284 131.941 641.284 137.188V265.821C641.284 268.171 640.413 270.432 638.85 272.172L638.527 272.513L608.228 303.051L576.863 334.539C575.081 336.329 572.659 337.335 570.133 337.335H409.39C404.143 337.335 399.89 333.081 399.89 327.835L399.889 199.038L399.899 198.581C400.002 196.452 400.818 194.419 402.216 192.81L402.523 192.472L435.822 157.658L435.823 157.659L462.399 130.538C464.074 128.829 466.328 127.819 468.707 127.699L469.185 127.688Z" fill="#FF5100" stroke="white"/>
<g filter="url(#filter1_f_210_18512)">
<path d="M444.215 165.038L467.757 141.014C469.638 139.095 472.212 138.013 474.9 138.013L619.327 138.013C624.85 138.013 629.327 142.49 629.327 148.013V261.975C629.327 264.613 628.284 267.145 626.426 269.018L599.538 296.117L571.698 324.066C569.821 325.95 567.272 327.009 564.613 327.009H421.847C416.324 327.009 411.847 322.532 411.847 317.009L411.846 202.891C411.846 200.316 412.839 197.84 414.619 195.979L444.215 165.038Z" fill="#FF833B"/>
</g>
<g filter="url(#filter2_d_210_18512)">
<path d="M444.215 165.038L467.757 141.014C469.638 139.095 472.212 138.013 474.9 138.013L619.327 138.013C624.85 138.013 629.327 142.49 629.327 148.013V261.975C629.327 264.613 628.284 267.145 626.426 269.018L599.538 296.117L571.698 324.066C569.821 325.95 567.272 327.009 564.613 327.009H421.847C416.324 327.009 411.847 322.532 411.847 317.009L411.846 202.891C411.846 200.316 412.839 197.84 414.619 195.979L444.215 165.038Z" fill="#FF5100"/>
<path d="M474.899 138.513H619.327C624.574 138.513 628.827 142.766 628.827 148.013V261.975C628.827 264.325 627.956 266.585 626.393 268.324L626.07 268.665L599.184 295.764L571.344 323.713C569.561 325.503 567.139 326.509 564.613 326.509H421.847C416.6 326.509 412.347 322.256 412.347 317.009L412.346 202.891L412.356 202.434C412.459 200.305 413.275 198.272 414.673 196.662L414.98 196.324L444.576 165.384L444.575 165.383L468.114 141.364C469.789 139.654 472.043 138.644 474.422 138.525L474.899 138.513Z" stroke="white"/>
</g>
<path d="M481.107 228.511V211.711H486.267C490.947 211.711 494.739 214.639 494.739 220.111C494.739 225.583 490.947 228.511 486.267 228.511H481.107ZM486.123 226.303C489.243 226.303 492.171 224.551 492.171 220.111C492.171 215.671 489.243 213.919 486.123 213.919H483.603V226.303H486.123ZM498.374 228.511V216.415H500.702V228.511H498.374ZM498.23 211.351H500.822V214.279H498.23V211.351ZM505.893 233.407V231.463H511.485C512.901 231.463 513.885 230.431 513.885 228.943V226.975C513.285 228.007 511.725 228.703 509.973 228.703C506.373 228.703 504.285 226.039 504.285 222.463C504.285 218.887 506.349 216.223 509.997 216.223C511.557 216.223 513.117 216.943 513.885 218.023V216.415H516.213V229.087C516.213 231.679 514.437 233.407 511.725 233.407H505.893ZM510.357 226.663C512.589 226.663 514.053 224.983 514.053 222.463C514.053 219.943 512.589 218.263 510.357 218.263C508.101 218.263 506.637 219.943 506.637 222.463C506.637 224.983 508.101 226.663 510.357 226.663ZM520.591 228.511V216.415H522.919V228.511H520.591ZM520.447 211.351H523.039V214.279H520.447V211.351ZM532.334 228.511C529.886 228.511 528.302 227.023 528.302 224.551V218.431H525.83V216.415H528.302V212.623H530.63V216.415H534.206V218.431H530.63V224.479C530.63 225.775 531.35 226.495 532.502 226.495H534.206V228.511H532.334ZM541.016 228.703C538.544 228.703 536.888 227.215 536.888 225.055C536.888 222.727 538.76 221.191 541.592 221.191H544.136C544.688 221.191 544.952 220.999 544.952 220.567C544.952 219.103 543.872 218.095 542.024 218.095C540.32 218.095 539.12 219.151 539.048 220.375H536.888C537.08 217.999 539.216 216.223 542.096 216.223C545.216 216.223 547.256 218.023 547.256 220.711V228.511H544.952V226.519C544.352 227.839 542.84 228.703 541.016 228.703ZM541.472 226.855C543.656 226.855 544.952 225.439 544.952 223.207V222.991H541.832C540.248 222.991 539.216 223.735 539.216 225.007C539.216 226.111 540.104 226.855 541.472 226.855ZM551.456 228.511V211.351H553.784V228.511H551.456ZM465.177 262.511L471.777 245.711H474.081L480.681 262.511H478.089L476.481 258.239H469.377L467.769 262.511H465.177ZM470.193 256.055H475.665L472.929 248.831L470.193 256.055ZM488.3 262.703C484.508 262.703 482.324 259.799 482.324 256.463C482.324 253.127 484.508 250.223 488.3 250.223C491.132 250.223 493.58 251.903 493.916 254.639H491.588C491.372 253.271 490.004 252.263 488.348 252.263C485.948 252.263 484.748 254.135 484.748 256.463C484.748 258.791 485.972 260.663 488.372 260.663C490.028 260.663 491.228 259.799 491.612 258.431H493.916C493.532 260.975 491.396 262.703 488.3 262.703ZM502.596 262.703C498.804 262.703 496.62 259.799 496.62 256.463C496.62 253.127 498.804 250.223 502.596 250.223C505.428 250.223 507.876 251.903 508.212 254.639H505.884C505.668 253.271 504.3 252.263 502.644 252.263C500.244 252.263 499.044 254.135 499.044 256.463C499.044 258.791 500.268 260.663 502.668 260.663C504.324 260.663 505.524 259.799 505.908 258.431H508.212C507.828 260.975 505.692 262.703 502.596 262.703ZM517.132 262.703C513.508 262.703 510.892 260.087 510.892 256.463C510.892 252.839 513.508 250.223 517.132 250.223C520.756 250.223 523.348 252.839 523.348 256.463C523.348 260.087 520.756 262.703 517.132 262.703ZM517.132 260.663C519.412 260.663 520.972 258.935 520.972 256.463C520.972 253.991 519.412 252.263 517.132 252.263C514.828 252.263 513.268 253.991 513.268 256.463C513.268 258.935 514.828 260.663 517.132 260.663ZM531.239 262.703C528.503 262.703 526.727 260.735 526.727 257.855V250.415H529.055V257.399C529.055 259.319 530.183 260.615 531.887 260.615C533.783 260.615 535.151 259.079 535.151 256.967V250.415H537.479V262.511H535.151V260.375C534.503 261.887 533.039 262.703 531.239 262.703ZM541.824 262.511V250.415H544.152V252.551C544.8 251.039 546.24 250.223 548.04 250.223C550.776 250.223 552.552 252.191 552.552 255.071V262.511H550.224V255.527C550.224 253.607 549.096 252.311 547.392 252.311C545.496 252.311 544.152 253.847 544.152 255.959V262.511H541.824ZM561.629 262.511C559.181 262.511 557.597 261.023 557.597 258.551V252.431H555.125V250.415H557.597V246.623H559.925V250.415H563.501V252.431H559.925V258.479C559.925 259.775 560.645 260.495 561.797 260.495H563.501V262.511H561.629ZM570.743 262.703C567.815 262.703 566.063 261.191 565.871 258.575H568.007C568.127 259.967 569.159 260.807 570.719 260.807C572.159 260.807 573.095 260.111 573.095 259.031C573.095 256.079 566.183 258.647 566.183 253.823C566.183 251.687 567.983 250.223 570.503 250.223C573.311 250.223 575.015 251.639 575.183 253.991H573.047C572.927 252.815 571.919 252.047 570.527 252.047C569.327 252.047 568.343 252.647 568.343 253.727C568.343 256.583 575.279 253.871 575.279 258.911C575.279 261.239 573.551 262.703 570.743 262.703Z" fill="white"/>
<path d="M641.03 809.629H803.63C808.877 809.629 813.13 813.882 813.13 819.129V947.763C813.13 950.113 812.259 952.374 810.695 954.113L810.373 954.454L780.073 984.992L748.709 1016.48C746.926 1018.27 744.504 1019.28 741.979 1019.28H581.235C575.989 1019.28 571.735 1015.02 571.735 1009.78L571.734 880.979L571.745 880.522C571.848 878.393 572.664 876.36 574.062 874.751L574.369 874.413L607.668 839.6L607.669 839.601L634.245 812.479C635.92 810.77 638.174 809.76 640.553 809.641L641.03 809.629Z" stroke="#FF8A4A"/>
<path d="M646.745 820.455H791.173C796.419 820.455 800.673 824.708 800.673 829.955V943.917C800.673 946.266 799.802 948.527 798.238 950.266L797.916 950.607L771.029 977.706L743.189 1005.65C741.407 1007.44 738.985 1008.45 736.459 1008.45H593.692C588.446 1008.45 584.192 1004.2 584.192 998.951L584.191 884.833L584.202 884.375C584.305 882.246 585.121 880.213 586.519 878.604L586.826 878.266L616.422 847.326L616.421 847.325L639.96 823.305C641.635 821.596 643.889 820.586 646.268 820.466L646.745 820.455Z" stroke="#FF8A4A"/>
<path d="M632.887 910.645C628.543 910.645 624.679 907.813 624.679 902.053C624.679 896.293 628.591 893.461 632.887 893.461C636.679 893.461 639.727 895.789 640.159 899.053H637.543C637.279 897.085 635.287 895.669 632.863 895.669C629.599 895.669 627.223 897.901 627.223 902.053C627.223 906.205 629.599 908.437 632.887 908.437C635.359 908.437 637.327 907.021 637.591 905.053H640.135C639.775 908.317 636.751 910.645 632.887 910.645ZM643.678 910.453V898.357H646.006V900.685C646.558 899.077 647.518 898.357 649.222 898.357H650.686V900.373H648.934C646.726 900.373 646.006 902.341 646.006 904.981V910.453H643.678ZM658.449 910.645C654.705 910.645 652.401 907.693 652.401 904.333C652.401 900.949 654.513 898.165 658.233 898.165C661.953 898.165 663.945 900.829 663.945 903.901C663.945 904.213 663.921 904.621 663.897 904.837H654.681C654.873 907.093 656.361 908.653 658.449 908.653C660.225 908.653 661.377 907.885 661.713 906.517H664.041C663.633 909.013 661.449 910.645 658.449 910.645ZM654.753 903.037H661.593C661.449 901.189 660.225 900.037 658.233 900.037C656.361 900.037 655.113 901.069 654.753 903.037ZM672.526 910.645C668.926 910.645 666.838 907.981 666.838 904.405C666.838 900.829 668.902 898.165 672.55 898.165C674.182 898.165 675.694 898.933 676.438 900.133V893.293H678.766V910.453H676.438V908.653C675.718 909.853 674.182 910.645 672.526 910.645ZM672.91 908.605C675.142 908.605 676.606 906.925 676.606 904.405C676.606 901.885 675.142 900.205 672.91 900.205C670.654 900.205 669.19 901.885 669.19 904.405C669.19 906.925 670.654 908.605 672.91 908.605ZM683.144 910.453V898.357H685.472V910.453H683.144ZM683 893.293H685.592V896.221H683V893.293ZM694.887 910.453C692.439 910.453 690.855 908.965 690.855 906.493V900.373H688.383V898.357H690.855V894.565H693.183V898.357H696.759V900.373H693.183V906.421C693.183 907.717 693.903 908.437 695.055 908.437H696.759V910.453H694.887ZM714.068 910.645C709.724 910.645 705.86 907.813 705.86 902.053C705.86 896.293 709.772 893.461 714.068 893.461C717.86 893.461 720.908 895.789 721.34 899.053H718.724C718.46 897.085 716.468 895.669 714.044 895.669C710.78 895.669 708.404 897.901 708.404 902.053C708.404 906.205 710.78 908.437 714.068 908.437C716.54 908.437 718.508 907.021 718.772 905.053H721.316C720.956 908.317 717.932 910.645 714.068 910.645ZM728.388 910.645C725.916 910.645 724.26 909.157 724.26 906.997C724.26 904.669 726.132 903.133 728.964 903.133H731.508C732.06 903.133 732.324 902.941 732.324 902.509C732.324 901.045 731.244 900.037 729.396 900.037C727.692 900.037 726.492 901.093 726.42 902.317H724.26C724.452 899.941 726.588 898.165 729.468 898.165C732.588 898.165 734.628 899.965 734.628 902.653V910.453H732.324V908.461C731.724 909.781 730.212 910.645 728.388 910.645ZM728.844 908.797C731.028 908.797 732.324 907.381 732.324 905.149V904.933H729.204C727.62 904.933 726.588 905.677 726.588 906.949C726.588 908.053 727.476 908.797 728.844 908.797ZM738.827 910.453V898.357H741.155V900.685C741.707 899.077 742.667 898.357 744.371 898.357H745.835V900.373H744.083C741.875 900.373 741.155 902.341 741.155 904.981V910.453H738.827ZM753.262 910.645C749.662 910.645 747.574 907.981 747.574 904.405C747.574 900.829 749.638 898.165 753.286 898.165C754.918 898.165 756.43 898.933 757.174 900.133V893.293H759.502V910.453H757.174V908.653C756.454 909.853 754.918 910.645 753.262 910.645ZM753.646 908.605C755.878 908.605 757.342 906.925 757.342 904.405C757.342 901.885 755.878 900.205 753.646 900.205C751.39 900.205 749.926 901.885 749.926 904.405C749.926 906.925 751.39 908.605 753.646 908.605ZM637.023 944.453L643.623 927.653H645.927L652.527 944.453H649.935L648.327 940.181H641.223L639.615 944.453H637.023ZM642.039 937.997H647.511L644.775 930.773L642.039 937.997ZM660.146 944.645C656.354 944.645 654.17 941.741 654.17 938.405C654.17 935.069 656.354 932.165 660.146 932.165C662.978 932.165 665.426 933.845 665.762 936.581H663.434C663.218 935.213 661.85 934.205 660.194 934.205C657.794 934.205 656.594 936.077 656.594 938.405C656.594 940.733 657.818 942.605 660.218 942.605C661.874 942.605 663.074 941.741 663.458 940.373H665.762C665.378 942.917 663.242 944.645 660.146 944.645ZM674.442 944.645C670.65 944.645 668.466 941.741 668.466 938.405C668.466 935.069 670.65 932.165 674.442 932.165C677.274 932.165 679.722 933.845 680.058 936.581H677.73C677.514 935.213 676.146 934.205 674.49 934.205C672.09 934.205 670.89 936.077 670.89 938.405C670.89 940.733 672.114 942.605 674.514 942.605C676.17 942.605 677.37 941.741 677.754 940.373H680.058C679.674 942.917 677.538 944.645 674.442 944.645ZM688.978 944.645C685.354 944.645 682.738 942.029 682.738 938.405C682.738 934.781 685.354 932.165 688.978 932.165C692.602 932.165 695.194 934.781 695.194 938.405C695.194 942.029 692.602 944.645 688.978 944.645ZM688.978 942.605C691.258 942.605 692.818 940.877 692.818 938.405C692.818 935.933 691.258 934.205 688.978 934.205C686.674 934.205 685.114 935.933 685.114 938.405C685.114 940.877 686.674 942.605 688.978 942.605ZM703.085 944.645C700.349 944.645 698.573 942.677 698.573 939.797V932.357H700.901V939.341C700.901 941.261 702.029 942.557 703.733 942.557C705.629 942.557 706.997 941.021 706.997 938.909V932.357H709.325V944.453H706.997V942.317C706.349 943.829 704.885 944.645 703.085 944.645ZM713.669 944.453V932.357H715.997V934.493C716.645 932.981 718.085 932.165 719.885 932.165C722.621 932.165 724.397 934.133 724.397 937.013V944.453H722.069V937.469C722.069 935.549 720.941 934.253 719.237 934.253C717.341 934.253 715.997 935.789 715.997 937.901V944.453H713.669ZM733.475 944.453C731.027 944.453 729.443 942.965 729.443 940.493V934.373H726.971V932.357H729.443V928.565H731.771V932.357H735.347V934.373H731.771V940.421C731.771 941.717 732.491 942.437 733.643 942.437H735.347V944.453H733.475ZM742.589 944.645C739.661 944.645 737.909 943.133 737.717 940.517H739.853C739.973 941.909 741.005 942.749 742.565 942.749C744.005 942.749 744.941 942.053 744.941 940.973C744.941 938.021 738.029 940.589 738.029 935.765C738.029 933.629 739.829 932.165 742.349 932.165C745.157 932.165 746.861 933.581 747.029 935.933H744.893C744.773 934.757 743.765 933.989 742.373 933.989C741.173 933.989 740.189 934.589 740.189 935.669C740.189 938.525 747.125 935.813 747.125 940.853C747.125 943.181 745.397 944.645 742.589 944.645Z" fill="#FF8A4A"/>
<path d="M811.581 568.981H974.181C979.427 568.982 983.681 573.235 983.681 578.481V707.115C983.681 709.465 982.81 711.726 981.246 713.466L980.924 713.807L950.624 744.345L919.26 775.833C917.477 777.623 915.055 778.629 912.529 778.629H751.786C746.54 778.629 742.286 774.375 742.286 769.129L742.285 640.332L742.296 639.875C742.398 637.746 743.215 635.713 744.612 634.104L744.92 633.766L778.219 598.952L778.22 598.953L804.796 571.832C806.471 570.123 808.725 569.113 811.104 568.993L811.581 568.981Z" stroke="#FF8A4A"/>
<path d="M817.296 579.807H961.724C966.97 579.807 971.224 584.06 971.224 589.307V703.269C971.224 705.619 970.352 707.879 968.789 709.619L968.467 709.959L941.58 737.058L913.74 765.007C911.958 766.797 909.536 767.803 907.01 767.803H764.243C758.997 767.803 754.743 763.55 754.743 758.303L754.742 644.185L754.753 643.728C754.855 641.599 755.672 639.566 757.069 637.957L757.377 637.619L786.973 606.678L786.972 606.677L810.511 582.658C812.186 580.948 814.44 579.939 816.818 579.819L817.296 579.807Z" stroke="#FF8A4A"/>
<path d="M773.257 669.805V653.005H779.761C783.217 653.005 785.257 655.093 785.257 658.069C785.257 661.045 783.217 663.133 779.761 663.133H775.753V669.805H773.257ZM779.689 660.973C781.849 660.973 782.689 659.605 782.689 658.069C782.689 656.533 781.849 655.165 779.689 655.165H775.753V660.973H779.689ZM788.344 669.805V657.709H790.672V660.037C791.224 658.429 792.184 657.709 793.888 657.709H795.352V659.725H793.6C791.392 659.725 790.672 661.693 790.672 664.333V669.805H788.344ZM803.115 669.997C799.371 669.997 797.067 667.045 797.067 663.685C797.067 660.301 799.179 657.517 802.899 657.517C806.619 657.517 808.611 660.181 808.611 663.253C808.611 663.565 808.587 663.973 808.563 664.189H799.347C799.539 666.445 801.027 668.005 803.115 668.005C804.891 668.005 806.043 667.237 806.379 665.869H808.707C808.299 668.365 806.115 669.997 803.115 669.997ZM799.419 662.389H806.259C806.115 660.541 804.891 659.389 802.899 659.389C801.027 659.389 799.779 660.421 799.419 662.389ZM811.696 664.285V662.269H819.232V664.285H811.696ZM823.029 674.701V657.709H825.357V659.485C826.101 658.285 827.613 657.517 829.221 657.517C832.869 657.517 834.957 660.181 834.957 663.757C834.957 667.333 832.869 669.997 829.245 669.997C827.613 669.997 826.077 669.205 825.357 668.005V674.701H823.029ZM828.885 667.957C831.117 667.957 832.605 666.277 832.605 663.757C832.605 661.237 831.117 659.557 828.885 659.557C826.653 659.557 825.165 661.237 825.165 663.757C825.165 666.277 826.653 667.957 828.885 667.957ZM842.119 669.997C839.647 669.997 837.991 668.509 837.991 666.349C837.991 664.021 839.863 662.485 842.695 662.485H845.239C845.791 662.485 846.055 662.293 846.055 661.861C846.055 660.397 844.975 659.389 843.127 659.389C841.423 659.389 840.223 660.445 840.151 661.669H837.991C838.183 659.293 840.319 657.517 843.199 657.517C846.319 657.517 848.359 659.317 848.359 662.005V669.805H846.055V667.813C845.455 669.133 843.943 669.997 842.119 669.997ZM842.575 668.149C844.759 668.149 846.055 666.733 846.055 664.501V664.285H842.935C841.351 664.285 840.319 665.029 840.319 666.301C840.319 667.405 841.207 668.149 842.575 668.149ZM852.558 669.805V657.709H854.886V669.805H852.558ZM852.414 652.645H855.006V655.573H852.414V652.645ZM864.157 669.997C860.557 669.997 858.469 667.333 858.469 663.757C858.469 660.181 860.533 657.517 864.181 657.517C865.813 657.517 867.325 658.285 868.069 659.485V652.645H870.397V669.805H868.069V668.005C867.349 669.205 865.813 669.997 864.157 669.997ZM864.541 667.957C866.773 667.957 868.237 666.277 868.237 663.757C868.237 661.237 866.773 659.557 864.541 659.557C862.285 659.557 860.821 661.237 860.821 663.757C860.821 666.277 862.285 667.957 864.541 667.957ZM888.826 669.997C884.482 669.997 880.618 667.165 880.618 661.405C880.618 655.645 884.53 652.813 888.826 652.813C892.618 652.813 895.666 655.141 896.098 658.405H893.482C893.218 656.437 891.226 655.021 888.802 655.021C885.538 655.021 883.162 657.253 883.162 661.405C883.162 665.557 885.538 667.789 888.826 667.789C891.298 667.789 893.266 666.373 893.53 664.405H896.074C895.714 667.669 892.69 669.997 888.826 669.997ZM903.146 669.997C900.674 669.997 899.018 668.509 899.018 666.349C899.018 664.021 900.89 662.485 903.722 662.485H906.266C906.818 662.485 907.082 662.293 907.082 661.861C907.082 660.397 906.002 659.389 904.154 659.389C902.45 659.389 901.25 660.445 901.178 661.669H899.018C899.21 659.293 901.346 657.517 904.226 657.517C907.346 657.517 909.386 659.317 909.386 662.005V669.805H907.082V667.813C906.482 669.133 904.97 669.997 903.146 669.997ZM903.602 668.149C905.786 668.149 907.082 666.733 907.082 664.501V664.285H903.962C902.378 664.285 901.346 665.029 901.346 666.301C901.346 667.405 902.234 668.149 903.602 668.149ZM913.585 669.805V657.709H915.913V660.037C916.465 658.429 917.425 657.709 919.129 657.709H920.593V659.725H918.841C916.633 659.725 915.913 661.693 915.913 664.333V669.805H913.585ZM928.02 669.997C924.42 669.997 922.332 667.333 922.332 663.757C922.332 660.181 924.396 657.517 928.044 657.517C929.676 657.517 931.188 658.285 931.932 659.485V652.645H934.26V669.805H931.932V668.005C931.212 669.205 929.676 669.997 928.02 669.997ZM928.404 667.957C930.636 667.957 932.1 666.277 932.1 663.757C932.1 661.237 930.636 659.557 928.404 659.557C926.148 659.557 924.684 661.237 924.684 663.757C924.684 666.277 926.148 667.957 928.404 667.957ZM942.622 669.997C939.694 669.997 937.942 668.485 937.75 665.869H939.886C940.006 667.261 941.038 668.101 942.598 668.101C944.038 668.101 944.974 667.405 944.974 666.325C944.974 663.373 938.062 665.941 938.062 661.117C938.062 658.981 939.862 657.517 942.382 657.517C945.19 657.517 946.894 658.933 947.062 661.285H944.926C944.806 660.109 943.798 659.341 942.406 659.341C941.206 659.341 940.222 659.941 940.222 661.021C940.222 663.877 947.158 661.165 947.158 666.205C947.158 668.533 945.43 669.997 942.622 669.997ZM807.573 703.805L814.173 687.005H816.477L823.077 703.805H820.485L818.877 699.533H811.773L810.165 703.805H807.573ZM812.589 697.349H818.061L815.325 690.125L812.589 697.349ZM830.697 703.997C826.905 703.997 824.721 701.093 824.721 697.757C824.721 694.421 826.905 691.517 830.697 691.517C833.529 691.517 835.977 693.197 836.313 695.933H833.985C833.769 694.565 832.401 693.557 830.745 693.557C828.345 693.557 827.145 695.429 827.145 697.757C827.145 700.085 828.369 701.957 830.769 701.957C832.425 701.957 833.625 701.093 834.009 699.725H836.313C835.929 702.269 833.793 703.997 830.697 703.997ZM844.993 703.997C841.201 703.997 839.017 701.093 839.017 697.757C839.017 694.421 841.201 691.517 844.993 691.517C847.825 691.517 850.273 693.197 850.609 695.933H848.281C848.065 694.565 846.697 693.557 845.041 693.557C842.641 693.557 841.441 695.429 841.441 697.757C841.441 700.085 842.665 701.957 845.065 701.957C846.721 701.957 847.921 701.093 848.305 699.725H850.609C850.225 702.269 848.089 703.997 844.993 703.997ZM859.529 703.997C855.905 703.997 853.289 701.381 853.289 697.757C853.289 694.133 855.905 691.517 859.529 691.517C863.153 691.517 865.745 694.133 865.745 697.757C865.745 701.381 863.153 703.997 859.529 703.997ZM859.529 701.957C861.809 701.957 863.369 700.229 863.369 697.757C863.369 695.285 861.809 693.557 859.529 693.557C857.225 693.557 855.665 695.285 855.665 697.757C855.665 700.229 857.225 701.957 859.529 701.957ZM873.635 703.997C870.899 703.997 869.123 702.029 869.123 699.149V691.709H871.451V698.693C871.451 700.613 872.579 701.909 874.283 701.909C876.179 701.909 877.547 700.373 877.547 698.261V691.709H879.875V703.805H877.547V701.669C876.899 703.181 875.435 703.997 873.635 703.997ZM884.22 703.805V691.709H886.548V693.845C887.196 692.333 888.636 691.517 890.436 691.517C893.172 691.517 894.948 693.485 894.948 696.365V703.805H892.62V696.821C892.62 694.901 891.492 693.605 889.788 693.605C887.892 693.605 886.548 695.141 886.548 697.253V703.805H884.22ZM904.025 703.805C901.577 703.805 899.993 702.317 899.993 699.845V693.725H897.521V691.709H899.993V687.917H902.321V691.709H905.897V693.725H902.321V699.773C902.321 701.069 903.041 701.789 904.193 701.789H905.897V703.805H904.025ZM913.14 703.997C910.212 703.997 908.46 702.485 908.268 699.869H910.404C910.524 701.261 911.556 702.101 913.116 702.101C914.556 702.101 915.492 701.405 915.492 700.325C915.492 697.373 908.58 699.941 908.58 695.117C908.58 692.981 910.38 691.517 912.9 691.517C915.708 691.517 917.412 692.933 917.58 695.285H915.444C915.324 694.109 914.316 693.341 912.924 693.341C911.724 693.341 910.74 693.941 910.74 695.021C910.74 697.877 917.676 695.165 917.676 700.205C917.676 702.533 915.948 703.997 913.14 703.997Z" fill="#FF8A4A"/>
<path d="M641.03 1280.92H803.63C808.877 1280.92 813.13 1285.18 813.13 1290.42V1419.06C813.13 1421.41 812.259 1423.67 810.695 1425.41L810.373 1425.75L780.073 1456.29L748.709 1487.78C746.926 1489.56 744.504 1490.57 741.979 1490.57H581.235C575.989 1490.57 571.735 1486.32 571.735 1481.07L571.734 1352.27L571.745 1351.82C571.848 1349.69 572.664 1347.66 574.062 1346.05L574.369 1345.71L607.668 1310.89L607.669 1310.9L634.245 1283.77C635.92 1282.07 638.174 1281.06 640.553 1280.94L641.03 1280.92Z" stroke="#FF8A4A"/>
<path d="M646.745 1291.75H791.173C796.419 1291.75 800.673 1296 800.673 1301.25V1415.21C800.673 1417.56 799.802 1419.82 798.238 1421.56L797.916 1421.9L771.029 1449L743.189 1476.95C741.407 1478.74 738.985 1479.75 736.459 1479.75H593.692C588.446 1479.75 584.192 1475.49 584.192 1470.25L584.191 1356.13L584.202 1355.67C584.305 1353.54 585.121 1351.51 586.519 1349.9L586.826 1349.56L616.422 1318.62L616.421 1318.62L639.96 1294.6C641.635 1292.89 643.889 1291.88 646.268 1291.76L646.745 1291.75Z" stroke="#FF8A4A"/>
<path d="M662.842 1381.75V1364.95H665.338V1379.54H673.522V1381.75H662.842ZM681.408 1381.94C677.784 1381.94 675.168 1379.32 675.168 1375.7C675.168 1372.08 677.784 1369.46 681.408 1369.46C685.032 1369.46 687.624 1372.08 687.624 1375.7C687.624 1379.32 685.032 1381.94 681.408 1381.94ZM681.408 1379.9C683.688 1379.9 685.248 1378.17 685.248 1375.7C685.248 1373.23 683.688 1371.5 681.408 1371.5C679.104 1371.5 677.544 1373.23 677.544 1375.7C677.544 1378.17 679.104 1379.9 681.408 1379.9ZM694.723 1381.94C692.251 1381.94 690.595 1380.45 690.595 1378.29C690.595 1375.96 692.467 1374.43 695.299 1374.43H697.843C698.395 1374.43 698.659 1374.24 698.659 1373.8C698.659 1372.34 697.579 1371.33 695.731 1371.33C694.027 1371.33 692.827 1372.39 692.755 1373.61H690.595C690.787 1371.24 692.923 1369.46 695.803 1369.46C698.923 1369.46 700.963 1371.26 700.963 1373.95V1381.75H698.659V1379.76C698.059 1381.08 696.547 1381.94 694.723 1381.94ZM695.179 1380.09C697.363 1380.09 698.659 1378.68 698.659 1376.44V1376.23H695.539C693.955 1376.23 692.923 1376.97 692.923 1378.24C692.923 1379.35 693.811 1380.09 695.179 1380.09ZM705.162 1381.75V1369.65H707.49V1371.79C708.138 1370.28 709.578 1369.46 711.378 1369.46C714.114 1369.46 715.89 1371.43 715.89 1374.31V1381.75H713.562V1374.76C713.562 1372.84 712.434 1371.55 710.73 1371.55C708.834 1371.55 707.49 1373.08 707.49 1375.2V1381.75H705.162ZM637.023 1415.75L643.623 1398.95H645.927L652.527 1415.75H649.935L648.327 1411.48H641.223L639.615 1415.75H637.023ZM642.039 1409.29H647.511L644.775 1402.07L642.039 1409.29ZM660.146 1415.94C656.354 1415.94 654.17 1413.04 654.17 1409.7C654.17 1406.36 656.354 1403.46 660.146 1403.46C662.978 1403.46 665.426 1405.14 665.762 1407.88H663.434C663.218 1406.51 661.85 1405.5 660.194 1405.5C657.794 1405.5 656.594 1407.37 656.594 1409.7C656.594 1412.03 657.818 1413.9 660.218 1413.9C661.874 1413.9 663.074 1413.04 663.458 1411.67H665.762C665.378 1414.21 663.242 1415.94 660.146 1415.94ZM674.442 1415.94C670.65 1415.94 668.466 1413.04 668.466 1409.7C668.466 1406.36 670.65 1403.46 674.442 1403.46C677.274 1403.46 679.722 1405.14 680.058 1407.88H677.73C677.514 1406.51 676.146 1405.5 674.49 1405.5C672.09 1405.5 670.89 1407.37 670.89 1409.7C670.89 1412.03 672.114 1413.9 674.514 1413.9C676.17 1413.9 677.37 1413.04 677.754 1411.67H680.058C679.674 1414.21 677.538 1415.94 674.442 1415.94ZM688.978 1415.94C685.354 1415.94 682.738 1413.32 682.738 1409.7C682.738 1406.08 685.354 1403.46 688.978 1403.46C692.602 1403.46 695.194 1406.08 695.194 1409.7C695.194 1413.32 692.602 1415.94 688.978 1415.94ZM688.978 1413.9C691.258 1413.9 692.818 1412.17 692.818 1409.7C692.818 1407.23 691.258 1405.5 688.978 1405.5C686.674 1405.5 685.114 1407.23 685.114 1409.7C685.114 1412.17 686.674 1413.9 688.978 1413.9ZM703.085 1415.94C700.349 1415.94 698.573 1413.97 698.573 1411.09V1403.65H700.901V1410.64C700.901 1412.56 702.029 1413.85 703.733 1413.85C705.629 1413.85 706.997 1412.32 706.997 1410.2V1403.65H709.325V1415.75H706.997V1413.61C706.349 1415.12 704.885 1415.94 703.085 1415.94ZM713.669 1415.75V1403.65H715.997V1405.79C716.645 1404.28 718.085 1403.46 719.885 1403.46C722.621 1403.46 724.397 1405.43 724.397 1408.31V1415.75H722.069V1408.76C722.069 1406.84 720.941 1405.55 719.237 1405.55C717.341 1405.55 715.997 1407.08 715.997 1409.2V1415.75H713.669ZM733.475 1415.75C731.027 1415.75 729.443 1414.26 729.443 1411.79V1405.67H726.971V1403.65H729.443V1399.86H731.771V1403.65H735.347V1405.67H731.771V1411.72C731.771 1413.01 732.491 1413.73 733.643 1413.73H735.347V1415.75H733.475ZM742.589 1415.94C739.661 1415.94 737.909 1414.43 737.717 1411.81H739.853C739.973 1413.2 741.005 1414.04 742.565 1414.04C744.005 1414.04 744.941 1413.35 744.941 1412.27C744.941 1409.32 738.029 1411.88 738.029 1407.06C738.029 1404.92 739.829 1403.46 742.349 1403.46C745.157 1403.46 746.861 1404.88 747.029 1407.23H744.893C744.773 1406.05 743.765 1405.28 742.373 1405.28C741.173 1405.28 740.189 1405.88 740.189 1406.96C740.189 1409.82 747.125 1407.11 747.125 1412.15C747.125 1414.48 745.397 1415.94 742.589 1415.94Z" fill="#FF8A4A"/>
<path d="M641.03 348.335H803.63C808.877 348.335 813.13 352.588 813.13 357.835V486.469C813.13 488.819 812.259 491.08 810.695 492.819L810.373 493.16L780.073 523.698L748.709 555.187C746.926 556.976 744.504 557.982 741.979 557.982H581.235C575.989 557.982 571.735 553.729 571.735 548.482L571.734 419.686L571.745 419.229C571.848 417.1 572.664 415.066 574.062 413.457L574.369 413.119L607.668 378.306L607.669 378.307L634.245 351.186C635.92 349.476 638.174 348.466 640.553 348.347L641.03 348.335Z" stroke="#FF8A4A"/>
<path d="M646.745 359.161H791.173C796.419 359.161 800.673 363.414 800.673 368.661V482.623C800.673 484.972 799.802 487.233 798.238 488.972L797.916 489.313L771.029 516.412L743.189 544.361C741.407 546.15 738.985 547.157 736.459 547.157H593.692C588.446 547.157 584.192 542.903 584.192 537.657L584.191 423.539L584.202 423.082C584.305 420.953 585.121 418.919 586.519 417.31L586.826 416.972L616.422 386.032L616.421 386.031L639.96 362.011C641.635 360.302 643.889 359.292 646.268 359.172L646.745 359.161Z" stroke="#FF8A4A"/>
<path d="M619.599 449.159V432.359H626.175C629.559 432.359 631.623 434.135 631.623 437.015C631.623 439.055 630.639 440.399 629.127 441.167C630.375 441.887 631.143 443.231 631.263 444.863L631.599 449.159H629.127L628.791 445.079C628.695 443.591 627.735 442.535 626.295 442.535H622.095V449.159H619.599ZM626.103 440.327C628.287 440.327 629.127 438.911 629.127 437.399C629.127 435.863 628.287 434.519 626.103 434.519H622.095V440.327H626.103ZM640.739 449.351C636.995 449.351 634.691 446.399 634.691 443.039C634.691 439.655 636.803 436.871 640.523 436.871C644.243 436.871 646.235 439.535 646.235 442.607C646.235 442.919 646.211 443.327 646.187 443.543H636.971C637.163 445.799 638.651 447.359 640.739 447.359C642.515 447.359 643.667 446.591 644.003 445.223H646.331C645.923 447.719 643.739 449.351 640.739 449.351ZM637.043 441.743H643.883C643.739 439.895 642.515 438.743 640.523 438.743C638.651 438.743 637.403 439.775 637.043 441.743ZM654.816 449.351C651.216 449.351 649.128 446.687 649.128 443.111C649.128 439.535 651.192 436.871 654.84 436.871C656.472 436.871 657.984 437.639 658.728 438.839V431.999H661.056V449.159H658.728V447.359C658.008 448.559 656.472 449.351 654.816 449.351ZM655.2 447.311C657.432 447.311 658.896 445.631 658.896 443.111C658.896 440.591 657.432 438.911 655.2 438.911C652.944 438.911 651.48 440.591 651.48 443.111C651.48 445.631 652.944 447.311 655.2 447.311ZM670.666 449.351C666.922 449.351 664.618 446.399 664.618 443.039C664.618 439.655 666.73 436.871 670.45 436.871C674.17 436.871 676.162 439.535 676.162 442.607C676.162 442.919 676.138 443.327 676.114 443.543H666.898C667.09 445.799 668.578 447.359 670.666 447.359C672.442 447.359 673.594 446.591 673.93 445.223H676.258C675.85 447.719 673.666 449.351 670.666 449.351ZM666.97 441.743H673.81C673.666 439.895 672.442 438.743 670.45 438.743C668.578 438.743 667.33 439.775 666.97 441.743ZM679.824 449.159V437.063H682.152V439.199C682.656 437.831 683.976 436.871 685.776 436.871C687.624 436.871 689.16 437.783 689.64 439.367C690.144 437.927 691.824 436.871 693.576 436.871C696.192 436.871 697.824 438.671 697.824 441.479V449.159H695.496V442.127C695.496 440.207 694.536 438.911 692.928 438.911C691.08 438.911 689.976 440.639 689.976 442.559V449.159H687.648V442.127C687.648 440.207 686.688 438.911 685.104 438.911C683.256 438.911 682.152 440.639 682.152 442.559V449.159H679.824ZM702.018 454.055V437.063H704.346V438.839C705.09 437.639 706.602 436.871 708.21 436.871C711.858 436.871 713.946 439.535 713.946 443.111C713.946 446.687 711.858 449.351 708.234 449.351C706.602 449.351 705.066 448.559 704.346 447.359V454.055H702.018ZM707.874 447.311C710.106 447.311 711.594 445.631 711.594 443.111C711.594 440.591 710.106 438.911 707.874 438.911C705.642 438.911 704.154 440.591 704.154 443.111C704.154 445.631 705.642 447.311 707.874 447.311ZM722.41 449.159C719.962 449.159 718.378 447.671 718.378 445.199V439.079H715.906V437.063H718.378V433.271H720.706V437.063H724.282V439.079H720.706V445.127C720.706 446.423 721.426 447.143 722.578 447.143H724.282V449.159H722.41ZM727.54 449.159V437.063H729.868V449.159H727.54ZM727.396 431.999H729.988V434.927H727.396V431.999ZM739.643 449.351C736.019 449.351 733.403 446.735 733.403 443.111C733.403 439.487 736.019 436.871 739.643 436.871C743.267 436.871 745.859 439.487 745.859 443.111C745.859 446.735 743.267 449.351 739.643 449.351ZM739.643 447.311C741.923 447.311 743.483 445.583 743.483 443.111C743.483 440.639 741.923 438.911 739.643 438.911C737.339 438.911 735.779 440.639 735.779 443.111C735.779 445.583 737.339 447.311 739.643 447.311ZM749.405 449.159V437.063H751.733V439.199C752.381 437.687 753.821 436.871 755.621 436.871C758.357 436.871 760.133 438.839 760.133 441.719V449.159H757.805V442.175C757.805 440.255 756.677 438.959 754.973 438.959C753.077 438.959 751.733 440.495 751.733 442.607V449.159H749.405ZM643.112 483.159L649.712 466.359H652.016L658.616 483.159H656.024L654.416 478.887H647.312L645.704 483.159H643.112ZM648.128 476.703H653.6L650.864 469.479L648.128 476.703ZM666.236 483.351C662.444 483.351 660.26 480.447 660.26 477.111C660.26 473.775 662.444 470.871 666.236 470.871C669.068 470.871 671.516 472.551 671.852 475.287H669.524C669.308 473.919 667.94 472.911 666.284 472.911C663.884 472.911 662.684 474.783 662.684 477.111C662.684 479.439 663.908 481.311 666.308 481.311C667.964 481.311 669.164 480.447 669.548 479.079H671.852C671.468 481.623 669.332 483.351 666.236 483.351ZM680.532 483.351C676.74 483.351 674.556 480.447 674.556 477.111C674.556 473.775 676.74 470.871 680.532 470.871C683.364 470.871 685.812 472.551 686.148 475.287H683.82C683.604 473.919 682.236 472.911 680.58 472.911C678.18 472.911 676.98 474.783 676.98 477.111C676.98 479.439 678.204 481.311 680.604 481.311C682.26 481.311 683.46 480.447 683.844 479.079H686.148C685.764 481.623 683.628 483.351 680.532 483.351ZM695.068 483.351C691.444 483.351 688.828 480.735 688.828 477.111C688.828 473.487 691.444 470.871 695.068 470.871C698.692 470.871 701.284 473.487 701.284 477.111C701.284 480.735 698.692 483.351 695.068 483.351ZM695.068 481.311C697.348 481.311 698.908 479.583 698.908 477.111C698.908 474.639 697.348 472.911 695.068 472.911C692.764 472.911 691.204 474.639 691.204 477.111C691.204 479.583 692.764 481.311 695.068 481.311ZM709.174 483.351C706.438 483.351 704.662 481.383 704.662 478.503V471.063H706.99V478.047C706.99 479.967 708.118 481.263 709.822 481.263C711.718 481.263 713.086 479.727 713.086 477.615V471.063H715.414V483.159H713.086V481.023C712.438 482.535 710.974 483.351 709.174 483.351ZM719.759 483.159V471.063H722.087V473.199C722.735 471.687 724.175 470.871 725.975 470.871C728.711 470.871 730.487 472.839 730.487 475.719V483.159H728.159V476.175C728.159 474.255 727.031 472.959 725.327 472.959C723.431 472.959 722.087 474.495 722.087 476.607V483.159H719.759ZM739.564 483.159C737.116 483.159 735.532 481.671 735.532 479.199V473.079H733.06V471.063H735.532V467.271H737.86V471.063H741.436V473.079H737.86V479.127C737.86 480.423 738.58 481.143 739.732 481.143H741.436V483.159H739.564Z" fill="#FF8A4A"/>
<path d="M469.185 1060.28H631.784C637.031 1060.28 641.284 1064.53 641.284 1069.78V1198.41C641.284 1200.76 640.413 1203.02 638.85 1204.76L638.527 1205.1L608.228 1235.64L576.863 1267.13C575.081 1268.92 572.659 1269.92 570.133 1269.92H409.39C404.143 1269.92 399.89 1265.67 399.89 1260.42L399.889 1131.63L399.899 1131.17C400.002 1129.04 400.818 1127.01 402.216 1125.4L402.523 1125.06L435.822 1090.25L435.823 1090.25L462.399 1063.13C464.074 1061.42 466.328 1060.41 468.707 1060.29L469.185 1060.28Z" stroke="#FF8A4A"/>
<path d="M474.899 1071.1H619.327C624.574 1071.1 628.827 1075.36 628.827 1080.6V1194.56C628.827 1196.91 627.956 1199.17 626.393 1200.91L626.07 1201.25L599.184 1228.35L571.344 1256.3C569.561 1258.09 567.139 1259.1 564.613 1259.1H421.847C416.6 1259.1 412.347 1254.84 412.347 1249.6L412.346 1135.48L412.356 1135.02C412.459 1132.89 413.275 1130.86 414.673 1129.25L414.98 1128.91L444.576 1097.97L444.575 1097.97L468.114 1073.95C469.789 1072.24 472.043 1071.23 474.422 1071.11L474.899 1071.1Z" stroke="#FF8A4A"/>
<path d="M472.783 1161.1V1144.3H479.359C482.743 1144.3 484.807 1146.08 484.807 1148.96C484.807 1151 483.823 1152.34 482.311 1153.11C483.559 1153.83 484.327 1155.17 484.447 1156.8L484.783 1161.1H482.311L481.975 1157.02C481.879 1155.53 480.919 1154.48 479.479 1154.48H475.279V1161.1H472.783ZM479.287 1152.27C481.471 1152.27 482.311 1150.85 482.311 1149.34C482.311 1147.8 481.471 1146.46 479.287 1146.46H475.279V1152.27H479.287ZM493.923 1161.29C490.179 1161.29 487.875 1158.34 487.875 1154.98C487.875 1151.6 489.987 1148.81 493.707 1148.81C497.427 1148.81 499.419 1151.48 499.419 1154.55C499.419 1154.86 499.395 1155.27 499.371 1155.48H490.155C490.347 1157.74 491.835 1159.3 493.923 1159.3C495.699 1159.3 496.851 1158.53 497.187 1157.16H499.515C499.107 1159.66 496.923 1161.29 493.923 1161.29ZM490.227 1153.68H497.067C496.923 1151.84 495.699 1150.68 493.707 1150.68C491.835 1150.68 490.587 1151.72 490.227 1153.68ZM505.459 1161.1L501.715 1149H504.043L506.539 1158L509.275 1149H511.483L514.195 1158L516.667 1149H519.019L515.275 1161.1H513.115L510.379 1152.08L507.619 1161.1H505.459ZM525.452 1161.29C522.98 1161.29 521.324 1159.8 521.324 1157.64C521.324 1155.32 523.196 1153.78 526.028 1153.78H528.572C529.124 1153.78 529.388 1153.59 529.388 1153.16C529.388 1151.69 528.308 1150.68 526.46 1150.68C524.756 1150.68 523.556 1151.74 523.484 1152.96H521.324C521.516 1150.59 523.652 1148.81 526.532 1148.81C529.652 1148.81 531.692 1150.61 531.692 1153.3V1161.1H529.388V1159.11C528.788 1160.43 527.276 1161.29 525.452 1161.29ZM525.908 1159.44C528.092 1159.44 529.388 1158.03 529.388 1155.8V1155.58H526.268C524.684 1155.58 523.652 1156.32 523.652 1157.6C523.652 1158.7 524.54 1159.44 525.908 1159.44ZM535.891 1161.1V1149H538.219V1151.33C538.771 1149.72 539.731 1149 541.435 1149H542.899V1151.02H541.147C538.939 1151.02 538.219 1152.99 538.219 1155.63V1161.1H535.891ZM550.326 1161.29C546.726 1161.29 544.638 1158.63 544.638 1155.05C544.638 1151.48 546.702 1148.81 550.35 1148.81C551.982 1148.81 553.494 1149.58 554.238 1150.78V1143.94H556.566V1161.1H554.238V1159.3C553.518 1160.5 551.982 1161.29 550.326 1161.29ZM550.71 1159.25C552.942 1159.25 554.406 1157.57 554.406 1155.05C554.406 1152.53 552.942 1150.85 550.71 1150.85C548.454 1150.85 546.99 1152.53 546.99 1155.05C546.99 1157.57 548.454 1159.25 550.71 1159.25ZM471.267 1195.1L477.867 1178.3H480.171L486.771 1195.1H484.179L482.571 1190.83H475.467L473.859 1195.1H471.267ZM476.283 1188.64H481.755L479.019 1181.42L476.283 1188.64ZM494.39 1195.29C490.598 1195.29 488.414 1192.39 488.414 1189.05C488.414 1185.72 490.598 1182.81 494.39 1182.81C497.222 1182.81 499.67 1184.49 500.006 1187.23H497.678C497.462 1185.86 496.094 1184.85 494.438 1184.85C492.038 1184.85 490.838 1186.72 490.838 1189.05C490.838 1191.38 492.062 1193.25 494.462 1193.25C496.118 1193.25 497.318 1192.39 497.702 1191.02H500.006C499.622 1193.56 497.486 1195.29 494.39 1195.29ZM508.686 1195.29C504.894 1195.29 502.71 1192.39 502.71 1189.05C502.71 1185.72 504.894 1182.81 508.686 1182.81C511.518 1182.81 513.966 1184.49 514.302 1187.23H511.974C511.758 1185.86 510.39 1184.85 508.734 1184.85C506.334 1184.85 505.134 1186.72 505.134 1189.05C505.134 1191.38 506.358 1193.25 508.758 1193.25C510.414 1193.25 511.614 1192.39 511.998 1191.02H514.302C513.918 1193.56 511.782 1195.29 508.686 1195.29ZM523.222 1195.29C519.598 1195.29 516.982 1192.68 516.982 1189.05C516.982 1185.43 519.598 1182.81 523.222 1182.81C526.846 1182.81 529.438 1185.43 529.438 1189.05C529.438 1192.68 526.846 1195.29 523.222 1195.29ZM523.222 1193.25C525.502 1193.25 527.062 1191.52 527.062 1189.05C527.062 1186.58 525.502 1184.85 523.222 1184.85C520.918 1184.85 519.358 1186.58 519.358 1189.05C519.358 1191.52 520.918 1193.25 523.222 1193.25ZM537.329 1195.29C534.593 1195.29 532.817 1193.32 532.817 1190.44V1183H535.145V1189.99C535.145 1191.91 536.273 1193.2 537.977 1193.2C539.873 1193.2 541.241 1191.67 541.241 1189.56V1183H543.569V1195.1H541.241V1192.96C540.593 1194.48 539.129 1195.29 537.329 1195.29ZM547.914 1195.1V1183H550.242V1185.14C550.89 1183.63 552.33 1182.81 554.13 1182.81C556.866 1182.81 558.642 1184.78 558.642 1187.66V1195.1H556.314V1188.12C556.314 1186.2 555.186 1184.9 553.482 1184.9C551.586 1184.9 550.242 1186.44 550.242 1188.55V1195.1H547.914ZM567.719 1195.1C565.271 1195.1 563.687 1193.61 563.687 1191.14V1185.02H561.215V1183H563.687V1179.21H566.015V1183H569.591V1185.02H566.015V1191.07C566.015 1192.36 566.735 1193.08 567.887 1193.08H569.591V1195.1H567.719Z" fill="#FF8A4A"/>
<path d="M140.484 9.32788H129.872L147.872 36.7889H158.484L140.484 9.32788Z" fill="white"/>
<path d="M126.178 9.32788H115.566L133.566 36.7889H144.178L126.178 9.32788Z" fill="white"/>
<path d="M111.871 9.32788H101.259L119.259 36.7889H129.871L111.871 9.32788Z" fill="white"/>
<path d="M97.5645 9.32788H86.9524L104.952 36.7889H115.564L97.5645 9.32788Z" fill="white"/>
<rect width="162.842" height="1.6294" transform="matrix(-1 0 0 1 314.549 35.0066)" fill="white"/>
<rect width="161.589" height="1.6294" transform="matrix(0.706532 0.707681 0.707681 -0.706532 313.396 36.1577)" fill="white"/>
<path d="M1105.61 74.5378H1116.22L1098.22 101.999H1087.61L1105.61 74.5378Z" fill="white"/>
<path d="M1119.92 74.5378H1130.53L1112.53 101.999H1101.92L1119.92 74.5378Z" fill="white"/>
<path d="M1134.22 74.5378H1144.83L1126.83 101.999H1116.22L1134.22 74.5378Z" fill="white"/>
<path d="M1148.53 74.5378H1159.14L1141.14 101.999H1130.53L1148.53 74.5378Z" fill="white"/>
<rect x="765.557" y="100.217" width="330.525" height="1.78223" fill="white"/>
<rect x="766.707" y="101.368" width="161.589" height="1.6294" transform="rotate(134.953 766.707 101.368)" fill="white"/>
<path d="M54.3906 310.375H43.7786L61.7786 337.836H72.3906L54.3906 310.375Z" fill="white"/>
<path d="M40.084 310.375H29.4719L47.4719 337.836H58.084L40.084 310.375Z" fill="white"/>
<path d="M25.7773 310.375H15.1653L33.1653 337.836H43.7773L25.7773 310.375Z" fill="white"/>
<path d="M11.4707 310.375H0.85865L18.8586 337.836H29.4707L11.4707 310.375Z" fill="white"/>
<rect width="170" height="1.6294" transform="matrix(-1 0 0 1 238.453 336.054)" fill="white"/>
<rect x="237.852" y="336.17" width="161.589" height="1.6294" transform="rotate(-21.6156 237.852 336.17)" fill="white"/>
<path d="M788.145 91.4283C786.918 91.4283 785.792 91.1616 784.765 90.6283C783.738 90.0816 782.918 89.275 782.305 88.2083C781.692 87.1283 781.385 85.815 781.385 84.2683C781.385 82.735 781.692 81.4283 782.305 80.3483C782.932 79.2683 783.758 78.4616 784.785 77.9283C785.812 77.3816 786.932 77.1083 788.145 77.1083C789.145 77.1083 790.072 77.3016 790.925 77.6883C791.778 78.075 792.478 78.615 793.025 79.3083C793.585 80.0016 793.925 80.775 794.045 81.6283H792.265C792.185 81.0683 791.945 80.5616 791.545 80.1083C791.158 79.655 790.665 79.3016 790.065 79.0483C789.465 78.7816 788.818 78.6483 788.125 78.6483C787.152 78.6483 786.285 78.8683 785.525 79.3083C784.778 79.735 784.192 80.375 783.765 81.2283C783.352 82.0683 783.145 83.0816 783.145 84.2683C783.145 85.455 783.352 86.475 783.765 87.3283C784.192 88.1683 784.778 88.8083 785.525 89.2483C786.285 89.675 787.152 89.8883 788.125 89.8883C788.845 89.8883 789.505 89.7616 790.105 89.5083C790.718 89.2416 791.212 88.8816 791.585 88.4283C791.972 87.975 792.205 87.4683 792.285 86.9083H794.045C793.938 87.7616 793.612 88.535 793.065 89.2283C792.532 89.9216 791.832 90.4616 790.965 90.8483C790.112 91.235 789.172 91.4283 788.145 91.4283ZM801.199 91.4283C800.226 91.4283 799.346 91.2083 798.559 90.7683C797.773 90.315 797.159 89.695 796.719 88.9083C796.293 88.1216 796.079 87.2283 796.079 86.2283C796.079 85.2283 796.293 84.335 796.719 83.5483C797.159 82.7616 797.773 82.1483 798.559 81.7083C799.346 81.255 800.226 81.0283 801.199 81.0283C802.186 81.0283 803.066 81.255 803.839 81.7083C804.626 82.1483 805.239 82.7616 805.679 83.5483C806.119 84.335 806.339 85.2283 806.339 86.2283C806.339 87.2283 806.119 88.1216 805.679 88.9083C805.239 89.695 804.626 90.315 803.839 90.7683C803.066 91.2083 802.186 91.4283 801.199 91.4283ZM801.199 89.9883C801.879 89.9883 802.486 89.8283 803.019 89.5083C803.553 89.1883 803.959 88.7416 804.239 88.1683C804.533 87.595 804.679 86.9483 804.679 86.2283C804.679 85.5083 804.533 84.8616 804.239 84.2883C803.959 83.715 803.553 83.2683 803.019 82.9483C802.486 82.6283 801.879 82.4683 801.199 82.4683C800.519 82.4683 799.913 82.6283 799.379 82.9483C798.859 83.2683 798.453 83.715 798.159 84.2883C797.866 84.8616 797.719 85.5083 797.719 86.2283C797.719 86.9483 797.866 87.595 798.159 88.1683C798.453 88.7416 798.859 89.1883 799.379 89.5083C799.913 89.8283 800.519 89.9883 801.199 89.9883ZM809.074 77.0483H810.674V91.2683H809.074V77.0483ZM814.122 77.0483H815.722V91.2683H814.122V77.0483ZM823.451 91.4283C822.477 91.4283 821.611 91.195 820.851 90.7283C820.091 90.2483 819.497 89.6083 819.071 88.8083C818.657 88.0083 818.451 87.1283 818.451 86.1683C818.451 85.1816 818.644 84.3016 819.031 83.5283C819.431 82.755 819.991 82.1483 820.711 81.7083C821.444 81.255 822.297 81.0283 823.271 81.0283C824.231 81.0283 825.064 81.235 825.771 81.6483C826.477 82.0616 827.017 82.6283 827.391 83.3483C827.777 84.055 827.971 84.855 827.971 85.7483C827.971 86.0016 827.957 86.2416 827.931 86.4683H819.391V85.1483H826.311C826.244 84.295 825.944 83.6216 825.411 83.1283C824.877 82.635 824.164 82.3883 823.271 82.3883C822.604 82.3883 822.024 82.5416 821.531 82.8483C821.051 83.1416 820.684 83.5683 820.431 84.1283C820.177 84.6883 820.051 85.3616 820.051 86.1483C820.051 86.8816 820.197 87.5416 820.491 88.1283C820.784 88.715 821.191 89.175 821.711 89.5083C822.231 89.8416 822.811 90.0083 823.451 90.0083C824.251 90.0083 824.904 89.8416 825.411 89.5083C825.931 89.1616 826.271 88.6683 826.431 88.0283H828.071C827.897 89.055 827.391 89.8816 826.551 90.5083C825.724 91.1216 824.691 91.4283 823.451 91.4283ZM834.982 91.4283C833.955 91.4283 833.068 91.1883 832.322 90.7083C831.588 90.2283 831.028 89.595 830.642 88.8083C830.268 88.0083 830.082 87.1483 830.082 86.2283C830.082 85.3083 830.268 84.455 830.642 83.6683C831.028 82.8683 831.588 82.2283 832.322 81.7483C833.068 81.2683 833.955 81.0283 834.982 81.0283C835.742 81.0283 836.448 81.175 837.102 81.4683C837.768 81.7483 838.322 82.1616 838.762 82.7083C839.202 83.2416 839.468 83.8683 839.562 84.5883H837.982C837.875 83.975 837.542 83.4683 836.982 83.0683C836.422 82.6683 835.762 82.4683 835.002 82.4683C834.295 82.4683 833.695 82.635 833.202 82.9683C832.722 83.3016 832.355 83.755 832.102 84.3283C831.862 84.8883 831.742 85.5216 831.742 86.2283C831.742 87.3216 832.022 88.2216 832.582 88.9283C833.155 89.635 833.962 89.9883 835.002 89.9883C835.762 89.9883 836.402 89.815 836.922 89.4683C837.455 89.1083 837.808 88.6216 837.982 88.0083H839.542C839.435 88.7016 839.182 89.3016 838.782 89.8083C838.382 90.315 837.855 90.715 837.202 91.0083C836.562 91.2883 835.822 91.4283 834.982 91.4283ZM846.119 91.2683C845.479 91.2683 844.919 91.1416 844.439 90.8883C843.972 90.635 843.605 90.2683 843.339 89.7883C843.085 89.3083 842.959 88.7483 842.959 88.1083V82.6083H840.859V81.1883H842.959V77.9683H844.559V81.1883H847.659V82.6083H844.559V88.0683C844.559 88.6283 844.699 89.0683 844.979 89.3883C845.272 89.695 845.672 89.8483 846.179 89.8483H847.659V91.2683H846.119ZM855.282 81.1883H856.882V82.8283C857.202 82.295 857.669 81.8616 858.282 81.5283C858.896 81.195 859.556 81.0283 860.262 81.0283C861.276 81.0283 862.142 81.255 862.862 81.7083C863.596 82.1616 864.149 82.7816 864.522 83.5683C864.909 84.355 865.102 85.2416 865.102 86.2283C865.102 87.215 864.909 88.1016 864.522 88.8883C864.149 89.675 863.596 90.295 862.862 90.7483C862.142 91.2016 861.276 91.4283 860.262 91.4283C859.556 91.4283 858.889 91.2616 858.262 90.9283C857.649 90.595 857.189 90.155 856.882 89.6083V95.3483H855.282V81.1883ZM860.082 89.9883C860.762 89.9883 861.349 89.835 861.842 89.5283C862.349 89.2216 862.742 88.7816 863.022 88.2083C863.302 87.635 863.442 86.975 863.442 86.2283C863.442 85.0816 863.136 84.1683 862.522 83.4883C861.922 82.8083 861.116 82.4683 860.102 82.4683C859.422 82.4683 858.829 82.6216 858.322 82.9283C857.829 83.235 857.442 83.675 857.162 84.2483C856.882 84.8216 856.742 85.4816 856.742 86.2283C856.742 87.375 857.042 88.2883 857.642 88.9683C858.256 89.6483 859.069 89.9883 860.082 89.9883ZM870.85 91.4283C870.157 91.4283 869.544 91.3016 869.01 91.0483C868.49 90.795 868.084 90.4416 867.79 89.9883C867.51 89.5216 867.37 88.9883 867.37 88.3883C867.37 87.7483 867.53 87.1883 867.85 86.7083C868.184 86.215 868.65 85.8416 869.25 85.5883C869.864 85.3216 870.57 85.1883 871.37 85.1883H873.71C873.924 85.1883 874.077 85.1483 874.17 85.0683C874.264 84.9883 874.31 84.8683 874.31 84.7083C874.31 84.015 874.07 83.455 873.59 83.0283C873.11 82.6016 872.45 82.3883 871.61 82.3883C871.117 82.3883 870.67 82.4816 870.27 82.6683C869.87 82.855 869.544 83.1016 869.29 83.4083C869.05 83.715 868.917 84.055 868.89 84.4283H867.35C867.417 83.7883 867.644 83.2083 868.03 82.6883C868.43 82.1683 868.944 81.7616 869.57 81.4683C870.21 81.175 870.897 81.0283 871.63 81.0283C872.497 81.0283 873.25 81.1883 873.89 81.5083C874.53 81.815 875.024 82.2483 875.37 82.8083C875.73 83.3683 875.91 84.0216 875.91 84.7683V91.2683H874.31V89.5283L874.19 89.7283C873.99 90.075 873.717 90.375 873.37 90.6283C873.037 90.8816 872.657 91.0816 872.23 91.2283C871.804 91.3616 871.344 91.4283 870.85 91.4283ZM871.09 90.0683C872.104 90.0683 872.89 89.775 873.45 89.1883C874.024 88.5883 874.31 87.7683 874.31 86.7283V86.5083H871.47C870.724 86.5083 870.124 86.675 869.67 87.0083C869.23 87.3416 869.01 87.795 869.01 88.3683C869.01 88.8883 869.197 89.3016 869.57 89.6083C869.957 89.915 870.464 90.0683 871.09 90.0683ZM881.612 91.5083L877.932 81.1883H879.592L882.412 89.3683L885.212 81.1883H886.872L881.832 95.3483H880.232L881.612 91.5083ZM889.217 81.1883H890.837V83.1283C891.024 82.4883 891.39 81.9816 891.937 81.6083C892.484 81.2216 893.137 81.0283 893.897 81.0283C894.71 81.0283 895.417 81.2216 896.017 81.6083C896.617 81.9816 897.01 82.5083 897.197 83.1883C897.384 82.575 897.784 82.0616 898.397 81.6483C899.024 81.235 899.704 81.0283 900.437 81.0283C901.157 81.0283 901.784 81.1883 902.317 81.5083C902.85 81.815 903.257 82.2616 903.537 82.8483C903.817 83.435 903.957 84.1283 903.957 84.9283V91.2683H902.337V85.3483C902.337 84.4816 902.13 83.7883 901.717 83.2683C901.317 82.735 900.764 82.4683 900.057 82.4683C899.524 82.4683 899.05 82.6283 898.637 82.9483C898.237 83.255 897.924 83.6616 897.697 84.1683C897.484 84.675 897.377 85.2216 897.377 85.8083V91.2683H895.777V85.3483C895.777 84.4816 895.57 83.7883 895.157 83.2683C894.757 82.735 894.21 82.4683 893.517 82.4683C892.984 82.4683 892.51 82.6283 892.097 82.9483C891.684 83.255 891.37 83.6616 891.157 84.1683C890.944 84.675 890.837 85.2216 890.837 85.8083V91.2683H889.217V81.1883ZM911.534 91.4283C910.56 91.4283 909.694 91.195 908.934 90.7283C908.174 90.2483 907.58 89.6083 907.154 88.8083C906.74 88.0083 906.534 87.1283 906.534 86.1683C906.534 85.1816 906.727 84.3016 907.114 83.5283C907.514 82.755 908.074 82.1483 908.794 81.7083C909.527 81.255 910.38 81.0283 911.354 81.0283C912.314 81.0283 913.147 81.235 913.854 81.6483C914.56 82.0616 915.1 82.6283 915.474 83.3483C915.86 84.055 916.054 84.855 916.054 85.7483C916.054 86.0016 916.04 86.2416 916.014 86.4683H907.474V85.1483H914.394C914.327 84.295 914.027 83.6216 913.494 83.1283C912.96 82.635 912.247 82.3883 911.354 82.3883C910.687 82.3883 910.107 82.5416 909.614 82.8483C909.134 83.1416 908.767 83.5683 908.514 84.1283C908.26 84.6883 908.134 85.3616 908.134 86.1483C908.134 86.8816 908.28 87.5416 908.574 88.1283C908.867 88.715 909.274 89.175 909.794 89.5083C910.314 89.8416 910.894 90.0083 911.534 90.0083C912.334 90.0083 912.987 89.8416 913.494 89.5083C914.014 89.1616 914.354 88.6683 914.514 88.0283H916.154C915.98 89.055 915.474 89.8816 914.634 90.5083C913.807 91.1216 912.774 91.4283 911.534 91.4283ZM918.865 81.1883H920.465V83.1283C920.731 82.435 921.151 81.915 921.725 81.5683C922.311 81.2083 923.005 81.0283 923.805 81.0283C924.551 81.0283 925.205 81.2016 925.765 81.5483C926.338 81.8816 926.778 82.355 927.085 82.9683C927.405 83.5816 927.565 84.295 927.565 85.1083V91.2683H925.945V85.3683C925.945 84.5016 925.718 83.8083 925.265 83.2883C924.811 82.755 924.205 82.4883 923.445 82.4883C922.871 82.4883 922.358 82.635 921.905 82.9283C921.451 83.2083 921.098 83.6016 920.845 84.1083C920.591 84.615 920.465 85.1883 920.465 85.8283V91.2683H918.865V81.1883ZM934.69 91.2683C934.05 91.2683 933.49 91.1416 933.01 90.8883C932.543 90.635 932.177 90.2683 931.91 89.7883C931.657 89.3083 931.53 88.7483 931.53 88.1083V82.6083H929.43V81.1883H931.53V77.9683H933.13V81.1883H936.23V82.6083H933.13V88.0683C933.13 88.6283 933.27 89.0683 933.55 89.3883C933.843 89.695 934.243 89.8483 934.75 89.8483H936.23V91.2683H934.69ZM941.849 91.4283C941.062 91.4283 940.382 91.295 939.809 91.0283C939.236 90.7616 938.782 90.375 938.449 89.8683C938.116 89.3616 937.929 88.755 937.889 88.0483H939.389C939.456 88.675 939.702 89.1683 940.129 89.5283C940.556 89.875 941.129 90.0483 941.849 90.0483C942.502 90.0483 943.022 89.9016 943.409 89.6083C943.809 89.3016 944.009 88.895 944.009 88.3883C944.009 88.015 943.902 87.7283 943.689 87.5283C943.476 87.315 943.209 87.1616 942.889 87.0683C942.569 86.975 942.116 86.875 941.529 86.7683C940.809 86.6483 940.222 86.515 939.769 86.3683C939.316 86.2083 938.929 85.9483 938.609 85.5883C938.289 85.215 938.129 84.6883 938.129 84.0083C938.129 83.4216 938.282 82.9083 938.589 82.4683C938.896 82.015 939.316 81.6616 939.849 81.4083C940.382 81.155 940.996 81.0283 941.689 81.0283C942.449 81.0283 943.102 81.1483 943.649 81.3883C944.209 81.6283 944.649 81.9816 944.969 82.4483C945.289 82.915 945.476 83.4683 945.529 84.1083H944.009C943.956 83.575 943.716 83.155 943.289 82.8483C942.876 82.5283 942.349 82.3683 941.709 82.3683C941.149 82.3683 940.669 82.5083 940.269 82.7883C939.882 83.0683 939.689 83.4416 939.689 83.9083C939.689 84.255 939.789 84.5283 939.989 84.7283C940.202 84.9283 940.469 85.075 940.789 85.1683C941.109 85.2483 941.542 85.3283 942.089 85.4083C942.836 85.5283 943.442 85.6683 943.909 85.8283C944.376 85.975 944.769 86.2483 945.089 86.6483C945.422 87.0483 945.589 87.6083 945.589 88.3283C945.589 88.955 945.436 89.5016 945.129 89.9683C944.836 90.435 944.409 90.795 943.849 91.0483C943.289 91.3016 942.622 91.4283 941.849 91.4283ZM958.61 77.2683H960.03L953.73 91.2683H952.33L958.61 77.2683ZM972.096 91.4283C970.99 91.4283 970.043 91.235 969.256 90.8483C968.483 90.4483 967.883 89.895 967.456 89.1883C967.03 88.4816 966.79 87.6483 966.736 86.6883H968.416C968.51 87.6883 968.856 88.475 969.456 89.0483C970.056 89.6083 970.936 89.8883 972.096 89.8883C973.123 89.8883 973.93 89.6883 974.516 89.2883C975.103 88.8883 975.396 88.275 975.396 87.4483C975.396 86.9016 975.236 86.4616 974.916 86.1283C974.596 85.795 974.196 85.5416 973.716 85.3683C973.25 85.195 972.603 85.0016 971.776 84.7883C970.79 84.5483 969.996 84.3083 969.396 84.0683C968.796 83.815 968.276 83.4283 967.836 82.9083C967.41 82.3883 967.196 81.695 967.196 80.8283C967.196 80.095 967.396 79.4483 967.796 78.8883C968.196 78.3283 968.756 77.895 969.476 77.5883C970.21 77.2683 971.036 77.1083 971.956 77.1083C972.876 77.1083 973.696 77.2816 974.416 77.6283C975.15 77.9616 975.73 78.4416 976.156 79.0683C976.583 79.695 976.83 80.4216 976.896 81.2483H975.216C975.136 80.4616 974.803 79.835 974.216 79.3683C973.63 78.8883 972.876 78.6483 971.956 78.6483C971.023 78.6483 970.283 78.8416 969.736 79.2283C969.203 79.615 968.936 80.1483 968.936 80.8283C968.936 81.3616 969.09 81.7883 969.396 82.1083C969.716 82.4283 970.11 82.675 970.576 82.8483C971.056 83.0083 971.696 83.1816 972.496 83.3683C973.523 83.6083 974.336 83.855 974.936 84.1083C975.55 84.3483 976.076 84.735 976.516 85.2683C976.956 85.8016 977.176 86.5283 977.176 87.4483C977.176 88.275 976.956 88.9883 976.516 89.5883C976.09 90.1883 975.49 90.6483 974.716 90.9683C973.956 91.275 973.083 91.4283 972.096 91.4283ZM984.187 91.4283C983.213 91.4283 982.347 91.195 981.587 90.7283C980.827 90.2483 980.233 89.6083 979.807 88.8083C979.393 88.0083 979.187 87.1283 979.187 86.1683C979.187 85.1816 979.38 84.3016 979.767 83.5283C980.167 82.755 980.727 82.1483 981.447 81.7083C982.18 81.255 983.033 81.0283 984.007 81.0283C984.967 81.0283 985.8 81.235 986.507 81.6483C987.213 82.0616 987.753 82.6283 988.127 83.3483C988.513 84.055 988.707 84.855 988.707 85.7483C988.707 86.0016 988.693 86.2416 988.667 86.4683H980.127V85.1483H987.047C986.98 84.295 986.68 83.6216 986.147 83.1283C985.613 82.635 984.9 82.3883 984.007 82.3883C983.34 82.3883 982.76 82.5416 982.267 82.8483C981.787 83.1416 981.42 83.5683 981.167 84.1283C980.913 84.6883 980.787 85.3616 980.787 86.1483C980.787 86.8816 980.933 87.5416 981.227 88.1283C981.52 88.715 981.927 89.175 982.447 89.5083C982.967 89.8416 983.547 90.0083 984.187 90.0083C984.987 90.0083 985.64 89.8416 986.147 89.5083C986.667 89.1616 987.007 88.6683 987.167 88.0283H988.807C988.633 89.055 988.127 89.8816 987.287 90.5083C986.46 91.1216 985.427 91.4283 984.187 91.4283ZM1001.62 91.2683C1000.98 91.2683 1000.42 91.1416 999.941 90.8883C999.474 90.635 999.108 90.2683 998.841 89.7883C998.588 89.3083 998.461 88.7483 998.461 88.1083V82.6083H996.361V81.1883H998.461V77.9683H1000.06V81.1883H1003.16V82.6083H1000.06V88.0683C1000.06 88.6283 1000.2 89.0683 1000.48 89.3883C1000.77 89.695 1001.17 89.8483 1001.68 89.8483H1003.16V91.2683H1001.62ZM995.361 91.2683C994.721 91.2683 994.161 91.1416 993.681 90.8883C993.214 90.635 992.848 90.2683 992.581 89.7883C992.328 89.3083 992.201 88.7483 992.201 88.1083V82.6083H990.101V81.1883H992.201V77.9683H993.801V81.1883H996.901V82.6083H993.801V88.0683C993.801 88.6283 993.941 89.0683 994.221 89.3883C994.514 89.695 994.914 89.8483 995.421 89.8483H996.901V91.2683H995.361ZM1005.57 77.0483H1007.17V91.2683H1005.57V77.0483ZM1014.9 91.4283C1013.93 91.4283 1013.06 91.195 1012.3 90.7283C1011.54 90.2483 1010.95 89.6083 1010.52 88.8083C1010.11 88.0083 1009.9 87.1283 1009.9 86.1683C1009.9 85.1816 1010.09 84.3016 1010.48 83.5283C1010.88 82.755 1011.44 82.1483 1012.16 81.7083C1012.89 81.255 1013.75 81.0283 1014.72 81.0283C1015.68 81.0283 1016.51 81.235 1017.22 81.6483C1017.93 82.0616 1018.47 82.6283 1018.84 83.3483C1019.23 84.055 1019.42 84.855 1019.42 85.7483C1019.42 86.0016 1019.41 86.2416 1019.38 86.4683H1010.84V85.1483H1017.76C1017.69 84.295 1017.39 83.6216 1016.86 83.1283C1016.33 82.635 1015.61 82.3883 1014.72 82.3883C1014.05 82.3883 1013.47 82.5416 1012.98 82.8483C1012.5 83.1416 1012.13 83.5683 1011.88 84.1283C1011.63 84.6883 1011.5 85.3616 1011.5 86.1483C1011.5 86.8816 1011.65 87.5416 1011.94 88.1283C1012.23 88.715 1012.64 89.175 1013.16 89.5083C1013.68 89.8416 1014.26 90.0083 1014.9 90.0083C1015.7 90.0083 1016.35 89.8416 1016.86 89.5083C1017.38 89.1616 1017.72 88.6683 1017.88 88.0283H1019.52C1019.35 89.055 1018.84 89.8816 1018 90.5083C1017.17 91.1216 1016.14 91.4283 1014.9 91.4283ZM1022.23 81.1883H1023.85V83.1283C1024.04 82.4883 1024.4 81.9816 1024.95 81.6083C1025.5 81.2216 1026.15 81.0283 1026.91 81.0283C1027.72 81.0283 1028.43 81.2216 1029.03 81.6083C1029.63 81.9816 1030.02 82.5083 1030.21 83.1883C1030.4 82.575 1030.8 82.0616 1031.41 81.6483C1032.04 81.235 1032.72 81.0283 1033.45 81.0283C1034.17 81.0283 1034.8 81.1883 1035.33 81.5083C1035.86 81.815 1036.27 82.2616 1036.55 82.8483C1036.83 83.435 1036.97 84.1283 1036.97 84.9283V91.2683H1035.35V85.3483C1035.35 84.4816 1035.14 83.7883 1034.73 83.2683C1034.33 82.735 1033.78 82.4683 1033.07 82.4683C1032.54 82.4683 1032.06 82.6283 1031.65 82.9483C1031.25 83.255 1030.94 83.6616 1030.71 84.1683C1030.5 84.675 1030.39 85.2216 1030.39 85.8083V91.2683H1028.79V85.3483C1028.79 84.4816 1028.58 83.7883 1028.17 83.2683C1027.77 82.735 1027.22 82.4683 1026.53 82.4683C1026 82.4683 1025.52 82.6283 1025.11 82.9483C1024.7 83.255 1024.38 83.6616 1024.17 84.1683C1023.96 84.675 1023.85 85.2216 1023.85 85.8083V91.2683H1022.23V81.1883ZM1044.55 91.4283C1043.57 91.4283 1042.71 91.195 1041.95 90.7283C1041.19 90.2483 1040.59 89.6083 1040.17 88.8083C1039.75 88.0083 1039.55 87.1283 1039.55 86.1683C1039.55 85.1816 1039.74 84.3016 1040.13 83.5283C1040.53 82.755 1041.09 82.1483 1041.81 81.7083C1042.54 81.255 1043.39 81.0283 1044.37 81.0283C1045.33 81.0283 1046.16 81.235 1046.87 81.6483C1047.57 82.0616 1048.11 82.6283 1048.49 83.3483C1048.87 84.055 1049.07 84.855 1049.07 85.7483C1049.07 86.0016 1049.05 86.2416 1049.03 86.4683H1040.49V85.1483H1047.41C1047.34 84.295 1047.04 83.6216 1046.51 83.1283C1045.97 82.635 1045.26 82.3883 1044.37 82.3883C1043.7 82.3883 1043.12 82.5416 1042.63 82.8483C1042.15 83.1416 1041.78 83.5683 1041.53 84.1283C1041.27 84.6883 1041.15 85.3616 1041.15 86.1483C1041.15 86.8816 1041.29 87.5416 1041.59 88.1283C1041.88 88.715 1042.29 89.175 1042.81 89.5083C1043.33 89.8416 1043.91 90.0083 1044.55 90.0083C1045.35 90.0083 1046 89.8416 1046.51 89.5083C1047.03 89.1616 1047.37 88.6683 1047.53 88.0283H1049.17C1048.99 89.055 1048.49 89.8816 1047.65 90.5083C1046.82 91.1216 1045.79 91.4283 1044.55 91.4283ZM1051.88 81.1883H1053.48V83.1283C1053.74 82.435 1054.16 81.915 1054.74 81.5683C1055.32 81.2083 1056.02 81.0283 1056.82 81.0283C1057.56 81.0283 1058.22 81.2016 1058.78 81.5483C1059.35 81.8816 1059.79 82.355 1060.1 82.9683C1060.42 83.5816 1060.58 84.295 1060.58 85.1083V91.2683H1058.96V85.3683C1058.96 84.5016 1058.73 83.8083 1058.28 83.2883C1057.82 82.755 1057.22 82.4883 1056.46 82.4883C1055.88 82.4883 1055.37 82.635 1054.92 82.9283C1054.46 83.2083 1054.11 83.6016 1053.86 84.1083C1053.6 84.615 1053.48 85.1883 1053.48 85.8283V91.2683H1051.88V81.1883ZM1067.7 91.2683C1067.06 91.2683 1066.5 91.1416 1066.02 90.8883C1065.56 90.635 1065.19 90.2683 1064.92 89.7883C1064.67 89.3083 1064.54 88.7483 1064.54 88.1083V82.6083H1062.44V81.1883H1064.54V77.9683H1066.14V81.1883H1069.24V82.6083H1066.14V88.0683C1066.14 88.6283 1066.28 89.0683 1066.56 89.3883C1066.86 89.695 1067.26 89.8483 1067.76 89.8483H1069.24V91.2683H1067.7ZM1074.86 91.4283C1074.07 91.4283 1073.39 91.295 1072.82 91.0283C1072.25 90.7616 1071.79 90.375 1071.46 89.8683C1071.13 89.3616 1070.94 88.755 1070.9 88.0483H1072.4C1072.47 88.675 1072.71 89.1683 1073.14 89.5283C1073.57 89.875 1074.14 90.0483 1074.86 90.0483C1075.51 90.0483 1076.03 89.9016 1076.42 89.6083C1076.82 89.3016 1077.02 88.895 1077.02 88.3883C1077.02 88.015 1076.91 87.7283 1076.7 87.5283C1076.49 87.315 1076.22 87.1616 1075.9 87.0683C1075.58 86.975 1075.13 86.875 1074.54 86.7683C1073.82 86.6483 1073.23 86.515 1072.78 86.3683C1072.33 86.2083 1071.94 85.9483 1071.62 85.5883C1071.3 85.215 1071.14 84.6883 1071.14 84.0083C1071.14 83.4216 1071.29 82.9083 1071.6 82.4683C1071.91 82.015 1072.33 81.6616 1072.86 81.4083C1073.39 81.155 1074.01 81.0283 1074.7 81.0283C1075.46 81.0283 1076.11 81.1483 1076.66 81.3883C1077.22 81.6283 1077.66 81.9816 1077.98 82.4483C1078.3 82.915 1078.49 83.4683 1078.54 84.1083H1077.02C1076.97 83.575 1076.73 83.155 1076.3 82.8483C1075.89 82.5283 1075.36 82.3683 1074.72 82.3683C1074.16 82.3683 1073.68 82.5083 1073.28 82.7883C1072.89 83.0683 1072.7 83.4416 1072.7 83.9083C1072.7 84.255 1072.8 84.5283 1073 84.7283C1073.21 84.9283 1073.48 85.075 1073.8 85.1683C1074.12 85.2483 1074.55 85.3283 1075.1 85.4083C1075.85 85.5283 1076.45 85.6683 1076.92 85.8283C1077.39 85.975 1077.78 86.2483 1078.1 86.6483C1078.43 87.0483 1078.6 87.6083 1078.6 88.3283C1078.6 88.955 1078.45 89.5016 1078.14 89.9683C1077.85 90.435 1077.42 90.795 1076.86 91.0483C1076.3 91.3016 1075.63 91.4283 1074.86 91.4283Z" fill="white"/>
<path d="M78.5047 311.109H82.6247C83.958 311.109 85.1514 311.383 86.2047 311.929C87.258 312.476 88.0914 313.283 88.7047 314.349C89.318 315.403 89.6247 316.656 89.6247 318.109C89.6247 319.563 89.318 320.823 88.7047 321.889C88.0914 322.943 87.258 323.743 86.2047 324.289C85.1514 324.836 83.958 325.109 82.6247 325.109H78.5047V311.109ZM82.5847 323.569C83.5447 323.569 84.418 323.376 85.2047 322.989C86.0047 322.603 86.6447 322.003 87.1247 321.189C87.6047 320.363 87.8447 319.336 87.8447 318.109C87.8447 316.883 87.6047 315.863 87.1247 315.049C86.6447 314.223 86.0047 313.616 85.2047 313.229C84.418 312.843 83.5447 312.649 82.5847 312.649H80.2247V323.569H82.5847ZM92.4356 315.029H94.0356V325.109H92.4356V315.029ZM94.1556 310.889V313.129H92.3156V310.889H94.1556ZM98.1436 327.809H102.804C103.457 327.809 103.99 327.589 104.404 327.149C104.817 326.723 105.024 326.169 105.024 325.489V323.709C104.784 324.176 104.35 324.556 103.724 324.849C103.097 325.129 102.404 325.269 101.644 325.269C100.63 325.269 99.7636 325.043 99.0436 324.589C98.3236 324.136 97.7703 323.516 97.3836 322.729C97.0103 321.943 96.8236 321.056 96.8236 320.069C96.8236 319.083 97.0103 318.196 97.3836 317.409C97.7703 316.623 98.3236 316.003 99.0436 315.549C99.7636 315.096 100.637 314.869 101.664 314.869C102.344 314.869 102.99 315.023 103.604 315.329C104.23 315.636 104.704 316.029 105.024 316.509V315.029H106.624V325.549C106.624 326.269 106.47 326.903 106.164 327.449C105.857 327.996 105.417 328.423 104.844 328.729C104.27 329.036 103.624 329.189 102.904 329.189H98.1436V327.809ZM101.824 323.829C102.49 323.829 103.07 323.676 103.564 323.369C104.07 323.063 104.464 322.623 104.744 322.049C105.024 321.476 105.164 320.816 105.164 320.069C105.164 318.923 104.857 318.009 104.244 317.329C103.644 316.649 102.837 316.309 101.824 316.309C101.157 316.309 100.57 316.463 100.064 316.769C99.5569 317.076 99.1636 317.516 98.8836 318.089C98.6169 318.663 98.4836 319.323 98.4836 320.069C98.4836 321.216 98.7836 322.129 99.3836 322.809C99.9969 323.489 100.81 323.829 101.824 323.829ZM110.072 315.029H111.672V325.109H110.072V315.029ZM111.792 310.889V313.129H109.952V310.889H111.792ZM119.12 325.109C118.48 325.109 117.92 324.983 117.44 324.729C116.973 324.476 116.606 324.109 116.34 323.629C116.086 323.149 115.96 322.589 115.96 321.949V316.449H113.86V315.029H115.96V311.809H117.56V315.029H120.66V316.449H117.56V321.909C117.56 322.469 117.7 322.909 117.98 323.229C118.273 323.536 118.673 323.689 119.18 323.689H120.66V325.109H119.12ZM126.079 325.269C125.385 325.269 124.772 325.143 124.239 324.889C123.719 324.636 123.312 324.283 123.019 323.829C122.739 323.363 122.599 322.829 122.599 322.229C122.599 321.589 122.759 321.029 123.079 320.549C123.412 320.056 123.879 319.683 124.479 319.429C125.092 319.163 125.799 319.029 126.599 319.029H128.939C129.152 319.029 129.305 318.989 129.399 318.909C129.492 318.829 129.539 318.709 129.539 318.549C129.539 317.856 129.299 317.296 128.819 316.869C128.339 316.443 127.679 316.229 126.839 316.229C126.345 316.229 125.899 316.323 125.499 316.509C125.099 316.696 124.772 316.943 124.519 317.249C124.279 317.556 124.145 317.896 124.119 318.269H122.579C122.645 317.629 122.872 317.049 123.259 316.529C123.659 316.009 124.172 315.603 124.799 315.309C125.439 315.016 126.125 314.869 126.859 314.869C127.725 314.869 128.479 315.029 129.119 315.349C129.759 315.656 130.252 316.089 130.599 316.649C130.959 317.209 131.139 317.863 131.139 318.609V325.109H129.539V323.369L129.419 323.569C129.219 323.916 128.945 324.216 128.599 324.469C128.265 324.723 127.885 324.923 127.459 325.069C127.032 325.203 126.572 325.269 126.079 325.269ZM126.319 323.909C127.332 323.909 128.119 323.616 128.679 323.029C129.252 322.429 129.539 321.609 129.539 320.569V320.349H126.699C125.952 320.349 125.352 320.516 124.899 320.849C124.459 321.183 124.239 321.636 124.239 322.209C124.239 322.729 124.425 323.143 124.799 323.449C125.185 323.756 125.692 323.909 126.319 323.909ZM134.436 310.889H136.036V325.109H134.436V310.889ZM144.869 311.109H150.149C151.069 311.109 151.862 311.283 152.529 311.629C153.209 311.976 153.729 312.463 154.089 313.089C154.449 313.716 154.629 314.436 154.629 315.249C154.629 316.063 154.449 316.783 154.089 317.409C153.729 318.036 153.209 318.523 152.529 318.869C151.862 319.216 151.069 319.389 150.149 319.389H146.589V325.109H144.869V311.109ZM150.129 317.869C150.755 317.869 151.269 317.756 151.669 317.529C152.082 317.289 152.382 316.969 152.569 316.569C152.755 316.169 152.849 315.729 152.849 315.249C152.849 314.489 152.629 313.863 152.189 313.369C151.749 312.876 151.062 312.629 150.129 312.629H146.589V317.869H150.129ZM159.827 325.269C159.134 325.269 158.52 325.143 157.987 324.889C157.467 324.636 157.06 324.283 156.767 323.829C156.487 323.363 156.347 322.829 156.347 322.229C156.347 321.589 156.507 321.029 156.827 320.549C157.16 320.056 157.627 319.683 158.227 319.429C158.84 319.163 159.547 319.029 160.347 319.029H162.687C162.9 319.029 163.054 318.989 163.147 318.909C163.24 318.829 163.287 318.709 163.287 318.549C163.287 317.856 163.047 317.296 162.567 316.869C162.087 316.443 161.427 316.229 160.587 316.229C160.094 316.229 159.647 316.323 159.247 316.509C158.847 316.696 158.52 316.943 158.267 317.249C158.027 317.556 157.894 317.896 157.867 318.269H156.327C156.394 317.629 156.62 317.049 157.007 316.529C157.407 316.009 157.92 315.603 158.547 315.309C159.187 315.016 159.874 314.869 160.607 314.869C161.474 314.869 162.227 315.029 162.867 315.349C163.507 315.656 164 316.089 164.347 316.649C164.707 317.209 164.887 317.863 164.887 318.609V325.109H163.287V323.369L163.167 323.569C162.967 323.916 162.694 324.216 162.347 324.469C162.014 324.723 161.634 324.923 161.207 325.069C160.78 325.203 160.32 325.269 159.827 325.269ZM160.067 323.909C161.08 323.909 161.867 323.616 162.427 323.029C163 322.429 163.287 321.609 163.287 320.569V320.349H160.447C159.7 320.349 159.1 320.516 158.647 320.849C158.207 321.183 157.987 321.636 157.987 322.209C157.987 322.729 158.174 323.143 158.547 323.449C158.934 323.756 159.44 323.909 160.067 323.909ZM170.588 325.349L166.908 315.029H168.568L171.388 323.209L174.188 315.029H175.848L170.808 329.189H169.208L170.588 325.349ZM178.193 315.029H179.813V316.969C180 316.329 180.367 315.823 180.913 315.449C181.46 315.063 182.113 314.869 182.873 314.869C183.687 314.869 184.393 315.063 184.993 315.449C185.593 315.823 185.987 316.349 186.173 317.029C186.36 316.416 186.76 315.903 187.373 315.489C188 315.076 188.68 314.869 189.413 314.869C190.133 314.869 190.76 315.029 191.293 315.349C191.827 315.656 192.233 316.103 192.513 316.689C192.793 317.276 192.933 317.969 192.933 318.769V325.109H191.313V319.189C191.313 318.323 191.107 317.629 190.693 317.109C190.293 316.576 189.74 316.309 189.033 316.309C188.5 316.309 188.027 316.469 187.613 316.789C187.213 317.096 186.9 317.503 186.673 318.009C186.46 318.516 186.353 319.063 186.353 319.649V325.109H184.753V319.189C184.753 318.323 184.547 317.629 184.133 317.109C183.733 316.576 183.187 316.309 182.493 316.309C181.96 316.309 181.487 316.469 181.073 316.789C180.66 317.096 180.347 317.503 180.133 318.009C179.92 318.516 179.813 319.063 179.813 319.649V325.109H178.193V315.029ZM200.51 325.269C199.537 325.269 198.67 325.036 197.91 324.569C197.15 324.089 196.557 323.449 196.13 322.649C195.717 321.849 195.51 320.969 195.51 320.009C195.51 319.023 195.703 318.143 196.09 317.369C196.49 316.596 197.05 315.989 197.77 315.549C198.503 315.096 199.357 314.869 200.33 314.869C201.29 314.869 202.123 315.076 202.83 315.489C203.537 315.903 204.077 316.469 204.45 317.189C204.837 317.896 205.03 318.696 205.03 319.589C205.03 319.843 205.017 320.083 204.99 320.309H196.45V318.989H203.37C203.303 318.136 203.003 317.463 202.47 316.969C201.937 316.476 201.223 316.229 200.33 316.229C199.663 316.229 199.083 316.383 198.59 316.689C198.11 316.983 197.743 317.409 197.49 317.969C197.237 318.529 197.11 319.203 197.11 319.989C197.11 320.723 197.257 321.383 197.55 321.969C197.843 322.556 198.25 323.016 198.77 323.349C199.29 323.683 199.87 323.849 200.51 323.849C201.31 323.849 201.963 323.683 202.47 323.349C202.99 323.003 203.33 322.509 203.49 321.869H205.13C204.957 322.896 204.45 323.723 203.61 324.349C202.783 324.963 201.75 325.269 200.51 325.269ZM207.841 315.029H209.441V316.969C209.708 316.276 210.128 315.756 210.701 315.409C211.288 315.049 211.981 314.869 212.781 314.869C213.528 314.869 214.181 315.043 214.741 315.389C215.314 315.723 215.754 316.196 216.061 316.809C216.381 317.423 216.541 318.136 216.541 318.949V325.109H214.921V319.209C214.921 318.343 214.694 317.649 214.241 317.129C213.788 316.596 213.181 316.329 212.421 316.329C211.848 316.329 211.334 316.476 210.881 316.769C210.428 317.049 210.074 317.443 209.821 317.949C209.568 318.456 209.441 319.029 209.441 319.669V325.109H207.841V315.029ZM223.666 325.109C223.026 325.109 222.466 324.983 221.986 324.729C221.52 324.476 221.153 324.109 220.886 323.629C220.633 323.149 220.506 322.589 220.506 321.949V316.449H218.406V315.029H220.506V311.809H222.106V315.029H225.206V316.449H222.106V321.909C222.106 322.469 222.246 322.909 222.526 323.229C222.82 323.536 223.22 323.689 223.726 323.689H225.206V325.109H223.666ZM230.825 325.269C230.039 325.269 229.359 325.136 228.785 324.869C228.212 324.603 227.759 324.216 227.425 323.709C227.092 323.203 226.905 322.596 226.865 321.889H228.365C228.432 322.516 228.679 323.009 229.105 323.369C229.532 323.716 230.105 323.889 230.825 323.889C231.479 323.889 231.999 323.743 232.385 323.449C232.785 323.143 232.985 322.736 232.985 322.229C232.985 321.856 232.879 321.569 232.665 321.369C232.452 321.156 232.185 321.003 231.865 320.909C231.545 320.816 231.092 320.716 230.505 320.609C229.785 320.489 229.199 320.356 228.745 320.209C228.292 320.049 227.905 319.789 227.585 319.429C227.265 319.056 227.105 318.529 227.105 317.849C227.105 317.263 227.259 316.749 227.565 316.309C227.872 315.856 228.292 315.503 228.825 315.249C229.359 314.996 229.972 314.869 230.665 314.869C231.425 314.869 232.079 314.989 232.625 315.229C233.185 315.469 233.625 315.823 233.945 316.289C234.265 316.756 234.452 317.309 234.505 317.949H232.985C232.932 317.416 232.692 316.996 232.265 316.689C231.852 316.369 231.325 316.209 230.685 316.209C230.125 316.209 229.645 316.349 229.245 316.629C228.859 316.909 228.665 317.283 228.665 317.749C228.665 318.096 228.765 318.369 228.965 318.569C229.179 318.769 229.445 318.916 229.765 319.009C230.085 319.089 230.519 319.169 231.065 319.249C231.812 319.369 232.419 319.509 232.885 319.669C233.352 319.816 233.745 320.089 234.065 320.489C234.399 320.889 234.565 321.449 234.565 322.169C234.565 322.796 234.412 323.343 234.105 323.809C233.812 324.276 233.385 324.636 232.825 324.889C232.265 325.143 231.599 325.269 230.825 325.269Z" fill="white"/>
<path d="M166.987 10.0583H175.747V11.5983H168.707V16.2183H174.447V17.7583H168.707V24.0583H166.987V10.0583ZM180.944 24.2183C180.211 24.2183 179.558 24.0517 178.984 23.7183C178.411 23.3717 177.971 22.8917 177.664 22.2783C177.358 21.665 177.204 20.9517 177.204 20.1383V13.9783H178.804V19.8783C178.804 20.745 179.031 21.445 179.484 21.9783C179.951 22.4983 180.564 22.7583 181.324 22.7583C181.884 22.7583 182.391 22.6183 182.844 22.3383C183.298 22.045 183.651 21.645 183.904 21.1383C184.158 20.6317 184.284 20.0583 184.284 19.4183V13.9783H185.884V24.0583H184.284V22.1183C184.018 22.8117 183.591 23.3383 183.004 23.6983C182.431 24.045 181.744 24.2183 180.944 24.2183ZM189.326 13.9783H190.926V15.9183C191.193 15.225 191.613 14.705 192.186 14.3583C192.773 13.9983 193.466 13.8183 194.266 13.8183C195.013 13.8183 195.666 13.9917 196.226 14.3383C196.799 14.6717 197.239 15.145 197.546 15.7583C197.866 16.3717 198.026 17.085 198.026 17.8983V24.0583H196.406V18.1583C196.406 17.2917 196.179 16.5983 195.726 16.0783C195.273 15.545 194.666 15.2783 193.906 15.2783C193.333 15.2783 192.819 15.425 192.366 15.7183C191.913 15.9983 191.559 16.3917 191.306 16.8983C191.053 17.405 190.926 17.9783 190.926 18.6183V24.0583H189.326V13.9783ZM205.467 24.2183C204.454 24.2183 203.587 23.9917 202.867 23.5383C202.147 23.085 201.594 22.465 201.207 21.6783C200.834 20.8917 200.647 20.005 200.647 19.0183C200.647 18.0317 200.834 17.145 201.207 16.3583C201.594 15.5717 202.147 14.9517 202.867 14.4983C203.587 14.045 204.461 13.8183 205.487 13.8183C206.181 13.8183 206.834 13.985 207.447 14.3183C208.074 14.6517 208.541 15.085 208.847 15.6183V9.83835H210.447V24.0583H208.847V22.3983C208.541 22.945 208.074 23.385 207.447 23.7183C206.834 24.0517 206.174 24.2183 205.467 24.2183ZM205.647 22.7783C206.314 22.7783 206.894 22.625 207.387 22.3183C207.894 22.0117 208.287 21.5717 208.567 20.9983C208.847 20.425 208.987 19.765 208.987 19.0183C208.987 17.8717 208.681 16.9583 208.067 16.2783C207.467 15.5983 206.661 15.2583 205.647 15.2583C204.981 15.2583 204.394 15.4117 203.887 15.7183C203.381 16.025 202.987 16.465 202.707 17.0383C202.441 17.6117 202.307 18.2717 202.307 19.0183C202.307 20.165 202.607 21.0783 203.207 21.7583C203.821 22.4383 204.634 22.7783 205.647 22.7783ZM222.28 11.5983H217.8V10.0583H228.48V11.5983H224V24.0583H222.28V11.5983ZM228.602 13.9783H230.202V16.0183C230.415 15.325 230.742 14.8117 231.182 14.4783C231.635 14.145 232.222 13.9783 232.942 13.9783H234.222V15.3983H232.842C231.882 15.3983 231.202 15.7783 230.802 16.5383C230.402 17.285 230.202 18.3117 230.202 19.6183V24.0583H228.602V13.9783ZM238.974 24.2183C238.281 24.2183 237.668 24.0917 237.134 23.8383C236.614 23.585 236.208 23.2317 235.914 22.7783C235.634 22.3117 235.494 21.7783 235.494 21.1783C235.494 20.5383 235.654 19.9783 235.974 19.4983C236.308 19.005 236.774 18.6317 237.374 18.3783C237.988 18.1117 238.694 17.9783 239.494 17.9783H241.834C242.048 17.9783 242.201 17.9383 242.294 17.8583C242.388 17.7783 242.434 17.6583 242.434 17.4983C242.434 16.805 242.194 16.245 241.714 15.8183C241.234 15.3917 240.574 15.1783 239.734 15.1783C239.241 15.1783 238.794 15.2717 238.394 15.4583C237.994 15.645 237.668 15.8917 237.414 16.1983C237.174 16.505 237.041 16.845 237.014 17.2183H235.474C235.541 16.5783 235.768 15.9983 236.154 15.4783C236.554 14.9583 237.068 14.5517 237.694 14.2583C238.334 13.965 239.021 13.8183 239.754 13.8183C240.621 13.8183 241.374 13.9783 242.014 14.2983C242.654 14.605 243.148 15.0383 243.494 15.5983C243.854 16.1583 244.034 16.8117 244.034 17.5583V24.0583H242.434V22.3183L242.314 22.5183C242.114 22.865 241.841 23.165 241.494 23.4183C241.161 23.6717 240.781 23.8717 240.354 24.0183C239.928 24.1517 239.468 24.2183 238.974 24.2183ZM239.214 22.8583C240.228 22.8583 241.014 22.565 241.574 21.9783C242.148 21.3783 242.434 20.5583 242.434 19.5183V19.2983H239.594C238.848 19.2983 238.248 19.465 237.794 19.7983C237.354 20.1317 237.134 20.585 237.134 21.1583C237.134 21.6783 237.321 22.0917 237.694 22.3983C238.081 22.705 238.588 22.8583 239.214 22.8583ZM247.331 13.9783H248.931V15.9183C249.198 15.225 249.618 14.705 250.191 14.3583C250.778 13.9983 251.471 13.8183 252.271 13.8183C253.018 13.8183 253.671 13.9917 254.231 14.3383C254.805 14.6717 255.245 15.145 255.551 15.7583C255.871 16.3717 256.031 17.085 256.031 17.8983V24.0583H254.411V18.1583C254.411 17.2917 254.185 16.5983 253.731 16.0783C253.278 15.545 252.671 15.2783 251.911 15.2783C251.338 15.2783 250.825 15.425 250.371 15.7183C249.918 15.9983 249.565 16.3917 249.311 16.8983C249.058 17.405 248.931 17.9783 248.931 18.6183V24.0583H247.331V13.9783ZM262.533 24.2183C261.746 24.2183 261.066 24.085 260.493 23.8183C259.92 23.5517 259.466 23.165 259.133 22.6583C258.8 22.1517 258.613 21.545 258.573 20.8383H260.073C260.14 21.465 260.386 21.9583 260.813 22.3183C261.24 22.665 261.813 22.8383 262.533 22.8383C263.186 22.8383 263.706 22.6917 264.093 22.3983C264.493 22.0917 264.693 21.685 264.693 21.1783C264.693 20.805 264.586 20.5183 264.373 20.3183C264.16 20.105 263.893 19.9517 263.573 19.8583C263.253 19.765 262.8 19.665 262.213 19.5583C261.493 19.4383 260.906 19.305 260.453 19.1583C260 18.9983 259.613 18.7383 259.293 18.3783C258.973 18.005 258.813 17.4783 258.813 16.7983C258.813 16.2117 258.966 15.6983 259.273 15.2583C259.58 14.805 260 14.4517 260.533 14.1983C261.066 13.945 261.68 13.8183 262.373 13.8183C263.133 13.8183 263.786 13.9383 264.333 14.1783C264.893 14.4183 265.333 14.7717 265.653 15.2383C265.973 15.705 266.16 16.2583 266.213 16.8983H264.693C264.64 16.365 264.4 15.945 263.973 15.6383C263.56 15.3183 263.033 15.1583 262.393 15.1583C261.833 15.1583 261.353 15.2983 260.953 15.5783C260.566 15.8583 260.373 16.2317 260.373 16.6983C260.373 17.045 260.473 17.3183 260.673 17.5183C260.886 17.7183 261.153 17.865 261.473 17.9583C261.793 18.0383 262.226 18.1183 262.773 18.1983C263.52 18.3183 264.126 18.4583 264.593 18.6183C265.06 18.765 265.453 19.0383 265.773 19.4383C266.106 19.8383 266.273 20.3983 266.273 21.1183C266.273 21.745 266.12 22.2917 265.813 22.7583C265.52 23.225 265.093 23.585 264.533 23.8383C263.973 24.0917 263.306 24.2183 262.533 24.2183ZM269.89 15.3983H267.79V13.9783H269.89V12.9583C269.89 12.3317 270.016 11.785 270.27 11.3183C270.523 10.8383 270.89 10.4717 271.37 10.2183C271.85 9.96502 272.403 9.83835 273.03 9.83835H274.61V11.2583H273.09C272.596 11.2583 272.203 11.4183 271.91 11.7383C271.63 12.045 271.49 12.465 271.49 12.9983V13.9783H274.61V15.3983H271.49V24.0583H269.89V15.3983ZM280.682 24.2183C279.709 24.2183 278.842 23.985 278.082 23.5183C277.322 23.0383 276.729 22.3983 276.302 21.5983C275.889 20.7983 275.682 19.9183 275.682 18.9583C275.682 17.9717 275.876 17.0917 276.262 16.3183C276.662 15.545 277.222 14.9383 277.942 14.4983C278.676 14.045 279.529 13.8183 280.502 13.8183C281.462 13.8183 282.296 14.025 283.002 14.4383C283.709 14.8517 284.249 15.4183 284.622 16.1383C285.009 16.845 285.202 17.645 285.202 18.5383C285.202 18.7917 285.189 19.0317 285.162 19.2583H276.622V17.9383H283.542C283.476 17.085 283.176 16.4117 282.642 15.9183C282.109 15.425 281.396 15.1783 280.502 15.1783C279.836 15.1783 279.256 15.3317 278.762 15.6383C278.282 15.9317 277.916 16.3583 277.662 16.9183C277.409 17.4783 277.282 18.1517 277.282 18.9383C277.282 19.6717 277.429 20.3317 277.722 20.9183C278.016 21.505 278.422 21.965 278.942 22.2983C279.462 22.6317 280.042 22.7983 280.682 22.7983C281.482 22.7983 282.136 22.6317 282.642 22.2983C283.162 21.9517 283.502 21.4583 283.662 20.8183H285.302C285.129 21.845 284.622 22.6717 283.782 23.2983C282.956 23.9117 281.922 24.2183 280.682 24.2183ZM288.013 13.9783H289.613V16.0183C289.827 15.325 290.153 14.8117 290.593 14.4783C291.047 14.145 291.633 13.9783 292.353 13.9783H293.633V15.3983H292.253C291.293 15.3983 290.613 15.7783 290.213 16.5383C289.813 17.285 289.613 18.3117 289.613 19.6183V24.0583H288.013V13.9783ZM298.84 24.2183C298.053 24.2183 297.373 24.085 296.8 23.8183C296.227 23.5517 295.773 23.165 295.44 22.6583C295.107 22.1517 294.92 21.545 294.88 20.8383H296.38C296.447 21.465 296.693 21.9583 297.12 22.3183C297.547 22.665 298.12 22.8383 298.84 22.8383C299.493 22.8383 300.013 22.6917 300.4 22.3983C300.8 22.0917 301 21.685 301 21.1783C301 20.805 300.893 20.5183 300.68 20.3183C300.467 20.105 300.2 19.9517 299.88 19.8583C299.56 19.765 299.107 19.665 298.52 19.5583C297.8 19.4383 297.213 19.305 296.76 19.1583C296.307 18.9983 295.92 18.7383 295.6 18.3783C295.28 18.005 295.12 17.4783 295.12 16.7983C295.12 16.2117 295.273 15.6983 295.58 15.2583C295.887 14.805 296.307 14.4517 296.84 14.1983C297.373 13.945 297.987 13.8183 298.68 13.8183C299.44 13.8183 300.093 13.9383 300.64 14.1783C301.2 14.4183 301.64 14.7717 301.96 15.2383C302.28 15.705 302.467 16.2583 302.52 16.8983H301C300.947 16.365 300.707 15.945 300.28 15.6383C299.867 15.3183 299.34 15.1583 298.7 15.1583C298.14 15.1583 297.66 15.2983 297.26 15.5783C296.873 15.8583 296.68 16.2317 296.68 16.6983C296.68 17.045 296.78 17.3183 296.98 17.5183C297.193 17.7183 297.46 17.865 297.78 17.9583C298.1 18.0383 298.533 18.1183 299.08 18.1983C299.827 18.3183 300.433 18.4583 300.9 18.6183C301.367 18.765 301.76 19.0383 302.08 19.4383C302.413 19.8383 302.58 20.3983 302.58 21.1183C302.58 21.745 302.427 22.2917 302.12 22.7583C301.827 23.225 301.4 23.585 300.84 23.8383C300.28 24.0917 299.613 24.2183 298.84 24.2183Z" fill="white"/>
<defs>
<filter id="filter0_f_210_18512" x="391.389" y="119.188" width="258.395" height="226.647" filterUnits="userSpaceOnUse" color-interpolation-filters="sRGB">
<feFlood flood-opacity="0" result="BackgroundImageFix"/>
<feBlend mode="normal" in="SourceGraphic" in2="BackgroundImageFix" result="shape"/>
<feGaussianBlur stdDeviation="4" result="effect1_foregroundBlur_210_18512"/>
</filter>
<filter id="filter1_f_210_18512" x="374.946" y="101.113" width="291.28" height="262.796" filterUnits="userSpaceOnUse" color-interpolation-filters="sRGB">
<feFlood flood-opacity="0" result="BackgroundImageFix"/>
<feBlend mode="normal" in="SourceGraphic" in2="BackgroundImageFix" result="shape"/>
<feGaussianBlur stdDeviation="18.45" result="effect1_foregroundBlur_210_18512"/>
</filter>
<filter id="filter2_d_210_18512" x="386.146" y="113.313" width="274.88" height="246.396" filterUnits="userSpaceOnUse" color-interpolation-filters="sRGB">
<feFlood flood-opacity="0" result="BackgroundImageFix"/>
<feColorMatrix in="SourceAlpha" type="matrix" values="0 0 0 0 0 0 0 0 0 0 0 0 0 0 0 0 0 0 127 0" result="hardAlpha"/>
<feOffset dx="3" dy="4"/>
<feGaussianBlur stdDeviation="14.35"/>
<feComposite in2="hardAlpha" operator="out"/>
<feColorMatrix type="matrix" values="0 0 0 0 1 0 0 0 0 1 0 0 0 0 1 0 0 0 0.25 0"/>
<feBlend mode="normal" in2="BackgroundImageFix" result="effect1_dropShadow_210_18512"/>
<feBlend mode="normal" in="SourceGraphic" in2="effect1_dropShadow_210_18512" result="shape"/>
</filter>
</defs>
</svg>
