<svg width="994" height="265" viewBox="0 0 994 265" fill="none" xmlns="http://www.w3.org/2000/svg">
<line x1="266.68" y1="143.5" x2="386.359" y2="143.5" stroke="white"/>
<line x1="628.75" y1="143.5" x2="726.75" y2="143.5" stroke="white"/>
<g filter="url(#filter0_f_155_406)">
<path d="M60.7567 57.1214L87.3332 30.0009C89.214 28.0816 91.7882 27 94.4755 27L257.075 27C262.598 27 267.075 31.4772 267.075 37V165.634C267.075 168.273 266.032 170.804 264.174 172.677L233.873 203.216L202.508 234.704C200.632 236.588 198.082 237.647 195.423 237.647H34.681C29.1582 237.647 24.6811 233.17 24.681 227.647L24.6797 98.8506C24.6797 96.2753 25.6732 93.7992 27.4533 91.9382L60.7567 57.1214Z" fill="#FF5E01"/>
</g>
<path d="M94.4756 27.5H257.075C262.322 27.5001 266.575 31.7534 266.575 37V165.634C266.575 168.14 265.584 170.546 263.818 172.325L233.519 202.863L202.154 234.352C200.372 236.141 197.95 237.147 195.424 237.147H34.6807C29.4342 237.147 25.1808 232.894 25.1807 227.647L25.1797 98.8506C25.1797 96.4042 26.1235 94.0521 27.8145 92.2842L61.1133 57.4707L61.1143 57.4717L87.6904 30.3506C89.4772 28.5273 91.9228 27.5 94.4756 27.5Z" fill="#FF5100" stroke="white"/>
<g filter="url(#filter1_f_155_406)">
<path d="M69.5017 64.8497L93.0444 40.8252C94.9252 38.9058 97.4994 37.8242 100.187 37.8242L244.614 37.8242C250.137 37.8242 254.614 42.3014 254.614 47.8242V161.786C254.614 164.424 253.571 166.956 251.713 168.829L224.825 195.928L196.985 223.878C195.109 225.762 192.559 226.821 189.9 226.821H47.134C41.6112 226.821 37.134 222.343 37.134 216.821L37.1329 102.702C37.1328 100.127 38.1263 97.6509 39.9065 95.7899L69.5017 64.8497Z" fill="#FF833B"/>
</g>
<g filter="url(#filter2_d_155_406)">
<path d="M69.5095 64.8497L93.0522 40.8252C94.933 38.9058 97.5072 37.8242 100.195 37.8242L244.622 37.8242C250.145 37.8242 254.622 42.3014 254.622 47.8242V161.786C254.622 164.424 253.579 166.956 251.721 168.829L224.833 195.928L196.993 223.878C195.116 225.762 192.567 226.821 189.908 226.821H47.1418C41.619 226.821 37.1419 222.343 37.1418 216.821L37.1407 102.702C37.1406 100.127 38.1342 97.6509 39.9143 95.7899L69.5095 64.8497Z" fill="#FF5100"/>
<path d="M100.194 38.3242H244.622C249.869 38.3243 254.122 42.5776 254.122 47.8242V161.786C254.122 164.293 253.131 166.697 251.365 168.477L224.479 195.575L196.639 223.524C194.856 225.314 192.434 226.32 189.908 226.32H47.1416C41.895 226.32 37.6417 222.067 37.6416 216.82L37.6406 102.702C37.6406 100.256 38.5844 97.9037 40.2754 96.1357L69.8711 65.1953L69.8701 65.1943L93.4092 41.1748C95.1959 39.3515 97.6415 38.3243 100.194 38.3242Z" stroke="white"/>
</g>
<path d="M170.559 107.645C163.783 100.869 154.773 97.1367 145.19 97.1367C135.607 97.1367 126.597 100.869 119.821 107.645C113.044 114.421 109.312 123.431 109.312 133.014C109.312 142.597 113.044 151.607 119.821 158.383C126.597 165.159 135.607 168.891 145.19 168.891C154.773 168.891 163.783 165.159 170.559 158.383C177.335 151.607 181.067 142.597 181.067 133.014C181.067 123.431 177.335 114.421 170.559 107.645ZM124.883 157.301C126.068 147.107 134.832 139.237 145.19 139.237C150.65 139.237 155.784 141.365 159.647 145.226C162.909 148.49 164.967 152.75 165.497 157.3C159.995 161.908 152.911 164.687 145.19 164.687C137.469 164.687 130.385 161.909 124.883 157.301ZM145.19 134.907C139.182 134.907 134.293 130.018 134.293 124.01C134.293 118.001 139.182 113.113 145.19 113.113C151.198 113.113 156.087 118.001 156.087 124.01C156.087 130.018 151.198 134.907 145.19 134.907ZM169.115 153.746C168.044 149.427 165.81 145.444 162.619 142.254C160.035 139.67 156.978 137.731 153.644 136.516C157.652 133.798 160.291 129.206 160.291 124.01C160.291 115.684 153.516 108.909 145.19 108.909C136.863 108.909 130.089 115.684 130.089 124.01C130.089 129.209 132.729 133.803 136.74 136.52C133.673 137.638 130.835 139.366 128.393 141.642C124.856 144.935 122.4 149.135 121.262 153.743C116.439 148.184 113.517 140.934 113.517 133.014C113.517 115.549 127.725 101.341 145.19 101.341C162.654 101.341 176.863 115.549 176.863 133.014C176.863 140.935 173.939 148.187 169.115 153.746Z" fill="white"/>
<g filter="url(#filter3_f_155_406)">
<path d="M422.757 57.1214L449.333 30.0009C451.214 28.0816 453.788 27 456.476 27L619.075 27C624.598 27 629.075 31.4772 629.075 37V165.634C629.075 168.273 628.032 170.804 626.174 172.677L595.873 203.216L564.508 234.704C562.632 236.588 560.082 237.647 557.423 237.647H396.681C391.158 237.647 386.681 233.17 386.681 227.647L386.68 98.8506C386.68 96.2753 387.673 93.7992 389.453 91.9382L422.757 57.1214Z" fill="#FF5E01"/>
</g>
<path d="M456.155 27.5H618.755C624.002 27.5001 628.255 31.7534 628.255 37V165.634C628.255 168.14 627.264 170.546 625.498 172.325L595.198 202.863L563.834 234.352C562.051 236.141 559.629 237.147 557.104 237.147H396.36C391.114 237.147 386.86 232.894 386.86 227.647L386.859 98.8506C386.859 96.4042 387.803 94.0521 389.494 92.2842L422.793 57.4707L422.794 57.4717L449.37 30.3506C451.157 28.5273 453.602 27.5 456.155 27.5Z" stroke="white"/>
<g filter="url(#filter4_f_155_406)">
<path d="M431.4 65.2794L454.943 41.2548C456.824 39.3355 459.398 38.2539 462.085 38.2539L606.513 38.2539C612.035 38.2539 616.513 42.7311 616.513 48.2539V162.215C616.513 164.854 615.47 167.386 613.611 169.259L586.723 196.358L558.883 224.307C557.007 226.191 554.458 227.25 551.799 227.25H409.032C403.51 227.25 399.032 222.773 399.032 217.25L399.031 103.132C399.031 100.557 400.025 98.0806 401.805 96.2196L431.4 65.2794Z" fill="#FF833B"/>
</g>
<g filter="url(#filter5_d_155_406)">
<path d="M431.181 64.8497L454.724 40.8252C456.605 38.9058 459.179 37.8242 461.866 37.8242L606.294 37.8242C611.817 37.8242 616.294 42.3014 616.294 47.8242V161.786C616.294 164.424 615.251 166.956 613.392 168.829L586.505 195.928L558.665 223.878C556.788 225.762 554.239 226.821 551.58 226.821H408.814C403.291 226.821 398.814 222.343 398.814 216.821L398.813 102.702C398.813 100.127 399.806 97.6509 401.586 95.7899L431.181 64.8497Z" fill="#FF5100"/>
<path d="M461.866 38.3242H606.294C611.541 38.3243 615.794 42.5776 615.794 47.8242V161.786C615.794 164.293 614.803 166.697 613.037 168.477L586.15 195.575L558.311 223.524C556.528 225.314 554.106 226.32 551.58 226.32H408.813C403.567 226.32 399.314 222.067 399.313 216.82L399.312 102.702C399.312 100.256 400.256 97.9037 401.947 96.1357L431.543 65.1953L431.542 65.1943L455.081 41.1748C456.868 39.3515 459.313 38.3243 461.866 38.3242Z" stroke="white"/>
</g>
<path d="M541.754 117.836H536.288C531.808 105.47 520.069 97.2266 506.808 97.2266C493.546 97.2266 481.807 105.47 477.327 117.836H471.861C468.904 117.836 466.484 120.256 466.484 123.213V133.965C466.484 136.922 468.904 139.342 471.861 139.342H478.581C479.119 139.342 479.657 139.073 480.015 138.625C480.373 138.177 480.463 137.55 480.284 137.012C479.388 134.324 478.94 131.456 478.94 128.589C478.94 125.722 479.388 122.854 480.284 120.166C484.047 108.607 494.621 100.811 506.808 100.811C518.994 100.811 529.568 108.607 533.242 120.166C534.138 122.854 534.586 125.722 534.586 128.589C534.586 131.456 534.138 134.324 533.242 137.012C529.568 148.571 518.994 156.367 506.808 156.367H493.366C489.872 156.367 487.094 159.145 487.094 162.64C487.094 166.134 489.872 168.912 493.366 168.912H502.327C505.822 168.912 508.6 166.134 508.6 162.64V159.862C521.145 159.145 531.987 151.17 536.288 139.342H541.754C544.711 139.342 547.131 136.922 547.131 133.965V123.213C547.131 120.256 544.711 117.836 541.754 117.836ZM476.252 135.758H471.861C470.875 135.758 470.069 134.951 470.069 133.965V123.213C470.069 122.227 470.875 121.42 471.861 121.42H476.252C475.714 123.75 475.445 126.17 475.445 128.589C475.445 131.008 475.714 133.428 476.252 135.758ZM505.015 162.64C505.015 164.163 503.851 165.328 502.327 165.328H493.366C491.843 165.328 490.678 164.163 490.678 162.64C490.678 161.116 491.843 159.952 493.366 159.952H505.015V162.64ZM543.546 133.965C543.546 134.951 542.74 135.758 541.754 135.758H537.364C537.901 133.428 538.17 131.008 538.17 128.589C538.17 126.17 537.901 123.75 537.364 121.42H541.754C542.74 121.42 543.546 122.227 543.546 123.213V133.965ZM529.209 128.589C529.209 116.223 519.173 106.187 506.808 106.187C494.442 106.187 484.406 116.223 484.406 128.589C484.406 133.965 486.288 139.073 489.782 143.105L484.943 147.944C484.406 148.482 484.316 149.199 484.585 149.916C484.854 150.543 485.481 150.991 486.198 150.991H506.808C519.173 150.991 529.209 140.955 529.209 128.589ZM493.546 141.851C489.961 138.267 487.99 133.607 487.99 128.589C487.99 118.195 496.413 109.772 506.808 109.772C517.202 109.772 525.625 118.195 525.625 128.589C525.625 138.983 517.202 147.407 506.808 147.407H490.499L493.456 144.449C494.173 143.733 494.173 142.568 493.546 141.851ZM505.015 128.589C505.015 127.603 505.822 126.797 506.808 126.797C507.793 126.797 508.6 127.603 508.6 128.589C508.6 129.575 507.793 130.381 506.808 130.381C505.822 130.381 505.015 129.575 505.015 128.589ZM513.976 128.589C513.976 127.603 514.783 126.797 515.768 126.797C516.754 126.797 517.56 127.603 517.56 128.589C517.56 129.575 516.754 130.381 515.768 130.381C514.783 130.381 513.976 129.575 513.976 128.589ZM496.055 128.589C496.055 127.603 496.861 126.797 497.847 126.797C498.833 126.797 499.639 127.603 499.639 128.589C499.639 129.575 498.833 130.381 497.847 130.381C496.861 130.381 496.055 129.575 496.055 128.589Z" fill="white"/>
<g filter="url(#filter6_f_155_406)">
<path d="M762.749 57.1214L789.325 30.0009C791.206 28.0816 793.78 27 796.468 27L959.067 27C964.59 27 969.067 31.4772 969.067 37V165.634C969.067 168.273 968.024 170.804 966.166 172.677L935.866 203.216L904.501 234.704C902.624 236.588 900.075 237.647 897.416 237.647H736.673C731.15 237.647 726.673 233.17 726.673 227.647L726.672 98.8506C726.672 96.2753 727.665 93.7992 729.446 91.9382L762.749 57.1214Z" fill="#FF5E01"/>
</g>
<path d="M796.546 27.5H959.146C964.392 27.5001 968.646 31.7534 968.646 37V165.634C968.646 168.14 967.654 170.546 965.889 172.325L935.589 202.863L904.225 234.352C902.442 236.141 900.02 237.147 897.494 237.147H736.751C731.505 237.147 727.251 232.894 727.251 227.647L727.25 98.8506C727.25 96.4042 728.194 94.0521 729.885 92.2842L763.184 57.4707L763.185 57.4717L789.761 30.3506C791.548 28.5273 793.993 27.5 796.546 27.5Z" stroke="white"/>
<g filter="url(#filter7_f_155_406)">
<path d="M771.392 65.2794L794.935 41.2548C796.816 39.3355 799.39 38.2539 802.077 38.2539L946.505 38.2539C952.028 38.2539 956.505 42.7311 956.505 48.2539V162.215C956.505 164.854 955.462 167.386 953.603 169.259L926.716 196.358L898.876 224.307C896.999 226.191 894.45 227.25 891.791 227.25H749.025C743.502 227.25 739.025 222.773 739.025 217.25L739.023 103.132C739.023 100.557 740.017 98.0806 741.797 96.2196L771.392 65.2794Z" fill="#FF833B"/>
</g>
<g filter="url(#filter8_d_155_406)">
<path d="M771.572 64.8497L795.115 40.8252C796.996 38.9058 799.57 37.8242 802.257 37.8242L946.684 37.8242C952.207 37.8242 956.684 42.3014 956.684 47.8242V161.786C956.684 164.424 955.642 166.956 953.783 168.829L926.895 195.928L899.055 223.878C897.179 225.762 894.629 226.821 891.97 226.821H749.204C743.682 226.821 739.204 222.343 739.204 216.821L739.203 102.702C739.203 100.127 740.197 97.6509 741.977 95.7899L771.572 64.8497Z" fill="#FF5100"/>
<path d="M802.257 38.3242H946.685C951.931 38.3243 956.185 42.5776 956.185 47.8242V161.786C956.184 164.293 955.193 166.697 953.428 168.477L926.541 195.575L898.701 223.524C896.919 225.314 894.497 226.32 891.971 226.32H749.204C743.958 226.32 739.704 222.067 739.704 216.82L739.703 102.702C739.703 100.256 740.647 97.9037 742.338 96.1357L771.934 65.1953L771.933 65.1943L795.472 41.1748C797.258 39.3515 799.704 38.3243 802.257 38.3242Z" stroke="white"/>
</g>
<g clip-path="url(#clip0_155_406)">
<path d="M843.774 133.711C843.774 131.413 841.904 129.543 839.606 129.543C837.308 129.543 835.438 131.413 835.438 133.711C835.438 136.009 837.308 137.879 839.606 137.879C841.904 137.879 843.774 136.009 843.774 133.711ZM839.606 135.101C838.84 135.101 838.216 134.478 838.216 133.711C838.216 132.944 838.84 132.322 839.606 132.322C840.371 132.322 840.995 132.946 840.995 133.711C840.995 134.477 840.371 135.101 839.606 135.101Z" fill="white"/>
<path d="M856.285 129.543C853.987 129.543 852.117 131.413 852.117 133.711C852.117 136.009 853.987 137.879 856.285 137.879C858.583 137.879 860.453 136.009 860.453 133.711C860.453 131.413 858.583 129.543 856.285 129.543ZM856.285 135.101C855.52 135.101 854.896 134.478 854.896 133.711C854.896 132.944 855.52 132.322 856.285 132.322C857.051 132.322 857.675 132.946 857.675 133.711C857.675 134.477 857.051 135.101 856.285 135.101Z" fill="white"/>
<path d="M854.259 146.092C850.348 148.102 845.546 148.102 841.635 146.092C840.952 145.74 840.115 146.01 839.764 146.693C839.412 147.377 839.682 148.213 840.365 148.565C842.684 149.756 845.306 150.386 847.947 150.386C850.588 150.386 853.21 149.757 855.529 148.565C856.211 148.213 856.481 147.377 856.131 146.693C855.78 146.01 854.943 145.74 854.259 146.092Z" fill="white"/>
<path d="M877.124 129.542H872.956V125.373C872.956 121.543 869.839 118.427 866.009 118.427H849.336V112.672C851.726 112.051 853.504 109.893 853.504 107.311C853.504 104.246 851.012 101.754 847.947 101.754C844.882 101.754 842.389 104.246 842.389 107.311C842.389 109.893 844.168 112.051 846.557 112.672V118.427H829.885C826.054 118.427 822.938 121.543 822.938 125.373V129.542H818.77C816.472 129.542 814.602 131.412 814.602 133.71V146.214C814.602 148.512 816.472 150.382 818.77 150.382H822.938V154.55C822.938 158.381 826.054 161.497 829.885 161.497H866.009C869.839 161.497 872.956 158.381 872.956 154.55V150.382H877.124C879.422 150.382 881.292 148.512 881.292 146.214V133.71C881.292 131.412 879.422 129.542 877.124 129.542ZM845.168 107.311C845.168 105.779 846.414 104.533 847.947 104.533C849.479 104.533 850.726 105.779 850.726 107.311C850.726 108.844 849.479 110.09 847.947 110.09C846.414 110.09 845.168 108.844 845.168 107.311ZM818.77 147.604C818.004 147.604 817.38 146.981 817.38 146.214V133.71C817.38 132.944 818.004 132.32 818.77 132.32H822.938V147.604H818.77ZM870.177 154.55C870.177 156.849 868.307 158.719 866.009 158.719H829.885C827.587 158.719 825.717 156.849 825.717 154.55V125.373C825.717 123.075 827.587 121.205 829.885 121.205H866.009C868.307 121.205 870.177 123.075 870.177 125.373V154.55ZM878.513 146.214C878.513 146.981 877.889 147.604 877.124 147.604H872.956V132.32H877.124C877.889 132.32 878.513 132.944 878.513 133.71V146.214Z" fill="white"/>
</g>
<defs>
<filter id="filter0_f_155_406" x="16.6797" y="19" width="258.398" height="226.648" filterUnits="userSpaceOnUse" color-interpolation-filters="sRGB">
<feFlood flood-opacity="0" result="BackgroundImageFix"/>
<feBlend mode="normal" in="SourceGraphic" in2="BackgroundImageFix" result="shape"/>
<feGaussianBlur stdDeviation="4" result="effect1_foregroundBlur_155_406"/>
</filter>
<filter id="filter1_f_155_406" x="0.232811" y="0.924217" width="291.284" height="262.796" filterUnits="userSpaceOnUse" color-interpolation-filters="sRGB">
<feFlood flood-opacity="0" result="BackgroundImageFix"/>
<feBlend mode="normal" in="SourceGraphic" in2="BackgroundImageFix" result="shape"/>
<feGaussianBlur stdDeviation="18.45" result="effect1_foregroundBlur_155_406"/>
</filter>
<filter id="filter2_d_155_406" x="11.4406" y="13.1242" width="274.884" height="246.396" filterUnits="userSpaceOnUse" color-interpolation-filters="sRGB">
<feFlood flood-opacity="0" result="BackgroundImageFix"/>
<feColorMatrix in="SourceAlpha" type="matrix" values="0 0 0 0 0 0 0 0 0 0 0 0 0 0 0 0 0 0 127 0" result="hardAlpha"/>
<feOffset dx="3" dy="4"/>
<feGaussianBlur stdDeviation="14.35"/>
<feComposite in2="hardAlpha" operator="out"/>
<feColorMatrix type="matrix" values="0 0 0 0 1 0 0 0 0 1 0 0 0 0 1 0 0 0 0.25 0"/>
<feBlend mode="normal" in2="BackgroundImageFix" result="effect1_dropShadow_155_406"/>
<feBlend mode="normal" in="SourceGraphic" in2="effect1_dropShadow_155_406" result="shape"/>
</filter>
<filter id="filter3_f_155_406" x="378.68" y="19" width="258.398" height="226.648" filterUnits="userSpaceOnUse" color-interpolation-filters="sRGB">
<feFlood flood-opacity="0" result="BackgroundImageFix"/>
<feBlend mode="normal" in="SourceGraphic" in2="BackgroundImageFix" result="shape"/>
<feGaussianBlur stdDeviation="4" result="effect1_foregroundBlur_155_406"/>
</filter>
<filter id="filter4_f_155_406" x="362.131" y="1.3539" width="291.284" height="262.796" filterUnits="userSpaceOnUse" color-interpolation-filters="sRGB">
<feFlood flood-opacity="0" result="BackgroundImageFix"/>
<feBlend mode="normal" in="SourceGraphic" in2="BackgroundImageFix" result="shape"/>
<feGaussianBlur stdDeviation="18.45" result="effect1_foregroundBlur_155_406"/>
</filter>
<filter id="filter5_d_155_406" x="373.112" y="13.1242" width="274.884" height="246.396" filterUnits="userSpaceOnUse" color-interpolation-filters="sRGB">
<feFlood flood-opacity="0" result="BackgroundImageFix"/>
<feColorMatrix in="SourceAlpha" type="matrix" values="0 0 0 0 0 0 0 0 0 0 0 0 0 0 0 0 0 0 127 0" result="hardAlpha"/>
<feOffset dx="3" dy="4"/>
<feGaussianBlur stdDeviation="14.35"/>
<feComposite in2="hardAlpha" operator="out"/>
<feColorMatrix type="matrix" values="0 0 0 0 1 0 0 0 0 1 0 0 0 0 1 0 0 0 0.25 0"/>
<feBlend mode="normal" in2="BackgroundImageFix" result="effect1_dropShadow_155_406"/>
<feBlend mode="normal" in="SourceGraphic" in2="effect1_dropShadow_155_406" result="shape"/>
</filter>
<filter id="filter6_f_155_406" x="718.672" y="19" width="258.398" height="226.648" filterUnits="userSpaceOnUse" color-interpolation-filters="sRGB">
<feFlood flood-opacity="0" result="BackgroundImageFix"/>
<feBlend mode="normal" in="SourceGraphic" in2="BackgroundImageFix" result="shape"/>
<feGaussianBlur stdDeviation="4" result="effect1_foregroundBlur_155_406"/>
</filter>
<filter id="filter7_f_155_406" x="702.123" y="1.3539" width="291.284" height="262.796" filterUnits="userSpaceOnUse" color-interpolation-filters="sRGB">
<feFlood flood-opacity="0" result="BackgroundImageFix"/>
<feBlend mode="normal" in="SourceGraphic" in2="BackgroundImageFix" result="shape"/>
<feGaussianBlur stdDeviation="18.45" result="effect1_foregroundBlur_155_406"/>
</filter>
<filter id="filter8_d_155_406" x="713.503" y="13.1242" width="274.884" height="246.396" filterUnits="userSpaceOnUse" color-interpolation-filters="sRGB">
<feFlood flood-opacity="0" result="BackgroundImageFix"/>
<feColorMatrix in="SourceAlpha" type="matrix" values="0 0 0 0 0 0 0 0 0 0 0 0 0 0 0 0 0 0 127 0" result="hardAlpha"/>
<feOffset dx="3" dy="4"/>
<feGaussianBlur stdDeviation="14.35"/>
<feComposite in2="hardAlpha" operator="out"/>
<feColorMatrix type="matrix" values="0 0 0 0 1 0 0 0 0 1 0 0 0 0 1 0 0 0 0.25 0"/>
<feBlend mode="normal" in2="BackgroundImageFix" result="effect1_dropShadow_155_406"/>
<feBlend mode="normal" in="SourceGraphic" in2="effect1_dropShadow_155_406" result="shape"/>
</filter>
<clipPath id="clip0_155_406">
<rect width="66.6904" height="66.6904" fill="white" transform="translate(814.602 98.9766)"/>
</clipPath>
</defs>
</svg>
