<svg width="292" height="264" viewBox="0 0 292 264" fill="none" xmlns="http://www.w3.org/2000/svg">
<g filter="url(#filter0_f_237_584)">
<path d="M60.8797 57.1214L87.4562 30.0009C89.3371 28.0816 91.9113 27 94.5986 27L257.198 27C262.721 27 267.198 31.4772 267.198 37V165.634C267.198 168.273 266.155 170.804 264.297 172.677L233.996 203.216L202.631 234.704C200.755 236.588 198.205 237.647 195.546 237.647H34.804C29.2812 237.647 24.8041 233.17 24.8041 227.647L24.8028 98.8506C24.8027 96.2753 25.7963 93.7992 27.5764 91.9382L60.8797 57.1214Z" fill="#FF5E01"/>
</g>
<path d="M94.2041 27.5H256.804C262.05 27.5001 266.304 31.7534 266.304 37V165.634C266.304 168.14 265.312 170.546 263.547 172.325L233.247 202.863L201.883 234.352C200.1 236.141 197.678 237.147 195.152 237.147H34.4092C29.1627 237.147 24.9093 232.894 24.9092 227.647L24.9082 98.8506C24.9082 96.4042 25.852 94.0521 27.543 92.2842L60.8418 57.4707L60.8428 57.4717L87.4189 30.3506C89.2057 28.5273 91.6513 27.5 94.2041 27.5Z" fill="#FF5100" stroke="white"/>
<g filter="url(#filter1_f_237_584)">
<path d="M69.6287 64.8507L93.1713 40.8261C95.0522 38.9068 97.6264 37.8252 100.314 37.8252L244.741 37.8252C250.264 37.8252 254.741 42.3024 254.741 47.8252V161.787C254.741 164.425 253.698 166.957 251.84 168.83L224.952 195.929L197.112 223.879C195.236 225.763 192.686 226.822 190.027 226.822H47.261C41.7381 226.822 37.261 222.344 37.2609 216.822L37.2598 102.703C37.2598 100.128 38.2533 97.6519 40.0334 95.7908L69.6287 64.8507Z" fill="#FF833B"/>
</g>
<g filter="url(#filter2_d_237_584)">
<path d="M69.2341 64.8507L92.7768 40.8261C94.6576 38.9068 97.2318 37.8252 99.9191 37.8252L244.346 37.8252C249.869 37.8252 254.347 42.3024 254.347 47.8252V161.787C254.347 164.425 253.304 166.957 251.445 168.83L224.557 195.929L196.717 223.879C194.841 225.763 192.291 226.822 189.633 226.822H46.8664C41.3436 226.822 36.8665 222.344 36.8664 216.822L36.8653 102.703C36.8652 100.128 37.8588 97.6519 39.6389 95.7908L69.2341 64.8507Z" fill="#FF5100"/>
<path d="M99.9189 38.3252H244.347C249.593 38.3253 253.847 42.5786 253.847 47.8252V161.787C253.847 164.294 252.855 166.698 251.09 168.478L224.203 195.576L196.363 223.525C194.581 225.315 192.159 226.321 189.633 226.321H46.8662C41.6196 226.321 37.3663 222.068 37.3662 216.821L37.3652 102.703C37.3652 100.257 38.309 97.9046 40 96.1367L69.5957 65.1963L69.5947 65.1953L93.1338 41.1758C94.9205 39.3525 97.3661 38.3252 99.9189 38.3252Z" stroke="white"/>
</g>
<path d="M126.439 149.914L121.912 150.922C119.513 151.443 117.365 152.772 115.829 154.687C114.293 156.602 113.461 158.986 113.473 161.442V163.621C113.475 165.098 113.961 166.533 114.857 167.707C115.752 168.881 117.008 169.729 118.431 170.121C122.803 171.313 131.1 172.737 145.803 172.737C160.507 172.737 168.803 171.313 173.175 170.121C174.598 169.729 175.854 168.881 176.75 167.707C177.645 166.533 178.131 165.098 178.133 163.621V161.442C178.145 158.986 177.314 156.602 175.777 154.687C174.241 152.772 172.093 151.443 169.694 150.922L165.168 149.914L158.993 146.211L156.51 140.419L157.318 139.488L157.926 139.651C158.561 139.819 159.216 139.905 159.874 139.905C161.86 139.901 163.763 139.109 165.166 137.703C166.569 136.297 167.357 134.391 167.357 132.405V130.788C168.51 130.49 169.533 129.819 170.264 128.878C170.995 127.937 171.394 126.78 171.398 125.589V120.2C171.393 119.009 170.994 117.853 170.263 116.913C169.532 115.972 168.51 115.301 167.357 115.003V113.465C167.357 107.748 165.086 102.266 161.044 98.224C157.002 94.1819 151.519 91.9111 145.803 91.9111C140.087 91.9111 134.605 94.1819 130.562 98.224C126.52 102.266 124.25 107.748 124.25 113.465V115.003C123.096 115.301 122.074 115.972 121.343 116.913C120.612 117.853 120.213 119.009 120.208 120.2V125.589C120.208 127.018 120.776 128.388 121.786 129.399C122.797 130.409 124.168 130.977 125.597 130.977H128.291C128.751 130.972 129.207 130.889 129.638 130.729V131.194C129.637 133.117 130.335 134.975 131.602 136.422L135.104 140.416L132.62 146.209L126.439 149.914ZM133.297 148.943C135.733 152.154 139.069 154.567 142.881 155.877C141.582 157.149 140.503 158.627 139.687 160.252C135.447 158.273 131.749 155.295 128.911 151.574L133.297 148.943ZM175.439 161.442V163.621C175.44 164.508 175.149 165.371 174.612 166.077C174.074 166.782 173.32 167.292 172.465 167.528C168.252 168.671 160.208 170.043 145.803 170.043C131.399 170.043 123.354 168.671 119.141 167.521C118.287 167.286 117.534 166.777 116.997 166.073C116.459 165.368 116.168 164.507 116.167 163.621V161.442C116.158 159.6 116.782 157.811 117.934 156.375C119.087 154.939 120.698 153.942 122.498 153.553L126.37 152.692C127.888 154.73 132.491 160.325 139.008 162.882C139.566 163.096 140.184 163.091 140.738 162.867C141.292 162.644 141.741 162.219 141.994 161.677C142.877 159.807 144.181 158.167 145.803 156.884C147.426 158.167 148.73 159.807 149.615 161.676C149.806 162.083 150.109 162.427 150.488 162.668C150.867 162.909 151.307 163.037 151.756 163.038C152.045 163.038 152.333 162.984 152.602 162.878C159.118 160.318 163.721 154.726 165.239 152.688L169.111 153.549C170.911 153.939 172.522 154.936 173.674 156.373C174.826 157.81 175.45 159.6 175.439 161.442ZM151.919 160.252C151.104 158.627 150.025 157.148 148.725 155.877C152.537 154.567 155.873 152.154 158.31 148.943L162.696 151.574C159.857 155.295 156.159 158.272 151.919 160.252ZM162.79 136.21C161.813 136.954 160.586 137.292 159.366 137.153L160.004 136.423C161.271 134.976 161.969 133.117 161.968 131.194V130.729C162.4 130.889 162.855 130.972 163.315 130.977H164.662V132.405C164.665 133.141 164.497 133.867 164.173 134.527C163.848 135.187 163.375 135.764 162.79 136.21ZM159.274 114.792C146.898 114.42 144.377 108.963 144.36 108.924C144.26 108.673 144.088 108.459 143.865 108.308C143.642 108.157 143.378 108.076 143.109 108.076C139.19 108.082 135.419 109.578 132.561 112.26C133.767 105.575 139.536 99.9937 145.803 99.9937C149.375 99.9976 152.799 101.418 155.324 103.944C157.85 106.469 159.27 109.893 159.274 113.465V114.792ZM168.704 120.2V125.589C168.704 126.303 168.42 126.988 167.915 127.494C167.409 127.999 166.724 128.283 166.01 128.283H163.315C162.958 128.283 162.615 128.141 162.363 127.888C162.11 127.636 161.968 127.293 161.968 126.936V118.853C161.968 118.496 162.11 118.153 162.363 117.901C162.615 117.648 162.958 117.506 163.315 117.506H166.01C166.724 117.506 167.409 117.79 167.915 118.295C168.42 118.8 168.704 119.486 168.704 120.2ZM145.803 94.6053C150.803 94.6107 155.597 96.5994 159.133 100.135C162.668 103.671 164.657 108.465 164.662 113.465V114.812H163.315C162.855 114.816 162.4 114.9 161.968 115.06V113.465C161.964 109.179 160.259 105.07 157.228 102.039C154.198 99.0088 150.089 97.3042 145.803 97.2995C137.191 97.2995 129.638 105.483 129.638 114.812V115.06C129.207 114.9 128.751 114.816 128.291 114.812H126.944V113.465C126.949 108.465 128.938 103.671 132.473 100.135C136.009 96.5994 140.803 94.6107 145.803 94.6053ZM128.291 128.283H125.597C124.882 128.283 124.197 127.999 123.692 127.494C123.186 126.988 122.902 126.303 122.902 125.589V120.2C122.902 119.486 123.186 118.8 123.692 118.295C124.197 117.79 124.882 117.506 125.597 117.506H128.291C128.648 117.506 128.991 117.648 129.243 117.901C129.496 118.153 129.638 118.496 129.638 118.853V126.936C129.638 127.293 129.496 127.636 129.243 127.888C128.991 128.141 128.648 128.283 128.291 128.283ZM132.332 131.194V116.563C133.468 114.92 134.955 113.55 136.685 112.552C138.416 111.555 140.347 110.955 142.338 110.796C143.61 112.721 147.797 117.148 159.274 117.476V131.194C159.274 132.465 158.813 133.693 157.975 134.649L156.399 136.45L152.627 135.443L152.668 135.276C152.75 134.931 152.764 134.574 152.708 134.225C152.653 133.875 152.529 133.54 152.343 133.238C152.158 132.937 151.915 132.674 151.629 132.467C151.342 132.259 151.017 132.11 150.673 132.028L146.743 131.085C145.7 130.835 144.601 131.01 143.687 131.571C142.773 132.131 142.119 133.032 141.87 134.075C141.62 135.118 141.795 136.217 142.355 137.132C142.916 138.046 143.817 138.699 144.86 138.949L148.79 139.892C148.997 139.942 149.209 139.967 149.423 139.967C149.998 139.968 150.557 139.783 151.018 139.439C151.479 139.096 151.818 138.613 151.982 138.063L154.419 138.715L152.404 141.013C151.83 141.669 151.123 142.194 150.33 142.554C149.537 142.914 148.676 143.101 147.805 143.101H143.801C142.93 143.1 142.069 142.914 141.276 142.554C140.483 142.194 139.776 141.668 139.202 141.013L133.633 134.648C132.795 133.692 132.333 132.465 132.332 131.194ZM150.046 134.649L149.421 137.268L145.491 136.325C145.316 136.286 145.152 136.212 145.006 136.109C144.861 136.006 144.737 135.875 144.643 135.723C144.548 135.572 144.485 135.403 144.456 135.227C144.428 135.051 144.434 134.871 144.476 134.697C144.517 134.524 144.593 134.36 144.698 134.216C144.803 134.072 144.936 133.95 145.089 133.858C145.241 133.765 145.411 133.704 145.588 133.678C145.764 133.652 145.944 133.661 146.117 133.705L150.046 134.649ZM137.171 142.787C137.998 143.732 139.017 144.49 140.161 145.008C141.304 145.527 142.546 145.795 143.801 145.795H147.805C149.061 145.795 150.302 145.527 151.446 145.008C152.589 144.489 153.608 143.732 154.435 142.787L154.543 142.664L156.398 146.995C153.842 150.52 150.065 152.967 145.803 153.857C141.541 152.967 137.764 150.52 135.208 146.995L137.064 142.664L137.171 142.787Z" fill="white"/>
<defs>
<filter id="filter0_f_237_584" x="16.8027" y="19" width="258.396" height="226.647" filterUnits="userSpaceOnUse" color-interpolation-filters="sRGB">
<feFlood flood-opacity="0" result="BackgroundImageFix"/>
<feBlend mode="normal" in="SourceGraphic" in2="BackgroundImageFix" result="shape"/>
<feGaussianBlur stdDeviation="4" result="effect1_foregroundBlur_237_584"/>
</filter>
<filter id="filter1_f_237_584" x="0.359764" y="0.925194" width="291.281" height="262.796" filterUnits="userSpaceOnUse" color-interpolation-filters="sRGB">
<feFlood flood-opacity="0" result="BackgroundImageFix"/>
<feBlend mode="normal" in="SourceGraphic" in2="BackgroundImageFix" result="shape"/>
<feGaussianBlur stdDeviation="18.45" result="effect1_foregroundBlur_237_584"/>
</filter>
<filter id="filter2_d_237_584" x="11.1652" y="13.1252" width="274.881" height="246.396" filterUnits="userSpaceOnUse" color-interpolation-filters="sRGB">
<feFlood flood-opacity="0" result="BackgroundImageFix"/>
<feColorMatrix in="SourceAlpha" type="matrix" values="0 0 0 0 0 0 0 0 0 0 0 0 0 0 0 0 0 0 127 0" result="hardAlpha"/>
<feOffset dx="3" dy="4"/>
<feGaussianBlur stdDeviation="14.35"/>
<feComposite in2="hardAlpha" operator="out"/>
<feColorMatrix type="matrix" values="0 0 0 0 1 0 0 0 0 1 0 0 0 0 1 0 0 0 0.25 0"/>
<feBlend mode="normal" in2="BackgroundImageFix" result="effect1_dropShadow_237_584"/>
<feBlend mode="normal" in="SourceGraphic" in2="effect1_dropShadow_237_584" result="shape"/>
</filter>
</defs>
</svg>
