<svg width="840" height="297" viewBox="0 0 840 297" fill="none" xmlns="http://www.w3.org/2000/svg">
<path d="M272.466 252.886H7.98571H7.60412C4.3834 252.886 2.48332 249.274 4.30795 246.62L42.7294 190.734C43.4756 189.648 44.7084 189 46.0256 189H280.835C282.168 189 283.128 190.279 282.756 191.559L275.632 216.047C275.545 216.345 275.529 216.659 275.584 216.964L279.418 238.049C279.472 238.346 279.458 238.651 279.377 238.942L276.32 249.956C275.84 251.687 274.263 252.886 272.466 252.886Z" fill="#FFF9F9" stroke="white"/>
<path d="M287.486 276.5L275.508 216.607L298 141L306.5 134.5L777.5 1L792 7L814.544 72.8643L838.501 260.529L782.601 296.464H335L287.486 276.5Z" stroke="white"/>
</svg>
