<svg width="292" height="263" viewBox="0 0 292 263" fill="none" xmlns="http://www.w3.org/2000/svg">
<g filter="url(#filter0_f_237_615)">
<path d="M60.8797 56.1937L87.4562 29.0732C89.3371 27.1538 91.9113 26.0723 94.5986 26.0723L257.198 26.0723C262.721 26.0723 267.198 30.5494 267.198 36.0723V164.706C267.198 167.345 266.155 169.877 264.297 171.75L233.996 202.288L202.631 233.777C200.755 235.661 198.205 236.719 195.546 236.719H34.804C29.2812 236.719 24.8041 232.242 24.8041 226.72L24.8028 97.9228C24.8027 95.3475 25.7963 92.8715 27.5764 91.0105L60.8797 56.1937Z" fill="#FF5E01"/>
</g>
<path d="M94.5986 26.5723H257.198C262.445 26.5724 266.698 30.8256 266.698 36.0723V164.706C266.698 167.213 265.707 169.618 263.941 171.397L233.642 201.936L202.277 233.424C200.495 235.213 198.073 236.22 195.547 236.22H34.8037C29.5572 236.22 25.3038 231.966 25.3037 226.72L25.3027 97.9229C25.3027 95.4764 26.2466 93.1244 27.9375 91.3564L61.2363 56.543L61.2373 56.5439L87.8135 29.4229C89.6003 27.5996 92.0458 26.5723 94.5986 26.5723Z" fill="#FF5100" stroke="white"/>
<g filter="url(#filter1_f_237_615)">
<path d="M69.6287 63.9229L93.1713 39.8984C95.0522 37.979 97.6264 36.8975 100.314 36.8975L244.741 36.8975C250.264 36.8975 254.741 41.3746 254.741 46.8975V160.859C254.741 163.498 253.698 166.029 251.84 167.902L224.952 195.001L197.112 222.951C195.236 224.835 192.686 225.894 190.027 225.894H47.261C41.7381 225.894 37.261 221.417 37.2609 215.894L37.2598 101.775C37.2598 99.2002 38.2533 96.7241 40.0334 94.8631L69.6287 63.9229Z" fill="#FF833B"/>
</g>
<g filter="url(#filter2_d_237_615)">
<path d="M69.6287 63.9229L93.1713 39.8984C95.0522 37.979 97.6264 36.8975 100.314 36.8975L244.741 36.8975C250.264 36.8975 254.741 41.3746 254.741 46.8975V160.859C254.741 163.498 253.698 166.029 251.84 167.902L224.952 195.001L197.112 222.951C195.236 224.835 192.686 225.894 190.027 225.894H47.261C41.7381 225.894 37.261 221.417 37.2609 215.894L37.2598 101.775C37.2598 99.2002 38.2533 96.7241 40.0334 94.8631L69.6287 63.9229Z" fill="#FF5100"/>
<path d="M100.313 37.3975H244.741C249.988 37.3976 254.241 41.6508 254.241 46.8975V160.859C254.241 163.366 253.25 165.77 251.484 167.55L224.598 194.648L196.758 222.598C194.975 224.387 192.553 225.393 190.027 225.394H47.2607C42.0142 225.393 37.7608 221.14 37.7607 215.894L37.7598 101.775C37.7598 99.329 38.7036 96.9769 40.3945 95.209L69.9902 64.2686L69.9893 64.2676L93.5283 40.248C95.3151 38.4248 97.7607 37.3975 100.313 37.3975Z" stroke="white"/>
</g>
<g clip-path="url(#clip0_237_615)">
<path d="M178.364 141.752H162.796C163.653 140.639 164.12 139.274 164.124 137.869V114.568C164.12 110.996 161.225 108.1 157.652 108.096H155.063V101.624C155.063 96.6194 151.006 92.5625 146.002 92.5625C140.998 92.5625 136.941 96.6194 136.941 101.624V108.096H134.352C130.779 108.1 127.884 110.996 127.879 114.568V137.869C127.884 139.274 128.351 140.639 129.207 141.752H113.64C110.067 141.757 107.172 144.652 107.168 148.224V163.758C107.172 167.331 110.067 170.226 113.64 170.23H178.364C181.936 170.226 184.832 167.331 184.836 163.758V148.224C184.832 144.652 181.936 141.757 178.364 141.752ZM139.53 101.624C139.53 98.0492 142.427 95.1513 146.002 95.1513C149.576 95.1513 152.474 98.0492 152.474 101.624V108.096H139.53V101.624H139.53ZM130.468 137.869V114.568C130.468 112.424 132.207 110.685 134.352 110.685H157.652C159.797 110.685 161.536 112.424 161.536 114.568V137.869C161.536 140.014 159.797 141.752 157.652 141.752H134.352C132.207 141.752 130.468 140.014 130.468 137.869ZM182.247 163.758C182.247 165.903 180.508 167.641 178.364 167.641H113.64C111.496 167.641 109.757 165.903 109.757 163.758V148.224C109.757 146.08 111.496 144.341 113.64 144.341H178.364C180.508 144.341 182.247 146.08 182.247 148.224L182.247 163.758Z" fill="white"/>
<path fill-rule="evenodd" clip-rule="evenodd" d="M150.809 151.192C150.303 150.687 149.484 150.687 148.978 151.192L146.01 154.161L143.042 151.192C142.534 150.702 141.727 150.709 141.227 151.208C140.728 151.708 140.721 152.515 141.212 153.023L144.18 155.991L141.212 158.959C140.875 159.284 140.74 159.766 140.859 160.218C140.977 160.671 141.331 161.024 141.783 161.143C142.236 161.261 142.717 161.126 143.042 160.79L146.01 157.821L148.978 160.79C149.486 161.28 150.294 161.273 150.793 160.774C151.292 160.274 151.299 159.467 150.809 158.959L147.841 155.991L150.809 153.023C151.314 152.517 151.314 151.698 150.809 151.192Z" fill="white"/>
<path fill-rule="evenodd" clip-rule="evenodd" d="M137.858 151.192C137.352 150.687 136.533 150.687 136.027 151.192L133.059 154.161L130.091 151.192C129.583 150.702 128.775 150.709 128.276 151.208C127.777 151.708 127.77 152.515 128.26 153.023L131.229 155.991L128.26 158.959C127.924 159.284 127.789 159.766 127.907 160.218C128.026 160.671 128.379 161.024 128.832 161.143C129.284 161.261 129.766 161.126 130.091 160.79L133.059 157.821L136.027 160.79C136.535 161.28 137.343 161.273 137.842 160.774C138.341 160.274 138.348 159.467 137.858 158.959L134.889 155.991L137.858 153.023C138.363 152.517 138.363 151.698 137.858 151.192Z" fill="white"/>
<path fill-rule="evenodd" clip-rule="evenodd" d="M124.916 151.192C124.411 150.687 123.591 150.687 123.086 151.192L120.118 154.161L117.149 151.192C116.642 150.702 115.834 150.709 115.335 151.208C114.835 151.708 114.828 152.515 115.319 153.023L118.287 155.991L115.319 158.959C114.983 159.284 114.848 159.766 114.966 160.218C115.085 160.671 115.438 161.024 115.89 161.143C116.343 161.261 116.824 161.126 117.149 160.79L120.118 157.821L123.086 160.79C123.594 161.28 124.401 161.273 124.9 160.774C125.4 160.274 125.407 159.467 124.916 158.959L121.948 155.991L124.916 153.023C125.422 152.517 125.422 151.698 124.916 151.192Z" fill="white"/>
<path fill-rule="evenodd" clip-rule="evenodd" d="M176.692 151.192C176.186 150.687 175.367 150.687 174.861 151.192L171.893 154.161L168.925 151.192C168.417 150.702 167.609 150.709 167.11 151.208C166.611 151.708 166.604 152.515 167.094 153.023L170.063 155.991L167.094 158.959C166.758 159.284 166.623 159.766 166.741 160.218C166.86 160.671 167.213 161.024 167.666 161.143C168.118 161.261 168.6 161.126 168.925 160.79L171.893 157.821L174.861 160.79C175.369 161.28 176.177 161.273 176.676 160.774C177.175 160.274 177.182 159.467 176.692 158.959L173.723 155.991L176.692 153.023C177.197 152.517 177.197 151.698 176.692 151.192Z" fill="white"/>
<path fill-rule="evenodd" clip-rule="evenodd" d="M163.75 151.192C163.245 150.687 162.425 150.687 161.92 151.192L158.952 154.161L155.983 151.192C155.476 150.702 154.668 150.709 154.169 151.208C153.669 151.708 153.662 152.515 154.153 153.023L157.121 155.991L154.153 158.959C153.817 159.284 153.682 159.766 153.8 160.218C153.919 160.671 154.272 161.024 154.724 161.143C155.177 161.261 155.658 161.126 155.983 160.79L158.952 157.821L161.92 160.79C162.428 161.28 163.235 161.273 163.734 160.774C164.234 160.274 164.241 159.467 163.75 158.959L160.782 155.991L163.75 153.023C164.256 152.517 164.256 151.698 163.75 151.192Z" fill="white"/>
<path fill-rule="evenodd" clip-rule="evenodd" d="M146.003 114.567C141.715 114.572 138.241 118.047 138.236 122.334C138.236 123.049 138.816 123.629 139.531 123.629C140.246 123.629 140.825 123.049 140.825 122.334C140.825 119.475 143.143 117.156 146.003 117.156C148.863 117.156 151.181 119.475 151.181 122.334C151.181 125.194 148.863 127.512 146.003 127.512C145.288 127.512 144.709 128.092 144.709 128.806V131.395C144.709 132.11 145.288 132.69 146.003 132.69C146.718 132.69 147.298 132.11 147.298 131.395V129.993C151.282 129.324 154.088 125.711 153.75 121.685C153.412 117.658 150.044 114.564 146.003 114.567Z" fill="white"/>
<path d="M146.007 137.868C146.722 137.868 147.302 137.289 147.302 136.574C147.302 135.859 146.722 135.279 146.007 135.279C145.292 135.279 144.713 135.859 144.713 136.574C144.713 137.289 145.292 137.868 146.007 137.868Z" fill="white"/>
</g>
<defs>
<filter id="filter0_f_237_615" x="16.8027" y="18.0723" width="258.396" height="226.647" filterUnits="userSpaceOnUse" color-interpolation-filters="sRGB">
<feFlood flood-opacity="0" result="BackgroundImageFix"/>
<feBlend mode="normal" in="SourceGraphic" in2="BackgroundImageFix" result="shape"/>
<feGaussianBlur stdDeviation="4" result="effect1_foregroundBlur_237_615"/>
</filter>
<filter id="filter1_f_237_615" x="0.359764" y="-0.00254059" width="291.281" height="262.796" filterUnits="userSpaceOnUse" color-interpolation-filters="sRGB">
<feFlood flood-opacity="0" result="BackgroundImageFix"/>
<feBlend mode="normal" in="SourceGraphic" in2="BackgroundImageFix" result="shape"/>
<feGaussianBlur stdDeviation="18.45" result="effect1_foregroundBlur_237_615"/>
</filter>
<filter id="filter2_d_237_615" x="11.5598" y="12.1975" width="274.881" height="246.396" filterUnits="userSpaceOnUse" color-interpolation-filters="sRGB">
<feFlood flood-opacity="0" result="BackgroundImageFix"/>
<feColorMatrix in="SourceAlpha" type="matrix" values="0 0 0 0 0 0 0 0 0 0 0 0 0 0 0 0 0 0 127 0" result="hardAlpha"/>
<feOffset dx="3" dy="4"/>
<feGaussianBlur stdDeviation="14.35"/>
<feComposite in2="hardAlpha" operator="out"/>
<feColorMatrix type="matrix" values="0 0 0 0 1 0 0 0 0 1 0 0 0 0 1 0 0 0 0.25 0"/>
<feBlend mode="normal" in2="BackgroundImageFix" result="effect1_dropShadow_237_615"/>
<feBlend mode="normal" in="SourceGraphic" in2="effect1_dropShadow_237_615" result="shape"/>
</filter>
<clipPath id="clip0_237_615">
<rect width="77.668" height="77.668" fill="white" transform="translate(107.168 92.5625)"/>
</clipPath>
</defs>
</svg>
