<svg width="1445" height="861" viewBox="0 0 1445 861" fill="none" xmlns="http://www.w3.org/2000/svg">
<path d="M1.03125 430.43L722.584 430.258" stroke="#FF8A4A" stroke-linecap="round"/>
<path d="M1444.14 430.43L722.588 430.258" stroke="#FF8A4A" stroke-linecap="round"/>
<path d="M721.227 1.12891L721.227 427.193" stroke="#FF8A4A" stroke-linecap="round"/>
<path d="M721.227 427.191L721.227 860.396" stroke="#FF8A4A" stroke-linecap="round"/>
<g filter="url(#filter0_d_160_653)">
<path d="M683.119 349.463H807.885C812.374 349.463 816.014 353.102 816.014 357.592V456.04C816.014 458.185 815.166 460.242 813.655 461.765L790.429 485.174L766.379 509.319C764.854 510.851 762.781 511.711 760.619 511.711H637.288C632.799 511.711 629.159 508.072 629.159 503.583L629.158 404.999C629.158 402.906 629.966 400.893 631.413 399.38L656.979 372.651L677.312 351.902C678.841 350.342 680.935 349.463 683.119 349.463Z" stroke="#FF8A4A" stroke-width="1.01996" shape-rendering="crispEdges"/>
</g>
<g filter="url(#filter1_d_160_653)">
<path d="M675.354 333.509H824.656C830.028 333.509 834.384 337.864 834.384 343.236V461.044C834.384 463.611 833.369 466.074 831.562 467.896L803.767 495.908L774.987 524.801C773.162 526.633 770.682 527.664 768.096 527.664H620.511C615.139 527.664 610.783 523.309 610.783 517.937L610.782 399.966C610.782 397.461 611.749 395.052 613.48 393.242L644.068 361.263L644.069 361.264L668.406 336.428C670.236 334.561 672.74 333.509 675.354 333.509Z" stroke="#FF8A4A" stroke-width="1.22054" shape-rendering="crispEdges"/>
</g>
<g filter="url(#filter2_d_160_653)">
<path d="M667.386 381.821L684.401 364.458C685.76 363.071 687.621 362.289 689.563 362.289L793.944 362.289C797.935 362.289 801.171 365.525 801.171 369.516V451.879C801.171 453.786 800.417 455.616 799.074 456.969L779.642 476.554L759.521 496.754C758.165 498.116 756.322 498.881 754.401 498.881H651.22C647.229 498.881 643.993 495.645 643.993 491.654L643.992 409.178C643.992 407.317 644.71 405.527 645.997 404.182L667.386 381.821Z" fill="white"/>
<path d="M689.562 362.65H793.943C797.735 362.65 800.81 365.725 800.81 369.517V451.879C800.81 453.691 800.093 455.429 798.817 456.715L779.385 476.3L759.265 496.499C757.976 497.792 756.226 498.52 754.4 498.52H651.221C647.429 498.52 644.355 495.446 644.354 491.654L644.354 409.178C644.354 407.41 645.036 405.709 646.258 404.432L667.644 382.073L667.645 382.074L684.659 364.711C685.95 363.393 687.718 362.65 689.562 362.65Z" stroke="white" stroke-width="0.722723"/>
</g>
<path fill-rule="evenodd" clip-rule="evenodd" d="M690.312 403.73L721.206 421.543L752.481 403.79L752.481 445.6L743.563 450.654L743.563 419.107L721.172 431.817L699.231 419.166L699.231 450.654L690.312 445.6L690.312 403.73Z" fill="#1D1D1D"/>
<path fill-rule="evenodd" clip-rule="evenodd" d="M701.891 441.473L721.183 452.644L740.904 441.32L740.904 451.909L721.183 463.187L701.891 452.042L701.891 441.473Z" fill="#FE6E00"/>
<defs>
<filter id="filter0_d_160_653" x="606.447" y="327.616" width="237.461" height="212.856" filterUnits="userSpaceOnUse" color-interpolation-filters="sRGB">
<feFlood flood-opacity="0" result="BackgroundImageFix"/>
<feColorMatrix in="SourceAlpha" type="matrix" values="0 0 0 0 0 0 0 0 0 0 0 0 0 0 0 0 0 0 127 0" result="hardAlpha"/>
<feOffset dx="2.59161" dy="3.45548"/>
<feGaussianBlur stdDeviation="12.3965"/>
<feComposite in2="hardAlpha" operator="out"/>
<feColorMatrix type="matrix" values="0 0 0 0 1 0 0 0 0 1 0 0 0 0 1 0 0 0 0.25 0"/>
<feBlend mode="normal" in2="BackgroundImageFix" result="effect1_dropShadow_160_653"/>
<feBlend mode="normal" in="SourceGraphic" in2="effect1_dropShadow_160_653" result="shape"/>
</filter>
<filter id="filter1_d_160_653" x="583.604" y="307.365" width="284.158" height="254.712" filterUnits="userSpaceOnUse" color-interpolation-filters="sRGB">
<feFlood flood-opacity="0" result="BackgroundImageFix"/>
<feColorMatrix in="SourceAlpha" type="matrix" values="0 0 0 0 0 0 0 0 0 0 0 0 0 0 0 0 0 0 127 0" result="hardAlpha"/>
<feOffset dx="3.10126" dy="4.13501"/>
<feGaussianBlur stdDeviation="14.8343"/>
<feComposite in2="hardAlpha" operator="out"/>
<feColorMatrix type="matrix" values="0 0 0 0 1 0 0 0 0 1 0 0 0 0 1 0 0 0 0.25 0"/>
<feBlend mode="normal" in2="BackgroundImageFix" result="effect1_dropShadow_160_653"/>
<feBlend mode="normal" in="SourceGraphic" in2="effect1_dropShadow_160_653" result="shape"/>
</filter>
<filter id="filter2_d_160_653" x="625.418" y="344.438" width="198.664" height="178.078" filterUnits="userSpaceOnUse" color-interpolation-filters="sRGB">
<feFlood flood-opacity="0" result="BackgroundImageFix"/>
<feColorMatrix in="SourceAlpha" type="matrix" values="0 0 0 0 0 0 0 0 0 0 0 0 0 0 0 0 0 0 127 0" result="hardAlpha"/>
<feOffset dx="2.16817" dy="2.89089"/>
<feGaussianBlur stdDeviation="10.3711"/>
<feComposite in2="hardAlpha" operator="out"/>
<feColorMatrix type="matrix" values="0 0 0 0 1 0 0 0 0 1 0 0 0 0 1 0 0 0 0.25 0"/>
<feBlend mode="normal" in2="BackgroundImageFix" result="effect1_dropShadow_160_653"/>
<feBlend mode="normal" in="SourceGraphic" in2="effect1_dropShadow_160_653" result="shape"/>
</filter>
</defs>
</svg>
