<svg width="292" height="264" viewBox="0 0 292 264" fill="none" xmlns="http://www.w3.org/2000/svg">
<g filter="url(#filter0_f_237_523)">
<path d="M60.8797 57.1214L87.4562 30.0009C89.3371 28.0816 91.9113 27 94.5986 27L257.198 27C262.721 27 267.198 31.4772 267.198 37V165.634C267.198 168.273 266.155 170.804 264.297 172.677L233.996 203.216L202.631 234.704C200.755 236.588 198.205 237.647 195.546 237.647H34.804C29.2812 237.647 24.8041 233.17 24.8041 227.647L24.8028 98.8506C24.8027 96.2753 25.7963 93.7992 27.5764 91.9382L60.8797 57.1214Z" fill="#FF5E01"/>
</g>
<path d="M94.5986 27.5H257.198C262.445 27.5001 266.698 31.7534 266.698 37V165.634C266.698 168.14 265.707 170.546 263.941 172.325L233.642 202.863L202.277 234.352C200.495 236.141 198.073 237.147 195.547 237.147H34.8037C29.5572 237.147 25.3038 232.894 25.3037 227.647L25.3027 98.8506C25.3027 96.4042 26.2466 94.0521 27.9375 92.2842L61.2363 57.4707L61.2373 57.4717L87.8135 30.3506C89.6003 28.5273 92.0458 27.5 94.5986 27.5Z" fill="#FF5100" stroke="white"/>
<g filter="url(#filter1_f_237_523)">
<path d="M69.6287 64.8507L93.1713 40.8261C95.0522 38.9068 97.6264 37.8252 100.314 37.8252L244.741 37.8252C250.264 37.8252 254.741 42.3024 254.741 47.8252V161.787C254.741 164.425 253.698 166.957 251.84 168.83L224.952 195.929L197.112 223.879C195.236 225.763 192.686 226.822 190.027 226.822H47.261C41.7381 226.822 37.261 222.344 37.2609 216.822L37.2598 102.703C37.2598 100.128 38.2533 97.6519 40.0334 95.7908L69.6287 64.8507Z" fill="#FF833B"/>
</g>
<g filter="url(#filter2_d_237_523)">
<path d="M69.6287 64.8507L93.1713 40.8261C95.0522 38.9068 97.6264 37.8252 100.314 37.8252L244.741 37.8252C250.264 37.8252 254.741 42.3024 254.741 47.8252V161.787C254.741 164.425 253.698 166.957 251.84 168.83L224.952 195.929L197.112 223.879C195.236 225.763 192.686 226.822 190.027 226.822H47.261C41.7381 226.822 37.261 222.344 37.2609 216.822L37.2598 102.703C37.2598 100.128 38.2533 97.6519 40.0334 95.7908L69.6287 64.8507Z" fill="#FF5100"/>
<path d="M100.313 38.3252H244.741C249.988 38.3253 254.241 42.5786 254.241 47.8252V161.787C254.241 164.294 253.25 166.698 251.484 168.478L224.598 195.576L196.758 223.525C194.975 225.315 192.553 226.321 190.027 226.321H47.2607C42.0142 226.321 37.7608 222.068 37.7607 216.821L37.7598 102.703C37.7598 100.257 38.7036 97.9046 40.3945 96.1367L69.9902 65.1963L69.9893 65.1953L93.5283 41.1758C95.3151 39.3525 97.7607 38.3252 100.313 38.3252Z" stroke="white"/>
</g>
<path fill-rule="evenodd" clip-rule="evenodd" d="M160.147 171.69H131.853C127.547 171.69 124.164 168.154 124.164 164.002V100.647C124.164 96.4948 127.547 92.958 131.853 92.958H160.147C164.453 92.958 167.836 96.4948 167.836 100.647V164.002C167.836 168.154 164.453 171.69 160.147 171.69ZM131.853 94.8033C128.624 94.8033 126.009 97.4175 126.009 100.647V164.002C126.009 167.231 128.624 169.845 131.853 169.845H160.147C163.376 169.845 165.991 167.231 165.991 164.002V100.647C165.991 97.4175 163.376 94.8033 160.147 94.8033H131.853Z" fill="white"/>
<path fill-rule="evenodd" clip-rule="evenodd" d="M166.913 105.875H125.087C124.625 105.875 124.164 105.413 124.164 104.952C124.164 104.337 124.625 104.029 125.087 104.029H166.913C167.375 104.029 167.836 104.337 167.836 104.952C167.836 105.413 167.375 105.875 166.913 105.875Z" fill="white"/>
<path fill-rule="evenodd" clip-rule="evenodd" d="M166.913 160.926H125.087C124.625 160.926 124.164 160.465 124.164 160.004C124.164 159.542 124.625 159.081 125.087 159.081H166.913C167.375 159.081 167.836 159.542 167.836 160.004C167.836 160.465 167.375 160.926 166.913 160.926Z" fill="white"/>
<path fill-rule="evenodd" clip-rule="evenodd" d="M149.69 166.308H142.155C141.694 166.308 141.232 165.847 141.232 165.386C141.232 164.924 141.694 164.463 142.155 164.463H149.69C150.151 164.463 150.613 164.924 150.613 165.386C150.613 165.847 150.151 166.308 149.69 166.308Z" fill="white"/>
<path fill-rule="evenodd" clip-rule="evenodd" d="M141.848 100.339H140.003C139.541 100.339 139.08 99.8781 139.08 99.4168C139.08 98.9555 139.541 98.4941 140.003 98.4941H141.848C142.309 98.4941 142.771 98.9555 142.771 99.4168C142.771 99.8781 142.309 100.339 141.848 100.339Z" fill="white"/>
<path fill-rule="evenodd" clip-rule="evenodd" d="M146.922 100.339H145.077C144.616 100.339 144.154 99.8781 144.154 99.4168C144.154 98.9555 144.616 98.4941 145.077 98.4941H146.922C147.384 98.4941 147.845 98.9555 147.845 99.4168C147.845 99.8781 147.384 100.339 146.922 100.339Z" fill="white"/>
<path fill-rule="evenodd" clip-rule="evenodd" d="M151.996 100.339H150.151C149.69 100.339 149.229 99.8781 149.229 99.4168C149.229 98.9555 149.69 98.4941 150.151 98.4941H151.996C152.458 98.4941 152.919 98.9555 152.919 99.4168C152.919 99.8781 152.458 100.339 151.996 100.339Z" fill="white"/>
<path fill-rule="evenodd" clip-rule="evenodd" d="M161.07 132.478H130.93C130.469 132.478 130.008 132.016 130.008 131.555V128.018C130.008 127.557 130.469 127.096 130.93 127.096H161.07C161.532 127.096 161.993 127.557 161.993 128.018V131.555C161.993 132.016 161.532 132.478 161.07 132.478ZM131.853 130.633H160.148V128.941H131.853V130.633Z" fill="white"/>
<path fill-rule="evenodd" clip-rule="evenodd" d="M158.764 147.394H133.237C132.776 147.394 132.314 146.933 132.314 146.472V131.555C132.314 130.94 132.776 130.633 133.237 130.633H158.764C159.225 130.633 159.686 130.94 159.686 131.555V146.472C159.686 146.933 159.225 147.394 158.764 147.394ZM134.16 145.549H157.841V132.478H134.16V145.549Z" fill="white"/>
<path fill-rule="evenodd" clip-rule="evenodd" d="M152.304 147.394H149.075C148.46 147.394 148.152 146.933 148.152 146.472V131.555C148.152 130.94 148.46 130.633 149.075 130.633H152.304C152.919 130.633 153.227 130.94 153.227 131.555V146.472C153.227 146.933 152.919 147.394 152.304 147.394ZM149.998 145.549H151.382V132.478H149.998V145.549Z" fill="white"/>
<path fill-rule="evenodd" clip-rule="evenodd" d="M142.616 147.394H139.233C138.772 147.394 138.311 146.933 138.311 146.472V131.555C138.311 130.94 138.772 130.633 139.233 130.633H142.616C143.078 130.633 143.539 130.94 143.539 131.555V146.472C143.539 146.933 143.078 147.394 142.616 147.394ZM140.156 145.549H141.694V132.478H140.156V145.549Z" fill="white"/>
<path fill-rule="evenodd" clip-rule="evenodd" d="M163.377 128.941H128.624C128.162 128.941 127.701 128.634 127.701 128.018V125.097C127.701 124.789 127.855 124.482 128.162 124.328L145.539 113.871C145.847 113.717 146.154 113.717 146.462 113.871L163.838 124.328C164.146 124.482 164.299 124.789 164.299 125.097V128.018C164.299 128.634 163.838 128.941 163.377 128.941ZM129.546 127.096H162.454V125.558L146 115.716L129.546 125.558V127.096Z" fill="white"/>
<path fill-rule="evenodd" clip-rule="evenodd" d="M161.07 150.931H130.93C130.469 150.931 130.008 150.47 130.008 150.008V146.471C130.008 146.01 130.469 145.549 130.93 145.549H161.07C161.532 145.549 161.993 146.01 161.993 146.471V150.008C161.993 150.47 161.532 150.931 161.07 150.931ZM131.853 149.086H160.148V147.394H131.853V149.086Z" fill="white"/>
<defs>
<filter id="filter0_f_237_523" x="16.8027" y="19" width="258.396" height="226.647" filterUnits="userSpaceOnUse" color-interpolation-filters="sRGB">
<feFlood flood-opacity="0" result="BackgroundImageFix"/>
<feBlend mode="normal" in="SourceGraphic" in2="BackgroundImageFix" result="shape"/>
<feGaussianBlur stdDeviation="4" result="effect1_foregroundBlur_237_523"/>
</filter>
<filter id="filter1_f_237_523" x="0.359764" y="0.925194" width="291.281" height="262.796" filterUnits="userSpaceOnUse" color-interpolation-filters="sRGB">
<feFlood flood-opacity="0" result="BackgroundImageFix"/>
<feBlend mode="normal" in="SourceGraphic" in2="BackgroundImageFix" result="shape"/>
<feGaussianBlur stdDeviation="18.45" result="effect1_foregroundBlur_237_523"/>
</filter>
<filter id="filter2_d_237_523" x="11.5598" y="13.1252" width="274.881" height="246.396" filterUnits="userSpaceOnUse" color-interpolation-filters="sRGB">
<feFlood flood-opacity="0" result="BackgroundImageFix"/>
<feColorMatrix in="SourceAlpha" type="matrix" values="0 0 0 0 0 0 0 0 0 0 0 0 0 0 0 0 0 0 127 0" result="hardAlpha"/>
<feOffset dx="3" dy="4"/>
<feGaussianBlur stdDeviation="14.35"/>
<feComposite in2="hardAlpha" operator="out"/>
<feColorMatrix type="matrix" values="0 0 0 0 1 0 0 0 0 1 0 0 0 0 1 0 0 0 0.25 0"/>
<feBlend mode="normal" in2="BackgroundImageFix" result="effect1_dropShadow_237_523"/>
<feBlend mode="normal" in="SourceGraphic" in2="effect1_dropShadow_237_523" result="shape"/>
</filter>
</defs>
</svg>
