<svg width="292" height="264" viewBox="0 0 292 264" fill="none" xmlns="http://www.w3.org/2000/svg">
<g filter="url(#filter0_f_237_510)">
<path d="M60.8797 57.1214L87.4562 30.0009C89.3371 28.0816 91.9113 27 94.5986 27L257.198 27C262.721 27 267.198 31.4772 267.198 37V165.634C267.198 168.273 266.155 170.804 264.297 172.677L233.996 203.216L202.631 234.704C200.755 236.588 198.205 237.647 195.546 237.647H34.804C29.2812 237.647 24.8041 233.17 24.8041 227.647L24.8028 98.8506C24.8027 96.2753 25.7963 93.7992 27.5764 91.9382L60.8797 57.1214Z" fill="#FF5E01"/>
</g>
<path d="M94.5986 27.5H257.198C262.445 27.5001 266.698 31.7534 266.698 37V165.634C266.698 168.14 265.707 170.546 263.941 172.325L233.642 202.863L202.277 234.352C200.495 236.141 198.073 237.147 195.547 237.147H34.8037C29.5572 237.147 25.3038 232.894 25.3037 227.647L25.3027 98.8506C25.3027 96.4042 26.2466 94.0521 27.9375 92.2842L61.2363 57.4707L61.2373 57.4717L87.8135 30.3506C89.6003 28.5273 92.0458 27.5 94.5986 27.5Z" fill="#FF5100" stroke="white"/>
<g filter="url(#filter1_f_237_510)">
<path d="M69.6287 64.8507L93.1713 40.8261C95.0522 38.9068 97.6264 37.8252 100.314 37.8252L244.741 37.8252C250.264 37.8252 254.741 42.3024 254.741 47.8252V161.787C254.741 164.425 253.698 166.957 251.84 168.83L224.952 195.929L197.112 223.879C195.236 225.763 192.686 226.822 190.027 226.822H47.261C41.7381 226.822 37.261 222.344 37.2609 216.822L37.2598 102.703C37.2598 100.128 38.2533 97.6519 40.0334 95.7908L69.6287 64.8507Z" fill="#FF833B"/>
</g>
<g filter="url(#filter2_d_237_510)">
<path d="M69.6287 64.8507L93.1713 40.8261C95.0522 38.9068 97.6264 37.8252 100.314 37.8252L244.741 37.8252C250.264 37.8252 254.741 42.3024 254.741 47.8252V161.787C254.741 164.425 253.698 166.957 251.84 168.83L224.952 195.929L197.112 223.879C195.236 225.763 192.686 226.822 190.027 226.822H47.261C41.7381 226.822 37.261 222.344 37.2609 216.822L37.2598 102.703C37.2598 100.128 38.2533 97.6519 40.0334 95.7908L69.6287 64.8507Z" fill="#FF5100"/>
<path d="M100.313 38.3252H244.741C249.988 38.3253 254.241 42.5786 254.241 47.8252V161.787C254.241 164.294 253.25 166.698 251.484 168.478L224.598 195.576L196.758 223.525C194.975 225.315 192.553 226.321 190.027 226.321H47.2607C42.0142 226.321 37.7608 222.068 37.7607 216.821L37.7598 102.703C37.7598 100.257 38.7036 97.9046 40.3945 96.1367L69.9902 65.1963L69.9893 65.1953L93.5283 41.1758C95.3151 39.3525 97.7607 38.3252 100.313 38.3252Z" stroke="white"/>
</g>
<path d="M137.291 131.078C137.291 128.124 136.415 125.236 134.774 122.78C133.132 120.324 130.8 118.409 128.07 117.279C125.341 116.148 122.338 115.852 119.441 116.429C116.543 117.005 113.882 118.427 111.793 120.516C109.704 122.605 108.281 125.267 107.705 128.164C107.129 131.062 107.424 134.065 108.555 136.794C109.685 139.523 111.6 141.856 114.056 143.497C116.512 145.139 119.4 146.015 122.354 146.015C126.315 146.01 130.111 144.435 132.911 141.635C135.711 138.835 137.287 135.038 137.291 131.078ZM123.599 143.051V132.323H127.307C127.18 135.332 126.593 138.109 125.622 140.245C125.031 141.548 124.322 142.516 123.599 143.051ZM123.599 129.833V119.105C124.322 119.64 125.03 120.609 125.622 121.912C126.593 124.048 127.179 126.824 127.307 129.833H123.599ZM121.11 119.105V129.833H117.402C117.529 126.824 118.116 124.048 119.087 121.912C119.679 120.609 120.387 119.64 121.11 119.105ZM121.11 132.323V143.051C120.387 142.516 119.679 141.548 119.087 140.245C118.116 138.109 117.529 135.332 117.402 132.323H121.11ZM127.244 142.523C127.48 142.118 127.695 141.702 127.888 141.275C129 138.83 129.665 135.688 129.797 132.323H134.739C134.513 134.537 133.699 136.65 132.381 138.444C131.063 140.238 129.29 141.646 127.244 142.523ZM134.739 129.833H129.797C129.665 126.468 129 123.327 127.888 120.882C127.695 120.455 127.48 120.038 127.244 119.633C129.29 120.51 131.063 121.919 132.381 123.712C133.699 125.506 134.513 127.619 134.739 129.833ZM117.465 119.633C117.229 120.038 117.014 120.455 116.821 120.882C115.709 123.327 115.044 126.468 114.912 129.833H109.97C110.196 127.619 111.01 125.506 112.328 123.712C113.646 121.919 115.419 120.51 117.465 119.633ZM109.97 132.323H114.912C115.044 135.688 115.709 138.83 116.821 141.275C117.014 141.702 117.229 142.118 117.465 142.523C115.419 141.646 113.646 140.238 112.328 138.444C111.01 136.65 110.196 134.537 109.97 132.323Z" fill="white"/>
<path d="M180.227 93.7383H144.131C142.976 93.7396 141.868 94.199 141.052 95.0157C140.235 95.8324 139.776 96.9397 139.774 98.0948V99.8685C139.552 99.8607 139.328 99.856 139.102 99.856C135.036 99.8434 131.079 101.171 127.842 103.632C124.675 106.037 122.351 109.385 121.205 113.193C121.158 113.35 121.143 113.514 121.16 113.677C121.177 113.839 121.226 113.997 121.304 114.141C121.381 114.285 121.487 114.412 121.614 114.515C121.741 114.618 121.887 114.695 122.043 114.741C122.2 114.788 122.365 114.803 122.527 114.786C122.69 114.769 122.847 114.72 122.991 114.642C123.135 114.565 123.262 114.459 123.365 114.332C123.468 114.205 123.545 114.059 123.592 113.903C124.585 110.602 126.6 107.702 129.345 105.617C132.15 103.484 135.579 102.334 139.102 102.345C139.328 102.345 139.552 102.352 139.774 102.361V165.98C139.739 165.98 139.704 165.981 139.669 165.981C135.702 165.976 131.875 164.516 128.913 161.879C125.951 159.241 124.059 155.608 123.596 151.669L123.851 151.925C123.967 152.041 124.104 152.133 124.255 152.195C124.407 152.258 124.568 152.29 124.732 152.29C124.896 152.29 125.058 152.258 125.209 152.195C125.36 152.133 125.497 152.041 125.613 151.925C125.728 151.81 125.82 151.672 125.883 151.521C125.945 151.37 125.977 151.208 125.977 151.045C125.977 150.881 125.945 150.719 125.883 150.568C125.82 150.417 125.728 150.28 125.613 150.164L123.123 147.675C122.889 147.441 122.573 147.31 122.243 147.31C121.912 147.31 121.596 147.441 121.362 147.675L118.873 150.164C118.757 150.28 118.665 150.417 118.603 150.568C118.54 150.719 118.508 150.881 118.508 151.045C118.508 151.208 118.54 151.37 118.603 151.521C118.665 151.672 118.757 151.81 118.873 151.925C118.988 152.041 119.126 152.133 119.277 152.195C119.428 152.258 119.59 152.29 119.753 152.29C119.917 152.29 120.079 152.258 120.23 152.195C120.381 152.133 120.518 152.041 120.634 151.925L121.074 151.483C121.5 156.123 123.642 160.436 127.082 163.578C130.521 166.72 135.01 168.465 139.669 168.471C139.851 168.471 140.033 168.464 140.215 168.46C140.572 169.194 141.129 169.813 141.821 170.246C142.514 170.68 143.314 170.91 144.131 170.91H180.227C181.382 170.909 182.49 170.449 183.306 169.633C184.123 168.816 184.583 167.709 184.584 166.554V98.0948C184.583 96.9397 184.123 95.8324 183.306 95.0157C182.49 94.199 181.382 93.7396 180.227 93.7383ZM167.92 96.2277L167.505 97.4724H156.853L156.438 96.2277H167.92ZM182.094 166.554C182.094 167.049 181.897 167.523 181.547 167.873C181.197 168.223 180.722 168.42 180.227 168.421H144.131C143.787 168.42 143.451 168.325 143.158 168.144C145.981 167.613 148.641 166.432 150.928 164.694C154.096 162.289 156.42 158.942 157.566 155.133C157.66 154.817 157.624 154.476 157.467 154.186C157.31 153.895 157.044 153.679 156.727 153.585C156.571 153.539 156.406 153.524 156.244 153.54C156.081 153.557 155.923 153.606 155.78 153.684C155.489 153.841 155.273 154.108 155.179 154.424C154.185 157.724 152.171 160.625 149.425 162.709C147.327 164.305 144.867 165.359 142.264 165.776V102.657C145.617 103.331 148.672 105.048 150.991 107.562C153.31 110.077 154.774 113.261 155.174 116.658L154.919 116.401C154.804 116.286 154.666 116.194 154.515 116.131C154.364 116.069 154.202 116.037 154.039 116.037C153.875 116.037 153.713 116.069 153.562 116.131C153.411 116.194 153.274 116.286 153.158 116.401C153.042 116.517 152.951 116.654 152.888 116.805C152.826 116.956 152.793 117.118 152.793 117.282C152.793 117.445 152.826 117.607 152.888 117.759C152.951 117.91 153.042 118.047 153.158 118.163L155.647 120.652C155.881 120.885 156.198 121.016 156.528 121.016C156.858 121.016 157.175 120.885 157.409 120.652L159.898 118.163C160.132 117.929 160.263 117.612 160.263 117.282C160.263 116.952 160.132 116.635 159.898 116.401C159.665 116.168 159.348 116.037 159.018 116.037C158.687 116.037 158.37 116.168 158.137 116.401L157.697 116.843C157.32 112.748 155.603 108.89 152.814 105.868C150.024 102.846 146.316 100.828 142.264 100.125V98.0948C142.264 97.5997 142.461 97.1251 142.811 96.775C143.161 96.4249 143.636 96.2281 144.131 96.2277H153.813L154.775 99.1108C154.857 99.3586 155.016 99.5742 155.228 99.7269C155.44 99.8797 155.694 99.9618 155.956 99.9618H168.403C168.664 99.9618 168.919 99.8797 169.13 99.7269C169.342 99.5742 169.501 99.3586 169.584 99.1108L170.545 96.2277H180.227C180.722 96.2281 181.197 96.4249 181.547 96.775C181.897 97.1251 182.094 97.5997 182.094 98.0948V166.554Z" fill="white"/>
<path d="M177.12 136.061C177.45 136.061 177.766 135.929 178 135.696C178.233 135.463 178.364 135.146 178.364 134.816V132.326C178.365 132.109 178.308 131.895 178.199 131.706C178.091 131.518 177.935 131.361 177.747 131.251L162.81 122.538C162.62 122.428 162.403 122.369 162.183 122.369C161.963 122.369 161.747 122.428 161.556 122.538L146.62 131.251C146.432 131.361 146.276 131.518 146.167 131.706C146.059 131.895 146.002 132.109 146.002 132.326V134.816C146.002 135.146 146.133 135.463 146.367 135.696C146.6 135.929 146.917 136.061 147.247 136.061H149.736V146.018H147.247C146.917 146.018 146.6 146.149 146.367 146.383C146.133 146.616 146.002 146.933 146.002 147.263V150.997C146.002 151.327 146.133 151.644 146.367 151.877C146.6 152.111 146.917 152.242 147.247 152.242H177.12C177.45 152.242 177.766 152.111 178 151.877C178.233 151.644 178.364 151.327 178.364 150.997V147.263C178.364 146.933 178.233 146.616 178 146.383C177.766 146.149 177.45 146.018 177.12 146.018H174.63V136.061H177.12ZM175.875 148.508V149.752H148.491V148.508H175.875ZM152.225 146.018V136.061H154.715V146.018H152.225ZM157.204 146.018V136.061H158.449V146.018H157.204ZM160.938 146.018V136.061H163.428V146.018H160.938ZM165.917 146.018V136.061H167.162V146.018H165.917ZM169.651 146.018V136.061H172.141V146.018H169.651ZM148.491 133.571V133.041L162.183 125.054L175.875 133.041V133.571H148.491Z" fill="white"/>
<path d="M167.161 164.688H157.204C156.874 164.688 156.557 164.82 156.324 165.053C156.09 165.286 155.959 165.603 155.959 165.933C155.959 166.263 156.09 166.58 156.324 166.813C156.557 167.047 156.874 167.178 157.204 167.178H167.161C167.491 167.178 167.808 167.047 168.041 166.813C168.275 166.58 168.406 166.263 168.406 165.933C168.406 165.603 168.275 165.286 168.041 165.053C167.808 164.82 167.491 164.688 167.161 164.688Z" fill="white"/>
<defs>
<filter id="filter0_f_237_510" x="16.8027" y="19" width="258.396" height="226.647" filterUnits="userSpaceOnUse" color-interpolation-filters="sRGB">
<feFlood flood-opacity="0" result="BackgroundImageFix"/>
<feBlend mode="normal" in="SourceGraphic" in2="BackgroundImageFix" result="shape"/>
<feGaussianBlur stdDeviation="4" result="effect1_foregroundBlur_237_510"/>
</filter>
<filter id="filter1_f_237_510" x="0.359764" y="0.925194" width="291.281" height="262.796" filterUnits="userSpaceOnUse" color-interpolation-filters="sRGB">
<feFlood flood-opacity="0" result="BackgroundImageFix"/>
<feBlend mode="normal" in="SourceGraphic" in2="BackgroundImageFix" result="shape"/>
<feGaussianBlur stdDeviation="18.45" result="effect1_foregroundBlur_237_510"/>
</filter>
<filter id="filter2_d_237_510" x="11.5598" y="13.1252" width="274.881" height="246.396" filterUnits="userSpaceOnUse" color-interpolation-filters="sRGB">
<feFlood flood-opacity="0" result="BackgroundImageFix"/>
<feColorMatrix in="SourceAlpha" type="matrix" values="0 0 0 0 0 0 0 0 0 0 0 0 0 0 0 0 0 0 127 0" result="hardAlpha"/>
<feOffset dx="3" dy="4"/>
<feGaussianBlur stdDeviation="14.35"/>
<feComposite in2="hardAlpha" operator="out"/>
<feColorMatrix type="matrix" values="0 0 0 0 1 0 0 0 0 1 0 0 0 0 1 0 0 0 0.25 0"/>
<feBlend mode="normal" in2="BackgroundImageFix" result="effect1_dropShadow_237_510"/>
<feBlend mode="normal" in="SourceGraphic" in2="effect1_dropShadow_237_510" result="shape"/>
</filter>
</defs>
</svg>
