<svg width="1452" height="576" viewBox="0 0 1452 576" fill="none" xmlns="http://www.w3.org/2000/svg">
<g filter="url(#filter0_f_125_783)">
<path d="M500.464 148.25L527.04 121.13C528.921 119.21 531.495 118.129 534.183 118.129L696.782 118.129C702.305 118.129 706.782 122.606 706.782 128.129V256.763C706.782 259.402 705.739 261.933 703.881 263.806L673.58 294.345L642.215 325.833C640.339 327.717 637.789 328.776 635.13 328.776H474.388C468.865 328.776 464.388 324.299 464.388 318.776L464.387 189.979C464.387 187.404 465.38 184.928 467.16 183.067L500.464 148.25Z" fill="#FF5E01"/>
</g>
<path d="M534.183 118.629H696.782C702.029 118.629 706.282 122.882 706.282 128.129V256.763C706.282 259.269 705.291 261.675 703.525 263.454L673.226 293.992L641.861 325.48C640.079 327.27 637.657 328.276 635.131 328.276H474.388C469.141 328.276 464.888 324.023 464.888 318.776L464.887 189.979C464.887 187.533 465.831 185.181 467.521 183.413L500.82 148.6L500.821 148.601L527.397 121.479C529.184 119.656 531.63 118.629 534.183 118.629Z" fill="#FF5100" stroke="white"/>
<g filter="url(#filter1_f_125_783)">
<path d="M509.213 155.979L532.755 131.954C534.636 130.035 537.21 128.953 539.898 128.953L684.325 128.953C689.848 128.953 694.325 133.43 694.325 138.953V252.915C694.325 255.553 693.282 258.085 691.424 259.958L664.536 287.057L636.696 315.007C634.819 316.89 632.27 317.949 629.611 317.949H486.845C481.322 317.949 476.845 313.472 476.845 307.95L476.844 193.831C476.844 191.256 477.837 188.78 479.617 186.919L509.213 155.979Z" fill="#FF833B"/>
</g>
<g filter="url(#filter2_d_125_783)">
<path d="M509.213 155.979L532.755 131.954C534.636 130.035 537.21 128.953 539.898 128.953L684.325 128.953C689.848 128.953 694.325 133.43 694.325 138.953V252.915C694.325 255.553 693.282 258.085 691.424 259.958L664.536 287.057L636.696 315.007C634.819 316.89 632.27 317.949 629.611 317.949H486.845C481.322 317.949 476.845 313.472 476.845 307.95L476.844 193.831C476.844 191.256 477.837 188.78 479.617 186.919L509.213 155.979Z" fill="#FF5100"/>
<path d="M539.897 129.453H684.325C689.572 129.453 693.825 133.706 693.825 138.953V252.915C693.825 255.422 692.834 257.826 691.068 259.605L664.182 286.704L636.342 314.653C634.559 316.443 632.137 317.449 629.611 317.449H486.845C481.598 317.449 477.345 313.196 477.345 307.949L477.344 193.831C477.344 191.385 478.288 189.033 479.979 187.265L509.574 156.324L509.573 156.323L533.112 132.304C534.899 130.48 537.345 129.453 539.897 129.453Z" stroke="white"/>
</g>
<path d="M54.4609 0.265625H43.8489L61.8489 27.7266H72.4609L54.4609 0.265625Z" fill="white"/>
<path d="M40.1562 0.265625H29.5442L47.5442 27.7266H58.1562L40.1562 0.265625Z" fill="white"/>
<path d="M25.8477 0.265625H15.2356L33.2356 27.7266H43.8477L25.8477 0.265625Z" fill="white"/>
<path d="M11.543 0.265625H0.930916L18.9309 27.7266H29.543L11.543 0.265625Z" fill="white"/>
<path d="M65.3945 26.7266H242.229L487.285 142.522" stroke="white" stroke-width="2" stroke-linecap="round"/>
<path d="M881.762 15.3906H892.374L874.374 42.8516H863.762L881.762 15.3906Z" fill="white"/>
<path d="M896.066 15.3906H906.678L888.678 42.8516H878.066L896.066 15.3906Z" fill="white"/>
<path d="M910.375 15.3906H920.987L902.987 42.8516H892.375L910.375 15.3906Z" fill="white"/>
<path d="M924.684 15.3906H935.296L917.296 42.8516H906.684L924.684 15.3906Z" fill="white"/>
<path d="M648.116 102.399C647.664 102.717 647.556 103.34 647.873 103.792C648.191 104.244 648.815 104.353 649.267 104.035L648.116 102.399ZM869.159 42.8594H870.159V40.8594H869.159V42.8594ZM648.691 103.217L649.267 104.035L735.477 43.4055L734.901 42.5875L734.326 41.7695L648.116 102.399L648.691 103.217ZM737.202 41.8594V42.8594H869.159V41.8594V40.8594H737.202V41.8594ZM734.901 42.5875L735.477 43.4055C735.982 43.0501 736.585 42.8594 737.202 42.8594V41.8594V40.8594C736.173 40.8594 735.168 41.1772 734.326 41.7695L734.901 42.5875Z" fill="white"/>
<path d="M75.2656 263.027H64.6536L82.6536 290.488H93.2656L75.2656 263.027Z" fill="white"/>
<path d="M60.9609 263.027H50.3489L68.3489 290.488H78.9609L60.9609 263.027Z" fill="white"/>
<path d="M46.6523 263.027H36.0403L54.0403 290.488H64.6523L46.6523 263.027Z" fill="white"/>
<path d="M32.3438 263.027H21.7317L39.7317 290.488H50.3438L32.3438 263.027Z" fill="white"/>
<path d="M86.3945 289.486L210.211 289.486L454.305 263.117" stroke="white" stroke-width="2" stroke-linecap="round"/>
<path d="M1191.45 215.25H1202.06L1184.06 242.711H1173.45L1191.45 215.25Z" fill="white"/>
<path d="M1205.75 215.25H1216.36L1198.36 242.711H1187.75L1205.75 215.25Z" fill="white"/>
<path d="M1220.06 215.25H1230.67L1212.67 242.711H1202.06L1220.06 215.25Z" fill="white"/>
<path d="M1234.37 215.25H1244.98L1226.98 242.711H1216.37L1234.37 215.25Z" fill="white"/>
<path d="M724.43 204.348L814.349 241.717H1179.28" stroke="white" stroke-width="2" stroke-linecap="round"/>
<g filter="url(#filter3_f_125_783)">
<path d="M672.311 368.899L698.888 341.778C700.769 339.859 703.343 338.777 706.03 338.777L868.63 338.777C874.153 338.777 878.63 343.255 878.63 348.777V477.411C878.63 480.05 877.587 482.582 875.728 484.455L845.428 514.993L814.063 546.482C812.187 548.366 809.637 549.425 806.978 549.425H646.236C640.713 549.425 636.236 544.947 636.236 539.425L636.234 410.628C636.234 408.053 637.228 405.577 639.008 403.716L672.311 368.899Z" fill="#FF5E01"/>
</g>
<path d="M706.03 339.277H868.63C873.877 339.277 878.13 343.531 878.13 348.777V477.411C878.13 479.918 877.139 482.323 875.373 484.103L845.073 514.641L813.709 546.129C811.926 547.918 809.504 548.925 806.979 548.925H646.235C640.989 548.925 636.735 544.671 636.735 539.425L636.734 410.628C636.734 408.182 637.678 405.829 639.369 404.062L672.668 369.248L672.669 369.249L699.245 342.128C701.032 340.305 703.477 339.277 706.03 339.277Z" fill="#FF5100" stroke="white"/>
<g filter="url(#filter4_f_125_783)">
<path d="M681.06 376.627L704.603 352.602C706.484 350.683 709.058 349.602 711.745 349.602L856.173 349.602C861.696 349.602 866.173 354.079 866.173 359.602V473.563C866.173 476.202 865.13 478.733 863.271 480.606L836.384 507.706L808.544 535.655C806.667 537.539 804.118 538.598 801.459 538.598H658.693C653.17 538.598 648.693 534.121 648.693 528.598L648.691 414.48C648.691 411.904 649.685 409.428 651.465 407.567L681.06 376.627Z" fill="#FF833B"/>
</g>
<g filter="url(#filter5_d_125_783)">
<path d="M681.06 376.627L704.603 352.602C706.484 350.683 709.058 349.602 711.745 349.602L856.173 349.602C861.696 349.602 866.173 354.079 866.173 359.602V473.563C866.173 476.202 865.13 478.733 863.271 480.606L836.384 507.706L808.544 535.655C806.667 537.539 804.118 538.598 801.459 538.598H658.693C653.17 538.598 648.693 534.121 648.693 528.598L648.691 414.48C648.691 411.904 649.685 409.428 651.465 407.567L681.06 376.627Z" fill="#FF5100"/>
<path d="M711.745 350.102H856.173C861.419 350.102 865.673 354.355 865.673 359.602V473.563C865.673 476.07 864.681 478.475 862.916 480.254L836.029 507.353L808.189 535.302C806.407 537.091 803.985 538.098 801.459 538.098H658.692C653.446 538.098 649.192 533.844 649.192 528.598L649.191 414.479C649.191 412.033 650.135 409.681 651.826 407.913L681.422 376.973L681.421 376.972L704.96 352.952C706.747 351.129 709.192 350.102 711.745 350.102Z" stroke="white"/>
</g>
<path d="M1398.37 475.906H1408.98L1390.98 503.367H1380.37L1398.37 475.906Z" fill="white"/>
<path d="M1412.68 475.906H1423.29L1405.29 503.367H1394.68L1412.68 475.906Z" fill="white"/>
<path d="M1426.98 475.906H1437.6L1419.6 503.367H1408.98L1426.98 475.906Z" fill="white"/>
<path d="M1441.29 475.906H1451.91L1433.91 503.367H1423.29L1441.29 475.906Z" fill="white"/>
<path d="M896.43 432.164L1030.53 502.395H1384.98" stroke="white" stroke-width="2" stroke-linecap="round"/>
<defs>
<filter id="filter0_f_125_783" x="456.387" y="110.129" width="258.395" height="226.648" filterUnits="userSpaceOnUse" color-interpolation-filters="sRGB">
<feFlood flood-opacity="0" result="BackgroundImageFix"/>
<feBlend mode="normal" in="SourceGraphic" in2="BackgroundImageFix" result="shape"/>
<feGaussianBlur stdDeviation="4" result="effect1_foregroundBlur_125_783"/>
</filter>
<filter id="filter1_f_125_783" x="439.944" y="92.0531" width="291.28" height="262.796" filterUnits="userSpaceOnUse" color-interpolation-filters="sRGB">
<feFlood flood-opacity="0" result="BackgroundImageFix"/>
<feBlend mode="normal" in="SourceGraphic" in2="BackgroundImageFix" result="shape"/>
<feGaussianBlur stdDeviation="18.45" result="effect1_foregroundBlur_125_783"/>
</filter>
<filter id="filter2_d_125_783" x="451.144" y="104.253" width="274.88" height="246.396" filterUnits="userSpaceOnUse" color-interpolation-filters="sRGB">
<feFlood flood-opacity="0" result="BackgroundImageFix"/>
<feColorMatrix in="SourceAlpha" type="matrix" values="0 0 0 0 0 0 0 0 0 0 0 0 0 0 0 0 0 0 127 0" result="hardAlpha"/>
<feOffset dx="3" dy="4"/>
<feGaussianBlur stdDeviation="14.35"/>
<feComposite in2="hardAlpha" operator="out"/>
<feColorMatrix type="matrix" values="0 0 0 0 1 0 0 0 0 1 0 0 0 0 1 0 0 0 0.25 0"/>
<feBlend mode="normal" in2="BackgroundImageFix" result="effect1_dropShadow_125_783"/>
<feBlend mode="normal" in="SourceGraphic" in2="effect1_dropShadow_125_783" result="shape"/>
</filter>
<filter id="filter3_f_125_783" x="628.234" y="330.777" width="258.395" height="226.648" filterUnits="userSpaceOnUse" color-interpolation-filters="sRGB">
<feFlood flood-opacity="0" result="BackgroundImageFix"/>
<feBlend mode="normal" in="SourceGraphic" in2="BackgroundImageFix" result="shape"/>
<feGaussianBlur stdDeviation="4" result="effect1_foregroundBlur_125_783"/>
</filter>
<filter id="filter4_f_125_783" x="611.791" y="312.702" width="291.28" height="262.796" filterUnits="userSpaceOnUse" color-interpolation-filters="sRGB">
<feFlood flood-opacity="0" result="BackgroundImageFix"/>
<feBlend mode="normal" in="SourceGraphic" in2="BackgroundImageFix" result="shape"/>
<feGaussianBlur stdDeviation="18.45" result="effect1_foregroundBlur_125_783"/>
</filter>
<filter id="filter5_d_125_783" x="622.991" y="324.902" width="274.88" height="246.396" filterUnits="userSpaceOnUse" color-interpolation-filters="sRGB">
<feFlood flood-opacity="0" result="BackgroundImageFix"/>
<feColorMatrix in="SourceAlpha" type="matrix" values="0 0 0 0 0 0 0 0 0 0 0 0 0 0 0 0 0 0 127 0" result="hardAlpha"/>
<feOffset dx="3" dy="4"/>
<feGaussianBlur stdDeviation="14.35"/>
<feComposite in2="hardAlpha" operator="out"/>
<feColorMatrix type="matrix" values="0 0 0 0 1 0 0 0 0 1 0 0 0 0 1 0 0 0 0.25 0"/>
<feBlend mode="normal" in2="BackgroundImageFix" result="effect1_dropShadow_125_783"/>
<feBlend mode="normal" in="SourceGraphic" in2="effect1_dropShadow_125_783" result="shape"/>
</filter>
</defs>
</svg>
