<svg width="970" height="264" viewBox="0 0 970 264" fill="none" xmlns="http://www.w3.org/2000/svg">
<line x1="266.68" y1="143.5" x2="386.359" y2="143.5" stroke="white"/>
<line x1="628.754" y1="143.5" x2="726.754" y2="143.5" stroke="#FF8A4A"/>
<g filter="url(#filter0_f_83_64)">
<path d="M60.7567 57.1214L87.3332 30.0009C89.214 28.0816 91.7882 27 94.4755 27L257.075 27C262.598 27 267.075 31.4772 267.075 37V165.634C267.075 168.273 266.032 170.804 264.174 172.677L233.873 203.216L202.508 234.704C200.632 236.588 198.082 237.647 195.423 237.647H34.681C29.1582 237.647 24.6811 233.17 24.681 227.647L24.6797 98.8506C24.6797 96.2753 25.6732 93.7992 27.4533 91.9382L60.7567 57.1214Z" fill="#FF5E01"/>
</g>
<path d="M94.4756 27.5H257.075C262.322 27.5001 266.575 31.7534 266.575 37V165.634C266.575 168.14 265.584 170.546 263.818 172.325L233.519 202.863L202.154 234.352C200.372 236.141 197.95 237.147 195.424 237.147H34.6807C29.4342 237.147 25.1808 232.894 25.1807 227.647L25.1797 98.8506C25.1797 96.4042 26.1235 94.0521 27.8145 92.2842L61.1133 57.4707L61.1143 57.4717L87.6904 30.3506C89.4772 28.5273 91.9228 27.5 94.4756 27.5Z" fill="#FF5100" stroke="white"/>
<g filter="url(#filter1_f_83_64)">
<path d="M69.5056 64.8517L93.0483 40.8271C94.9291 38.9078 97.5033 37.8262 100.191 37.8262L244.618 37.8262C250.141 37.8262 254.618 42.3033 254.618 47.8262V161.788C254.618 164.426 253.575 166.958 251.717 168.831L224.829 195.93L196.989 223.88C195.112 225.764 192.563 226.822 189.904 226.822H47.1379C41.6151 226.822 37.138 222.345 37.1379 216.823L37.1368 102.704C37.1367 100.129 38.1303 97.6528 39.9104 95.7918L69.5056 64.8517Z" fill="#FF833B"/>
</g>
<g filter="url(#filter2_d_83_64)">
<path d="M69.5056 64.8497L93.0483 40.8252C94.9291 38.9058 97.5033 37.8242 100.191 37.8242L244.618 37.8242C250.141 37.8242 254.618 42.3014 254.618 47.8242V161.786C254.618 164.424 253.575 166.956 251.717 168.829L224.829 195.928L196.989 223.878C195.112 225.762 192.563 226.821 189.904 226.821H47.1379C41.6151 226.821 37.138 222.343 37.1379 216.821L37.1368 102.702C37.1367 100.127 38.1303 97.6509 39.9104 95.7899L69.5056 64.8497Z" fill="#FF5100"/>
<path d="M100.19 38.3242H244.618C249.865 38.3243 254.118 42.5776 254.118 47.8242V161.786C254.118 164.293 253.127 166.697 251.361 168.477L224.475 195.575L196.635 223.524C194.852 225.314 192.43 226.32 189.904 226.32H47.1377C41.8911 226.32 37.6377 222.067 37.6377 216.82L37.6367 102.702C37.6367 100.256 38.5805 97.9037 40.2715 96.1357L69.8672 65.1953L69.8662 65.1943L93.4053 41.1748C95.192 39.3515 97.6376 38.3243 100.19 38.3242Z" stroke="white"/>
</g>
<g clip-path="url(#clip0_83_64)">
<path d="M160.739 135.509C160.323 135.509 159.922 135.272 159.735 134.868C159.479 134.314 159.719 133.656 160.274 133.398C166.675 130.427 170.811 123.937 170.811 116.865C170.811 106.821 162.627 98.6499 152.568 98.6499C142.516 98.6499 134.337 106.821 134.337 116.865C134.337 122.275 136.715 127.375 140.861 130.856C141.329 131.249 141.389 131.947 140.996 132.415C140.601 132.884 139.906 132.942 139.438 132.55C134.791 128.648 132.125 122.93 132.125 116.865C132.125 105.601 141.296 96.4375 152.568 96.4375C163.847 96.4375 173.024 105.601 173.024 116.865C173.024 124.794 168.384 132.072 161.204 135.406C161.055 135.475 160.896 135.509 160.739 135.509Z" fill="white"/>
<path d="M155.53 145.583H142.005C141.394 145.583 140.898 145.088 140.898 144.477C140.898 143.866 141.394 143.371 142.005 143.371H155.53C156.95 143.371 158.272 142.822 159.254 141.827C159.614 141.468 159.892 141.106 160.09 140.746C160.11 140.709 160.133 140.673 160.157 140.638C160.451 140.118 160.65 139.515 160.748 138.845C160.784 138.602 160.81 138.345 160.81 138.09C160.81 136.991 160.473 135.938 159.836 135.045C158.851 133.644 157.242 132.81 155.53 132.81H138.244C137.246 132.81 136.268 133.078 135.415 133.584L121.333 142.29C120.813 142.613 120.131 142.452 119.81 141.932C119.489 141.412 119.649 140.731 120.169 140.409L134.268 131.692C135.48 130.972 136.848 130.598 138.244 130.598H155.53C157.962 130.598 160.247 131.783 161.641 133.766C162.543 135.03 163.022 136.528 163.022 138.09C163.022 138.455 162.988 138.818 162.937 139.165C162.795 140.144 162.489 141.039 162.028 141.821C162.015 141.844 162.001 141.866 161.987 141.887C161.693 142.406 161.301 142.91 160.823 143.387C159.429 144.801 157.546 145.583 155.53 145.583Z" fill="white"/>
<path d="M130.35 159.491C129.945 159.491 129.555 159.268 129.361 158.882C129.086 158.336 129.306 157.672 129.852 157.397L134.395 155.111C134.776 154.909 135.229 154.801 135.718 154.801H158.269C159.067 154.801 159.823 154.489 160.4 153.923L177.601 137.18C178.305 136.486 178.712 135.519 178.712 134.536C178.712 133.558 178.337 132.639 177.659 131.949C176.247 130.529 173.989 130.482 172.518 131.849L161.836 142.06C161.406 142.471 160.717 142.476 160.292 142.06C159.866 141.644 159.837 140.973 160.239 140.532L171 130.24C173.359 128.047 176.97 128.115 179.231 130.393C180.325 131.502 180.924 132.973 180.924 134.536C180.924 136.108 180.277 137.648 179.149 138.76L161.947 155.504C160.956 156.477 159.648 157.014 158.269 157.014H135.718C135.592 157.014 135.488 157.035 135.409 157.077L130.846 159.373C130.686 159.454 130.517 159.491 130.35 159.491Z" fill="white"/>
<path d="M121.453 168.209C121.067 168.209 120.691 168.007 120.488 167.647C120.189 167.114 120.376 166.44 120.907 166.139L129.599 161.233C130.055 160.977 130.215 160.398 129.959 159.941L119.074 140.659C118.95 140.437 118.747 140.279 118.503 140.211C118.257 140.145 118.004 140.174 117.782 140.299L109.092 145.205C108.555 145.502 107.884 145.317 107.584 144.786C107.285 144.253 107.472 143.579 108.003 143.278L116.694 138.372C117.429 137.959 118.277 137.853 119.097 138.08C119.909 138.306 120.586 138.836 121.001 139.572L131.886 158.854C132.301 159.59 132.404 160.443 132.178 161.256C131.952 162.069 131.422 162.746 130.686 163.16L121.996 168.066C121.823 168.163 121.638 168.209 121.453 168.209Z" fill="white"/>
<path d="M158.04 127.775C157.646 127.775 157.25 127.68 156.886 127.489L152.568 125.219L148.251 127.489C147.408 127.93 146.41 127.859 145.641 127.299C144.873 126.74 144.496 125.812 144.657 124.876L145.481 120.07L141.988 116.666C141.307 116.002 141.068 115.028 141.362 114.125C141.656 113.222 142.422 112.575 143.362 112.44L148.188 111.739L150.347 107.366C150.767 106.514 151.619 105.984 152.569 105.984C153.518 105.984 154.37 106.514 154.79 107.366L156.948 111.739L161.774 112.44C162.714 112.575 163.48 113.222 163.774 114.125C164.068 115.028 163.828 116.002 163.147 116.666L159.654 120.07L160.48 124.876C160.639 125.814 160.262 126.743 159.493 127.3C159.059 127.616 158.551 127.775 158.04 127.775ZM152.569 108.197C152.493 108.197 152.392 108.223 152.331 108.345L149.915 113.239C149.753 113.566 149.442 113.793 149.081 113.844L143.679 114.629C143.545 114.65 143.489 114.739 143.466 114.809C143.442 114.881 143.434 114.987 143.532 115.082L147.441 118.891C147.702 119.145 147.822 119.512 147.76 119.871L146.838 125.251C146.815 125.386 146.883 125.467 146.943 125.51C147.004 125.554 147.102 125.595 147.223 125.53L152.054 122.989C152.373 122.819 152.762 122.819 153.082 122.989L157.914 125.53C158.037 125.596 158.132 125.553 158.192 125.51C158.254 125.465 158.322 125.385 158.299 125.249L157.376 119.871C157.314 119.512 157.433 119.145 157.694 118.891L161.603 115.082C161.701 114.987 161.694 114.881 161.669 114.809C161.646 114.737 161.592 114.648 161.458 114.629L156.055 113.844C155.693 113.793 155.382 113.566 155.221 113.239L152.805 108.345C152.745 108.223 152.644 108.197 152.569 108.197Z" fill="white"/>
<path d="M127.178 115.537H121.923C121.312 115.537 120.816 115.041 120.816 114.43C120.816 113.82 121.312 113.324 121.923 113.324H127.178C127.789 113.324 128.285 113.82 128.285 114.43C128.285 115.041 127.789 115.537 127.178 115.537Z" fill="white"/>
<path d="M122.963 125.071C122.598 125.071 122.24 124.891 122.03 124.56C121.7 124.045 121.851 123.361 122.367 123.033L126.584 120.339C127.102 120.008 127.784 120.161 128.111 120.676C128.441 121.191 128.29 121.875 127.774 122.203L123.557 124.897C123.373 125.015 123.167 125.071 122.963 125.071Z" fill="white"/>
<path d="M127.178 108.699C126.975 108.699 126.769 108.643 126.584 108.525L122.367 105.831C121.851 105.503 121.7 104.818 122.03 104.304C122.357 103.79 123.04 103.637 123.557 103.967L127.774 106.661C128.29 106.989 128.441 107.673 128.111 108.187C127.901 108.519 127.544 108.699 127.178 108.699Z" fill="white"/>
<path d="M183.219 115.537H177.962C177.351 115.537 176.855 115.041 176.855 114.43C176.855 113.82 177.351 113.324 177.962 113.324H183.219C183.83 113.324 184.325 113.82 184.325 114.43C184.325 115.041 183.83 115.537 183.219 115.537Z" fill="white"/>
<path d="M182.178 125.071C181.975 125.071 181.769 125.015 181.584 124.897L177.367 122.203C176.851 121.875 176.7 121.191 177.03 120.676C177.357 120.161 178.041 120.008 178.557 120.339L182.774 123.033C183.29 123.361 183.441 124.045 183.111 124.56C182.901 124.891 182.544 125.071 182.178 125.071Z" fill="white"/>
<path d="M177.963 108.699C177.598 108.699 177.24 108.519 177.03 108.187C176.7 107.673 176.851 106.989 177.367 106.661L181.584 103.967C182.1 103.637 182.784 103.79 183.111 104.304C183.441 104.818 183.29 105.503 182.774 105.831L178.557 108.525C178.373 108.643 178.167 108.699 177.963 108.699Z" fill="white"/>
<path d="M155.533 145.58H149.782C149.451 145.58 149.137 145.432 148.926 145.174C148.716 144.917 148.632 144.58 148.697 144.255C149.566 139.945 153.39 136.818 157.79 136.818C159.426 136.818 161.021 137.243 162.402 138.046C162.79 138.27 163.003 138.708 162.942 139.152C162.723 140.753 161.97 142.259 160.824 143.388C159.431 144.798 157.548 145.58 155.533 145.58ZM151.273 143.368H155.533C156.952 143.368 158.276 142.819 159.261 141.822C159.887 141.206 160.343 140.438 160.589 139.604C159.72 139.228 158.765 139.031 157.79 139.031C154.909 139.031 152.354 140.789 151.273 143.368Z" fill="white"/>
</g>
<path d="M456.155 27.5H618.755C624.002 27.5001 628.255 31.7534 628.255 37V165.634C628.255 168.14 627.264 170.546 625.498 172.325L595.198 202.863L563.834 234.352C562.051 236.141 559.629 237.147 557.104 237.147H396.36C391.114 237.147 386.86 232.894 386.86 227.647L386.859 98.8506C386.859 96.4042 387.803 94.0521 389.494 92.2842L422.793 57.4707L422.794 57.4717L449.37 30.3506C451.157 28.5273 453.602 27.5 456.155 27.5Z" stroke="#FF8A4A"/>
<path d="M461.87 38.3262H606.298C611.544 38.3263 615.798 42.5795 615.798 47.8262V161.788C615.798 164.295 614.806 166.699 613.041 168.479L586.154 195.577L558.314 223.526C556.532 225.316 554.11 226.322 551.584 226.322H408.817C403.571 226.322 399.317 222.069 399.317 216.822L399.316 102.704C399.316 100.258 400.26 97.9056 401.951 96.1377L431.547 65.1973L431.546 65.1963L455.085 41.1768C456.872 39.3535 459.317 38.3262 461.87 38.3262Z" stroke="#FF8A4A"/>
<path d="M514.557 117.421C514.271 117.418 513.993 117.321 513.767 117.146C513.498 116.934 513.324 116.625 513.282 116.286C513.24 115.946 513.334 115.604 513.543 115.334L521.859 104.716C521.959 104.363 521.927 103.986 521.769 103.656C521.611 103.325 521.337 103.064 521 102.921L516.112 100.971C515.807 100.848 515.56 100.613 515.421 100.315C515.283 100.017 515.262 99.6769 515.365 99.3643L515.622 98.5998C515.577 98.1297 515.359 97.6931 515.009 97.3755C514.66 97.0578 514.205 96.8818 513.732 96.8818H501.629C501.157 96.8819 500.703 97.0583 500.355 97.3761C500.007 97.694 499.79 98.1304 499.748 98.5998L500.014 99.3128C500.138 99.6283 500.131 99.9801 499.996 100.291C499.861 100.602 499.608 100.846 499.292 100.971L494.379 102.946C494.041 103.09 493.768 103.351 493.61 103.682C493.451 104.012 493.419 104.389 493.52 104.742L501.835 115.359C502.044 115.63 502.138 115.972 502.096 116.312C502.055 116.651 501.88 116.96 501.612 117.172C501.479 117.276 501.327 117.353 501.164 117.399C501.001 117.444 500.831 117.457 500.663 117.436C500.495 117.415 500.334 117.361 500.187 117.278C500.04 117.194 499.911 117.082 499.808 116.948L491.338 106.125C491.265 106.03 491.204 105.926 491.157 105.816C490.76 104.818 490.771 103.704 491.189 102.715C491.607 101.727 492.398 100.942 493.391 100.533L497.153 99.0207C497.145 98.9408 497.145 98.8601 497.153 98.7802C497.156 97.5939 497.628 96.4569 498.467 95.618C499.306 94.7792 500.443 94.307 501.629 94.3047H513.732C514.919 94.3047 516.058 94.7762 516.897 95.6155C517.736 96.4548 518.208 97.5932 518.208 98.7802C518.212 98.8603 518.212 98.9406 518.208 99.0207L521.962 100.533C522.961 100.937 523.76 101.721 524.183 102.712C524.606 103.704 524.62 104.823 524.221 105.824C524.178 105.936 524.117 106.041 524.041 106.133L515.579 116.923C515.458 117.078 515.303 117.203 515.126 117.29C514.949 117.376 514.754 117.421 514.557 117.421Z" fill="#FF8A4A"/>
<path d="M522.15 170.344H493.218C492.832 170.344 484.241 170.301 479.173 164.571C476.287 161.307 475.162 156.917 475.84 151.514C478.245 132.297 497.238 116.784 500.262 115.504C502.35 114.645 513.062 114.645 515.149 115.504C518.147 116.784 537.14 132.289 539.545 151.514C540.224 156.917 539.098 161.307 536.212 164.571C531.187 170.258 522.597 170.344 522.15 170.344ZM507.684 117.428C504.815 117.428 501.937 117.574 501.25 117.875C499.721 118.527 480.737 133.131 478.391 151.832C477.816 156.462 478.727 160.164 481.089 162.853C485.384 167.706 493.115 167.766 493.218 167.766H522.141C522.219 167.766 529.984 167.706 534.271 162.853C536.633 160.164 537.544 156.462 536.968 151.832C534.623 133.122 515.639 118.527 514.11 117.875C513.422 117.574 510.57 117.428 507.684 117.428Z" fill="#FF8A4A"/>
<path d="M513.221 107.283C512.998 107.283 512.779 107.225 512.586 107.115C512.392 107.005 512.23 106.846 512.116 106.655C512.002 106.464 511.939 106.246 511.934 106.024C511.929 105.801 511.982 105.581 512.087 105.385L515.454 99.148C515.617 98.8473 515.893 98.6236 516.221 98.5261C516.549 98.4287 516.902 98.4654 517.203 98.6283C517.503 98.7912 517.727 99.0669 517.824 99.3947C517.922 99.7226 517.885 100.076 517.722 100.376L514.355 106.604C514.246 106.81 514.082 106.982 513.882 107.101C513.682 107.221 513.454 107.284 513.221 107.283Z" fill="#FF8A4A"/>
<path d="M502.305 107.283C502.073 107.284 501.844 107.221 501.644 107.101C501.444 106.982 501.281 106.81 501.171 106.604L497.804 100.376C497.641 100.076 497.604 99.7226 497.702 99.3947C497.799 99.0669 498.023 98.7912 498.324 98.6283C498.625 98.4654 498.978 98.4287 499.305 98.5261C499.633 98.6236 499.909 98.8473 500.072 99.148L503.439 105.385C503.545 105.581 503.597 105.801 503.592 106.024C503.587 106.246 503.525 106.464 503.41 106.655C503.296 106.846 503.134 107.005 502.941 107.115C502.747 107.225 502.528 107.283 502.305 107.283Z" fill="#FF8A4A"/>
<path d="M509.463 157.664H505.907C504.395 157.662 502.945 157.06 501.876 155.991C500.807 154.921 500.205 153.472 500.203 151.96V150.534C500.203 150.192 500.339 149.864 500.581 149.623C500.822 149.381 501.15 149.245 501.492 149.245C501.833 149.245 502.161 149.381 502.403 149.623C502.644 149.864 502.78 150.192 502.78 150.534V151.934C502.777 152.347 502.855 152.756 503.011 153.139C503.166 153.521 503.396 153.869 503.687 154.162C503.978 154.455 504.323 154.688 504.704 154.846C505.086 155.005 505.494 155.087 505.907 155.087H509.463C510.291 155.084 511.084 154.754 511.669 154.168C512.253 153.582 512.582 152.788 512.582 151.96V148.919C512.536 148.403 512.345 147.911 512.03 147.501C511.715 147.09 511.29 146.777 510.803 146.6L503.528 143.799C502.566 143.455 501.733 142.826 501.139 141.995C500.545 141.165 500.218 140.173 500.203 139.152V136.188C500.205 134.676 500.807 133.227 501.876 132.158C502.945 131.088 504.395 130.487 505.907 130.484H509.455C510.967 130.487 512.416 131.088 513.486 132.158C514.555 133.227 515.156 134.676 515.159 136.188V137.597C515.159 137.939 515.023 138.267 514.781 138.508C514.54 138.75 514.212 138.886 513.87 138.886C513.528 138.886 513.201 138.75 512.959 138.508C512.717 138.267 512.582 137.939 512.582 137.597V136.188C512.582 135.359 512.252 134.564 511.666 133.977C511.079 133.391 510.284 133.061 509.455 133.061H505.907C505.078 133.061 504.282 133.391 503.696 133.977C503.11 134.564 502.78 135.359 502.78 136.188V139.195C502.801 139.691 502.971 140.17 503.266 140.57C503.561 140.969 503.97 141.271 504.438 141.437L511.766 144.254C512.737 144.615 513.582 145.253 514.193 146.091C514.804 146.928 515.155 147.926 515.202 148.962V151.977C515.199 152.728 515.049 153.47 514.759 154.163C514.469 154.855 514.046 155.483 513.513 156.011C512.98 156.54 512.348 156.958 511.653 157.241C510.958 157.525 510.214 157.668 509.463 157.664Z" fill="#FF8A4A"/>
<path d="M507.984 161.711C507.642 161.711 507.314 161.576 507.073 161.334C506.831 161.092 506.695 160.764 506.695 160.423V127.831C506.695 127.49 506.831 127.162 507.073 126.92C507.314 126.679 507.642 126.543 507.984 126.543C508.326 126.543 508.653 126.679 508.895 126.92C509.137 127.162 509.272 127.49 509.272 127.831V160.423C509.272 160.764 509.137 161.092 508.895 161.334C508.653 161.576 508.326 161.711 507.984 161.711Z" fill="#FF8A4A"/>
<path d="M796.55 27.5H959.149C964.396 27.5001 968.649 31.7534 968.649 37V165.634C968.649 168.14 967.658 170.546 965.893 172.325L935.593 202.863L904.229 234.352C902.446 236.141 900.024 237.147 897.498 237.147H736.755C731.508 237.147 727.255 232.894 727.255 227.647L727.254 98.8506C727.254 96.4042 728.198 94.0521 729.889 92.2842L763.188 57.4707L763.188 57.4717L789.765 30.3506C791.551 28.5273 793.997 27.5 796.55 27.5Z" stroke="#FF8A4A"/>
<path d="M802.265 38.3262H946.692C951.939 38.3263 956.192 42.5795 956.192 47.8262V161.788C956.192 164.295 955.201 166.699 953.436 168.479L926.549 195.577L898.709 223.526C896.926 225.316 894.504 226.322 891.979 226.322H749.212C743.965 226.322 739.712 222.069 739.712 216.822L739.711 102.704C739.711 100.258 740.655 97.9056 742.346 96.1377L771.941 65.1973L771.94 65.1963L795.479 41.1768C797.266 39.3535 799.712 38.3262 802.265 38.3262Z" stroke="#FF8A4A"/>
<path d="M844.068 127.143C835.498 127.143 828.526 134.115 828.526 142.685C828.526 151.255 835.498 158.227 844.068 158.227C852.638 158.227 859.61 151.255 859.61 142.685C859.61 134.115 852.638 127.143 844.068 127.143ZM844.068 155.637C836.926 155.637 831.116 149.827 831.116 142.685C831.116 135.543 836.926 129.733 844.068 129.733C851.21 129.733 857.02 135.543 857.02 142.685C857.02 149.827 851.21 155.637 844.068 155.637ZM846.658 138.8H849.249C849.249 136.393 847.591 134.382 845.363 133.803V132.324H842.773V133.803C840.545 134.382 838.887 136.393 838.887 138.8C838.887 141.206 840.545 143.217 842.773 143.796V148.801C842.002 148.351 841.478 147.525 841.478 146.571H838.887C838.887 148.977 840.545 150.988 842.773 151.567V153.046H845.363V151.567C847.591 150.988 849.249 148.977 849.249 146.571C849.249 144.164 847.591 142.153 845.363 141.574V136.569C846.134 137.019 846.658 137.845 846.658 138.8ZM841.478 138.8C841.478 137.845 842.002 137.019 842.773 136.569V141.03C842.002 140.58 841.478 139.754 841.478 138.8ZM846.658 146.571C846.658 147.525 846.134 148.351 845.363 148.801V144.34C846.134 144.79 846.658 145.616 846.658 146.571ZM877.742 98.6494H872.562V97.3542C872.562 95.2117 870.819 93.4688 868.676 93.4688H832.411C832.068 93.4688 831.738 93.6053 831.496 93.8482L815.954 109.39C815.711 109.633 815.574 109.963 815.574 110.306V160.817C815.574 162.96 817.317 164.703 819.46 164.703H824.64V167.293C824.64 169.436 826.383 171.179 828.526 171.179H877.742C879.885 171.179 881.628 169.436 881.628 167.293V102.535C881.628 100.392 879.885 98.6494 877.742 98.6494ZM831.116 97.8905V109.011H819.996L831.116 97.8905ZM819.46 162.113C818.746 162.113 818.165 161.531 818.165 160.817V111.601H832.411C833.127 111.601 833.707 111.021 833.707 110.306V96.0591H868.676C869.39 96.0591 869.971 96.6403 869.971 97.3542V160.817C869.971 161.531 869.39 162.113 868.676 162.113H827.231H824.64H819.46ZM879.037 167.293C879.037 168.007 878.456 168.588 877.742 168.588H828.526C827.812 168.588 827.231 168.007 827.231 167.293V164.703H868.676C870.819 164.703 872.562 162.96 872.562 160.817V101.24H877.742C878.456 101.24 879.037 101.821 879.037 102.535V167.293ZM827.231 123.258C827.231 122.542 827.811 121.962 828.526 121.962H859.61C860.325 121.962 860.905 122.542 860.905 123.258C860.905 123.973 860.325 124.553 859.61 124.553H828.526C827.811 124.553 827.231 123.973 827.231 123.258ZM827.231 115.487C827.231 114.771 827.811 114.191 828.526 114.191H859.61C860.325 114.191 860.905 114.771 860.905 115.487C860.905 116.202 860.325 116.782 859.61 116.782H828.526C827.811 116.782 827.231 116.202 827.231 115.487ZM836.297 107.716C836.297 107 836.877 106.42 837.592 106.42H859.61C860.325 106.42 860.905 107 860.905 107.716C860.905 108.431 860.325 109.011 859.61 109.011H837.592C836.877 109.011 836.297 108.431 836.297 107.716Z" fill="#FF8A4A"/>
<defs>
<filter id="filter0_f_83_64" x="16.6797" y="19" width="258.395" height="226.646" filterUnits="userSpaceOnUse" color-interpolation-filters="sRGB">
<feFlood flood-opacity="0" result="BackgroundImageFix"/>
<feBlend mode="normal" in="SourceGraphic" in2="BackgroundImageFix" result="shape"/>
<feGaussianBlur stdDeviation="4" result="effect1_foregroundBlur_83_64"/>
</filter>
<filter id="filter1_f_83_64" x="0.236717" y="0.92617" width="291.28" height="262.796" filterUnits="userSpaceOnUse" color-interpolation-filters="sRGB">
<feFlood flood-opacity="0" result="BackgroundImageFix"/>
<feBlend mode="normal" in="SourceGraphic" in2="BackgroundImageFix" result="shape"/>
<feGaussianBlur stdDeviation="18.45" result="effect1_foregroundBlur_83_64"/>
</filter>
<filter id="filter2_d_83_64" x="11.4367" y="13.1242" width="274.88" height="246.396" filterUnits="userSpaceOnUse" color-interpolation-filters="sRGB">
<feFlood flood-opacity="0" result="BackgroundImageFix"/>
<feColorMatrix in="SourceAlpha" type="matrix" values="0 0 0 0 0 0 0 0 0 0 0 0 0 0 0 0 0 0 127 0" result="hardAlpha"/>
<feOffset dx="3" dy="4"/>
<feGaussianBlur stdDeviation="14.35"/>
<feComposite in2="hardAlpha" operator="out"/>
<feColorMatrix type="matrix" values="0 0 0 0 1 0 0 0 0 1 0 0 0 0 1 0 0 0 0.25 0"/>
<feBlend mode="normal" in2="BackgroundImageFix" result="effect1_dropShadow_83_64"/>
<feBlend mode="normal" in="SourceGraphic" in2="effect1_dropShadow_83_64" result="shape"/>
</filter>
<clipPath id="clip0_83_64">
<rect width="78.1709" height="78.1709" fill="white" transform="translate(106.793 93.2383)"/>
</clipPath>
</defs>
</svg>
