<svg width="1502" height="264" viewBox="0 0 1502 264" fill="none" xmlns="http://www.w3.org/2000/svg">
<line x1="267" y1="143.5" x2="327" y2="143.5" stroke="white"/>
<line x1="569" y1="143.5" x2="629" y2="143.5" stroke="#FF8A4A"/>
<line x1="872" y1="143.5" x2="932" y2="143.5" stroke="#FF8A4A"/>
<line x1="1175" y1="143.5" x2="1235" y2="143.5" stroke="#FF8A4A"/>
<g filter="url(#filter0_f_150_81)">
<path d="M61.077 57.1214L87.6535 30.0009C89.5344 28.0816 92.1086 27 94.7958 27L257.395 27C262.918 27 267.395 31.4772 267.395 37V165.634C267.395 168.273 266.352 170.804 264.494 172.677L234.194 203.216L202.829 234.704C200.952 236.588 198.403 237.647 195.744 237.647H35.0013C29.4785 237.647 25.0014 233.17 25.0013 227.647L25 98.8506C25 96.2753 25.9935 93.7992 27.7737 91.9382L61.077 57.1214Z" fill="#FF5E01"/>
</g>
<path d="M94.7959 27.5H257.396C262.642 27.5001 266.896 31.7534 266.896 37V165.634C266.896 168.14 265.904 170.546 264.139 172.325L233.839 202.863L202.475 234.352C200.692 236.141 198.27 237.147 195.744 237.147H35.001C29.7545 237.147 25.5011 232.894 25.501 227.647L25.5 98.8506C25.5 96.4042 26.4438 94.0521 28.1348 92.2842L61.4336 57.4707L61.4346 57.4717L88.0107 30.3506C89.7975 28.5273 92.2431 27.5 94.7959 27.5Z" fill="#FF5100" stroke="white"/>
<g filter="url(#filter1_f_150_81)">
<path d="M69.822 64.8497L93.3647 40.8252C95.2455 38.9058 97.8197 37.8242 100.507 37.8242L244.934 37.8242C250.457 37.8242 254.934 42.3014 254.934 47.8242V161.786C254.934 164.424 253.892 166.956 252.033 168.829L225.145 195.928L197.305 223.878C195.429 225.762 192.879 226.821 190.22 226.821H47.4543C41.9315 226.821 37.4544 222.343 37.4543 216.821L37.4532 102.702C37.4531 100.127 38.4467 97.6509 40.2268 95.7899L69.822 64.8497Z" fill="#FF833B"/>
</g>
<g filter="url(#filter2_d_150_81)">
<path d="M69.822 64.8497L93.3647 40.8252C95.2455 38.9058 97.8197 37.8242 100.507 37.8242L244.934 37.8242C250.457 37.8242 254.934 42.3014 254.934 47.8242V161.786C254.934 164.424 253.892 166.956 252.033 168.829L225.145 195.928L197.305 223.878C195.429 225.762 192.879 226.821 190.22 226.821H47.4543C41.9315 226.821 37.4544 222.343 37.4543 216.821L37.4532 102.702C37.4531 100.127 38.4467 97.6509 40.2268 95.7899L69.822 64.8497Z" fill="#FF5100"/>
<path d="M100.507 38.3242H244.935C250.181 38.3243 254.435 42.5776 254.435 47.8242V161.786C254.434 164.293 253.443 166.697 251.678 168.477L224.791 195.575L196.951 223.524C195.169 225.314 192.747 226.32 190.221 226.32H47.4541C42.2075 226.32 37.9542 222.067 37.9541 216.82L37.9531 102.702C37.9531 100.256 38.8969 97.9037 40.5879 96.1357L70.1836 65.1953L70.1826 65.1943L93.7217 41.1748C95.5084 39.3515 97.954 38.3243 100.507 38.3242Z" stroke="white"/>
</g>
<path d="M107.906 128.394H142.32V93.9805H107.906V128.394ZM116.51 102.584H133.716V119.791H116.51V102.584ZM107.906 171.411H142.32V136.997H107.906V171.411ZM116.51 145.601H133.716V162.808H116.51V145.601ZM150.923 93.9805V128.394H185.337V93.9805H150.923ZM176.733 119.791H159.527V102.584H176.733V119.791ZM150.966 136.997H159.57V145.601H150.966V136.997ZM159.57 145.601H168.173V154.204H159.57V145.601ZM150.966 154.204H159.57V162.808H150.966V154.204ZM168.173 154.204H176.776V162.808H168.173V154.204ZM176.776 162.808H185.38V171.411H176.776V162.808ZM159.57 162.808H168.173V171.411H159.57V162.808ZM168.173 136.997H176.776V145.601H168.173V136.997ZM176.776 145.601H185.38V154.204H176.776V145.601Z" fill="white"/>
<g filter="url(#filter3_f_150_81)">
<path d="M363.077 57.1214L389.654 30.0009C391.534 28.0816 394.109 27 396.796 27L559.395 27C564.918 27 569.395 31.4772 569.395 37V165.634C569.395 168.273 568.352 170.804 566.494 172.677L536.194 203.216L504.829 234.704C502.952 236.588 500.403 237.647 497.744 237.647H337.001C331.479 237.647 327.001 233.17 327.001 227.647L327 98.8506C327 96.2753 327.994 93.7992 329.774 91.9382L363.077 57.1214Z" fill="#FF5E01"/>
</g>
<path d="M396.796 27.5H559.396C564.642 27.5001 568.896 31.7534 568.896 37V165.634C568.896 168.14 567.904 170.546 566.139 172.325L535.839 202.863L504.475 234.352C502.692 236.141 500.27 237.147 497.744 237.147H337.001C331.755 237.147 327.501 232.894 327.501 227.647L327.5 98.8506C327.5 96.4042 328.444 94.0521 330.135 92.2842L363.434 57.4707L363.435 57.4717L390.011 30.3506C391.798 28.5273 394.243 27.5 396.796 27.5Z" fill="#FF5100" stroke="white"/>
<g filter="url(#filter4_f_150_81)">
<path d="M371.822 64.8497L395.365 40.8252C397.246 38.9058 399.82 37.8242 402.507 37.8242L546.934 37.8242C552.457 37.8242 556.934 42.3014 556.934 47.8242V161.786C556.934 164.424 555.892 166.956 554.033 168.829L527.145 195.928L499.305 223.878C497.429 225.762 494.879 226.821 492.22 226.821H349.454C343.932 226.821 339.454 222.343 339.454 216.821L339.453 102.702C339.453 100.127 340.447 97.6509 342.227 95.7899L371.822 64.8497Z" fill="#FF833B"/>
</g>
<g filter="url(#filter5_d_150_81)">
<path d="M371.822 64.8497L395.365 40.8252C397.246 38.9058 399.82 37.8242 402.507 37.8242L546.934 37.8242C552.457 37.8242 556.934 42.3014 556.934 47.8242V161.786C556.934 164.424 555.892 166.956 554.033 168.829L527.145 195.928L499.305 223.878C497.429 225.762 494.879 226.821 492.22 226.821H349.454C343.932 226.821 339.454 222.343 339.454 216.821L339.453 102.702C339.453 100.127 340.447 97.6509 342.227 95.7899L371.822 64.8497Z" fill="#FF5100"/>
<path d="M402.507 38.3242H546.935C552.181 38.3243 556.435 42.5776 556.435 47.8242V161.786C556.434 164.293 555.443 166.697 553.678 168.477L526.791 195.575L498.951 223.524C497.169 225.314 494.747 226.32 492.221 226.32H349.454C344.208 226.32 339.954 222.067 339.954 216.82L339.953 102.702C339.953 100.256 340.897 97.9037 342.588 96.1357L372.184 65.1953L372.183 65.1943L395.722 41.1748C397.508 39.3515 399.954 38.3243 402.507 38.3242Z" stroke="white"/>
</g>
<path d="M409.906 128.394H444.32V93.9805H409.906V128.394ZM418.51 102.584H435.716V119.791H418.51V102.584ZM409.906 171.411H444.32V136.997H409.906V171.411ZM418.51 145.601H435.716V162.808H418.51V145.601ZM452.923 93.9805V128.394H487.337V93.9805H452.923ZM478.733 119.791H461.527V102.584H478.733V119.791ZM452.966 136.997H461.57V145.601H452.966V136.997ZM461.57 145.601H470.173V154.204H461.57V145.601ZM452.966 154.204H461.57V162.808H452.966V154.204ZM470.173 154.204H478.776V162.808H470.173V154.204ZM478.776 162.808H487.38V171.411H478.776V162.808ZM461.57 162.808H470.173V171.411H461.57V162.808ZM470.173 136.997H478.776V145.601H470.173V136.997ZM478.776 145.601H487.38V154.204H478.776V145.601Z" fill="white"/>
<g filter="url(#filter6_f_150_81)">
<path d="M653.077 57.1214L679.654 30.0009C681.534 28.0816 684.109 27 686.796 27L849.395 27C854.918 27 859.395 31.4772 859.395 37V165.634C859.395 168.273 858.352 170.804 856.494 172.677L826.194 203.216L794.829 234.704C792.952 236.588 790.403 237.647 787.744 237.647H627.001C621.479 237.647 617.001 233.17 617.001 227.647L617 98.8506C617 96.2753 617.994 93.7992 619.774 91.9382L653.077 57.1214Z" fill="#FF5E01"/>
</g>
<path d="M686.796 27.5H849.396C854.642 27.5001 858.896 31.7534 858.896 37V165.634C858.896 168.14 857.904 170.546 856.139 172.325L825.839 202.863L794.475 234.352C792.692 236.141 790.27 237.147 787.744 237.147H627.001C621.755 237.147 617.501 232.894 617.501 227.647L617.5 98.8506C617.5 96.4042 618.444 94.0521 620.135 92.2842L653.434 57.4707L653.435 57.4717L680.011 30.3506C681.798 28.5273 684.243 27.5 686.796 27.5Z" fill="#FF5100" stroke="white"/>
<g filter="url(#filter7_f_150_81)">
<path d="M661.822 64.8497L685.365 40.8252C687.246 38.9058 689.82 37.8242 692.507 37.8242L836.934 37.8242C842.457 37.8242 846.934 42.3014 846.934 47.8242V161.786C846.934 164.424 845.892 166.956 844.033 168.829L817.145 195.928L789.305 223.878C787.429 225.762 784.879 226.821 782.22 226.821H639.454C633.932 226.821 629.454 222.343 629.454 216.821L629.453 102.702C629.453 100.127 630.447 97.6509 632.227 95.7899L661.822 64.8497Z" fill="#FF833B"/>
</g>
<g filter="url(#filter8_d_150_81)">
<path d="M661.822 64.8497L685.365 40.8252C687.246 38.9058 689.82 37.8242 692.507 37.8242L836.934 37.8242C842.457 37.8242 846.934 42.3014 846.934 47.8242V161.786C846.934 164.424 845.892 166.956 844.033 168.829L817.145 195.928L789.305 223.878C787.429 225.762 784.879 226.821 782.22 226.821H639.454C633.932 226.821 629.454 222.343 629.454 216.821L629.453 102.702C629.453 100.127 630.447 97.6509 632.227 95.7899L661.822 64.8497Z" fill="#FF5100"/>
<path d="M692.507 38.3242H836.935C842.181 38.3243 846.435 42.5776 846.435 47.8242V161.786C846.434 164.293 845.443 166.697 843.678 168.477L816.791 195.575L788.951 223.524C787.169 225.314 784.747 226.32 782.221 226.32H639.454C634.208 226.32 629.954 222.067 629.954 216.82L629.953 102.702C629.953 100.256 630.897 97.9037 632.588 96.1357L662.184 65.1953L662.183 65.1943L685.722 41.1748C687.508 39.3515 689.954 38.3243 692.507 38.3242Z" stroke="white"/>
</g>
<path d="M751.017 94.2148H776.67V115.592H768.119V102.766H751.017V94.2148ZM725.364 94.2148V102.766H708.262V115.592H699.711V94.2148H725.364ZM751.017 171.174V162.623H768.119V149.796H776.67V171.174H751.017ZM725.364 171.174H699.711V149.796H708.262V162.623H725.364V171.174ZM699.711 128.419H776.67V136.97H699.711V128.419Z" fill="white"/>
<g filter="url(#filter9_f_150_81)">
<path d="M968.077 57.1214L994.654 30.0009C996.534 28.0816 999.109 27 1001.8 27L1164.4 27C1169.92 27 1174.4 31.4772 1174.4 37V165.634C1174.4 168.273 1173.35 170.804 1171.49 172.677L1141.19 203.216L1109.83 234.704C1107.95 236.588 1105.4 237.647 1102.74 237.647H942.001C936.479 237.647 932.001 233.17 932.001 227.647L932 98.8506C932 96.2753 932.994 93.7992 934.774 91.9382L968.077 57.1214Z" fill="#FF5E01"/>
</g>
<path d="M1001.8 27.5H1164.4C1169.64 27.5001 1173.9 31.7534 1173.9 37V165.634C1173.9 168.14 1172.9 170.546 1171.14 172.325L1140.84 202.863L1109.47 234.352C1107.69 236.141 1105.27 237.147 1102.74 237.147H942.001C936.755 237.147 932.501 232.894 932.501 227.647L932.5 98.8506C932.5 96.4042 933.444 94.0521 935.135 92.2842L968.434 57.4707L968.435 57.4717L995.011 30.3506C996.798 28.5273 999.243 27.5 1001.8 27.5Z" fill="#FF5100" stroke="white"/>
<g filter="url(#filter10_f_150_81)">
<path d="M976.822 64.8497L1000.36 40.8252C1002.25 38.9058 1004.82 37.8242 1007.51 37.8242L1151.93 37.8242C1157.46 37.8242 1161.93 42.3014 1161.93 47.8242V161.786C1161.93 164.424 1160.89 166.956 1159.03 168.829L1132.15 195.928L1104.31 223.878C1102.43 225.762 1099.88 226.821 1097.22 226.821H954.454C948.932 226.821 944.454 222.343 944.454 216.821L944.453 102.702C944.453 100.127 945.447 97.6509 947.227 95.7899L976.822 64.8497Z" fill="#FF833B"/>
</g>
<g filter="url(#filter11_d_150_81)">
<path d="M976.822 64.8497L1000.36 40.8252C1002.25 38.9058 1004.82 37.8242 1007.51 37.8242L1151.93 37.8242C1157.46 37.8242 1161.93 42.3014 1161.93 47.8242V161.786C1161.93 164.424 1160.89 166.956 1159.03 168.829L1132.15 195.928L1104.31 223.878C1102.43 225.762 1099.88 226.821 1097.22 226.821H954.454C948.932 226.821 944.454 222.343 944.454 216.821L944.453 102.702C944.453 100.127 945.447 97.6509 947.227 95.7899L976.822 64.8497Z" fill="#FF5100"/>
<path d="M1007.51 38.3242H1151.93C1157.18 38.3243 1161.43 42.5776 1161.43 47.8242V161.786C1161.43 164.293 1160.44 166.697 1158.68 168.477L1131.79 195.575L1103.95 223.524C1102.17 225.314 1099.75 226.32 1097.22 226.32H954.454C949.208 226.32 944.954 222.067 944.954 216.82L944.953 102.702C944.953 100.256 945.897 97.9037 947.588 96.1357L977.184 65.1953L977.183 65.1943L1000.72 41.1748C1002.51 39.3515 1004.95 38.3243 1007.51 38.3242Z" stroke="white"/>
</g>
<circle cx="1053.52" cy="132.517" r="38.017" stroke="white"/>
<path d="M1066.21 117.333C1065.59 116.986 1064.9 116.766 1064.19 116.684C1063.48 116.602 1062.77 116.661 1062.08 116.858C1061.39 117.054 1060.75 117.383 1060.19 117.828C1059.63 118.272 1059.17 118.822 1058.82 119.446L1048.72 137.616L1042.94 131.838C1042.44 131.318 1041.84 130.904 1041.18 130.619C1040.52 130.334 1039.8 130.184 1039.08 130.177C1038.36 130.171 1037.64 130.309 1036.97 130.582C1036.3 130.856 1035.7 131.26 1035.19 131.77C1034.68 132.281 1034.27 132.888 1034 133.556C1033.73 134.225 1033.59 134.941 1033.59 135.663C1033.6 136.385 1033.75 137.099 1034.04 137.762C1034.32 138.426 1034.73 139.026 1035.25 139.527L1046.13 150.404C1047.16 151.435 1048.55 152.001 1049.98 152.001L1050.73 151.946C1051.56 151.83 1052.36 151.521 1053.05 151.045C1053.75 150.569 1054.32 149.938 1054.73 149.202L1068.33 124.73C1068.67 124.105 1068.89 123.419 1068.97 122.709C1069.06 122 1069 121.281 1068.8 120.594C1068.61 119.908 1068.28 119.266 1067.83 118.707C1067.39 118.147 1066.84 117.68 1066.21 117.333Z" fill="white"/>
<g filter="url(#filter12_f_150_81)">
<path d="M1271.08 57.1214L1297.65 30.0009C1299.53 28.0816 1302.11 27 1304.8 27L1467.4 27C1472.92 27 1477.4 31.4772 1477.4 37V165.634C1477.4 168.273 1476.35 170.804 1474.49 172.677L1444.19 203.216L1412.83 234.704C1410.95 236.588 1408.4 237.647 1405.74 237.647H1245C1239.48 237.647 1235 233.17 1235 227.647L1235 98.8506C1235 96.2753 1235.99 93.7992 1237.77 91.9382L1271.08 57.1214Z" fill="#FF5E01"/>
</g>
<path d="M1304.41 27.5H1467C1472.25 27.5001 1476.5 31.7534 1476.5 37V165.634C1476.5 168.14 1475.51 170.546 1473.75 172.325L1443.45 202.863L1412.08 234.352C1410.3 236.141 1407.88 237.147 1405.35 237.147H1244.61C1239.36 237.147 1235.11 232.894 1235.11 227.647L1235.11 98.8506C1235.11 96.4042 1236.05 94.0521 1237.74 92.2842L1271.04 57.4707L1271.04 57.4717L1297.62 30.3506C1299.41 28.5273 1301.85 27.5 1304.41 27.5Z" fill="#FF5100" stroke="white"/>
<g filter="url(#filter13_f_150_81)">
<path d="M1279.83 64.8497L1303.37 40.8252C1305.25 38.9058 1307.83 37.8242 1310.51 37.8242L1454.94 37.8242C1460.47 37.8242 1464.94 42.3014 1464.94 47.8242V161.786C1464.94 164.424 1463.9 166.956 1462.04 168.829L1435.15 195.928L1407.31 223.878C1405.44 225.762 1402.89 226.821 1400.23 226.821H1257.46C1251.94 226.821 1247.46 222.343 1247.46 216.821L1247.46 102.702C1247.46 100.127 1248.45 97.6509 1250.23 95.7899L1279.83 64.8497Z" fill="#FF833B"/>
</g>
<g filter="url(#filter14_d_150_81)">
<path d="M1279.43 64.8497L1302.97 40.8252C1304.85 38.9058 1307.43 37.8242 1310.12 37.8242L1454.54 37.8242C1460.07 37.8242 1464.54 42.3014 1464.54 47.8242V161.786C1464.54 164.424 1463.5 166.956 1461.64 168.829L1434.75 195.928L1406.91 223.878C1405.04 225.762 1402.49 226.821 1399.83 226.821H1257.06C1251.54 226.821 1247.06 222.343 1247.06 216.821L1247.06 102.702C1247.06 100.127 1248.06 97.6509 1249.84 95.7899L1279.43 64.8497Z" fill="#FF5100"/>
<path d="M1310.12 38.3242H1454.54C1459.79 38.3243 1464.04 42.5776 1464.04 47.8242V161.786C1464.04 164.293 1463.05 166.697 1461.29 168.477L1434.4 195.575L1406.56 223.524C1404.78 225.314 1402.36 226.32 1399.83 226.32H1257.06C1251.82 226.32 1247.56 222.067 1247.56 216.82L1247.56 102.702C1247.56 100.256 1248.51 97.9037 1250.2 96.1357L1279.79 65.1953L1279.79 65.1943L1303.33 41.1748C1305.12 39.3515 1307.56 38.3243 1310.12 38.3242Z" stroke="white"/>
</g>
<circle cx="1355.52" cy="132.517" r="38.017" stroke="white"/>
<path d="M1368.21 117.333C1367.59 116.986 1366.9 116.766 1366.19 116.684C1365.48 116.602 1364.77 116.661 1364.08 116.858C1363.39 117.054 1362.75 117.383 1362.19 117.828C1361.63 118.272 1361.17 118.822 1360.82 119.446L1350.72 137.616L1344.94 131.838C1344.44 131.318 1343.84 130.904 1343.18 130.619C1342.52 130.334 1341.8 130.184 1341.08 130.177C1340.36 130.171 1339.64 130.309 1338.97 130.582C1338.3 130.856 1337.7 131.26 1337.19 131.77C1336.68 132.281 1336.27 132.888 1336 133.556C1335.73 134.225 1335.59 134.941 1335.59 135.663C1335.6 136.385 1335.75 137.099 1336.04 137.762C1336.32 138.426 1336.73 139.026 1337.25 139.527L1348.13 150.404C1349.16 151.435 1350.55 152.001 1351.98 152.001L1352.73 151.946C1353.56 151.83 1354.36 151.521 1355.05 151.045C1355.75 150.569 1356.32 149.938 1356.73 149.202L1370.33 124.73C1370.67 124.105 1370.89 123.419 1370.97 122.709C1371.06 122 1371 121.281 1370.8 120.594C1370.61 119.908 1370.28 119.266 1369.83 118.707C1369.39 118.147 1368.84 117.68 1368.21 117.333Z" fill="white"/>
<defs>
<filter id="filter0_f_150_81" x="17" y="19" width="258.398" height="226.648" filterUnits="userSpaceOnUse" color-interpolation-filters="sRGB">
<feFlood flood-opacity="0" result="BackgroundImageFix"/>
<feBlend mode="normal" in="SourceGraphic" in2="BackgroundImageFix" result="shape"/>
<feGaussianBlur stdDeviation="4" result="effect1_foregroundBlur_150_81"/>
</filter>
<filter id="filter1_f_150_81" x="0.553123" y="0.924217" width="291.284" height="262.796" filterUnits="userSpaceOnUse" color-interpolation-filters="sRGB">
<feFlood flood-opacity="0" result="BackgroundImageFix"/>
<feBlend mode="normal" in="SourceGraphic" in2="BackgroundImageFix" result="shape"/>
<feGaussianBlur stdDeviation="18.45" result="effect1_foregroundBlur_150_81"/>
</filter>
<filter id="filter2_d_150_81" x="11.7531" y="13.1242" width="274.884" height="246.396" filterUnits="userSpaceOnUse" color-interpolation-filters="sRGB">
<feFlood flood-opacity="0" result="BackgroundImageFix"/>
<feColorMatrix in="SourceAlpha" type="matrix" values="0 0 0 0 0 0 0 0 0 0 0 0 0 0 0 0 0 0 127 0" result="hardAlpha"/>
<feOffset dx="3" dy="4"/>
<feGaussianBlur stdDeviation="14.35"/>
<feComposite in2="hardAlpha" operator="out"/>
<feColorMatrix type="matrix" values="0 0 0 0 1 0 0 0 0 1 0 0 0 0 1 0 0 0 0.25 0"/>
<feBlend mode="normal" in2="BackgroundImageFix" result="effect1_dropShadow_150_81"/>
<feBlend mode="normal" in="SourceGraphic" in2="effect1_dropShadow_150_81" result="shape"/>
</filter>
<filter id="filter3_f_150_81" x="319" y="19" width="258.398" height="226.648" filterUnits="userSpaceOnUse" color-interpolation-filters="sRGB">
<feFlood flood-opacity="0" result="BackgroundImageFix"/>
<feBlend mode="normal" in="SourceGraphic" in2="BackgroundImageFix" result="shape"/>
<feGaussianBlur stdDeviation="4" result="effect1_foregroundBlur_150_81"/>
</filter>
<filter id="filter4_f_150_81" x="302.553" y="0.924217" width="291.284" height="262.796" filterUnits="userSpaceOnUse" color-interpolation-filters="sRGB">
<feFlood flood-opacity="0" result="BackgroundImageFix"/>
<feBlend mode="normal" in="SourceGraphic" in2="BackgroundImageFix" result="shape"/>
<feGaussianBlur stdDeviation="18.45" result="effect1_foregroundBlur_150_81"/>
</filter>
<filter id="filter5_d_150_81" x="313.753" y="13.1242" width="274.884" height="246.396" filterUnits="userSpaceOnUse" color-interpolation-filters="sRGB">
<feFlood flood-opacity="0" result="BackgroundImageFix"/>
<feColorMatrix in="SourceAlpha" type="matrix" values="0 0 0 0 0 0 0 0 0 0 0 0 0 0 0 0 0 0 127 0" result="hardAlpha"/>
<feOffset dx="3" dy="4"/>
<feGaussianBlur stdDeviation="14.35"/>
<feComposite in2="hardAlpha" operator="out"/>
<feColorMatrix type="matrix" values="0 0 0 0 1 0 0 0 0 1 0 0 0 0 1 0 0 0 0.25 0"/>
<feBlend mode="normal" in2="BackgroundImageFix" result="effect1_dropShadow_150_81"/>
<feBlend mode="normal" in="SourceGraphic" in2="effect1_dropShadow_150_81" result="shape"/>
</filter>
<filter id="filter6_f_150_81" x="609" y="19" width="258.398" height="226.648" filterUnits="userSpaceOnUse" color-interpolation-filters="sRGB">
<feFlood flood-opacity="0" result="BackgroundImageFix"/>
<feBlend mode="normal" in="SourceGraphic" in2="BackgroundImageFix" result="shape"/>
<feGaussianBlur stdDeviation="4" result="effect1_foregroundBlur_150_81"/>
</filter>
<filter id="filter7_f_150_81" x="592.553" y="0.924217" width="291.284" height="262.796" filterUnits="userSpaceOnUse" color-interpolation-filters="sRGB">
<feFlood flood-opacity="0" result="BackgroundImageFix"/>
<feBlend mode="normal" in="SourceGraphic" in2="BackgroundImageFix" result="shape"/>
<feGaussianBlur stdDeviation="18.45" result="effect1_foregroundBlur_150_81"/>
</filter>
<filter id="filter8_d_150_81" x="603.753" y="13.1242" width="274.884" height="246.396" filterUnits="userSpaceOnUse" color-interpolation-filters="sRGB">
<feFlood flood-opacity="0" result="BackgroundImageFix"/>
<feColorMatrix in="SourceAlpha" type="matrix" values="0 0 0 0 0 0 0 0 0 0 0 0 0 0 0 0 0 0 127 0" result="hardAlpha"/>
<feOffset dx="3" dy="4"/>
<feGaussianBlur stdDeviation="14.35"/>
<feComposite in2="hardAlpha" operator="out"/>
<feColorMatrix type="matrix" values="0 0 0 0 1 0 0 0 0 1 0 0 0 0 1 0 0 0 0.25 0"/>
<feBlend mode="normal" in2="BackgroundImageFix" result="effect1_dropShadow_150_81"/>
<feBlend mode="normal" in="SourceGraphic" in2="effect1_dropShadow_150_81" result="shape"/>
</filter>
<filter id="filter9_f_150_81" x="924" y="19" width="258.398" height="226.648" filterUnits="userSpaceOnUse" color-interpolation-filters="sRGB">
<feFlood flood-opacity="0" result="BackgroundImageFix"/>
<feBlend mode="normal" in="SourceGraphic" in2="BackgroundImageFix" result="shape"/>
<feGaussianBlur stdDeviation="4" result="effect1_foregroundBlur_150_81"/>
</filter>
<filter id="filter10_f_150_81" x="907.553" y="0.924217" width="291.284" height="262.796" filterUnits="userSpaceOnUse" color-interpolation-filters="sRGB">
<feFlood flood-opacity="0" result="BackgroundImageFix"/>
<feBlend mode="normal" in="SourceGraphic" in2="BackgroundImageFix" result="shape"/>
<feGaussianBlur stdDeviation="18.45" result="effect1_foregroundBlur_150_81"/>
</filter>
<filter id="filter11_d_150_81" x="918.753" y="13.1242" width="274.884" height="246.396" filterUnits="userSpaceOnUse" color-interpolation-filters="sRGB">
<feFlood flood-opacity="0" result="BackgroundImageFix"/>
<feColorMatrix in="SourceAlpha" type="matrix" values="0 0 0 0 0 0 0 0 0 0 0 0 0 0 0 0 0 0 127 0" result="hardAlpha"/>
<feOffset dx="3" dy="4"/>
<feGaussianBlur stdDeviation="14.35"/>
<feComposite in2="hardAlpha" operator="out"/>
<feColorMatrix type="matrix" values="0 0 0 0 1 0 0 0 0 1 0 0 0 0 1 0 0 0 0.25 0"/>
<feBlend mode="normal" in2="BackgroundImageFix" result="effect1_dropShadow_150_81"/>
<feBlend mode="normal" in="SourceGraphic" in2="effect1_dropShadow_150_81" result="shape"/>
</filter>
<filter id="filter12_f_150_81" x="1227" y="19" width="258.398" height="226.648" filterUnits="userSpaceOnUse" color-interpolation-filters="sRGB">
<feFlood flood-opacity="0" result="BackgroundImageFix"/>
<feBlend mode="normal" in="SourceGraphic" in2="BackgroundImageFix" result="shape"/>
<feGaussianBlur stdDeviation="4" result="effect1_foregroundBlur_150_81"/>
</filter>
<filter id="filter13_f_150_81" x="1210.56" y="0.924217" width="291.284" height="262.796" filterUnits="userSpaceOnUse" color-interpolation-filters="sRGB">
<feFlood flood-opacity="0" result="BackgroundImageFix"/>
<feBlend mode="normal" in="SourceGraphic" in2="BackgroundImageFix" result="shape"/>
<feGaussianBlur stdDeviation="18.45" result="effect1_foregroundBlur_150_81"/>
</filter>
<filter id="filter14_d_150_81" x="1221.36" y="13.1242" width="274.884" height="246.396" filterUnits="userSpaceOnUse" color-interpolation-filters="sRGB">
<feFlood flood-opacity="0" result="BackgroundImageFix"/>
<feColorMatrix in="SourceAlpha" type="matrix" values="0 0 0 0 0 0 0 0 0 0 0 0 0 0 0 0 0 0 127 0" result="hardAlpha"/>
<feOffset dx="3" dy="4"/>
<feGaussianBlur stdDeviation="14.35"/>
<feComposite in2="hardAlpha" operator="out"/>
<feColorMatrix type="matrix" values="0 0 0 0 1 0 0 0 0 1 0 0 0 0 1 0 0 0 0.25 0"/>
<feBlend mode="normal" in2="BackgroundImageFix" result="effect1_dropShadow_150_81"/>
<feBlend mode="normal" in="SourceGraphic" in2="effect1_dropShadow_150_81" result="shape"/>
</filter>
</defs>
</svg>
