<svg width="1477" height="264" viewBox="0 0 1477 264" fill="none" xmlns="http://www.w3.org/2000/svg">
<line x1="267" y1="143.5" x2="327" y2="143.5" stroke="white"/>
<line x1="569" y1="143.5" x2="629" y2="143.5" stroke="#FF8A4A"/>
<line x1="872" y1="143.5" x2="932" y2="143.5" stroke="#FF8A4A"/>
<line x1="1175" y1="143.5" x2="1235" y2="143.5" stroke="#FF8A4A"/>
<g filter="url(#filter0_f_77_5685)">
<path d="M61.077 57.1214L87.6535 30.0009C89.5344 28.0816 92.1086 27 94.7958 27L257.395 27C262.918 27 267.395 31.4772 267.395 37V165.634C267.395 168.273 266.352 170.804 264.494 172.677L234.194 203.216L202.829 234.704C200.952 236.588 198.403 237.647 195.744 237.647H35.0013C29.4785 237.647 25.0014 233.17 25.0013 227.647L25 98.8506C25 96.2753 25.9935 93.7992 27.7737 91.9382L61.077 57.1214Z" fill="#FF5E01"/>
</g>
<path d="M94.7959 27.5H257.396C262.642 27.5001 266.896 31.7534 266.896 37V165.634C266.896 168.14 265.904 170.546 264.139 172.325L233.839 202.863L202.475 234.352C200.692 236.141 198.27 237.147 195.744 237.147H35.001C29.7545 237.147 25.5011 232.894 25.501 227.647L25.5 98.8506C25.5 96.4042 26.4438 94.0521 28.1348 92.2842L61.4336 57.4707L61.4346 57.4717L88.0107 30.3506C89.7975 28.5273 92.2431 27.5 94.7959 27.5Z" fill="#FF5100" stroke="white"/>
<g filter="url(#filter1_f_77_5685)">
<path d="M69.8259 64.8517L93.3686 40.8271C95.2494 38.9078 97.8236 37.8262 100.511 37.8262L244.938 37.8262C250.461 37.8262 254.938 42.3033 254.938 47.8262V161.788C254.938 164.426 253.895 166.958 252.037 168.831L225.149 195.93L197.309 223.88C195.433 225.764 192.883 226.822 190.224 226.822H47.4582C41.9354 226.822 37.4583 222.345 37.4582 216.823L37.4571 102.704C37.457 100.129 38.4506 97.6528 40.2307 95.7918L69.8259 64.8517Z" fill="#FF833B"/>
</g>
<g filter="url(#filter2_d_77_5685)">
<path d="M69.8259 64.8497L93.3686 40.8252C95.2494 38.9058 97.8236 37.8242 100.511 37.8242L244.938 37.8242C250.461 37.8242 254.938 42.3014 254.938 47.8242V161.786C254.938 164.424 253.895 166.956 252.037 168.829L225.149 195.928L197.309 223.878C195.433 225.762 192.883 226.821 190.224 226.821H47.4582C41.9354 226.821 37.4583 222.343 37.4582 216.821L37.4571 102.702C37.457 100.127 38.4506 97.6509 40.2307 95.7899L69.8259 64.8497Z" fill="#FF5100"/>
<path d="M100.511 38.3242H244.938C250.185 38.3243 254.438 42.5776 254.438 47.8242V161.786C254.438 164.293 253.447 166.697 251.682 168.477L224.795 195.575L196.955 223.524C195.172 225.314 192.751 226.32 190.225 226.32H47.458C42.2114 226.32 37.9581 222.067 37.958 216.82L37.957 102.702C37.957 100.256 38.9008 97.9037 40.5918 96.1357L70.1875 65.1953L70.1865 65.1943L93.7256 41.1748C95.5123 39.3515 97.9579 38.3243 100.511 38.3242Z" stroke="white"/>
</g>
<path d="M107.904 128.392H142.318V93.9785H107.904V128.392ZM116.508 102.582H133.715V119.789H116.508V102.582ZM107.904 171.409H142.318V136.996H107.904V171.409ZM116.508 145.599H133.715V162.806H116.508V145.599ZM150.921 93.9785V128.392H185.335V93.9785H150.921ZM176.732 119.789H159.525V102.582H176.732V119.789ZM150.964 136.996H159.568V145.599H150.964V136.996ZM159.568 145.599H168.171V154.202H159.568V145.599ZM150.964 154.202H159.568V162.806H150.964V154.202ZM168.171 154.202H176.775V162.806H168.171V154.202ZM176.775 162.806H185.378V171.409H176.775V162.806ZM159.568 162.806H168.171V171.409H159.568V162.806ZM168.171 136.996H176.775V145.599H168.171V136.996ZM176.775 145.599H185.378V154.202H176.775V145.599Z" fill="white"/>
<path d="M396.796 27.5H559.396C564.642 27.5001 568.896 31.7534 568.896 37V165.634C568.896 168.14 567.904 170.546 566.139 172.325L535.839 202.863L504.475 234.352C502.692 236.141 500.27 237.147 497.744 237.147H337.001C331.755 237.147 327.501 232.894 327.501 227.647L327.5 98.8506C327.5 96.4042 328.444 94.0521 330.135 92.2842L363.434 57.4707L363.435 57.4717L390.011 30.3506C391.798 28.5273 394.243 27.5 396.796 27.5Z" stroke="#FF8A4A"/>
<path d="M402.511 38.3262H546.938C552.185 38.3263 556.438 42.5795 556.438 47.8262V161.788C556.438 164.295 555.447 166.699 553.682 168.479L526.795 195.577L498.955 223.526C497.172 225.316 494.751 226.322 492.225 226.322H349.458C344.211 226.322 339.958 222.069 339.958 216.822L339.957 102.704C339.957 100.258 340.901 97.9056 342.592 96.1377L372.188 65.1973L372.187 65.1963L395.726 41.1768C397.512 39.3535 399.958 38.3262 402.511 38.3262Z" stroke="#FF8A4A"/>
<path d="M409.904 128.392H444.318V93.9785H409.904V128.392ZM418.508 102.582H435.715V119.789H418.508V102.582ZM409.904 171.409H444.318V136.996H409.904V171.409ZM418.508 145.599H435.715V162.806H418.508V145.599ZM452.921 93.9785V128.392H487.335V93.9785H452.921ZM478.732 119.789H461.525V102.582H478.732V119.789ZM452.964 136.996H461.568V145.599H452.964V136.996ZM461.568 145.599H470.171V154.202H461.568V145.599ZM452.964 154.202H461.568V162.806H452.964V154.202ZM470.171 154.202H478.775V162.806H470.171V154.202ZM478.775 162.806H487.378V171.409H478.775V162.806ZM461.568 162.806H470.171V171.409H461.568V162.806ZM470.171 136.996H478.775V145.599H470.171V136.996ZM478.775 145.599H487.378V154.202H478.775V145.599Z" fill="#FF8A4A"/>
<path d="M686.796 27.5H849.396C854.642 27.5001 858.896 31.7534 858.896 37V165.634C858.896 168.14 857.904 170.546 856.139 172.325L825.839 202.863L794.475 234.352C792.692 236.141 790.27 237.147 787.744 237.147H627.001C621.755 237.147 617.501 232.894 617.501 227.647L617.5 98.8506C617.5 96.4042 618.444 94.0521 620.135 92.2842L653.434 57.4707L653.435 57.4717L680.011 30.3506C681.798 28.5273 684.243 27.5 686.796 27.5Z" stroke="#FF8A4A"/>
<path d="M692.511 38.3262H836.938C842.185 38.3263 846.438 42.5795 846.438 47.8262V161.788C846.438 164.295 845.447 166.699 843.682 168.479L816.795 195.577L788.955 223.526C787.172 225.316 784.751 226.322 782.225 226.322H639.458C634.211 226.322 629.958 222.069 629.958 216.822L629.957 102.704C629.957 100.258 630.901 97.9056 632.592 96.1377L662.188 65.1973L662.187 65.1963L685.726 41.1768C687.512 39.3535 689.958 38.3262 692.511 38.3262Z" stroke="#FF8A4A"/>
<path d="M751.017 94.2148H776.67V115.592H768.119V102.766H751.017V94.2148ZM725.364 94.2148V102.766H708.262V115.592H699.711V94.2148H725.364ZM751.017 171.174V162.623H768.119V149.796H776.67V171.174H751.017ZM725.364 171.174H699.711V149.796H708.262V162.623H725.364V171.174ZM699.711 128.419H776.67V136.97H699.711V128.419Z" fill="#FF8A4A"/>
<path d="M1001.8 27.5H1164.4C1169.64 27.5001 1173.9 31.7534 1173.9 37V165.634C1173.9 168.14 1172.9 170.546 1171.14 172.325L1140.84 202.863L1109.47 234.352C1107.69 236.141 1105.27 237.147 1102.74 237.147H942.001C936.755 237.147 932.501 232.894 932.501 227.647L932.5 98.8506C932.5 96.4042 933.444 94.0521 935.135 92.2842L968.434 57.4707L968.435 57.4717L995.011 30.3506C996.798 28.5273 999.243 27.5 1001.8 27.5Z" stroke="#FF8A4A"/>
<path d="M1007.51 38.3262H1151.94C1157.19 38.3263 1161.44 42.5795 1161.44 47.8262V161.788C1161.44 164.295 1160.45 166.699 1158.68 168.479L1131.79 195.577L1103.96 223.526C1102.17 225.316 1099.75 226.322 1097.22 226.322H954.458C949.211 226.322 944.958 222.069 944.958 216.822L944.957 102.704C944.957 100.258 945.901 97.9056 947.592 96.1377L977.188 65.1973L977.187 65.1963L1000.73 41.1768C1002.51 39.3535 1004.96 38.3262 1007.51 38.3262Z" stroke="#FF8A4A"/>
<circle cx="1053.52" cy="132.517" r="38.017" stroke="#FF8A4A"/>
<path d="M1066.21 117.333C1065.59 116.986 1064.9 116.766 1064.19 116.684C1063.48 116.602 1062.77 116.661 1062.08 116.858C1061.39 117.054 1060.75 117.383 1060.19 117.828C1059.63 118.272 1059.17 118.822 1058.82 119.446L1048.72 137.616L1042.94 131.838C1042.44 131.318 1041.84 130.904 1041.18 130.619C1040.52 130.334 1039.8 130.184 1039.08 130.177C1038.36 130.171 1037.64 130.309 1036.97 130.582C1036.3 130.856 1035.7 131.26 1035.19 131.77C1034.68 132.281 1034.27 132.888 1034 133.556C1033.73 134.225 1033.59 134.941 1033.59 135.663C1033.6 136.385 1033.75 137.099 1034.04 137.762C1034.32 138.426 1034.73 139.026 1035.25 139.527L1046.13 150.404C1047.16 151.435 1048.55 152.001 1049.98 152.001L1050.73 151.946C1051.56 151.83 1052.36 151.521 1053.05 151.045C1053.75 150.569 1054.32 149.938 1054.73 149.202L1068.33 124.73C1068.67 124.105 1068.89 123.419 1068.97 122.709C1069.06 122 1069 121.281 1068.8 120.594C1068.61 119.908 1068.28 119.266 1067.83 118.707C1067.39 118.147 1066.84 117.68 1066.21 117.333Z" fill="#FF8A4A"/>
<path d="M1304.4 27.5H1467C1472.25 27.5001 1476.5 31.7534 1476.5 37V165.634C1476.5 168.14 1475.51 170.546 1473.74 172.325L1443.44 202.863L1412.08 234.352C1410.3 236.141 1407.88 237.147 1405.35 237.147H1244.61C1239.36 237.147 1235.11 232.894 1235.11 227.647L1235.11 98.8506C1235.11 96.4042 1236.05 94.0521 1237.74 92.2842L1271.04 57.4707L1271.04 57.4717L1297.62 30.3506C1299.4 28.5273 1301.85 27.5 1304.4 27.5Z" stroke="#FF8A4A"/>
<path d="M1310.12 38.3262H1454.54C1459.79 38.3263 1464.04 42.5795 1464.04 47.8262V161.788C1464.04 164.295 1463.05 166.699 1461.29 168.479L1434.4 195.577L1406.56 223.526C1404.78 225.316 1402.36 226.322 1399.83 226.322H1257.06C1251.82 226.322 1247.56 222.069 1247.56 216.822L1247.56 102.704C1247.56 100.258 1248.51 97.9056 1250.2 96.1377L1279.79 65.1973L1279.79 65.1963L1303.33 41.1768C1305.12 39.3535 1307.56 38.3262 1310.12 38.3262Z" stroke="#FF8A4A"/>
<circle cx="1355.52" cy="132.517" r="38.017" stroke="#FF8A4A"/>
<path d="M1368.21 117.333C1367.59 116.986 1366.9 116.766 1366.19 116.684C1365.48 116.602 1364.77 116.661 1364.08 116.858C1363.39 117.054 1362.75 117.383 1362.19 117.828C1361.63 118.272 1361.17 118.822 1360.82 119.446L1350.72 137.616L1344.94 131.838C1344.44 131.318 1343.84 130.904 1343.18 130.619C1342.52 130.334 1341.8 130.184 1341.08 130.177C1340.36 130.171 1339.64 130.309 1338.97 130.582C1338.3 130.856 1337.7 131.26 1337.19 131.77C1336.68 132.281 1336.27 132.888 1336 133.556C1335.73 134.225 1335.59 134.941 1335.59 135.663C1335.6 136.385 1335.75 137.099 1336.04 137.762C1336.32 138.426 1336.73 139.026 1337.25 139.527L1348.13 150.404C1349.16 151.435 1350.55 152.001 1351.98 152.001L1352.73 151.946C1353.56 151.83 1354.36 151.521 1355.05 151.045C1355.75 150.569 1356.32 149.938 1356.73 149.202L1370.33 124.73C1370.67 124.105 1370.89 123.419 1370.97 122.709C1371.06 122 1371 121.281 1370.8 120.594C1370.61 119.908 1370.28 119.266 1369.83 118.707C1369.39 118.147 1368.84 117.68 1368.21 117.333Z" fill="#FF8A4A"/>
<defs>
<filter id="filter0_f_77_5685" x="17" y="19" width="258.395" height="226.646" filterUnits="userSpaceOnUse" color-interpolation-filters="sRGB">
<feFlood flood-opacity="0" result="BackgroundImageFix"/>
<feBlend mode="normal" in="SourceGraphic" in2="BackgroundImageFix" result="shape"/>
<feGaussianBlur stdDeviation="4" result="effect1_foregroundBlur_77_5685"/>
</filter>
<filter id="filter1_f_77_5685" x="0.55703" y="0.92617" width="291.28" height="262.796" filterUnits="userSpaceOnUse" color-interpolation-filters="sRGB">
<feFlood flood-opacity="0" result="BackgroundImageFix"/>
<feBlend mode="normal" in="SourceGraphic" in2="BackgroundImageFix" result="shape"/>
<feGaussianBlur stdDeviation="18.45" result="effect1_foregroundBlur_77_5685"/>
</filter>
<filter id="filter2_d_77_5685" x="11.757" y="13.1242" width="274.88" height="246.396" filterUnits="userSpaceOnUse" color-interpolation-filters="sRGB">
<feFlood flood-opacity="0" result="BackgroundImageFix"/>
<feColorMatrix in="SourceAlpha" type="matrix" values="0 0 0 0 0 0 0 0 0 0 0 0 0 0 0 0 0 0 127 0" result="hardAlpha"/>
<feOffset dx="3" dy="4"/>
<feGaussianBlur stdDeviation="14.35"/>
<feComposite in2="hardAlpha" operator="out"/>
<feColorMatrix type="matrix" values="0 0 0 0 1 0 0 0 0 1 0 0 0 0 1 0 0 0 0.25 0"/>
<feBlend mode="normal" in2="BackgroundImageFix" result="effect1_dropShadow_77_5685"/>
<feBlend mode="normal" in="SourceGraphic" in2="effect1_dropShadow_77_5685" result="shape"/>
</filter>
</defs>
</svg>
