<svg width="1502" height="264" viewBox="0 0 1502 264" fill="none" xmlns="http://www.w3.org/2000/svg">
<line x1="267" y1="143.5" x2="327" y2="143.5" stroke="white"/>
<line x1="569" y1="143.5" x2="629" y2="143.5" stroke="white"/>
<line x1="872" y1="143.5" x2="932" y2="143.5" stroke="white"/>
<line x1="1175" y1="143.5" x2="1235" y2="143.5" stroke="white"/>
<g filter="url(#filter0_f_211_131)">
<path d="M61.0771 57.1214L87.6536 30.0009C89.5345 28.0816 92.1087 27 94.7959 27L257.395 27C262.918 27 267.395 31.4772 267.395 37V165.634C267.395 168.273 266.353 170.804 264.494 172.677L234.194 203.216L202.829 234.704C200.952 236.588 198.403 237.647 195.744 237.647H35.0014C29.4786 237.647 25.0015 233.17 25.0014 227.647L25.0001 98.8506C25.0001 96.2753 25.9936 93.7992 27.7738 91.9382L61.0771 57.1214Z" fill="#FF5E01"/>
</g>
<path d="M94.796 27.5H257.396C262.642 27.5001 266.896 31.7534 266.896 37V165.634C266.896 168.14 265.904 170.546 264.139 172.325L233.839 202.863L202.475 234.352C200.692 236.141 198.27 237.147 195.744 237.147H35.0011C29.7546 237.147 25.5012 232.894 25.5011 227.647L25.5001 98.8506C25.5001 96.4042 26.4439 94.0521 28.1349 92.2842L61.4337 57.4707L61.4347 57.4717L88.0108 30.3506C89.7976 28.5273 92.2432 27.5 94.796 27.5Z" fill="#FF5100" stroke="white"/>
<g filter="url(#filter1_f_211_131)">
<path d="M69.8259 64.8509L93.3685 40.8264C95.2494 38.907 97.8236 37.8254 100.511 37.8254L244.938 37.8255C250.461 37.8255 254.938 42.3026 254.938 47.8255V161.787C254.938 164.426 253.895 166.957 252.037 168.83L225.149 195.929L197.309 223.879C195.433 225.763 192.883 226.822 190.224 226.822H47.4581C41.9353 226.822 37.4582 222.345 37.4581 216.822L37.457 102.703C37.457 100.128 38.4505 97.6521 40.2306 95.7911L69.8259 64.8509Z" fill="#FF833B"/>
</g>
<g filter="url(#filter2_d_211_131)">
<path d="M69.826 64.8507L93.3687 40.8261C95.2495 38.9068 97.8237 37.8252 100.511 37.8252L244.938 37.8252C250.461 37.8252 254.938 42.3024 254.938 47.8252V161.787C254.938 164.425 253.896 166.957 252.037 168.83L225.149 195.929L197.309 223.879C195.433 225.763 192.883 226.822 190.224 226.822H47.4583C41.9355 226.822 37.4584 222.344 37.4583 216.822L37.4572 102.703C37.4571 100.128 38.4507 97.6519 40.2308 95.7908L69.826 64.8507Z" fill="#FF5100"/>
<path d="M100.511 38.3252H244.939C250.185 38.3253 254.439 42.5786 254.439 47.8252V161.787C254.438 164.294 253.447 166.698 251.682 168.478L224.795 195.576L196.955 223.525C195.173 225.315 192.751 226.321 190.225 226.321H47.4581C42.2115 226.321 37.9582 222.068 37.9581 216.821L37.9571 102.703C37.9571 100.257 38.9009 97.9046 40.5919 96.1367L70.1876 65.1963L70.1866 65.1953L93.7257 41.1758C95.5124 39.3525 97.958 38.3252 100.511 38.3252Z" stroke="white"/>
</g>
<path d="M107.904 128.392H142.318V93.9785H107.904V128.392ZM116.508 102.582H133.715V119.789H116.508V102.582ZM107.904 171.409H142.318V136.996H107.904V171.409ZM116.508 145.599H133.715V162.806H116.508V145.599ZM150.921 93.9785V128.392H185.335V93.9785H150.921ZM176.732 119.789H159.525V102.582H176.732V119.789ZM150.964 136.996H159.568V145.599H150.964V136.996ZM159.568 145.599H168.171V154.202H159.568V145.599ZM150.964 154.202H159.568V162.806H150.964V154.202ZM168.171 154.202H176.775V162.806H168.171V154.202ZM176.775 162.806H185.378V171.409H176.775V162.806ZM159.568 162.806H168.171V171.409H159.568V162.806ZM168.171 136.996H176.775V145.599H168.171V136.996ZM176.775 145.599H185.378V154.202H176.775V145.599Z" fill="white"/>
<g filter="url(#filter3_f_211_131)">
<path d="M363.077 57.1214L389.654 30.0009C391.534 28.0816 394.109 27 396.796 27L559.395 27C564.918 27 569.395 31.4772 569.395 37V165.634C569.395 168.273 568.353 170.804 566.494 172.677L536.194 203.216L504.829 234.704C502.952 236.588 500.403 237.647 497.744 237.647H337.001C331.479 237.647 327.001 233.17 327.001 227.647L327 98.8506C327 96.2753 327.994 93.7992 329.774 91.9382L363.077 57.1214Z" fill="#FF5E01"/>
</g>
<path d="M396.796 27.5H559.396C564.642 27.5001 568.896 31.7534 568.896 37V165.634C568.896 168.14 567.904 170.546 566.139 172.325L535.839 202.863L504.475 234.352C502.692 236.141 500.27 237.147 497.744 237.147H337.001C331.755 237.147 327.501 232.894 327.501 227.647L327.5 98.8506C327.5 96.4042 328.444 94.0521 330.135 92.2842L363.434 57.4707L363.435 57.4717L390.011 30.3506C391.798 28.5273 394.243 27.5 396.796 27.5Z" fill="#FF5100" stroke="white"/>
<g filter="url(#filter4_f_211_131)">
<path d="M371.826 64.8507L395.369 40.8261C397.25 38.9068 399.824 37.8252 402.511 37.8252L546.938 37.8252C552.461 37.8252 556.938 42.3024 556.938 47.8252V161.787C556.938 164.425 555.896 166.957 554.037 168.83L527.149 195.929L499.309 223.879C497.433 225.763 494.883 226.822 492.224 226.822H349.458C343.936 226.822 339.458 222.344 339.458 216.822L339.457 102.703C339.457 100.128 340.451 97.6519 342.231 95.7908L371.826 64.8507Z" fill="#FF833B"/>
</g>
<g filter="url(#filter5_d_211_131)">
<path d="M371.826 64.8509L395.369 40.8264C397.249 38.907 399.824 37.8254 402.511 37.8254L546.938 37.8255C552.461 37.8255 556.938 42.3026 556.938 47.8255V161.787C556.938 164.426 555.895 166.957 554.037 168.83L527.149 195.929L499.309 223.879C497.433 225.763 494.883 226.822 492.224 226.822H349.458C343.935 226.822 339.458 222.345 339.458 216.822L339.457 102.703C339.457 100.128 340.451 97.6521 342.231 95.7911L371.826 64.8509Z" fill="#FF5100"/>
<path d="M402.511 38.3254H546.938C552.185 38.3255 556.438 42.5788 556.438 47.8254V161.787C556.438 164.294 555.447 166.698 553.682 168.478L526.795 195.576L498.955 223.526C497.172 225.315 494.75 226.321 492.225 226.322H349.458C344.211 226.321 339.958 222.068 339.958 216.822L339.957 102.703C339.957 100.257 340.901 97.9049 342.592 96.137L372.187 65.1965L372.186 65.1956L395.726 41.176C397.512 39.3527 399.958 38.3255 402.511 38.3254Z" stroke="white"/>
</g>
<path d="M455.512 143.551V136.469" stroke="white" stroke-width="5.31139"/>
<rect x="412.134" y="96.6342" width="30.0979" height="30.0979" stroke="white" stroke-width="5.31139"/>
<rect x="412.134" y="139.125" width="30.0979" height="30.0979" stroke="white" stroke-width="5.31139"/>
<rect x="454.626" y="96.6342" width="30.0979" height="30.0979" stroke="white" stroke-width="5.31139"/>
<path d="M469.674 157.715V150.633" stroke="white" stroke-width="5.31139"/>
<path d="M483.838 168.338V161.256" stroke="white" stroke-width="5.31139"/>
<path d="M455.512 154.174V168.338H469.676" stroke="white" stroke-width="5.31139"/>
<path d="M483.838 150.633V140.011H473.215" stroke="white" stroke-width="5.31139"/>
<path d="M427.182 108.142V115.224" stroke="white" stroke-width="7.08185"/>
<path d="M427.182 150.633V157.715" stroke="white" stroke-width="7.08185"/>
<path d="M469.674 108.142V115.224" stroke="white" stroke-width="7.08185"/>
<circle cx="448.304" cy="132.409" r="19.7462" fill="#FF5100" stroke="white" stroke-width="0.519404"/>
<path d="M453.952 141.705C453.629 141.705 453.336 141.658 453.081 141.566C452.828 141.475 452.585 141.327 452.361 141.127C452.136 140.926 451.921 140.685 451.725 140.411C451.525 140.132 451.326 139.847 451.133 139.566L448.488 135.511H444.01V139.669C444.01 140.343 443.854 140.856 443.546 141.196C443.235 141.538 442.847 141.704 442.361 141.704C441.858 141.704 441.467 141.536 441.165 141.191C440.864 140.848 440.712 140.335 440.712 139.669V135.511H438.149C437.478 135.511 436.933 134.966 436.933 134.295C436.933 133.625 437.478 133.079 438.149 133.079H440.712V131.004H438.149C437.478 131.004 436.933 130.458 436.933 129.788C436.933 129.118 437.478 128.572 438.149 128.572H440.712V125.542C440.712 124.956 440.776 124.496 440.901 124.175C441.058 123.803 441.305 123.515 441.659 123.286C442.014 123.056 442.387 122.944 442.799 122.944C443.117 122.944 443.393 122.996 443.618 123.099C443.849 123.204 444.044 123.341 444.216 123.517C444.391 123.696 444.572 123.931 444.754 124.215C444.942 124.506 445.135 124.81 445.34 125.134L447.612 128.572H452.628V124.98C452.628 124.297 452.774 123.78 453.063 123.444C453.352 123.108 453.733 122.944 454.227 122.944C454.738 122.944 455.129 123.108 455.423 123.445C455.715 123.781 455.863 124.297 455.863 124.98V128.572H458.457C459.127 128.572 459.673 129.118 459.673 129.788C459.673 130.459 459.127 131.004 458.457 131.004H455.863V133.08H458.457C459.127 133.08 459.673 133.625 459.673 134.296C459.673 134.966 459.127 135.511 458.457 135.511H455.863V139.382C455.863 140.945 455.238 141.705 453.952 141.705ZM443.609 134.708H448.706C448.841 134.708 448.968 134.777 449.042 134.89L451.801 139.12C451.985 139.39 452.182 139.67 452.378 139.945C452.54 140.17 452.714 140.366 452.896 140.529C453.043 140.66 453.196 140.755 453.353 140.811C453.521 140.872 453.723 140.903 453.952 140.903C454.42 140.903 455.061 140.903 455.061 139.382V135.11C455.061 134.888 455.241 134.708 455.462 134.708H458.457C458.685 134.708 458.87 134.523 458.87 134.295C458.87 134.067 458.685 133.882 458.457 133.882H455.462C455.241 133.882 455.061 133.702 455.061 133.48V130.603C455.061 130.381 455.241 130.201 455.462 130.201H458.457C458.685 130.201 458.87 130.016 458.87 129.788C458.87 129.56 458.685 129.375 458.457 129.375H455.462C455.241 129.375 455.061 129.195 455.061 128.973V124.98C455.061 124.378 454.929 124.1 454.817 123.972C454.72 123.86 454.574 123.746 454.227 123.746C453.967 123.746 453.807 123.81 453.672 123.967C453.562 124.095 453.431 124.375 453.431 124.98V128.973C453.431 129.195 453.251 129.374 453.03 129.374H447.397C447.262 129.374 447.136 129.307 447.062 129.194L444.667 125.57C444.458 125.241 444.265 124.939 444.079 124.649C443.926 124.411 443.778 124.219 443.641 124.078C443.539 123.973 443.423 123.892 443.284 123.829C443.167 123.775 442.998 123.746 442.799 123.746C442.543 123.746 442.32 123.814 442.096 123.959C441.877 124.101 441.734 124.265 441.645 124.477C441.599 124.594 441.515 124.905 441.515 125.542V128.973C441.515 129.195 441.335 129.374 441.113 129.374H438.149C437.921 129.375 437.735 129.56 437.735 129.788C437.735 130.016 437.921 130.201 438.149 130.201H441.113C441.335 130.201 441.515 130.381 441.515 130.603V133.481C441.515 133.702 441.335 133.882 441.113 133.882H438.149C437.921 133.882 437.735 134.067 437.735 134.295C437.735 134.523 437.921 134.708 438.149 134.708H441.113C441.335 134.708 441.515 134.888 441.515 135.11V139.669C441.515 140.129 441.603 140.472 441.77 140.663C441.916 140.83 442.093 140.902 442.361 140.902C442.619 140.902 442.795 140.829 442.951 140.657C443.118 140.473 443.207 140.131 443.207 139.669V135.11C443.207 134.888 443.387 134.708 443.609 134.708ZM453.029 137.899C452.897 137.899 452.77 137.833 452.694 137.718L451.117 135.331C451.036 135.207 451.029 135.049 451.099 134.92C451.169 134.79 451.305 134.708 451.452 134.708H453.029C453.251 134.708 453.431 134.888 453.431 135.11V137.497C453.431 137.675 453.314 137.831 453.145 137.882C453.107 137.893 453.068 137.899 453.029 137.899ZM452.198 135.511L452.628 136.162V135.511H452.198ZM453.029 133.882H450.375C450.24 133.882 450.114 133.814 450.04 133.702L448.139 130.824C448.057 130.7 448.05 130.542 448.12 130.412C448.19 130.282 448.326 130.201 448.473 130.201H453.029C453.251 130.201 453.431 130.381 453.431 130.602V133.48C453.431 133.702 453.251 133.882 453.029 133.882ZM450.591 133.079H452.628V131.004H449.219L450.591 133.079ZM447.643 133.882H443.609C443.387 133.882 443.207 133.702 443.207 133.48V130.603C443.207 130.381 443.387 130.201 443.609 130.201H445.766C445.901 130.201 446.028 130.27 446.102 130.383L447.979 133.262C448.06 133.385 448.066 133.542 447.996 133.672C447.926 133.801 447.79 133.882 447.643 133.882ZM444.01 133.079H446.902L445.548 131.004H444.01V133.079ZM444.703 129.375H443.609C443.387 129.375 443.207 129.195 443.207 128.974V127.296C443.207 127.118 443.324 126.962 443.494 126.911C443.664 126.861 443.848 126.928 443.945 127.076L445.039 128.754C445.119 128.878 445.126 129.035 445.056 129.165C444.986 129.294 444.85 129.375 444.703 129.375Z" fill="white"/>
<g filter="url(#filter6_f_211_131)">
<path d="M653.077 57.1214L679.654 30.0009C681.534 28.0816 684.109 27 686.796 27L849.395 27C854.918 27 859.395 31.4772 859.395 37V165.634C859.395 168.273 858.353 170.804 856.494 172.677L826.194 203.216L794.829 234.704C792.952 236.588 790.403 237.647 787.744 237.647H627.001C621.479 237.647 617.001 233.17 617.001 227.647L617 98.8506C617 96.2753 617.994 93.7992 619.774 91.9382L653.077 57.1214Z" fill="#FF5E01"/>
</g>
<path d="M686.796 27.5H849.396C854.642 27.5001 858.896 31.7534 858.896 37V165.634C858.896 168.14 857.904 170.546 856.139 172.325L825.839 202.863L794.475 234.352C792.692 236.141 790.27 237.147 787.744 237.147H627.001C621.755 237.147 617.501 232.894 617.501 227.647L617.5 98.8506C617.5 96.4042 618.444 94.0521 620.135 92.2842L653.434 57.4707L653.435 57.4717L680.011 30.3506C681.798 28.5273 684.243 27.5 686.796 27.5Z" fill="#FF5100" stroke="white"/>
<g filter="url(#filter7_f_211_131)">
<path d="M661.826 64.8507L685.369 40.8261C687.249 38.9068 689.824 37.8252 692.511 37.8252L836.938 37.8252C842.461 37.8252 846.938 42.3024 846.938 47.8252V161.787C846.938 164.425 845.896 166.957 844.037 168.83L817.149 195.929L789.309 223.879C787.433 225.763 784.883 226.822 782.224 226.822H639.458C633.935 226.822 629.458 222.344 629.458 216.822L629.457 102.703C629.457 100.128 630.451 97.6519 632.231 95.7908L661.826 64.8507Z" fill="#FF833B"/>
</g>
<g filter="url(#filter8_d_211_131)">
<path d="M661.826 64.8509L685.368 40.8264C687.249 38.907 689.824 37.8254 692.511 37.8254L836.938 37.8255C842.461 37.8255 846.938 42.3026 846.938 47.8255V161.787C846.938 164.426 845.895 166.957 844.037 168.83L817.149 195.929L789.309 223.879C787.433 225.763 784.883 226.822 782.224 226.822H639.458C633.935 226.822 629.458 222.345 629.458 216.822L629.457 102.703C629.457 100.128 630.45 97.6521 632.231 95.7911L661.826 64.8509Z" fill="#FF5100"/>
<path d="M692.511 38.3254H836.938C842.185 38.3255 846.438 42.5788 846.438 47.8254V161.787C846.438 164.294 845.447 166.698 843.682 168.478L816.795 195.576L788.955 223.526C787.172 225.315 784.75 226.321 782.224 226.322H639.458C634.211 226.321 629.958 222.068 629.958 216.822L629.957 102.703C629.957 100.257 630.901 97.9049 632.592 96.137L662.187 65.1965L662.186 65.1956L685.725 41.176C687.512 39.3527 689.958 38.3255 692.511 38.3254Z" stroke="white"/>
</g>
<path d="M751.017 94.2148H776.67V115.592H768.119V102.766H751.017V94.2148ZM725.364 94.2148V102.766H708.262V115.592H699.711V94.2148H725.364ZM751.017 171.174V162.623H768.119V149.796H776.67V171.174H751.017ZM725.364 171.174H699.711V149.796H708.262V162.623H725.364V171.174ZM699.711 128.419H776.67V136.97H699.711V128.419Z" fill="white"/>
<g filter="url(#filter9_f_211_131)">
<path d="M968.077 57.1214L994.654 30.0009C996.534 28.0816 999.109 27 1001.8 27L1164.4 27C1169.92 27 1174.4 31.4772 1174.4 37V165.634C1174.4 168.273 1173.35 170.804 1171.49 172.677L1141.19 203.216L1109.83 234.704C1107.95 236.588 1105.4 237.647 1102.74 237.647H942.001C936.479 237.647 932.002 233.17 932.001 227.647L932 98.8506C932 96.2753 932.994 93.7992 934.774 91.9382L968.077 57.1214Z" fill="#FF5E01"/>
</g>
<path d="M1001.8 27.5H1164.4C1169.64 27.5001 1173.9 31.7534 1173.9 37V165.634C1173.9 168.14 1172.9 170.546 1171.14 172.325L1140.84 202.863L1109.47 234.352C1107.69 236.141 1105.27 237.147 1102.74 237.147H942.001C936.755 237.147 932.501 232.894 932.501 227.647L932.5 98.8506C932.5 96.4042 933.444 94.0521 935.135 92.2842L968.434 57.4707L968.435 57.4717L995.011 30.3506C996.798 28.5273 999.243 27.5 1001.8 27.5Z" fill="#FF5100" stroke="white"/>
<g filter="url(#filter10_f_211_131)">
<path d="M976.826 64.8507L1000.37 40.8261C1002.25 38.9068 1004.82 37.8252 1007.51 37.8252L1151.94 37.8252C1157.46 37.8252 1161.94 42.3024 1161.94 47.8252V161.787C1161.94 164.425 1160.9 166.957 1159.04 168.83L1132.15 195.929L1104.31 223.879C1102.43 225.763 1099.88 226.822 1097.22 226.822H954.458C948.936 226.822 944.458 222.344 944.458 216.822L944.457 102.703C944.457 100.128 945.451 97.6519 947.231 95.7908L976.826 64.8507Z" fill="#FF833B"/>
</g>
<g filter="url(#filter11_d_211_131)">
<path d="M976.826 64.8509L1000.37 40.8264C1002.25 38.907 1004.82 37.8254 1007.51 37.8254L1151.94 37.8255C1157.46 37.8255 1161.94 42.3026 1161.94 47.8255V161.787C1161.94 164.426 1160.9 166.957 1159.04 168.83L1132.15 195.929L1104.31 223.879C1102.43 225.763 1099.88 226.822 1097.22 226.822H954.458C948.935 226.822 944.458 222.345 944.458 216.822L944.457 102.703C944.457 100.128 945.451 97.6521 947.231 95.7911L976.826 64.8509Z" fill="#FF5100"/>
<path d="M1007.51 38.3254H1151.94C1157.19 38.3255 1161.44 42.5788 1161.44 47.8254V161.787C1161.44 164.294 1160.45 166.698 1158.68 168.478L1131.79 195.576L1103.96 223.526C1102.17 225.315 1099.75 226.321 1097.22 226.322H954.458C949.211 226.321 944.958 222.068 944.958 216.822L944.957 102.703C944.957 100.257 945.901 97.9049 947.592 96.137L977.188 65.1965L977.187 65.1956L1000.73 41.176C1002.51 39.3527 1004.96 38.3255 1007.51 38.3254Z" stroke="white"/>
</g>
<circle cx="1053.52" cy="132.517" r="38.017" stroke="white"/>
<path d="M1093.15 141.216C1092.52 140.869 1091.84 140.649 1091.13 140.567C1090.42 140.485 1089.7 140.544 1089.01 140.741C1088.32 140.937 1087.68 141.266 1087.12 141.711C1086.56 142.155 1086.1 142.705 1085.75 143.329L1075.65 161.499L1069.88 155.721C1069.37 155.201 1068.77 154.787 1068.11 154.502C1067.45 154.217 1066.73 154.067 1066.01 154.061C1065.29 154.054 1064.57 154.192 1063.91 154.465C1063.24 154.739 1062.63 155.143 1062.12 155.653C1061.61 156.164 1061.2 156.771 1060.93 157.439C1060.66 158.108 1060.52 158.824 1060.53 159.546C1060.53 160.268 1060.68 160.982 1060.97 161.645C1061.25 162.309 1061.67 162.909 1062.19 163.411L1073.06 174.287C1074.09 175.318 1075.48 175.884 1076.91 175.884L1077.66 175.829C1078.5 175.713 1079.29 175.404 1079.98 174.928C1080.68 174.452 1081.25 173.821 1081.66 173.086L1095.26 148.613C1095.6 147.988 1095.83 147.302 1095.91 146.592C1095.99 145.883 1095.93 145.164 1095.73 144.477C1095.54 143.791 1095.21 143.149 1094.77 142.59C1094.32 142.03 1093.77 141.563 1093.15 141.216Z" fill="white"/>
<path d="M1064.39 150.413C1063.77 150.413 1063.21 150.322 1062.72 150.145C1062.23 149.971 1061.76 149.685 1061.33 149.3C1060.9 148.913 1060.48 148.45 1060.11 147.922C1059.72 147.384 1059.34 146.837 1058.97 146.294L1053.87 138.488H1045.25V146.493C1045.25 147.791 1044.95 148.779 1044.36 149.434C1043.76 150.092 1043.01 150.412 1042.08 150.412C1041.11 150.412 1040.36 150.088 1039.78 149.423C1039.2 148.762 1038.9 147.776 1038.9 146.493V138.488H1033.97C1032.68 138.488 1031.63 137.438 1031.63 136.147C1031.63 134.856 1032.68 133.806 1033.97 133.806H1038.9V129.81H1033.97C1032.68 129.811 1031.63 128.76 1031.63 127.47C1031.63 126.18 1032.68 125.129 1033.97 125.129H1038.9V119.294C1038.9 118.167 1039.03 117.281 1039.27 116.662C1039.57 115.946 1040.04 115.393 1040.73 114.951C1041.41 114.508 1042.13 114.293 1042.92 114.293C1043.53 114.293 1044.06 114.393 1044.5 114.591C1044.94 114.794 1045.32 115.058 1045.65 115.397C1045.99 115.742 1046.33 116.194 1046.69 116.739C1047.05 117.301 1047.42 117.886 1047.81 118.51L1052.19 125.129H1061.85V118.213C1061.85 116.897 1062.13 115.903 1062.68 115.256C1063.24 114.608 1063.97 114.293 1064.92 114.293C1065.91 114.293 1066.66 114.608 1067.23 115.258C1067.79 115.904 1068.07 116.899 1068.07 118.213V125.129H1073.07C1074.36 125.129 1075.41 126.179 1075.41 127.47C1075.41 128.761 1074.36 129.811 1073.07 129.811H1068.07V133.807H1073.07C1074.36 133.807 1075.41 134.857 1075.41 136.148C1075.41 137.439 1074.36 138.488 1073.07 138.488H1068.07V145.941C1068.07 148.95 1066.87 150.413 1064.39 150.413ZM1044.48 136.943H1054.29C1054.55 136.943 1054.8 137.075 1054.94 137.293L1060.25 145.437C1060.61 145.957 1060.99 146.495 1061.36 147.024C1061.67 147.457 1062.01 147.835 1062.36 148.148C1062.64 148.402 1062.94 148.584 1063.24 148.692C1063.57 148.81 1063.95 148.869 1064.4 148.869C1065.3 148.869 1066.53 148.869 1066.53 145.941V137.716C1066.53 137.289 1066.88 136.943 1067.3 136.943H1073.07C1073.51 136.943 1073.86 136.586 1073.86 136.147C1073.86 135.708 1073.51 135.351 1073.07 135.351H1067.3C1066.87 135.351 1066.53 135.005 1066.53 134.579V129.038C1066.53 128.611 1066.87 128.265 1067.3 128.265H1073.07C1073.51 128.265 1073.86 127.909 1073.86 127.47C1073.86 127.031 1073.51 126.674 1073.07 126.674H1067.3C1066.87 126.674 1066.53 126.328 1066.53 125.901V118.213C1066.53 117.054 1066.27 116.518 1066.06 116.272C1065.87 116.057 1065.59 115.837 1064.92 115.837C1064.42 115.837 1064.11 115.961 1063.85 116.263C1063.64 116.51 1063.39 117.047 1063.39 118.212V125.901C1063.39 126.327 1063.05 126.674 1062.62 126.674H1051.77C1051.51 126.674 1051.27 126.543 1051.13 126.327L1046.52 119.35C1046.12 118.716 1045.74 118.134 1045.39 117.576C1045.09 117.117 1044.81 116.747 1044.54 116.476C1044.35 116.275 1044.12 116.119 1043.86 115.996C1043.63 115.893 1043.31 115.837 1042.92 115.837C1042.43 115.837 1042 115.968 1041.57 116.247C1041.15 116.52 1040.87 116.837 1040.7 117.244C1040.61 117.47 1040.45 118.069 1040.45 119.294V125.901C1040.45 126.327 1040.1 126.674 1039.68 126.674H1033.97C1033.53 126.674 1033.17 127.031 1033.17 127.47C1033.17 127.909 1033.53 128.265 1033.97 128.265H1039.68C1040.1 128.265 1040.45 128.611 1040.45 129.038V134.579C1040.45 135.006 1040.1 135.352 1039.68 135.352H1033.97C1033.53 135.351 1033.17 135.709 1033.17 136.147C1033.17 136.585 1033.53 136.943 1033.97 136.943H1039.68C1040.1 136.943 1040.45 137.289 1040.45 137.716V146.493C1040.45 147.378 1040.62 148.04 1040.94 148.406C1041.22 148.729 1041.56 148.867 1042.08 148.867C1042.57 148.867 1042.91 148.727 1043.21 148.395C1043.54 148.041 1043.71 147.382 1043.71 146.494V137.716C1043.71 137.289 1044.05 136.943 1044.48 136.943ZM1062.62 143.085C1062.36 143.085 1062.12 142.959 1061.97 142.738L1058.94 138.141C1058.78 137.904 1058.77 137.599 1058.9 137.349C1059.04 137.099 1059.3 136.943 1059.58 136.943H1062.62C1063.04 136.943 1063.39 137.289 1063.39 137.716V142.313C1063.39 142.654 1063.17 142.954 1062.84 143.053C1062.77 143.074 1062.69 143.085 1062.62 143.085ZM1061.02 138.488L1061.85 139.741V138.488H1061.02ZM1062.62 135.351H1057.51C1057.25 135.351 1057.01 135.221 1056.86 135.005L1053.2 129.463C1053.04 129.226 1053.03 128.922 1053.17 128.671C1053.3 128.421 1053.56 128.265 1053.85 128.265H1062.62C1063.04 128.265 1063.39 128.611 1063.39 129.037V134.579C1063.39 135.006 1063.04 135.351 1062.62 135.351ZM1057.92 133.806H1061.85V129.81H1055.28L1057.92 133.806ZM1052.25 135.351H1044.48C1044.05 135.351 1043.71 135.005 1043.71 134.579V129.038C1043.71 128.611 1044.05 128.265 1044.48 128.265H1048.63C1048.89 128.265 1049.14 128.397 1049.28 128.616L1052.89 134.157C1053.05 134.395 1053.06 134.698 1052.93 134.947C1052.79 135.197 1052.53 135.351 1052.25 135.351ZM1045.25 133.806H1050.82L1048.21 129.81H1045.25V133.806ZM1046.59 126.675H1044.48C1044.05 126.675 1043.71 126.328 1043.71 125.902V122.672C1043.71 122.33 1043.93 122.028 1044.26 121.931C1044.59 121.834 1044.94 121.963 1045.13 122.249L1047.23 125.479C1047.39 125.717 1047.4 126.02 1047.27 126.27C1047.13 126.518 1046.87 126.675 1046.59 126.675Z" fill="white"/>
<g filter="url(#filter12_f_211_131)">
<path d="M1271.08 57.1214L1297.65 30.0009C1299.53 28.0816 1302.11 27 1304.8 27L1467.4 27C1472.92 27 1477.4 31.4772 1477.4 37V165.634C1477.4 168.273 1476.35 170.804 1474.49 172.677L1444.19 203.216L1412.83 234.704C1410.95 236.588 1408.4 237.647 1405.74 237.647H1245C1239.48 237.647 1235 233.17 1235 227.647L1235 98.8506C1235 96.2753 1235.99 93.7992 1237.77 91.9382L1271.08 57.1214Z" fill="#FF5E01"/>
</g>
<path d="M1304.4 27.5H1467C1472.25 27.5001 1476.5 31.7534 1476.5 37V165.634C1476.5 168.14 1475.51 170.546 1473.74 172.325L1443.44 202.863L1412.08 234.352C1410.3 236.141 1407.88 237.147 1405.35 237.147H1244.61C1239.36 237.147 1235.11 232.894 1235.11 227.647L1235.11 98.8506C1235.11 96.4042 1236.05 94.0521 1237.74 92.2842L1271.04 57.4707L1271.04 57.4717L1297.62 30.3506C1299.4 28.5273 1301.85 27.5 1304.4 27.5Z" fill="#FF5100" stroke="white"/>
<g filter="url(#filter13_f_211_131)">
<path d="M1279.83 64.8507L1303.37 40.8261C1305.25 38.9068 1307.82 37.8252 1310.51 37.8252L1454.94 37.8252C1460.46 37.8252 1464.94 42.3024 1464.94 47.8252V161.787C1464.94 164.425 1463.9 166.957 1462.04 168.83L1435.15 195.929L1407.31 223.879C1405.43 225.763 1402.88 226.822 1400.22 226.822H1257.46C1251.94 226.822 1247.46 222.344 1247.46 216.822L1247.46 102.703C1247.46 100.128 1248.45 97.6519 1250.23 95.7908L1279.83 64.8507Z" fill="#FF833B"/>
</g>
<g filter="url(#filter14_d_211_131)">
<path d="M1279.43 64.8509L1302.97 40.8264C1304.85 38.907 1307.43 37.8254 1310.12 37.8254L1454.54 37.8255C1460.07 37.8255 1464.54 42.3026 1464.54 47.8255V161.787C1464.54 164.426 1463.5 166.957 1461.64 168.83L1434.75 195.929L1406.91 223.879C1405.04 225.763 1402.49 226.822 1399.83 226.822H1257.06C1251.54 226.822 1247.06 222.345 1247.06 216.822L1247.06 102.703C1247.06 100.128 1248.06 97.6521 1249.84 95.7911L1279.43 64.8509Z" fill="#FF5100"/>
<path d="M1310.12 38.3254H1454.54C1459.79 38.3255 1464.04 42.5788 1464.04 47.8254V161.787C1464.04 164.294 1463.05 166.698 1461.29 168.478L1434.4 195.576L1406.56 223.526C1404.78 225.315 1402.36 226.321 1399.83 226.322H1257.06C1251.82 226.321 1247.56 222.068 1247.56 216.822L1247.56 102.703C1247.56 100.257 1248.51 97.9049 1250.2 96.137L1279.79 65.1965L1279.79 65.1956L1303.33 41.176C1305.12 39.3527 1307.56 38.3255 1310.12 38.3254Z" stroke="white"/>
</g>
<circle cx="1356.2" cy="132.488" r="38.017" stroke="white"/>
<path d="M1368.9 117.304C1368.27 116.957 1367.59 116.736 1366.88 116.654C1366.17 116.573 1365.45 116.632 1364.76 116.828C1364.07 117.024 1363.43 117.354 1362.87 117.798C1362.31 118.242 1361.85 118.792 1361.5 119.416L1351.4 137.586L1345.63 131.808C1345.12 131.288 1344.52 130.874 1343.86 130.589C1343.2 130.304 1342.48 130.154 1341.76 130.148C1341.04 130.141 1340.32 130.279 1339.65 130.552C1338.99 130.826 1338.38 131.23 1337.87 131.74C1337.36 132.251 1336.95 132.858 1336.68 133.527C1336.41 134.195 1336.27 134.911 1336.28 135.633C1336.28 136.355 1336.43 137.069 1336.72 137.732C1337 138.396 1337.42 138.996 1337.94 139.498L1348.81 150.375C1349.84 151.405 1351.23 151.971 1352.66 151.971L1353.41 151.916C1354.24 151.8 1355.04 151.491 1355.73 151.015C1356.43 150.539 1357 149.908 1357.41 149.173L1371.01 124.7C1371.35 124.076 1371.57 123.389 1371.66 122.68C1371.74 121.97 1371.68 121.251 1371.48 120.565C1371.29 119.878 1370.96 119.236 1370.51 118.677C1370.07 118.117 1369.52 117.651 1368.9 117.304Z" fill="white"/>
<defs>
<filter id="filter0_f_211_131" x="17.0001" y="19" width="258.395" height="226.647" filterUnits="userSpaceOnUse" color-interpolation-filters="sRGB">
<feFlood flood-opacity="0" result="BackgroundImageFix"/>
<feBlend mode="normal" in="SourceGraphic" in2="BackgroundImageFix" result="shape"/>
<feGaussianBlur stdDeviation="4" result="effect1_foregroundBlur_211_131"/>
</filter>
<filter id="filter1_f_211_131" x="0.556999" y="0.925438" width="291.281" height="262.796" filterUnits="userSpaceOnUse" color-interpolation-filters="sRGB">
<feFlood flood-opacity="0" result="BackgroundImageFix"/>
<feBlend mode="normal" in="SourceGraphic" in2="BackgroundImageFix" result="shape"/>
<feGaussianBlur stdDeviation="18.45" result="effect1_foregroundBlur_211_131"/>
</filter>
<filter id="filter2_d_211_131" x="11.7572" y="13.1252" width="274.881" height="246.396" filterUnits="userSpaceOnUse" color-interpolation-filters="sRGB">
<feFlood flood-opacity="0" result="BackgroundImageFix"/>
<feColorMatrix in="SourceAlpha" type="matrix" values="0 0 0 0 0 0 0 0 0 0 0 0 0 0 0 0 0 0 127 0" result="hardAlpha"/>
<feOffset dx="3" dy="4"/>
<feGaussianBlur stdDeviation="14.35"/>
<feComposite in2="hardAlpha" operator="out"/>
<feColorMatrix type="matrix" values="0 0 0 0 1 0 0 0 0 1 0 0 0 0 1 0 0 0 0.25 0"/>
<feBlend mode="normal" in2="BackgroundImageFix" result="effect1_dropShadow_211_131"/>
<feBlend mode="normal" in="SourceGraphic" in2="effect1_dropShadow_211_131" result="shape"/>
</filter>
<filter id="filter3_f_211_131" x="319" y="19" width="258.395" height="226.647" filterUnits="userSpaceOnUse" color-interpolation-filters="sRGB">
<feFlood flood-opacity="0" result="BackgroundImageFix"/>
<feBlend mode="normal" in="SourceGraphic" in2="BackgroundImageFix" result="shape"/>
<feGaussianBlur stdDeviation="4" result="effect1_foregroundBlur_211_131"/>
</filter>
<filter id="filter4_f_211_131" x="302.557" y="0.925194" width="291.281" height="262.796" filterUnits="userSpaceOnUse" color-interpolation-filters="sRGB">
<feFlood flood-opacity="0" result="BackgroundImageFix"/>
<feBlend mode="normal" in="SourceGraphic" in2="BackgroundImageFix" result="shape"/>
<feGaussianBlur stdDeviation="18.45" result="effect1_foregroundBlur_211_131"/>
</filter>
<filter id="filter5_d_211_131" x="313.757" y="13.1254" width="274.881" height="246.396" filterUnits="userSpaceOnUse" color-interpolation-filters="sRGB">
<feFlood flood-opacity="0" result="BackgroundImageFix"/>
<feColorMatrix in="SourceAlpha" type="matrix" values="0 0 0 0 0 0 0 0 0 0 0 0 0 0 0 0 0 0 127 0" result="hardAlpha"/>
<feOffset dx="3" dy="4"/>
<feGaussianBlur stdDeviation="14.35"/>
<feComposite in2="hardAlpha" operator="out"/>
<feColorMatrix type="matrix" values="0 0 0 0 1 0 0 0 0 1 0 0 0 0 1 0 0 0 0.25 0"/>
<feBlend mode="normal" in2="BackgroundImageFix" result="effect1_dropShadow_211_131"/>
<feBlend mode="normal" in="SourceGraphic" in2="effect1_dropShadow_211_131" result="shape"/>
</filter>
<filter id="filter6_f_211_131" x="609" y="19" width="258.395" height="226.647" filterUnits="userSpaceOnUse" color-interpolation-filters="sRGB">
<feFlood flood-opacity="0" result="BackgroundImageFix"/>
<feBlend mode="normal" in="SourceGraphic" in2="BackgroundImageFix" result="shape"/>
<feGaussianBlur stdDeviation="4" result="effect1_foregroundBlur_211_131"/>
</filter>
<filter id="filter7_f_211_131" x="592.557" y="0.925194" width="291.281" height="262.796" filterUnits="userSpaceOnUse" color-interpolation-filters="sRGB">
<feFlood flood-opacity="0" result="BackgroundImageFix"/>
<feBlend mode="normal" in="SourceGraphic" in2="BackgroundImageFix" result="shape"/>
<feGaussianBlur stdDeviation="18.45" result="effect1_foregroundBlur_211_131"/>
</filter>
<filter id="filter8_d_211_131" x="603.757" y="13.1254" width="274.881" height="246.396" filterUnits="userSpaceOnUse" color-interpolation-filters="sRGB">
<feFlood flood-opacity="0" result="BackgroundImageFix"/>
<feColorMatrix in="SourceAlpha" type="matrix" values="0 0 0 0 0 0 0 0 0 0 0 0 0 0 0 0 0 0 127 0" result="hardAlpha"/>
<feOffset dx="3" dy="4"/>
<feGaussianBlur stdDeviation="14.35"/>
<feComposite in2="hardAlpha" operator="out"/>
<feColorMatrix type="matrix" values="0 0 0 0 1 0 0 0 0 1 0 0 0 0 1 0 0 0 0.25 0"/>
<feBlend mode="normal" in2="BackgroundImageFix" result="effect1_dropShadow_211_131"/>
<feBlend mode="normal" in="SourceGraphic" in2="effect1_dropShadow_211_131" result="shape"/>
</filter>
<filter id="filter9_f_211_131" x="924" y="19" width="258.395" height="226.647" filterUnits="userSpaceOnUse" color-interpolation-filters="sRGB">
<feFlood flood-opacity="0" result="BackgroundImageFix"/>
<feBlend mode="normal" in="SourceGraphic" in2="BackgroundImageFix" result="shape"/>
<feGaussianBlur stdDeviation="4" result="effect1_foregroundBlur_211_131"/>
</filter>
<filter id="filter10_f_211_131" x="907.557" y="0.925194" width="291.281" height="262.796" filterUnits="userSpaceOnUse" color-interpolation-filters="sRGB">
<feFlood flood-opacity="0" result="BackgroundImageFix"/>
<feBlend mode="normal" in="SourceGraphic" in2="BackgroundImageFix" result="shape"/>
<feGaussianBlur stdDeviation="18.45" result="effect1_foregroundBlur_211_131"/>
</filter>
<filter id="filter11_d_211_131" x="918.757" y="13.1254" width="274.881" height="246.396" filterUnits="userSpaceOnUse" color-interpolation-filters="sRGB">
<feFlood flood-opacity="0" result="BackgroundImageFix"/>
<feColorMatrix in="SourceAlpha" type="matrix" values="0 0 0 0 0 0 0 0 0 0 0 0 0 0 0 0 0 0 127 0" result="hardAlpha"/>
<feOffset dx="3" dy="4"/>
<feGaussianBlur stdDeviation="14.35"/>
<feComposite in2="hardAlpha" operator="out"/>
<feColorMatrix type="matrix" values="0 0 0 0 1 0 0 0 0 1 0 0 0 0 1 0 0 0 0.25 0"/>
<feBlend mode="normal" in2="BackgroundImageFix" result="effect1_dropShadow_211_131"/>
<feBlend mode="normal" in="SourceGraphic" in2="effect1_dropShadow_211_131" result="shape"/>
</filter>
<filter id="filter12_f_211_131" x="1227" y="19" width="258.395" height="226.647" filterUnits="userSpaceOnUse" color-interpolation-filters="sRGB">
<feFlood flood-opacity="0" result="BackgroundImageFix"/>
<feBlend mode="normal" in="SourceGraphic" in2="BackgroundImageFix" result="shape"/>
<feGaussianBlur stdDeviation="4" result="effect1_foregroundBlur_211_131"/>
</filter>
<filter id="filter13_f_211_131" x="1210.56" y="0.925194" width="291.281" height="262.796" filterUnits="userSpaceOnUse" color-interpolation-filters="sRGB">
<feFlood flood-opacity="0" result="BackgroundImageFix"/>
<feBlend mode="normal" in="SourceGraphic" in2="BackgroundImageFix" result="shape"/>
<feGaussianBlur stdDeviation="18.45" result="effect1_foregroundBlur_211_131"/>
</filter>
<filter id="filter14_d_211_131" x="1221.36" y="13.1254" width="274.881" height="246.396" filterUnits="userSpaceOnUse" color-interpolation-filters="sRGB">
<feFlood flood-opacity="0" result="BackgroundImageFix"/>
<feColorMatrix in="SourceAlpha" type="matrix" values="0 0 0 0 0 0 0 0 0 0 0 0 0 0 0 0 0 0 127 0" result="hardAlpha"/>
<feOffset dx="3" dy="4"/>
<feGaussianBlur stdDeviation="14.35"/>
<feComposite in2="hardAlpha" operator="out"/>
<feColorMatrix type="matrix" values="0 0 0 0 1 0 0 0 0 1 0 0 0 0 1 0 0 0 0.25 0"/>
<feBlend mode="normal" in2="BackgroundImageFix" result="effect1_dropShadow_211_131"/>
<feBlend mode="normal" in="SourceGraphic" in2="effect1_dropShadow_211_131" result="shape"/>
</filter>
</defs>
</svg>
