<svg width="1502" height="264" viewBox="0 0 1502 264" fill="none" xmlns="http://www.w3.org/2000/svg">
<line x1="267" y1="143.5" x2="327" y2="143.5" stroke="white"/>
<line x1="569" y1="143.5" x2="629" y2="143.5" stroke="white"/>
<line x1="872" y1="143.5" x2="932" y2="143.5" stroke="white"/>
<line x1="1175" y1="143.5" x2="1235" y2="143.5" stroke="white"/>
<g filter="url(#filter0_f_185_1124)">
<path d="M61.0771 57.1214L87.6536 30.0009C89.5345 28.0816 92.1087 27 94.7959 27L257.395 27C262.918 27 267.395 31.4772 267.395 37V165.634C267.395 168.273 266.353 170.804 264.494 172.677L234.194 203.216L202.829 234.704C200.952 236.588 198.403 237.647 195.744 237.647H35.0014C29.4786 237.647 25.0015 233.17 25.0014 227.647L25.0001 98.8506C25.0001 96.2753 25.9936 93.7992 27.7738 91.9382L61.0771 57.1214Z" fill="#FF5E01"/>
</g>
<path d="M94.796 27.5H257.396C262.642 27.5001 266.896 31.7534 266.896 37V165.634C266.896 168.14 265.904 170.546 264.139 172.325L233.839 202.863L202.475 234.352C200.692 236.141 198.27 237.147 195.744 237.147H35.0011C29.7546 237.147 25.5012 232.894 25.5011 227.647L25.5001 98.8506C25.5001 96.4042 26.4439 94.0521 28.1349 92.2842L61.4337 57.4707L61.4347 57.4717L88.0108 30.3506C89.7976 28.5273 92.2432 27.5 94.796 27.5Z" fill="#FF5100" stroke="white"/>
<g filter="url(#filter1_f_185_1124)">
<path d="M69.8259 64.8509L93.3685 40.8264C95.2494 38.907 97.8236 37.8254 100.511 37.8254L244.938 37.8255C250.461 37.8255 254.938 42.3026 254.938 47.8255V161.787C254.938 164.426 253.895 166.957 252.037 168.83L225.149 195.929L197.309 223.879C195.433 225.763 192.883 226.822 190.224 226.822H47.4581C41.9353 226.822 37.4582 222.345 37.4581 216.822L37.457 102.703C37.457 100.128 38.4505 97.6521 40.2306 95.7911L69.8259 64.8509Z" fill="#FF833B"/>
</g>
<g filter="url(#filter2_d_185_1124)">
<path d="M69.826 64.8507L93.3687 40.8261C95.2495 38.9068 97.8237 37.8252 100.511 37.8252L244.938 37.8252C250.461 37.8252 254.938 42.3024 254.938 47.8252V161.787C254.938 164.425 253.896 166.957 252.037 168.83L225.149 195.929L197.309 223.879C195.433 225.763 192.883 226.822 190.224 226.822H47.4583C41.9355 226.822 37.4584 222.344 37.4583 216.822L37.4572 102.703C37.4571 100.128 38.4507 97.6519 40.2308 95.7908L69.826 64.8507Z" fill="#FF5100"/>
<path d="M100.511 38.3252H244.939C250.185 38.3253 254.439 42.5786 254.439 47.8252V161.787C254.438 164.294 253.447 166.698 251.682 168.478L224.795 195.576L196.955 223.525C195.173 225.315 192.751 226.321 190.225 226.321H47.4581C42.2115 226.321 37.9582 222.068 37.9581 216.821L37.9571 102.703C37.9571 100.257 38.9009 97.9046 40.5919 96.1367L70.1876 65.1963L70.1866 65.1953L93.7257 41.1758C95.5124 39.3525 97.958 38.3252 100.511 38.3252Z" stroke="white"/>
</g>
<path d="M107.904 128.392H142.318V93.9785H107.904V128.392ZM116.508 102.582H133.715V119.789H116.508V102.582ZM107.904 171.409H142.318V136.996H107.904V171.409ZM116.508 145.599H133.715V162.806H116.508V145.599ZM150.921 93.9785V128.392H185.335V93.9785H150.921ZM176.732 119.789H159.525V102.582H176.732V119.789ZM150.964 136.996H159.568V145.599H150.964V136.996ZM159.568 145.599H168.171V154.202H159.568V145.599ZM150.964 154.202H159.568V162.806H150.964V154.202ZM168.171 154.202H176.775V162.806H168.171V154.202ZM176.775 162.806H185.378V171.409H176.775V162.806ZM159.568 162.806H168.171V171.409H159.568V162.806ZM168.171 136.996H176.775V145.599H168.171V136.996ZM176.775 145.599H185.378V154.202H176.775V145.599Z" fill="white"/>
<g filter="url(#filter3_f_185_1124)">
<path d="M363.077 57.1214L389.654 30.0009C391.534 28.0816 394.109 27 396.796 27L559.395 27C564.918 27 569.395 31.4772 569.395 37V165.634C569.395 168.273 568.353 170.804 566.494 172.677L536.194 203.216L504.829 234.704C502.952 236.588 500.403 237.647 497.744 237.647H337.001C331.479 237.647 327.001 233.17 327.001 227.647L327 98.8506C327 96.2753 327.994 93.7992 329.774 91.9382L363.077 57.1214Z" fill="#FF5E01"/>
</g>
<path d="M396.796 27.5H559.396C564.642 27.5001 568.896 31.7534 568.896 37V165.634C568.896 168.14 567.904 170.546 566.139 172.325L535.839 202.863L504.475 234.352C502.692 236.141 500.27 237.147 497.744 237.147H337.001C331.755 237.147 327.501 232.894 327.501 227.647L327.5 98.8506C327.5 96.4042 328.444 94.0521 330.135 92.2842L363.434 57.4707L363.435 57.4717L390.011 30.3506C391.798 28.5273 394.243 27.5 396.796 27.5Z" fill="#FF5100" stroke="white"/>
<g filter="url(#filter4_f_185_1124)">
<path d="M371.826 64.8507L395.369 40.8261C397.25 38.9068 399.824 37.8252 402.511 37.8252L546.938 37.8252C552.461 37.8252 556.938 42.3024 556.938 47.8252V161.787C556.938 164.425 555.896 166.957 554.037 168.83L527.149 195.929L499.309 223.879C497.433 225.763 494.883 226.822 492.224 226.822H349.458C343.936 226.822 339.458 222.344 339.458 216.822L339.457 102.703C339.457 100.128 340.451 97.6519 342.231 95.7908L371.826 64.8507Z" fill="#FF833B"/>
</g>
<g filter="url(#filter5_d_185_1124)">
<path d="M371.826 64.8509L395.369 40.8264C397.249 38.907 399.824 37.8254 402.511 37.8254L546.938 37.8255C552.461 37.8255 556.938 42.3026 556.938 47.8255V161.787C556.938 164.426 555.895 166.957 554.037 168.83L527.149 195.929L499.309 223.879C497.433 225.763 494.883 226.822 492.224 226.822H349.458C343.935 226.822 339.458 222.345 339.458 216.822L339.457 102.703C339.457 100.128 340.45 97.6521 342.231 95.7911L371.826 64.8509Z" fill="#FF5100"/>
<path d="M402.511 38.3254H546.938C552.185 38.3255 556.438 42.5788 556.438 47.8254V161.787C556.438 164.294 555.447 166.698 553.682 168.478L526.795 195.576L498.955 223.526C497.172 225.315 494.75 226.321 492.225 226.322H349.458C344.211 226.321 339.958 222.068 339.958 216.822L339.957 102.703C339.957 100.257 340.901 97.9049 342.592 96.137L372.187 65.1965L372.186 65.1956L395.726 41.176C397.512 39.3527 399.958 38.3255 402.511 38.3254Z" stroke="white"/>
</g>
<path d="M455.512 143.551V136.469" stroke="white" stroke-width="5.31139"/>
<rect x="412.134" y="96.6342" width="30.0979" height="30.0979" stroke="white" stroke-width="5.31139"/>
<rect x="412.134" y="139.125" width="30.0979" height="30.0979" stroke="white" stroke-width="5.31139"/>
<rect x="454.626" y="96.6342" width="30.0979" height="30.0979" stroke="white" stroke-width="5.31139"/>
<path d="M469.674 157.715V150.633" stroke="white" stroke-width="5.31139"/>
<path d="M483.838 168.338V161.256" stroke="white" stroke-width="5.31139"/>
<path d="M455.512 154.174V168.338H469.676" stroke="white" stroke-width="5.31139"/>
<path d="M483.838 150.633V140.011H473.215" stroke="white" stroke-width="5.31139"/>
<path d="M427.182 108.142V115.224" stroke="white" stroke-width="7.08185"/>
<path d="M427.182 150.633V157.715" stroke="white" stroke-width="7.08185"/>
<path d="M469.674 108.142V115.224" stroke="white" stroke-width="7.08185"/>
<circle cx="448.304" cy="132.409" r="19.7462" fill="#FF5100" stroke="white" stroke-width="0.519404"/>
<path d="M453.952 141.705C453.629 141.705 453.336 141.658 453.081 141.566C452.828 141.475 452.585 141.327 452.361 141.127C452.136 140.926 451.921 140.685 451.725 140.411C451.525 140.132 451.326 139.847 451.133 139.566L448.488 135.511H444.01V139.669C444.01 140.343 443.854 140.856 443.546 141.196C443.235 141.538 442.847 141.704 442.361 141.704C441.858 141.704 441.467 141.536 441.165 141.191C440.864 140.848 440.712 140.335 440.712 139.669V135.511H438.149C437.478 135.511 436.933 134.966 436.933 134.295C436.933 133.625 437.478 133.079 438.149 133.079H440.712V131.004H438.149C437.478 131.004 436.933 130.458 436.933 129.788C436.933 129.118 437.478 128.572 438.149 128.572H440.712V125.542C440.712 124.956 440.776 124.496 440.901 124.175C441.058 123.803 441.305 123.515 441.659 123.286C442.014 123.056 442.387 122.944 442.799 122.944C443.117 122.944 443.393 122.996 443.618 123.099C443.848 123.204 444.044 123.341 444.216 123.517C444.391 123.696 444.572 123.931 444.754 124.215C444.942 124.506 445.135 124.81 445.34 125.134L447.612 128.572H452.628V124.98C452.628 124.297 452.774 123.78 453.063 123.444C453.352 123.108 453.733 122.944 454.227 122.944C454.738 122.944 455.129 123.108 455.423 123.445C455.715 123.781 455.863 124.297 455.863 124.98V128.572H458.457C459.127 128.572 459.673 129.118 459.673 129.788C459.673 130.459 459.127 131.004 458.457 131.004H455.863V133.08H458.457C459.127 133.08 459.673 133.625 459.673 134.296C459.673 134.966 459.127 135.511 458.457 135.511H455.863V139.382C455.863 140.945 455.238 141.705 453.952 141.705ZM443.608 134.708H448.706C448.841 134.708 448.968 134.777 449.042 134.89L451.801 139.12C451.985 139.39 452.182 139.67 452.378 139.945C452.539 140.17 452.714 140.366 452.896 140.529C453.043 140.66 453.196 140.755 453.353 140.811C453.521 140.872 453.723 140.903 453.952 140.903C454.42 140.903 455.061 140.903 455.061 139.382V135.11C455.061 134.888 455.241 134.708 455.462 134.708H458.457C458.685 134.708 458.87 134.523 458.87 134.295C458.87 134.067 458.685 133.882 458.457 133.882H455.462C455.24 133.882 455.061 133.702 455.061 133.48V130.603C455.061 130.381 455.24 130.201 455.462 130.201H458.457C458.685 130.201 458.87 130.016 458.87 129.788C458.87 129.56 458.685 129.375 458.457 129.375H455.462C455.24 129.375 455.061 129.195 455.061 128.973V124.98C455.061 124.378 454.928 124.1 454.817 123.972C454.72 123.86 454.574 123.746 454.227 123.746C453.967 123.746 453.807 123.81 453.672 123.967C453.562 124.095 453.431 124.375 453.431 124.98V128.973C453.431 129.195 453.251 129.374 453.03 129.374H447.397C447.262 129.374 447.136 129.307 447.062 129.194L444.667 125.57C444.458 125.241 444.265 124.939 444.079 124.649C443.926 124.411 443.778 124.219 443.641 124.078C443.539 123.973 443.423 123.892 443.284 123.829C443.166 123.775 442.998 123.746 442.799 123.746C442.543 123.746 442.32 123.814 442.096 123.959C441.877 124.101 441.734 124.265 441.645 124.477C441.599 124.594 441.515 124.905 441.515 125.542V128.973C441.515 129.195 441.335 129.374 441.113 129.374H438.149C437.921 129.375 437.735 129.56 437.735 129.788C437.735 130.016 437.921 130.201 438.149 130.201H441.113C441.335 130.201 441.515 130.381 441.515 130.603V133.481C441.515 133.702 441.335 133.882 441.113 133.882H438.149C437.921 133.882 437.735 134.067 437.735 134.295C437.735 134.523 437.921 134.708 438.149 134.708H441.113C441.335 134.708 441.515 134.888 441.515 135.11V139.669C441.515 140.129 441.603 140.472 441.77 140.663C441.916 140.83 442.093 140.902 442.361 140.902C442.619 140.902 442.795 140.829 442.951 140.657C443.118 140.473 443.207 140.131 443.207 139.669V135.11C443.207 134.888 443.387 134.708 443.608 134.708ZM453.029 137.899C452.897 137.899 452.77 137.833 452.694 137.718L451.117 135.331C451.036 135.207 451.029 135.049 451.099 134.92C451.169 134.79 451.305 134.708 451.452 134.708H453.029C453.251 134.708 453.431 134.888 453.431 135.11V137.497C453.431 137.675 453.314 137.831 453.145 137.882C453.107 137.893 453.068 137.899 453.029 137.899ZM452.198 135.511L452.628 136.162V135.511H452.198ZM453.029 133.882H450.375C450.24 133.882 450.114 133.814 450.04 133.702L448.139 130.824C448.057 130.7 448.05 130.542 448.12 130.412C448.19 130.282 448.326 130.201 448.473 130.201H453.029C453.251 130.201 453.431 130.381 453.431 130.602V133.48C453.431 133.702 453.251 133.882 453.029 133.882ZM450.591 133.079H452.628V131.004H449.219L450.591 133.079ZM447.643 133.882H443.608C443.387 133.882 443.207 133.702 443.207 133.48V130.603C443.207 130.381 443.387 130.201 443.608 130.201H445.766C445.901 130.201 446.028 130.27 446.102 130.383L447.979 133.262C448.06 133.385 448.066 133.542 447.996 133.672C447.925 133.801 447.79 133.882 447.643 133.882ZM444.01 133.079H446.902L445.548 131.004H444.01V133.079ZM444.703 129.375H443.608C443.387 129.375 443.207 129.195 443.207 128.974V127.296C443.207 127.118 443.324 126.962 443.494 126.911C443.664 126.861 443.848 126.928 443.945 127.076L445.039 128.754C445.119 128.878 445.126 129.035 445.056 129.165C444.986 129.294 444.85 129.375 444.703 129.375Z" fill="white"/>
<g filter="url(#filter6_f_185_1124)">
<path d="M653.077 57.1214L679.654 30.0009C681.534 28.0816 684.109 27 686.796 27L849.395 27C854.918 27 859.395 31.4772 859.395 37V165.634C859.395 168.273 858.353 170.804 856.494 172.677L826.194 203.216L794.829 234.704C792.952 236.588 790.403 237.647 787.744 237.647H627.001C621.479 237.647 617.001 233.17 617.001 227.647L617 98.8506C617 96.2753 617.994 93.7992 619.774 91.9382L653.077 57.1214Z" fill="#FF5E01"/>
</g>
<path d="M686.796 27.5H849.396C854.642 27.5001 858.896 31.7534 858.896 37V165.634C858.896 168.14 857.904 170.546 856.139 172.325L825.839 202.863L794.475 234.352C792.692 236.141 790.27 237.147 787.744 237.147H627.001C621.755 237.147 617.501 232.894 617.501 227.647L617.5 98.8506C617.5 96.4042 618.444 94.0521 620.135 92.2842L653.434 57.4707L653.435 57.4717L680.011 30.3506C681.798 28.5273 684.243 27.5 686.796 27.5Z" fill="#FF5100" stroke="white"/>
<g filter="url(#filter7_f_185_1124)">
<path d="M661.826 64.8507L685.369 40.8261C687.25 38.9068 689.824 37.8252 692.511 37.8252L836.938 37.8252C842.461 37.8252 846.938 42.3024 846.938 47.8252V161.787C846.938 164.425 845.896 166.957 844.037 168.83L817.149 195.929L789.309 223.879C787.433 225.763 784.883 226.822 782.224 226.822H639.458C633.936 226.822 629.458 222.344 629.458 216.822L629.457 102.703C629.457 100.128 630.451 97.6519 632.231 95.7908L661.826 64.8507Z" fill="#FF833B"/>
</g>
<g filter="url(#filter8_d_185_1124)">
<path d="M661.826 64.8509L685.369 40.8264C687.249 38.907 689.824 37.8254 692.511 37.8254L836.938 37.8255C842.461 37.8255 846.938 42.3026 846.938 47.8255V161.787C846.938 164.426 845.895 166.957 844.037 168.83L817.149 195.929L789.309 223.879C787.433 225.763 784.883 226.822 782.224 226.822H639.458C633.935 226.822 629.458 222.345 629.458 216.822L629.457 102.703C629.457 100.128 630.451 97.6521 632.231 95.7911L661.826 64.8509Z" fill="#FF5100"/>
<path d="M692.511 38.3254H836.938C842.185 38.3255 846.438 42.5788 846.438 47.8254V161.787C846.438 164.294 845.447 166.698 843.682 168.478L816.795 195.576L788.955 223.526C787.172 225.315 784.75 226.321 782.225 226.322H639.458C634.211 226.321 629.958 222.068 629.958 216.822L629.957 102.703C629.957 100.257 630.901 97.9049 632.592 96.137L662.187 65.1965L662.186 65.1956L685.726 41.176C687.512 39.3527 689.958 38.3255 692.511 38.3254Z" stroke="white"/>
</g>
<path d="M751.017 94.2148H776.67V115.592H768.119V102.766H751.017V94.2148ZM725.364 94.2148V102.766H708.262V115.592H699.711V94.2148H725.364ZM751.017 171.174V162.623H768.119V149.796H776.67V171.174H751.017ZM725.364 171.174H699.711V149.796H708.262V162.623H725.364V171.174ZM699.711 128.419H776.67V136.97H699.711V128.419Z" fill="white"/>
<g filter="url(#filter9_f_185_1124)">
<path d="M968.077 57.1214L994.654 30.0009C996.534 28.0816 999.109 27 1001.8 27L1164.4 27C1169.92 27 1174.4 31.4772 1174.4 37V165.634C1174.4 168.273 1173.35 170.804 1171.49 172.677L1141.19 203.216L1109.83 234.704C1107.95 236.588 1105.4 237.647 1102.74 237.647H942.001C936.479 237.647 932.001 233.17 932.001 227.647L932 98.8506C932 96.2753 932.994 93.7992 934.774 91.9382L968.077 57.1214Z" fill="#FF5E01"/>
</g>
<path d="M1001.8 27.5H1164.4C1169.64 27.5001 1173.9 31.7534 1173.9 37V165.634C1173.9 168.14 1172.9 170.546 1171.14 172.325L1140.84 202.863L1109.47 234.352C1107.69 236.141 1105.27 237.147 1102.74 237.147H942.001C936.755 237.147 932.501 232.894 932.501 227.647L932.5 98.8506C932.5 96.4042 933.444 94.0521 935.135 92.2842L968.434 57.4707L968.435 57.4717L995.011 30.3506C996.798 28.5273 999.243 27.5 1001.8 27.5Z" fill="#FF5100" stroke="white"/>
<g filter="url(#filter10_f_185_1124)">
<path d="M976.826 64.8507L1000.37 40.8261C1002.25 38.9068 1004.82 37.8252 1007.51 37.8252L1151.94 37.8252C1157.46 37.8252 1161.94 42.3024 1161.94 47.8252V161.787C1161.94 164.425 1160.9 166.957 1159.04 168.83L1132.15 195.929L1104.31 223.879C1102.43 225.763 1099.88 226.822 1097.22 226.822H954.458C948.935 226.822 944.458 222.344 944.458 216.822L944.457 102.703C944.457 100.128 945.451 97.6519 947.231 95.7908L976.826 64.8507Z" fill="#FF833B"/>
</g>
<g filter="url(#filter11_d_185_1124)">
<path d="M976.826 64.8509L1000.37 40.8264C1002.25 38.907 1004.82 37.8254 1007.51 37.8254L1151.94 37.8255C1157.46 37.8255 1161.94 42.3026 1161.94 47.8255V161.787C1161.94 164.426 1160.9 166.957 1159.04 168.83L1132.15 195.929L1104.31 223.879C1102.43 225.763 1099.88 226.822 1097.22 226.822H954.458C948.935 226.822 944.458 222.345 944.458 216.822L944.457 102.703C944.457 100.128 945.45 97.6521 947.231 95.7911L976.826 64.8509Z" fill="#FF5100"/>
<path d="M1007.51 38.3254H1151.94C1157.18 38.3255 1161.44 42.5788 1161.44 47.8254V161.787C1161.44 164.294 1160.45 166.698 1158.68 168.478L1131.79 195.576L1103.95 223.526C1102.17 225.315 1099.75 226.321 1097.22 226.322H954.458C949.211 226.321 944.958 222.068 944.958 216.822L944.957 102.703C944.957 100.257 945.901 97.9049 947.592 96.137L977.187 65.1965L977.186 65.1956L1000.73 41.176C1002.51 39.3527 1004.96 38.3255 1007.51 38.3254Z" stroke="white"/>
</g>
<circle cx="1053.52" cy="132.517" r="38.017" stroke="white"/>
<path d="M1066.22 117.333C1065.59 116.986 1064.9 116.765 1064.19 116.684C1063.48 116.602 1062.77 116.661 1062.08 116.857C1061.39 117.053 1060.75 117.383 1060.19 117.827C1059.63 118.271 1059.17 118.821 1058.82 119.446L1048.72 137.615L1042.94 131.837C1042.44 131.318 1041.84 130.903 1041.18 130.618C1040.52 130.333 1039.8 130.183 1039.08 130.177C1038.36 130.171 1037.64 130.308 1036.97 130.582C1036.3 130.855 1035.7 131.259 1035.19 131.77C1034.68 132.28 1034.27 132.888 1034 133.556C1033.73 134.224 1033.59 134.94 1033.59 135.662C1033.6 136.385 1033.75 137.098 1034.04 137.762C1034.32 138.425 1034.73 139.025 1035.25 139.527L1046.13 150.404C1047.16 151.434 1048.55 152 1049.98 152L1050.73 151.946C1051.56 151.829 1052.36 151.521 1053.05 151.044C1053.75 150.568 1054.32 149.938 1054.73 149.202L1068.33 124.729C1068.67 124.105 1068.89 123.418 1068.97 122.709C1069.06 121.999 1069 121.281 1068.8 120.594C1068.61 119.907 1068.28 119.266 1067.83 118.706C1067.39 118.147 1066.84 117.68 1066.22 117.333Z" fill="white"/>
<g filter="url(#filter12_f_185_1124)">
<path d="M1271.08 57.1214L1297.65 30.0009C1299.53 28.0816 1302.11 27 1304.8 27L1467.4 27C1472.92 27 1477.4 31.4772 1477.4 37V165.634C1477.4 168.273 1476.35 170.804 1474.49 172.677L1444.19 203.216L1412.83 234.704C1410.95 236.588 1408.4 237.647 1405.74 237.647H1245C1239.48 237.647 1235 233.17 1235 227.647L1235 98.8506C1235 96.2753 1235.99 93.7992 1237.77 91.9382L1271.08 57.1214Z" fill="#FF5E01"/>
</g>
<path d="M1304.4 27.5H1467C1472.25 27.5001 1476.5 31.7534 1476.5 37V165.634C1476.5 168.14 1475.51 170.546 1473.74 172.325L1443.44 202.863L1412.08 234.352C1410.3 236.141 1407.88 237.147 1405.35 237.147H1244.61C1239.36 237.147 1235.11 232.894 1235.11 227.647L1235.11 98.8506C1235.11 96.4042 1236.05 94.0521 1237.74 92.2842L1271.04 57.4707L1271.04 57.4717L1297.62 30.3506C1299.4 28.5273 1301.85 27.5 1304.4 27.5Z" fill="#FF5100" stroke="white"/>
<g filter="url(#filter13_f_185_1124)">
<path d="M1279.83 64.8507L1303.37 40.8261C1305.25 38.9068 1307.82 37.8252 1310.51 37.8252L1454.94 37.8252C1460.46 37.8252 1464.94 42.3024 1464.94 47.8252V161.787C1464.94 164.425 1463.9 166.957 1462.04 168.83L1435.15 195.929L1407.31 223.879C1405.43 225.763 1402.88 226.822 1400.22 226.822H1257.46C1251.94 226.822 1247.46 222.344 1247.46 216.822L1247.46 102.703C1247.46 100.128 1248.45 97.6519 1250.23 95.7908L1279.83 64.8507Z" fill="#FF833B"/>
</g>
<g filter="url(#filter14_d_185_1124)">
<path d="M1279.43 64.8509L1302.97 40.8264C1304.85 38.907 1307.43 37.8254 1310.12 37.8254L1454.54 37.8255C1460.07 37.8255 1464.54 42.3026 1464.54 47.8255V161.787C1464.54 164.426 1463.5 166.957 1461.64 168.83L1434.75 195.929L1406.91 223.879C1405.04 225.763 1402.49 226.822 1399.83 226.822H1257.06C1251.54 226.822 1247.06 222.345 1247.06 216.822L1247.06 102.703C1247.06 100.128 1248.06 97.6521 1249.84 95.7911L1279.43 64.8509Z" fill="#FF5100"/>
<path d="M1310.12 38.3254H1454.54C1459.79 38.3255 1464.04 42.5788 1464.04 47.8254V161.787C1464.04 164.294 1463.05 166.698 1461.29 168.478L1434.4 195.576L1406.56 223.526C1404.78 225.315 1402.36 226.321 1399.83 226.322H1257.06C1251.82 226.321 1247.56 222.068 1247.56 216.822L1247.56 102.703C1247.56 100.257 1248.51 97.9049 1250.2 96.137L1279.79 65.1965L1279.79 65.1956L1303.33 41.176C1305.12 39.3527 1307.56 38.3255 1310.12 38.3254Z" stroke="white"/>
</g>
<circle cx="1356.2" cy="132.488" r="38.017" stroke="white"/>
<path d="M1395.83 141.187C1395.2 140.84 1394.52 140.62 1393.81 140.538C1393.1 140.456 1392.38 140.515 1391.69 140.711C1391.01 140.908 1390.36 141.237 1389.8 141.681C1389.25 142.126 1388.78 142.676 1388.43 143.3L1378.34 161.47L1372.56 155.691C1372.06 155.172 1371.46 154.758 1370.79 154.473C1370.13 154.188 1369.41 154.038 1368.69 154.031C1367.97 154.025 1367.25 154.163 1366.59 154.436C1365.92 154.71 1365.31 155.113 1364.8 155.624C1364.29 156.135 1363.89 156.742 1363.61 157.41C1363.34 158.079 1363.2 158.795 1363.21 159.517C1363.21 160.239 1363.36 160.953 1363.65 161.616C1363.93 162.28 1364.35 162.88 1364.87 163.381L1375.74 174.258C1376.77 175.289 1378.16 175.854 1379.59 175.854L1380.34 175.8C1381.18 175.683 1381.97 175.375 1382.67 174.899C1383.36 174.423 1383.93 173.792 1384.34 173.056L1397.94 148.583C1398.29 147.959 1398.51 147.273 1398.59 146.563C1398.67 145.854 1398.61 145.135 1398.42 144.448C1398.22 143.761 1397.89 143.12 1397.45 142.56C1397 142.001 1396.45 141.534 1395.83 141.187Z" fill="white"/>
<path d="M1367.08 150.384C1366.45 150.384 1365.89 150.293 1365.4 150.116C1364.91 149.942 1364.44 149.656 1364.01 149.27C1363.58 148.884 1363.16 148.421 1362.79 147.893C1362.4 147.355 1362.02 146.808 1361.65 146.265L1356.56 138.459H1347.93V146.464C1347.93 147.762 1347.63 148.75 1347.04 149.404C1346.44 150.063 1345.7 150.383 1344.76 150.383C1343.79 150.383 1343.04 150.059 1342.46 149.394C1341.88 148.733 1341.58 147.747 1341.58 146.464V138.459H1336.65C1335.36 138.459 1334.31 137.409 1334.31 136.118C1334.31 134.827 1335.36 133.777 1336.65 133.777H1341.58V129.781H1336.65C1335.36 129.781 1334.31 128.731 1334.31 127.441C1334.31 126.15 1335.36 125.1 1336.65 125.1H1341.58V119.265C1341.58 118.138 1341.71 117.252 1341.95 116.633C1342.25 115.917 1342.73 115.364 1343.41 114.922C1344.09 114.479 1344.81 114.263 1345.6 114.263C1346.21 114.263 1346.75 114.363 1347.18 114.562C1347.62 114.765 1348 115.028 1348.33 115.368C1348.67 115.712 1349.02 116.165 1349.37 116.71C1349.73 117.272 1350.1 117.856 1350.5 118.481L1354.87 125.1H1364.53V118.183C1364.53 116.868 1364.81 115.874 1365.36 115.227C1365.92 114.579 1366.65 114.263 1367.6 114.263C1368.59 114.263 1369.34 114.579 1369.91 115.229C1370.47 115.875 1370.75 116.869 1370.75 118.183V125.1H1375.75C1377.04 125.1 1378.09 126.15 1378.09 127.441C1378.09 128.732 1377.04 129.781 1375.75 129.781H1370.75V133.778H1375.75C1377.04 133.778 1378.09 134.828 1378.09 136.119C1378.09 137.41 1377.04 138.459 1375.75 138.459H1370.75V145.911C1370.75 148.921 1369.55 150.384 1367.08 150.384ZM1347.16 136.914H1356.97C1357.24 136.914 1357.48 137.046 1357.62 137.264L1362.93 145.408C1363.29 145.928 1363.67 146.466 1364.04 146.995C1364.36 147.428 1364.69 147.806 1365.04 148.119C1365.33 148.373 1365.62 148.555 1365.92 148.663C1366.25 148.781 1366.63 148.839 1367.08 148.839C1367.98 148.839 1369.21 148.839 1369.21 145.912V137.686C1369.21 137.26 1369.56 136.914 1369.98 136.914H1375.75C1376.19 136.914 1376.54 136.557 1376.54 136.118C1376.54 135.679 1376.19 135.322 1375.75 135.322H1369.98C1369.56 135.322 1369.21 134.976 1369.21 134.549V129.009C1369.21 128.582 1369.56 128.236 1369.98 128.236H1375.75C1376.19 128.236 1376.54 127.88 1376.54 127.441C1376.54 127.002 1376.19 126.645 1375.75 126.645H1369.98C1369.56 126.645 1369.21 126.299 1369.21 125.872V118.183C1369.21 117.024 1368.96 116.489 1368.74 116.243C1368.55 116.028 1368.27 115.808 1367.6 115.808C1367.1 115.808 1366.8 115.931 1366.54 116.234C1366.32 116.481 1366.07 117.018 1366.07 118.183V125.872C1366.07 126.298 1365.73 126.644 1365.3 126.644H1354.45C1354.19 126.644 1353.95 126.514 1353.81 126.298L1349.2 119.32C1348.8 118.687 1348.43 118.105 1348.07 117.547C1347.77 117.088 1347.49 116.718 1347.22 116.447C1347.03 116.246 1346.8 116.09 1346.54 115.967C1346.31 115.863 1345.99 115.808 1345.6 115.808C1345.11 115.808 1344.68 115.939 1344.25 116.218C1343.83 116.491 1343.55 116.808 1343.38 117.215C1343.29 117.441 1343.13 118.04 1343.13 119.265V125.872C1343.13 126.298 1342.78 126.644 1342.36 126.644H1336.65C1336.21 126.645 1335.85 127.002 1335.85 127.441C1335.85 127.88 1336.21 128.236 1336.65 128.236H1342.36C1342.78 128.236 1343.13 128.582 1343.13 129.009V134.55C1343.13 134.976 1342.78 135.323 1342.36 135.323H1336.65C1336.21 135.322 1335.85 135.68 1335.85 136.118C1335.85 136.556 1336.21 136.914 1336.65 136.914H1342.36C1342.78 136.914 1343.13 137.26 1343.13 137.686V146.464C1343.13 147.349 1343.3 148.011 1343.62 148.377C1343.9 148.7 1344.24 148.838 1344.76 148.838C1345.26 148.838 1345.59 148.698 1345.9 148.366C1346.22 148.012 1346.39 147.353 1346.39 146.465V137.686C1346.39 137.26 1346.73 136.914 1347.16 136.914ZM1365.3 143.056C1365.04 143.056 1364.8 142.929 1364.65 142.709L1361.62 138.112C1361.46 137.874 1361.45 137.57 1361.58 137.32C1361.72 137.07 1361.98 136.914 1362.26 136.914H1365.3C1365.73 136.914 1366.07 137.26 1366.07 137.686V142.283C1366.07 142.624 1365.85 142.925 1365.52 143.024C1365.45 143.045 1365.37 143.056 1365.3 143.056ZM1363.7 138.459L1364.53 139.712V138.459H1363.7ZM1365.3 135.322H1360.19C1359.93 135.322 1359.69 135.192 1359.54 134.975L1355.88 129.434C1355.73 129.197 1355.71 128.892 1355.85 128.642C1355.98 128.392 1356.24 128.236 1356.53 128.236H1365.3C1365.73 128.236 1366.07 128.582 1366.07 129.008V134.549C1366.07 134.976 1365.73 135.322 1365.3 135.322ZM1360.6 133.777H1364.53V129.781H1357.96L1360.6 133.777ZM1354.93 135.322H1347.16C1346.73 135.322 1346.39 134.976 1346.39 134.549V129.009C1346.39 128.582 1346.73 128.236 1347.16 128.236H1351.31C1351.57 128.236 1351.82 128.368 1351.96 128.587L1355.58 134.128C1355.73 134.365 1355.74 134.668 1355.61 134.918C1355.47 135.168 1355.21 135.322 1354.93 135.322ZM1347.93 133.777H1353.5L1350.9 129.781H1347.93V133.777ZM1349.27 126.645H1347.16C1346.73 126.645 1346.39 126.299 1346.39 125.873V122.642C1346.39 122.3 1346.61 121.999 1346.94 121.902C1347.27 121.805 1347.62 121.934 1347.81 122.22L1349.91 125.45C1350.07 125.688 1350.08 125.991 1349.95 126.24C1349.81 126.489 1349.55 126.645 1349.27 126.645Z" fill="white"/>
<defs>
<filter id="filter0_f_185_1124" x="17.0001" y="19" width="258.395" height="226.647" filterUnits="userSpaceOnUse" color-interpolation-filters="sRGB">
<feFlood flood-opacity="0" result="BackgroundImageFix"/>
<feBlend mode="normal" in="SourceGraphic" in2="BackgroundImageFix" result="shape"/>
<feGaussianBlur stdDeviation="4" result="effect1_foregroundBlur_185_1124"/>
</filter>
<filter id="filter1_f_185_1124" x="0.556999" y="0.925438" width="291.281" height="262.796" filterUnits="userSpaceOnUse" color-interpolation-filters="sRGB">
<feFlood flood-opacity="0" result="BackgroundImageFix"/>
<feBlend mode="normal" in="SourceGraphic" in2="BackgroundImageFix" result="shape"/>
<feGaussianBlur stdDeviation="18.45" result="effect1_foregroundBlur_185_1124"/>
</filter>
<filter id="filter2_d_185_1124" x="11.7572" y="13.1252" width="274.881" height="246.396" filterUnits="userSpaceOnUse" color-interpolation-filters="sRGB">
<feFlood flood-opacity="0" result="BackgroundImageFix"/>
<feColorMatrix in="SourceAlpha" type="matrix" values="0 0 0 0 0 0 0 0 0 0 0 0 0 0 0 0 0 0 127 0" result="hardAlpha"/>
<feOffset dx="3" dy="4"/>
<feGaussianBlur stdDeviation="14.35"/>
<feComposite in2="hardAlpha" operator="out"/>
<feColorMatrix type="matrix" values="0 0 0 0 1 0 0 0 0 1 0 0 0 0 1 0 0 0 0.25 0"/>
<feBlend mode="normal" in2="BackgroundImageFix" result="effect1_dropShadow_185_1124"/>
<feBlend mode="normal" in="SourceGraphic" in2="effect1_dropShadow_185_1124" result="shape"/>
</filter>
<filter id="filter3_f_185_1124" x="319" y="19" width="258.395" height="226.647" filterUnits="userSpaceOnUse" color-interpolation-filters="sRGB">
<feFlood flood-opacity="0" result="BackgroundImageFix"/>
<feBlend mode="normal" in="SourceGraphic" in2="BackgroundImageFix" result="shape"/>
<feGaussianBlur stdDeviation="4" result="effect1_foregroundBlur_185_1124"/>
</filter>
<filter id="filter4_f_185_1124" x="302.557" y="0.925194" width="291.281" height="262.796" filterUnits="userSpaceOnUse" color-interpolation-filters="sRGB">
<feFlood flood-opacity="0" result="BackgroundImageFix"/>
<feBlend mode="normal" in="SourceGraphic" in2="BackgroundImageFix" result="shape"/>
<feGaussianBlur stdDeviation="18.45" result="effect1_foregroundBlur_185_1124"/>
</filter>
<filter id="filter5_d_185_1124" x="313.757" y="13.1254" width="274.881" height="246.396" filterUnits="userSpaceOnUse" color-interpolation-filters="sRGB">
<feFlood flood-opacity="0" result="BackgroundImageFix"/>
<feColorMatrix in="SourceAlpha" type="matrix" values="0 0 0 0 0 0 0 0 0 0 0 0 0 0 0 0 0 0 127 0" result="hardAlpha"/>
<feOffset dx="3" dy="4"/>
<feGaussianBlur stdDeviation="14.35"/>
<feComposite in2="hardAlpha" operator="out"/>
<feColorMatrix type="matrix" values="0 0 0 0 1 0 0 0 0 1 0 0 0 0 1 0 0 0 0.25 0"/>
<feBlend mode="normal" in2="BackgroundImageFix" result="effect1_dropShadow_185_1124"/>
<feBlend mode="normal" in="SourceGraphic" in2="effect1_dropShadow_185_1124" result="shape"/>
</filter>
<filter id="filter6_f_185_1124" x="609" y="19" width="258.395" height="226.647" filterUnits="userSpaceOnUse" color-interpolation-filters="sRGB">
<feFlood flood-opacity="0" result="BackgroundImageFix"/>
<feBlend mode="normal" in="SourceGraphic" in2="BackgroundImageFix" result="shape"/>
<feGaussianBlur stdDeviation="4" result="effect1_foregroundBlur_185_1124"/>
</filter>
<filter id="filter7_f_185_1124" x="592.557" y="0.925194" width="291.281" height="262.796" filterUnits="userSpaceOnUse" color-interpolation-filters="sRGB">
<feFlood flood-opacity="0" result="BackgroundImageFix"/>
<feBlend mode="normal" in="SourceGraphic" in2="BackgroundImageFix" result="shape"/>
<feGaussianBlur stdDeviation="18.45" result="effect1_foregroundBlur_185_1124"/>
</filter>
<filter id="filter8_d_185_1124" x="603.757" y="13.1254" width="274.881" height="246.396" filterUnits="userSpaceOnUse" color-interpolation-filters="sRGB">
<feFlood flood-opacity="0" result="BackgroundImageFix"/>
<feColorMatrix in="SourceAlpha" type="matrix" values="0 0 0 0 0 0 0 0 0 0 0 0 0 0 0 0 0 0 127 0" result="hardAlpha"/>
<feOffset dx="3" dy="4"/>
<feGaussianBlur stdDeviation="14.35"/>
<feComposite in2="hardAlpha" operator="out"/>
<feColorMatrix type="matrix" values="0 0 0 0 1 0 0 0 0 1 0 0 0 0 1 0 0 0 0.25 0"/>
<feBlend mode="normal" in2="BackgroundImageFix" result="effect1_dropShadow_185_1124"/>
<feBlend mode="normal" in="SourceGraphic" in2="effect1_dropShadow_185_1124" result="shape"/>
</filter>
<filter id="filter9_f_185_1124" x="924" y="19" width="258.395" height="226.647" filterUnits="userSpaceOnUse" color-interpolation-filters="sRGB">
<feFlood flood-opacity="0" result="BackgroundImageFix"/>
<feBlend mode="normal" in="SourceGraphic" in2="BackgroundImageFix" result="shape"/>
<feGaussianBlur stdDeviation="4" result="effect1_foregroundBlur_185_1124"/>
</filter>
<filter id="filter10_f_185_1124" x="907.557" y="0.925194" width="291.281" height="262.796" filterUnits="userSpaceOnUse" color-interpolation-filters="sRGB">
<feFlood flood-opacity="0" result="BackgroundImageFix"/>
<feBlend mode="normal" in="SourceGraphic" in2="BackgroundImageFix" result="shape"/>
<feGaussianBlur stdDeviation="18.45" result="effect1_foregroundBlur_185_1124"/>
</filter>
<filter id="filter11_d_185_1124" x="918.757" y="13.1254" width="274.881" height="246.396" filterUnits="userSpaceOnUse" color-interpolation-filters="sRGB">
<feFlood flood-opacity="0" result="BackgroundImageFix"/>
<feColorMatrix in="SourceAlpha" type="matrix" values="0 0 0 0 0 0 0 0 0 0 0 0 0 0 0 0 0 0 127 0" result="hardAlpha"/>
<feOffset dx="3" dy="4"/>
<feGaussianBlur stdDeviation="14.35"/>
<feComposite in2="hardAlpha" operator="out"/>
<feColorMatrix type="matrix" values="0 0 0 0 1 0 0 0 0 1 0 0 0 0 1 0 0 0 0.25 0"/>
<feBlend mode="normal" in2="BackgroundImageFix" result="effect1_dropShadow_185_1124"/>
<feBlend mode="normal" in="SourceGraphic" in2="effect1_dropShadow_185_1124" result="shape"/>
</filter>
<filter id="filter12_f_185_1124" x="1227" y="19" width="258.395" height="226.647" filterUnits="userSpaceOnUse" color-interpolation-filters="sRGB">
<feFlood flood-opacity="0" result="BackgroundImageFix"/>
<feBlend mode="normal" in="SourceGraphic" in2="BackgroundImageFix" result="shape"/>
<feGaussianBlur stdDeviation="4" result="effect1_foregroundBlur_185_1124"/>
</filter>
<filter id="filter13_f_185_1124" x="1210.56" y="0.925194" width="291.281" height="262.796" filterUnits="userSpaceOnUse" color-interpolation-filters="sRGB">
<feFlood flood-opacity="0" result="BackgroundImageFix"/>
<feBlend mode="normal" in="SourceGraphic" in2="BackgroundImageFix" result="shape"/>
<feGaussianBlur stdDeviation="18.45" result="effect1_foregroundBlur_185_1124"/>
</filter>
<filter id="filter14_d_185_1124" x="1221.36" y="13.1254" width="274.881" height="246.396" filterUnits="userSpaceOnUse" color-interpolation-filters="sRGB">
<feFlood flood-opacity="0" result="BackgroundImageFix"/>
<feColorMatrix in="SourceAlpha" type="matrix" values="0 0 0 0 0 0 0 0 0 0 0 0 0 0 0 0 0 0 127 0" result="hardAlpha"/>
<feOffset dx="3" dy="4"/>
<feGaussianBlur stdDeviation="14.35"/>
<feComposite in2="hardAlpha" operator="out"/>
<feColorMatrix type="matrix" values="0 0 0 0 1 0 0 0 0 1 0 0 0 0 1 0 0 0 0.25 0"/>
<feBlend mode="normal" in2="BackgroundImageFix" result="effect1_dropShadow_185_1124"/>
<feBlend mode="normal" in="SourceGraphic" in2="effect1_dropShadow_185_1124" result="shape"/>
</filter>
</defs>
</svg>
