<svg width="1502" height="264" viewBox="0 0 1502 264" fill="none" xmlns="http://www.w3.org/2000/svg">
<line x1="267" y1="143.5" x2="327" y2="143.5" stroke="white"/>
<line x1="569" y1="143.5" x2="629" y2="143.5" stroke="white"/>
<line x1="872" y1="143.5" x2="932" y2="143.5" stroke="white"/>
<line x1="1175" y1="143.5" x2="1235" y2="143.5" stroke="white"/>
<g filter="url(#filter0_f_211_73)">
<path d="M61.077 57.1214L87.6535 30.0009C89.5344 28.0816 92.1086 27 94.7958 27L257.395 27C262.918 27 267.395 31.4772 267.395 37V165.634C267.395 168.273 266.352 170.804 264.494 172.677L234.194 203.216L202.829 234.704C200.952 236.588 198.403 237.647 195.744 237.647H35.0013C29.4785 237.647 25.0014 233.17 25.0013 227.647L25 98.8506C25 96.2753 25.9935 93.7992 27.7737 91.9382L61.077 57.1214Z" fill="#FF5E01"/>
</g>
<path d="M94.7959 27.5H257.396C262.642 27.5001 266.896 31.7534 266.896 37V165.634C266.896 168.14 265.904 170.546 264.139 172.325L233.839 202.863L202.475 234.352C200.692 236.141 198.27 237.147 195.744 237.147H35.001C29.7545 237.147 25.5011 232.894 25.501 227.647L25.5 98.8506C25.5 96.4042 26.4438 94.0521 28.1348 92.2842L61.4336 57.4707L61.4346 57.4717L88.0107 30.3506C89.7975 28.5273 92.2431 27.5 94.7959 27.5Z" fill="#FF5100" stroke="white"/>
<g filter="url(#filter1_f_211_73)">
<path d="M69.8258 64.8509L93.3684 40.8264C95.2493 38.907 97.8235 37.8254 100.511 37.8254L244.938 37.8255C250.461 37.8255 254.938 42.3026 254.938 47.8255V161.787C254.938 164.426 253.895 166.957 252.037 168.83L225.149 195.929L197.309 223.879C195.433 225.763 192.883 226.822 190.224 226.822H47.4581C41.9352 226.822 37.4581 222.345 37.458 216.822L37.4569 102.703C37.4569 100.128 38.4504 97.6521 40.2305 95.7911L69.8258 64.8509Z" fill="#FF833B"/>
</g>
<g filter="url(#filter2_d_211_73)">
<path d="M69.8259 64.8507L93.3686 40.8261C95.2494 38.9068 97.8236 37.8252 100.511 37.8252L244.938 37.8252C250.461 37.8252 254.938 42.3024 254.938 47.8252V161.787C254.938 164.425 253.895 166.957 252.037 168.83L225.149 195.929L197.309 223.879C195.433 225.763 192.883 226.822 190.224 226.822H47.4582C41.9354 226.822 37.4583 222.344 37.4582 216.822L37.4571 102.703C37.457 100.128 38.4506 97.6519 40.2307 95.7908L69.8259 64.8507Z" fill="#FF5100"/>
<path d="M100.511 38.3252H244.938C250.185 38.3253 254.438 42.5786 254.438 47.8252V161.787C254.438 164.294 253.447 166.698 251.682 168.478L224.795 195.576L196.955 223.525C195.172 225.315 192.751 226.321 190.225 226.321H47.458C42.2114 226.321 37.9581 222.068 37.958 216.821L37.957 102.703C37.957 100.257 38.9008 97.9046 40.5918 96.1367L70.1875 65.1963L70.1865 65.1953L93.7256 41.1758C95.5123 39.3525 97.9579 38.3252 100.511 38.3252Z" stroke="white"/>
</g>
<path d="M107.904 128.392H142.318V93.9785H107.904V128.392ZM116.508 102.582H133.715V119.789H116.508V102.582ZM107.904 171.409H142.318V136.996H107.904V171.409ZM116.508 145.599H133.715V162.806H116.508V145.599ZM150.921 93.9785V128.392H185.335V93.9785H150.921ZM176.732 119.789H159.525V102.582H176.732V119.789ZM150.964 136.996H159.568V145.599H150.964V136.996ZM159.568 145.599H168.171V154.202H159.568V145.599ZM150.964 154.202H159.568V162.806H150.964V154.202ZM168.171 154.202H176.775V162.806H168.171V154.202ZM176.775 162.806H185.378V171.409H176.775V162.806ZM159.568 162.806H168.171V171.409H159.568V162.806ZM168.171 136.996H176.775V145.599H168.171V136.996ZM176.775 145.599H185.378V154.202H176.775V145.599Z" fill="white"/>
<g filter="url(#filter3_f_211_73)">
<path d="M363.077 57.1214L389.654 30.0009C391.534 28.0816 394.109 27 396.796 27L559.395 27C564.918 27 569.395 31.4772 569.395 37V165.634C569.395 168.273 568.353 170.804 566.494 172.677L536.194 203.216L504.829 234.704C502.952 236.588 500.403 237.647 497.744 237.647H337.001C331.479 237.647 327.001 233.17 327.001 227.647L327 98.8506C327 96.2753 327.994 93.7992 329.774 91.9382L363.077 57.1214Z" fill="#FF5E01"/>
</g>
<path d="M396.796 27.5H559.396C564.642 27.5001 568.896 31.7534 568.896 37V165.634C568.896 168.14 567.904 170.546 566.139 172.325L535.839 202.863L504.475 234.352C502.692 236.141 500.27 237.147 497.744 237.147H337.001C331.755 237.147 327.501 232.894 327.501 227.647L327.5 98.8506C327.5 96.4042 328.444 94.0521 330.135 92.2842L363.434 57.4707L363.435 57.4717L390.011 30.3506C391.798 28.5273 394.243 27.5 396.796 27.5Z" fill="#FF5100" stroke="white"/>
<g filter="url(#filter4_f_211_73)">
<path d="M371.826 64.8509L395.369 40.8264C397.25 38.907 399.824 37.8254 402.511 37.8254L546.938 37.8255C552.461 37.8255 556.938 42.3026 556.938 47.8255V161.787C556.938 164.426 555.896 166.957 554.037 168.83L527.149 195.929L499.309 223.879C497.433 225.763 494.883 226.822 492.224 226.822H349.458C343.936 226.822 339.458 222.345 339.458 216.822L339.457 102.703C339.457 100.128 340.451 97.6521 342.231 95.7911L371.826 64.8509Z" fill="#FF833B"/>
</g>
<g filter="url(#filter5_d_211_73)">
<path d="M371.826 64.8509L395.369 40.8264C397.249 38.907 399.824 37.8254 402.511 37.8254L546.938 37.8255C552.461 37.8255 556.938 42.3026 556.938 47.8255V161.787C556.938 164.426 555.895 166.957 554.037 168.83L527.149 195.929L499.309 223.879C497.433 225.763 494.883 226.822 492.224 226.822H349.458C343.935 226.822 339.458 222.345 339.458 216.822L339.457 102.703C339.457 100.128 340.451 97.6521 342.231 95.7911L371.826 64.8509Z" fill="#FF5100"/>
<path d="M402.511 38.3254H546.938C552.185 38.3255 556.438 42.5788 556.438 47.8254V161.787C556.438 164.294 555.447 166.698 553.682 168.478L526.795 195.576L498.955 223.526C497.172 225.315 494.75 226.321 492.225 226.322H349.458C344.211 226.321 339.958 222.068 339.958 216.822L339.957 102.703C339.957 100.257 340.901 97.9049 342.592 96.137L372.187 65.1965L372.186 65.1956L395.726 41.176C397.512 39.3528 399.958 38.3255 402.511 38.3254Z" stroke="white"/>
</g>
<path d="M461.017 94.2148H486.67V115.592H478.119V102.766H461.017V94.2148ZM435.364 94.2148V102.766H418.262V115.592H409.711V94.2148H435.364ZM461.017 171.174V162.623H478.119V149.796H486.67V171.174H461.017ZM435.364 171.174H409.711V149.796H418.262V162.623H435.364V171.174ZM409.711 128.419H486.67V136.97H409.711V128.419Z" fill="white"/>
<g filter="url(#filter6_f_211_73)">
<path d="M665.077 57.1214L691.654 30.0009C693.534 28.0816 696.109 27 698.796 27L861.395 27C866.918 27 871.395 31.4772 871.395 37V165.634C871.395 168.273 870.353 170.804 868.494 172.677L838.194 203.216L806.829 234.704C804.952 236.588 802.403 237.647 799.744 237.647H639.001C633.479 237.647 629.001 233.17 629.001 227.647L629 98.8506C629 96.2753 629.994 93.7992 631.774 91.9382L665.077 57.1214Z" fill="#FF5E01"/>
</g>
<path d="M699.19 27.5H861.79C867.037 27.5001 871.29 31.7534 871.29 37V165.634C871.29 168.14 870.299 170.546 868.533 172.325L838.233 202.863L806.869 234.352C805.087 236.141 802.665 237.147 800.139 237.147H639.396C634.149 237.147 629.896 232.894 629.896 227.647L629.895 98.8506C629.895 96.4042 630.838 94.0521 632.529 92.2842L665.828 57.4707L665.829 57.4717L692.405 30.3506C694.192 28.5273 696.638 27.5 699.19 27.5Z" fill="#FF5100" stroke="white"/>
<g filter="url(#filter7_f_211_73)">
<path d="M673.826 64.8509L697.369 40.8264C699.249 38.907 701.824 37.8254 704.511 37.8254L848.938 37.8255C854.461 37.8255 858.938 42.3026 858.938 47.8255V161.787C858.938 164.426 857.896 166.957 856.037 168.83L829.149 195.929L801.309 223.879C799.433 225.763 796.883 226.822 794.224 226.822H651.458C645.935 226.822 641.458 222.345 641.458 216.822L641.457 102.703C641.457 100.128 642.451 97.6521 644.231 95.7911L673.826 64.8509Z" fill="#FF833B"/>
</g>
<g filter="url(#filter8_d_211_73)">
<path d="M674.22 64.8509L697.763 40.8264C699.644 38.907 702.218 37.8254 704.905 37.8254L849.333 37.8255C854.856 37.8255 859.333 42.3026 859.333 47.8255V161.787C859.333 164.426 858.29 166.957 856.431 168.83L829.544 195.929L801.704 223.879C799.827 225.763 797.278 226.822 794.619 226.822H651.853C646.33 226.822 641.853 222.345 641.853 216.822L641.851 102.703C641.851 100.128 642.845 97.6521 644.625 95.7911L674.22 64.8509Z" fill="#FF5100"/>
<path d="M704.905 38.3254H849.333C854.58 38.3255 858.833 42.5788 858.833 47.8254V161.787C858.833 164.294 857.842 166.698 856.076 168.478L829.189 195.576L801.349 223.526C799.567 225.315 797.145 226.321 794.619 226.322H651.852C646.606 226.321 642.352 222.068 642.352 216.822L642.351 102.703C642.351 100.257 643.295 97.9049 644.986 96.137L674.582 65.1965L674.581 65.1956L698.12 41.176C699.907 39.3528 702.352 38.3255 704.905 38.3254Z" stroke="white"/>
</g>
<path d="M718.309 165.343C716.064 165.343 714.143 164.544 712.546 162.947C710.949 161.35 710.149 159.428 710.146 157.181V108.207C710.146 105.962 710.946 104.042 712.546 102.445C714.146 100.847 716.067 100.048 718.309 100.045H783.607C785.851 100.045 787.774 100.845 789.373 102.445C790.973 104.044 791.772 105.965 791.769 108.207V157.181C791.769 159.425 790.97 161.347 789.373 162.947C787.776 164.547 785.854 165.346 783.607 165.343H718.309ZM728.512 144.937H733.205V120.45H729.532L722.39 125.552L724.839 129.225L728.512 126.572V144.937ZM741.163 144.937H757.079V140.856H747.489L747.285 140.652C748.713 139.292 749.887 138.135 750.807 137.183C751.726 136.231 752.457 135.483 752.998 134.938C754.223 133.714 755.141 132.49 755.753 131.265C756.365 130.041 756.671 128.749 756.671 127.388C756.671 125.416 755.923 123.766 754.427 122.438C752.93 121.11 751.026 120.448 748.713 120.45C746.945 120.45 745.346 120.961 743.918 121.981C742.489 123.001 741.503 124.328 740.959 125.96L745.04 127.592C745.38 126.708 745.874 126.01 746.522 125.499C747.169 124.987 747.9 124.733 748.713 124.736C749.733 124.736 750.567 125.008 751.215 125.552C751.862 126.096 752.185 126.776 752.182 127.592C752.182 128.341 752.046 129.039 751.774 129.686C751.502 130.334 750.89 131.132 749.937 132.082L746.673 135.347L741.163 140.856V144.937ZM771.363 144.937C773.812 144.937 775.785 144.257 777.281 142.897C778.777 141.536 779.526 139.768 779.526 137.591C779.526 136.367 779.185 135.279 778.505 134.326C777.825 133.374 776.873 132.626 775.649 132.082V131.878C776.601 131.333 777.349 130.636 777.893 129.784C778.437 128.932 778.709 127.93 778.709 126.776C778.709 124.94 777.995 123.426 776.567 122.234C775.138 121.042 773.336 120.448 771.159 120.45C769.459 120.45 767.878 120.944 766.417 121.932C764.956 122.92 764.02 124.126 763.609 125.552L767.69 127.184C767.962 126.368 768.405 125.722 769.017 125.246C769.629 124.77 770.343 124.532 771.159 124.532C772.044 124.532 772.775 124.787 773.355 125.299C773.934 125.81 774.223 126.439 774.22 127.184C774.22 128.137 773.88 128.885 773.2 129.429C772.52 129.973 771.635 130.245 770.547 130.245H768.711V134.326H770.751C772.112 134.326 773.166 134.598 773.914 135.143C774.662 135.687 775.036 136.435 775.036 137.387C775.036 138.271 774.662 139.037 773.914 139.685C773.166 140.332 772.316 140.655 771.363 140.652C770.207 140.652 769.323 140.398 768.711 139.889C768.098 139.38 767.554 138.478 767.078 137.183L762.997 138.816C763.473 140.788 764.443 142.302 765.907 143.358C767.371 144.413 769.189 144.94 771.363 144.937ZM718.309 157.181H783.607V108.207H718.309V157.181Z" fill="white"/>
<g filter="url(#filter9_f_211_73)">
<path d="M968.077 57.1214L994.654 30.0009C996.534 28.0816 999.109 27 1001.8 27L1164.4 27C1169.92 27 1174.4 31.4772 1174.4 37V165.634C1174.4 168.273 1173.35 170.804 1171.49 172.677L1141.19 203.216L1109.83 234.704C1107.95 236.588 1105.4 237.647 1102.74 237.647H942.001C936.479 237.647 932.001 233.17 932.001 227.647L932 98.8506C932 96.2753 932.994 93.7992 934.774 91.9382L968.077 57.1214Z" fill="#FF5E01"/>
</g>
<path d="M1001.8 27.5H1164.4C1169.64 27.5001 1173.9 31.7534 1173.9 37V165.634C1173.9 168.14 1172.9 170.546 1171.14 172.325L1140.84 202.863L1109.47 234.352C1107.69 236.141 1105.27 237.147 1102.74 237.147H942.001C936.755 237.147 932.501 232.894 932.501 227.647L932.5 98.8506C932.5 96.4042 933.444 94.0521 935.135 92.2842L968.434 57.4707L968.435 57.4717L995.011 30.3506C996.798 28.5273 999.243 27.5 1001.8 27.5Z" fill="#FF5100" stroke="white"/>
<g filter="url(#filter10_f_211_73)">
<path d="M976.826 64.8509L1000.37 40.8264C1002.25 38.907 1004.82 37.8254 1007.51 37.8254L1151.94 37.8255C1157.46 37.8255 1161.94 42.3026 1161.94 47.8255V161.787C1161.94 164.426 1160.9 166.957 1159.04 168.83L1132.15 195.929L1104.31 223.879C1102.43 225.763 1099.88 226.822 1097.22 226.822H954.458C948.935 226.822 944.458 222.345 944.458 216.822L944.457 102.703C944.457 100.128 945.451 97.6521 947.231 95.7911L976.826 64.8509Z" fill="#FF833B"/>
</g>
<g filter="url(#filter11_d_211_73)">
<path d="M976.826 64.8509L1000.37 40.8264C1002.25 38.907 1004.82 37.8254 1007.51 37.8254L1151.94 37.8255C1157.46 37.8255 1161.94 42.3026 1161.94 47.8255V161.787C1161.94 164.426 1160.9 166.957 1159.04 168.83L1132.15 195.929L1104.31 223.879C1102.43 225.763 1099.88 226.822 1097.22 226.822H954.458C948.935 226.822 944.458 222.345 944.458 216.822L944.457 102.703C944.457 100.128 945.45 97.6521 947.231 95.7911L976.826 64.8509Z" fill="#FF5100"/>
<path d="M1007.51 38.3254H1151.94C1157.18 38.3255 1161.44 42.5788 1161.44 47.8254V161.787C1161.44 164.294 1160.45 166.698 1158.68 168.478L1131.79 195.576L1103.95 223.526C1102.17 225.315 1099.75 226.321 1097.22 226.322H954.458C949.211 226.321 944.958 222.068 944.958 216.822L944.957 102.703C944.957 100.257 945.901 97.9049 947.592 96.137L977.187 65.1965L977.186 65.1956L1000.73 41.176C1002.51 39.3528 1004.96 38.3255 1007.51 38.3254Z" stroke="white"/>
</g>
<circle cx="1053.52" cy="132.517" r="38.017" stroke="white"/>
<path d="M1093.15 141.216C1092.52 140.869 1091.84 140.649 1091.13 140.567C1090.42 140.485 1089.7 140.544 1089.01 140.741C1088.32 140.937 1087.68 141.266 1087.12 141.711C1086.56 142.155 1086.1 142.705 1085.75 143.329L1075.65 161.499L1069.88 155.721C1069.37 155.201 1068.77 154.787 1068.11 154.502C1067.45 154.217 1066.73 154.067 1066.01 154.061C1065.29 154.054 1064.57 154.192 1063.91 154.465C1063.24 154.739 1062.63 155.143 1062.12 155.653C1061.61 156.164 1061.2 156.771 1060.93 157.439C1060.66 158.108 1060.52 158.824 1060.53 159.546C1060.53 160.268 1060.68 160.982 1060.97 161.645C1061.25 162.309 1061.67 162.909 1062.19 163.411L1073.06 174.287C1074.09 175.318 1075.48 175.884 1076.91 175.884L1077.66 175.829C1078.5 175.713 1079.29 175.404 1079.98 174.928C1080.68 174.452 1081.25 173.821 1081.66 173.086L1095.26 148.613C1095.6 147.988 1095.83 147.302 1095.91 146.592C1095.99 145.883 1095.93 145.164 1095.73 144.477C1095.54 143.791 1095.21 143.149 1094.77 142.59C1094.32 142.03 1093.77 141.563 1093.15 141.216Z" fill="white"/>
<path d="M1064.39 150.413C1063.77 150.413 1063.21 150.322 1062.72 150.145C1062.23 149.971 1061.76 149.685 1061.33 149.3C1060.9 148.913 1060.48 148.45 1060.11 147.922C1059.72 147.384 1059.34 146.837 1058.97 146.294L1053.87 138.488H1045.25V146.493C1045.25 147.791 1044.95 148.779 1044.36 149.434C1043.76 150.092 1043.01 150.412 1042.08 150.412C1041.11 150.412 1040.36 150.088 1039.78 149.423C1039.2 148.762 1038.9 147.776 1038.9 146.493V138.488H1033.97C1032.68 138.488 1031.63 137.438 1031.63 136.147C1031.63 134.856 1032.68 133.806 1033.97 133.806H1038.9V129.81H1033.97C1032.68 129.811 1031.63 128.76 1031.63 127.47C1031.63 126.18 1032.68 125.129 1033.97 125.129H1038.9V119.294C1038.9 118.167 1039.03 117.281 1039.27 116.662C1039.57 115.946 1040.04 115.393 1040.73 114.951C1041.41 114.508 1042.13 114.293 1042.92 114.293C1043.53 114.293 1044.06 114.393 1044.5 114.591C1044.94 114.794 1045.32 115.058 1045.65 115.397C1045.99 115.742 1046.33 116.194 1046.69 116.739C1047.05 117.301 1047.42 117.886 1047.81 118.51L1052.19 125.129H1061.85V118.213C1061.85 116.897 1062.13 115.903 1062.68 115.256C1063.24 114.608 1063.97 114.293 1064.92 114.293C1065.91 114.293 1066.66 114.608 1067.23 115.258C1067.79 115.904 1068.07 116.899 1068.07 118.213V125.129H1073.07C1074.36 125.129 1075.41 126.179 1075.41 127.47C1075.41 128.761 1074.36 129.811 1073.07 129.811H1068.07V133.807H1073.07C1074.36 133.807 1075.41 134.857 1075.41 136.148C1075.41 137.439 1074.36 138.488 1073.07 138.488H1068.07V145.941C1068.07 148.95 1066.87 150.413 1064.39 150.413ZM1044.48 136.943H1054.29C1054.55 136.943 1054.8 137.075 1054.94 137.293L1060.25 145.437C1060.61 145.957 1060.99 146.495 1061.36 147.024C1061.67 147.457 1062.01 147.835 1062.36 148.148C1062.64 148.402 1062.94 148.584 1063.24 148.692C1063.57 148.81 1063.95 148.869 1064.4 148.869C1065.3 148.869 1066.53 148.869 1066.53 145.941V137.716C1066.53 137.289 1066.88 136.943 1067.3 136.943H1073.07C1073.51 136.943 1073.86 136.586 1073.86 136.147C1073.86 135.708 1073.51 135.351 1073.07 135.351H1067.3C1066.87 135.351 1066.53 135.005 1066.53 134.579V129.038C1066.53 128.611 1066.87 128.265 1067.3 128.265H1073.07C1073.51 128.265 1073.86 127.909 1073.86 127.47C1073.86 127.031 1073.51 126.674 1073.07 126.674H1067.3C1066.87 126.674 1066.53 126.328 1066.53 125.901V118.213C1066.53 117.054 1066.27 116.518 1066.06 116.272C1065.87 116.057 1065.59 115.837 1064.92 115.837C1064.42 115.837 1064.11 115.961 1063.85 116.263C1063.64 116.51 1063.39 117.047 1063.39 118.212V125.901C1063.39 126.327 1063.05 126.674 1062.62 126.674H1051.77C1051.51 126.674 1051.27 126.543 1051.13 126.327L1046.52 119.35C1046.12 118.716 1045.74 118.134 1045.39 117.576C1045.09 117.117 1044.81 116.747 1044.54 116.476C1044.35 116.275 1044.12 116.119 1043.86 115.996C1043.63 115.893 1043.31 115.837 1042.92 115.837C1042.43 115.837 1042 115.968 1041.57 116.247C1041.15 116.52 1040.87 116.837 1040.7 117.244C1040.61 117.47 1040.45 118.069 1040.45 119.294V125.901C1040.45 126.327 1040.1 126.674 1039.68 126.674H1033.97C1033.53 126.674 1033.17 127.031 1033.17 127.47C1033.17 127.909 1033.53 128.265 1033.97 128.265H1039.68C1040.1 128.265 1040.45 128.611 1040.45 129.038V134.579C1040.45 135.006 1040.1 135.352 1039.68 135.352H1033.97C1033.53 135.351 1033.17 135.709 1033.17 136.147C1033.17 136.585 1033.53 136.943 1033.97 136.943H1039.68C1040.1 136.943 1040.45 137.289 1040.45 137.716V146.493C1040.45 147.378 1040.62 148.04 1040.94 148.406C1041.22 148.729 1041.56 148.867 1042.08 148.867C1042.57 148.867 1042.91 148.727 1043.21 148.395C1043.54 148.041 1043.71 147.382 1043.71 146.494V137.716C1043.71 137.289 1044.05 136.943 1044.48 136.943ZM1062.62 143.085C1062.36 143.085 1062.12 142.959 1061.97 142.738L1058.94 138.141C1058.78 137.904 1058.77 137.599 1058.9 137.349C1059.04 137.099 1059.3 136.943 1059.58 136.943H1062.62C1063.04 136.943 1063.39 137.289 1063.39 137.716V142.313C1063.39 142.654 1063.17 142.954 1062.84 143.053C1062.77 143.074 1062.69 143.085 1062.62 143.085ZM1061.02 138.488L1061.85 139.741V138.488H1061.02ZM1062.62 135.351H1057.51C1057.25 135.351 1057.01 135.221 1056.86 135.005L1053.2 129.463C1053.04 129.226 1053.03 128.921 1053.17 128.671C1053.3 128.421 1053.56 128.265 1053.85 128.265H1062.62C1063.04 128.265 1063.39 128.611 1063.39 129.037V134.579C1063.39 135.006 1063.04 135.351 1062.62 135.351ZM1057.92 133.806H1061.85V129.81H1055.28L1057.92 133.806ZM1052.25 135.351H1044.48C1044.05 135.351 1043.71 135.005 1043.71 134.579V129.038C1043.71 128.611 1044.05 128.265 1044.48 128.265H1048.63C1048.89 128.265 1049.14 128.397 1049.28 128.616L1052.89 134.157C1053.05 134.395 1053.06 134.698 1052.93 134.947C1052.79 135.197 1052.53 135.351 1052.25 135.351ZM1045.25 133.806H1050.82L1048.21 129.81H1045.25V133.806ZM1046.59 126.675H1044.48C1044.05 126.675 1043.71 126.328 1043.71 125.902V122.672C1043.71 122.33 1043.93 122.028 1044.26 121.931C1044.59 121.834 1044.94 121.963 1045.13 122.249L1047.23 125.479C1047.39 125.717 1047.4 126.02 1047.27 126.27C1047.13 126.518 1046.87 126.675 1046.59 126.675Z" fill="white"/>
<g filter="url(#filter12_f_211_73)">
<path d="M1271.08 57.1214L1297.65 30.0009C1299.53 28.0816 1302.11 27 1304.8 27L1467.4 27C1472.92 27 1477.4 31.4772 1477.4 37V165.634C1477.4 168.273 1476.35 170.804 1474.49 172.677L1444.19 203.216L1412.83 234.704C1410.95 236.588 1408.4 237.647 1405.74 237.647H1245C1239.48 237.647 1235 233.17 1235 227.647L1235 98.8506C1235 96.2753 1235.99 93.7992 1237.77 91.9382L1271.08 57.1214Z" fill="#FF5E01"/>
</g>
<path d="M1304.4 27.5H1467C1472.25 27.5001 1476.5 31.7534 1476.5 37V165.634C1476.5 168.14 1475.51 170.546 1473.74 172.325L1443.44 202.863L1412.08 234.352C1410.3 236.141 1407.88 237.147 1405.35 237.147H1244.61C1239.36 237.147 1235.11 232.894 1235.11 227.647L1235.11 98.8506C1235.11 96.4042 1236.05 94.0521 1237.74 92.2842L1271.04 57.4707L1271.04 57.4717L1297.62 30.3506C1299.4 28.5273 1301.85 27.5 1304.4 27.5Z" fill="#FF5100" stroke="white"/>
<g filter="url(#filter13_f_211_73)">
<path d="M1279.83 64.8509L1303.37 40.8264C1305.25 38.907 1307.82 37.8254 1310.51 37.8254L1454.94 37.8255C1460.46 37.8255 1464.94 42.3026 1464.94 47.8255V161.787C1464.94 164.426 1463.9 166.957 1462.04 168.83L1435.15 195.929L1407.31 223.879C1405.43 225.763 1402.88 226.822 1400.22 226.822H1257.46C1251.94 226.822 1247.46 222.345 1247.46 216.822L1247.46 102.703C1247.46 100.128 1248.45 97.6521 1250.23 95.7911L1279.83 64.8509Z" fill="#FF833B"/>
</g>
<g filter="url(#filter14_d_211_73)">
<path d="M1279.43 64.8509L1302.97 40.8264C1304.85 38.907 1307.43 37.8254 1310.12 37.8254L1454.54 37.8255C1460.07 37.8255 1464.54 42.3026 1464.54 47.8255V161.787C1464.54 164.426 1463.5 166.957 1461.64 168.83L1434.75 195.929L1406.91 223.879C1405.04 225.763 1402.49 226.822 1399.83 226.822H1257.06C1251.54 226.822 1247.06 222.345 1247.06 216.822L1247.06 102.703C1247.06 100.128 1248.06 97.6521 1249.84 95.7911L1279.43 64.8509Z" fill="#FF5100"/>
<path d="M1310.12 38.3254H1454.54C1459.79 38.3255 1464.04 42.5788 1464.04 47.8254V161.787C1464.04 164.294 1463.05 166.698 1461.29 168.478L1434.4 195.576L1406.56 223.526C1404.78 225.315 1402.36 226.321 1399.83 226.322H1257.06C1251.82 226.321 1247.56 222.068 1247.56 216.822L1247.56 102.703C1247.56 100.257 1248.51 97.9049 1250.2 96.137L1279.79 65.1965L1279.79 65.1956L1303.33 41.176C1305.12 39.3528 1307.56 38.3255 1310.12 38.3254Z" stroke="white"/>
</g>
<circle cx="1355.52" cy="132.517" r="38.017" stroke="white"/>
<path d="M1368.22 117.333C1367.59 116.986 1366.9 116.765 1366.19 116.684C1365.48 116.602 1364.77 116.661 1364.08 116.857C1363.39 117.053 1362.75 117.383 1362.19 117.827C1361.63 118.271 1361.17 118.821 1360.82 119.446L1350.72 137.615L1344.94 131.837C1344.44 131.318 1343.84 130.903 1343.18 130.618C1342.52 130.333 1341.8 130.183 1341.08 130.177C1340.36 130.171 1339.64 130.308 1338.97 130.582C1338.3 130.855 1337.7 131.259 1337.19 131.77C1336.68 132.28 1336.27 132.888 1336 133.556C1335.73 134.224 1335.59 134.94 1335.59 135.662C1335.6 136.385 1335.75 137.098 1336.04 137.762C1336.32 138.425 1336.73 139.025 1337.25 139.527L1348.13 150.404C1349.16 151.434 1350.55 152 1351.98 152L1352.73 151.946C1353.56 151.829 1354.36 151.521 1355.05 151.044C1355.75 150.568 1356.32 149.938 1356.73 149.202L1370.33 124.729C1370.67 124.105 1370.89 123.418 1370.97 122.709C1371.06 121.999 1371 121.281 1370.8 120.594C1370.61 119.907 1370.28 119.266 1369.83 118.706C1369.39 118.147 1368.84 117.68 1368.22 117.333Z" fill="white"/>
<defs>
<filter id="filter0_f_211_73" x="17" y="19" width="258.395" height="226.647" filterUnits="userSpaceOnUse" color-interpolation-filters="sRGB">
<feFlood flood-opacity="0" result="BackgroundImageFix"/>
<feBlend mode="normal" in="SourceGraphic" in2="BackgroundImageFix" result="shape"/>
<feGaussianBlur stdDeviation="4" result="effect1_foregroundBlur_211_73"/>
</filter>
<filter id="filter1_f_211_73" x="0.556905" y="0.925447" width="291.281" height="262.796" filterUnits="userSpaceOnUse" color-interpolation-filters="sRGB">
<feFlood flood-opacity="0" result="BackgroundImageFix"/>
<feBlend mode="normal" in="SourceGraphic" in2="BackgroundImageFix" result="shape"/>
<feGaussianBlur stdDeviation="18.45" result="effect1_foregroundBlur_211_73"/>
</filter>
<filter id="filter2_d_211_73" x="11.7571" y="13.1252" width="274.881" height="246.396" filterUnits="userSpaceOnUse" color-interpolation-filters="sRGB">
<feFlood flood-opacity="0" result="BackgroundImageFix"/>
<feColorMatrix in="SourceAlpha" type="matrix" values="0 0 0 0 0 0 0 0 0 0 0 0 0 0 0 0 0 0 127 0" result="hardAlpha"/>
<feOffset dx="3" dy="4"/>
<feGaussianBlur stdDeviation="14.35"/>
<feComposite in2="hardAlpha" operator="out"/>
<feColorMatrix type="matrix" values="0 0 0 0 1 0 0 0 0 1 0 0 0 0 1 0 0 0 0.25 0"/>
<feBlend mode="normal" in2="BackgroundImageFix" result="effect1_dropShadow_211_73"/>
<feBlend mode="normal" in="SourceGraphic" in2="effect1_dropShadow_211_73" result="shape"/>
</filter>
<filter id="filter3_f_211_73" x="319" y="19" width="258.395" height="226.647" filterUnits="userSpaceOnUse" color-interpolation-filters="sRGB">
<feFlood flood-opacity="0" result="BackgroundImageFix"/>
<feBlend mode="normal" in="SourceGraphic" in2="BackgroundImageFix" result="shape"/>
<feGaussianBlur stdDeviation="4" result="effect1_foregroundBlur_211_73"/>
</filter>
<filter id="filter4_f_211_73" x="302.557" y="0.925438" width="291.281" height="262.796" filterUnits="userSpaceOnUse" color-interpolation-filters="sRGB">
<feFlood flood-opacity="0" result="BackgroundImageFix"/>
<feBlend mode="normal" in="SourceGraphic" in2="BackgroundImageFix" result="shape"/>
<feGaussianBlur stdDeviation="18.45" result="effect1_foregroundBlur_211_73"/>
</filter>
<filter id="filter5_d_211_73" x="313.757" y="13.1254" width="274.881" height="246.396" filterUnits="userSpaceOnUse" color-interpolation-filters="sRGB">
<feFlood flood-opacity="0" result="BackgroundImageFix"/>
<feColorMatrix in="SourceAlpha" type="matrix" values="0 0 0 0 0 0 0 0 0 0 0 0 0 0 0 0 0 0 127 0" result="hardAlpha"/>
<feOffset dx="3" dy="4"/>
<feGaussianBlur stdDeviation="14.35"/>
<feComposite in2="hardAlpha" operator="out"/>
<feColorMatrix type="matrix" values="0 0 0 0 1 0 0 0 0 1 0 0 0 0 1 0 0 0 0.25 0"/>
<feBlend mode="normal" in2="BackgroundImageFix" result="effect1_dropShadow_211_73"/>
<feBlend mode="normal" in="SourceGraphic" in2="effect1_dropShadow_211_73" result="shape"/>
</filter>
<filter id="filter6_f_211_73" x="621" y="19" width="258.395" height="226.647" filterUnits="userSpaceOnUse" color-interpolation-filters="sRGB">
<feFlood flood-opacity="0" result="BackgroundImageFix"/>
<feBlend mode="normal" in="SourceGraphic" in2="BackgroundImageFix" result="shape"/>
<feGaussianBlur stdDeviation="4" result="effect1_foregroundBlur_211_73"/>
</filter>
<filter id="filter7_f_211_73" x="604.557" y="0.925438" width="291.281" height="262.796" filterUnits="userSpaceOnUse" color-interpolation-filters="sRGB">
<feFlood flood-opacity="0" result="BackgroundImageFix"/>
<feBlend mode="normal" in="SourceGraphic" in2="BackgroundImageFix" result="shape"/>
<feGaussianBlur stdDeviation="18.45" result="effect1_foregroundBlur_211_73"/>
</filter>
<filter id="filter8_d_211_73" x="616.152" y="13.1254" width="274.881" height="246.396" filterUnits="userSpaceOnUse" color-interpolation-filters="sRGB">
<feFlood flood-opacity="0" result="BackgroundImageFix"/>
<feColorMatrix in="SourceAlpha" type="matrix" values="0 0 0 0 0 0 0 0 0 0 0 0 0 0 0 0 0 0 127 0" result="hardAlpha"/>
<feOffset dx="3" dy="4"/>
<feGaussianBlur stdDeviation="14.35"/>
<feComposite in2="hardAlpha" operator="out"/>
<feColorMatrix type="matrix" values="0 0 0 0 1 0 0 0 0 1 0 0 0 0 1 0 0 0 0.25 0"/>
<feBlend mode="normal" in2="BackgroundImageFix" result="effect1_dropShadow_211_73"/>
<feBlend mode="normal" in="SourceGraphic" in2="effect1_dropShadow_211_73" result="shape"/>
</filter>
<filter id="filter9_f_211_73" x="924" y="19" width="258.395" height="226.647" filterUnits="userSpaceOnUse" color-interpolation-filters="sRGB">
<feFlood flood-opacity="0" result="BackgroundImageFix"/>
<feBlend mode="normal" in="SourceGraphic" in2="BackgroundImageFix" result="shape"/>
<feGaussianBlur stdDeviation="4" result="effect1_foregroundBlur_211_73"/>
</filter>
<filter id="filter10_f_211_73" x="907.557" y="0.925438" width="291.281" height="262.796" filterUnits="userSpaceOnUse" color-interpolation-filters="sRGB">
<feFlood flood-opacity="0" result="BackgroundImageFix"/>
<feBlend mode="normal" in="SourceGraphic" in2="BackgroundImageFix" result="shape"/>
<feGaussianBlur stdDeviation="18.45" result="effect1_foregroundBlur_211_73"/>
</filter>
<filter id="filter11_d_211_73" x="918.757" y="13.1254" width="274.881" height="246.396" filterUnits="userSpaceOnUse" color-interpolation-filters="sRGB">
<feFlood flood-opacity="0" result="BackgroundImageFix"/>
<feColorMatrix in="SourceAlpha" type="matrix" values="0 0 0 0 0 0 0 0 0 0 0 0 0 0 0 0 0 0 127 0" result="hardAlpha"/>
<feOffset dx="3" dy="4"/>
<feGaussianBlur stdDeviation="14.35"/>
<feComposite in2="hardAlpha" operator="out"/>
<feColorMatrix type="matrix" values="0 0 0 0 1 0 0 0 0 1 0 0 0 0 1 0 0 0 0.25 0"/>
<feBlend mode="normal" in2="BackgroundImageFix" result="effect1_dropShadow_211_73"/>
<feBlend mode="normal" in="SourceGraphic" in2="effect1_dropShadow_211_73" result="shape"/>
</filter>
<filter id="filter12_f_211_73" x="1227" y="19" width="258.395" height="226.647" filterUnits="userSpaceOnUse" color-interpolation-filters="sRGB">
<feFlood flood-opacity="0" result="BackgroundImageFix"/>
<feBlend mode="normal" in="SourceGraphic" in2="BackgroundImageFix" result="shape"/>
<feGaussianBlur stdDeviation="4" result="effect1_foregroundBlur_211_73"/>
</filter>
<filter id="filter13_f_211_73" x="1210.56" y="0.925438" width="291.281" height="262.796" filterUnits="userSpaceOnUse" color-interpolation-filters="sRGB">
<feFlood flood-opacity="0" result="BackgroundImageFix"/>
<feBlend mode="normal" in="SourceGraphic" in2="BackgroundImageFix" result="shape"/>
<feGaussianBlur stdDeviation="18.45" result="effect1_foregroundBlur_211_73"/>
</filter>
<filter id="filter14_d_211_73" x="1221.36" y="13.1254" width="274.881" height="246.396" filterUnits="userSpaceOnUse" color-interpolation-filters="sRGB">
<feFlood flood-opacity="0" result="BackgroundImageFix"/>
<feColorMatrix in="SourceAlpha" type="matrix" values="0 0 0 0 0 0 0 0 0 0 0 0 0 0 0 0 0 0 127 0" result="hardAlpha"/>
<feOffset dx="3" dy="4"/>
<feGaussianBlur stdDeviation="14.35"/>
<feComposite in2="hardAlpha" operator="out"/>
<feColorMatrix type="matrix" values="0 0 0 0 1 0 0 0 0 1 0 0 0 0 1 0 0 0 0.25 0"/>
<feBlend mode="normal" in2="BackgroundImageFix" result="effect1_dropShadow_211_73"/>
<feBlend mode="normal" in="SourceGraphic" in2="effect1_dropShadow_211_73" result="shape"/>
</filter>
</defs>
</svg>
