<svg width="1489" height="1430" viewBox="0 0 1489 1430" fill="none" xmlns="http://www.w3.org/2000/svg">
<g filter="url(#filter0_f_190_203)">
<path d="M575.464 148.309L602.041 121.188C603.922 119.269 606.496 118.188 609.183 118.188L771.783 118.188C777.305 118.188 781.783 122.665 781.783 128.188V256.822C781.783 259.46 780.74 261.992 778.881 263.865L748.581 294.403L717.216 325.892C715.339 327.776 712.79 328.835 710.131 328.835H549.389C543.866 328.835 539.389 324.358 539.389 318.835L539.387 190.038C539.387 187.463 540.381 184.987 542.161 183.126L575.464 148.309Z" fill="#FF5E01"/>
</g>
<path d="M609.183 118.688H771.783C777.029 118.688 781.283 122.941 781.283 128.188V256.821C781.283 259.328 780.291 261.733 778.526 263.513L748.226 294.051L716.862 325.539C715.079 327.329 712.657 328.335 710.131 328.335H549.388C544.142 328.335 539.888 324.081 539.888 318.835L539.887 190.038C539.887 187.592 540.831 185.24 542.522 183.472L575.821 148.658L575.822 148.659L602.398 121.538C604.185 119.715 606.63 118.687 609.183 118.688Z" fill="#FF5100" stroke="white"/>
<g filter="url(#filter1_f_190_203)">
<path d="M584.213 156.038L607.756 132.014C609.637 130.095 612.211 129.013 614.898 129.013L759.325 129.013C764.848 129.013 769.325 133.49 769.325 139.013V252.975C769.325 255.613 768.283 258.145 766.424 260.018L739.536 287.117L711.696 315.066C709.82 316.95 707.27 318.009 704.611 318.009H561.845C556.323 318.009 551.845 313.532 551.845 308.009L551.844 193.891C551.844 191.316 552.838 188.84 554.618 186.979L584.213 156.038Z" fill="#FF833B"/>
</g>
<g filter="url(#filter2_d_190_203)">
<path d="M584.213 156.038L607.756 132.014C609.637 130.095 612.211 129.013 614.898 129.013L759.326 129.013C764.848 129.013 769.326 133.49 769.326 139.013V252.975C769.326 255.613 768.283 258.145 766.424 260.018L739.537 287.117L711.697 315.066C709.82 316.95 707.271 318.009 704.612 318.009H561.845C556.323 318.009 551.846 313.532 551.845 308.009L551.844 193.891C551.844 191.316 552.838 188.84 554.618 186.979L584.213 156.038Z" fill="#FF5100"/>
<path d="M614.898 129.513H759.326C764.572 129.513 768.826 133.766 768.826 139.013V252.975C768.826 255.481 767.834 257.886 766.069 259.665L739.182 286.764L711.342 314.713C709.56 316.503 707.138 317.509 704.612 317.509H561.845C556.599 317.509 552.345 313.256 552.345 308.009L552.344 193.891C552.344 191.444 553.288 189.092 554.979 187.324L584.575 156.384L584.574 156.383L608.113 132.364C609.9 130.54 612.345 129.513 614.898 129.513Z" stroke="white"/>
</g>
<path d="M90.4914 0.328125H79.8794L97.8794 27.7891H108.491L90.4914 0.328125Z" fill="white"/>
<path d="M76.1867 0.328125H65.5747L83.5747 27.7891H94.1867L76.1867 0.328125Z" fill="white"/>
<path d="M61.8781 0.328125H51.2661L69.2661 27.7891H79.8781L61.8781 0.328125Z" fill="white"/>
<path d="M47.5735 0.328125H36.9614L54.9614 27.7891H65.5735L47.5735 0.328125Z" fill="white"/>
<path d="M102.241 26.8032H453.094L569.3 142.451" stroke="white" stroke-width="2" stroke-linecap="round"/>
<path d="M1190 65.5381H1200.61L1182.61 92.9991H1172L1190 65.5381Z" fill="white"/>
<path d="M1204.3 65.5381H1214.92L1196.92 92.9991H1186.3L1204.3 65.5381Z" fill="white"/>
<path d="M1218.61 65.5381H1229.22L1211.22 92.9991H1200.61L1218.61 65.5381Z" fill="white"/>
<path d="M1232.92 65.5381H1243.53L1225.53 92.9991H1214.92L1232.92 65.5381Z" fill="white"/>
<path d="M793.128 207.175L904.794 93.2144C905.546 92.4466 906.576 92.0139 907.651 92.0139H1178.8" stroke="white" stroke-width="2" stroke-linecap="round"/>
<path d="M54.409 301.38H43.7969L61.7969 328.841H72.409L54.409 301.38Z" fill="white"/>
<path d="M40.1043 301.38H29.4923L47.4923 328.841H58.1043L40.1043 301.38Z" fill="white"/>
<path d="M25.7957 301.38H15.1837L33.1837 328.841H43.7957L25.7957 301.38Z" fill="white"/>
<path d="M11.4871 301.38H0.875069L18.8751 328.841H29.4871L11.4871 301.38Z" fill="white"/>
<path d="M66.2402 327.803H380.345L529.591 268.063" stroke="white" stroke-width="2" stroke-linecap="round"/>
<g filter="url(#filter3_f_190_203)">
<path d="M744.901 489.309L771.477 462.188C773.358 460.269 775.932 459.188 778.62 459.188L941.219 459.188C946.742 459.188 951.219 463.665 951.219 469.188V597.822C951.219 600.46 950.176 602.992 948.318 604.865L918.017 635.403L886.652 666.892C884.776 668.776 882.226 669.835 879.567 669.835H718.825C713.302 669.835 708.825 665.358 708.825 659.835L708.824 531.038C708.824 528.463 709.817 525.987 711.597 524.126L744.901 489.309Z" fill="#FF5E01"/>
</g>
<path d="M778.62 459.688H941.219C946.466 459.688 950.719 463.941 950.719 469.188V597.821C950.719 600.328 949.728 602.733 947.962 604.513L917.663 635.051L886.298 666.539C884.516 668.329 882.094 669.335 879.568 669.335H718.825C713.578 669.335 709.325 665.081 709.325 659.835L709.324 531.038C709.324 528.592 710.268 526.24 711.958 524.472L745.257 489.658L745.258 489.659L771.834 462.538C773.621 460.715 776.067 459.687 778.62 459.688Z" fill="#FF5100" stroke="white"/>
<g filter="url(#filter4_f_190_203)">
<path d="M753.649 497.038L777.192 473.014C779.073 471.095 781.647 470.013 784.334 470.013L928.762 470.013C934.285 470.013 938.762 474.49 938.762 480.013V593.975C938.762 596.613 937.719 599.145 935.861 601.018L908.973 628.117L881.133 656.066C879.256 657.95 876.707 659.009 874.048 659.009H731.282C725.759 659.009 721.282 654.532 721.282 649.009L721.281 534.891C721.281 532.316 722.274 529.84 724.054 527.979L753.649 497.038Z" fill="#FF833B"/>
</g>
<g filter="url(#filter5_d_190_203)">
<path d="M753.65 497.038L777.192 473.014C779.073 471.095 781.647 470.013 784.335 470.013L928.762 470.013C934.285 470.013 938.762 474.49 938.762 480.013V593.975C938.762 596.613 937.719 599.145 935.861 601.018L908.973 628.117L881.133 656.066C879.256 657.95 876.707 659.009 874.048 659.009H731.282C725.759 659.009 721.282 654.532 721.282 649.009L721.281 534.891C721.281 532.316 722.274 529.84 724.054 527.979L753.65 497.038Z" fill="#FF5100"/>
<path d="M784.334 470.513H928.762C934.009 470.513 938.262 474.766 938.262 480.013V593.975C938.262 596.481 937.271 598.886 935.505 600.665L908.619 627.764L880.779 655.713C878.996 657.503 876.574 658.509 874.048 658.509H731.282C726.035 658.509 721.782 654.256 721.782 649.009L721.781 534.891C721.781 532.444 722.725 530.092 724.415 528.324L754.011 497.384L754.01 497.383L777.549 473.364C779.336 471.54 781.782 470.513 784.334 470.513Z" stroke="white"/>
</g>
<path d="M104.797 434.299H94.1848L112.185 461.76H122.797L104.797 434.299Z" fill="white"/>
<path d="M90.4921 434.299H79.8801L97.8801 461.76H108.492L90.4921 434.299Z" fill="white"/>
<path d="M76.1835 434.299H65.5715L83.5715 461.76H94.1835L76.1835 434.299Z" fill="white"/>
<path d="M61.8788 434.299H51.2668L69.2668 461.76H79.8788L61.8788 434.299Z" fill="white"/>
<path d="M116.241 460.778H467.095L693.637 565.484" stroke="white" stroke-width="2" stroke-linecap="round"/>
<path d="M1326.05 608.866H1336.67L1318.67 636.327H1308.05L1326.05 608.866Z" fill="white"/>
<path d="M1340.36 608.866H1350.97L1332.97 636.327H1322.36L1340.36 608.866Z" fill="white"/>
<path d="M1354.67 608.866H1365.28L1347.28 636.327H1336.67L1354.67 608.866Z" fill="white"/>
<path d="M1368.97 608.866H1379.58L1361.58 636.327H1350.97L1368.97 608.866Z" fill="white"/>
<path d="M970.606 570.306L1069.95 635.33H1314.99" stroke="white" stroke-width="2" stroke-linecap="round"/>
<path d="M1401.04 369.379H1411.66L1393.66 396.84H1383.04L1401.04 369.379Z" fill="white"/>
<path d="M1415.35 369.379H1425.96L1407.96 396.84H1397.35L1415.35 369.379Z" fill="white"/>
<path d="M1429.66 369.379H1440.27L1422.27 396.84H1411.66L1429.66 369.379Z" fill="white"/>
<path d="M1443.97 369.379H1454.58L1436.58 396.84H1425.97L1443.97 369.379Z" fill="white"/>
<path d="M978.172 511.016L1089.84 397.055C1090.59 396.287 1091.62 395.855 1092.7 395.855H1389.85" stroke="white" stroke-width="2" stroke-linecap="round"/>
<path d="M219.567 642.374H208.955L226.955 669.835H237.567L219.567 642.374Z" fill="white"/>
<path d="M205.262 642.374H194.65L212.65 669.835H223.262L205.262 642.374Z" fill="white"/>
<path d="M190.953 642.374H180.341L198.341 669.835H208.953L190.953 642.374Z" fill="white"/>
<path d="M176.645 642.374H166.033L184.033 669.835H194.645L176.645 642.374Z" fill="white"/>
<path d="M231.243 668.839L465.654 668.839L694.287 608.255" stroke="white" stroke-width="2" stroke-linecap="round"/>
<g filter="url(#filter6_f_190_203)">
<path d="M576.869 829.961L603.446 802.841C605.327 800.921 607.901 799.84 610.588 799.84L773.188 799.84C778.711 799.84 783.188 804.317 783.188 809.84V938.474C783.188 941.113 782.145 943.644 780.286 945.517L749.986 976.056L718.621 1007.54C716.745 1009.43 714.195 1010.49 711.536 1010.49H550.794C545.271 1010.49 540.794 1006.01 540.794 1000.49L540.792 871.69C540.792 869.115 541.786 866.639 543.566 864.778L576.869 829.961Z" fill="#FF5E01"/>
</g>
<path d="M610.588 800.34H773.188C778.435 800.34 782.688 804.593 782.688 809.84V938.474C782.688 940.98 781.697 943.386 779.931 945.165L749.631 975.703L718.267 1007.19C716.484 1008.98 714.062 1009.99 711.537 1009.99H550.793C545.547 1009.99 541.294 1005.73 541.293 1000.49L541.292 871.69C541.292 869.244 542.236 866.892 543.927 865.124L577.226 830.311L577.227 830.312L603.803 803.19C605.59 801.367 608.035 800.34 610.588 800.34Z" fill="#FF5100" stroke="white"/>
<g filter="url(#filter7_f_190_203)">
<path d="M585.618 837.691L609.161 813.666C611.042 811.747 613.616 810.666 616.303 810.666L760.731 810.666C766.253 810.666 770.731 815.143 770.731 820.666V934.627C770.731 937.266 769.688 939.797 767.829 941.67L740.942 968.769L713.102 996.719C711.225 998.603 708.676 999.662 706.017 999.662H563.25C557.728 999.662 553.251 995.185 553.25 989.662L553.249 875.544C553.249 872.968 554.243 870.492 556.023 868.631L585.618 837.691Z" fill="#FF833B"/>
</g>
<g filter="url(#filter8_d_190_203)">
<path d="M585.618 837.691L609.161 813.666C611.042 811.747 613.616 810.665 616.303 810.665L760.731 810.665C766.254 810.665 770.731 815.142 770.731 820.665V934.627C770.731 937.265 769.688 939.797 767.829 941.67L740.942 968.769L713.102 996.719C711.225 998.602 708.676 999.661 706.017 999.661H563.251C557.728 999.661 553.251 995.184 553.251 989.661L553.249 875.543C553.249 872.968 554.243 870.492 556.023 868.631L585.618 837.691Z" fill="#FF5100"/>
<path d="M616.303 811.165H760.731C765.978 811.165 770.231 815.418 770.231 820.665V934.627C770.231 937.134 769.24 939.538 767.474 941.317L740.587 968.416L712.747 996.365C710.965 998.155 708.543 999.161 706.017 999.161H563.25C558.004 999.161 553.75 994.908 553.75 989.661L553.749 875.543C553.749 873.097 554.693 870.744 556.384 868.977L585.98 838.036L585.979 838.035L609.518 814.016C611.305 812.192 613.75 811.165 616.303 811.165Z" stroke="white"/>
</g>
<path d="M85.4022 822.527H74.7901L92.7901 849.988H103.402L85.4022 822.527Z" fill="white"/>
<path d="M71.0975 822.527H60.4855L78.4854 849.988H89.0975L71.0975 822.527Z" fill="white"/>
<path d="M56.7889 822.527H46.1769L64.1769 849.988H74.7889L56.7889 822.527Z" fill="white"/>
<path d="M42.4842 822.527H31.8722L49.8722 849.988H60.4842L42.4842 822.527Z" fill="white"/>
<path d="M97.2415 848.988L441.79 848.988L530.428 914.337" stroke="white" stroke-width="2" stroke-linecap="round"/>
<path d="M1278.75 993.277H1289.36L1271.36 1020.74H1260.75L1278.75 993.277Z" fill="white"/>
<path d="M1293.05 993.277H1303.66L1285.66 1020.74H1275.05L1293.05 993.277Z" fill="white"/>
<path d="M1307.36 993.277H1317.97L1299.97 1020.74H1289.36L1307.36 993.277Z" fill="white"/>
<path d="M1321.66 993.277H1332.28L1314.28 1020.74H1303.66L1321.66 993.277Z" fill="white"/>
<path d="M781.604 969.791L1022.96 1019.75H1266.43" stroke="white" stroke-width="2" stroke-linecap="round"/>
<path d="M1398.75 863.277H1409.36L1391.36 890.738H1380.75L1398.75 863.277Z" fill="white"/>
<path d="M1413.05 863.277H1423.66L1405.66 890.738H1395.05L1413.05 863.277Z" fill="white"/>
<path d="M1427.36 863.277H1437.97L1419.97 890.738H1409.36L1427.36 863.277Z" fill="white"/>
<path d="M1441.66 863.277H1452.28L1434.28 890.738H1423.66L1441.66 863.277Z" fill="white"/>
<path d="M808.535 928.887L1092.95 889.749L1386.43 889.749" stroke="white" stroke-width="2" stroke-linecap="round"/>
<path d="M1189.42 757.527H1200.03L1182.03 784.988H1171.42L1189.42 757.527Z" fill="white"/>
<path d="M1203.72 757.527H1214.33L1196.33 784.988H1185.72L1203.72 757.527Z" fill="white"/>
<path d="M1218.03 757.527H1228.64L1210.64 784.988H1200.03L1218.03 757.527Z" fill="white"/>
<path d="M1232.34 757.527H1242.95L1224.95 784.988H1214.34L1232.34 757.527Z" fill="white"/>
<path d="M803.136 862.283L968.577 784.385C969.11 784.134 969.692 784.003 970.281 784.003H1178.22" stroke="white" stroke-width="2" stroke-linecap="round"/>
<path d="M55.7107 1002.99H45.0987L63.0987 1030.45H73.7107L55.7107 1002.99Z" fill="white"/>
<path d="M41.406 1002.99H30.794L48.794 1030.45H59.406L41.406 1002.99Z" fill="white"/>
<path d="M27.0974 1002.99H16.4854L34.4854 1030.45H45.0974L27.0974 1002.99Z" fill="white"/>
<path d="M12.7888 1002.99H2.1768L20.1768 1030.45H30.7888L12.7888 1002.99Z" fill="white"/>
<path d="M67.3866 1029.45L266.583 1029.45L530.431 968.871" stroke="white" stroke-width="2" stroke-linecap="round"/>
<g filter="url(#filter9_f_190_203)">
<path d="M744.114 1170.35L770.69 1143.23C772.571 1141.31 775.145 1140.23 777.833 1140.23L940.432 1140.23C945.955 1140.23 950.432 1144.71 950.432 1150.23V1278.87C950.432 1281.51 949.389 1284.04 947.531 1285.91L917.231 1316.45L885.866 1347.94C883.989 1349.82 881.44 1350.88 878.781 1350.88H718.038C712.515 1350.88 708.038 1346.4 708.038 1340.88L708.037 1212.08C708.037 1209.51 709.03 1207.03 710.811 1205.17L744.114 1170.35Z" fill="#FF5E01"/>
</g>
<path d="M777.833 1140.73H940.432C945.679 1140.73 949.932 1144.99 949.932 1150.23V1278.87C949.932 1281.37 948.941 1283.78 947.176 1285.56L916.876 1316.1L885.512 1347.58C883.729 1349.37 881.307 1350.38 878.781 1350.38H718.038C712.791 1350.38 708.538 1346.13 708.538 1340.88L708.537 1212.08C708.537 1209.64 709.481 1207.28 711.172 1205.52L744.47 1170.7L744.471 1170.7L771.048 1143.58C772.834 1141.76 775.28 1140.73 777.833 1140.73Z" fill="#FF5100" stroke="white"/>
<g filter="url(#filter10_f_190_203)">
<path d="M752.863 1178.08L776.405 1154.06C778.286 1152.14 780.86 1151.06 783.548 1151.06L927.975 1151.06C933.498 1151.06 937.975 1155.54 937.975 1161.06V1275.02C937.975 1277.66 936.932 1280.19 935.074 1282.06L908.186 1309.16L880.346 1337.11C878.47 1339 875.92 1340.05 873.261 1340.05H730.495C724.972 1340.05 720.495 1335.58 720.495 1330.05L720.494 1215.94C720.494 1213.36 721.487 1210.88 723.267 1209.02L752.863 1178.08Z" fill="#FF833B"/>
</g>
<g filter="url(#filter11_d_190_203)">
<path d="M752.863 1178.08L776.405 1154.06C778.286 1152.14 780.861 1151.06 783.548 1151.06L927.975 1151.06C933.498 1151.06 937.975 1155.53 937.975 1161.06V1275.02C937.975 1277.66 936.932 1280.19 935.074 1282.06L908.186 1309.16L880.346 1337.11C878.47 1338.99 875.92 1340.05 873.261 1340.05H730.495C724.972 1340.05 720.495 1335.58 720.495 1330.05L720.494 1215.94C720.494 1213.36 721.487 1210.88 723.268 1209.02L752.863 1178.08Z" fill="#FF5100"/>
<path d="M783.548 1151.56H927.975C933.222 1151.56 937.475 1155.81 937.475 1161.06V1275.02C937.475 1277.53 936.484 1279.93 934.719 1281.71L907.832 1308.81L879.992 1336.76C878.209 1338.55 875.787 1339.55 873.262 1339.55H730.495C725.248 1339.55 720.995 1335.3 720.995 1330.05L720.994 1215.94C720.994 1213.49 721.938 1211.14 723.629 1209.37L753.224 1178.43L753.223 1178.43L776.762 1154.41C778.549 1152.58 780.995 1151.56 783.548 1151.56Z" stroke="white"/>
</g>
<path d="M183.129 1149.5H172.516L190.516 1176.96H201.129L183.129 1149.5Z" fill="white"/>
<path d="M168.824 1149.5H158.212L176.212 1176.96H186.824L168.824 1149.5Z" fill="white"/>
<path d="M154.515 1149.5H143.903L161.903 1176.96H172.515L154.515 1149.5Z" fill="white"/>
<path d="M140.211 1149.5H129.599L147.599 1176.96H158.211L140.211 1149.5Z" fill="white"/>
<path d="M194.241 1175.96H577.922L687.271 1243.78" stroke="white" stroke-width="2" stroke-linecap="round"/>
<path d="M254.659 1402.03H244.047L262.047 1429.49H272.659L254.659 1402.03Z" fill="white"/>
<path d="M240.354 1402.03H229.742L247.742 1429.49H258.354L240.354 1402.03Z" fill="white"/>
<path d="M226.046 1402.03H215.434L233.434 1429.49H244.046L226.046 1402.03Z" fill="white"/>
<path d="M211.741 1402.03H201.129L219.129 1429.49H229.741L211.741 1402.03Z" fill="white"/>
<path d="M266.241 1428.48H603.608L692.854 1343.66" stroke="white" stroke-width="2" stroke-linecap="round"/>
<path d="M1434.62 1380.3H1445.23L1427.23 1407.76H1416.62L1434.62 1380.3Z" fill="white"/>
<path d="M1448.92 1380.3H1459.54L1441.54 1407.76H1430.92L1448.92 1380.3Z" fill="white"/>
<path d="M1463.23 1380.3H1473.85L1455.85 1407.76H1445.23L1463.23 1380.3Z" fill="white"/>
<path d="M1477.54 1380.3H1488.15L1470.15 1407.76H1459.54L1477.54 1380.3Z" fill="white"/>
<path d="M933.606 1329.09L1116.28 1406.77H1424.08" stroke="white" stroke-width="2" stroke-linecap="round"/>
<path d="M1377.82 1139.42H1388.43L1370.43 1166.88H1359.82L1377.82 1139.42Z" fill="white"/>
<path d="M1392.13 1139.42H1402.74L1384.74 1166.88H1374.13L1392.13 1139.42Z" fill="white"/>
<path d="M1406.44 1139.42H1417.05L1399.05 1166.88H1388.44L1406.44 1139.42Z" fill="white"/>
<path d="M1420.74 1139.42H1431.36L1413.36 1166.88H1402.74L1420.74 1139.42Z" fill="white"/>
<path d="M971.402 1209.57L1037.77 1166.54C1038.42 1166.12 1039.18 1165.89 1039.95 1165.89H1366.62" stroke="white" stroke-width="2" stroke-linecap="round"/>
<defs>
<filter id="filter0_f_190_203" x="531.387" y="110.188" width="258.395" height="226.647" filterUnits="userSpaceOnUse" color-interpolation-filters="sRGB">
<feFlood flood-opacity="0" result="BackgroundImageFix"/>
<feBlend mode="normal" in="SourceGraphic" in2="BackgroundImageFix" result="shape"/>
<feGaussianBlur stdDeviation="4" result="effect1_foregroundBlur_190_203"/>
</filter>
<filter id="filter1_f_190_203" x="514.944" y="92.1129" width="291.281" height="262.796" filterUnits="userSpaceOnUse" color-interpolation-filters="sRGB">
<feFlood flood-opacity="0" result="BackgroundImageFix"/>
<feBlend mode="normal" in="SourceGraphic" in2="BackgroundImageFix" result="shape"/>
<feGaussianBlur stdDeviation="18.45" result="effect1_foregroundBlur_190_203"/>
</filter>
<filter id="filter2_d_190_203" x="526.144" y="104.313" width="274.881" height="246.396" filterUnits="userSpaceOnUse" color-interpolation-filters="sRGB">
<feFlood flood-opacity="0" result="BackgroundImageFix"/>
<feColorMatrix in="SourceAlpha" type="matrix" values="0 0 0 0 0 0 0 0 0 0 0 0 0 0 0 0 0 0 127 0" result="hardAlpha"/>
<feOffset dx="3" dy="4"/>
<feGaussianBlur stdDeviation="14.35"/>
<feComposite in2="hardAlpha" operator="out"/>
<feColorMatrix type="matrix" values="0 0 0 0 1 0 0 0 0 1 0 0 0 0 1 0 0 0 0.25 0"/>
<feBlend mode="normal" in2="BackgroundImageFix" result="effect1_dropShadow_190_203"/>
<feBlend mode="normal" in="SourceGraphic" in2="effect1_dropShadow_190_203" result="shape"/>
</filter>
<filter id="filter3_f_190_203" x="700.824" y="451.188" width="258.395" height="226.647" filterUnits="userSpaceOnUse" color-interpolation-filters="sRGB">
<feFlood flood-opacity="0" result="BackgroundImageFix"/>
<feBlend mode="normal" in="SourceGraphic" in2="BackgroundImageFix" result="shape"/>
<feGaussianBlur stdDeviation="4" result="effect1_foregroundBlur_190_203"/>
</filter>
<filter id="filter4_f_190_203" x="684.381" y="433.113" width="291.281" height="262.796" filterUnits="userSpaceOnUse" color-interpolation-filters="sRGB">
<feFlood flood-opacity="0" result="BackgroundImageFix"/>
<feBlend mode="normal" in="SourceGraphic" in2="BackgroundImageFix" result="shape"/>
<feGaussianBlur stdDeviation="18.45" result="effect1_foregroundBlur_190_203"/>
</filter>
<filter id="filter5_d_190_203" x="695.581" y="445.313" width="274.881" height="246.396" filterUnits="userSpaceOnUse" color-interpolation-filters="sRGB">
<feFlood flood-opacity="0" result="BackgroundImageFix"/>
<feColorMatrix in="SourceAlpha" type="matrix" values="0 0 0 0 0 0 0 0 0 0 0 0 0 0 0 0 0 0 127 0" result="hardAlpha"/>
<feOffset dx="3" dy="4"/>
<feGaussianBlur stdDeviation="14.35"/>
<feComposite in2="hardAlpha" operator="out"/>
<feColorMatrix type="matrix" values="0 0 0 0 1 0 0 0 0 1 0 0 0 0 1 0 0 0 0.25 0"/>
<feBlend mode="normal" in2="BackgroundImageFix" result="effect1_dropShadow_190_203"/>
<feBlend mode="normal" in="SourceGraphic" in2="effect1_dropShadow_190_203" result="shape"/>
</filter>
<filter id="filter6_f_190_203" x="532.792" y="791.84" width="258.395" height="226.647" filterUnits="userSpaceOnUse" color-interpolation-filters="sRGB">
<feFlood flood-opacity="0" result="BackgroundImageFix"/>
<feBlend mode="normal" in="SourceGraphic" in2="BackgroundImageFix" result="shape"/>
<feGaussianBlur stdDeviation="4" result="effect1_foregroundBlur_190_203"/>
</filter>
<filter id="filter7_f_190_203" x="516.349" y="773.766" width="291.281" height="262.796" filterUnits="userSpaceOnUse" color-interpolation-filters="sRGB">
<feFlood flood-opacity="0" result="BackgroundImageFix"/>
<feBlend mode="normal" in="SourceGraphic" in2="BackgroundImageFix" result="shape"/>
<feGaussianBlur stdDeviation="18.45" result="effect1_foregroundBlur_190_203"/>
</filter>
<filter id="filter8_d_190_203" x="527.549" y="785.965" width="274.881" height="246.396" filterUnits="userSpaceOnUse" color-interpolation-filters="sRGB">
<feFlood flood-opacity="0" result="BackgroundImageFix"/>
<feColorMatrix in="SourceAlpha" type="matrix" values="0 0 0 0 0 0 0 0 0 0 0 0 0 0 0 0 0 0 127 0" result="hardAlpha"/>
<feOffset dx="3" dy="4"/>
<feGaussianBlur stdDeviation="14.35"/>
<feComposite in2="hardAlpha" operator="out"/>
<feColorMatrix type="matrix" values="0 0 0 0 1 0 0 0 0 1 0 0 0 0 1 0 0 0 0.25 0"/>
<feBlend mode="normal" in2="BackgroundImageFix" result="effect1_dropShadow_190_203"/>
<feBlend mode="normal" in="SourceGraphic" in2="effect1_dropShadow_190_203" result="shape"/>
</filter>
<filter id="filter9_f_190_203" x="700.037" y="1132.23" width="258.395" height="226.647" filterUnits="userSpaceOnUse" color-interpolation-filters="sRGB">
<feFlood flood-opacity="0" result="BackgroundImageFix"/>
<feBlend mode="normal" in="SourceGraphic" in2="BackgroundImageFix" result="shape"/>
<feGaussianBlur stdDeviation="4" result="effect1_foregroundBlur_190_203"/>
</filter>
<filter id="filter10_f_190_203" x="683.594" y="1114.16" width="291.281" height="262.796" filterUnits="userSpaceOnUse" color-interpolation-filters="sRGB">
<feFlood flood-opacity="0" result="BackgroundImageFix"/>
<feBlend mode="normal" in="SourceGraphic" in2="BackgroundImageFix" result="shape"/>
<feGaussianBlur stdDeviation="18.45" result="effect1_foregroundBlur_190_203"/>
</filter>
<filter id="filter11_d_190_203" x="694.794" y="1126.36" width="274.881" height="246.396" filterUnits="userSpaceOnUse" color-interpolation-filters="sRGB">
<feFlood flood-opacity="0" result="BackgroundImageFix"/>
<feColorMatrix in="SourceAlpha" type="matrix" values="0 0 0 0 0 0 0 0 0 0 0 0 0 0 0 0 0 0 127 0" result="hardAlpha"/>
<feOffset dx="3" dy="4"/>
<feGaussianBlur stdDeviation="14.35"/>
<feComposite in2="hardAlpha" operator="out"/>
<feColorMatrix type="matrix" values="0 0 0 0 1 0 0 0 0 1 0 0 0 0 1 0 0 0 0.25 0"/>
<feBlend mode="normal" in2="BackgroundImageFix" result="effect1_dropShadow_190_203"/>
<feBlend mode="normal" in="SourceGraphic" in2="effect1_dropShadow_190_203" result="shape"/>
</filter>
</defs>
</svg>
