<svg width="714" height="485" viewBox="0 0 714 485" fill="none" xmlns="http://www.w3.org/2000/svg">
<path d="M22.5 134.504L1 367.504L18 388.004M22.5 134.504L39 124.504L484 174.004L712.5 262.004M22.5 134.504L39 144.504M18 388.004L201 484.004M18 388.004L39 144.504M201 484.004H239.5M201 484.004L224.5 220.004M239.5 484.004L629.5 370.004L701 329.004L712.5 262.004M239.5 484.004L262.5 229.504M712.5 262.004L262.5 229.504M262.5 229.504L224.5 220.004M224.5 220.004L39 144.504M47 132.004L484 178.004L695 258.504L262.5 220.004L224.5 210.504L40.5 136.504L47 132.004ZM291 443.004L321.5 433.004V421.004L291 429.004V443.004ZM635.5 336.004L673.5 323.004L679.5 315.004V307.004L673.5 304.504L635.5 315.004L629.5 323.004V332.504L635.5 336.004Z" stroke="white"/>
<path d="M46.1529 122.575L55.0546 10.334C55.4565 5.26683 60.4205 1.8544 65.2955 3.29413L354.309 88.6496C358.006 89.7412 360.398 93.3131 360.001 97.1466L353.762 157.353C353.647 158.459 352.652 159.26 351.547 159.134L47.9214 124.72C46.8499 124.599 46.0676 123.65 46.1529 122.575Z" fill="white" stroke="white"/>
</svg>
