<svg width="292" height="263" viewBox="0 0 292 263" fill="none" xmlns="http://www.w3.org/2000/svg">
<g filter="url(#filter0_f_237_595)">
<path d="M60.8797 56.1937L87.4562 29.0732C89.3371 27.1538 91.9113 26.0723 94.5986 26.0723L257.198 26.0723C262.721 26.0723 267.198 30.5494 267.198 36.0723V164.706C267.198 167.345 266.155 169.877 264.297 171.75L233.996 202.288L202.631 233.777C200.755 235.661 198.205 236.719 195.546 236.719H34.804C29.2812 236.719 24.8041 232.242 24.8041 226.72L24.8028 97.9228C24.8027 95.3475 25.7963 92.8715 27.5764 91.0105L60.8797 56.1937Z" fill="#FF5E01"/>
</g>
<path d="M94.5986 26.5723H257.198C262.445 26.5724 266.698 30.8256 266.698 36.0723V164.706C266.698 167.213 265.707 169.618 263.941 171.397L233.642 201.936L202.277 233.424C200.495 235.213 198.073 236.22 195.547 236.22H34.8037C29.5572 236.22 25.3038 231.966 25.3037 226.72L25.3027 97.9229C25.3027 95.4764 26.2466 93.1244 27.9375 91.3564L61.2363 56.543L61.2373 56.5439L87.8135 29.4229C89.6003 27.5996 92.0458 26.5723 94.5986 26.5723Z" fill="#FF5100" stroke="white"/>
<g filter="url(#filter1_f_237_595)">
<path d="M69.6287 63.9229L93.1713 39.8984C95.0522 37.979 97.6264 36.8975 100.314 36.8975L244.741 36.8975C250.264 36.8975 254.741 41.3746 254.741 46.8975V160.859C254.741 163.498 253.698 166.029 251.84 167.902L224.952 195.001L197.112 222.951C195.236 224.835 192.686 225.894 190.027 225.894H47.261C41.7381 225.894 37.261 221.417 37.2609 215.894L37.2598 101.775C37.2598 99.2002 38.2533 96.7241 40.0334 94.8631L69.6287 63.9229Z" fill="#FF833B"/>
</g>
<g filter="url(#filter2_d_237_595)">
<path d="M69.6287 63.9229L93.1713 39.8984C95.0522 37.979 97.6264 36.8975 100.314 36.8975L244.741 36.8975C250.264 36.8975 254.741 41.3746 254.741 46.8975V160.859C254.741 163.498 253.698 166.029 251.84 167.902L224.952 195.001L197.112 222.951C195.236 224.835 192.686 225.894 190.027 225.894H47.261C41.7381 225.894 37.261 221.417 37.2609 215.894L37.2598 101.775C37.2598 99.2002 38.2533 96.7241 40.0334 94.8631L69.6287 63.9229Z" fill="#FF5100"/>
<path d="M100.313 37.3975H244.741C249.988 37.3976 254.241 41.6508 254.241 46.8975V160.859C254.241 163.366 253.25 165.77 251.484 167.55L224.598 194.648L196.758 222.598C194.975 224.387 192.553 225.393 190.027 225.394H47.2607C42.0142 225.393 37.7608 221.14 37.7607 215.894L37.7598 101.775C37.7598 99.329 38.7036 96.9769 40.3945 95.209L69.9902 64.2686L69.9893 64.2676L93.5283 40.248C95.3151 38.4248 97.7607 37.3975 100.313 37.3975Z" stroke="white"/>
</g>
<path d="M168.04 120.376H163.142V113.03C163.142 103.577 155.452 95.8867 145.999 95.8867C136.546 95.8867 128.856 103.577 128.856 113.03V120.376H123.958C120.583 120.376 117.836 123.123 117.836 126.499V160.785C117.836 164.16 120.583 166.907 123.958 166.907H168.04C171.416 166.907 174.162 164.16 174.162 160.785V126.499C174.162 123.123 171.416 120.376 168.04 120.376ZM131.305 113.03C131.305 104.927 137.896 98.3357 145.999 98.3357C154.102 98.3357 160.693 104.927 160.693 113.03V120.376H155.795V113.03C155.795 107.628 151.4 103.234 145.999 103.234C140.598 103.234 136.203 107.628 136.203 113.03V120.376H131.305V113.03ZM138.652 120.376V113.03C138.652 108.978 141.948 105.683 145.999 105.683C150.05 105.683 153.346 108.978 153.346 113.03V120.376H138.652ZM171.713 160.785C171.713 162.81 170.066 164.458 168.04 164.458H123.958C121.933 164.458 120.285 162.81 120.285 160.785V126.499C120.285 124.473 121.933 122.825 123.958 122.825H168.04C170.066 122.825 171.713 124.473 171.713 126.499V160.785ZM163.142 143.646C163.142 144.328 163.101 145.017 163.021 145.692C162.947 146.314 162.419 146.772 161.806 146.772C161.758 146.772 161.709 146.769 161.66 146.763C160.99 146.683 160.509 146.074 160.589 145.403C160.658 144.823 160.693 144.232 160.693 143.646C160.693 135.544 154.102 128.952 145.999 128.952C137.897 128.952 131.305 135.544 131.305 143.646C131.305 144.322 130.758 144.87 130.081 144.87C129.404 144.87 128.856 144.322 128.856 143.646C128.856 134.193 136.547 126.503 145.999 126.503C155.452 126.503 163.142 134.193 163.142 143.646ZM153.346 143.646C153.346 147.749 152.509 152.608 146.434 160.314C146.193 160.62 145.834 160.78 145.472 160.78C145.206 160.78 144.94 160.694 144.715 160.517C144.184 160.099 144.093 159.329 144.512 158.798C150.403 151.322 150.897 147.057 150.897 143.646C150.897 140.945 148.7 138.748 145.999 138.748C143.298 138.748 141.101 140.945 141.101 143.646C141.101 144.322 140.553 144.87 139.877 144.87C139.2 144.87 138.652 144.322 138.652 143.646C138.652 139.595 141.948 136.299 145.999 136.299C150.05 136.299 153.346 139.595 153.346 143.646ZM147.224 143.349C147.224 146.037 146.577 152.952 140.58 159.06C140.339 159.304 140.023 159.427 139.706 159.427C139.396 159.427 139.086 159.31 138.848 159.076C138.365 158.602 138.358 157.827 138.831 157.344C144.196 151.881 144.775 145.737 144.775 143.349C144.775 142.673 145.322 142.124 145.999 142.124C146.676 142.124 147.224 142.673 147.224 143.349ZM158.244 143.646C158.244 146.711 157.958 150.403 155.834 154.548C155.618 154.971 155.189 155.214 154.744 155.214C154.556 155.214 154.366 155.171 154.187 155.079C153.585 154.771 153.347 154.033 153.656 153.431C155.54 149.75 155.795 146.419 155.795 143.646C155.795 138.244 151.4 133.85 145.999 133.85C140.598 133.85 136.203 138.244 136.203 143.646C136.203 145.954 135.97 148.721 133.185 152.346C132.774 152.881 132.006 152.984 131.468 152.571C130.932 152.159 130.831 151.39 131.243 150.853C133.562 147.835 133.754 145.722 133.754 143.646C133.754 136.894 139.248 131.401 145.999 131.401C152.751 131.401 158.244 136.894 158.244 143.646ZM140.318 149.376C139.572 151.936 138.291 154.145 136.289 156.328C136.048 156.591 135.718 156.725 135.387 156.725C135.09 156.725 134.795 156.618 134.559 156.402C134.061 155.946 134.027 155.171 134.484 154.673C136.769 152.182 137.567 150.065 137.967 148.69C138.156 148.04 138.834 147.668 139.486 147.857C140.135 148.047 140.507 148.727 140.318 149.376Z" fill="white"/>
<defs>
<filter id="filter0_f_237_595" x="16.8027" y="18.0723" width="258.396" height="226.647" filterUnits="userSpaceOnUse" color-interpolation-filters="sRGB">
<feFlood flood-opacity="0" result="BackgroundImageFix"/>
<feBlend mode="normal" in="SourceGraphic" in2="BackgroundImageFix" result="shape"/>
<feGaussianBlur stdDeviation="4" result="effect1_foregroundBlur_237_595"/>
</filter>
<filter id="filter1_f_237_595" x="0.359764" y="-0.00254059" width="291.281" height="262.796" filterUnits="userSpaceOnUse" color-interpolation-filters="sRGB">
<feFlood flood-opacity="0" result="BackgroundImageFix"/>
<feBlend mode="normal" in="SourceGraphic" in2="BackgroundImageFix" result="shape"/>
<feGaussianBlur stdDeviation="18.45" result="effect1_foregroundBlur_237_595"/>
</filter>
<filter id="filter2_d_237_595" x="11.5598" y="12.1975" width="274.881" height="246.396" filterUnits="userSpaceOnUse" color-interpolation-filters="sRGB">
<feFlood flood-opacity="0" result="BackgroundImageFix"/>
<feColorMatrix in="SourceAlpha" type="matrix" values="0 0 0 0 0 0 0 0 0 0 0 0 0 0 0 0 0 0 127 0" result="hardAlpha"/>
<feOffset dx="3" dy="4"/>
<feGaussianBlur stdDeviation="14.35"/>
<feComposite in2="hardAlpha" operator="out"/>
<feColorMatrix type="matrix" values="0 0 0 0 1 0 0 0 0 1 0 0 0 0 1 0 0 0 0.25 0"/>
<feBlend mode="normal" in2="BackgroundImageFix" result="effect1_dropShadow_237_595"/>
<feBlend mode="normal" in="SourceGraphic" in2="effect1_dropShadow_237_595" result="shape"/>
</filter>
</defs>
</svg>
