<svg width="817" height="164" viewBox="0 0 817 164" fill="none" xmlns="http://www.w3.org/2000/svg">
<path d="M483.469 74.8604L650.564 74.8606" stroke="white"/>
<path d="M165.951 74.8606L333.564 74.8603" stroke="white"/>
<g filter="url(#filter0_f_234_450)">
<path d="M355.373 34.9529L371.877 18.1107C373.045 16.9187 374.644 16.2471 376.313 16.2471L477.289 16.2471C480.719 16.2471 483.499 19.0274 483.499 22.4572V102.341C483.499 103.979 482.852 105.551 481.697 106.715L462.881 125.679L443.403 145.234C442.237 146.404 440.654 147.062 439.003 147.062H339.18C335.75 147.062 332.97 144.281 332.97 140.852L332.969 60.8672C332.969 59.2679 333.586 57.7302 334.691 56.5745L355.373 34.9529Z" fill="#FF5E01"/>
</g>
<path d="M376.312 16.5576H477.289C480.547 16.5576 483.188 19.1988 483.188 22.457V102.341C483.188 103.897 482.573 105.391 481.477 106.496L462.66 125.46L443.183 145.015C442.076 146.126 440.572 146.751 439.003 146.751H339.18C335.921 146.751 333.28 144.11 333.28 140.852L333.279 60.8672C333.279 59.3479 333.866 57.887 334.916 56.7891L355.597 35.167L372.099 18.3281C373.208 17.1959 374.727 16.5577 376.312 16.5576Z" fill="#FF5100" stroke="white" stroke-width="0.621012"/>
<g filter="url(#filter1_f_234_450)">
<path d="M360.806 39.7529L375.426 24.8333C376.594 23.6414 378.193 22.9697 379.862 22.9697L469.553 22.9697C472.983 22.9697 475.763 25.7501 475.763 29.1799V99.9514C475.763 101.59 475.115 103.162 473.961 104.325L457.264 121.154L439.975 138.511C438.809 139.681 437.226 140.339 435.575 140.339H346.915C343.486 140.339 340.705 137.558 340.705 134.129L340.705 63.2598C340.705 61.6605 341.322 60.1228 342.427 58.9671L360.806 39.7529Z" fill="#FF833B"/>
</g>
<g filter="url(#filter2_d_234_450)">
<path d="M360.806 39.7529L375.426 24.8333C376.594 23.6414 378.193 22.9697 379.862 22.9697L469.553 22.9697C472.983 22.9697 475.763 25.7501 475.763 29.1799V99.9514C475.763 101.59 475.115 103.162 473.961 104.325L457.264 121.154L439.975 138.511C438.809 139.681 437.226 140.339 435.575 140.339H346.915C343.486 140.339 340.705 137.558 340.705 134.129L340.705 63.2598C340.705 61.6605 341.322 60.1228 342.427 58.9671L360.806 39.7529Z" fill="#FF5100"/>
<path d="M379.862 23.2803H469.553C472.811 23.2804 475.453 25.9216 475.453 29.1797V99.9512C475.453 101.508 474.837 103.001 473.741 104.106L457.043 120.936L439.754 138.292C438.647 139.403 437.143 140.028 435.575 140.028H346.916C343.657 140.028 341.016 137.387 341.016 134.129L341.015 63.2598C341.015 61.7404 341.602 60.2796 342.652 59.1816L361.03 39.9668L375.648 25.0508C376.758 23.9184 378.276 23.2803 379.862 23.2803Z" stroke="white" stroke-width="0.621012"/>
</g>
<g filter="url(#filter3_f_234_450)">
<path d="M672.904 34.9529L689.408 18.1107C690.576 16.9187 692.175 16.2471 693.844 16.2471L794.82 16.2471C798.25 16.2471 801.03 19.0274 801.03 22.4572V102.341C801.03 103.979 800.382 105.551 799.228 106.715L780.411 125.679L760.933 145.234C759.768 146.404 758.185 147.062 756.533 147.062H656.71C653.281 147.062 650.5 144.281 650.5 140.852L650.5 60.8672C650.5 59.2679 651.117 57.7302 652.222 56.5745L672.904 34.9529Z" fill="#FF5E01"/>
</g>
<path d="M693.843 16.5576H794.82C798.078 16.5576 800.719 19.1988 800.719 22.457V102.341C800.719 103.897 800.104 105.391 799.007 106.496L780.191 125.46L760.713 145.015C759.606 146.126 758.102 146.751 756.534 146.751H656.71C653.452 146.751 650.811 144.11 650.811 140.852L650.81 60.8672C650.81 59.3479 651.397 57.887 652.447 56.7891L673.127 35.167L689.629 18.3281C690.739 17.1959 692.258 16.5577 693.843 16.5576Z" fill="#FF5100" stroke="white" stroke-width="0.621012"/>
<g filter="url(#filter4_f_234_450)">
<path d="M678.337 39.7529L692.957 24.8333C694.125 23.6414 695.724 22.9697 697.393 22.9697L787.084 22.9697C790.513 22.9697 793.294 25.7501 793.294 29.1799V99.9514C793.294 101.59 792.646 103.162 791.492 104.325L774.794 121.154L757.506 138.511C756.34 139.681 754.757 140.339 753.106 140.339H664.446C661.016 140.339 658.236 137.558 658.236 134.129L658.235 63.2598C658.235 61.6605 658.852 60.1228 659.958 58.9671L678.337 39.7529Z" fill="#FF833B"/>
</g>
<g filter="url(#filter5_d_234_450)">
<path d="M678.337 39.7529L692.957 24.8333C694.125 23.6414 695.724 22.9697 697.393 22.9697L787.084 22.9697C790.513 22.9697 793.294 25.7501 793.294 29.1799V99.9514C793.294 101.59 792.646 103.162 791.492 104.325L774.794 121.154L757.506 138.511C756.34 139.681 754.757 140.339 753.106 140.339H664.446C661.016 140.339 658.236 137.558 658.236 134.129L658.235 63.2598C658.235 61.6605 658.852 60.1228 659.958 58.9671L678.337 39.7529Z" fill="#FF5100"/>
<path d="M697.393 23.2803H787.084C790.342 23.2804 792.983 25.9216 792.983 29.1797V99.9512C792.983 101.508 792.368 103.001 791.271 104.106L774.574 120.936L757.285 138.292C756.178 139.403 754.674 140.028 753.105 140.028H664.446C661.188 140.028 658.547 137.387 658.547 134.129L658.546 63.2598C658.546 61.7404 659.132 60.2796 660.183 59.1816L678.561 39.9668L693.179 25.0508C694.288 23.9184 695.807 23.2803 697.393 23.2803Z" stroke="white" stroke-width="0.621012"/>
</g>
<g filter="url(#filter6_f_234_450)">
<path d="M37.8427 34.9529L54.3471 18.1107C55.5151 16.9187 57.1137 16.2471 58.7826 16.2471L159.759 16.2471C163.189 16.2471 165.969 19.0274 165.969 22.4572V102.341C165.969 103.979 165.321 105.551 164.167 106.715L145.35 125.679L125.872 145.234C124.707 146.404 123.124 147.062 121.472 147.062H21.6494C18.2197 147.062 15.4393 144.281 15.4393 140.852L15.4385 60.8672C15.4385 59.2679 16.0555 57.7302 17.161 56.5745L37.8427 34.9529Z" fill="#FF5E01"/>
</g>
<path d="M58.7822 16.5576H159.759C163.017 16.5576 165.658 19.1988 165.658 22.457V102.341C165.658 103.897 165.043 105.391 163.946 106.496L145.13 125.46L125.652 145.015C124.545 146.126 123.041 146.751 121.473 146.751H21.6494C18.3912 146.751 15.7501 144.11 15.75 140.852L15.749 60.8672C15.749 59.3479 16.3355 57.887 17.3857 56.7891L38.0664 35.167L54.5684 18.3281C55.6779 17.1959 57.1969 16.5577 58.7822 16.5576Z" fill="#FF5100" stroke="white" stroke-width="0.621012"/>
<g filter="url(#filter7_f_234_450)">
<path d="M43.2758 39.7529L57.8961 24.8333C59.0641 23.6414 60.6627 22.9697 62.3315 22.9697L152.023 22.9697C155.452 22.9697 158.233 25.7501 158.233 29.1799V99.9514C158.233 101.59 157.585 103.162 156.431 104.325L139.733 121.154L122.444 138.511C121.279 139.681 119.696 140.339 118.045 140.339H29.3852C25.9554 140.339 23.1751 137.558 23.175 134.129L23.1743 63.2598C23.1743 61.6605 23.7913 60.1228 24.8968 58.9671L43.2758 39.7529Z" fill="#FF833B"/>
</g>
<g filter="url(#filter8_d_234_450)">
<path d="M43.2758 39.7529L57.8961 24.8333C59.0641 23.6414 60.6627 22.9697 62.3315 22.9697L152.023 22.9697C155.452 22.9697 158.233 25.7501 158.233 29.1799V99.9514C158.233 101.59 157.585 103.162 156.431 104.325L139.733 121.154L122.444 138.511C121.279 139.681 119.696 140.339 118.045 140.339H29.3852C25.9554 140.339 23.1751 137.558 23.175 134.129L23.1743 63.2598C23.1743 61.6605 23.7913 60.1228 24.8968 58.9671L43.2758 39.7529Z" fill="#FF5100"/>
<path d="M62.3315 23.2803H152.023C155.281 23.2804 157.922 25.9216 157.922 29.1797V99.9512C157.922 101.508 157.307 103.001 156.21 104.106L139.513 120.936L122.224 138.292C121.117 139.403 119.613 140.028 118.044 140.028H29.3853C26.1271 140.028 23.486 137.387 23.4858 134.129L23.4849 63.2598C23.4848 61.7404 24.0714 60.2796 25.1216 59.1816L43.4995 39.9668L58.1177 25.0508C59.2273 23.9184 60.7461 23.2803 62.3315 23.2803Z" stroke="white" stroke-width="0.621012"/>
</g>
<defs>
<filter id="filter0_f_234_450" x="328.001" y="11.279" width="160.466" height="140.751" filterUnits="userSpaceOnUse" color-interpolation-filters="sRGB">
<feFlood flood-opacity="0" result="BackgroundImageFix"/>
<feBlend mode="normal" in="SourceGraphic" in2="BackgroundImageFix" result="shape"/>
<feGaussianBlur stdDeviation="2.48405" result="effect1_foregroundBlur_234_450"/>
</filter>
<filter id="filter1_f_234_450" x="317.789" y="0.0543747" width="180.889" height="163.2" filterUnits="userSpaceOnUse" color-interpolation-filters="sRGB">
<feFlood flood-opacity="0" result="BackgroundImageFix"/>
<feBlend mode="normal" in="SourceGraphic" in2="BackgroundImageFix" result="shape"/>
<feGaussianBlur stdDeviation="11.4577" result="effect1_foregroundBlur_234_450"/>
</filter>
<filter id="filter2_d_234_450" x="324.745" y="7.63072" width="170.705" height="153.015" filterUnits="userSpaceOnUse" color-interpolation-filters="sRGB">
<feFlood flood-opacity="0" result="BackgroundImageFix"/>
<feColorMatrix in="SourceAlpha" type="matrix" values="0 0 0 0 0 0 0 0 0 0 0 0 0 0 0 0 0 0 127 0" result="hardAlpha"/>
<feOffset dx="1.86304" dy="2.48405"/>
<feGaussianBlur stdDeviation="8.91153"/>
<feComposite in2="hardAlpha" operator="out"/>
<feColorMatrix type="matrix" values="0 0 0 0 1 0 0 0 0 1 0 0 0 0 1 0 0 0 0.25 0"/>
<feBlend mode="normal" in2="BackgroundImageFix" result="effect1_dropShadow_234_450"/>
<feBlend mode="normal" in="SourceGraphic" in2="effect1_dropShadow_234_450" result="shape"/>
</filter>
<filter id="filter3_f_234_450" x="645.531" y="11.279" width="160.466" height="140.751" filterUnits="userSpaceOnUse" color-interpolation-filters="sRGB">
<feFlood flood-opacity="0" result="BackgroundImageFix"/>
<feBlend mode="normal" in="SourceGraphic" in2="BackgroundImageFix" result="shape"/>
<feGaussianBlur stdDeviation="2.48405" result="effect1_foregroundBlur_234_450"/>
</filter>
<filter id="filter4_f_234_450" x="635.32" y="0.0543747" width="180.889" height="163.2" filterUnits="userSpaceOnUse" color-interpolation-filters="sRGB">
<feFlood flood-opacity="0" result="BackgroundImageFix"/>
<feBlend mode="normal" in="SourceGraphic" in2="BackgroundImageFix" result="shape"/>
<feGaussianBlur stdDeviation="11.4577" result="effect1_foregroundBlur_234_450"/>
</filter>
<filter id="filter5_d_234_450" x="642.275" y="7.63072" width="170.705" height="153.015" filterUnits="userSpaceOnUse" color-interpolation-filters="sRGB">
<feFlood flood-opacity="0" result="BackgroundImageFix"/>
<feColorMatrix in="SourceAlpha" type="matrix" values="0 0 0 0 0 0 0 0 0 0 0 0 0 0 0 0 0 0 127 0" result="hardAlpha"/>
<feOffset dx="1.86304" dy="2.48405"/>
<feGaussianBlur stdDeviation="8.91153"/>
<feComposite in2="hardAlpha" operator="out"/>
<feColorMatrix type="matrix" values="0 0 0 0 1 0 0 0 0 1 0 0 0 0 1 0 0 0 0.25 0"/>
<feBlend mode="normal" in2="BackgroundImageFix" result="effect1_dropShadow_234_450"/>
<feBlend mode="normal" in="SourceGraphic" in2="effect1_dropShadow_234_450" result="shape"/>
</filter>
<filter id="filter6_f_234_450" x="10.4704" y="11.279" width="160.466" height="140.751" filterUnits="userSpaceOnUse" color-interpolation-filters="sRGB">
<feFlood flood-opacity="0" result="BackgroundImageFix"/>
<feBlend mode="normal" in="SourceGraphic" in2="BackgroundImageFix" result="shape"/>
<feGaussianBlur stdDeviation="2.48405" result="effect1_foregroundBlur_234_450"/>
</filter>
<filter id="filter7_f_234_450" x="0.258965" y="0.0543747" width="180.889" height="163.2" filterUnits="userSpaceOnUse" color-interpolation-filters="sRGB">
<feFlood flood-opacity="0" result="BackgroundImageFix"/>
<feBlend mode="normal" in="SourceGraphic" in2="BackgroundImageFix" result="shape"/>
<feGaussianBlur stdDeviation="11.4577" result="effect1_foregroundBlur_234_450"/>
</filter>
<filter id="filter8_d_234_450" x="7.2143" y="7.63072" width="170.705" height="153.015" filterUnits="userSpaceOnUse" color-interpolation-filters="sRGB">
<feFlood flood-opacity="0" result="BackgroundImageFix"/>
<feColorMatrix in="SourceAlpha" type="matrix" values="0 0 0 0 0 0 0 0 0 0 0 0 0 0 0 0 0 0 127 0" result="hardAlpha"/>
<feOffset dx="1.86304" dy="2.48405"/>
<feGaussianBlur stdDeviation="8.91153"/>
<feComposite in2="hardAlpha" operator="out"/>
<feColorMatrix type="matrix" values="0 0 0 0 1 0 0 0 0 1 0 0 0 0 1 0 0 0 0.25 0"/>
<feBlend mode="normal" in2="BackgroundImageFix" result="effect1_dropShadow_234_450"/>
<feBlend mode="normal" in="SourceGraphic" in2="effect1_dropShadow_234_450" result="shape"/>
</filter>
</defs>
</svg>
