<svg width="1200" height="264" viewBox="0 0 1200 264" fill="none" xmlns="http://www.w3.org/2000/svg">
<g filter="url(#filter0_f_198_328)">
<path d="M60.8797 57.1214L87.4562 30.0009C89.3371 28.0816 91.9113 27 94.5986 27L257.198 27C262.721 27 267.198 31.4772 267.198 37V165.634C267.198 168.273 266.155 170.804 264.297 172.677L233.996 203.216L202.631 234.704C200.755 236.588 198.205 237.647 195.546 237.647H34.804C29.2812 237.647 24.8041 233.17 24.8041 227.647L24.8028 98.8506C24.8027 96.2753 25.7963 93.7992 27.5764 91.9382L60.8797 57.1214Z" fill="#FF5E01"/>
</g>
<path d="M94.5986 27.5H257.198C262.445 27.5001 266.698 31.7534 266.698 37V165.634C266.698 168.14 265.707 170.546 263.941 172.325L233.642 202.863L202.277 234.352C200.495 236.141 198.073 237.147 195.547 237.147H34.8037C29.5572 237.147 25.3038 232.894 25.3037 227.647L25.3027 98.8506C25.3027 96.4042 26.2466 94.0521 27.9375 92.2842L61.2363 57.4707L61.2373 57.4717L87.8135 30.3506C89.6003 28.5273 92.0458 27.5 94.5986 27.5Z" fill="#FF5100" stroke="white"/>
<g filter="url(#filter1_f_198_328)">
<path d="M69.6287 64.8507L93.1713 40.8261C95.0522 38.9068 97.6264 37.8252 100.314 37.8252L244.741 37.8252C250.264 37.8252 254.741 42.3024 254.741 47.8252V161.787C254.741 164.425 253.698 166.957 251.84 168.83L224.952 195.929L197.112 223.879C195.236 225.763 192.686 226.822 190.027 226.822H47.261C41.7381 226.822 37.261 222.344 37.2609 216.822L37.2598 102.703C37.2598 100.128 38.2533 97.6519 40.0334 95.7908L69.6287 64.8507Z" fill="#FF833B"/>
</g>
<g filter="url(#filter2_d_198_328)">
<path d="M69.6287 64.8507L93.1713 40.8261C95.0522 38.9068 97.6264 37.8252 100.314 37.8252L244.741 37.8252C250.264 37.8252 254.741 42.3024 254.741 47.8252V161.787C254.741 164.425 253.698 166.957 251.84 168.83L224.952 195.929L197.112 223.879C195.236 225.763 192.686 226.822 190.027 226.822H47.261C41.7381 226.822 37.261 222.344 37.2609 216.822L37.2598 102.703C37.2598 100.128 38.2533 97.6519 40.0334 95.7908L69.6287 64.8507Z" fill="#FF5100"/>
<path d="M100.313 38.3252H244.741C249.988 38.3253 254.241 42.5786 254.241 47.8252V161.787C254.241 164.294 253.25 166.698 251.484 168.478L224.598 195.576L196.758 223.525C194.975 225.315 192.553 226.321 190.027 226.321H47.2607C42.0142 226.321 37.7608 222.068 37.7607 216.821L37.7598 102.703C37.7598 100.257 38.7036 97.9046 40.3945 96.1367L69.9902 65.1963L69.9893 65.1953L93.5283 41.1758C95.3151 39.3525 97.7607 38.3252 100.313 38.3252Z" stroke="white"/>
</g>
<path d="M137.291 131.078C137.291 128.124 136.415 125.236 134.774 122.78C133.132 120.324 130.8 118.409 128.07 117.279C125.341 116.148 122.338 115.852 119.441 116.429C116.543 117.005 113.882 118.427 111.793 120.516C109.704 122.605 108.281 125.267 107.705 128.164C107.129 131.062 107.424 134.065 108.555 136.794C109.685 139.523 111.6 141.856 114.056 143.497C116.512 145.139 119.4 146.015 122.354 146.015C126.315 146.01 130.111 144.435 132.911 141.635C135.711 138.835 137.287 135.038 137.291 131.078ZM123.599 143.051V132.323H127.307C127.18 135.332 126.593 138.109 125.622 140.245C125.031 141.548 124.322 142.516 123.599 143.051ZM123.599 129.833V119.105C124.322 119.64 125.03 120.609 125.622 121.912C126.593 124.048 127.179 126.824 127.307 129.833H123.599ZM121.11 119.105V129.833H117.402C117.529 126.824 118.116 124.048 119.087 121.912C119.679 120.609 120.387 119.64 121.11 119.105ZM121.11 132.323V143.051C120.387 142.516 119.679 141.548 119.087 140.245C118.116 138.109 117.529 135.332 117.402 132.323H121.11ZM127.244 142.523C127.48 142.118 127.695 141.702 127.888 141.275C129 138.83 129.665 135.688 129.797 132.323H134.739C134.513 134.537 133.699 136.65 132.381 138.444C131.063 140.238 129.29 141.646 127.244 142.523ZM134.739 129.833H129.797C129.665 126.468 129 123.327 127.888 120.882C127.695 120.455 127.48 120.038 127.244 119.633C129.29 120.51 131.063 121.919 132.381 123.712C133.699 125.506 134.513 127.619 134.739 129.833ZM117.465 119.633C117.229 120.038 117.014 120.455 116.821 120.882C115.709 123.327 115.044 126.468 114.912 129.833H109.97C110.196 127.619 111.01 125.506 112.328 123.712C113.646 121.919 115.419 120.51 117.465 119.633ZM109.97 132.323H114.912C115.044 135.688 115.709 138.83 116.821 141.275C117.014 141.702 117.229 142.118 117.465 142.523C115.419 141.646 113.646 140.238 112.328 138.444C111.01 136.65 110.196 134.537 109.97 132.323Z" fill="white"/>
<path d="M180.227 93.7383H144.131C142.976 93.7396 141.868 94.199 141.052 95.0157C140.235 95.8324 139.776 96.9397 139.774 98.0948V99.8685C139.552 99.8607 139.328 99.856 139.102 99.856C135.036 99.8434 131.079 101.171 127.842 103.632C124.675 106.037 122.351 109.385 121.205 113.193C121.158 113.35 121.143 113.514 121.16 113.677C121.177 113.839 121.226 113.997 121.304 114.141C121.381 114.285 121.487 114.412 121.614 114.515C121.741 114.618 121.887 114.695 122.043 114.741C122.2 114.788 122.365 114.803 122.527 114.786C122.69 114.769 122.847 114.72 122.991 114.642C123.135 114.565 123.262 114.459 123.365 114.332C123.468 114.205 123.545 114.059 123.592 113.903C124.585 110.602 126.6 107.702 129.345 105.617C132.15 103.484 135.579 102.334 139.102 102.345C139.328 102.345 139.552 102.352 139.774 102.361V165.98C139.739 165.98 139.704 165.981 139.669 165.981C135.702 165.976 131.875 164.516 128.913 161.879C125.951 159.241 124.059 155.608 123.596 151.669L123.851 151.925C123.967 152.041 124.104 152.133 124.255 152.195C124.407 152.258 124.568 152.29 124.732 152.29C124.896 152.29 125.058 152.258 125.209 152.195C125.36 152.133 125.497 152.041 125.613 151.925C125.728 151.81 125.82 151.672 125.883 151.521C125.945 151.37 125.977 151.208 125.977 151.045C125.977 150.881 125.945 150.719 125.883 150.568C125.82 150.417 125.728 150.28 125.613 150.164L123.123 147.675C122.889 147.441 122.573 147.31 122.243 147.31C121.912 147.31 121.596 147.441 121.362 147.675L118.873 150.164C118.757 150.28 118.665 150.417 118.603 150.568C118.54 150.719 118.508 150.881 118.508 151.045C118.508 151.208 118.54 151.37 118.603 151.521C118.665 151.672 118.757 151.81 118.873 151.925C118.988 152.041 119.126 152.133 119.277 152.195C119.428 152.258 119.59 152.29 119.753 152.29C119.917 152.29 120.079 152.258 120.23 152.195C120.381 152.133 120.518 152.041 120.634 151.925L121.074 151.483C121.5 156.123 123.642 160.436 127.082 163.578C130.521 166.72 135.01 168.465 139.669 168.471C139.851 168.471 140.033 168.464 140.215 168.46C140.572 169.194 141.129 169.813 141.821 170.246C142.514 170.68 143.314 170.91 144.131 170.91H180.227C181.382 170.909 182.49 170.449 183.306 169.633C184.123 168.816 184.583 167.709 184.584 166.554V98.0948C184.583 96.9397 184.123 95.8324 183.306 95.0157C182.49 94.199 181.382 93.7396 180.227 93.7383ZM167.92 96.2277L167.505 97.4724H156.853L156.438 96.2277H167.92ZM182.094 166.554C182.094 167.049 181.897 167.523 181.547 167.873C181.197 168.223 180.722 168.42 180.227 168.421H144.131C143.787 168.42 143.451 168.325 143.158 168.144C145.981 167.613 148.641 166.432 150.928 164.694C154.096 162.289 156.42 158.942 157.566 155.133C157.66 154.817 157.624 154.476 157.467 154.186C157.31 153.895 157.044 153.679 156.727 153.585C156.571 153.539 156.406 153.524 156.244 153.54C156.081 153.557 155.923 153.606 155.78 153.684C155.489 153.841 155.273 154.108 155.179 154.424C154.185 157.724 152.171 160.625 149.425 162.709C147.327 164.305 144.867 165.359 142.264 165.776V102.657C145.617 103.331 148.672 105.048 150.991 107.562C153.31 110.077 154.774 113.261 155.174 116.658L154.919 116.401C154.804 116.286 154.666 116.194 154.515 116.131C154.364 116.069 154.202 116.037 154.039 116.037C153.875 116.037 153.713 116.069 153.562 116.131C153.411 116.194 153.274 116.286 153.158 116.401C153.042 116.517 152.951 116.654 152.888 116.805C152.826 116.956 152.793 117.118 152.793 117.282C152.793 117.445 152.826 117.607 152.888 117.759C152.951 117.91 153.042 118.047 153.158 118.163L155.647 120.652C155.881 120.885 156.198 121.016 156.528 121.016C156.858 121.016 157.175 120.885 157.409 120.652L159.898 118.163C160.132 117.929 160.263 117.612 160.263 117.282C160.263 116.952 160.132 116.635 159.898 116.401C159.665 116.168 159.348 116.037 159.018 116.037C158.687 116.037 158.37 116.168 158.137 116.401L157.697 116.843C157.32 112.748 155.603 108.89 152.814 105.868C150.024 102.846 146.316 100.828 142.264 100.125V98.0948C142.264 97.5997 142.461 97.1251 142.811 96.775C143.161 96.4249 143.636 96.2281 144.131 96.2277H153.813L154.775 99.1108C154.857 99.3586 155.016 99.5742 155.228 99.7269C155.44 99.8797 155.694 99.9618 155.956 99.9618H168.403C168.664 99.9618 168.919 99.8797 169.13 99.7269C169.342 99.5742 169.501 99.3586 169.584 99.1108L170.545 96.2277H180.227C180.722 96.2281 181.197 96.4249 181.547 96.775C181.897 97.1251 182.094 97.5997 182.094 98.0948V166.554Z" fill="white"/>
<path d="M177.12 136.061C177.45 136.061 177.766 135.929 178 135.696C178.233 135.463 178.364 135.146 178.364 134.816V132.326C178.365 132.109 178.308 131.895 178.199 131.706C178.091 131.518 177.935 131.361 177.747 131.251L162.81 122.538C162.62 122.428 162.403 122.369 162.183 122.369C161.963 122.369 161.747 122.428 161.556 122.538L146.62 131.251C146.432 131.361 146.276 131.518 146.167 131.706C146.059 131.895 146.002 132.109 146.002 132.326V134.816C146.002 135.146 146.133 135.463 146.367 135.696C146.6 135.929 146.917 136.061 147.247 136.061H149.736V146.018H147.247C146.917 146.018 146.6 146.149 146.367 146.383C146.133 146.616 146.002 146.933 146.002 147.263V150.997C146.002 151.327 146.133 151.644 146.367 151.877C146.6 152.111 146.917 152.242 147.247 152.242H177.12C177.45 152.242 177.766 152.111 178 151.877C178.233 151.644 178.364 151.327 178.364 150.997V147.263C178.364 146.933 178.233 146.616 178 146.383C177.766 146.149 177.45 146.018 177.12 146.018H174.63V136.061H177.12ZM175.875 148.508V149.752H148.491V148.508H175.875ZM152.225 146.018V136.061H154.715V146.018H152.225ZM157.204 146.018V136.061H158.449V146.018H157.204ZM160.938 146.018V136.061H163.428V146.018H160.938ZM165.917 146.018V136.061H167.162V146.018H165.917ZM169.651 146.018V136.061H172.141V146.018H169.651ZM148.491 133.571V133.041L162.183 125.054L175.875 133.041V133.571H148.491Z" fill="white"/>
<path d="M167.161 164.688H157.204C156.874 164.688 156.557 164.82 156.324 165.053C156.09 165.286 155.959 165.603 155.959 165.933C155.959 166.263 156.09 166.58 156.324 166.813C156.557 167.047 156.874 167.178 157.204 167.178H167.161C167.491 167.178 167.808 167.047 168.041 166.813C168.275 166.58 168.406 166.263 168.406 165.933C168.406 165.603 168.275 165.286 168.041 165.053C167.808 164.82 167.491 164.688 167.161 164.688Z" fill="white"/>
<g filter="url(#filter3_f_198_328)">
<path d="M350.88 57.1214L377.456 30.0009C379.337 28.0816 381.911 27 384.599 27L547.198 27C552.721 27 557.198 31.4772 557.198 37V165.634C557.198 168.273 556.155 170.804 554.297 172.677L523.996 203.216L492.631 234.704C490.755 236.588 488.205 237.647 485.546 237.647H324.804C319.281 237.647 314.804 233.17 314.804 227.647L314.803 98.8506C314.803 96.2753 315.796 93.7992 317.576 91.9382L350.88 57.1214Z" fill="#FF5E01"/>
</g>
<path d="M384.599 27.5H547.198C552.445 27.5001 556.698 31.7534 556.698 37V165.634C556.698 168.14 555.707 170.546 553.941 172.325L523.642 202.863L492.277 234.352C490.495 236.141 488.073 237.147 485.547 237.147H324.804C319.557 237.147 315.304 232.894 315.304 227.647L315.303 98.8506C315.303 96.4042 316.247 94.0521 317.938 92.2842L351.236 57.4707L351.237 57.4717L377.813 30.3506C379.6 28.5273 382.046 27.5 384.599 27.5Z" fill="#FF5100" stroke="white"/>
<g filter="url(#filter4_f_198_328)">
<path d="M359.629 64.8507L383.171 40.8261C385.052 38.9068 387.626 37.8252 390.314 37.8252L534.741 37.8252C540.264 37.8252 544.741 42.3024 544.741 47.8252V161.787C544.741 164.425 543.698 166.957 541.84 168.83L514.952 195.929L487.112 223.879C485.236 225.763 482.686 226.822 480.027 226.822H337.261C331.738 226.822 327.261 222.344 327.261 216.822L327.26 102.703C327.26 100.128 328.253 97.6519 330.033 95.7908L359.629 64.8507Z" fill="#FF833B"/>
</g>
<g filter="url(#filter5_d_198_328)">
<path d="M359.629 64.8507L383.171 40.8261C385.052 38.9068 387.626 37.8252 390.314 37.8252L534.741 37.8252C540.264 37.8252 544.741 42.3024 544.741 47.8252V161.787C544.741 164.425 543.698 166.957 541.84 168.83L514.952 195.929L487.112 223.879C485.236 225.763 482.686 226.822 480.027 226.822H337.261C331.738 226.822 327.261 222.344 327.261 216.822L327.26 102.703C327.26 100.128 328.253 97.6519 330.033 95.7908L359.629 64.8507Z" fill="#FF5100"/>
<path d="M390.313 38.3252H534.741C539.988 38.3253 544.241 42.5786 544.241 47.8252V161.787C544.241 164.294 543.25 166.698 541.484 168.478L514.598 195.576L486.758 223.525C484.975 225.315 482.553 226.321 480.027 226.321H337.261C332.014 226.321 327.761 222.068 327.761 216.821L327.76 102.703C327.76 100.257 328.704 97.9046 330.395 96.1367L359.99 65.1963L359.989 65.1953L383.528 41.1758C385.315 39.3525 387.761 38.3252 390.313 38.3252Z" stroke="white"/>
</g>
<path fill-rule="evenodd" clip-rule="evenodd" d="M450.147 171.69H421.853C417.547 171.69 414.164 168.154 414.164 164.002V100.647C414.164 96.4948 417.547 92.958 421.853 92.958H450.147C454.453 92.958 457.836 96.4948 457.836 100.647V164.002C457.836 168.154 454.453 171.69 450.147 171.69ZM421.853 94.8033C418.624 94.8033 416.009 97.4175 416.009 100.647V164.002C416.009 167.231 418.624 169.845 421.853 169.845H450.147C453.376 169.845 455.991 167.231 455.991 164.002V100.647C455.991 97.4175 453.376 94.8033 450.147 94.8033H421.853Z" fill="white"/>
<path fill-rule="evenodd" clip-rule="evenodd" d="M456.913 105.875H415.087C414.625 105.875 414.164 105.413 414.164 104.952C414.164 104.337 414.625 104.029 415.087 104.029H456.913C457.375 104.029 457.836 104.337 457.836 104.952C457.836 105.413 457.375 105.875 456.913 105.875Z" fill="white"/>
<path fill-rule="evenodd" clip-rule="evenodd" d="M456.913 160.926H415.087C414.625 160.926 414.164 160.465 414.164 160.004C414.164 159.542 414.625 159.081 415.087 159.081H456.913C457.375 159.081 457.836 159.542 457.836 160.004C457.836 160.465 457.375 160.926 456.913 160.926Z" fill="white"/>
<path fill-rule="evenodd" clip-rule="evenodd" d="M439.69 166.308H432.155C431.694 166.308 431.232 165.847 431.232 165.386C431.232 164.924 431.694 164.463 432.155 164.463H439.69C440.151 164.463 440.613 164.924 440.613 165.386C440.613 165.847 440.151 166.308 439.69 166.308Z" fill="white"/>
<path fill-rule="evenodd" clip-rule="evenodd" d="M431.848 100.339H430.003C429.541 100.339 429.08 99.8781 429.08 99.4168C429.08 98.9555 429.541 98.4941 430.003 98.4941H431.848C432.309 98.4941 432.771 98.9555 432.771 99.4168C432.771 99.8781 432.309 100.339 431.848 100.339Z" fill="white"/>
<path fill-rule="evenodd" clip-rule="evenodd" d="M436.922 100.339H435.077C434.616 100.339 434.154 99.8781 434.154 99.4168C434.154 98.9555 434.616 98.4941 435.077 98.4941H436.922C437.384 98.4941 437.845 98.9555 437.845 99.4168C437.845 99.8781 437.384 100.339 436.922 100.339Z" fill="white"/>
<path fill-rule="evenodd" clip-rule="evenodd" d="M441.996 100.339H440.151C439.69 100.339 439.229 99.8781 439.229 99.4168C439.229 98.9555 439.69 98.4941 440.151 98.4941H441.996C442.458 98.4941 442.919 98.9555 442.919 99.4168C442.919 99.8781 442.458 100.339 441.996 100.339Z" fill="white"/>
<path fill-rule="evenodd" clip-rule="evenodd" d="M451.07 132.478H420.93C420.469 132.478 420.008 132.016 420.008 131.555V128.018C420.008 127.557 420.469 127.096 420.93 127.096H451.07C451.532 127.096 451.993 127.557 451.993 128.018V131.555C451.993 132.016 451.532 132.478 451.07 132.478ZM421.853 130.633H450.148V128.941H421.853V130.633Z" fill="white"/>
<path fill-rule="evenodd" clip-rule="evenodd" d="M448.764 147.394H423.237C422.776 147.394 422.314 146.933 422.314 146.472V131.555C422.314 130.94 422.776 130.633 423.237 130.633H448.764C449.225 130.633 449.686 130.94 449.686 131.555V146.472C449.686 146.933 449.225 147.394 448.764 147.394ZM424.16 145.549H447.841V132.478H424.16V145.549Z" fill="white"/>
<path fill-rule="evenodd" clip-rule="evenodd" d="M442.304 147.394H439.075C438.46 147.394 438.152 146.933 438.152 146.472V131.555C438.152 130.94 438.46 130.633 439.075 130.633H442.304C442.919 130.633 443.227 130.94 443.227 131.555V146.472C443.227 146.933 442.919 147.394 442.304 147.394ZM439.998 145.549H441.382V132.478H439.998V145.549Z" fill="white"/>
<path fill-rule="evenodd" clip-rule="evenodd" d="M432.616 147.394H429.233C428.772 147.394 428.311 146.933 428.311 146.472V131.555C428.311 130.94 428.772 130.633 429.233 130.633H432.616C433.078 130.633 433.539 130.94 433.539 131.555V146.472C433.539 146.933 433.078 147.394 432.616 147.394ZM430.156 145.549H431.694V132.478H430.156V145.549Z" fill="white"/>
<path fill-rule="evenodd" clip-rule="evenodd" d="M453.377 128.941H418.624C418.162 128.941 417.701 128.634 417.701 128.018V125.097C417.701 124.789 417.855 124.482 418.162 124.328L435.539 113.871C435.847 113.717 436.154 113.717 436.462 113.871L453.838 124.328C454.146 124.482 454.299 124.789 454.299 125.097V128.018C454.299 128.634 453.838 128.941 453.377 128.941ZM419.546 127.096H452.454V125.558L436 115.716L419.546 125.558V127.096Z" fill="white"/>
<path fill-rule="evenodd" clip-rule="evenodd" d="M451.07 150.931H420.93C420.469 150.931 420.008 150.47 420.008 150.008V146.471C420.008 146.01 420.469 145.549 420.93 145.549H451.07C451.532 145.549 451.993 146.01 451.993 146.471V150.008C451.993 150.47 451.532 150.931 451.07 150.931ZM421.853 149.086H450.148V147.394H421.853V149.086Z" fill="white"/>
<g filter="url(#filter6_f_198_328)">
<path d="M665.88 57.1214L692.456 30.0009C694.337 28.0816 696.911 27 699.599 27L862.198 27C867.721 27 872.198 31.4772 872.198 37V165.634C872.198 168.273 871.155 170.804 869.297 172.677L838.996 203.216L807.631 234.704C805.755 236.588 803.205 237.647 800.546 237.647H639.804C634.281 237.647 629.804 233.17 629.804 227.647L629.803 98.8506C629.803 96.2753 630.796 93.7992 632.576 91.9382L665.88 57.1214Z" fill="#FF5E01"/>
</g>
<path d="M699.599 27.5H862.198C867.445 27.5001 871.698 31.7534 871.698 37V165.634C871.698 168.14 870.707 170.546 868.941 172.325L838.642 202.863L807.277 234.352C805.495 236.141 803.073 237.147 800.547 237.147H639.804C634.557 237.147 630.304 232.894 630.304 227.647L630.303 98.8506C630.303 96.4042 631.247 94.0521 632.938 92.2842L666.236 57.4707L666.237 57.4717L692.813 30.3506C694.6 28.5273 697.046 27.5 699.599 27.5Z" fill="#FF5100" stroke="white"/>
<g filter="url(#filter7_f_198_328)">
<path d="M674.629 64.8507L698.171 40.8261C700.052 38.9068 702.626 37.8252 705.314 37.8252L849.741 37.8252C855.264 37.8252 859.741 42.3024 859.741 47.8252V161.787C859.741 164.425 858.698 166.957 856.84 168.83L829.952 195.929L802.112 223.879C800.236 225.763 797.686 226.822 795.027 226.822H652.261C646.738 226.822 642.261 222.344 642.261 216.822L642.26 102.703C642.26 100.128 643.253 97.6519 645.033 95.7908L674.629 64.8507Z" fill="#FF833B"/>
</g>
<g filter="url(#filter8_d_198_328)">
<path d="M674.629 64.8507L698.171 40.8261C700.052 38.9068 702.626 37.8252 705.314 37.8252L849.741 37.8252C855.264 37.8252 859.741 42.3024 859.741 47.8252V161.787C859.741 164.425 858.698 166.957 856.84 168.83L829.952 195.929L802.112 223.879C800.236 225.763 797.686 226.822 795.027 226.822H652.261C646.738 226.822 642.261 222.344 642.261 216.822L642.26 102.703C642.26 100.128 643.253 97.6519 645.033 95.7908L674.629 64.8507Z" fill="#FF5100"/>
<path d="M705.313 38.3252H849.741C854.988 38.3253 859.241 42.5786 859.241 47.8252V161.787C859.241 164.294 858.25 166.698 856.484 168.478L829.598 195.576L801.758 223.525C799.975 225.315 797.553 226.321 795.027 226.321H652.261C647.014 226.321 642.761 222.068 642.761 216.821L642.76 102.703C642.76 100.257 643.704 97.9046 645.395 96.1367L674.99 65.1963L674.989 65.1953L698.528 41.1758C700.315 39.3525 702.761 38.3252 705.313 38.3252Z" stroke="white"/>
</g>
<path d="M733.801 138.227H768.197C768.51 138.227 768.81 138.103 769.031 137.882C769.253 137.66 769.377 137.36 769.377 137.047V120.524C769.377 120.211 769.253 119.911 769.031 119.689C768.81 119.468 768.51 119.344 768.197 119.344H733.801C733.488 119.344 733.188 119.468 732.967 119.689C732.745 119.911 732.621 120.211 732.621 120.524V137.047C732.621 137.36 732.745 137.66 732.967 137.882C733.188 138.103 733.488 138.227 733.801 138.227ZM734.982 121.704H767.016V135.867H734.982V121.704Z" fill="white"/>
<path d="M756.311 146.147H754.288C753.975 146.147 753.674 146.272 753.453 146.493C753.232 146.714 753.107 147.015 753.107 147.328C753.107 147.641 753.232 147.941 753.453 148.162C753.674 148.384 753.975 148.508 754.288 148.508H756.311C756.624 148.508 756.924 148.384 757.145 148.162C757.367 147.941 757.491 147.641 757.491 147.328C757.491 147.015 757.367 146.714 757.145 146.493C756.924 146.272 756.624 146.147 756.311 146.147Z" fill="white"/>
<path d="M762.262 146.152H760.239C759.926 146.152 759.626 146.277 759.404 146.498C759.183 146.719 759.059 147.02 759.059 147.333C759.059 147.646 759.183 147.946 759.404 148.167C759.626 148.388 759.926 148.513 760.239 148.513H762.262C762.575 148.513 762.875 148.388 763.097 148.167C763.318 147.946 763.442 147.646 763.442 147.333C763.442 147.02 763.318 146.719 763.097 146.498C762.875 146.277 762.575 146.152 762.262 146.152Z" fill="white"/>
<path d="M768.194 146.147H766.17C765.857 146.147 765.557 146.272 765.336 146.493C765.115 146.714 764.99 147.015 764.99 147.328C764.99 147.641 765.115 147.941 765.336 148.162C765.557 148.384 765.857 148.508 766.17 148.508H768.194C768.507 148.508 768.807 148.384 769.028 148.162C769.25 147.941 769.374 147.641 769.374 147.328C769.374 147.015 769.25 146.714 769.028 146.493C768.807 146.272 768.507 146.147 768.194 146.147Z" fill="white"/>
<path d="M756.311 149.859H754.288C753.975 149.859 753.674 149.984 753.453 150.205C753.232 150.426 753.107 150.727 753.107 151.04C753.107 151.353 753.232 151.653 753.453 151.874C753.674 152.095 753.975 152.22 754.288 152.22H756.311C756.624 152.22 756.924 152.095 757.145 151.874C757.367 151.653 757.491 151.353 757.491 151.04C757.491 150.727 757.367 150.426 757.145 150.205C756.924 149.984 756.624 149.859 756.311 149.859Z" fill="white"/>
<path d="M762.262 149.859H760.239C759.926 149.859 759.626 149.984 759.404 150.205C759.183 150.426 759.059 150.727 759.059 151.04C759.059 151.353 759.183 151.653 759.404 151.874C759.626 152.095 759.926 152.22 760.239 152.22H762.262C762.575 152.22 762.875 152.095 763.097 151.874C763.318 151.653 763.442 151.353 763.442 151.04C763.442 150.727 763.318 150.426 763.097 150.205C762.875 149.984 762.575 149.859 762.262 149.859Z" fill="white"/>
<path d="M768.194 149.859H766.17C765.857 149.859 765.557 149.984 765.336 150.205C765.115 150.426 764.99 150.727 764.99 151.04C764.99 151.353 765.115 151.653 765.336 151.874C765.557 152.095 765.857 152.22 766.17 152.22H768.194C768.507 152.22 768.807 152.095 769.028 151.874C769.25 151.653 769.374 151.353 769.374 151.04C769.374 150.727 769.25 150.426 769.028 150.205C768.807 149.984 768.507 149.859 768.194 149.859Z" fill="white"/>
<path d="M756.311 153.566H754.288C753.975 153.566 753.674 153.691 753.453 153.912C753.232 154.133 753.107 154.434 753.107 154.747C753.107 155.06 753.232 155.36 753.453 155.581C753.674 155.803 753.975 155.927 754.288 155.927H756.311C756.624 155.927 756.924 155.803 757.145 155.581C757.367 155.36 757.491 155.06 757.491 154.747C757.491 154.434 757.367 154.133 757.145 153.912C756.924 153.691 756.624 153.566 756.311 153.566Z" fill="white"/>
<path d="M762.262 153.566H760.239C759.926 153.566 759.626 153.691 759.404 153.912C759.183 154.133 759.059 154.434 759.059 154.747C759.059 155.06 759.183 155.36 759.404 155.581C759.626 155.803 759.926 155.927 760.239 155.927H762.262C762.575 155.927 762.875 155.803 763.097 155.581C763.318 155.36 763.442 155.06 763.442 154.747C763.442 154.434 763.318 154.133 763.097 153.912C762.875 153.691 762.575 153.566 762.262 153.566Z" fill="white"/>
<path d="M768.194 153.566H766.17C765.857 153.566 765.557 153.691 765.336 153.912C765.115 154.133 764.99 154.434 764.99 154.747C764.99 155.06 765.115 155.36 765.336 155.581C765.557 155.803 765.857 155.927 766.17 155.927H768.194C768.507 155.927 768.807 155.803 769.028 155.581C769.25 155.36 769.374 155.06 769.374 154.747C769.374 154.434 769.25 154.133 769.028 153.912C768.807 153.691 768.507 153.566 768.194 153.566Z" fill="white"/>
<path d="M777.847 92.3643H724.153C723.84 92.3643 723.54 92.4886 723.318 92.7099C723.097 92.9313 722.973 93.2315 722.973 93.5445V114.451C722.973 114.764 723.097 115.065 723.318 115.286C723.54 115.507 723.84 115.632 724.153 115.632H726.552V171.103C726.552 171.416 726.677 171.716 726.898 171.937C727.119 172.158 727.42 172.283 727.733 172.283H774.268C774.581 172.283 774.881 172.158 775.102 171.937C775.323 171.716 775.448 171.416 775.448 171.103V115.632H777.847C778.16 115.632 778.461 115.507 778.682 115.286C778.903 115.065 779.028 114.764 779.028 114.451V93.5445C779.028 93.2315 778.903 92.9313 778.682 92.7099C778.461 92.4886 778.16 92.3643 777.847 92.3643ZM773.087 169.922H728.913V115.632H773.087V169.922ZM776.667 113.271H725.333V94.7247H776.667V113.271Z" fill="white"/>
<path d="M738.065 106.088H742.545L743.246 107.761H745.108L741.236 98.4951H739.36L735.488 107.764H737.364L738.065 106.088ZM740.305 100.731L741.937 104.63H738.672L740.305 100.731Z" fill="white"/>
<path d="M748.652 107.764H750.324V100.033H753.292V98.4951H745.684V100.033H748.652V107.764Z" fill="white"/>
<path d="M757.214 101.57L760.263 107.223L763.326 101.57V107.764H764.999V98.4951H763.326L760.263 104.148L757.214 98.4951H755.527V107.764H757.214V101.57Z" fill="white"/>
<path d="M747.29 146.152H733.801C733.488 146.152 733.188 146.277 732.967 146.498C732.745 146.719 732.621 147.02 732.621 147.333C732.621 147.646 732.745 147.946 732.967 148.167C733.188 148.388 733.488 148.513 733.801 148.513H747.29C747.603 148.513 747.903 148.388 748.124 148.167C748.346 147.946 748.47 147.646 748.47 147.333C748.47 147.02 748.346 146.719 748.124 146.498C747.903 146.277 747.603 146.152 747.29 146.152Z" fill="white"/>
<g filter="url(#filter9_f_198_328)">
<path d="M968.88 57.1214L995.456 30.0009C997.337 28.0816 999.911 27 1002.6 27L1165.2 27C1170.72 27 1175.2 31.4772 1175.2 37V165.634C1175.2 168.273 1174.16 170.804 1172.3 172.677L1142 203.216L1110.63 234.704C1108.75 236.588 1106.21 237.647 1103.55 237.647H942.804C937.281 237.647 932.804 233.17 932.804 227.647L932.803 98.8506C932.803 96.2753 933.796 93.7992 935.576 91.9382L968.88 57.1214Z" fill="#FF5E01"/>
</g>
<path d="M1002.2 27.5H1164.8C1170.05 27.5001 1174.3 31.7534 1174.3 37V165.634C1174.3 168.14 1173.31 170.546 1171.55 172.325L1141.25 202.863L1109.88 234.352C1108.1 236.141 1105.68 237.147 1103.15 237.147H942.409C937.163 237.147 932.909 232.894 932.909 227.647L932.908 98.8506C932.908 96.4042 933.852 94.0521 935.543 92.2842L968.842 57.4707L968.843 57.4717L995.419 30.3506C997.206 28.5273 999.651 27.5 1002.2 27.5Z" fill="#FF5100" stroke="white"/>
<g filter="url(#filter10_f_198_328)">
<path d="M977.629 64.8507L1001.17 40.8261C1003.05 38.9068 1005.63 37.8252 1008.31 37.8252L1152.74 37.8252C1158.26 37.8252 1162.74 42.3024 1162.74 47.8252V161.787C1162.74 164.425 1161.7 166.957 1159.84 168.83L1132.95 195.929L1105.11 223.879C1103.24 225.763 1100.69 226.822 1098.03 226.822H955.261C949.738 226.822 945.261 222.344 945.261 216.822L945.26 102.703C945.26 100.128 946.253 97.6519 948.033 95.7908L977.629 64.8507Z" fill="#FF833B"/>
</g>
<g filter="url(#filter11_d_198_328)">
<path d="M977.234 64.8507L1000.78 40.8261C1002.66 38.9068 1005.23 37.8252 1007.92 37.8252L1152.35 37.8252C1157.87 37.8252 1162.35 42.3024 1162.35 47.8252V161.787C1162.35 164.425 1161.3 166.957 1159.45 168.83L1132.56 195.929L1104.72 223.879C1102.84 225.763 1100.29 226.822 1097.63 226.822H954.866C949.344 226.822 944.866 222.344 944.866 216.822L944.865 102.703C944.865 100.128 945.859 97.6519 947.639 95.7908L977.234 64.8507Z" fill="#FF5100"/>
<path d="M1007.92 38.3252H1152.35C1157.59 38.3253 1161.85 42.5786 1161.85 47.8252V161.787C1161.85 164.294 1160.86 166.698 1159.09 168.478L1132.2 195.576L1104.36 223.525C1102.58 225.315 1100.16 226.321 1097.63 226.321H954.866C949.62 226.321 945.366 222.068 945.366 216.821L945.365 102.703C945.365 100.257 946.309 97.9046 948 96.1367L977.596 65.1963L977.595 65.1953L1001.13 41.1758C1002.92 39.3525 1005.37 38.3252 1007.92 38.3252Z" stroke="white"/>
</g>
<path d="M1034.44 149.914L1029.91 150.922C1027.51 151.443 1025.37 152.772 1023.83 154.687C1022.29 156.602 1021.46 158.986 1021.47 161.442V163.621C1021.47 165.098 1021.96 166.533 1022.86 167.707C1023.75 168.881 1025.01 169.729 1026.43 170.121C1030.8 171.313 1039.1 172.737 1053.8 172.737C1068.51 172.737 1076.8 171.313 1081.17 170.121C1082.6 169.729 1083.85 168.881 1084.75 167.707C1085.65 166.533 1086.13 165.098 1086.13 163.621V161.442C1086.15 158.986 1085.31 156.602 1083.78 154.687C1082.24 152.772 1080.09 151.443 1077.69 150.922L1073.17 149.914L1066.99 146.211L1064.51 140.419L1065.32 139.488L1065.93 139.651C1066.56 139.819 1067.22 139.905 1067.87 139.905C1069.86 139.901 1071.76 139.109 1073.17 137.703C1074.57 136.297 1075.36 134.391 1075.36 132.405V130.788C1076.51 130.49 1077.53 129.819 1078.26 128.878C1079 127.937 1079.39 126.78 1079.4 125.589V120.2C1079.39 119.009 1078.99 117.853 1078.26 116.913C1077.53 115.972 1076.51 115.301 1075.36 115.003V113.465C1075.36 107.748 1073.09 102.266 1069.04 98.224C1065 94.1819 1059.52 91.9111 1053.8 91.9111C1048.09 91.9111 1042.6 94.1819 1038.56 98.224C1034.52 102.266 1032.25 107.748 1032.25 113.465V115.003C1031.1 115.301 1030.07 115.972 1029.34 116.913C1028.61 117.853 1028.21 119.009 1028.21 120.2V125.589C1028.21 127.018 1028.78 128.388 1029.79 129.399C1030.8 130.409 1032.17 130.977 1033.6 130.977H1036.29C1036.75 130.972 1037.21 130.889 1037.64 130.729V131.194C1037.64 133.117 1038.34 134.975 1039.6 136.422L1043.1 140.416L1040.62 146.209L1034.44 149.914ZM1041.3 148.943C1043.73 152.154 1047.07 154.567 1050.88 155.877C1049.58 157.149 1048.5 158.627 1047.69 160.252C1043.45 158.273 1039.75 155.295 1036.91 151.574L1041.3 148.943ZM1083.44 161.442V163.621C1083.44 164.508 1083.15 165.371 1082.61 166.077C1082.07 166.782 1081.32 167.292 1080.46 167.528C1076.25 168.671 1068.21 170.043 1053.8 170.043C1039.4 170.043 1031.35 168.671 1027.14 167.521C1026.29 167.286 1025.53 166.777 1025 166.073C1024.46 165.368 1024.17 164.507 1024.17 163.621V161.442C1024.16 159.6 1024.78 157.811 1025.93 156.375C1027.09 154.939 1028.7 153.942 1030.5 153.553L1034.37 152.692C1035.89 154.73 1040.49 160.325 1047.01 162.882C1047.57 163.096 1048.18 163.091 1048.74 162.867C1049.29 162.644 1049.74 162.219 1049.99 161.677C1050.88 159.807 1052.18 158.167 1053.8 156.884C1055.43 158.167 1056.73 159.807 1057.62 161.676C1057.81 162.083 1058.11 162.427 1058.49 162.668C1058.87 162.909 1059.31 163.037 1059.76 163.038C1060.05 163.038 1060.33 162.984 1060.6 162.878C1067.12 160.318 1071.72 154.726 1073.24 152.688L1077.11 153.549C1078.91 153.939 1080.52 154.936 1081.67 156.373C1082.83 157.81 1083.45 159.6 1083.44 161.442ZM1059.92 160.252C1059.1 158.627 1058.02 157.148 1056.72 155.877C1060.54 154.567 1063.87 152.154 1066.31 148.943L1070.7 151.574C1067.86 155.295 1064.16 158.272 1059.92 160.252ZM1070.79 136.21C1069.81 136.954 1068.59 137.292 1067.37 137.153L1068 136.423C1069.27 134.976 1069.97 133.117 1069.97 131.194V130.729C1070.4 130.889 1070.86 130.972 1071.32 130.977H1072.66V132.405C1072.67 133.141 1072.5 133.867 1072.17 134.527C1071.85 135.187 1071.37 135.764 1070.79 136.21ZM1067.27 114.792C1054.9 114.42 1052.38 108.963 1052.36 108.924C1052.26 108.673 1052.09 108.459 1051.86 108.308C1051.64 108.157 1051.38 108.076 1051.11 108.076C1047.19 108.082 1043.42 109.578 1040.56 112.26C1041.77 105.575 1047.54 99.9937 1053.8 99.9937C1057.37 99.9976 1060.8 101.418 1063.32 103.944C1065.85 106.469 1067.27 109.893 1067.27 113.465V114.792ZM1076.7 120.2V125.589C1076.7 126.303 1076.42 126.988 1075.91 127.494C1075.41 127.999 1074.72 128.283 1074.01 128.283H1071.32C1070.96 128.283 1070.62 128.141 1070.36 127.888C1070.11 127.636 1069.97 127.293 1069.97 126.936V118.853C1069.97 118.496 1070.11 118.153 1070.36 117.901C1070.62 117.648 1070.96 117.506 1071.32 117.506H1074.01C1074.72 117.506 1075.41 117.79 1075.91 118.295C1076.42 118.8 1076.7 119.486 1076.7 120.2ZM1053.8 94.6053C1058.8 94.6107 1063.6 96.5994 1067.13 100.135C1070.67 103.671 1072.66 108.465 1072.66 113.465V114.812H1071.32C1070.86 114.816 1070.4 114.9 1069.97 115.06V113.465C1069.96 109.179 1068.26 105.07 1065.23 102.039C1062.2 99.0088 1058.09 97.3042 1053.8 97.2995C1045.19 97.2995 1037.64 105.483 1037.64 114.812V115.06C1037.21 114.9 1036.75 114.816 1036.29 114.812H1034.94V113.465C1034.95 108.465 1036.94 103.671 1040.47 100.135C1044.01 96.5994 1048.8 94.6107 1053.8 94.6053ZM1036.29 128.283H1033.6C1032.88 128.283 1032.2 127.999 1031.69 127.494C1031.19 126.988 1030.9 126.303 1030.9 125.589V120.2C1030.9 119.486 1031.19 118.8 1031.69 118.295C1032.2 117.79 1032.88 117.506 1033.6 117.506H1036.29C1036.65 117.506 1036.99 117.648 1037.24 117.901C1037.5 118.153 1037.64 118.496 1037.64 118.853V126.936C1037.64 127.293 1037.5 127.636 1037.24 127.888C1036.99 128.141 1036.65 128.283 1036.29 128.283ZM1040.33 131.194V116.563C1041.47 114.92 1042.95 113.55 1044.69 112.552C1046.42 111.555 1048.35 110.955 1050.34 110.796C1051.61 112.721 1055.8 117.148 1067.27 117.476V131.194C1067.27 132.465 1066.81 133.693 1065.98 134.649L1064.4 136.45L1060.63 135.443L1060.67 135.276C1060.75 134.931 1060.76 134.574 1060.71 134.225C1060.65 133.875 1060.53 133.54 1060.34 133.238C1060.16 132.937 1059.92 132.674 1059.63 132.467C1059.34 132.259 1059.02 132.11 1058.67 132.028L1054.74 131.085C1053.7 130.835 1052.6 131.01 1051.69 131.571C1050.77 132.131 1050.12 133.032 1049.87 134.075C1049.62 135.118 1049.79 136.217 1050.36 137.132C1050.92 138.046 1051.82 138.699 1052.86 138.949L1056.79 139.892C1057 139.942 1057.21 139.967 1057.42 139.967C1058 139.968 1058.56 139.783 1059.02 139.439C1059.48 139.096 1059.82 138.613 1059.98 138.063L1062.42 138.715L1060.4 141.013C1059.83 141.669 1059.12 142.194 1058.33 142.554C1057.54 142.914 1056.68 143.101 1055.8 143.101H1051.8C1050.93 143.1 1050.07 142.914 1049.28 142.554C1048.48 142.194 1047.78 141.668 1047.2 141.013L1041.63 134.648C1040.8 133.692 1040.33 132.465 1040.33 131.194ZM1058.05 134.649L1057.42 137.268L1053.49 136.325C1053.32 136.286 1053.15 136.212 1053.01 136.109C1052.86 136.006 1052.74 135.875 1052.64 135.723C1052.55 135.572 1052.48 135.403 1052.46 135.227C1052.43 135.051 1052.43 134.871 1052.48 134.697C1052.52 134.524 1052.59 134.36 1052.7 134.216C1052.8 134.072 1052.94 133.95 1053.09 133.858C1053.24 133.765 1053.41 133.704 1053.59 133.678C1053.76 133.652 1053.94 133.661 1054.12 133.705L1058.05 134.649ZM1045.17 142.787C1046 143.732 1047.02 144.49 1048.16 145.008C1049.3 145.527 1050.55 145.795 1051.8 145.795H1055.8C1057.06 145.795 1058.3 145.527 1059.45 145.008C1060.59 144.489 1061.61 143.732 1062.44 142.787L1062.54 142.664L1064.4 146.995C1061.84 150.52 1058.06 152.967 1053.8 153.857C1049.54 152.967 1045.76 150.52 1043.21 146.995L1045.06 142.664L1045.17 142.787Z" fill="white"/>
<defs>
<filter id="filter0_f_198_328" x="16.8027" y="19" width="258.396" height="226.647" filterUnits="userSpaceOnUse" color-interpolation-filters="sRGB">
<feFlood flood-opacity="0" result="BackgroundImageFix"/>
<feBlend mode="normal" in="SourceGraphic" in2="BackgroundImageFix" result="shape"/>
<feGaussianBlur stdDeviation="4" result="effect1_foregroundBlur_198_328"/>
</filter>
<filter id="filter1_f_198_328" x="0.359764" y="0.925194" width="291.281" height="262.796" filterUnits="userSpaceOnUse" color-interpolation-filters="sRGB">
<feFlood flood-opacity="0" result="BackgroundImageFix"/>
<feBlend mode="normal" in="SourceGraphic" in2="BackgroundImageFix" result="shape"/>
<feGaussianBlur stdDeviation="18.45" result="effect1_foregroundBlur_198_328"/>
</filter>
<filter id="filter2_d_198_328" x="11.5598" y="13.1252" width="274.881" height="246.396" filterUnits="userSpaceOnUse" color-interpolation-filters="sRGB">
<feFlood flood-opacity="0" result="BackgroundImageFix"/>
<feColorMatrix in="SourceAlpha" type="matrix" values="0 0 0 0 0 0 0 0 0 0 0 0 0 0 0 0 0 0 127 0" result="hardAlpha"/>
<feOffset dx="3" dy="4"/>
<feGaussianBlur stdDeviation="14.35"/>
<feComposite in2="hardAlpha" operator="out"/>
<feColorMatrix type="matrix" values="0 0 0 0 1 0 0 0 0 1 0 0 0 0 1 0 0 0 0.25 0"/>
<feBlend mode="normal" in2="BackgroundImageFix" result="effect1_dropShadow_198_328"/>
<feBlend mode="normal" in="SourceGraphic" in2="effect1_dropShadow_198_328" result="shape"/>
</filter>
<filter id="filter3_f_198_328" x="306.803" y="19" width="258.396" height="226.647" filterUnits="userSpaceOnUse" color-interpolation-filters="sRGB">
<feFlood flood-opacity="0" result="BackgroundImageFix"/>
<feBlend mode="normal" in="SourceGraphic" in2="BackgroundImageFix" result="shape"/>
<feGaussianBlur stdDeviation="4" result="effect1_foregroundBlur_198_328"/>
</filter>
<filter id="filter4_f_198_328" x="290.36" y="0.925194" width="291.281" height="262.796" filterUnits="userSpaceOnUse" color-interpolation-filters="sRGB">
<feFlood flood-opacity="0" result="BackgroundImageFix"/>
<feBlend mode="normal" in="SourceGraphic" in2="BackgroundImageFix" result="shape"/>
<feGaussianBlur stdDeviation="18.45" result="effect1_foregroundBlur_198_328"/>
</filter>
<filter id="filter5_d_198_328" x="301.56" y="13.1252" width="274.881" height="246.396" filterUnits="userSpaceOnUse" color-interpolation-filters="sRGB">
<feFlood flood-opacity="0" result="BackgroundImageFix"/>
<feColorMatrix in="SourceAlpha" type="matrix" values="0 0 0 0 0 0 0 0 0 0 0 0 0 0 0 0 0 0 127 0" result="hardAlpha"/>
<feOffset dx="3" dy="4"/>
<feGaussianBlur stdDeviation="14.35"/>
<feComposite in2="hardAlpha" operator="out"/>
<feColorMatrix type="matrix" values="0 0 0 0 1 0 0 0 0 1 0 0 0 0 1 0 0 0 0.25 0"/>
<feBlend mode="normal" in2="BackgroundImageFix" result="effect1_dropShadow_198_328"/>
<feBlend mode="normal" in="SourceGraphic" in2="effect1_dropShadow_198_328" result="shape"/>
</filter>
<filter id="filter6_f_198_328" x="621.803" y="19" width="258.396" height="226.647" filterUnits="userSpaceOnUse" color-interpolation-filters="sRGB">
<feFlood flood-opacity="0" result="BackgroundImageFix"/>
<feBlend mode="normal" in="SourceGraphic" in2="BackgroundImageFix" result="shape"/>
<feGaussianBlur stdDeviation="4" result="effect1_foregroundBlur_198_328"/>
</filter>
<filter id="filter7_f_198_328" x="605.36" y="0.925194" width="291.281" height="262.796" filterUnits="userSpaceOnUse" color-interpolation-filters="sRGB">
<feFlood flood-opacity="0" result="BackgroundImageFix"/>
<feBlend mode="normal" in="SourceGraphic" in2="BackgroundImageFix" result="shape"/>
<feGaussianBlur stdDeviation="18.45" result="effect1_foregroundBlur_198_328"/>
</filter>
<filter id="filter8_d_198_328" x="616.56" y="13.1252" width="274.881" height="246.396" filterUnits="userSpaceOnUse" color-interpolation-filters="sRGB">
<feFlood flood-opacity="0" result="BackgroundImageFix"/>
<feColorMatrix in="SourceAlpha" type="matrix" values="0 0 0 0 0 0 0 0 0 0 0 0 0 0 0 0 0 0 127 0" result="hardAlpha"/>
<feOffset dx="3" dy="4"/>
<feGaussianBlur stdDeviation="14.35"/>
<feComposite in2="hardAlpha" operator="out"/>
<feColorMatrix type="matrix" values="0 0 0 0 1 0 0 0 0 1 0 0 0 0 1 0 0 0 0.25 0"/>
<feBlend mode="normal" in2="BackgroundImageFix" result="effect1_dropShadow_198_328"/>
<feBlend mode="normal" in="SourceGraphic" in2="effect1_dropShadow_198_328" result="shape"/>
</filter>
<filter id="filter9_f_198_328" x="924.803" y="19" width="258.396" height="226.647" filterUnits="userSpaceOnUse" color-interpolation-filters="sRGB">
<feFlood flood-opacity="0" result="BackgroundImageFix"/>
<feBlend mode="normal" in="SourceGraphic" in2="BackgroundImageFix" result="shape"/>
<feGaussianBlur stdDeviation="4" result="effect1_foregroundBlur_198_328"/>
</filter>
<filter id="filter10_f_198_328" x="908.36" y="0.925194" width="291.281" height="262.796" filterUnits="userSpaceOnUse" color-interpolation-filters="sRGB">
<feFlood flood-opacity="0" result="BackgroundImageFix"/>
<feBlend mode="normal" in="SourceGraphic" in2="BackgroundImageFix" result="shape"/>
<feGaussianBlur stdDeviation="18.45" result="effect1_foregroundBlur_198_328"/>
</filter>
<filter id="filter11_d_198_328" x="919.165" y="13.1252" width="274.881" height="246.396" filterUnits="userSpaceOnUse" color-interpolation-filters="sRGB">
<feFlood flood-opacity="0" result="BackgroundImageFix"/>
<feColorMatrix in="SourceAlpha" type="matrix" values="0 0 0 0 0 0 0 0 0 0 0 0 0 0 0 0 0 0 127 0" result="hardAlpha"/>
<feOffset dx="3" dy="4"/>
<feGaussianBlur stdDeviation="14.35"/>
<feComposite in2="hardAlpha" operator="out"/>
<feColorMatrix type="matrix" values="0 0 0 0 1 0 0 0 0 1 0 0 0 0 1 0 0 0 0.25 0"/>
<feBlend mode="normal" in2="BackgroundImageFix" result="effect1_dropShadow_198_328"/>
<feBlend mode="normal" in="SourceGraphic" in2="effect1_dropShadow_198_328" result="shape"/>
</filter>
</defs>
</svg>
