<svg width="493" height="165" viewBox="0 0 493 165" fill="none" xmlns="http://www.w3.org/2000/svg">
<line x1="165.77" y1="75.6992" x2="326.976" y2="75.6992" stroke="white"/>
<g filter="url(#filter0_f_242_895)">
<path d="M37.644 35.7917L54.1483 18.9496C55.3164 17.7576 56.915 17.0859 58.5838 17.0859L159.56 17.0859C162.99 17.0859 165.77 19.8663 165.77 23.2961V103.179C165.77 104.818 165.123 106.39 163.968 107.553L145.152 126.518L125.674 146.073C124.508 147.243 122.925 147.9 121.274 147.9H21.4507C18.021 147.9 15.2406 145.12 15.2406 141.69L15.2398 61.706C15.2398 60.1067 15.8567 58.5691 16.9622 57.4134L37.644 35.7917Z" fill="#FF5E01"/>
</g>
<path d="M58.5835 17.3965H159.56C162.818 17.3965 165.459 20.0377 165.459 23.2959V103.18C165.459 104.736 164.844 106.23 163.748 107.335L144.931 126.299L125.454 145.854C124.347 146.965 122.843 147.59 121.274 147.59H21.4507C18.1925 147.59 15.5513 144.949 15.5513 141.69L15.5503 61.7061C15.5503 60.1867 16.1368 58.7259 17.187 57.6279L37.8677 36.0059L54.3696 19.167C55.4792 18.0347 56.9982 17.3966 58.5835 17.3965Z" fill="#FF5100" stroke="white" stroke-width="0.621012"/>
<g filter="url(#filter1_f_242_895)">
<path d="M43.0771 40.5918L57.6973 25.6722C58.8654 24.4803 60.464 23.8086 62.1328 23.8086L151.824 23.8086C155.254 23.8086 158.034 26.589 158.034 30.0187V100.79C158.034 102.429 157.386 104.001 156.232 105.164L139.535 121.993L122.246 139.35C121.08 140.52 119.497 141.178 117.846 141.178H29.1864C25.7567 141.178 22.9764 138.397 22.9763 134.968L22.9756 64.0986C22.9756 62.4993 23.5926 60.9617 24.6981 59.806L43.0771 40.5918Z" fill="#FF833B"/>
</g>
<g filter="url(#filter2_d_242_895)">
<path d="M43.0771 40.5918L57.6973 25.6722C58.8654 24.4803 60.464 23.8086 62.1328 23.8086L151.824 23.8086C155.254 23.8086 158.034 26.589 158.034 30.0187V100.79C158.034 102.429 157.386 104.001 156.232 105.164L139.535 121.993L122.246 139.35C121.08 140.52 119.497 141.178 117.846 141.178H29.1864C25.7567 141.178 22.9764 138.397 22.9763 134.968L22.9756 64.0986C22.9756 62.4993 23.5926 60.9617 24.6981 59.806L43.0771 40.5918Z" fill="#FF5100"/>
<path d="M62.1328 24.1191H151.824C155.082 24.1193 157.724 26.7604 157.724 30.0186V100.79C157.724 102.347 157.108 103.84 156.012 104.945L139.314 121.774L122.025 139.131C120.918 140.242 119.414 140.867 117.846 140.867H29.1865C25.9283 140.867 23.2873 138.226 23.2871 134.968L23.2861 64.0986C23.2861 62.5793 23.8726 61.1184 24.9229 60.0205L43.3008 40.8057L57.9189 25.8896C59.0286 24.7573 60.5474 24.1191 62.1328 24.1191Z" stroke="white" stroke-width="0.621012"/>
</g>
<path d="M38.2933 76.4922V66.6922H39.9173L44.6353 74.2382V66.6922H46.0913V76.4922H44.4813L39.7493 68.9602V76.4922H38.2933ZM48.8884 76.4922V66.6922H50.3444V76.4922H48.8884ZM53.1398 76.4922V66.6922H54.7638L59.4818 74.2382V66.6922H60.9378V76.4922H59.3278L54.5958 68.9602V76.4922H53.1398ZM70.2512 76.4922L66.5972 66.6922H68.0812L70.9652 74.7422L73.8772 66.6922H75.3612L71.7072 76.4922H70.2512ZM79.1833 76.6042C76.9993 76.6042 75.6553 74.8822 75.6553 72.9222C75.6553 70.9482 76.8873 69.3242 79.0573 69.3242C81.2273 69.3242 82.3893 70.8782 82.3893 72.6702C82.3893 72.8522 82.3753 73.0902 82.3613 73.2162H76.9853C77.0973 74.5322 77.9653 75.4422 79.1833 75.4422C80.2193 75.4422 80.8913 74.9942 81.0873 74.1962H82.4453C82.2073 75.6522 80.9333 76.6042 79.1833 76.6042ZM77.0273 72.1662H81.0173C80.9333 71.0882 80.2193 70.4162 79.0573 70.4162C77.9653 70.4162 77.2373 71.0182 77.0273 72.1662ZM84.5253 76.4922V69.4362H85.8833V70.7942C86.2053 69.8562 86.7653 69.4362 87.7593 69.4362H88.6133V70.6122H87.5913C86.3033 70.6122 85.8833 71.7602 85.8833 73.3002V76.4922H84.5253ZM90.349 76.4922V69.4362H91.707V76.4922H90.349ZM90.265 66.4822H91.777V68.1902H90.265V66.4822ZM100.503 69.4362V76.4922H99.1449V70.6122H96.2469V76.4922H94.8889V70.6122H93.4469V69.4362H94.8889V68.7502C94.8889 67.3642 95.7989 66.4822 97.2129 66.4822H98.3889V67.6582H97.3249C96.6669 67.6582 96.2469 68.0922 96.2469 68.7922V69.4362H100.503ZM106.059 76.6042C103.847 76.6042 102.573 74.9102 102.573 72.9642C102.573 71.0182 103.847 69.3242 106.059 69.3242C107.711 69.3242 109.139 70.3042 109.335 71.9002H107.977C107.851 71.1022 107.053 70.5142 106.087 70.5142C104.687 70.5142 103.987 71.6062 103.987 72.9642C103.987 74.3222 104.701 75.4142 106.101 75.4142C107.067 75.4142 107.767 74.9102 107.991 74.1122H109.335C109.111 75.5962 107.865 76.6042 106.059 76.6042ZM113.447 76.6042C112.005 76.6042 111.039 75.7362 111.039 74.4762C111.039 73.1182 112.131 72.2222 113.783 72.2222H115.267C115.589 72.2222 115.743 72.1102 115.743 71.8582C115.743 71.0042 115.113 70.4162 114.035 70.4162C113.041 70.4162 112.341 71.0322 112.299 71.7462H111.039C111.151 70.3602 112.397 69.3242 114.077 69.3242C115.897 69.3242 117.087 70.3742 117.087 71.9422V76.4922H115.743V75.3302C115.393 76.1002 114.511 76.6042 113.447 76.6042ZM113.713 75.5262C114.987 75.5262 115.743 74.7002 115.743 73.3982V73.2722H113.923C112.999 73.2722 112.397 73.7062 112.397 74.4482C112.397 75.0922 112.915 75.5262 113.713 75.5262ZM122.381 76.4922C120.953 76.4922 120.029 75.6242 120.029 74.1822V70.6122H118.587V69.4362H120.029V67.2242H121.387V69.4362H123.473V70.6122H121.387V74.1402C121.387 74.8962 121.807 75.3162 122.479 75.3162H123.473V76.4922H122.381ZM125.374 76.4922V69.4362H126.732V76.4922H125.374ZM125.29 66.4822H126.802V68.1902H125.29V66.4822ZM132.434 76.6042C130.32 76.6042 128.794 75.0782 128.794 72.9642C128.794 70.8502 130.32 69.3242 132.434 69.3242C134.548 69.3242 136.06 70.8502 136.06 72.9642C136.06 75.0782 134.548 76.6042 132.434 76.6042ZM132.434 75.4142C133.764 75.4142 134.674 74.4062 134.674 72.9642C134.674 71.5222 133.764 70.5142 132.434 70.5142C131.09 70.5142 130.18 71.5222 130.18 72.9642C130.18 74.4062 131.09 75.4142 132.434 75.4142ZM138.128 76.4922V69.4362H139.486V70.6822C139.864 69.8002 140.704 69.3242 141.754 69.3242C143.35 69.3242 144.386 70.4722 144.386 72.1522V76.4922H143.028V72.4182C143.028 71.2982 142.37 70.5422 141.376 70.5422C140.27 70.5422 139.486 71.4382 139.486 72.6702V76.4922H138.128ZM50.6764 100.34C49.5004 98.6182 48.8284 96.3922 48.8284 94.3202C48.8284 92.2482 49.5004 90.0222 50.6764 88.3002H51.9784C50.8584 90.1622 50.2004 92.3322 50.2004 94.3202C50.2004 96.3082 50.8584 98.4782 51.9784 100.34H50.6764ZM55.4366 98.4922H53.9806V88.6922H55.4366V93.2422L59.7486 88.6922H61.5826L57.8586 92.6122L61.9886 98.4922H60.2106L56.8646 93.6622L55.4366 95.1742V98.4922ZM66.0007 98.4922V94.4042L62.5707 88.6922H64.1807L66.7287 93.0182L69.2767 88.6922H70.8867L67.4567 94.4042V98.4922H66.0007ZM76.2691 98.6042C73.7351 98.6042 71.4811 96.9522 71.4811 93.5922C71.4811 90.2322 73.7631 88.5802 76.2691 88.5802C78.4811 88.5802 80.2591 89.9382 80.5111 91.8422H78.9851C78.8311 90.6942 77.6691 89.8682 76.2551 89.8682C74.3511 89.8682 72.9651 91.1702 72.9651 93.5922C72.9651 96.0142 74.3511 97.3162 76.2691 97.3162C77.7111 97.3162 78.8591 96.4902 79.0131 95.3422H80.4971C80.2871 97.2462 78.5231 98.6042 76.2691 98.6042ZM86.5175 98.4922V88.6922H87.9735V97.2042H92.7475V98.4922H86.5175ZM97.2359 98.6042C95.0519 98.6042 93.7079 96.8822 93.7079 94.9222C93.7079 92.9482 94.9399 91.3242 97.1099 91.3242C99.2799 91.3242 100.442 92.8782 100.442 94.6702C100.442 94.8522 100.428 95.0902 100.414 95.2162H95.0379C95.1499 96.5322 96.0179 97.4422 97.2359 97.4422C98.2719 97.4422 98.9439 96.9942 99.1399 96.1962H100.498C100.26 97.6522 98.9859 98.6042 97.2359 98.6042ZM95.0799 94.1662H99.0699C98.9859 93.0882 98.2719 92.4162 97.1099 92.4162C96.0179 92.4162 95.2899 93.0182 95.0799 94.1662ZM104.234 98.4922L101.644 91.4362H103.044L104.906 96.7982L106.768 91.4362H108.168L105.578 98.4922H104.234ZM112.821 98.6042C110.637 98.6042 109.293 96.8822 109.293 94.9222C109.293 92.9482 110.525 91.3242 112.695 91.3242C114.865 91.3242 116.027 92.8782 116.027 94.6702C116.027 94.8522 116.013 95.0902 115.999 95.2162H110.623C110.735 96.5322 111.603 97.4422 112.821 97.4422C113.857 97.4422 114.529 96.9942 114.725 96.1962H116.083C115.845 97.6522 114.571 98.6042 112.821 98.6042ZM110.665 94.1662H114.655C114.571 93.0882 113.857 92.4162 112.695 92.4162C111.603 92.4162 110.875 93.0182 110.665 94.1662ZM118.163 98.4922V88.4822H119.521V98.4922H118.163ZM128.477 88.6922V98.4922H127.021V90.9602C126.853 91.1842 126.419 91.3102 126.027 91.3102H125.159V90.0222H125.915C126.587 90.0222 126.979 89.7422 127.063 88.6922H128.477ZM131.779 88.3002C132.955 90.0222 133.627 92.2482 133.627 94.3202C133.627 96.3922 132.955 98.6182 131.779 100.34H130.477C131.597 98.4782 132.255 96.3082 132.255 94.3202C132.255 92.3322 131.597 90.1622 130.477 88.3002H131.779Z" fill="white"/>
<g filter="url(#filter3_f_242_895)">
<path d="M349.174 35.7917L365.679 18.9496C366.847 17.7576 368.445 17.0859 370.114 17.0859L471.09 17.0859C474.52 17.0859 477.3 19.8663 477.3 23.2961V103.179C477.3 104.818 476.653 106.39 475.499 107.553L456.682 126.518L437.204 146.073C436.038 147.243 434.455 147.9 432.804 147.9H332.981C329.551 147.9 326.771 145.12 326.771 141.69L326.77 61.706C326.77 60.1067 327.387 58.5691 328.492 57.4134L349.174 35.7917Z" fill="#FF5E01"/>
</g>
<path d="M370.114 17.3965H471.09C474.349 17.3965 476.99 20.0377 476.99 23.2959V103.18C476.99 104.736 476.374 106.23 475.278 107.335L456.461 126.299L436.984 145.854C435.877 146.965 434.373 147.59 432.804 147.59H332.981C329.723 147.59 327.082 144.949 327.082 141.69L327.081 61.7061C327.081 60.1867 327.667 58.7259 328.717 57.6279L349.398 36.0059L365.9 19.167C367.009 18.0347 368.528 17.3966 370.114 17.3965Z" fill="#FF5100" stroke="white" stroke-width="0.621012"/>
<g filter="url(#filter4_f_242_895)">
<path d="M354.607 40.5918L369.228 25.6722C370.396 24.4803 371.994 23.8086 373.663 23.8086L463.354 23.8086C466.784 23.8086 469.564 26.589 469.564 30.0187V100.79C469.564 102.429 468.917 104.001 467.763 105.164L451.065 121.993L433.776 139.35C432.611 140.52 431.027 141.178 429.376 141.178H340.717C337.287 141.178 334.507 138.397 334.507 134.968L334.506 64.0986C334.506 62.4993 335.123 60.9617 336.228 59.806L354.607 40.5918Z" fill="#FF833B"/>
</g>
<g filter="url(#filter5_d_242_895)">
<path d="M354.607 40.5918L369.228 25.6722C370.396 24.4803 371.994 23.8086 373.663 23.8086L463.354 23.8086C466.784 23.8086 469.564 26.589 469.564 30.0187V100.79C469.564 102.429 468.917 104.001 467.763 105.164L451.065 121.993L433.776 139.35C432.611 140.52 431.027 141.178 429.376 141.178H340.717C337.287 141.178 334.507 138.397 334.507 134.968L334.506 64.0986C334.506 62.4993 335.123 60.9617 336.228 59.806L354.607 40.5918Z" fill="#FF5100"/>
<path d="M373.663 24.1191H463.354C466.613 24.1193 469.254 26.7604 469.254 30.0186V100.79C469.254 102.347 468.638 103.84 467.542 104.945L450.845 121.774L433.556 139.131C432.449 140.242 430.945 140.867 429.376 140.867H340.717C337.459 140.867 334.818 138.226 334.817 134.968L334.816 64.0986C334.816 62.5793 335.403 61.1184 336.453 60.0205L354.831 40.8057L369.449 25.8896C370.559 24.7573 372.078 24.1191 373.663 24.1191Z" stroke="white" stroke-width="0.621012"/>
</g>
<path d="M347.396 76.4922V66.6922H351.022C352.856 66.6922 354.046 67.6162 354.046 69.0862C354.046 70.1362 353.486 70.7942 352.786 71.1302C353.766 71.4802 354.494 72.2782 354.494 73.6362C354.494 75.4002 353.234 76.4922 351.204 76.4922H347.396ZM351.008 75.2042C352.38 75.2042 353.066 74.6302 353.066 73.5662C353.066 72.5022 352.38 71.9282 351.008 71.9282H348.838V75.2042H351.008ZM350.952 70.6542C352.044 70.6542 352.632 70.1922 352.632 69.2822C352.632 68.3862 352.044 67.9102 350.938 67.9102H348.838V70.6542H350.952ZM359.121 76.4922L355.467 66.6922H356.951L359.835 74.7422L362.747 66.6922H364.231L360.577 76.4922H359.121ZM366.098 76.4922V66.6922H367.722L372.44 74.2382V66.6922H373.896V76.4922H372.286L367.554 68.9602V76.4922H366.098ZM383.209 76.4922L379.555 66.6922H381.039L383.923 74.7422L386.835 66.6922H388.319L384.665 76.4922H383.209ZM392.141 76.6042C389.957 76.6042 388.613 74.8822 388.613 72.9222C388.613 70.9482 389.845 69.3242 392.015 69.3242C394.185 69.3242 395.347 70.8782 395.347 72.6702C395.347 72.8522 395.333 73.0902 395.319 73.2162H389.943C390.055 74.5322 390.923 75.4422 392.141 75.4422C393.177 75.4422 393.849 74.9942 394.045 74.1962H395.403C395.165 75.6522 393.891 76.6042 392.141 76.6042ZM389.985 72.1662H393.975C393.891 71.0882 393.177 70.4162 392.015 70.4162C390.923 70.4162 390.195 71.0182 389.985 72.1662ZM397.483 76.4922V69.4362H398.841V70.7942C399.163 69.8562 399.723 69.4362 400.717 69.4362H401.571V70.6122H400.549C399.261 70.6122 398.841 71.7602 398.841 73.3002V76.4922H397.483ZM403.307 76.4922V69.4362H404.665V76.4922H403.307ZM403.223 66.4822H404.735V68.1902H403.223V66.4822ZM413.461 69.4362V76.4922H412.103V70.6122H409.205V76.4922H407.847V70.6122H406.405V69.4362H407.847V68.7502C407.847 67.3642 408.757 66.4822 410.171 66.4822H411.347V67.6582H410.283C409.625 67.6582 409.205 68.0922 409.205 68.7922V69.4362H413.461ZM419.017 76.6042C416.805 76.6042 415.531 74.9102 415.531 72.9642C415.531 71.0182 416.805 69.3242 419.017 69.3242C420.669 69.3242 422.097 70.3042 422.293 71.9002H420.935C420.809 71.1022 420.011 70.5142 419.045 70.5142C417.645 70.5142 416.945 71.6062 416.945 72.9642C416.945 74.3222 417.659 75.4142 419.059 75.4142C420.025 75.4142 420.725 74.9102 420.949 74.1122H422.293C422.069 75.5962 420.823 76.6042 419.017 76.6042ZM426.405 76.6042C424.963 76.6042 423.997 75.7362 423.997 74.4762C423.997 73.1182 425.089 72.2222 426.741 72.2222H428.225C428.547 72.2222 428.701 72.1102 428.701 71.8582C428.701 71.0042 428.071 70.4162 426.993 70.4162C425.999 70.4162 425.299 71.0322 425.257 71.7462H423.997C424.109 70.3602 425.355 69.3242 427.035 69.3242C428.855 69.3242 430.045 70.3742 430.045 71.9422V76.4922H428.701V75.3302C428.351 76.1002 427.469 76.6042 426.405 76.6042ZM426.671 75.5262C427.945 75.5262 428.701 74.7002 428.701 73.3982V73.2722H426.881C425.957 73.2722 425.355 73.7062 425.355 74.4482C425.355 75.0922 425.873 75.5262 426.671 75.5262ZM435.339 76.4922C433.911 76.4922 432.987 75.6242 432.987 74.1822V70.6122H431.545V69.4362H432.987V67.2242H434.345V69.4362H436.431V70.6122H434.345V74.1402C434.345 74.8962 434.765 75.3162 435.437 75.3162H436.431V76.4922H435.339ZM438.332 76.4922V69.4362H439.69V76.4922H438.332ZM438.248 66.4822H439.76V68.1902H438.248V66.4822ZM445.392 76.6042C443.278 76.6042 441.752 75.0782 441.752 72.9642C441.752 70.8502 443.278 69.3242 445.392 69.3242C447.506 69.3242 449.018 70.8502 449.018 72.9642C449.018 75.0782 447.506 76.6042 445.392 76.6042ZM445.392 75.4142C446.722 75.4142 447.632 74.4062 447.632 72.9642C447.632 71.5222 446.722 70.5142 445.392 70.5142C444.048 70.5142 443.138 71.5222 443.138 72.9642C443.138 74.4062 444.048 75.4142 445.392 75.4142ZM451.086 76.4922V69.4362H452.444V70.6822C452.822 69.8002 453.662 69.3242 454.712 69.3242C456.308 69.3242 457.344 70.4722 457.344 72.1522V76.4922H455.986V72.4182C455.986 71.2982 455.328 70.5422 454.334 70.5422C453.228 70.5422 452.444 71.4382 452.444 72.6702V76.4922H451.086ZM360.1 100.34C358.924 98.6182 358.252 96.3922 358.252 94.3202C358.252 92.2482 358.924 90.0222 360.1 88.3002H361.402C360.282 90.1622 359.624 92.3322 359.624 94.3202C359.624 96.3082 360.282 98.4782 361.402 100.34H360.1ZM364.86 98.4922H363.404V88.6922H364.86V93.2422L369.172 88.6922H371.006L367.282 92.6122L371.412 98.4922H369.634L366.288 93.6622L364.86 95.1742V98.4922ZM375.425 98.4922V94.4042L371.995 88.6922H373.605L376.153 93.0182L378.701 88.6922H380.311L376.881 94.4042V98.4922H375.425ZM385.693 98.6042C383.159 98.6042 380.905 96.9522 380.905 93.5922C380.905 90.2322 383.187 88.5802 385.693 88.5802C387.905 88.5802 389.683 89.9382 389.935 91.8422H388.409C388.255 90.6942 387.093 89.8682 385.679 89.8682C383.775 89.8682 382.389 91.1702 382.389 93.5922C382.389 96.0142 383.775 97.3162 385.693 97.3162C387.135 97.3162 388.283 96.4902 388.437 95.3422H389.921C389.711 97.2462 387.947 98.6042 385.693 98.6042ZM395.941 98.4922V88.6922H397.397V97.2042H402.171V98.4922H395.941ZM406.66 98.6042C404.476 98.6042 403.132 96.8822 403.132 94.9222C403.132 92.9482 404.364 91.3242 406.534 91.3242C408.704 91.3242 409.866 92.8782 409.866 94.6702C409.866 94.8522 409.852 95.0902 409.838 95.2162H404.462C404.574 96.5322 405.442 97.4422 406.66 97.4422C407.696 97.4422 408.368 96.9942 408.564 96.1962H409.922C409.684 97.6522 408.41 98.6042 406.66 98.6042ZM404.504 94.1662H408.494C408.41 93.0882 407.696 92.4162 406.534 92.4162C405.442 92.4162 404.714 93.0182 404.504 94.1662ZM413.658 98.4922L411.068 91.4362H412.468L414.33 96.7982L416.192 91.4362H417.592L415.002 98.4922H413.658ZM422.245 98.6042C420.061 98.6042 418.717 96.8822 418.717 94.9222C418.717 92.9482 419.949 91.3242 422.119 91.3242C424.289 91.3242 425.451 92.8782 425.451 94.6702C425.451 94.8522 425.437 95.0902 425.423 95.2162H420.047C420.159 96.5322 421.027 97.4422 422.245 97.4422C423.281 97.4422 423.953 96.9942 424.149 96.1962H425.507C425.269 97.6522 423.995 98.6042 422.245 98.6042ZM420.089 94.1662H424.079C423.995 93.0882 423.281 92.4162 422.119 92.4162C421.027 92.4162 420.299 93.0182 420.089 94.1662ZM427.587 98.4922V88.4822H428.945V98.4922H427.587ZM435.045 91.9542C434.975 89.8822 436.291 88.5802 438.377 88.5802C440.281 88.5802 441.639 89.7282 441.639 91.5342C441.639 92.8362 440.869 93.9142 439.343 94.6702L437.901 95.3842C437.187 95.7342 436.389 96.3922 436.389 97.2042H441.667V98.4922H434.961V97.4842C434.947 95.8182 436.151 94.7682 437.285 94.1942L438.811 93.4382C439.777 92.9482 440.155 92.3322 440.155 91.5202C440.155 90.5122 439.427 89.8262 438.391 89.8262C437.201 89.8262 436.473 90.6662 436.529 91.9542H435.045ZM444.416 88.3002C445.592 90.0222 446.264 92.2482 446.264 94.3202C446.264 96.3922 445.592 98.6182 444.416 100.34H443.114C444.234 98.4782 444.892 96.3082 444.892 94.3202C444.892 92.3322 444.234 90.1622 443.114 88.3002H444.416Z" fill="white"/>
<defs>
<filter id="filter0_f_242_895" x="10.2716" y="12.1178" width="160.466" height="140.751" filterUnits="userSpaceOnUse" color-interpolation-filters="sRGB">
<feFlood flood-opacity="0" result="BackgroundImageFix"/>
<feBlend mode="normal" in="SourceGraphic" in2="BackgroundImageFix" result="shape"/>
<feGaussianBlur stdDeviation="2.48405" result="effect1_foregroundBlur_242_895"/>
</filter>
<filter id="filter1_f_242_895" x="0.0602341" y="0.893242" width="180.889" height="163.2" filterUnits="userSpaceOnUse" color-interpolation-filters="sRGB">
<feFlood flood-opacity="0" result="BackgroundImageFix"/>
<feBlend mode="normal" in="SourceGraphic" in2="BackgroundImageFix" result="shape"/>
<feGaussianBlur stdDeviation="11.4577" result="effect1_foregroundBlur_242_895"/>
</filter>
<filter id="filter2_d_242_895" x="7.01557" y="8.46959" width="170.705" height="153.015" filterUnits="userSpaceOnUse" color-interpolation-filters="sRGB">
<feFlood flood-opacity="0" result="BackgroundImageFix"/>
<feColorMatrix in="SourceAlpha" type="matrix" values="0 0 0 0 0 0 0 0 0 0 0 0 0 0 0 0 0 0 127 0" result="hardAlpha"/>
<feOffset dx="1.86304" dy="2.48405"/>
<feGaussianBlur stdDeviation="8.91153"/>
<feComposite in2="hardAlpha" operator="out"/>
<feColorMatrix type="matrix" values="0 0 0 0 1 0 0 0 0 1 0 0 0 0 1 0 0 0 0.25 0"/>
<feBlend mode="normal" in2="BackgroundImageFix" result="effect1_dropShadow_242_895"/>
<feBlend mode="normal" in="SourceGraphic" in2="effect1_dropShadow_242_895" result="shape"/>
</filter>
<filter id="filter3_f_242_895" x="321.802" y="12.1178" width="160.466" height="140.751" filterUnits="userSpaceOnUse" color-interpolation-filters="sRGB">
<feFlood flood-opacity="0" result="BackgroundImageFix"/>
<feBlend mode="normal" in="SourceGraphic" in2="BackgroundImageFix" result="shape"/>
<feGaussianBlur stdDeviation="2.48405" result="effect1_foregroundBlur_242_895"/>
</filter>
<filter id="filter4_f_242_895" x="311.591" y="0.893242" width="180.889" height="163.2" filterUnits="userSpaceOnUse" color-interpolation-filters="sRGB">
<feFlood flood-opacity="0" result="BackgroundImageFix"/>
<feBlend mode="normal" in="SourceGraphic" in2="BackgroundImageFix" result="shape"/>
<feGaussianBlur stdDeviation="11.4577" result="effect1_foregroundBlur_242_895"/>
</filter>
<filter id="filter5_d_242_895" x="318.546" y="8.46959" width="170.705" height="153.015" filterUnits="userSpaceOnUse" color-interpolation-filters="sRGB">
<feFlood flood-opacity="0" result="BackgroundImageFix"/>
<feColorMatrix in="SourceAlpha" type="matrix" values="0 0 0 0 0 0 0 0 0 0 0 0 0 0 0 0 0 0 127 0" result="hardAlpha"/>
<feOffset dx="1.86304" dy="2.48405"/>
<feGaussianBlur stdDeviation="8.91153"/>
<feComposite in2="hardAlpha" operator="out"/>
<feColorMatrix type="matrix" values="0 0 0 0 1 0 0 0 0 1 0 0 0 0 1 0 0 0 0.25 0"/>
<feBlend mode="normal" in2="BackgroundImageFix" result="effect1_dropShadow_242_895"/>
<feBlend mode="normal" in="SourceGraphic" in2="effect1_dropShadow_242_895" result="shape"/>
</filter>
</defs>
</svg>
