<svg width="885" height="264" viewBox="0 0 885 264" fill="none" xmlns="http://www.w3.org/2000/svg">
<line x1="267.301" y1="143.522" x2="327.301" y2="143.522" stroke="white"/>
<path d="M569.301 143.522L617.301 143.522" stroke="white"/>
<g filter="url(#filter0_f_239_669)">
<path d="M61.3778 57.1439L87.9543 30.0234C89.8351 28.104 92.4093 27.0225 95.0966 27.0225L257.696 27.0225C263.219 27.0225 267.696 31.4996 267.696 37.0225V165.657C267.696 168.295 266.653 170.827 264.795 172.7L234.494 203.238L203.129 234.727C201.253 236.611 198.703 237.67 196.045 237.67H35.3021C29.7793 237.67 25.3022 233.193 25.3021 227.67L25.3008 98.873C25.3008 96.2977 26.2943 93.8217 28.0744 91.9607L61.3778 57.1439Z" fill="#FF5E01"/>
</g>
<path d="M95.0967 27.5225H257.696C262.943 27.5226 267.196 31.7758 267.196 37.0225V165.656C267.196 168.163 266.205 170.568 264.439 172.348L234.14 202.886L202.775 234.374C200.993 236.164 198.571 237.17 196.045 237.17H35.3018C30.0553 237.17 25.8019 232.916 25.8018 227.67L25.8008 98.873C25.8008 96.4266 26.7446 94.0746 28.4355 92.3066L61.7344 57.4932L61.7354 57.4941L88.3115 30.373C90.0983 28.5498 92.5439 27.5225 95.0967 27.5225Z" fill="#FF5100" stroke="white"/>
<g filter="url(#filter1_f_239_669)">
<path d="M70.1267 64.8731L93.6694 40.8486C95.5502 38.9292 98.1244 37.8477 100.812 37.8477L245.239 37.8477C250.762 37.8477 255.239 42.3248 255.239 47.8477V161.809C255.239 164.448 254.196 166.979 252.338 168.853L225.45 195.952L197.61 223.901C195.734 225.785 193.184 226.844 190.525 226.844H47.759C42.2362 226.844 37.759 222.367 37.759 216.844L37.7579 102.726C37.7578 100.15 38.7513 97.6743 40.5315 95.8133L70.1267 64.8731Z" fill="#FF833B"/>
</g>
<g filter="url(#filter2_d_239_669)">
<path d="M70.1267 64.8731L93.6694 40.8486C95.5502 38.9292 98.1244 37.8477 100.812 37.8477L245.239 37.8477C250.762 37.8477 255.239 42.3248 255.239 47.8477V161.809C255.239 164.448 254.196 166.979 252.338 168.853L225.45 195.952L197.61 223.901C195.734 225.785 193.184 226.844 190.525 226.844H47.759C42.2362 226.844 37.759 222.367 37.759 216.844L37.7579 102.726C37.7578 100.15 38.7513 97.6743 40.5315 95.8133L70.1267 64.8731Z" fill="#FF5100"/>
<path d="M100.812 38.3477H245.239C250.486 38.3478 254.739 42.601 254.739 47.8477V161.81C254.739 164.316 253.748 166.721 251.982 168.5L225.096 195.599L197.256 223.548C195.473 225.337 193.051 226.344 190.525 226.344H47.7588C42.5122 226.344 38.2588 222.09 38.2588 216.844L38.2578 102.726C38.2578 100.279 39.2016 97.9271 40.8926 96.1592L70.4883 65.2188L70.4873 65.2178L94.0264 41.1982C95.8131 39.375 98.2587 38.3477 100.812 38.3477Z" stroke="white"/>
</g>
<g clip-path="url(#clip0_239_669)">
<mask id="mask0_239_669" style="mask-type:luminance" maskUnits="userSpaceOnUse" x="117" y="89" width="58" height="75">
<path d="M174.998 89.5967H118V163.17H174.998V89.5967Z" fill="white"/>
</mask>
<g mask="url(#mask0_239_669)">
<path d="M167.682 145.717L165.564 141.482C165.104 140.666 165.069 138.117 165.048 137.232L164.784 125.856L164.612 119.063C164.574 117.547 162.914 116.334 160.88 116.334C159.85 116.334 158.917 116.645 158.241 117.148C157.566 117.652 157.148 118.347 157.148 119.115V129.578" stroke="white" stroke-width="1.5" stroke-miterlimit="10" stroke-linecap="round" stroke-linejoin="round"/>
<path d="M150.304 151.073C149.428 150.42 148.851 150.446 148.851 150.446L145.058 149.352C143.953 148.773 142.874 147.852 140.748 144.508" stroke="white" stroke-width="1.5" stroke-miterlimit="10" stroke-linecap="round" stroke-linejoin="round"/>
<path d="M133.623 144.359H151.74C154.641 144.359 156.992 141.875 156.992 138.809V101.762C156.992 98.6967 154.641 96.2119 151.74 96.2119H133.623C130.723 96.2119 128.372 98.6967 128.372 101.762V138.809C128.372 141.875 130.723 144.359 133.623 144.359Z" stroke="white" stroke-width="1.80546" stroke-miterlimit="10" stroke-linecap="round" stroke-linejoin="round"/>
<path d="M125.549 122.058H128.212V116.467H125.549C123.478 116.467 122.198 117.719 122.198 119.262C122.198 120.806 123.478 122.058 125.549 122.058Z" stroke="white" stroke-width="1.5" stroke-miterlimit="10" stroke-linecap="round" stroke-linejoin="round"/>
<path d="M125.549 127.647H128.212V122.057H125.549C123.478 122.057 122.198 123.308 122.198 124.852C122.198 126.396 123.478 127.647 125.549 127.647Z" stroke="white" stroke-width="1.5" stroke-miterlimit="10" stroke-linecap="round" stroke-linejoin="round"/>
<path d="M125.549 133.238H128.212V127.648H125.549C123.478 127.648 122.198 128.899 122.198 130.443C122.198 131.987 123.478 133.238 125.549 133.238Z" stroke="white" stroke-width="1.5" stroke-miterlimit="10" stroke-linecap="round" stroke-linejoin="round"/>
<path d="M125.549 138.829H128.212V133.238H125.549C123.478 133.238 122.198 134.49 122.198 136.034C122.198 137.578 123.478 138.829 125.549 138.829Z" stroke="white" stroke-width="1.5" stroke-miterlimit="10" stroke-linecap="round" stroke-linejoin="round"/>
<path d="M148.289 160.786L147.414 154.045C147.204 152.815 147.166 152 148.289 151.668L167.922 145.86C169.045 145.527 170.473 146.053 171.112 147.034L171.113 160.786" stroke="white" stroke-width="1.80546" stroke-miterlimit="10" stroke-linecap="round" stroke-linejoin="round"/>
</g>
<g clip-path="url(#clip1_239_669)">
<path d="M142.777 120.743C145.041 120.743 146.876 118.908 146.876 116.644C146.876 114.38 145.041 112.545 142.777 112.545C140.513 112.545 138.678 114.38 138.678 116.644C138.68 118.907 140.514 120.741 142.777 120.743ZM142.777 113.321C144.612 113.321 146.1 114.809 146.1 116.644C146.1 118.48 144.612 119.968 142.777 119.968C140.941 119.968 139.453 118.48 139.453 116.644C139.456 114.809 140.942 113.323 142.777 113.321Z" fill="white"/>
<path d="M142.777 122.289C146.163 122.289 148.908 125.035 148.908 128.421V128.452H136.645V128.421C136.645 125.034 139.39 122.289 142.777 122.289Z" stroke="white" stroke-width="1.1576"/>
</g>
<path d="M136.333 97.1377C136.333 99.3468 138.124 101.138 140.333 101.138H145.88C148.09 101.138 149.88 99.3468 149.88 97.1377V96.2358H136.333V97.1377Z" stroke="white" stroke-width="1.80546" stroke-miterlimit="10" stroke-linecap="round" stroke-linejoin="round"/>
<path d="M133.157 114.098L133.158 110.053L137.203 110.053" stroke="white" stroke-width="1.5" stroke-linecap="round" stroke-linejoin="round"/>
<path d="M133.157 130.052L133.158 134.098L137.203 134.098" stroke="white" stroke-width="1.5" stroke-linecap="round" stroke-linejoin="round"/>
<path d="M152.204 114.098L152.203 110.053L148.158 110.053" stroke="white" stroke-width="1.5" stroke-linecap="round" stroke-linejoin="round"/>
<path d="M152.204 130.052L152.203 134.098L148.158 134.098" stroke="white" stroke-width="1.5" stroke-linecap="round" stroke-linejoin="round"/>
</g>
<g filter="url(#filter3_f_239_669)">
<path d="M363.378 57.1439L389.954 30.0234C391.835 28.104 394.409 27.0225 397.097 27.0225L559.696 27.0225C565.219 27.0225 569.696 31.4996 569.696 37.0225V165.657C569.696 168.295 568.653 170.827 566.795 172.7L536.494 203.238L505.129 234.727C503.253 236.611 500.703 237.67 498.045 237.67H337.302C331.779 237.67 327.302 233.193 327.302 227.67L327.301 98.873C327.301 96.2977 328.294 93.8217 330.074 91.9607L363.378 57.1439Z" fill="#FF5E01"/>
</g>
<path d="M397.097 27.5225H559.696C564.943 27.5226 569.196 31.7758 569.196 37.0225V165.656C569.196 168.163 568.205 170.568 566.439 172.348L536.14 202.886L504.775 234.374C502.993 236.164 500.571 237.17 498.045 237.17H337.302C332.055 237.17 327.802 232.916 327.802 227.67L327.801 98.873C327.801 96.4266 328.745 94.0746 330.436 92.3066L363.734 57.4932L363.735 57.4941L390.312 30.373C392.098 28.5498 394.544 27.5225 397.097 27.5225Z" stroke="white"/>
<g filter="url(#filter4_f_239_669)">
<path d="M372.127 64.8731L395.669 40.8486C397.55 38.9292 400.124 37.8477 402.812 37.8477L547.239 37.8477C552.762 37.8477 557.239 42.3248 557.239 47.8477V161.809C557.239 164.448 556.196 166.979 554.338 168.853L527.45 195.952L499.61 223.901C497.734 225.785 495.184 226.844 492.525 226.844H349.759C344.236 226.844 339.759 222.367 339.759 216.844L339.758 102.726C339.758 100.15 340.751 97.6743 342.531 95.8133L372.127 64.8731Z" fill="#FF833B"/>
</g>
<g filter="url(#filter5_d_239_669)">
<path d="M372.127 64.8731L395.669 40.8486C397.55 38.9292 400.124 37.8477 402.812 37.8477L547.239 37.8477C552.762 37.8477 557.239 42.3248 557.239 47.8477V161.809C557.239 164.448 556.196 166.979 554.338 168.853L527.45 195.952L499.61 223.901C497.734 225.785 495.184 226.844 492.525 226.844H349.759C344.236 226.844 339.759 222.367 339.759 216.844L339.758 102.726C339.758 100.15 340.751 97.6743 342.531 95.8133L372.127 64.8731Z" fill="#FF5100"/>
<path d="M402.812 38.3477H547.239C552.486 38.3478 556.739 42.601 556.739 47.8477V161.81C556.739 164.316 555.748 166.721 553.982 168.5L527.096 195.599L499.256 223.548C497.473 225.337 495.051 226.344 492.525 226.344H349.759C344.512 226.344 340.259 222.09 340.259 216.844L340.258 102.726C340.258 100.279 341.202 97.9271 342.893 96.1592L372.488 65.2188L372.487 65.2178L396.026 41.1982C397.813 39.375 400.259 38.3477 402.812 38.3477Z" stroke="white"/>
</g>
<g clip-path="url(#clip2_239_669)">
<mask id="mask1_239_669" style="mask-type:luminance" maskUnits="userSpaceOnUse" x="407" y="102" width="83" height="62">
<path d="M407.301 102.023H489.353V163.17H407.301V102.023Z" fill="white"/>
</mask>
<g mask="url(#mask1_239_669)">
<path d="M437.367 141.955L438.577 139.808C439.037 138.992 439.284 138.118 439.305 137.233L439.569 125.856L439.741 119.063C439.779 117.548 441.439 116.334 443.473 116.334C444.504 116.334 445.436 116.646 446.113 117.149C446.787 117.653 447.205 118.348 447.205 119.116V129.579" stroke="white" stroke-width="1.80546" stroke-miterlimit="10" stroke-linecap="round" stroke-linejoin="round"/>
<path d="M453.406 153.908L455.227 152.551C456.103 151.898 457.267 151.505 458.502 151.446L461.878 151.281C468.181 150.973 473.826 148.329 476.945 144.274" stroke="white" stroke-width="1.80546" stroke-miterlimit="10" stroke-linecap="round" stroke-linejoin="round"/>
<path d="M475.729 144.359H453.613C450.073 144.359 447.203 142.221 447.203 139.582V107.695C447.203 105.056 450.073 102.918 453.613 102.918H475.729C479.269 102.918 482.14 105.056 482.14 107.695V139.582C482.14 142.221 479.269 144.359 475.729 144.359Z" stroke="white" stroke-width="1.80546" stroke-miterlimit="10" stroke-linecap="round" stroke-linejoin="round"/>
<path d="M477.337 119.846V108.291C477.337 107.302 476.26 106.499 474.933 106.499H470.518C469.81 106.499 469.236 106.927 469.236 107.455C469.236 108.347 468.266 109.069 467.069 109.069H462.283C461.086 109.069 460.116 108.347 460.116 107.455C460.116 106.927 459.542 106.499 458.834 106.499H454.42C453.092 106.499 452.016 107.302 452.016 108.291V138.984C452.016 139.973 453.092 140.775 454.42 140.775H474.933C476.26 140.775 477.337 139.973 477.337 138.984V120.048" stroke="white" stroke-width="1.80546" stroke-miterlimit="10" stroke-linecap="round" stroke-linejoin="round"/>
<path d="M468.482 126.289C470.449 126.749 472.207 127.557 473.628 128.615C475.92 130.321 477.337 132.677 477.337 135.279V138.984C477.337 139.973 476.26 140.775 474.933 140.775H454.42C453.093 140.775 452.016 139.973 452.016 138.984V135.279C452.016 131.062 455.737 127.491 460.87 126.289" stroke="white" stroke-width="1.80546" stroke-miterlimit="10" stroke-linecap="round" stroke-linejoin="round"/>
<path d="M464.678 127.163H464.67C460.941 127.163 457.918 124.91 457.918 122.131V115.999C457.918 114.369 459.69 113.049 461.877 113.049H467.472C469.658 113.049 471.43 114.369 471.43 115.999V122.131C471.43 124.91 468.407 127.163 464.678 127.163Z" stroke="white" stroke-width="1.80546" stroke-miterlimit="10" stroke-linecap="round" stroke-linejoin="round"/>
<path d="M457.918 119.748L463.643 118.344C465.754 117.826 468.069 118.064 469.913 118.988L471.43 119.748" stroke="white" stroke-width="1.80546" stroke-miterlimit="10" stroke-linecap="round" stroke-linejoin="round"/>
<path d="M465.873 105.994C465.873 106.489 465.334 106.89 464.671 106.89C464.007 106.89 463.469 106.489 463.469 105.994C463.469 105.499 464.007 105.098 464.671 105.098C465.334 105.098 465.873 105.499 465.873 105.994Z" fill="white"/>
<path d="M484.804 122.058H482.141V116.467H484.804C486.875 116.467 488.155 117.719 488.155 119.262C488.155 120.806 486.875 122.058 484.804 122.058Z" stroke="white" stroke-width="1.80546" stroke-miterlimit="10" stroke-linecap="round" stroke-linejoin="round"/>
<path d="M484.804 127.647H482.141V122.057H484.804C486.875 122.057 488.155 123.308 488.155 124.852C488.155 126.396 486.875 127.647 484.804 127.647Z" stroke="white" stroke-width="1.80546" stroke-miterlimit="10" stroke-linecap="round" stroke-linejoin="round"/>
<path d="M484.804 133.238H482.141V127.648H484.804C486.875 127.648 488.155 128.899 488.155 130.443C488.155 131.987 486.875 133.238 484.804 133.238Z" stroke="white" stroke-width="1.80546" stroke-miterlimit="10" stroke-linecap="round" stroke-linejoin="round"/>
<path d="M484.804 138.829H482.141V133.238H484.804C486.875 133.238 488.155 134.49 488.155 136.034C488.155 137.578 486.875 138.829 484.804 138.829Z" stroke="white" stroke-width="1.80546" stroke-miterlimit="10" stroke-linecap="round" stroke-linejoin="round"/>
<path d="M427.438 146.36L408.508 160.542" stroke="white" stroke-width="1.80546" stroke-miterlimit="10" stroke-linecap="round" stroke-linejoin="round"/>
<path d="M445.673 162.273L453.452 156.477C454.39 155.777 454.39 154.643 453.452 153.943L437.035 141.709C436.096 141.009 434.574 141.009 433.635 141.709L427.547 146.272" stroke="white" stroke-width="1.80546" stroke-miterlimit="10" stroke-linecap="round" stroke-linejoin="round"/>
</g>
</g>
<g filter="url(#filter6_f_239_669)">
<path d="M653.378 57.1439L679.954 30.0234C681.835 28.104 684.409 27.0225 687.097 27.0225L849.696 27.0225C855.219 27.0225 859.696 31.4996 859.696 37.0225V165.657C859.696 168.295 858.653 170.827 856.795 172.7L826.494 203.238L795.129 234.727C793.253 236.611 790.703 237.67 788.045 237.67H627.302C621.779 237.67 617.302 233.193 617.302 227.67L617.301 98.873C617.301 96.2977 618.294 93.8217 620.074 91.9607L653.378 57.1439Z" fill="#FF5E01"/>
</g>
<path d="M687.097 27.5225H849.696C854.943 27.5226 859.196 31.7758 859.196 37.0225V165.656C859.196 168.163 858.205 170.568 856.439 172.348L826.14 202.886L794.775 234.374C792.993 236.164 790.571 237.17 788.045 237.17H627.302C622.055 237.17 617.802 232.916 617.802 227.67L617.801 98.873C617.801 96.4266 618.745 94.0746 620.436 92.3066L653.734 57.4932L653.735 57.4941L680.312 30.373C682.098 28.5498 684.544 27.5225 687.097 27.5225Z" stroke="white"/>
<g filter="url(#filter7_f_239_669)">
<path d="M662.127 64.8731L685.669 40.8486C687.55 38.9292 690.124 37.8477 692.812 37.8477L837.239 37.8477C842.762 37.8477 847.239 42.3248 847.239 47.8477V161.809C847.239 164.448 846.196 166.979 844.338 168.853L817.45 195.952L789.61 223.901C787.734 225.785 785.184 226.844 782.525 226.844H639.759C634.236 226.844 629.759 222.367 629.759 216.844L629.758 102.726C629.758 100.15 630.751 97.6743 632.531 95.8133L662.127 64.8731Z" fill="#FF833B"/>
</g>
<g filter="url(#filter8_d_239_669)">
<path d="M662.127 64.8731L685.669 40.8486C687.55 38.9292 690.124 37.8477 692.812 37.8477L837.239 37.8477C842.762 37.8477 847.239 42.3248 847.239 47.8477V161.809C847.239 164.448 846.196 166.979 844.338 168.853L817.45 195.952L789.61 223.901C787.734 225.785 785.184 226.844 782.525 226.844H639.759C634.236 226.844 629.759 222.367 629.759 216.844L629.758 102.726C629.758 100.15 630.751 97.6743 632.531 95.8133L662.127 64.8731Z" fill="#FF5100"/>
<path d="M692.812 38.3477H837.239C842.486 38.3478 846.739 42.601 846.739 47.8477V161.81C846.739 164.316 845.748 166.721 843.982 168.5L817.096 195.599L789.256 223.548C787.473 225.337 785.051 226.344 782.525 226.344H639.759C634.512 226.344 630.259 222.09 630.259 216.844L630.258 102.726C630.258 100.279 631.202 97.9271 632.893 96.1592L662.488 65.2188L662.487 65.2178L686.026 41.1982C687.813 39.375 690.259 38.3477 692.812 38.3477Z" stroke="white"/>
</g>
<path d="M751.823 134.49C748.342 134.477 745.011 135.911 742.628 138.449C739.2 135.714 734.94 134.232 730.555 134.248H730.52C725.249 134.259 720.358 136.308 716.733 140.037C713.05 143.801 711.036 148.945 711.047 154.527C711.049 154.832 711.169 155.125 711.381 155.344C711.597 155.56 711.892 155.681 712.198 155.678L742.409 155.62C742.478 155.701 742.547 155.77 742.616 155.85C746.583 160.048 752.888 161.03 757.943 158.238C762.998 155.445 765.524 149.586 764.083 143.993C762.641 138.401 757.599 134.491 751.823 134.49ZM713.383 153.364C713.625 148.841 715.375 144.71 718.378 141.637C721.566 138.357 725.882 136.55 730.52 136.55H730.555C734.426 136.535 738.186 137.842 741.212 140.256C738.662 144.194 738.494 149.218 740.775 153.319L713.383 153.364ZM751.823 157.508C746.103 157.508 741.465 152.87 741.465 147.149C741.465 141.429 746.103 136.792 751.823 136.792C757.544 136.792 762.181 141.429 762.181 147.149C762.181 152.87 757.544 157.508 751.823 157.508Z" fill="white"/>
<path d="M730.536 131.509C737.254 131.509 742.701 126.062 742.701 119.344C742.701 112.625 737.254 107.179 730.536 107.179C723.818 107.179 718.371 112.625 718.371 119.344C718.378 126.06 723.82 131.502 730.536 131.509ZM730.536 109.481C735.984 109.481 740.399 113.897 740.399 119.344C740.399 124.791 735.984 129.207 730.536 129.207C725.089 129.207 720.673 124.791 720.673 119.344C720.679 113.899 725.091 109.487 730.536 109.481Z" fill="white"/>
<path d="M755.707 143.64L750.148 148.163L748.111 145.78C747.698 145.297 746.972 145.241 746.489 145.654C746.006 146.067 745.949 146.793 746.362 147.277L749.124 150.51C749.344 150.765 749.663 150.912 749.999 150.913C750.263 150.916 750.519 150.826 750.724 150.66L757.158 145.423C757.644 145.022 757.715 144.303 757.317 143.813C756.919 143.323 756.201 143.246 755.707 143.64Z" fill="white"/>
<defs>
<filter id="filter0_f_239_669" x="17.3008" y="19.0225" width="258.396" height="226.647" filterUnits="userSpaceOnUse" color-interpolation-filters="sRGB">
<feFlood flood-opacity="0" result="BackgroundImageFix"/>
<feBlend mode="normal" in="SourceGraphic" in2="BackgroundImageFix" result="shape"/>
<feGaussianBlur stdDeviation="4" result="effect1_foregroundBlur_239_669"/>
</filter>
<filter id="filter1_f_239_669" x="0.857811" y="0.947655" width="291.281" height="262.796" filterUnits="userSpaceOnUse" color-interpolation-filters="sRGB">
<feFlood flood-opacity="0" result="BackgroundImageFix"/>
<feBlend mode="normal" in="SourceGraphic" in2="BackgroundImageFix" result="shape"/>
<feGaussianBlur stdDeviation="18.45" result="effect1_foregroundBlur_239_669"/>
</filter>
<filter id="filter2_d_239_669" x="12.0578" y="13.1477" width="274.881" height="246.396" filterUnits="userSpaceOnUse" color-interpolation-filters="sRGB">
<feFlood flood-opacity="0" result="BackgroundImageFix"/>
<feColorMatrix in="SourceAlpha" type="matrix" values="0 0 0 0 0 0 0 0 0 0 0 0 0 0 0 0 0 0 127 0" result="hardAlpha"/>
<feOffset dx="3" dy="4"/>
<feGaussianBlur stdDeviation="14.35"/>
<feComposite in2="hardAlpha" operator="out"/>
<feColorMatrix type="matrix" values="0 0 0 0 1 0 0 0 0 1 0 0 0 0 1 0 0 0 0.25 0"/>
<feBlend mode="normal" in2="BackgroundImageFix" result="effect1_dropShadow_239_669"/>
<feBlend mode="normal" in="SourceGraphic" in2="effect1_dropShadow_239_669" result="shape"/>
</filter>
<filter id="filter3_f_239_669" x="319.301" y="19.0225" width="258.396" height="226.647" filterUnits="userSpaceOnUse" color-interpolation-filters="sRGB">
<feFlood flood-opacity="0" result="BackgroundImageFix"/>
<feBlend mode="normal" in="SourceGraphic" in2="BackgroundImageFix" result="shape"/>
<feGaussianBlur stdDeviation="4" result="effect1_foregroundBlur_239_669"/>
</filter>
<filter id="filter4_f_239_669" x="302.858" y="0.947655" width="291.281" height="262.796" filterUnits="userSpaceOnUse" color-interpolation-filters="sRGB">
<feFlood flood-opacity="0" result="BackgroundImageFix"/>
<feBlend mode="normal" in="SourceGraphic" in2="BackgroundImageFix" result="shape"/>
<feGaussianBlur stdDeviation="18.45" result="effect1_foregroundBlur_239_669"/>
</filter>
<filter id="filter5_d_239_669" x="314.058" y="13.1477" width="274.881" height="246.396" filterUnits="userSpaceOnUse" color-interpolation-filters="sRGB">
<feFlood flood-opacity="0" result="BackgroundImageFix"/>
<feColorMatrix in="SourceAlpha" type="matrix" values="0 0 0 0 0 0 0 0 0 0 0 0 0 0 0 0 0 0 127 0" result="hardAlpha"/>
<feOffset dx="3" dy="4"/>
<feGaussianBlur stdDeviation="14.35"/>
<feComposite in2="hardAlpha" operator="out"/>
<feColorMatrix type="matrix" values="0 0 0 0 1 0 0 0 0 1 0 0 0 0 1 0 0 0 0.25 0"/>
<feBlend mode="normal" in2="BackgroundImageFix" result="effect1_dropShadow_239_669"/>
<feBlend mode="normal" in="SourceGraphic" in2="effect1_dropShadow_239_669" result="shape"/>
</filter>
<filter id="filter6_f_239_669" x="609.301" y="19.0225" width="258.396" height="226.647" filterUnits="userSpaceOnUse" color-interpolation-filters="sRGB">
<feFlood flood-opacity="0" result="BackgroundImageFix"/>
<feBlend mode="normal" in="SourceGraphic" in2="BackgroundImageFix" result="shape"/>
<feGaussianBlur stdDeviation="4" result="effect1_foregroundBlur_239_669"/>
</filter>
<filter id="filter7_f_239_669" x="592.858" y="0.947655" width="291.281" height="262.796" filterUnits="userSpaceOnUse" color-interpolation-filters="sRGB">
<feFlood flood-opacity="0" result="BackgroundImageFix"/>
<feBlend mode="normal" in="SourceGraphic" in2="BackgroundImageFix" result="shape"/>
<feGaussianBlur stdDeviation="18.45" result="effect1_foregroundBlur_239_669"/>
</filter>
<filter id="filter8_d_239_669" x="604.058" y="13.1477" width="274.881" height="246.396" filterUnits="userSpaceOnUse" color-interpolation-filters="sRGB">
<feFlood flood-opacity="0" result="BackgroundImageFix"/>
<feColorMatrix in="SourceAlpha" type="matrix" values="0 0 0 0 0 0 0 0 0 0 0 0 0 0 0 0 0 0 127 0" result="hardAlpha"/>
<feOffset dx="3" dy="4"/>
<feGaussianBlur stdDeviation="14.35"/>
<feComposite in2="hardAlpha" operator="out"/>
<feColorMatrix type="matrix" values="0 0 0 0 1 0 0 0 0 1 0 0 0 0 1 0 0 0 0.25 0"/>
<feBlend mode="normal" in2="BackgroundImageFix" result="effect1_dropShadow_239_669"/>
<feBlend mode="normal" in="SourceGraphic" in2="effect1_dropShadow_239_669" result="shape"/>
</filter>
<clipPath id="clip0_239_669">
<rect width="56.9979" height="73.5732" fill="white" transform="matrix(-1 0 0 1 174.998 89.5967)"/>
</clipPath>
<clipPath id="clip1_239_669">
<rect width="15.0488" height="17.364" fill="white" transform="translate(135.157 111.818)"/>
</clipPath>
<clipPath id="clip2_239_669">
<rect width="82.0526" height="61.1473" fill="white" transform="translate(407.301 102.022)"/>
</clipPath>
</defs>
</svg>
