<svg width="1200" height="263" viewBox="0 0 1200 263" fill="none" xmlns="http://www.w3.org/2000/svg">
<g filter="url(#filter0_f_199_413)">
<path d="M60.8797 56.1937L87.4562 29.0732C89.3371 27.1538 91.9113 26.0723 94.5986 26.0723L257.198 26.0723C262.721 26.0723 267.198 30.5494 267.198 36.0723V164.706C267.198 167.345 266.155 169.877 264.297 171.75L233.996 202.288L202.631 233.777C200.755 235.661 198.205 236.719 195.546 236.719H34.804C29.2812 236.719 24.8041 232.242 24.8041 226.72L24.8028 97.9228C24.8027 95.3475 25.7963 92.8715 27.5764 91.0105L60.8797 56.1937Z" fill="#FF5E01"/>
</g>
<path d="M94.5986 26.5723H257.198C262.445 26.5724 266.698 30.8256 266.698 36.0723V164.706C266.698 167.213 265.707 169.618 263.941 171.397L233.642 201.936L202.277 233.424C200.495 235.213 198.073 236.22 195.547 236.22H34.8037C29.5572 236.22 25.3038 231.966 25.3037 226.72L25.3027 97.9229C25.3027 95.4764 26.2466 93.1244 27.9375 91.3564L61.2363 56.543L61.2373 56.5439L87.8135 29.4229C89.6003 27.5996 92.0458 26.5723 94.5986 26.5723Z" fill="#FF5100" stroke="white"/>
<g filter="url(#filter1_f_199_413)">
<path d="M69.6287 63.9229L93.1713 39.8984C95.0522 37.979 97.6264 36.8975 100.314 36.8975L244.741 36.8975C250.264 36.8975 254.741 41.3746 254.741 46.8975V160.859C254.741 163.498 253.698 166.029 251.84 167.902L224.952 195.001L197.112 222.951C195.236 224.835 192.686 225.894 190.027 225.894H47.261C41.7381 225.894 37.261 221.417 37.2609 215.894L37.2598 101.775C37.2598 99.2002 38.2533 96.7241 40.0334 94.8631L69.6287 63.9229Z" fill="#FF833B"/>
</g>
<g filter="url(#filter2_d_199_413)">
<path d="M69.6287 63.9229L93.1713 39.8984C95.0522 37.979 97.6264 36.8975 100.314 36.8975L244.741 36.8975C250.264 36.8975 254.741 41.3746 254.741 46.8975V160.859C254.741 163.498 253.698 166.029 251.84 167.902L224.952 195.001L197.112 222.951C195.236 224.835 192.686 225.894 190.027 225.894H47.261C41.7381 225.894 37.261 221.417 37.2609 215.894L37.2598 101.775C37.2598 99.2002 38.2533 96.7241 40.0334 94.8631L69.6287 63.9229Z" fill="#FF5100"/>
<path d="M100.313 37.3975H244.741C249.988 37.3976 254.241 41.6508 254.241 46.8975V160.859C254.241 163.366 253.25 165.77 251.484 167.55L224.598 194.648L196.758 222.598C194.975 224.387 192.553 225.393 190.027 225.394H47.2607C42.0142 225.393 37.7608 221.14 37.7607 215.894L37.7598 101.775C37.7598 99.329 38.7036 96.9769 40.3945 95.209L69.9902 64.2686L69.9893 64.2676L93.5283 40.248C95.3151 38.4248 97.7607 37.3975 100.313 37.3975Z" stroke="white"/>
</g>
<path d="M168.04 120.376H163.142V113.03C163.142 103.577 155.452 95.8867 145.999 95.8867C136.546 95.8867 128.856 103.577 128.856 113.03V120.376H123.958C120.583 120.376 117.836 123.123 117.836 126.499V160.785C117.836 164.16 120.583 166.907 123.958 166.907H168.04C171.416 166.907 174.162 164.16 174.162 160.785V126.499C174.162 123.123 171.416 120.376 168.04 120.376ZM131.305 113.03C131.305 104.927 137.896 98.3357 145.999 98.3357C154.102 98.3357 160.693 104.927 160.693 113.03V120.376H155.795V113.03C155.795 107.628 151.4 103.234 145.999 103.234C140.598 103.234 136.203 107.628 136.203 113.03V120.376H131.305V113.03ZM138.652 120.376V113.03C138.652 108.978 141.948 105.683 145.999 105.683C150.05 105.683 153.346 108.978 153.346 113.03V120.376H138.652ZM171.713 160.785C171.713 162.81 170.066 164.458 168.04 164.458H123.958C121.933 164.458 120.285 162.81 120.285 160.785V126.499C120.285 124.473 121.933 122.825 123.958 122.825H168.04C170.066 122.825 171.713 124.473 171.713 126.499V160.785ZM163.142 143.646C163.142 144.328 163.101 145.017 163.021 145.692C162.947 146.314 162.419 146.772 161.806 146.772C161.758 146.772 161.709 146.769 161.66 146.763C160.99 146.683 160.509 146.074 160.589 145.403C160.658 144.823 160.693 144.232 160.693 143.646C160.693 135.544 154.102 128.952 145.999 128.952C137.897 128.952 131.305 135.544 131.305 143.646C131.305 144.322 130.758 144.87 130.081 144.87C129.404 144.87 128.856 144.322 128.856 143.646C128.856 134.193 136.547 126.503 145.999 126.503C155.452 126.503 163.142 134.193 163.142 143.646ZM153.346 143.646C153.346 147.749 152.509 152.608 146.434 160.314C146.193 160.62 145.834 160.78 145.472 160.78C145.206 160.78 144.94 160.694 144.715 160.517C144.184 160.099 144.093 159.329 144.512 158.798C150.403 151.322 150.897 147.057 150.897 143.646C150.897 140.945 148.7 138.748 145.999 138.748C143.298 138.748 141.101 140.945 141.101 143.646C141.101 144.322 140.553 144.87 139.877 144.87C139.2 144.87 138.652 144.322 138.652 143.646C138.652 139.595 141.948 136.299 145.999 136.299C150.05 136.299 153.346 139.595 153.346 143.646ZM147.224 143.349C147.224 146.037 146.577 152.952 140.58 159.06C140.339 159.304 140.023 159.427 139.706 159.427C139.396 159.427 139.086 159.31 138.848 159.076C138.365 158.602 138.358 157.827 138.831 157.344C144.196 151.881 144.775 145.737 144.775 143.349C144.775 142.673 145.322 142.124 145.999 142.124C146.676 142.124 147.224 142.673 147.224 143.349ZM158.244 143.646C158.244 146.711 157.958 150.403 155.834 154.548C155.618 154.971 155.189 155.214 154.744 155.214C154.556 155.214 154.366 155.171 154.187 155.079C153.585 154.771 153.347 154.033 153.656 153.431C155.54 149.75 155.795 146.419 155.795 143.646C155.795 138.244 151.4 133.85 145.999 133.85C140.598 133.85 136.203 138.244 136.203 143.646C136.203 145.954 135.97 148.721 133.185 152.346C132.774 152.881 132.006 152.984 131.468 152.571C130.932 152.159 130.831 151.39 131.243 150.853C133.562 147.835 133.754 145.722 133.754 143.646C133.754 136.894 139.248 131.401 145.999 131.401C152.751 131.401 158.244 136.894 158.244 143.646ZM140.318 149.376C139.572 151.936 138.291 154.145 136.289 156.328C136.048 156.591 135.718 156.725 135.387 156.725C135.09 156.725 134.795 156.618 134.559 156.402C134.061 155.946 134.027 155.171 134.484 154.673C136.769 152.182 137.567 150.065 137.967 148.69C138.156 148.04 138.834 147.668 139.486 147.857C140.135 148.047 140.507 148.727 140.318 149.376Z" fill="white"/>
<g filter="url(#filter3_f_199_413)">
<path d="M350.88 56.1937L377.456 29.0732C379.337 27.1538 381.911 26.0723 384.599 26.0723L547.198 26.0723C552.721 26.0723 557.198 30.5494 557.198 36.0723V164.706C557.198 167.345 556.155 169.877 554.297 171.75L523.996 202.288L492.631 233.777C490.755 235.661 488.205 236.719 485.546 236.719H324.804C319.281 236.719 314.804 232.242 314.804 226.72L314.803 97.9228C314.803 95.3475 315.796 92.8715 317.576 91.0105L350.88 56.1937Z" fill="#FF5E01"/>
</g>
<path d="M384.599 26.5723H547.198C552.445 26.5724 556.698 30.8256 556.698 36.0723V164.706C556.698 167.213 555.707 169.618 553.941 171.397L523.642 201.936L492.277 233.424C490.495 235.213 488.073 236.22 485.547 236.22H324.804C319.557 236.22 315.304 231.966 315.304 226.72L315.303 97.9229C315.303 95.4764 316.247 93.1244 317.938 91.3564L351.236 56.543L351.237 56.5439L377.813 29.4229C379.6 27.5996 382.046 26.5723 384.599 26.5723Z" fill="#FF5100" stroke="white"/>
<g filter="url(#filter4_f_199_413)">
<path d="M359.629 63.9229L383.171 39.8984C385.052 37.979 387.626 36.8975 390.314 36.8975L534.741 36.8975C540.264 36.8975 544.741 41.3746 544.741 46.8975V160.859C544.741 163.498 543.698 166.029 541.84 167.902L514.952 195.001L487.112 222.951C485.236 224.835 482.686 225.894 480.027 225.894H337.261C331.738 225.894 327.261 221.417 327.261 215.894L327.26 101.775C327.26 99.2002 328.253 96.7241 330.033 94.8631L359.629 63.9229Z" fill="#FF833B"/>
</g>
<g filter="url(#filter5_d_199_413)">
<path d="M359.629 63.9229L383.171 39.8984C385.052 37.979 387.626 36.8975 390.314 36.8975L534.741 36.8975C540.264 36.8975 544.741 41.3746 544.741 46.8975V160.859C544.741 163.498 543.698 166.029 541.84 167.902L514.952 195.001L487.112 222.951C485.236 224.835 482.686 225.894 480.027 225.894H337.261C331.738 225.894 327.261 221.417 327.261 215.894L327.26 101.775C327.26 99.2002 328.253 96.7241 330.033 94.8631L359.629 63.9229Z" fill="#FF5100"/>
<path d="M390.313 37.3975H534.741C539.988 37.3976 544.241 41.6508 544.241 46.8975V160.859C544.241 163.366 543.25 165.77 541.484 167.55L514.598 194.648L486.758 222.598C484.975 224.387 482.553 225.393 480.027 225.394H337.261C332.014 225.393 327.761 221.14 327.761 215.894L327.76 101.775C327.76 99.329 328.704 96.9769 330.395 95.209L359.99 64.2686L359.989 64.2676L383.528 40.248C385.315 38.4248 387.761 37.3975 390.313 37.3975Z" stroke="white"/>
</g>
<g clip-path="url(#clip0_199_413)">
<path d="M468.347 103.18L436.909 93.4386C436.29 93.2447 435.692 93.2447 435.086 93.4371L403.636 103.18C402.344 103.583 401.477 104.762 401.477 106.116V111.459C401.477 123.479 401.477 137.102 407.399 148.573C410.301 154.195 414.123 158.66 419.085 162.225C423.119 165.122 428.011 167.536 434.952 170.055C435.298 170.178 435.645 170.24 435.994 170.24C436.344 170.24 436.693 170.176 437.04 170.052C443.975 167.537 448.866 165.125 452.898 162.231C457.862 158.668 461.686 154.2 464.591 148.573C470.511 137.108 470.511 123.482 470.511 111.459V106.116C470.509 104.761 469.641 103.58 468.347 103.18ZM468.106 111.458C468.106 123.207 468.106 136.525 462.456 147.47C456.739 158.545 448.179 163.456 436.222 167.79C436.057 167.849 435.928 167.849 435.765 167.791C423.807 163.453 415.247 158.54 409.533 147.47C403.878 136.516 403.878 123.204 403.878 111.458V106.116C403.878 105.811 404.058 105.565 404.348 105.475L435.804 95.7289C435.874 95.7063 435.932 95.6958 435.992 95.6958C436.054 95.6958 436.117 95.7078 436.192 95.7319L467.635 105.475C467.929 105.566 468.105 105.807 468.105 106.116V111.458H468.106ZM460.547 110.311L436.35 102.809C436.118 102.737 435.871 102.737 435.639 102.809L411.442 110.311C410.938 110.467 410.596 110.932 410.596 111.458C410.596 123.063 410.839 132.587 413.896 140.76C415.606 145.33 418.06 149.099 421.401 152.284C425.061 155.773 429.701 158.493 435.589 160.599C435.72 160.645 435.857 160.67 435.994 160.67C436.131 160.67 436.267 160.645 436.398 160.599C442.285 158.493 446.925 155.773 450.585 152.284C453.924 149.099 456.38 145.33 458.09 140.76C461.148 132.586 461.392 123.061 461.392 111.458C461.393 110.932 461.051 110.466 460.547 110.311ZM435.994 158.19C413.329 149.881 413.003 132.511 412.999 112.343L435.994 105.213L458.989 112.343C458.986 132.511 458.66 149.879 435.994 158.19ZM429.066 115.397C427.21 117.253 426.188 119.711 426.188 122.322V125.61H424.79C423.131 125.61 421.783 126.959 421.783 128.617V143.208C421.783 144.867 423.132 146.215 424.79 146.215H447.193C448.854 146.215 450.205 144.866 450.205 143.208V128.617C450.205 126.958 448.854 125.61 447.193 125.61H445.795V122.322C445.795 119.713 444.773 117.254 442.917 115.397C441.061 113.541 438.603 112.519 435.994 112.519C433.382 112.519 430.922 113.541 429.066 115.397ZM447.803 128.617V143.208C447.803 143.536 447.524 143.812 447.194 143.812H424.79C424.462 143.812 424.186 143.536 424.186 143.208V128.617C424.186 128.289 424.462 128.013 424.79 128.013H447.193C447.524 128.013 447.803 128.289 447.803 128.617ZM440.616 125.61H431.368V122.322C431.368 121.095 431.85 119.938 432.728 119.06C433.606 118.183 434.766 117.7 435.994 117.7C437.22 117.7 438.377 118.183 439.255 119.06C440.133 119.938 440.615 121.095 440.615 122.322V125.61H440.616ZM443.394 122.322V125.61H443.02V122.322C443.02 120.454 442.286 118.692 440.955 117.361C439.623 116.029 437.862 115.296 435.994 115.296C434.123 115.296 432.36 116.029 431.028 117.361C429.697 118.692 428.963 120.454 428.963 122.322V125.61H428.589V122.322C428.589 120.354 429.362 118.498 430.764 117.096C432.166 115.694 434.024 114.922 435.994 114.922C437.961 114.922 439.817 115.694 441.219 117.096C442.621 118.498 443.394 120.354 443.394 122.322ZM431.874 139.221C431.874 139.885 431.336 140.422 430.674 140.422H426.627C426.604 140.422 426.581 140.42 426.557 140.419C426.53 140.42 426.505 140.422 426.478 140.422C426.14 140.422 425.805 140.281 425.567 140.004C425.134 139.501 425.191 138.743 425.695 138.31C426.784 137.373 427.875 136.43 428.965 135.488L429.168 135.312C429.363 135.144 429.471 134.933 429.471 134.719C429.471 134.504 429.368 134.301 429.172 134.134C428.663 133.692 427.772 133.694 427.262 134.132C426.76 134.565 426.001 134.51 425.569 134.008C425.136 133.506 425.191 132.747 425.693 132.314C427.11 131.092 429.327 131.092 430.74 132.315C431.458 132.932 431.873 133.808 431.873 134.717C431.874 135.628 431.46 136.508 430.737 137.132L430.534 137.306C430.259 137.544 429.982 137.781 429.707 138.019H430.672C431.336 138.019 431.874 138.557 431.874 139.221ZM438.772 135.676C438.772 136.34 438.234 136.877 437.572 136.877H435.238V139.22C435.238 139.884 434.7 140.42 434.037 140.42C433.374 140.42 432.836 139.882 432.836 139.22V132.604C432.836 131.94 433.374 131.403 434.037 131.403H437.573C438.237 131.403 438.774 131.941 438.774 132.604C438.774 133.267 438.236 133.805 437.573 133.805H435.239V134.474H437.573C438.234 134.475 438.772 135.013 438.772 135.676ZM442.639 131.403C442.16 131.403 441.727 131.687 441.536 132.128L438.673 138.743C438.41 139.352 438.69 140.06 439.298 140.323C439.907 140.587 440.615 140.306 440.878 139.697L441.17 139.024C441.284 139.06 441.405 139.08 441.53 139.08H443.899C443.977 139.08 444.052 139.072 444.126 139.057L444.404 139.697C444.601 140.151 445.042 140.422 445.507 140.422C445.666 140.422 445.828 140.39 445.983 140.323C446.592 140.058 446.871 139.352 446.608 138.743L443.741 132.128C443.552 131.687 443.119 131.403 442.639 131.403ZM442.187 136.677L442.641 135.628L443.096 136.677H442.187Z" fill="white"/>
</g>
<g filter="url(#filter6_f_199_413)">
<path d="M665.88 56.1937L692.456 29.0732C694.337 27.1538 696.911 26.0723 699.599 26.0723L862.198 26.0723C867.721 26.0723 872.198 30.5494 872.198 36.0723V164.706C872.198 167.345 871.155 169.877 869.297 171.75L838.996 202.288L807.631 233.777C805.755 235.661 803.205 236.719 800.546 236.719H639.804C634.281 236.719 629.804 232.242 629.804 226.72L629.803 97.9228C629.803 95.3475 630.796 92.8715 632.576 91.0105L665.88 56.1937Z" fill="#FF5E01"/>
</g>
<path d="M699.599 26.5723H862.198C867.445 26.5724 871.698 30.8256 871.698 36.0723V164.706C871.698 167.213 870.707 169.618 868.941 171.397L838.642 201.936L807.277 233.424C805.495 235.213 803.073 236.22 800.547 236.22H639.804C634.557 236.22 630.304 231.966 630.304 226.72L630.303 97.9229C630.303 95.4764 631.247 93.1244 632.938 91.3564L666.236 56.543L666.237 56.5439L692.813 29.4229C694.6 27.5996 697.046 26.5723 699.599 26.5723Z" fill="#FF5100" stroke="white"/>
<g filter="url(#filter7_f_199_413)">
<path d="M674.629 63.9229L698.171 39.8984C700.052 37.979 702.626 36.8975 705.314 36.8975L849.741 36.8975C855.264 36.8975 859.741 41.3746 859.741 46.8975V160.859C859.741 163.498 858.698 166.029 856.84 167.902L829.952 195.001L802.112 222.951C800.236 224.835 797.686 225.894 795.027 225.894H652.261C646.738 225.894 642.261 221.417 642.261 215.894L642.26 101.775C642.26 99.2002 643.253 96.7241 645.033 94.8631L674.629 63.9229Z" fill="#FF833B"/>
</g>
<g filter="url(#filter8_d_199_413)">
<path d="M674.629 63.9229L698.171 39.8984C700.052 37.979 702.626 36.8975 705.314 36.8975L849.741 36.8975C855.264 36.8975 859.741 41.3746 859.741 46.8975V160.859C859.741 163.498 858.698 166.029 856.84 167.902L829.952 195.001L802.112 222.951C800.236 224.835 797.686 225.894 795.027 225.894H652.261C646.738 225.894 642.261 221.417 642.261 215.894L642.26 101.775C642.26 99.2002 643.253 96.7241 645.033 94.8631L674.629 63.9229Z" fill="#FF5100"/>
<path d="M705.313 37.3975H849.741C854.988 37.3976 859.241 41.6508 859.241 46.8975V160.859C859.241 163.366 858.25 165.77 856.484 167.55L829.598 194.648L801.758 222.598C799.975 224.387 797.553 225.393 795.027 225.394H652.261C647.014 225.393 642.761 221.14 642.761 215.894L642.76 101.775C642.76 99.329 643.704 96.9769 645.395 95.209L674.99 64.2686L674.989 64.2676L698.528 40.248C700.315 38.4248 702.761 37.3975 705.313 37.3975Z" stroke="white"/>
</g>
<g clip-path="url(#clip1_199_413)">
<path d="M783.364 141.752H767.796C768.653 140.639 769.12 139.274 769.124 137.869V114.568C769.12 110.996 766.225 108.1 762.652 108.096H760.063V101.624C760.063 96.6194 756.006 92.5625 751.002 92.5625C745.998 92.5625 741.941 96.6194 741.941 101.624V108.096H739.352C735.779 108.1 732.884 110.996 732.879 114.568V137.869C732.884 139.274 733.351 140.639 734.207 141.752H718.64C715.067 141.757 712.172 144.652 712.168 148.224V163.758C712.172 167.331 715.067 170.226 718.64 170.23H783.364C786.936 170.226 789.832 167.331 789.836 163.758V148.224C789.832 144.652 786.936 141.757 783.364 141.752ZM744.53 101.624C744.53 98.0492 747.427 95.1513 751.002 95.1513C754.576 95.1513 757.474 98.0492 757.474 101.624V108.096H744.53V101.624H744.53ZM735.468 137.869V114.568C735.468 112.424 737.207 110.685 739.352 110.685H762.652C764.797 110.685 766.536 112.424 766.536 114.568V137.869C766.536 140.014 764.797 141.752 762.652 141.752H739.352C737.207 141.752 735.468 140.014 735.468 137.869ZM787.247 163.758C787.247 165.903 785.508 167.641 783.364 167.641H718.64C716.496 167.641 714.757 165.903 714.757 163.758V148.224C714.757 146.08 716.496 144.341 718.64 144.341H783.364C785.508 144.341 787.247 146.08 787.247 148.224L787.247 163.758Z" fill="white"/>
<path fill-rule="evenodd" clip-rule="evenodd" d="M755.809 151.192C755.303 150.687 754.484 150.687 753.978 151.192L751.01 154.161L748.042 151.192C747.534 150.702 746.727 150.709 746.227 151.208C745.728 151.708 745.721 152.515 746.212 153.023L749.18 155.991L746.212 158.959C745.875 159.284 745.74 159.766 745.859 160.218C745.977 160.671 746.331 161.024 746.783 161.143C747.236 161.261 747.717 161.126 748.042 160.79L751.01 157.821L753.978 160.79C754.486 161.28 755.294 161.273 755.793 160.774C756.292 160.274 756.299 159.467 755.809 158.959L752.841 155.991L755.809 153.023C756.314 152.517 756.314 151.698 755.809 151.192Z" fill="white"/>
<path fill-rule="evenodd" clip-rule="evenodd" d="M742.858 151.192C742.352 150.687 741.533 150.687 741.027 151.192L738.059 154.161L735.091 151.192C734.583 150.702 733.775 150.709 733.276 151.208C732.777 151.708 732.77 152.515 733.26 153.023L736.229 155.991L733.26 158.959C732.924 159.284 732.789 159.766 732.907 160.218C733.026 160.671 733.379 161.024 733.832 161.143C734.284 161.261 734.766 161.126 735.091 160.79L738.059 157.821L741.027 160.79C741.535 161.28 742.343 161.273 742.842 160.774C743.341 160.274 743.348 159.467 742.858 158.959L739.889 155.991L742.858 153.023C743.363 152.517 743.363 151.698 742.858 151.192Z" fill="white"/>
<path fill-rule="evenodd" clip-rule="evenodd" d="M729.916 151.192C729.411 150.687 728.591 150.687 728.086 151.192L725.118 154.161L722.149 151.192C721.642 150.702 720.834 150.709 720.335 151.208C719.835 151.708 719.828 152.515 720.319 153.023L723.287 155.991L720.319 158.959C719.983 159.284 719.848 159.766 719.966 160.218C720.085 160.671 720.438 161.024 720.89 161.143C721.343 161.261 721.824 161.126 722.149 160.79L725.118 157.821L728.086 160.79C728.594 161.28 729.401 161.273 729.9 160.774C730.4 160.274 730.407 159.467 729.916 158.959L726.948 155.991L729.916 153.023C730.422 152.517 730.422 151.698 729.916 151.192Z" fill="white"/>
<path fill-rule="evenodd" clip-rule="evenodd" d="M781.692 151.192C781.186 150.687 780.367 150.687 779.861 151.192L776.893 154.161L773.925 151.192C773.417 150.702 772.609 150.709 772.11 151.208C771.611 151.708 771.604 152.515 772.094 153.023L775.063 155.991L772.094 158.959C771.758 159.284 771.623 159.766 771.741 160.218C771.86 160.671 772.213 161.024 772.666 161.143C773.118 161.261 773.6 161.126 773.925 160.79L776.893 157.821L779.861 160.79C780.369 161.28 781.177 161.273 781.676 160.774C782.175 160.274 782.182 159.467 781.692 158.959L778.723 155.991L781.692 153.023C782.197 152.517 782.197 151.698 781.692 151.192Z" fill="white"/>
<path fill-rule="evenodd" clip-rule="evenodd" d="M768.75 151.192C768.245 150.687 767.425 150.687 766.92 151.192L763.952 154.161L760.983 151.192C760.476 150.702 759.668 150.709 759.169 151.208C758.669 151.708 758.662 152.515 759.153 153.023L762.121 155.991L759.153 158.959C758.817 159.284 758.682 159.766 758.8 160.218C758.919 160.671 759.272 161.024 759.724 161.143C760.177 161.261 760.658 161.126 760.983 160.79L763.952 157.821L766.92 160.79C767.428 161.28 768.235 161.273 768.734 160.774C769.234 160.274 769.241 159.467 768.75 158.959L765.782 155.991L768.75 153.023C769.256 152.517 769.256 151.698 768.75 151.192Z" fill="white"/>
<path fill-rule="evenodd" clip-rule="evenodd" d="M751.003 114.567C746.715 114.572 743.241 118.047 743.236 122.334C743.236 123.049 743.816 123.629 744.531 123.629C745.246 123.629 745.825 123.049 745.825 122.334C745.825 119.475 748.143 117.156 751.003 117.156C753.863 117.156 756.181 119.475 756.181 122.334C756.181 125.194 753.863 127.512 751.003 127.512C750.288 127.512 749.709 128.092 749.709 128.806V131.395C749.709 132.11 750.288 132.69 751.003 132.69C751.718 132.69 752.298 132.11 752.298 131.395V129.993C756.282 129.324 759.088 125.711 758.75 121.685C758.412 117.658 755.044 114.564 751.003 114.567Z" fill="white"/>
<path d="M751.007 137.868C751.722 137.868 752.302 137.289 752.302 136.574C752.302 135.859 751.722 135.279 751.007 135.279C750.292 135.279 749.713 135.859 749.713 136.574C749.713 137.289 750.292 137.868 751.007 137.868Z" fill="white"/>
</g>
<g filter="url(#filter9_f_199_413)">
<path d="M968.88 56.1937L995.456 29.0732C997.337 27.1538 999.911 26.0723 1002.6 26.0723L1165.2 26.0723C1170.72 26.0723 1175.2 30.5494 1175.2 36.0723V164.706C1175.2 167.345 1174.16 169.877 1172.3 171.75L1142 202.288L1110.63 233.777C1108.75 235.661 1106.21 236.719 1103.55 236.719H942.804C937.281 236.719 932.804 232.242 932.804 226.72L932.803 97.9228C932.803 95.3475 933.796 92.8715 935.576 91.0105L968.88 56.1937Z" fill="#FF5E01"/>
</g>
<path d="M1002.2 26.5723H1164.8C1170.05 26.5724 1174.3 30.8256 1174.3 36.0723V164.706C1174.3 167.213 1173.31 169.618 1171.55 171.397L1141.25 201.936L1109.88 233.424C1108.1 235.213 1105.68 236.22 1103.15 236.22H942.409C937.163 236.22 932.909 231.966 932.909 226.72L932.908 97.9229C932.908 95.4764 933.852 93.1244 935.543 91.3564L968.842 56.543L968.843 56.5439L995.419 29.4229C997.206 27.5996 999.651 26.5723 1002.2 26.5723Z" fill="#FF5100" stroke="white"/>
<g filter="url(#filter10_f_199_413)">
<path d="M977.629 63.9229L1001.17 39.8984C1003.05 37.979 1005.63 36.8975 1008.31 36.8975L1152.74 36.8975C1158.26 36.8975 1162.74 41.3746 1162.74 46.8975V160.859C1162.74 163.498 1161.7 166.029 1159.84 167.902L1132.95 195.001L1105.11 222.951C1103.24 224.835 1100.69 225.894 1098.03 225.894H955.261C949.738 225.894 945.261 221.417 945.261 215.894L945.26 101.775C945.26 99.2002 946.253 96.7241 948.033 94.8631L977.629 63.9229Z" fill="#FF833B"/>
</g>
<g filter="url(#filter11_d_199_413)">
<path d="M977.234 63.9229L1000.78 39.8984C1002.66 37.979 1005.23 36.8975 1007.92 36.8975L1152.35 36.8975C1157.87 36.8975 1162.35 41.3746 1162.35 46.8975V160.859C1162.35 163.498 1161.3 166.029 1159.45 167.902L1132.56 195.001L1104.72 222.951C1102.84 224.835 1100.29 225.894 1097.63 225.894H954.866C949.344 225.894 944.866 221.417 944.866 215.894L944.865 101.775C944.865 99.2002 945.859 96.7241 947.639 94.8631L977.234 63.9229Z" fill="#FF5100"/>
<path d="M1007.92 37.3975H1152.35C1157.59 37.3976 1161.85 41.6508 1161.85 46.8975V160.859C1161.85 163.366 1160.86 165.77 1159.09 167.55L1132.2 194.648L1104.36 222.598C1102.58 224.387 1100.16 225.393 1097.63 225.394H954.866C949.62 225.393 945.366 221.14 945.366 215.894L945.365 101.775C945.365 99.329 946.309 96.9769 948 95.209L977.596 64.2686L977.595 64.2676L1001.13 40.248C1002.92 38.4248 1005.37 37.3975 1007.92 37.3975Z" stroke="white"/>
</g>
<path d="M1085.19 101.704H1089.08C1090.6 101.704 1091.84 102.938 1091.84 104.459V158.333C1091.84 159.854 1090.6 161.088 1089.08 161.088H1018.52C1017 161.088 1015.77 159.854 1015.77 158.333V153.053" stroke="white" stroke-width="2.49083" stroke-miterlimit="10" stroke-linecap="round" stroke-linejoin="round"/>
<path d="M1015.77 152.746V104.459C1015.77 102.938 1017 101.704 1018.52 101.704H1085.02" stroke="white" stroke-width="2.49083" stroke-miterlimit="10" stroke-linecap="round" stroke-linejoin="round"/>
<path d="M1024.05 110.686C1025.32 110.686 1026.34 109.658 1026.34 108.39C1026.34 107.123 1025.32 106.095 1024.05 106.095C1022.78 106.095 1021.75 107.123 1021.75 108.39C1021.75 109.658 1022.78 110.686 1024.05 110.686Z" stroke="white" stroke-width="2.49083" stroke-miterlimit="10" stroke-linecap="round" stroke-linejoin="round"/>
<path d="M1033.61 110.681C1034.88 110.681 1035.91 109.654 1035.91 108.386C1035.91 107.118 1034.88 106.09 1033.61 106.09C1032.34 106.09 1031.32 107.118 1031.32 108.386C1031.32 109.654 1032.34 110.681 1033.61 110.681Z" stroke="white" stroke-width="2.49083" stroke-miterlimit="10" stroke-linecap="round" stroke-linejoin="round"/>
<path d="M1043.17 110.681C1044.44 110.681 1045.47 109.654 1045.47 108.386C1045.47 107.118 1044.44 106.09 1043.17 106.09C1041.91 106.09 1040.88 107.118 1040.88 108.386C1040.88 109.654 1041.91 110.681 1043.17 110.681Z" stroke="white" stroke-width="2.49083" stroke-miterlimit="10" stroke-linecap="round" stroke-linejoin="round"/>
<path d="M1060.94 125.12H1082.65" stroke="white" stroke-width="2.49083" stroke-miterlimit="10" stroke-linecap="round" stroke-linejoin="round"/>
<path d="M1060.94 129.713H1076.58" stroke="white" stroke-width="2.49083" stroke-miterlimit="10" stroke-linecap="round" stroke-linejoin="round"/>
<path d="M1049.54 154.148H1024.23C1022.09 154.148 1020.36 152.414 1020.36 150.275V124.962C1020.36 122.823 1022.09 121.089 1024.23 121.089H1049.54C1051.68 121.089 1053.42 122.823 1053.42 124.962V150.275C1053.42 152.414 1051.68 154.148 1049.54 154.148Z" stroke="white" stroke-width="2.49083" stroke-miterlimit="10" stroke-linecap="round" stroke-linejoin="round"/>
<path d="M1041.41 144.913L1038.07 147.51C1037.38 148.05 1036.41 148.05 1035.71 147.51L1032.38 144.913C1029.57 142.729 1027.93 139.372 1027.93 135.815V130.512C1027.93 129.258 1028.94 128.242 1030.2 128.242H1043.59C1044.84 128.242 1045.86 129.258 1045.86 130.512V135.815C1045.86 139.372 1044.22 142.729 1041.41 144.913Z" stroke="white" stroke-width="2.49083" stroke-miterlimit="10" stroke-linecap="round" stroke-linejoin="round"/>
<path d="M1033.5 136.23L1036.99 139.055L1040.29 134.534" stroke="white" stroke-width="2.49083" stroke-miterlimit="10" stroke-linecap="round" stroke-linejoin="round"/>
<path d="M1058.07 152.552V137.465C1058.07 136.584 1058.78 135.87 1059.67 135.87H1085.65C1086.53 135.87 1087.25 136.584 1087.25 137.465V152.552C1087.25 153.433 1086.53 154.147 1085.65 154.147H1059.67C1058.78 154.147 1058.07 153.433 1058.07 152.552Z" stroke="white" stroke-width="2.49083" stroke-miterlimit="10" stroke-linecap="round" stroke-linejoin="round"/>
<path d="M1069.82 149L1072.82 141.132C1072.88 140.982 1073.09 140.982 1073.15 141.132L1076.12 149" stroke="white" stroke-width="2.49083" stroke-miterlimit="10" stroke-linecap="round" stroke-linejoin="round"/>
<path d="M1070.76 147.04H1075.21" stroke="white" stroke-width="2.49083" stroke-miterlimit="10" stroke-linecap="round" stroke-linejoin="round"/>
<path d="M1077.62 141.02L1080.16 144.924L1082.69 141.04" stroke="white" stroke-width="2.49083" stroke-miterlimit="10" stroke-linecap="round" stroke-linejoin="round"/>
<path d="M1080.15 148.997L1080.16 144.92" stroke="white" stroke-width="2.49083" stroke-miterlimit="10" stroke-linecap="round" stroke-linejoin="round"/>
<path d="M1063.83 141.02V149" stroke="white" stroke-width="2.49083" stroke-miterlimit="10" stroke-linecap="round" stroke-linejoin="round"/>
<path d="M1068.35 143.272C1068.35 144.516 1067.3 145.524 1066.05 145.524C1065.44 145.524 1063.85 145.534 1063.85 145.534C1063.85 145.534 1063.84 143.899 1063.84 143.272C1063.84 142.757 1063.83 141.02 1063.83 141.02C1063.83 141.02 1065.32 141.02 1066.05 141.02C1067.3 141.02 1068.35 142.028 1068.35 143.272Z" stroke="white" stroke-width="2.49083" stroke-miterlimit="10" stroke-linecap="round" stroke-linejoin="round"/>
<path d="M1016.29 115.479H1091.19" stroke="white" stroke-width="2.49083" stroke-miterlimit="10" stroke-linecap="round" stroke-linejoin="round"/>
<defs>
<filter id="filter0_f_199_413" x="16.8027" y="18.0723" width="258.396" height="226.647" filterUnits="userSpaceOnUse" color-interpolation-filters="sRGB">
<feFlood flood-opacity="0" result="BackgroundImageFix"/>
<feBlend mode="normal" in="SourceGraphic" in2="BackgroundImageFix" result="shape"/>
<feGaussianBlur stdDeviation="4" result="effect1_foregroundBlur_199_413"/>
</filter>
<filter id="filter1_f_199_413" x="0.359764" y="-0.00254059" width="291.281" height="262.796" filterUnits="userSpaceOnUse" color-interpolation-filters="sRGB">
<feFlood flood-opacity="0" result="BackgroundImageFix"/>
<feBlend mode="normal" in="SourceGraphic" in2="BackgroundImageFix" result="shape"/>
<feGaussianBlur stdDeviation="18.45" result="effect1_foregroundBlur_199_413"/>
</filter>
<filter id="filter2_d_199_413" x="11.5598" y="12.1975" width="274.881" height="246.396" filterUnits="userSpaceOnUse" color-interpolation-filters="sRGB">
<feFlood flood-opacity="0" result="BackgroundImageFix"/>
<feColorMatrix in="SourceAlpha" type="matrix" values="0 0 0 0 0 0 0 0 0 0 0 0 0 0 0 0 0 0 127 0" result="hardAlpha"/>
<feOffset dx="3" dy="4"/>
<feGaussianBlur stdDeviation="14.35"/>
<feComposite in2="hardAlpha" operator="out"/>
<feColorMatrix type="matrix" values="0 0 0 0 1 0 0 0 0 1 0 0 0 0 1 0 0 0 0.25 0"/>
<feBlend mode="normal" in2="BackgroundImageFix" result="effect1_dropShadow_199_413"/>
<feBlend mode="normal" in="SourceGraphic" in2="effect1_dropShadow_199_413" result="shape"/>
</filter>
<filter id="filter3_f_199_413" x="306.803" y="18.0723" width="258.396" height="226.647" filterUnits="userSpaceOnUse" color-interpolation-filters="sRGB">
<feFlood flood-opacity="0" result="BackgroundImageFix"/>
<feBlend mode="normal" in="SourceGraphic" in2="BackgroundImageFix" result="shape"/>
<feGaussianBlur stdDeviation="4" result="effect1_foregroundBlur_199_413"/>
</filter>
<filter id="filter4_f_199_413" x="290.36" y="-0.00254059" width="291.281" height="262.796" filterUnits="userSpaceOnUse" color-interpolation-filters="sRGB">
<feFlood flood-opacity="0" result="BackgroundImageFix"/>
<feBlend mode="normal" in="SourceGraphic" in2="BackgroundImageFix" result="shape"/>
<feGaussianBlur stdDeviation="18.45" result="effect1_foregroundBlur_199_413"/>
</filter>
<filter id="filter5_d_199_413" x="301.56" y="12.1975" width="274.881" height="246.396" filterUnits="userSpaceOnUse" color-interpolation-filters="sRGB">
<feFlood flood-opacity="0" result="BackgroundImageFix"/>
<feColorMatrix in="SourceAlpha" type="matrix" values="0 0 0 0 0 0 0 0 0 0 0 0 0 0 0 0 0 0 127 0" result="hardAlpha"/>
<feOffset dx="3" dy="4"/>
<feGaussianBlur stdDeviation="14.35"/>
<feComposite in2="hardAlpha" operator="out"/>
<feColorMatrix type="matrix" values="0 0 0 0 1 0 0 0 0 1 0 0 0 0 1 0 0 0 0.25 0"/>
<feBlend mode="normal" in2="BackgroundImageFix" result="effect1_dropShadow_199_413"/>
<feBlend mode="normal" in="SourceGraphic" in2="effect1_dropShadow_199_413" result="shape"/>
</filter>
<filter id="filter6_f_199_413" x="621.803" y="18.0723" width="258.396" height="226.647" filterUnits="userSpaceOnUse" color-interpolation-filters="sRGB">
<feFlood flood-opacity="0" result="BackgroundImageFix"/>
<feBlend mode="normal" in="SourceGraphic" in2="BackgroundImageFix" result="shape"/>
<feGaussianBlur stdDeviation="4" result="effect1_foregroundBlur_199_413"/>
</filter>
<filter id="filter7_f_199_413" x="605.36" y="-0.00254059" width="291.281" height="262.796" filterUnits="userSpaceOnUse" color-interpolation-filters="sRGB">
<feFlood flood-opacity="0" result="BackgroundImageFix"/>
<feBlend mode="normal" in="SourceGraphic" in2="BackgroundImageFix" result="shape"/>
<feGaussianBlur stdDeviation="18.45" result="effect1_foregroundBlur_199_413"/>
</filter>
<filter id="filter8_d_199_413" x="616.56" y="12.1975" width="274.881" height="246.396" filterUnits="userSpaceOnUse" color-interpolation-filters="sRGB">
<feFlood flood-opacity="0" result="BackgroundImageFix"/>
<feColorMatrix in="SourceAlpha" type="matrix" values="0 0 0 0 0 0 0 0 0 0 0 0 0 0 0 0 0 0 127 0" result="hardAlpha"/>
<feOffset dx="3" dy="4"/>
<feGaussianBlur stdDeviation="14.35"/>
<feComposite in2="hardAlpha" operator="out"/>
<feColorMatrix type="matrix" values="0 0 0 0 1 0 0 0 0 1 0 0 0 0 1 0 0 0 0.25 0"/>
<feBlend mode="normal" in2="BackgroundImageFix" result="effect1_dropShadow_199_413"/>
<feBlend mode="normal" in="SourceGraphic" in2="effect1_dropShadow_199_413" result="shape"/>
</filter>
<filter id="filter9_f_199_413" x="924.803" y="18.0723" width="258.396" height="226.647" filterUnits="userSpaceOnUse" color-interpolation-filters="sRGB">
<feFlood flood-opacity="0" result="BackgroundImageFix"/>
<feBlend mode="normal" in="SourceGraphic" in2="BackgroundImageFix" result="shape"/>
<feGaussianBlur stdDeviation="4" result="effect1_foregroundBlur_199_413"/>
</filter>
<filter id="filter10_f_199_413" x="908.36" y="-0.00254059" width="291.281" height="262.796" filterUnits="userSpaceOnUse" color-interpolation-filters="sRGB">
<feFlood flood-opacity="0" result="BackgroundImageFix"/>
<feBlend mode="normal" in="SourceGraphic" in2="BackgroundImageFix" result="shape"/>
<feGaussianBlur stdDeviation="18.45" result="effect1_foregroundBlur_199_413"/>
</filter>
<filter id="filter11_d_199_413" x="919.165" y="12.1975" width="274.881" height="246.396" filterUnits="userSpaceOnUse" color-interpolation-filters="sRGB">
<feFlood flood-opacity="0" result="BackgroundImageFix"/>
<feColorMatrix in="SourceAlpha" type="matrix" values="0 0 0 0 0 0 0 0 0 0 0 0 0 0 0 0 0 0 127 0" result="hardAlpha"/>
<feOffset dx="3" dy="4"/>
<feGaussianBlur stdDeviation="14.35"/>
<feComposite in2="hardAlpha" operator="out"/>
<feColorMatrix type="matrix" values="0 0 0 0 1 0 0 0 0 1 0 0 0 0 1 0 0 0 0.25 0"/>
<feBlend mode="normal" in2="BackgroundImageFix" result="effect1_dropShadow_199_413"/>
<feBlend mode="normal" in="SourceGraphic" in2="effect1_dropShadow_199_413" result="shape"/>
</filter>
<clipPath id="clip0_199_413">
<rect width="76.9453" height="76.9453" fill="white" transform="translate(397.521 93.293)"/>
</clipPath>
<clipPath id="clip1_199_413">
<rect width="77.668" height="77.668" fill="white" transform="translate(712.168 92.5625)"/>
</clipPath>
</defs>
</svg>
