<svg width="884" height="264" viewBox="0 0 884 264" fill="none" xmlns="http://www.w3.org/2000/svg">
<line x1="267" y1="143.5" x2="327" y2="143.5" stroke="white"/>
<path d="M569 143.5L617 143.5" stroke="white"/>
<g filter="url(#filter0_f_154_327)">
<path d="M61.077 57.1214L87.6535 30.0009C89.5344 28.0816 92.1086 27 94.7958 27L257.395 27C262.918 27 267.395 31.4772 267.395 37V165.634C267.395 168.273 266.352 170.804 264.494 172.677L234.194 203.216L202.829 234.704C200.952 236.588 198.403 237.647 195.744 237.647H35.0013C29.4785 237.647 25.0014 233.17 25.0013 227.647L25 98.8506C25 96.2753 25.9935 93.7992 27.7737 91.9382L61.077 57.1214Z" fill="#FF5E01"/>
</g>
<path d="M94.7959 27.5H257.396C262.642 27.5001 266.896 31.7534 266.896 37V165.634C266.896 168.14 265.904 170.546 264.139 172.325L233.839 202.863L202.475 234.352C200.692 236.141 198.27 237.147 195.744 237.147H35.001C29.7545 237.147 25.5011 232.894 25.501 227.647L25.5 98.8506C25.5 96.4042 26.4438 94.0521 28.1348 92.2842L61.4336 57.4707L61.4346 57.4717L88.0107 30.3506C89.7975 28.5273 92.2431 27.5 94.7959 27.5Z" fill="#FF5100" stroke="white"/>
<g filter="url(#filter1_f_154_327)">
<path d="M69.822 64.8497L93.3647 40.8252C95.2455 38.9058 97.8197 37.8242 100.507 37.8242L244.934 37.8242C250.457 37.8242 254.934 42.3014 254.934 47.8242V161.786C254.934 164.424 253.892 166.956 252.033 168.829L225.145 195.928L197.305 223.878C195.429 225.762 192.879 226.821 190.22 226.821H47.4543C41.9315 226.821 37.4544 222.343 37.4543 216.821L37.4532 102.702C37.4531 100.127 38.4467 97.6509 40.2268 95.7899L69.822 64.8497Z" fill="#FF833B"/>
</g>
<g filter="url(#filter2_d_154_327)">
<path d="M69.822 64.8497L93.3647 40.8252C95.2455 38.9058 97.8197 37.8242 100.507 37.8242L244.934 37.8242C250.457 37.8242 254.934 42.3014 254.934 47.8242V161.786C254.934 164.424 253.892 166.956 252.033 168.829L225.145 195.928L197.305 223.878C195.429 225.762 192.879 226.821 190.22 226.821H47.4543C41.9315 226.821 37.4544 222.343 37.4543 216.821L37.4532 102.702C37.4531 100.127 38.4467 97.6509 40.2268 95.7899L69.822 64.8497Z" fill="#FF5100"/>
<path d="M100.507 38.3242H244.935C250.181 38.3243 254.435 42.5776 254.435 47.8242V161.786C254.434 164.293 253.443 166.697 251.678 168.477L224.791 195.575L196.951 223.524C195.169 225.314 192.747 226.32 190.221 226.32H47.4541C42.2075 226.32 37.9542 222.067 37.9541 216.82L37.9531 102.702C37.9531 100.256 38.8969 97.9037 40.5879 96.1357L70.1836 65.1953L70.1826 65.1943L93.7217 41.1748C95.5084 39.3515 97.954 38.3243 100.507 38.3242Z" stroke="white"/>
</g>
<path d="M115.79 141.658C115.553 142.871 115.805 144.128 116.491 145.156C117.178 146.184 118.243 146.899 119.454 147.144L122.12 147.672V147.716C122.097 149.102 122.625 150.44 123.587 151.436C124.549 152.433 125.868 153.007 127.253 153.033H133.974L138.616 158.509C140 159.897 141.766 160.841 143.689 161.222C144.718 161.43 145.692 161.855 146.544 162.469C147.395 163.083 148.106 163.872 148.628 164.784L151.067 169.054C151.404 169.645 151.892 170.136 152.48 170.477C153.068 170.819 153.736 170.999 154.416 171H174.179C174.724 171 175.258 170.858 175.731 170.587C176.203 170.317 176.596 169.927 176.87 169.457C177.145 168.988 177.292 168.454 177.297 167.91C177.301 167.366 177.163 166.83 176.896 166.356L168.013 150.563C167.371 149.417 167.006 148.138 166.947 146.826L165.92 123.373C165.864 122.03 165.291 120.76 164.32 119.83C163.349 118.9 162.056 118.382 160.712 118.383C159.778 118.384 158.861 118.632 158.053 119.101V99.3169C158.076 97.9315 157.548 96.5938 156.586 95.5971C155.623 94.6003 154.305 94.026 152.92 94H127.253C125.868 94.026 124.549 94.6003 123.587 95.5971C122.625 96.5938 122.097 97.9315 122.12 99.3169V117.357L121.297 117.192C120.987 117.127 120.671 117.096 120.354 117.1C119.409 117.103 118.488 117.393 117.711 117.932C116.935 118.47 116.341 119.232 116.007 120.115C115.673 120.999 115.615 121.963 115.841 122.881C116.068 123.798 116.567 124.625 117.274 125.252C116.513 125.914 115.992 126.809 115.79 127.798C115.639 128.596 115.699 129.42 115.965 130.188C116.23 130.956 116.692 131.642 117.303 132.177C116.55 132.844 116.034 133.738 115.831 134.724C115.681 135.515 115.736 136.332 115.991 137.096C116.246 137.86 116.693 138.545 117.289 139.087C116.518 139.754 115.991 140.658 115.79 141.658ZM118.309 142.148C118.435 141.614 118.756 141.146 119.209 140.837C119.663 140.528 120.216 140.4 120.759 140.48L122.12 140.753V145.054L119.952 144.625C119.407 144.513 118.928 144.189 118.62 143.725C118.313 143.261 118.201 142.694 118.309 142.148ZM120.766 126.63L122.12 126.9V131.204L119.96 130.753C119.689 130.701 119.432 130.596 119.202 130.443C118.972 130.291 118.775 130.095 118.622 129.866C118.468 129.637 118.362 129.38 118.308 129.109C118.255 128.839 118.255 128.561 118.309 128.291C118.424 127.75 118.744 127.274 119.202 126.965C119.661 126.655 120.221 126.535 120.766 126.63ZM120.78 133.552L122.12 133.821V138.134L119.974 137.703C119.567 137.616 119.194 137.411 118.904 137.112C118.613 136.814 118.417 136.437 118.341 136.028C118.264 135.618 118.311 135.195 118.474 134.813C118.638 134.43 118.911 134.104 119.259 133.876C119.479 133.724 119.726 133.617 119.987 133.562C120.248 133.506 120.518 133.503 120.78 133.552ZM124.686 147.716V145.333C124.69 142.459 125.764 139.69 127.699 137.564C129.634 135.439 132.291 134.111 135.152 133.839C135.441 134.927 136.081 135.889 136.974 136.576C137.866 137.262 138.96 137.635 140.086 137.635C141.212 137.635 142.307 137.262 143.199 136.576C144.092 135.889 144.732 134.927 145.021 133.839C147.882 134.111 150.539 135.439 152.474 137.564C154.409 139.69 155.483 142.459 155.486 145.333V147.716C155.509 148.421 155.252 149.106 154.771 149.622C154.29 150.137 153.624 150.441 152.92 150.467H127.253C126.548 150.441 125.883 150.137 125.402 149.622C124.921 149.106 124.664 148.421 124.686 147.716ZM149.07 116.823C148.827 116.335 148.472 115.912 148.034 115.587C147.597 115.262 147.089 115.045 146.552 114.953C144.719 114.725 142.953 114.125 141.359 113.192C140.979 112.95 140.537 112.822 140.086 112.822C139.635 112.822 139.194 112.95 138.813 113.192C137.22 114.125 135.454 114.724 133.622 114.953C133.085 115.045 132.577 115.262 132.139 115.586C131.701 115.911 131.346 116.335 131.103 116.823V115.817C131.103 113.434 132.05 111.149 133.734 109.464C135.419 107.78 137.704 106.833 140.086 106.833C142.469 106.833 144.754 107.78 146.439 109.464C148.123 111.149 149.07 113.434 149.07 115.817V116.823ZM131.873 120.18C132.213 120.18 132.54 120.045 132.781 119.804C133.021 119.563 133.156 119.237 133.156 118.897C133.156 118.127 133.584 117.552 133.984 117.495C136.136 117.217 138.211 116.513 140.086 115.423C141.962 116.513 144.038 117.218 146.19 117.495C146.589 117.552 147.016 118.129 147.016 118.897C147.016 119.237 147.152 119.563 147.392 119.804C147.633 120.045 147.959 120.18 148.3 120.18C148.504 120.18 148.7 120.261 148.844 120.406C148.989 120.55 149.07 120.746 149.07 120.95C149.07 121.154 148.989 121.35 148.844 121.494C148.7 121.639 148.504 121.72 148.3 121.72C147.996 121.72 147.702 121.828 147.471 122.024C147.239 122.22 147.084 122.492 147.034 122.792L146.671 124.963C146.585 125.478 146.395 125.97 146.114 126.41C145.832 126.85 145.464 127.228 145.032 127.522C144.831 127.659 144.615 127.811 144.391 127.971C143.175 129.026 141.68 129.708 140.086 129.933C138.493 129.707 137 129.026 135.785 127.971C135.557 127.811 135.342 127.659 135.143 127.522C134.711 127.228 134.343 126.85 134.061 126.41C133.78 125.97 133.59 125.477 133.504 124.962L133.141 122.792C133.091 122.492 132.936 122.219 132.704 122.023C132.471 121.827 132.177 121.719 131.873 121.72C131.669 121.72 131.473 121.639 131.329 121.494C131.184 121.35 131.103 121.154 131.103 120.95C131.103 120.746 131.184 120.55 131.329 120.406C131.473 120.261 131.669 120.18 131.873 120.18ZM137.52 131.958C138.328 132.316 139.202 132.5 140.086 132.5C140.97 132.5 141.844 132.316 142.653 131.958V132.5C142.653 133.181 142.383 133.834 141.901 134.315C141.42 134.796 140.767 135.067 140.086 135.067C139.406 135.067 138.753 134.796 138.271 134.315C137.79 133.834 137.52 133.181 137.52 132.5V131.958ZM174.658 168.16C174.611 168.245 174.543 168.315 174.459 168.363C174.375 168.411 174.28 168.435 174.183 168.433H154.42C154.192 168.433 153.969 168.373 153.772 168.259C153.576 168.144 153.413 167.98 153.3 167.783L150.974 163.709L168.589 156.811L174.667 167.613C174.716 167.697 174.74 167.792 174.739 167.888C174.737 167.984 174.709 168.078 174.658 168.16ZM160.712 120.95C161.396 120.948 162.054 121.211 162.548 121.684C163.042 122.157 163.334 122.803 163.362 123.486L164.389 146.937C164.465 148.652 164.943 150.325 165.784 151.822L167.324 154.552L149.389 161.57C147.99 160.107 146.177 159.107 144.193 158.706C142.802 158.433 141.52 157.761 140.505 156.772L137.336 153.033H152.92C154.305 153.007 155.623 152.433 156.586 151.436C157.548 150.44 158.076 149.102 158.053 147.716V123.517C158.056 123.173 158.127 122.832 158.263 122.516C158.398 122.2 158.596 121.914 158.843 121.675C159.091 121.436 159.384 121.248 159.705 121.124C160.026 121 160.368 120.94 160.712 120.95ZM133.67 96.5667H146.503V97.85C146.503 98.1904 146.368 98.5168 146.127 98.7575C145.886 98.9981 145.56 99.1333 145.22 99.1333H134.953C134.613 99.1333 134.286 98.9981 134.046 98.7575C133.805 98.5168 133.67 98.1904 133.67 97.85V96.5667ZM127.253 96.5667H131.103V97.85C131.103 98.8711 131.509 99.8503 132.231 100.572C132.953 101.294 133.932 101.7 134.953 101.7H145.22C146.241 101.7 147.22 101.294 147.942 100.572C148.664 99.8503 149.07 98.8711 149.07 97.85V96.5667H152.92C153.624 96.5924 154.29 96.8963 154.771 97.4117C155.252 97.9272 155.509 98.6122 155.486 99.3169V137.248C154.311 135.569 152.784 134.165 151.01 133.136C149.237 132.107 147.261 131.476 145.22 131.289V130.525C145.444 130.371 145.662 130.22 145.861 130.074C146.06 129.929 146.275 129.783 146.465 129.656C147.185 129.167 147.798 128.537 148.268 127.804C148.738 127.071 149.054 126.25 149.198 125.392L149.414 124.099C150.064 123.869 150.628 123.442 151.026 122.878C151.424 122.314 151.637 121.64 151.636 120.95V115.817C151.636 112.753 150.42 109.816 148.253 107.65C146.087 105.484 143.15 104.267 140.086 104.267C137.023 104.267 134.085 105.484 131.919 107.65C129.753 109.816 128.536 112.753 128.536 115.817V120.95C128.536 121.639 128.75 122.31 129.147 122.873C129.544 123.436 130.105 123.862 130.754 124.093L130.97 125.384C131.113 126.243 131.43 127.064 131.899 127.797C132.369 128.53 132.983 129.16 133.703 129.65C133.893 129.778 134.088 129.919 134.306 130.068C134.524 130.217 134.728 130.365 134.948 130.519V131.282C132.907 131.471 130.931 132.103 129.159 133.133C127.387 134.164 125.861 135.568 124.686 137.248V99.3169C124.664 98.6122 124.921 97.9272 125.402 97.4117C125.883 96.8963 126.548 96.5924 127.253 96.5667ZM118.308 121.368C118.401 120.893 118.655 120.463 119.028 120.153C119.401 119.843 119.869 119.671 120.354 119.667C120.492 119.664 120.63 119.677 120.766 119.705L122.12 119.975V124.287L119.952 123.845C119.406 123.733 118.927 123.41 118.619 122.946C118.311 122.482 118.199 121.915 118.308 121.368Z" fill="white"/>
<path d="M145.222 145.332H134.955C134.615 145.332 134.288 145.467 134.048 145.708C133.807 145.949 133.672 146.275 133.672 146.615C133.672 146.956 133.807 147.282 134.048 147.523C134.288 147.763 134.615 147.899 134.955 147.899H145.222C145.562 147.899 145.889 147.763 146.129 147.523C146.37 147.282 146.505 146.956 146.505 146.615C146.505 146.275 146.37 145.949 146.129 145.708C145.889 145.467 145.562 145.332 145.222 145.332Z" fill="white"/>
<g filter="url(#filter3_f_154_327)">
<path d="M363.077 57.1214L389.654 30.0009C391.534 28.0816 394.109 27 396.796 27L559.395 27C564.918 27 569.395 31.4772 569.395 37V165.634C569.395 168.273 568.352 170.804 566.494 172.677L536.194 203.216L504.829 234.704C502.952 236.588 500.403 237.647 497.744 237.647H337.001C331.479 237.647 327.001 233.17 327.001 227.647L327 98.8506C327 96.2753 327.994 93.7992 329.774 91.9382L363.077 57.1214Z" fill="#FF5E01"/>
</g>
<path d="M396.796 27.5H559.396C564.642 27.5001 568.896 31.7534 568.896 37V165.634C568.896 168.14 567.904 170.546 566.139 172.325L535.839 202.863L504.475 234.352C502.692 236.141 500.27 237.147 497.744 237.147H337.001C331.755 237.147 327.501 232.894 327.501 227.647L327.5 98.8506C327.5 96.4042 328.444 94.0521 330.135 92.2842L363.434 57.4707L363.435 57.4717L390.011 30.3506C391.798 28.5273 394.243 27.5 396.796 27.5Z" stroke="white"/>
<g filter="url(#filter4_f_154_327)">
<path d="M371.822 64.8497L395.365 40.8252C397.246 38.9058 399.82 37.8242 402.507 37.8242L546.934 37.8242C552.457 37.8242 556.934 42.3014 556.934 47.8242V161.786C556.934 164.424 555.892 166.956 554.033 168.829L527.145 195.928L499.305 223.878C497.429 225.762 494.879 226.821 492.22 226.821H349.454C343.932 226.821 339.454 222.343 339.454 216.821L339.453 102.702C339.453 100.127 340.447 97.6509 342.227 95.7899L371.822 64.8497Z" fill="#FF833B"/>
</g>
<g filter="url(#filter5_d_154_327)">
<path d="M371.822 64.8497L395.365 40.8252C397.246 38.9058 399.82 37.8242 402.507 37.8242L546.934 37.8242C552.457 37.8242 556.934 42.3014 556.934 47.8242V161.786C556.934 164.424 555.892 166.956 554.033 168.829L527.145 195.928L499.305 223.878C497.429 225.762 494.879 226.821 492.22 226.821H349.454C343.932 226.821 339.454 222.343 339.454 216.821L339.453 102.702C339.453 100.127 340.447 97.6509 342.227 95.7899L371.822 64.8497Z" fill="#FF5100"/>
<path d="M402.507 38.3242H546.935C552.181 38.3243 556.435 42.5776 556.435 47.8242V161.786C556.434 164.293 555.443 166.697 553.678 168.477L526.791 195.575L498.951 223.524C497.169 225.314 494.747 226.32 492.221 226.32H349.454C344.208 226.32 339.954 222.067 339.954 216.82L339.953 102.702C339.953 100.256 340.897 97.9037 342.588 96.1357L372.184 65.1953L372.183 65.1943L395.722 41.1748C397.508 39.3515 399.954 38.3243 402.507 38.3242Z" stroke="white"/>
</g>
<g clip-path="url(#clip0_154_327)">
<mask id="mask0_154_327" style="mask-type:luminance" maskUnits="userSpaceOnUse" x="407" y="102" width="83" height="62">
<path d="M407 102.001H489.053V163.148H407V102.001Z" fill="white"/>
</mask>
<g mask="url(#mask0_154_327)">
<path d="M437.062 141.938L438.272 139.79C438.732 138.974 438.979 138.1 439 137.215L439.264 125.839L439.436 119.046C439.474 117.53 441.135 116.317 443.168 116.317C444.199 116.317 445.132 116.628 445.808 117.131C446.483 117.635 446.901 118.33 446.901 119.098V129.561" stroke="white" stroke-width="1.80546" stroke-miterlimit="10" stroke-linecap="round" stroke-linejoin="round"/>
<path d="M453.109 153.887L454.93 152.53C455.807 151.877 456.97 151.484 458.206 151.424L461.581 151.259C467.884 150.951 473.53 148.307 476.648 144.252" stroke="white" stroke-width="1.80546" stroke-miterlimit="10" stroke-linecap="round" stroke-linejoin="round"/>
<path d="M475.425 144.34H453.309C449.769 144.34 446.898 142.201 446.898 139.563V107.675C446.898 105.037 449.769 102.898 453.309 102.898H475.425C478.965 102.898 481.835 105.037 481.835 107.675V139.563C481.835 142.201 478.965 144.34 475.425 144.34Z" stroke="white" stroke-width="1.80546" stroke-miterlimit="10" stroke-linecap="round" stroke-linejoin="round"/>
<path d="M477.032 119.824V108.269C477.032 107.28 475.956 106.478 474.628 106.478H470.213C469.505 106.478 468.931 106.906 468.931 107.433C468.931 108.325 467.961 109.048 466.765 109.048H461.978C460.782 109.048 459.812 108.325 459.812 107.433C459.812 106.906 459.237 106.478 458.529 106.478H454.115C452.787 106.478 451.711 107.28 451.711 108.269V138.962C451.711 139.952 452.787 140.754 454.115 140.754H474.628C475.956 140.754 477.032 139.952 477.032 138.962V120.027" stroke="white" stroke-width="1.80546" stroke-miterlimit="10" stroke-linecap="round" stroke-linejoin="round"/>
<path d="M468.178 126.267C470.144 126.727 471.902 127.536 473.323 128.594C475.615 130.299 477.032 132.655 477.032 135.258V138.962C477.032 139.951 475.955 140.754 474.628 140.754H454.115C452.788 140.754 451.711 139.951 451.711 138.962V135.258C451.711 131.041 455.432 127.47 460.565 126.267" stroke="white" stroke-width="1.80546" stroke-miterlimit="10" stroke-linecap="round" stroke-linejoin="round"/>
<path d="M464.377 127.145H464.37C460.64 127.145 457.617 124.892 457.617 122.112V115.98C457.617 114.351 459.389 113.03 461.576 113.03H467.171C469.357 113.03 471.129 114.351 471.129 115.98V122.112C471.129 124.892 468.106 127.145 464.377 127.145Z" stroke="white" stroke-width="1.80546" stroke-miterlimit="10" stroke-linecap="round" stroke-linejoin="round"/>
<path d="M457.617 119.727L463.342 118.322C465.454 117.805 467.768 118.042 469.612 118.966L471.129 119.727" stroke="white" stroke-width="1.80546" stroke-miterlimit="10" stroke-linecap="round" stroke-linejoin="round"/>
<path d="M465.576 105.975C465.576 106.47 465.038 106.871 464.374 106.871C463.71 106.871 463.172 106.47 463.172 105.975C463.172 105.481 463.71 105.08 464.374 105.08C465.038 105.08 465.576 105.481 465.576 105.975Z" fill="white"/>
<path d="M484.507 122.039H481.844V116.448H484.507C486.579 116.448 487.858 117.7 487.858 119.244C487.858 120.788 486.579 122.039 484.507 122.039Z" stroke="white" stroke-width="1.80546" stroke-miterlimit="10" stroke-linecap="round" stroke-linejoin="round"/>
<path d="M484.507 127.629H481.844V122.038H484.507C486.579 122.038 487.858 123.29 487.858 124.834C487.858 126.377 486.579 127.629 484.507 127.629Z" stroke="white" stroke-width="1.80546" stroke-miterlimit="10" stroke-linecap="round" stroke-linejoin="round"/>
<path d="M484.507 133.219H481.844V127.628H484.507C486.579 127.628 487.858 128.88 487.858 130.423C487.858 131.967 486.579 133.219 484.507 133.219Z" stroke="white" stroke-width="1.80546" stroke-miterlimit="10" stroke-linecap="round" stroke-linejoin="round"/>
<path d="M484.507 138.809H481.844V133.218H484.507C486.579 133.218 487.858 134.469 487.858 136.013C487.858 137.557 486.579 138.809 484.507 138.809Z" stroke="white" stroke-width="1.80546" stroke-miterlimit="10" stroke-linecap="round" stroke-linejoin="round"/>
<path d="M427.134 146.341L408.203 160.523" stroke="white" stroke-width="1.80546" stroke-miterlimit="10" stroke-linecap="round" stroke-linejoin="round"/>
<path d="M445.376 162.254L453.155 156.457C454.094 155.757 454.094 154.623 453.155 153.924L436.738 141.69C435.799 140.99 434.277 140.99 433.338 141.69L427.25 146.252" stroke="white" stroke-width="1.80546" stroke-miterlimit="10" stroke-linecap="round" stroke-linejoin="round"/>
</g>
</g>
<g filter="url(#filter6_f_154_327)">
<path d="M653.077 57.1214L679.654 30.0009C681.534 28.0816 684.109 27 686.796 27L849.395 27C854.918 27 859.395 31.4772 859.395 37V165.634C859.395 168.273 858.352 170.804 856.494 172.677L826.194 203.216L794.829 234.704C792.952 236.588 790.403 237.647 787.744 237.647H627.001C621.479 237.647 617.001 233.17 617.001 227.647L617 98.8506C617 96.2753 617.994 93.7992 619.774 91.9382L653.077 57.1214Z" fill="#FF5E01"/>
</g>
<path d="M686.796 27.5H849.396C854.642 27.5001 858.896 31.7534 858.896 37V165.634C858.896 168.14 857.904 170.546 856.139 172.325L825.839 202.863L794.475 234.352C792.692 236.141 790.27 237.147 787.744 237.147H627.001C621.755 237.147 617.501 232.894 617.501 227.647L617.5 98.8506C617.5 96.4042 618.444 94.0521 620.135 92.2842L653.434 57.4707L653.435 57.4717L680.011 30.3506C681.798 28.5273 684.243 27.5 686.796 27.5Z" stroke="white"/>
<g filter="url(#filter7_f_154_327)">
<path d="M661.822 64.8497L685.365 40.8252C687.246 38.9058 689.82 37.8242 692.507 37.8242L836.934 37.8242C842.457 37.8242 846.934 42.3014 846.934 47.8242V161.786C846.934 164.424 845.892 166.956 844.033 168.829L817.145 195.928L789.305 223.878C787.429 225.762 784.879 226.821 782.22 226.821H639.454C633.932 226.821 629.454 222.343 629.454 216.821L629.453 102.702C629.453 100.127 630.447 97.6509 632.227 95.7899L661.822 64.8497Z" fill="#FF833B"/>
</g>
<g filter="url(#filter8_d_154_327)">
<path d="M661.822 64.8497L685.365 40.8252C687.246 38.9058 689.82 37.8242 692.507 37.8242L836.934 37.8242C842.457 37.8242 846.934 42.3014 846.934 47.8242V161.786C846.934 164.424 845.892 166.956 844.033 168.829L817.145 195.928L789.305 223.878C787.429 225.762 784.879 226.821 782.22 226.821H639.454C633.932 226.821 629.454 222.343 629.454 216.821L629.453 102.702C629.453 100.127 630.447 97.6509 632.227 95.7899L661.822 64.8497Z" fill="#FF5100"/>
<path d="M692.507 38.3242H836.935C842.181 38.3243 846.435 42.5776 846.435 47.8242V161.786C846.434 164.293 845.443 166.697 843.678 168.477L816.791 195.575L788.951 223.524C787.169 225.314 784.747 226.32 782.221 226.32H639.454C634.208 226.32 629.954 222.067 629.954 216.82L629.953 102.702C629.953 100.256 630.897 97.9037 632.588 96.1357L662.184 65.1953L662.183 65.1943L685.722 41.1748C687.508 39.3515 689.954 38.3243 692.507 38.3242Z" stroke="white"/>
</g>
<path d="M751.526 134.468C748.045 134.456 744.714 135.89 742.331 138.428C738.903 135.693 734.643 134.21 730.258 134.227H730.223C724.952 134.238 720.061 136.287 716.436 140.015C712.753 143.779 710.739 148.923 710.75 154.505C710.752 154.811 710.872 155.103 711.084 155.322C711.3 155.539 711.595 155.659 711.901 155.656L742.112 155.599C742.181 155.679 742.25 155.748 742.319 155.829C746.286 160.027 752.591 161.008 757.646 158.216C762.701 155.423 765.227 149.564 763.786 143.972C762.344 138.379 757.302 134.47 751.526 134.468ZM713.086 153.343C713.328 148.82 715.078 144.688 718.081 141.616C721.27 138.336 725.585 136.529 730.223 136.529H730.258C734.129 136.513 737.889 137.821 740.915 140.234C738.365 144.173 738.197 149.197 740.478 153.297L713.086 153.343ZM751.526 157.486C745.806 157.486 741.169 152.849 741.169 147.128C741.169 141.408 745.806 136.77 751.526 136.77C757.247 136.77 761.884 141.408 761.884 147.128C761.884 152.849 757.247 157.486 751.526 157.486Z" fill="white"/>
<path d="M730.235 131.486C736.954 131.486 742.4 126.04 742.4 119.322C742.4 112.603 736.954 107.156 730.235 107.156C723.517 107.156 718.07 112.603 718.07 119.322C718.077 126.037 723.519 131.48 730.235 131.486ZM730.235 109.458C735.683 109.458 740.098 113.874 740.098 119.322C740.098 124.768 735.683 129.185 730.235 129.185C724.788 129.185 720.372 124.768 720.372 119.322C720.379 113.877 724.791 109.465 730.235 109.458Z" fill="white"/>
<path d="M755.403 143.618L749.844 148.141L747.807 145.759C747.393 145.276 746.667 145.219 746.184 145.632C745.701 146.045 745.644 146.772 746.058 147.255L748.82 150.489C749.039 150.744 749.358 150.891 749.695 150.892C749.958 150.894 750.214 150.805 750.419 150.639L756.853 145.402C757.339 145 757.41 144.281 757.012 143.792C756.614 143.302 755.896 143.225 755.403 143.618Z" fill="white"/>
<defs>
<filter id="filter0_f_154_327" x="17" y="19" width="258.398" height="226.648" filterUnits="userSpaceOnUse" color-interpolation-filters="sRGB">
<feFlood flood-opacity="0" result="BackgroundImageFix"/>
<feBlend mode="normal" in="SourceGraphic" in2="BackgroundImageFix" result="shape"/>
<feGaussianBlur stdDeviation="4" result="effect1_foregroundBlur_154_327"/>
</filter>
<filter id="filter1_f_154_327" x="0.553123" y="0.924217" width="291.284" height="262.796" filterUnits="userSpaceOnUse" color-interpolation-filters="sRGB">
<feFlood flood-opacity="0" result="BackgroundImageFix"/>
<feBlend mode="normal" in="SourceGraphic" in2="BackgroundImageFix" result="shape"/>
<feGaussianBlur stdDeviation="18.45" result="effect1_foregroundBlur_154_327"/>
</filter>
<filter id="filter2_d_154_327" x="11.7531" y="13.1242" width="274.884" height="246.396" filterUnits="userSpaceOnUse" color-interpolation-filters="sRGB">
<feFlood flood-opacity="0" result="BackgroundImageFix"/>
<feColorMatrix in="SourceAlpha" type="matrix" values="0 0 0 0 0 0 0 0 0 0 0 0 0 0 0 0 0 0 127 0" result="hardAlpha"/>
<feOffset dx="3" dy="4"/>
<feGaussianBlur stdDeviation="14.35"/>
<feComposite in2="hardAlpha" operator="out"/>
<feColorMatrix type="matrix" values="0 0 0 0 1 0 0 0 0 1 0 0 0 0 1 0 0 0 0.25 0"/>
<feBlend mode="normal" in2="BackgroundImageFix" result="effect1_dropShadow_154_327"/>
<feBlend mode="normal" in="SourceGraphic" in2="effect1_dropShadow_154_327" result="shape"/>
</filter>
<filter id="filter3_f_154_327" x="319" y="19" width="258.398" height="226.648" filterUnits="userSpaceOnUse" color-interpolation-filters="sRGB">
<feFlood flood-opacity="0" result="BackgroundImageFix"/>
<feBlend mode="normal" in="SourceGraphic" in2="BackgroundImageFix" result="shape"/>
<feGaussianBlur stdDeviation="4" result="effect1_foregroundBlur_154_327"/>
</filter>
<filter id="filter4_f_154_327" x="302.553" y="0.924217" width="291.284" height="262.796" filterUnits="userSpaceOnUse" color-interpolation-filters="sRGB">
<feFlood flood-opacity="0" result="BackgroundImageFix"/>
<feBlend mode="normal" in="SourceGraphic" in2="BackgroundImageFix" result="shape"/>
<feGaussianBlur stdDeviation="18.45" result="effect1_foregroundBlur_154_327"/>
</filter>
<filter id="filter5_d_154_327" x="313.753" y="13.1242" width="274.884" height="246.396" filterUnits="userSpaceOnUse" color-interpolation-filters="sRGB">
<feFlood flood-opacity="0" result="BackgroundImageFix"/>
<feColorMatrix in="SourceAlpha" type="matrix" values="0 0 0 0 0 0 0 0 0 0 0 0 0 0 0 0 0 0 127 0" result="hardAlpha"/>
<feOffset dx="3" dy="4"/>
<feGaussianBlur stdDeviation="14.35"/>
<feComposite in2="hardAlpha" operator="out"/>
<feColorMatrix type="matrix" values="0 0 0 0 1 0 0 0 0 1 0 0 0 0 1 0 0 0 0.25 0"/>
<feBlend mode="normal" in2="BackgroundImageFix" result="effect1_dropShadow_154_327"/>
<feBlend mode="normal" in="SourceGraphic" in2="effect1_dropShadow_154_327" result="shape"/>
</filter>
<filter id="filter6_f_154_327" x="609" y="19" width="258.398" height="226.648" filterUnits="userSpaceOnUse" color-interpolation-filters="sRGB">
<feFlood flood-opacity="0" result="BackgroundImageFix"/>
<feBlend mode="normal" in="SourceGraphic" in2="BackgroundImageFix" result="shape"/>
<feGaussianBlur stdDeviation="4" result="effect1_foregroundBlur_154_327"/>
</filter>
<filter id="filter7_f_154_327" x="592.553" y="0.924217" width="291.284" height="262.796" filterUnits="userSpaceOnUse" color-interpolation-filters="sRGB">
<feFlood flood-opacity="0" result="BackgroundImageFix"/>
<feBlend mode="normal" in="SourceGraphic" in2="BackgroundImageFix" result="shape"/>
<feGaussianBlur stdDeviation="18.45" result="effect1_foregroundBlur_154_327"/>
</filter>
<filter id="filter8_d_154_327" x="603.753" y="13.1242" width="274.884" height="246.396" filterUnits="userSpaceOnUse" color-interpolation-filters="sRGB">
<feFlood flood-opacity="0" result="BackgroundImageFix"/>
<feColorMatrix in="SourceAlpha" type="matrix" values="0 0 0 0 0 0 0 0 0 0 0 0 0 0 0 0 0 0 127 0" result="hardAlpha"/>
<feOffset dx="3" dy="4"/>
<feGaussianBlur stdDeviation="14.35"/>
<feComposite in2="hardAlpha" operator="out"/>
<feColorMatrix type="matrix" values="0 0 0 0 1 0 0 0 0 1 0 0 0 0 1 0 0 0 0.25 0"/>
<feBlend mode="normal" in2="BackgroundImageFix" result="effect1_dropShadow_154_327"/>
<feBlend mode="normal" in="SourceGraphic" in2="effect1_dropShadow_154_327" result="shape"/>
</filter>
<clipPath id="clip0_154_327">
<rect width="82.0526" height="61.1473" fill="white" transform="translate(407 102)"/>
</clipPath>
</defs>
</svg>
