<svg width="817" height="164" viewBox="0 0 817 164" fill="none" xmlns="http://www.w3.org/2000/svg">
<path d="M483.469 74.8594L650.564 74.8596" stroke="white"/>
<path d="M165.951 74.8596L333.564 74.8594" stroke="white"/>
<g filter="url(#filter0_f_242_934)">
<path d="M355.373 34.9519L371.877 18.1097C373.045 16.9178 374.644 16.2461 376.313 16.2461L477.289 16.2461C480.719 16.2461 483.499 19.0265 483.499 22.4562V102.34C483.499 103.978 482.852 105.55 481.697 106.714L462.881 125.678L443.403 145.233C442.237 146.403 440.654 147.061 439.003 147.061H339.18C335.75 147.061 332.97 144.28 332.97 140.851L332.969 60.8662C332.969 59.2669 333.586 57.7292 334.691 56.5735L355.373 34.9519Z" fill="#FF5E01"/>
</g>
<path d="M376.312 16.5566H477.289C480.547 16.5566 483.188 19.1979 483.188 22.4561V102.34C483.188 103.896 482.573 105.39 481.477 106.495L462.66 125.459L443.183 145.014C442.076 146.125 440.572 146.75 439.003 146.75H339.18C335.921 146.75 333.28 144.109 333.28 140.851L333.279 60.8662C333.279 59.3469 333.866 57.886 334.916 56.7881L355.597 35.166L372.099 18.3271C373.208 17.1949 374.727 16.5567 376.312 16.5566Z" fill="#FF5100" stroke="white" stroke-width="0.621012"/>
<g filter="url(#filter1_f_242_934)">
<path d="M360.806 39.7519L375.426 24.8324C376.594 23.6404 378.193 22.9688 379.862 22.9688L469.553 22.9688C472.983 22.9688 475.763 25.7491 475.763 29.1789V99.9504C475.763 101.589 475.115 103.161 473.961 104.324L457.264 121.153L439.975 138.51C438.809 139.68 437.226 140.338 435.575 140.338H346.915C343.486 140.338 340.705 137.557 340.705 134.128L340.705 63.2588C340.705 61.6595 341.322 60.1218 342.427 58.9661L360.806 39.7519Z" fill="#FF833B"/>
</g>
<g filter="url(#filter2_d_242_934)">
<path d="M360.806 39.7519L375.426 24.8324C376.594 23.6404 378.193 22.9688 379.862 22.9688L469.553 22.9688C472.983 22.9688 475.763 25.7491 475.763 29.1789V99.9504C475.763 101.589 475.115 103.161 473.961 104.324L457.264 121.153L439.975 138.51C438.809 139.68 437.226 140.338 435.575 140.338H346.915C343.486 140.338 340.705 137.557 340.705 134.128L340.705 63.2588C340.705 61.6595 341.322 60.1218 342.427 58.9661L360.806 39.7519Z" fill="#FF5100"/>
<path d="M379.862 23.2793H469.553C472.811 23.2794 475.453 25.9206 475.453 29.1787V99.9502C475.453 101.507 474.837 103 473.741 104.105L457.043 120.935L439.754 138.291C438.647 139.402 437.143 140.027 435.575 140.027H346.916C343.657 140.027 341.016 137.386 341.016 134.128L341.015 63.2588C341.015 61.7395 341.602 60.2786 342.652 59.1807L361.03 39.9658L375.648 25.0498C376.758 23.9175 378.276 23.2793 379.862 23.2793Z" stroke="white" stroke-width="0.621012"/>
</g>
<path d="M372.619 75.6523V65.8523H376.455C378.429 65.8523 379.633 66.8883 379.633 68.5683C379.633 69.7583 379.059 70.5423 378.177 70.9903C378.905 71.4103 379.353 72.1943 379.423 73.1463L379.619 75.6523H378.177L377.981 73.2723C377.925 72.4043 377.365 71.7883 376.525 71.7883H374.075V75.6523H372.619ZM376.413 70.5003C377.687 70.5003 378.177 69.6743 378.177 68.7923C378.177 67.8963 377.687 67.1123 376.413 67.1123H374.075V70.5003H376.413ZM384.95 75.7643C382.766 75.7643 381.422 74.0423 381.422 72.0823C381.422 70.1083 382.654 68.4843 384.824 68.4843C386.994 68.4843 388.156 70.0383 388.156 71.8303C388.156 72.0123 388.142 72.2503 388.128 72.3763H382.752C382.864 73.6923 383.732 74.6023 384.95 74.6023C385.986 74.6023 386.658 74.1543 386.854 73.3563H388.212C387.974 74.8123 386.7 75.7643 384.95 75.7643ZM382.794 71.3263H386.784C386.7 70.2483 385.986 69.5763 384.824 69.5763C383.732 69.5763 383.004 70.1783 382.794 71.3263ZM392.616 75.7643C390.908 75.7643 389.886 74.8823 389.774 73.3563H391.02C391.09 74.1683 391.692 74.6583 392.602 74.6583C393.442 74.6583 393.988 74.2523 393.988 73.6223C393.988 71.9003 389.956 73.3983 389.956 70.5843C389.956 69.3383 391.006 68.4843 392.476 68.4843C394.114 68.4843 395.108 69.3103 395.206 70.6823H393.96C393.89 69.9963 393.302 69.5483 392.49 69.5483C391.79 69.5483 391.216 69.8983 391.216 70.5283C391.216 72.1943 395.262 70.6123 395.262 73.5523C395.262 74.9103 394.254 75.7643 392.616 75.7643ZM397.374 75.6523V68.5963H398.732V75.6523H397.374ZM397.29 65.6423H398.802V67.3503H397.29V65.6423ZM404.14 75.7643C402.04 75.7643 400.822 74.2103 400.822 72.1243C400.822 70.0383 402.026 68.4843 404.154 68.4843C405.106 68.4843 405.988 68.9323 406.422 69.6323V65.6423H407.78V75.6523H406.422V74.6023C406.002 75.3023 405.106 75.7643 404.14 75.7643ZM404.364 74.5743C405.666 74.5743 406.52 73.5943 406.52 72.1243C406.52 70.6543 405.666 69.6743 404.364 69.6743C403.048 69.6743 402.194 70.6543 402.194 72.1243C402.194 73.5943 403.048 74.5743 404.364 74.5743ZM413.386 75.7643C411.202 75.7643 409.858 74.0423 409.858 72.0823C409.858 70.1083 411.09 68.4843 413.26 68.4843C415.43 68.4843 416.592 70.0383 416.592 71.8303C416.592 72.0123 416.578 72.2503 416.564 72.3763H411.188C411.3 73.6923 412.168 74.6023 413.386 74.6023C414.422 74.6023 415.094 74.1543 415.29 73.3563H416.648C416.41 74.8123 415.136 75.7643 413.386 75.7643ZM411.23 71.3263H415.22C415.136 70.2483 414.422 69.5763 413.26 69.5763C412.168 69.5763 411.44 70.1783 411.23 71.3263ZM418.728 75.6523V68.5963H420.086V69.8423C420.464 68.9603 421.304 68.4843 422.354 68.4843C423.95 68.4843 424.986 69.6323 424.986 71.3123V75.6523H423.628V71.5783C423.628 70.4583 422.97 69.7023 421.976 69.7023C420.87 69.7023 420.086 70.5983 420.086 71.8303V75.6523H418.728ZM430.46 75.7643C428.248 75.7643 426.974 74.0703 426.974 72.1243C426.974 70.1783 428.248 68.4843 430.46 68.4843C432.112 68.4843 433.54 69.4643 433.736 71.0603H432.378C432.252 70.2623 431.454 69.6743 430.488 69.6743C429.088 69.6743 428.388 70.7663 428.388 72.1243C428.388 73.4823 429.102 74.5743 430.502 74.5743C431.468 74.5743 432.168 74.0703 432.392 73.2723H433.736C433.512 74.7563 432.266 75.7643 430.46 75.7643ZM438.827 75.7643C436.643 75.7643 435.299 74.0423 435.299 72.0823C435.299 70.1083 436.531 68.4843 438.701 68.4843C440.871 68.4843 442.033 70.0383 442.033 71.8303C442.033 72.0123 442.019 72.2503 442.005 72.3763H436.629C436.741 73.6923 437.609 74.6023 438.827 74.6023C439.863 74.6023 440.535 74.1543 440.731 73.3563H442.089C441.851 74.8123 440.577 75.7643 438.827 75.7643ZM436.671 71.3263H440.661C440.577 70.2483 439.863 69.5763 438.701 69.5763C437.609 69.5763 436.881 70.1783 436.671 71.3263ZM373.359 97.6523L369.705 87.8523H371.189L374.073 95.9023L376.985 87.8523H378.469L374.815 97.6523H373.359ZM382.291 97.7643C380.107 97.7643 378.763 96.0423 378.763 94.0823C378.763 92.1083 379.995 90.4843 382.165 90.4843C384.335 90.4843 385.497 92.0383 385.497 93.8303C385.497 94.0123 385.483 94.2503 385.469 94.3763H380.093C380.205 95.6923 381.073 96.6023 382.291 96.6023C383.327 96.6023 383.999 96.1543 384.195 95.3563H385.553C385.315 96.8123 384.041 97.7643 382.291 97.7643ZM380.135 93.3263H384.125C384.041 92.2483 383.327 91.5763 382.165 91.5763C381.073 91.5763 380.345 92.1783 380.135 93.3263ZM387.633 97.6523V90.5963H388.991V91.9543C389.313 91.0163 389.873 90.5963 390.867 90.5963H391.721V91.7723H390.699C389.411 91.7723 388.991 92.9203 388.991 94.4603V97.6523H387.633ZM393.457 97.6523V90.5963H394.815V97.6523H393.457ZM393.373 87.6423H394.885V89.3503H393.373V87.6423ZM403.611 90.5963V97.6523H402.253V91.7723H399.355V97.6523H397.997V91.7723H396.555V90.5963H397.997V89.9103C397.997 88.5243 398.907 87.6423 400.321 87.6423H401.497V88.8183H400.433C399.775 88.8183 399.355 89.2523 399.355 89.9523V90.5963H403.611ZM409.167 97.7643C406.955 97.7643 405.681 96.0703 405.681 94.1243C405.681 92.1783 406.955 90.4843 409.167 90.4843C410.819 90.4843 412.247 91.4643 412.443 93.0603H411.085C410.959 92.2623 410.161 91.6743 409.195 91.6743C407.795 91.6743 407.095 92.7663 407.095 94.1243C407.095 95.4823 407.809 96.5743 409.209 96.5743C410.175 96.5743 410.875 96.0703 411.099 95.2723H412.443C412.219 96.7563 410.973 97.7643 409.167 97.7643ZM416.555 97.7643C415.113 97.7643 414.147 96.8963 414.147 95.6363C414.147 94.2783 415.239 93.3823 416.891 93.3823H418.375C418.697 93.3823 418.851 93.2703 418.851 93.0183C418.851 92.1643 418.221 91.5763 417.143 91.5763C416.149 91.5763 415.449 92.1923 415.407 92.9063H414.147C414.259 91.5203 415.505 90.4843 417.185 90.4843C419.005 90.4843 420.195 91.5343 420.195 93.1023V97.6523H418.851V96.4903C418.501 97.2603 417.619 97.7643 416.555 97.7643ZM416.821 96.6863C418.095 96.6863 418.851 95.8603 418.851 94.5583V94.4323H417.031C416.107 94.4323 415.505 94.8663 415.505 95.6083C415.505 96.2523 416.023 96.6863 416.821 96.6863ZM425.489 97.6523C424.061 97.6523 423.137 96.7843 423.137 95.3423V91.7723H421.695V90.5963H423.137V88.3843H424.495V90.5963H426.581V91.7723H424.495V95.3003C424.495 96.0563 424.915 96.4763 425.587 96.4763H426.581V97.6523H425.489ZM428.482 97.6523V90.5963H429.84V97.6523H428.482ZM428.398 87.6423H429.91V89.3503H428.398V87.6423ZM435.542 97.7643C433.428 97.7643 431.902 96.2383 431.902 94.1243C431.902 92.0103 433.428 90.4843 435.542 90.4843C437.656 90.4843 439.168 92.0103 439.168 94.1243C439.168 96.2383 437.656 97.7643 435.542 97.7643ZM435.542 96.5743C436.872 96.5743 437.782 95.5663 437.782 94.1243C437.782 92.6823 436.872 91.6743 435.542 91.6743C434.198 91.6743 433.288 92.6823 433.288 94.1243C433.288 95.5663 434.198 96.5743 435.542 96.5743ZM441.236 97.6523V90.5963H442.594V91.8423C442.972 90.9603 443.812 90.4843 444.862 90.4843C446.458 90.4843 447.494 91.6323 447.494 93.3123V97.6523H446.136V93.5783C446.136 92.4583 445.478 91.7023 444.484 91.7023C443.378 91.7023 442.594 92.5983 442.594 93.8303V97.6523H441.236Z" fill="white"/>
<g filter="url(#filter3_f_242_934)">
<path d="M672.904 34.9519L689.408 18.1097C690.576 16.9178 692.175 16.2461 693.844 16.2461L794.82 16.2461C798.25 16.2461 801.03 19.0265 801.03 22.4562V102.34C801.03 103.978 800.382 105.55 799.228 106.714L780.411 125.678L760.933 145.233C759.768 146.403 758.185 147.061 756.533 147.061H656.71C653.281 147.061 650.5 144.28 650.5 140.851L650.5 60.8662C650.5 59.2669 651.117 57.7292 652.222 56.5735L672.904 34.9519Z" fill="#FF5E01"/>
</g>
<path d="M693.843 16.5566H794.82C798.078 16.5566 800.719 19.1979 800.719 22.4561V102.34C800.719 103.896 800.104 105.39 799.007 106.495L780.191 125.459L760.713 145.014C759.606 146.125 758.102 146.75 756.534 146.75H656.71C653.452 146.75 650.811 144.109 650.811 140.851L650.81 60.8662C650.81 59.3469 651.397 57.886 652.447 56.7881L673.127 35.166L689.629 18.3271C690.739 17.1949 692.258 16.5567 693.843 16.5566Z" fill="#FF5100" stroke="white" stroke-width="0.621012"/>
<g filter="url(#filter4_f_242_934)">
<path d="M678.337 39.7519L692.957 24.8324C694.125 23.6404 695.724 22.9688 697.393 22.9688L787.084 22.9688C790.513 22.9688 793.294 25.7491 793.294 29.1789V99.9504C793.294 101.589 792.646 103.161 791.492 104.324L774.794 121.153L757.506 138.51C756.34 139.68 754.757 140.338 753.106 140.338H664.446C661.016 140.338 658.236 137.557 658.236 134.128L658.235 63.2588C658.235 61.6595 658.852 60.1218 659.958 58.9661L678.337 39.7519Z" fill="#FF833B"/>
</g>
<g filter="url(#filter5_d_242_934)">
<path d="M678.337 39.7519L692.957 24.8324C694.125 23.6404 695.724 22.9688 697.393 22.9688L787.084 22.9688C790.513 22.9688 793.294 25.7491 793.294 29.1789V99.9504C793.294 101.589 792.646 103.161 791.492 104.324L774.794 121.153L757.506 138.51C756.34 139.68 754.757 140.338 753.106 140.338H664.446C661.016 140.338 658.236 137.557 658.236 134.128L658.235 63.2588C658.235 61.6595 658.852 60.1218 659.958 58.9661L678.337 39.7519Z" fill="#FF5100"/>
<path d="M697.393 23.2793H787.084C790.342 23.2794 792.983 25.9206 792.983 29.1787V99.9502C792.983 101.507 792.368 103 791.271 104.105L774.574 120.935L757.285 138.291C756.178 139.402 754.674 140.027 753.105 140.027H664.446C661.188 140.027 658.547 137.386 658.547 134.128L658.546 63.2588C658.546 61.7395 659.132 60.2786 660.183 59.1807L678.561 39.9658L693.179 25.0498C694.288 23.9175 695.807 23.2793 697.393 23.2793Z" stroke="white" stroke-width="0.621012"/>
</g>
<path d="M695.85 75.6523V65.8523H699.476C701.31 65.8523 702.5 66.7763 702.5 68.2463C702.5 69.2963 701.94 69.9543 701.24 70.2903C702.22 70.6403 702.948 71.4383 702.948 72.7963C702.948 74.5603 701.688 75.6523 699.658 75.6523H695.85ZM699.462 74.3643C700.834 74.3643 701.52 73.7903 701.52 72.7263C701.52 71.6623 700.834 71.0883 699.462 71.0883H697.292V74.3643H699.462ZM699.406 69.8143C700.498 69.8143 701.086 69.3523 701.086 68.4423C701.086 67.5463 700.498 67.0703 699.392 67.0703H697.292V69.8143H699.406ZM707.582 75.7643C705.986 75.7643 704.95 74.6163 704.95 72.9363V68.5963H706.308V72.6703C706.308 73.7903 706.966 74.5463 707.96 74.5463C709.066 74.5463 709.864 73.6503 709.864 72.4183V68.5963H711.222V75.6523H709.864V74.4063C709.486 75.2883 708.632 75.7643 707.582 75.7643ZM716.08 75.7643C714.372 75.7643 713.35 74.8823 713.238 73.3563H714.484C714.554 74.1683 715.156 74.6583 716.066 74.6583C716.906 74.6583 717.452 74.2523 717.452 73.6223C717.452 71.9003 713.42 73.3983 713.42 70.5843C713.42 69.3383 714.47 68.4843 715.94 68.4843C717.578 68.4843 718.572 69.3103 718.67 70.6823H717.424C717.354 69.9963 716.766 69.5483 715.954 69.5483C715.254 69.5483 714.68 69.8983 714.68 70.5283C714.68 72.1943 718.726 70.6123 718.726 73.5523C718.726 74.9103 717.718 75.7643 716.08 75.7643ZM720.838 75.6523V68.5963H722.196V75.6523H720.838ZM720.754 65.6423H722.266V67.3503H720.754V65.6423ZM724.734 75.6523V68.5963H726.092V69.8423C726.47 68.9603 727.31 68.4843 728.36 68.4843C729.956 68.4843 730.992 69.6323 730.992 71.3123V75.6523H729.634V71.5783C729.634 70.4583 728.976 69.7023 727.982 69.7023C726.876 69.7023 726.092 70.5983 726.092 71.8303V75.6523H724.734ZM736.494 75.7643C734.31 75.7643 732.966 74.0423 732.966 72.0823C732.966 70.1083 734.198 68.4843 736.368 68.4843C738.538 68.4843 739.7 70.0383 739.7 71.8303C739.7 72.0123 739.686 72.2503 739.672 72.3763H734.296C734.408 73.6923 735.276 74.6023 736.494 74.6023C737.53 74.6023 738.202 74.1543 738.398 73.3563H739.756C739.518 74.8123 738.244 75.7643 736.494 75.7643ZM734.338 71.3263H738.328C738.244 70.2483 737.53 69.5763 736.368 69.5763C735.276 69.5763 734.548 70.1783 734.338 71.3263ZM744.16 75.7643C742.452 75.7643 741.43 74.8823 741.318 73.3563H742.564C742.634 74.1683 743.236 74.6583 744.146 74.6583C744.986 74.6583 745.532 74.2523 745.532 73.6223C745.532 71.9003 741.5 73.3983 741.5 70.5843C741.5 69.3383 742.55 68.4843 744.02 68.4843C745.658 68.4843 746.652 69.3103 746.75 70.6823H745.504C745.434 69.9963 744.846 69.5483 744.034 69.5483C743.334 69.5483 742.76 69.8983 742.76 70.5283C742.76 72.1943 746.806 70.6123 746.806 73.5523C746.806 74.9103 745.798 75.7643 744.16 75.7643ZM751.242 75.7643C749.534 75.7643 748.512 74.8823 748.4 73.3563H749.646C749.716 74.1683 750.318 74.6583 751.228 74.6583C752.068 74.6583 752.614 74.2523 752.614 73.6223C752.614 71.9003 748.582 73.3983 748.582 70.5843C748.582 69.3383 749.632 68.4843 751.102 68.4843C752.74 68.4843 753.734 69.3103 753.832 70.6823H752.586C752.516 69.9963 751.928 69.5483 751.116 69.5483C750.416 69.5483 749.842 69.8983 749.842 70.5283C749.842 72.1943 753.888 70.6123 753.888 73.5523C753.888 74.9103 752.88 75.7643 751.242 75.7643ZM690.89 97.6523L687.236 87.8523H688.72L691.604 95.9023L694.516 87.8523H696L692.346 97.6523H690.89ZM699.822 97.7643C697.638 97.7643 696.294 96.0423 696.294 94.0823C696.294 92.1083 697.526 90.4843 699.696 90.4843C701.866 90.4843 703.028 92.0383 703.028 93.8303C703.028 94.0123 703.014 94.2503 703 94.3763H697.624C697.736 95.6923 698.604 96.6023 699.822 96.6023C700.858 96.6023 701.53 96.1543 701.726 95.3563H703.084C702.846 96.8123 701.572 97.7643 699.822 97.7643ZM697.666 93.3263H701.656C701.572 92.2483 700.858 91.5763 699.696 91.5763C698.604 91.5763 697.876 92.1783 697.666 93.3263ZM705.164 97.6523V90.5963H706.522V91.9543C706.844 91.0163 707.404 90.5963 708.398 90.5963H709.252V91.7723H708.23C706.942 91.7723 706.522 92.9203 706.522 94.4603V97.6523H705.164ZM710.988 97.6523V90.5963H712.346V97.6523H710.988ZM710.904 87.6423H712.416V89.3503H710.904V87.6423ZM721.142 90.5963V97.6523H719.784V91.7723H716.886V97.6523H715.528V91.7723H714.086V90.5963H715.528V89.9103C715.528 88.5243 716.438 87.6423 717.852 87.6423H719.028V88.8183H717.964C717.306 88.8183 716.886 89.2523 716.886 89.9523V90.5963H721.142ZM726.698 97.7643C724.486 97.7643 723.212 96.0703 723.212 94.1243C723.212 92.1783 724.486 90.4843 726.698 90.4843C728.35 90.4843 729.778 91.4643 729.974 93.0603H728.616C728.49 92.2623 727.692 91.6743 726.726 91.6743C725.326 91.6743 724.626 92.7663 724.626 94.1243C724.626 95.4823 725.34 96.5743 726.74 96.5743C727.706 96.5743 728.406 96.0703 728.63 95.2723H729.974C729.75 96.7563 728.504 97.7643 726.698 97.7643ZM734.085 97.7643C732.643 97.7643 731.677 96.8963 731.677 95.6363C731.677 94.2783 732.769 93.3823 734.421 93.3823H735.905C736.227 93.3823 736.381 93.2703 736.381 93.0183C736.381 92.1643 735.751 91.5763 734.673 91.5763C733.679 91.5763 732.979 92.1923 732.937 92.9063H731.677C731.789 91.5203 733.035 90.4843 734.715 90.4843C736.535 90.4843 737.725 91.5343 737.725 93.1023V97.6523H736.381V96.4903C736.031 97.2603 735.149 97.7643 734.085 97.7643ZM734.351 96.6863C735.625 96.6863 736.381 95.8603 736.381 94.5583V94.4323H734.561C733.637 94.4323 733.035 94.8663 733.035 95.6083C733.035 96.2523 733.553 96.6863 734.351 96.6863ZM743.02 97.6523C741.592 97.6523 740.668 96.7843 740.668 95.3423V91.7723H739.226V90.5963H740.668V88.3843H742.026V90.5963H744.112V91.7723H742.026V95.3003C742.026 96.0563 742.446 96.4763 743.118 96.4763H744.112V97.6523H743.02ZM746.012 97.6523V90.5963H747.37V97.6523H746.012ZM745.928 87.6423H747.44V89.3503H745.928V87.6423ZM753.072 97.7643C750.958 97.7643 749.432 96.2383 749.432 94.1243C749.432 92.0103 750.958 90.4843 753.072 90.4843C755.186 90.4843 756.698 92.0103 756.698 94.1243C756.698 96.2383 755.186 97.7643 753.072 97.7643ZM753.072 96.5743C754.402 96.5743 755.312 95.5663 755.312 94.1243C755.312 92.6823 754.402 91.6743 753.072 91.6743C751.728 91.6743 750.818 92.6823 750.818 94.1243C750.818 95.5663 751.728 96.5743 753.072 96.5743ZM758.767 97.6523V90.5963H760.125V91.8423C760.503 90.9603 761.343 90.4843 762.393 90.4843C763.989 90.4843 765.025 91.6323 765.025 93.3123V97.6523H763.667V93.5783C763.667 92.4583 763.009 91.7023 762.015 91.7023C760.909 91.7023 760.125 92.5983 760.125 93.8303V97.6523H758.767Z" fill="white"/>
<g filter="url(#filter6_f_242_934)">
<path d="M37.8427 34.9519L54.3471 18.1097C55.5151 16.9178 57.1137 16.2461 58.7826 16.2461L159.759 16.2461C163.189 16.2461 165.969 19.0265 165.969 22.4562V102.34C165.969 103.978 165.321 105.55 164.167 106.714L145.35 125.678L125.872 145.233C124.707 146.403 123.124 147.061 121.472 147.061H21.6494C18.2197 147.061 15.4393 144.28 15.4393 140.851L15.4385 60.8662C15.4385 59.2669 16.0555 57.7292 17.161 56.5735L37.8427 34.9519Z" fill="#FF5E01"/>
</g>
<path d="M58.7822 16.5566H159.759C163.017 16.5566 165.658 19.1979 165.658 22.4561V102.34C165.658 103.896 165.043 105.39 163.946 106.495L145.13 125.459L125.652 145.014C124.545 146.125 123.041 146.75 121.473 146.75H21.6494C18.3912 146.75 15.7501 144.109 15.75 140.851L15.749 60.8662C15.749 59.3469 16.3355 57.886 17.3857 56.7881L38.0664 35.166L54.5684 18.3271C55.6779 17.1949 57.1969 16.5567 58.7822 16.5566Z" fill="#FF5100" stroke="white" stroke-width="0.621012"/>
<g filter="url(#filter7_f_242_934)">
<path d="M43.2758 39.7519L57.8961 24.8324C59.0641 23.6404 60.6627 22.9688 62.3315 22.9688L152.023 22.9688C155.452 22.9688 158.233 25.7491 158.233 29.1789V99.9504C158.233 101.589 157.585 103.161 156.431 104.324L139.733 121.153L122.444 138.51C121.279 139.68 119.696 140.338 118.045 140.338H29.3852C25.9554 140.338 23.1751 137.557 23.175 134.128L23.1743 63.2588C23.1743 61.6595 23.7913 60.1218 24.8968 58.9661L43.2758 39.7519Z" fill="#FF833B"/>
</g>
<g filter="url(#filter8_d_242_934)">
<path d="M43.2758 39.7519L57.8961 24.8324C59.0641 23.6404 60.6627 22.9688 62.3315 22.9688L152.023 22.9688C155.452 22.9688 158.233 25.7491 158.233 29.1789V99.9504C158.233 101.589 157.585 103.161 156.431 104.324L139.733 121.153L122.444 138.51C121.279 139.68 119.696 140.338 118.045 140.338H29.3852C25.9554 140.338 23.1751 137.557 23.175 134.128L23.1743 63.2588C23.1743 61.6595 23.7913 60.1218 24.8968 58.9661L43.2758 39.7519Z" fill="#FF5100"/>
<path d="M62.3315 23.2793H152.023C155.281 23.2794 157.922 25.9206 157.922 29.1787V99.9502C157.922 101.507 157.307 103 156.21 104.105L139.513 120.935L122.224 138.291C121.117 139.402 119.613 140.027 118.044 140.027H29.3853C26.1271 140.027 23.486 137.386 23.4858 134.128L23.4849 63.2588C23.4848 61.7395 24.0714 60.2786 25.1216 59.1807L43.4995 39.9658L58.1177 25.0498C59.2273 23.9175 60.7461 23.2793 62.3315 23.2793Z" stroke="white" stroke-width="0.621012"/>
</g>
<path d="M45.2783 64.6523V54.8523H46.7343V64.6523H45.2783ZM49.5297 64.6523V54.8523H52.5397C55.2697 54.8523 57.4817 56.5603 57.4817 59.7523C57.4817 62.9443 55.2697 64.6523 52.5397 64.6523H49.5297ZM52.4557 63.3643C54.2757 63.3643 55.9837 62.3423 55.9837 59.7523C55.9837 57.1623 54.2757 56.1403 52.4557 56.1403H50.9857V63.3643H52.4557ZM63.5696 64.6523V54.8523H66.5796C69.3096 54.8523 71.5216 56.5603 71.5216 59.7523C71.5216 62.9443 69.3096 64.6523 66.5796 64.6523H63.5696ZM66.4956 63.3643C68.3156 63.3643 70.0236 62.3423 70.0236 59.7523C70.0236 57.1623 68.3156 56.1403 66.4956 56.1403H65.0256V63.3643H66.4956ZM76.82 64.7643C74.706 64.7643 73.18 63.2383 73.18 61.1243C73.18 59.0103 74.706 57.4843 76.82 57.4843C78.934 57.4843 80.446 59.0103 80.446 61.1243C80.446 63.2383 78.934 64.7643 76.82 64.7643ZM76.82 63.5743C78.15 63.5743 79.06 62.5663 79.06 61.1243C79.06 59.6823 78.15 58.6743 76.82 58.6743C75.476 58.6743 74.566 59.6823 74.566 61.1243C74.566 62.5663 75.476 63.5743 76.82 63.5743ZM85.5388 64.7643C83.3268 64.7643 82.0528 63.0703 82.0528 61.1243C82.0528 59.1783 83.3268 57.4843 85.5388 57.4843C87.1908 57.4843 88.6188 58.4643 88.8148 60.0603H87.4568C87.3308 59.2623 86.5328 58.6743 85.5668 58.6743C84.1668 58.6743 83.4668 59.7663 83.4668 61.1243C83.4668 62.4823 84.1808 63.5743 85.5808 63.5743C86.5468 63.5743 87.2468 63.0703 87.4708 62.2723H88.8148C88.5908 63.7563 87.3448 64.7643 85.5388 64.7643ZM93.3881 64.7643C91.7921 64.7643 90.7561 63.6163 90.7561 61.9363V57.5963H92.1141V61.6703C92.1141 62.7903 92.7721 63.5463 93.7661 63.5463C94.8721 63.5463 95.6701 62.6503 95.6701 61.4183V57.5963H97.0281V64.6523H95.6701V63.4063C95.2921 64.2883 94.4381 64.7643 93.3881 64.7643ZM99.5625 64.6523V57.5963H100.921V58.8423C101.215 58.0443 101.985 57.4843 103.035 57.4843C104.113 57.4843 105.009 58.0163 105.289 58.9403C105.583 58.1003 106.563 57.4843 107.585 57.4843C109.111 57.4843 110.063 58.5343 110.063 60.1723V64.6523H108.705V60.5503C108.705 59.4303 108.145 58.6743 107.207 58.6743C106.129 58.6743 105.485 59.6823 105.485 60.8023V64.6523H104.127V60.5503C104.127 59.4303 103.567 58.6743 102.643 58.6743C101.565 58.6743 100.921 59.6823 100.921 60.8023V64.6523H99.5625ZM115.561 64.7643C113.377 64.7643 112.033 63.0423 112.033 61.0823C112.033 59.1083 113.265 57.4843 115.435 57.4843C117.605 57.4843 118.767 59.0383 118.767 60.8303C118.767 61.0123 118.753 61.2503 118.739 61.3763H113.363C113.475 62.6923 114.343 63.6023 115.561 63.6023C116.597 63.6023 117.269 63.1543 117.465 62.3563H118.823C118.585 63.8123 117.311 64.7643 115.561 64.7643ZM113.405 60.3263H117.395C117.311 59.2483 116.597 58.5763 115.435 58.5763C114.343 58.5763 113.615 59.1783 113.405 60.3263ZM120.903 64.6523V57.5963H122.261V58.8423C122.639 57.9603 123.479 57.4843 124.529 57.4843C126.125 57.4843 127.161 58.6323 127.161 60.3123V64.6523H125.803V60.5783C125.803 59.4583 125.145 58.7023 124.151 58.7023C123.045 58.7023 122.261 59.5983 122.261 60.8303V64.6523H120.903ZM132.456 64.6523C131.028 64.6523 130.104 63.7843 130.104 62.3423V58.7723H128.662V57.5963H130.104V55.3843H131.462V57.5963H133.548V58.7723H131.462V62.3003C131.462 63.0563 131.882 63.4763 132.554 63.4763H133.548V64.6523H132.456ZM55.329 86.6523L51.675 76.8523H53.159L56.043 84.9023L58.955 76.8523H60.439L56.785 86.6523H55.329ZM64.2611 86.7643C62.0771 86.7643 60.7331 85.0423 60.7331 83.0823C60.7331 81.1083 61.9651 79.4843 64.1351 79.4843C66.3051 79.4843 67.4671 81.0383 67.4671 82.8303C67.4671 83.0123 67.4531 83.2503 67.4391 83.3763H62.0631C62.1751 84.6923 63.0431 85.6023 64.2611 85.6023C65.2971 85.6023 65.9691 85.1543 66.1651 84.3563H67.5231C67.2851 85.8123 66.0111 86.7643 64.2611 86.7643ZM62.1051 82.3263H66.0951C66.0111 81.2483 65.2971 80.5763 64.1351 80.5763C63.0431 80.5763 62.3151 81.1783 62.1051 82.3263ZM69.6031 86.6523V79.5963H70.9611V80.9543C71.2831 80.0163 71.8431 79.5963 72.8371 79.5963H73.6911V80.7723H72.6691C71.3811 80.7723 70.9611 81.9203 70.9611 83.4603V86.6523H69.6031ZM75.4267 86.6523V79.5963H76.7847V86.6523H75.4267ZM75.3427 76.6423H76.8547V78.3503H75.3427V76.6423ZM85.5807 79.5963V86.6523H84.2227V80.7723H81.3247V86.6523H79.9667V80.7723H78.5247V79.5963H79.9667V78.9103C79.9667 77.5243 80.8767 76.6423 82.2907 76.6423H83.4667V77.8183H82.4027C81.7447 77.8183 81.3247 78.2523 81.3247 78.9523V79.5963H85.5807ZM91.1371 86.7643C88.9251 86.7643 87.6511 85.0703 87.6511 83.1243C87.6511 81.1783 88.9251 79.4843 91.1371 79.4843C92.7891 79.4843 94.2171 80.4643 94.4131 82.0603H93.0551C92.9291 81.2623 92.1311 80.6743 91.1651 80.6743C89.7651 80.6743 89.0651 81.7663 89.0651 83.1243C89.0651 84.4823 89.7791 85.5743 91.1791 85.5743C92.1451 85.5743 92.8451 85.0703 93.0691 84.2723H94.4131C94.1891 85.7563 92.9431 86.7643 91.1371 86.7643ZM98.5244 86.7643C97.0824 86.7643 96.1164 85.8963 96.1164 84.6363C96.1164 83.2783 97.2084 82.3823 98.8604 82.3823H100.344C100.666 82.3823 100.82 82.2703 100.82 82.0183C100.82 81.1643 100.19 80.5763 99.1124 80.5763C98.1184 80.5763 97.4184 81.1923 97.3764 81.9063H96.1164C96.2284 80.5203 97.4744 79.4843 99.1544 79.4843C100.974 79.4843 102.164 80.5343 102.164 82.1023V86.6523H100.82V85.4903C100.47 86.2603 99.5884 86.7643 98.5244 86.7643ZM98.7904 85.6863C100.064 85.6863 100.82 84.8603 100.82 83.5583V83.4323H99.0004C98.0764 83.4323 97.4744 83.8663 97.4744 84.6083C97.4744 85.2523 97.9924 85.6863 98.7904 85.6863ZM107.459 86.6523C106.031 86.6523 105.107 85.7843 105.107 84.3423V80.7723H103.665V79.5963H105.107V77.3843H106.465V79.5963H108.551V80.7723H106.465V84.3003C106.465 85.0563 106.885 85.4763 107.557 85.4763H108.551V86.6523H107.459ZM110.451 86.6523V79.5963H111.809V86.6523H110.451ZM110.367 76.6423H111.879V78.3503H110.367V76.6423ZM117.511 86.7643C115.397 86.7643 113.871 85.2383 113.871 83.1243C113.871 81.0103 115.397 79.4843 117.511 79.4843C119.625 79.4843 121.137 81.0103 121.137 83.1243C121.137 85.2383 119.625 86.7643 117.511 86.7643ZM117.511 85.5743C118.841 85.5743 119.751 84.5663 119.751 83.1243C119.751 81.6823 118.841 80.6743 117.511 80.6743C116.167 80.6743 115.257 81.6823 115.257 83.1243C115.257 84.5663 116.167 85.5743 117.511 85.5743ZM123.206 86.6523V79.5963H124.564V80.8423C124.942 79.9603 125.782 79.4843 126.832 79.4843C128.428 79.4843 129.464 80.6323 129.464 82.3123V86.6523H128.106V82.5783C128.106 81.4583 127.448 80.7023 126.454 80.7023C125.348 80.7023 124.564 81.5983 124.564 82.8303V86.6523H123.206ZM48.8097 110.5C47.6337 108.778 46.9617 106.552 46.9617 104.48C46.9617 102.408 47.6337 100.182 48.8097 98.4603H50.1117C48.9917 100.322 48.3337 102.492 48.3337 104.48C48.3337 106.468 48.9917 108.638 50.1117 110.5H48.8097ZM53.5699 108.652H52.1139V98.8523H53.5699V103.402L57.8819 98.8523H59.7159L55.9919 102.772L60.1219 108.652H58.3439L54.9979 103.822L53.5699 105.334V108.652ZM64.134 108.652V104.564L60.704 98.8523H62.314L64.862 103.178L67.41 98.8523H69.02L65.59 104.564V108.652H64.134ZM74.4024 108.764C71.8684 108.764 69.6144 107.112 69.6144 103.752C69.6144 100.392 71.8964 98.7403 74.4024 98.7403C76.6144 98.7403 78.3924 100.098 78.6444 102.002H77.1184C76.9644 100.854 75.8024 100.028 74.3884 100.028C72.4844 100.028 71.0984 101.33 71.0984 103.752C71.0984 106.174 72.4844 107.476 74.4024 107.476C75.8444 107.476 76.9924 106.65 77.1464 105.502H78.6304C78.4204 107.406 76.6564 108.764 74.4024 108.764ZM84.6508 108.652V98.8523H86.1068V107.364H90.8808V108.652H84.6508ZM95.3692 108.764C93.1852 108.764 91.8412 107.042 91.8412 105.082C91.8412 103.108 93.0732 101.484 95.2432 101.484C97.4132 101.484 98.5752 103.038 98.5752 104.83C98.5752 105.012 98.5612 105.25 98.5472 105.376H93.1712C93.2832 106.692 94.1512 107.602 95.3692 107.602C96.4052 107.602 97.0772 107.154 97.2732 106.356H98.6312C98.3932 107.812 97.1192 108.764 95.3692 108.764ZM93.2132 104.326H97.2032C97.1192 103.248 96.4052 102.576 95.2432 102.576C94.1512 102.576 93.4232 103.178 93.2132 104.326ZM102.367 108.652L99.7772 101.596H101.177L103.039 106.958L104.901 101.596H106.301L103.711 108.652H102.367ZM110.954 108.764C108.77 108.764 107.426 107.042 107.426 105.082C107.426 103.108 108.658 101.484 110.828 101.484C112.998 101.484 114.16 103.038 114.16 104.83C114.16 105.012 114.146 105.25 114.132 105.376H108.756C108.868 106.692 109.736 107.602 110.954 107.602C111.99 107.602 112.662 107.154 112.858 106.356H114.216C113.978 107.812 112.704 108.764 110.954 108.764ZM108.798 104.326H112.788C112.704 103.248 111.99 102.576 110.828 102.576C109.736 102.576 109.008 103.178 108.798 104.326ZM116.296 108.652V98.6423H117.654V108.652H116.296ZM127.058 108.764C125.084 108.764 123.502 107.518 123.502 105.572H124.93C124.93 106.748 125.854 107.476 127.058 107.476C128.318 107.476 129.116 106.86 129.116 105.81C129.116 104.76 128.318 104.214 127.058 104.214H126.232V102.968H127.044C128.094 102.968 128.738 102.324 128.738 101.442C128.738 100.56 128.052 100.028 126.974 100.028C125.924 100.028 125.252 100.644 125.196 101.694H123.796C123.852 99.9163 125.126 98.7403 127.002 98.7403C128.85 98.7403 130.194 99.8183 130.194 101.33C130.194 102.296 129.606 103.136 128.85 103.5C129.83 103.822 130.586 104.634 130.586 105.824C130.586 107.686 129.004 108.764 127.058 108.764ZM133.044 98.4603C134.22 100.182 134.892 102.408 134.892 104.48C134.892 106.552 134.22 108.778 133.044 110.5H131.742C132.862 108.638 133.52 106.468 133.52 104.48C133.52 102.492 132.862 100.322 131.742 98.4603H133.044Z" fill="white"/>
<defs>
<filter id="filter0_f_242_934" x="328.001" y="11.278" width="160.466" height="140.751" filterUnits="userSpaceOnUse" color-interpolation-filters="sRGB">
<feFlood flood-opacity="0" result="BackgroundImageFix"/>
<feBlend mode="normal" in="SourceGraphic" in2="BackgroundImageFix" result="shape"/>
<feGaussianBlur stdDeviation="2.48405" result="effect1_foregroundBlur_242_934"/>
</filter>
<filter id="filter1_f_242_934" x="317.789" y="0.0533981" width="180.889" height="163.2" filterUnits="userSpaceOnUse" color-interpolation-filters="sRGB">
<feFlood flood-opacity="0" result="BackgroundImageFix"/>
<feBlend mode="normal" in="SourceGraphic" in2="BackgroundImageFix" result="shape"/>
<feGaussianBlur stdDeviation="11.4577" result="effect1_foregroundBlur_242_934"/>
</filter>
<filter id="filter2_d_242_934" x="324.745" y="7.62975" width="170.705" height="153.015" filterUnits="userSpaceOnUse" color-interpolation-filters="sRGB">
<feFlood flood-opacity="0" result="BackgroundImageFix"/>
<feColorMatrix in="SourceAlpha" type="matrix" values="0 0 0 0 0 0 0 0 0 0 0 0 0 0 0 0 0 0 127 0" result="hardAlpha"/>
<feOffset dx="1.86304" dy="2.48405"/>
<feGaussianBlur stdDeviation="8.91153"/>
<feComposite in2="hardAlpha" operator="out"/>
<feColorMatrix type="matrix" values="0 0 0 0 1 0 0 0 0 1 0 0 0 0 1 0 0 0 0.25 0"/>
<feBlend mode="normal" in2="BackgroundImageFix" result="effect1_dropShadow_242_934"/>
<feBlend mode="normal" in="SourceGraphic" in2="effect1_dropShadow_242_934" result="shape"/>
</filter>
<filter id="filter3_f_242_934" x="645.531" y="11.278" width="160.466" height="140.751" filterUnits="userSpaceOnUse" color-interpolation-filters="sRGB">
<feFlood flood-opacity="0" result="BackgroundImageFix"/>
<feBlend mode="normal" in="SourceGraphic" in2="BackgroundImageFix" result="shape"/>
<feGaussianBlur stdDeviation="2.48405" result="effect1_foregroundBlur_242_934"/>
</filter>
<filter id="filter4_f_242_934" x="635.32" y="0.0533981" width="180.889" height="163.2" filterUnits="userSpaceOnUse" color-interpolation-filters="sRGB">
<feFlood flood-opacity="0" result="BackgroundImageFix"/>
<feBlend mode="normal" in="SourceGraphic" in2="BackgroundImageFix" result="shape"/>
<feGaussianBlur stdDeviation="11.4577" result="effect1_foregroundBlur_242_934"/>
</filter>
<filter id="filter5_d_242_934" x="642.275" y="7.62975" width="170.705" height="153.015" filterUnits="userSpaceOnUse" color-interpolation-filters="sRGB">
<feFlood flood-opacity="0" result="BackgroundImageFix"/>
<feColorMatrix in="SourceAlpha" type="matrix" values="0 0 0 0 0 0 0 0 0 0 0 0 0 0 0 0 0 0 127 0" result="hardAlpha"/>
<feOffset dx="1.86304" dy="2.48405"/>
<feGaussianBlur stdDeviation="8.91153"/>
<feComposite in2="hardAlpha" operator="out"/>
<feColorMatrix type="matrix" values="0 0 0 0 1 0 0 0 0 1 0 0 0 0 1 0 0 0 0.25 0"/>
<feBlend mode="normal" in2="BackgroundImageFix" result="effect1_dropShadow_242_934"/>
<feBlend mode="normal" in="SourceGraphic" in2="effect1_dropShadow_242_934" result="shape"/>
</filter>
<filter id="filter6_f_242_934" x="10.4704" y="11.278" width="160.466" height="140.751" filterUnits="userSpaceOnUse" color-interpolation-filters="sRGB">
<feFlood flood-opacity="0" result="BackgroundImageFix"/>
<feBlend mode="normal" in="SourceGraphic" in2="BackgroundImageFix" result="shape"/>
<feGaussianBlur stdDeviation="2.48405" result="effect1_foregroundBlur_242_934"/>
</filter>
<filter id="filter7_f_242_934" x="0.258965" y="0.0533981" width="180.889" height="163.2" filterUnits="userSpaceOnUse" color-interpolation-filters="sRGB">
<feFlood flood-opacity="0" result="BackgroundImageFix"/>
<feBlend mode="normal" in="SourceGraphic" in2="BackgroundImageFix" result="shape"/>
<feGaussianBlur stdDeviation="11.4577" result="effect1_foregroundBlur_242_934"/>
</filter>
<filter id="filter8_d_242_934" x="7.2143" y="7.62975" width="170.705" height="153.015" filterUnits="userSpaceOnUse" color-interpolation-filters="sRGB">
<feFlood flood-opacity="0" result="BackgroundImageFix"/>
<feColorMatrix in="SourceAlpha" type="matrix" values="0 0 0 0 0 0 0 0 0 0 0 0 0 0 0 0 0 0 127 0" result="hardAlpha"/>
<feOffset dx="1.86304" dy="2.48405"/>
<feGaussianBlur stdDeviation="8.91153"/>
<feComposite in2="hardAlpha" operator="out"/>
<feColorMatrix type="matrix" values="0 0 0 0 1 0 0 0 0 1 0 0 0 0 1 0 0 0 0.25 0"/>
<feBlend mode="normal" in2="BackgroundImageFix" result="effect1_dropShadow_242_934"/>
<feBlend mode="normal" in="SourceGraphic" in2="effect1_dropShadow_242_934" result="shape"/>
</filter>
</defs>
</svg>
