<svg width="393" height="452" viewBox="0 0 393 452" fill="none" xmlns="http://www.w3.org/2000/svg">
<mask id="path-1-inside-1_3197_275" fill="white">
<path d="M243.376 384.365C242.87 384.365 242.384 384.557 242.014 384.901L169.916 452L-0.00099632 452L-0.000976562 -1.71786e-05L392.999 0L392.999 384.365L243.376 384.365Z"/>
</mask>
<path d="M243.376 384.365C242.87 384.365 242.384 384.557 242.014 384.901L169.916 452L-0.00099632 452L-0.000976562 -1.71786e-05L392.999 0L392.999 384.365L243.376 384.365Z" fill="#050505"/>
<path d="M243.376 384.365L243.376 383.381L243.376 383.381L243.376 384.365ZM242.014 384.901L241.343 384.181L241.343 384.181L242.014 384.901ZM169.916 452L169.916 452.984L170.303 452.984L170.587 452.721L169.916 452ZM-0.00099632 452L-0.985371 452L-0.985371 452.984L-0.000996363 452.984L-0.00099632 452ZM-0.000976562 -1.71786e-05L-0.000976519 -0.984392L-0.985352 -0.984392L-0.985352 -1.72216e-05L-0.000976562 -1.71786e-05ZM392.999 0L393.983 4.29857e-08L393.983 -0.984375L392.999 -0.984375L392.999 0ZM392.999 384.365L392.999 385.35L393.983 385.35L393.983 384.365L392.999 384.365ZM243.376 384.365L243.376 383.381C242.621 383.381 241.895 383.667 241.343 384.181L242.014 384.901L242.684 385.622C242.872 385.447 243.12 385.35 243.376 385.35L243.376 384.365ZM242.014 384.901L241.343 384.181L169.245 451.279L169.916 452L170.587 452.721L242.684 385.622L242.014 384.901ZM169.916 452L169.916 451.016L-0.000996277 451.016L-0.00099632 452L-0.000996363 452.984L169.916 452.984L169.916 452ZM-0.00099632 452L0.983379 452L0.983398 -1.71356e-05L-0.000976562 -1.71786e-05L-0.985352 -1.72216e-05L-0.985371 452L-0.00099632 452ZM-0.000976562 -1.71786e-05L-0.000976606 0.984358L392.999 0.984375L392.999 0L392.999 -0.984375L-0.000976519 -0.984392L-0.000976562 -1.71786e-05ZM392.999 0L392.015 -4.30711e-08L392.015 384.365L392.999 384.365L393.983 384.365L393.983 4.29857e-08L392.999 0ZM392.999 384.365L392.999 383.381L243.376 383.381L243.376 384.365L243.376 385.35L392.999 385.35L392.999 384.365Z" fill="#282828" mask="url(#path-1-inside-1_3197_275)"/>
<path d="M243.376 384.365L243.376 383.381L243.376 383.381L243.376 384.365ZM242.014 384.901L241.343 384.181L241.343 384.181L242.014 384.901ZM169.916 452L169.916 452.984L170.303 452.984L170.587 452.721L169.916 452ZM-0.00099632 452L-0.985371 452L-0.985371 452.984L-0.000996363 452.984L-0.00099632 452ZM-0.000976562 -1.71786e-05L-0.000976519 -0.984392L-0.985352 -0.984392L-0.985352 -1.72216e-05L-0.000976562 -1.71786e-05ZM392.999 0L393.983 4.29857e-08L393.983 -0.984375L392.999 -0.984375L392.999 0ZM392.999 384.365L392.999 385.35L393.983 385.35L393.983 384.365L392.999 384.365ZM243.376 384.365L243.376 383.381C242.621 383.381 241.895 383.667 241.343 384.181L242.014 384.901L242.684 385.622C242.872 385.447 243.12 385.35 243.376 385.35L243.376 384.365ZM242.014 384.901L241.343 384.181L169.245 451.279L169.916 452L170.587 452.721L242.684 385.622L242.014 384.901ZM169.916 452L169.916 451.016L-0.000996277 451.016L-0.00099632 452L-0.000996363 452.984L169.916 452.984L169.916 452ZM-0.00099632 452L0.983379 452L0.983398 -1.71356e-05L-0.000976562 -1.71786e-05L-0.985352 -1.72216e-05L-0.985371 452L-0.00099632 452ZM-0.000976562 -1.71786e-05L-0.000976606 0.984358L392.999 0.984375L392.999 0L392.999 -0.984375L-0.000976519 -0.984392L-0.000976562 -1.71786e-05ZM392.999 0L392.015 -4.30711e-08L392.015 384.365L392.999 384.365L393.983 384.365L393.983 4.29857e-08L392.999 0ZM392.999 384.365L392.999 383.381L243.376 383.381L243.376 384.365L243.376 385.35L392.999 385.35L392.999 384.365Z" fill="url(#paint0_linear_3197_275)" mask="url(#path-1-inside-1_3197_275)"/>
<defs>
<linearGradient id="paint0_linear_3197_275" x1="-204.32" y1="-168.129" x2="-286.968" y2="421.789" gradientUnits="userSpaceOnUse">
<stop stop-color="#FE6E00" stop-opacity="0"/>
<stop offset="1" stop-color="#FE6E00"/>
</linearGradient>
</defs>
</svg>
