<svg width="393" height="453" viewBox="0 0 393 453" fill="none" xmlns="http://www.w3.org/2000/svg">
<mask id="path-1-inside-1_3201_296" fill="white">
<path d="M168.861 67.5518C169.365 67.5517 169.849 67.3621 170.219 67.0205L242.714 1.06094e-05L393 1.71786e-05L393 452.503L0 452.503L1.68268e-05 67.5518L168.861 67.5518Z"/>
</mask>
<path d="M168.861 67.5518C169.365 67.5517 169.849 67.3621 170.219 67.0205L242.714 1.06094e-05L393 1.71786e-05L393 452.503L0 452.503L1.68268e-05 67.5518L168.861 67.5518Z" fill="#050505"/>
<path d="M168.861 67.5518L168.861 68.5361L168.861 68.5361L168.861 67.5518ZM170.219 67.0205L169.551 66.2977L169.551 66.2977L170.219 67.0205ZM242.714 1.06094e-05L242.714 -0.984364L242.329 -0.984364L242.046 -0.722805L242.714 1.06094e-05ZM393 1.71786e-05L393.984 1.72216e-05L393.984 -0.984358L393 -0.984358L393 1.71786e-05ZM393 452.503L393 453.487L393.984 453.487L393.984 452.503L393 452.503ZM0 452.503L-0.984375 452.503L-0.984375 453.487L-4.30284e-08 453.487L0 452.503ZM1.68268e-05 67.5518L1.68698e-05 66.5674L-0.984358 66.5674L-0.984358 67.5518L1.68268e-05 67.5518ZM168.861 67.5518L168.861 68.5361C169.612 68.536 170.335 68.2532 170.887 67.7433L170.219 67.0205L169.551 66.2977C169.363 66.471 169.117 66.5673 168.861 66.5674L168.861 67.5518ZM170.219 67.0205L170.887 67.7433L243.382 0.722826L242.714 1.06094e-05L242.046 -0.722805L169.551 66.2977L170.219 67.0205ZM242.714 1.06094e-05L242.714 0.984386L393 0.984392L393 1.71786e-05L393 -0.984358L242.714 -0.984364L242.714 1.06094e-05ZM393 1.71786e-05L392.016 1.71355e-05L392.016 452.503L393 452.503L393.984 452.503L393.984 1.72216e-05L393 1.71786e-05ZM393 452.503L393 451.519L4.30284e-08 451.519L0 452.503L-4.30284e-08 453.487L393 453.487L393 452.503ZM0 452.503L0.984375 452.503L0.984392 67.5518L1.68268e-05 67.5518L-0.984358 67.5518L-0.984375 452.503L0 452.503ZM1.68268e-05 67.5518L1.67837e-05 68.5361L168.861 68.5361L168.861 67.5518L168.861 66.5674L1.68698e-05 66.5674L1.68268e-05 67.5518Z" fill="#282828" mask="url(#path-1-inside-1_3201_296)"/>
<path d="M168.861 67.5518L168.861 68.5361L168.861 68.5361L168.861 67.5518ZM170.219 67.0205L169.551 66.2977L169.551 66.2977L170.219 67.0205ZM242.714 1.06094e-05L242.714 -0.984364L242.329 -0.984364L242.046 -0.722805L242.714 1.06094e-05ZM393 1.71786e-05L393.984 1.72216e-05L393.984 -0.984358L393 -0.984358L393 1.71786e-05ZM393 452.503L393 453.487L393.984 453.487L393.984 452.503L393 452.503ZM0 452.503L-0.984375 452.503L-0.984375 453.487L-4.30284e-08 453.487L0 452.503ZM1.68268e-05 67.5518L1.68698e-05 66.5674L-0.984358 66.5674L-0.984358 67.5518L1.68268e-05 67.5518ZM168.861 67.5518L168.861 68.5361C169.612 68.536 170.335 68.2532 170.887 67.7433L170.219 67.0205L169.551 66.2977C169.363 66.471 169.117 66.5673 168.861 66.5674L168.861 67.5518ZM170.219 67.0205L170.887 67.7433L243.382 0.722826L242.714 1.06094e-05L242.046 -0.722805L169.551 66.2977L170.219 67.0205ZM242.714 1.06094e-05L242.714 0.984386L393 0.984392L393 1.71786e-05L393 -0.984358L242.714 -0.984364L242.714 1.06094e-05ZM393 1.71786e-05L392.016 1.71355e-05L392.016 452.503L393 452.503L393.984 452.503L393.984 1.72216e-05L393 1.71786e-05ZM393 452.503L393 451.519L4.30284e-08 451.519L0 452.503L-4.30284e-08 453.487L393 453.487L393 452.503ZM0 452.503L0.984375 452.503L0.984392 67.5518L1.68268e-05 67.5518L-0.984358 67.5518L-0.984375 452.503L0 452.503ZM1.68268e-05 67.5518L1.67837e-05 68.5361L168.861 68.5361L168.861 67.5518L168.861 66.5674L1.68698e-05 66.5674L1.68268e-05 67.5518Z" fill="url(#paint0_linear_3201_296)" mask="url(#path-1-inside-1_3201_296)"/>
<defs>
<linearGradient id="paint0_linear_3201_296" x1="-43.4557" y1="561.32" x2="360.914" y2="534.885" gradientUnits="userSpaceOnUse">
<stop stop-color="#FE6E00" stop-opacity="0"/>
<stop offset="1" stop-color="#FE6E00"/>
</linearGradient>
</defs>
</svg>
