<svg width="1453" height="1453" viewBox="0 0 1453 1453" fill="none" xmlns="http://www.w3.org/2000/svg">
<path d="M487.521 380.821C542.618 285.376 664.669 252.686 760.096 307.815L1071.63 487.793C1167.02 542.898 1199.69 664.884 1144.61 760.285L964.693 1071.93C909.599 1167.36 787.57 1200.05 692.147 1144.94L380.598 965.015C285.198 909.92 252.513 787.926 307.59 692.516L487.521 380.821Z" stroke="#FF8A4A"/>
<path d="M486.655 380.321C542.029 284.398 664.691 251.544 760.596 306.949L1072.13 486.927C1168 542.308 1200.83 664.906 1145.48 760.785L965.559 1072.43C910.188 1168.33 787.548 1201.19 691.647 1145.81L380.098 965.88C284.22 910.509 251.371 787.905 306.724 692.016L486.655 380.321Z" stroke="url(#paint0_linear_1600_42)"/>
<path d="M740.504 306.705C841.636 262.912 959.119 309.417 1002.88 410.564L1145.74 740.774C1189.48 841.876 1143 959.295 1041.91 1003.06L711.682 1146.04C610.562 1189.83 493.095 1143.34 449.327 1042.21L306.425 712.034C262.667 610.931 309.142 493.496 410.237 449.72L740.504 306.705Z" stroke="#FF8A4A"/>
<path d="M740.107 305.788C841.746 261.776 959.817 308.513 1003.8 410.166L1146.66 740.377C1190.61 841.986 1143.9 959.994 1042.3 1003.98L712.079 1146.96C610.452 1190.96 492.397 1144.24 448.409 1042.61L305.508 712.431C261.531 610.821 308.238 492.798 409.84 448.802L740.107 305.788Z" stroke="url(#paint1_linear_1600_42)"/>
<defs>
<linearGradient id="paint0_linear_1600_42" x1="293.259" y1="657.723" x2="485.055" y2="344.232" gradientUnits="userSpaceOnUse">
<stop stop-color="#FE8E51" stop-opacity="0"/>
<stop offset="0.5" stop-color="white"/>
<stop offset="1" stop-color="#FE8E51" stop-opacity="0"/>
</linearGradient>
<linearGradient id="paint1_linear_1600_42" x1="419.47" y1="413.241" x2="760.333" y2="275.857" gradientUnits="userSpaceOnUse">
<stop stop-color="#FE8E51" stop-opacity="0"/>
<stop offset="0.5" stop-color="white"/>
<stop offset="1" stop-color="#FE8E51" stop-opacity="0"/>
</linearGradient>
</defs>
</svg>
