<svg width="1041" height="1041" viewBox="0 0 1041 1041" fill="none" xmlns="http://www.w3.org/2000/svg">
<rect x="1.85391" y="659.417" width="759.89" height="759.891" rx="199.5" transform="rotate(-60 1.85391 659.417)" stroke="#FF8A4A"/>
<path d="M101.604 486.644L282.049 174.104C337.14 78.6849 459.152 45.9924 554.571 101.083L867.111 281.528C962.531 336.618 995.224 458.631 940.133 554.05L759.689 866.59C704.598 962.009 582.586 994.702 487.166 939.612L174.626 759.167C79.2066 704.076 46.5135 582.064 101.604 486.644Z" stroke="url(#paint0_linear_1588_2)"/>
<path d="M101.604 486.644L282.049 174.104C337.14 78.6849 459.152 45.9924 554.571 101.083L867.111 281.528C962.531 336.618 995.224 458.631 940.133 554.05L759.689 866.59C704.598 962.009 582.586 994.702 487.166 939.612L174.626 759.167C79.2066 704.076 46.5135 582.064 101.604 486.644Z" stroke="url(#paint1_linear_1588_2)"/>
<rect x="1.6569" y="382.015" width="759.89" height="759.891" rx="199.5" transform="rotate(-30.0814 1.6569 382.015)" stroke="#FF8A4A"/>
<path d="M174.287 282.02L486.571 101.13C581.912 45.9046 703.97 78.4246 759.195 173.765L940.085 486.049C995.311 581.39 962.791 703.449 867.45 758.675L555.167 939.564C459.826 994.789 337.768 962.27 282.542 866.929L101.652 554.645C46.4264 459.304 78.9461 337.245 174.287 282.02Z" stroke="url(#paint2_linear_1588_2)"/>
<path d="M174.287 282.02L486.571 101.13C581.912 45.9046 703.97 78.4246 759.195 173.765L940.085 486.049C995.311 581.39 962.791 703.449 867.45 758.675L555.167 939.564C459.826 994.789 337.768 962.27 282.542 866.929L101.652 554.645C46.4264 459.304 78.9461 337.245 174.287 282.02Z" stroke="url(#paint3_linear_1588_2)"/>
<defs>
<linearGradient id="paint0_linear_1588_2" x1="919.339" y1="382.524" x2="962.48" y2="364.548" gradientUnits="userSpaceOnUse">
<stop stop-color="#FF8A4A"/>
<stop offset="1" stop-color="white"/>
</linearGradient>
<linearGradient id="paint1_linear_1588_2" x1="129.03" y1="622.975" x2="86.7816" y2="628.256" gradientUnits="userSpaceOnUse">
<stop stop-color="#FE8E51" stop-opacity="0"/>
<stop offset="1" stop-color="white"/>
</linearGradient>
<linearGradient id="paint2_linear_1588_2" x1="934.979" y1="599.635" x2="981.337" y2="605.573" gradientUnits="userSpaceOnUse">
<stop stop-color="#FF8A4A"/>
<stop offset="1" stop-color="white"/>
</linearGradient>
<linearGradient id="paint3_linear_1588_2" x1="130.061" y1="413.861" x2="90.8086" y2="397.366" gradientUnits="userSpaceOnUse">
<stop stop-color="#FE8E51" stop-opacity="0"/>
<stop offset="1" stop-color="white"/>
</linearGradient>
</defs>
</svg>
