<svg width="1040" height="1026" viewBox="0 0 1040 1026" fill="none" xmlns="http://www.w3.org/2000/svg">
<rect x="0.985747" y="652.069" width="759.89" height="759.891" rx="199.5" transform="rotate(-60 0.985747 652.069)" stroke="#FF8A4A"/>
<rect x="0.788741" y="374.668" width="759.89" height="759.891" rx="199.5" transform="rotate(-30.0814 0.788741 374.668)" stroke="#FF8A4A"/>
<path d="M300.42 201.509L170.585 276.469" stroke="url(#paint0_linear_194_18599)" stroke-width="2" stroke-linecap="round"/>
<path d="M205.109 299.45L131.331 429.96" stroke="url(#paint1_linear_194_18599)" stroke-width="2" stroke-linecap="round"/>
<path d="M869.018 276.469L739.221 200.854" stroke="url(#paint2_linear_194_18599)" stroke-width="2" stroke-linecap="round"/>
<path d="M421.312 894.236L291.516 818.622" stroke="url(#paint3_linear_194_18599)" stroke-width="2" stroke-linecap="round"/>
<path d="M880.887 646.676L807.108 777.186" stroke="url(#paint4_linear_194_18599)" stroke-width="2" stroke-linecap="round"/>
<path d="M903.82 730.845L773.985 805.805" stroke="url(#paint5_linear_194_18599)" stroke-width="2" stroke-linecap="round"/>
<path d="M746.613 146.544L821.615 276.492" stroke="url(#paint6_linear_194_18599)" stroke-width="2" stroke-linecap="round"/>
<path d="M168.617 663.862L243.619 793.81" stroke="url(#paint7_linear_194_18599)" stroke-width="2" stroke-linecap="round"/>
<defs>
<linearGradient id="paint0_linear_194_18599" x1="289.993" y1="208.683" x2="293.384" y2="216.319" gradientUnits="userSpaceOnUse">
<stop stop-color="#FF5E02" stop-opacity="0"/>
<stop offset="1" stop-color="white"/>
</linearGradient>
<linearGradient id="paint1_linear_194_18599" x1="199.771" y1="310.926" x2="206.57" y2="315.782" gradientUnits="userSpaceOnUse">
<stop stop-color="white"/>
<stop offset="1" stop-color="#FF5E02" stop-opacity="0"/>
</linearGradient>
<linearGradient id="paint2_linear_194_18599" x1="858.597" y1="269.241" x2="862.019" y2="261.619" gradientUnits="userSpaceOnUse">
<stop stop-color="white"/>
<stop offset="1" stop-color="#FF5E02" stop-opacity="0"/>
</linearGradient>
<linearGradient id="paint3_linear_194_18599" x1="410.892" y1="887.009" x2="414.314" y2="879.386" gradientUnits="userSpaceOnUse">
<stop stop-color="#FF5E02" stop-opacity="0"/>
<stop offset="1" stop-color="white"/>
</linearGradient>
<linearGradient id="paint4_linear_194_18599" x1="875.548" y1="658.152" x2="882.347" y2="663.008" gradientUnits="userSpaceOnUse">
<stop stop-color="#FF5E02" stop-opacity="0"/>
<stop offset="1" stop-color="white"/>
</linearGradient>
<linearGradient id="paint5_linear_194_18599" x1="893.393" y1="738.02" x2="896.784" y2="745.656" gradientUnits="userSpaceOnUse">
<stop stop-color="white"/>
<stop offset="1" stop-color="#FF5E02" stop-opacity="0"/>
</linearGradient>
<linearGradient id="paint6_linear_194_18599" x1="752.059" y1="157.98" x2="745.304" y2="162.897" gradientUnits="userSpaceOnUse">
<stop stop-color="white"/>
<stop offset="1" stop-color="#FF5E02" stop-opacity="0"/>
</linearGradient>
<linearGradient id="paint7_linear_194_18599" x1="174.063" y1="675.298" x2="167.308" y2="680.215" gradientUnits="userSpaceOnUse">
<stop stop-color="#FF5E02" stop-opacity="0"/>
<stop offset="1" stop-color="white"/>
</linearGradient>
</defs>
</svg>
