<svg width="90" height="86" viewBox="0 0 90 86" fill="none" xmlns="http://www.w3.org/2000/svg">
<path d="M36.5742 0.740051C56.2855 0.740051 72.4463 19.5126 72.4463 42.9129C72.4463 66.3132 56.2855 85.0858 36.5742 85.0858C16.863 85.0858 0.702148 66.3132 0.702148 42.9129C0.702148 19.5126 16.863 0.740051 36.5742 0.740051Z" stroke="url(#paint0_linear_2173_348)" stroke-width="1.40381"/>
<path d="M24.6104 3.49677C24.9785 3.49691 25.4029 3.66582 25.8877 4.12274C26.3761 4.58298 26.8812 5.29606 27.3838 6.27509C28.388 8.2313 29.3131 11.1083 30.0977 14.7214C31.6641 21.936 32.6387 31.9365 32.6387 43.0056C32.6387 54.0746 31.6642 64.0752 30.0977 71.2897C29.3132 74.9026 28.388 77.7789 27.3838 79.735C26.8812 80.7141 26.3761 81.4281 25.8877 81.8884C25.403 82.345 24.9785 82.5142 24.6104 82.5143C24.2421 82.5143 23.8169 82.3452 23.332 81.8884C22.8437 81.4281 22.3385 80.7141 21.8359 79.735C20.8318 77.7789 19.9065 74.9026 19.1221 71.2897C17.5556 64.0752 16.5811 54.0746 16.5811 43.0056C16.5811 31.9365 17.5556 21.936 19.1221 14.7214C19.9066 11.1083 20.8317 8.2313 21.8359 6.27509C22.3385 5.29606 22.8437 4.58298 23.332 4.12274C23.8171 3.66561 24.242 3.49677 24.6104 3.49677Z" stroke="url(#paint1_linear_2173_348)" stroke-width="1.40381"/>
<path d="M64.418 3.49677C64.7862 3.49691 65.2105 3.66582 65.6953 4.12274C66.1837 4.58298 66.6888 5.29606 67.1914 6.27509C68.1956 8.2313 69.1208 11.1083 69.9053 14.7214C71.4717 21.936 72.4463 31.9365 72.4463 43.0056C72.4463 54.0746 71.4718 64.0752 69.9053 71.2897C69.1208 74.9026 68.1956 77.7789 67.1914 79.735C66.6888 80.7141 66.1837 81.4281 65.6953 81.8884C65.2106 82.345 64.7861 82.5142 64.418 82.5143C64.0498 82.5143 63.6246 82.3452 63.1396 81.8884C62.6513 81.4281 62.1462 80.7141 61.6436 79.735C60.6394 77.7789 59.7142 74.9026 58.9297 71.2897C57.3632 64.0752 56.3887 54.0746 56.3887 43.0056C56.3887 31.9365 57.3632 21.936 58.9297 14.7214C59.7142 11.1083 60.6393 8.2313 61.6436 6.27509C62.1461 5.29606 62.6513 4.58298 63.1396 4.12274C63.6247 3.66561 64.0497 3.49677 64.418 3.49677Z" stroke="url(#paint2_linear_2173_348)" stroke-width="1.40381"/>
<path d="M44.5137 1.85358C45.8632 1.85358 47.2955 2.78597 48.7188 4.83014C50.1278 6.85403 51.4255 9.8288 52.5264 13.5674C54.7254 21.0355 56.0947 31.3941 56.0947 42.8653C56.0947 54.3367 54.7254 64.696 52.5264 72.1641C51.4255 75.9026 50.1277 78.8766 48.7188 80.9005C47.2955 82.9449 45.8633 83.878 44.5137 83.878C43.1641 83.878 41.7319 82.9448 40.3086 80.9005C38.8997 78.8766 37.6018 75.9026 36.501 72.1641C34.3019 64.696 32.9326 54.3367 32.9326 42.8653C32.9327 31.3941 34.3019 21.0355 36.501 13.5674C37.6019 9.8288 38.8996 6.85403 40.3086 4.83014C41.7318 2.78597 43.1641 1.85359 44.5137 1.85358Z" stroke="url(#paint3_linear_2173_348)" stroke-width="1.40381"/>
<path d="M52.4531 0.740051C72.1643 0.740071 88.3252 19.5126 88.3252 42.9129C88.3252 66.3132 72.1643 85.0857 52.4531 85.0858C32.7419 85.0858 16.5811 66.3132 16.5811 42.9129C16.5811 19.5126 32.7419 0.740051 52.4531 0.740051Z" stroke="url(#paint4_linear_2173_348)" stroke-width="1.40381"/>
<defs>
<linearGradient id="paint0_linear_2173_348" x1="36.5742" y1="0.0379028" x2="36.5742" y2="85.7879" gradientUnits="userSpaceOnUse">
<stop stop-color="white"/>
<stop offset="1" stop-color="#FF935E"/>
</linearGradient>
<linearGradient id="paint1_linear_2173_348" x1="24.6099" y1="2.79462" x2="24.6099" y2="83.2158" gradientUnits="userSpaceOnUse">
<stop stop-color="white"/>
<stop offset="1" stop-color="#FF935E"/>
</linearGradient>
<linearGradient id="paint2_linear_2173_348" x1="64.4175" y1="2.79462" x2="64.4175" y2="83.2158" gradientUnits="userSpaceOnUse">
<stop stop-color="white"/>
<stop offset="1" stop-color="#FF935E"/>
</linearGradient>
<linearGradient id="paint3_linear_2173_348" x1="44.5137" y1="1.15143" x2="44.5137" y2="84.58" gradientUnits="userSpaceOnUse">
<stop stop-color="white"/>
<stop offset="1" stop-color="#FF935E"/>
</linearGradient>
<linearGradient id="paint4_linear_2173_348" x1="52.4531" y1="0.0379028" x2="52.4531" y2="85.7879" gradientUnits="userSpaceOnUse">
<stop stop-color="white"/>
<stop offset="1" stop-color="#FF935E"/>
</linearGradient>
</defs>
</svg>
