<svg width="90" height="86" viewBox="0 0 90 86" fill="none" xmlns="http://www.w3.org/2000/svg">
<path d="M8.80859 0.73999C9.16841 0.73999 9.59475 0.913858 10.0889 1.40601C10.5849 1.90004 11.0964 2.66575 11.6055 3.71362C12.6222 5.80683 13.5575 8.88136 14.3496 12.7371C15.9315 20.4369 16.915 31.106 16.915 42.9128C16.915 54.7197 15.9315 65.3888 14.3496 73.0886C13.5575 76.9443 12.6222 80.0188 11.6055 82.1121C11.0964 83.1599 10.5849 83.9256 10.0889 84.4197C9.59475 84.9118 9.16841 85.0857 8.80859 85.0857C8.44877 85.0857 8.02244 84.9118 7.52832 84.4197C7.03233 83.9256 6.52074 83.1599 6.01172 82.1121C4.99497 80.0188 4.05973 76.9443 3.26758 73.0886C1.68567 65.3888 0.702148 54.7197 0.702148 42.9128C0.702148 31.106 1.68567 20.4369 3.26758 12.7371C4.05973 8.88136 4.99497 5.80683 6.01172 3.71362C6.52074 2.66575 7.03233 1.90004 7.52832 1.40601C8.02244 0.913858 8.44877 0.73999 8.80859 0.73999Z" stroke="url(#paint0_linear_2173_284)" stroke-width="1.40381"/>
<path d="M24.6611 0.73999C25.0182 0.740148 25.4422 0.913201 25.9346 1.40503C26.429 1.89899 26.9397 2.6646 27.4473 3.71265C28.4609 5.80591 29.3929 8.88048 30.1826 12.7361C31.7597 20.4361 32.7402 31.1058 32.7402 42.9128C32.7402 54.7199 31.7597 65.3896 30.1826 73.0896C29.3929 76.9452 28.4609 80.0198 27.4473 82.113C26.9397 83.1611 26.429 83.9267 25.9346 84.4207C25.4422 84.9125 25.0182 85.0855 24.6611 85.0857C24.304 85.0857 23.8793 84.9127 23.3867 84.4207C22.8923 83.9267 22.3816 83.1611 21.874 82.113C20.8604 80.0198 19.9284 76.9452 19.1387 73.0896C17.5615 65.3896 16.5811 54.7199 16.5811 42.9128C16.5811 31.1058 17.5615 20.4361 19.1387 12.7361C19.9284 8.88048 20.8604 5.80591 21.874 3.71265C22.3816 2.6646 22.8923 1.89899 23.3867 1.40503C23.8793 0.912977 24.304 0.73999 24.6611 0.73999Z" stroke="url(#paint1_linear_2173_284)" stroke-width="1.40381"/>
<path d="M52.4531 0.73999C57.7457 0.73999 62.7415 5.20732 66.4551 12.9011C70.1448 20.5455 72.4463 31.1554 72.4463 42.9128C72.4463 54.6703 70.1448 65.2801 66.4551 72.9246C62.7415 80.6184 57.7457 85.0857 52.4531 85.0857C47.1607 85.0854 42.1657 80.6181 38.4521 72.9246C34.7624 65.2801 32.4609 54.6703 32.4609 42.9128C32.4609 31.1554 34.7624 20.5456 38.4521 12.9011C42.1657 5.20754 47.1607 0.740249 52.4531 0.73999Z" stroke="url(#paint2_linear_2173_284)" stroke-width="1.40381"/>
<path d="M80.2549 0.73999C80.6111 0.74 81.0343 0.912994 81.5264 1.40503C82.0203 1.89901 82.531 2.6644 83.0381 3.71265C84.0507 5.80599 84.9816 8.88038 85.7705 12.7361C87.346 20.4362 88.3252 31.1058 88.3252 42.9128C88.3252 54.7199 87.346 65.3895 85.7705 73.0896C84.9816 76.9453 84.0507 80.0197 83.0381 82.113C82.531 83.1613 82.0203 83.9267 81.5264 84.4207C81.0343 84.9127 80.6111 85.0857 80.2549 85.0857C79.8987 85.0857 79.4754 84.9127 78.9834 84.4207C78.4895 83.9267 77.9788 83.1613 77.4717 82.113C76.459 80.0197 75.5282 76.9453 74.7393 73.0896C73.1638 65.3895 72.1846 54.7199 72.1846 42.9128C72.1846 31.1058 73.1638 20.4362 74.7393 12.7361C75.5282 8.88037 76.459 5.80599 77.4717 3.71265C77.9788 2.6644 78.4895 1.89901 78.9834 1.40503C79.4754 0.913003 79.8987 0.73999 80.2549 0.73999Z" stroke="url(#paint3_linear_2173_284)" stroke-width="1.40381"/>
<defs>
<linearGradient id="paint0_linear_2173_284" x1="8.80859" y1="0.0378418" x2="8.80859" y2="85.7878" gradientUnits="userSpaceOnUse">
<stop stop-color="white"/>
<stop offset="1" stop-color="#FF935E"/>
</linearGradient>
<linearGradient id="paint1_linear_2173_284" x1="24.6606" y1="0.0378418" x2="24.6606" y2="85.7878" gradientUnits="userSpaceOnUse">
<stop stop-color="white"/>
<stop offset="1" stop-color="#FF935E"/>
</linearGradient>
<linearGradient id="paint2_linear_2173_284" x1="52.4536" y1="0.0378418" x2="52.4536" y2="85.7878" gradientUnits="userSpaceOnUse">
<stop stop-color="white"/>
<stop offset="1" stop-color="#FF935E"/>
</linearGradient>
<linearGradient id="paint3_linear_2173_284" x1="80.2549" y1="0.0378418" x2="80.2549" y2="85.7878" gradientUnits="userSpaceOnUse">
<stop stop-color="white"/>
<stop offset="1" stop-color="#FF935E"/>
</linearGradient>
</defs>
</svg>
