<svg width="86" height="93" viewBox="0 0 86 93" fill="none" xmlns="http://www.w3.org/2000/svg">
<path d="M85.0479 19.9287C85.0479 24.8738 80.6126 29.5799 72.9014 33.0898C65.2531 36.5711 54.6378 38.7422 42.875 38.7422C31.1122 38.7422 20.4969 36.5711 12.8486 33.0898C5.13735 29.5799 0.702147 24.8738 0.702148 19.9287C0.702157 14.9836 5.13736 10.2776 12.8486 6.76757C20.4969 3.28632 31.1122 1.11523 42.875 1.11523C54.6378 1.11523 65.2531 3.28632 72.9014 6.76758C80.6126 10.2776 85.0478 14.9836 85.0479 19.9287Z" stroke="url(#paint0_linear_2173_274)" stroke-width="1.40381"/>
<path d="M85.0479 67.8727C85.0479 62.9276 80.6126 58.2215 72.9014 54.7115C65.2531 51.2303 54.6378 49.0592 42.875 49.0592C31.1122 49.0592 20.4969 51.2303 12.8486 54.7116C5.13735 58.2215 0.702147 62.9276 0.702148 67.8727C0.702157 72.8178 5.13736 77.5238 12.8486 81.0338C20.4969 84.5151 31.1122 86.6862 42.875 86.6862C54.6378 86.6862 65.2531 84.5151 72.9014 81.0338C80.6126 77.5238 85.0478 72.8178 85.0479 67.8727Z" stroke="url(#paint1_linear_2173_274)" stroke-width="1.40381"/>
<path d="M80.1445 27.359C80.1445 31.729 76.2246 35.8871 69.4102 38.9889C62.6514 42.0653 53.2708 43.985 42.876 43.985C32.4812 43.985 23.1006 42.0653 16.3418 38.9889C9.52738 35.8871 5.60748 31.729 5.60742 27.359C5.60742 22.989 9.52733 18.8309 16.3418 15.7291C23.1006 12.6527 32.4811 10.733 42.876 10.733C53.2708 10.733 62.6514 12.6527 69.4102 15.7291C76.2246 18.8309 80.1445 22.989 80.1445 27.359Z" stroke="url(#paint2_linear_2173_274)" stroke-width="1.24054"/>
<path d="M80.1445 60.4424C80.1445 56.0724 76.2246 51.9143 69.4102 48.8125C62.6514 45.7361 53.2708 43.8164 42.876 43.8164C32.4812 43.8164 23.1006 45.7361 16.3418 48.8125C9.52738 51.9143 5.60748 56.0724 5.60742 60.4424C5.60742 64.8124 9.52733 68.9705 16.3418 72.0723C23.1006 75.1487 32.4811 77.0684 42.876 77.0684C53.2708 77.0684 62.6514 75.1487 69.4102 72.0723C76.2246 68.9705 80.1445 64.8124 80.1445 60.4424Z" stroke="url(#paint3_linear_2173_274)" stroke-width="1.24054"/>
<path d="M70.9521 36.6755C70.9521 39.9676 67.9988 43.1006 62.8652 45.4373C57.7736 47.7548 50.7067 49.2 42.876 49.1999C35.0452 49.1999 27.9783 47.7548 22.8867 45.4373C17.7532 43.1006 14.7999 39.9676 14.7998 36.6755C14.7998 33.3834 17.7531 30.2505 22.8867 27.9138C27.9784 25.5963 35.0452 24.1501 42.876 24.1501C50.7068 24.1501 57.7736 25.5963 62.8652 27.9138C67.9988 30.2505 70.9521 33.3835 70.9521 36.6755Z" stroke="url(#paint4_linear_2173_274)" stroke-width="0.934548"/>
<path d="M70.9521 51.1259C70.9521 47.8338 67.9988 44.7008 62.8652 42.3641C57.7736 40.0466 50.7067 38.6014 42.876 38.6014C35.0452 38.6014 27.9783 40.0466 22.8867 42.3641C17.7532 44.7008 14.7999 47.8338 14.7998 51.1259C14.7998 54.4179 17.7531 57.5509 22.8867 59.8876C27.9784 62.2051 35.0452 63.6512 42.876 63.6512C50.7068 63.6512 57.7736 62.2051 62.8652 59.8876C67.9988 57.5509 70.9521 54.4179 70.9521 51.1259Z" stroke="url(#paint5_linear_2173_274)" stroke-width="0.934548"/>
<defs>
<linearGradient id="paint0_linear_2173_274" x1="85.75" y1="19.9287" x2="-8.53056e-07" y2="19.9287" gradientUnits="userSpaceOnUse">
<stop stop-color="white"/>
<stop offset="1" stop-color="#FF935E"/>
</linearGradient>
<linearGradient id="paint1_linear_2173_274" x1="85.75" y1="67.8727" x2="-9.04598e-07" y2="67.8727" gradientUnits="userSpaceOnUse">
<stop stop-color="white"/>
<stop offset="1" stop-color="#FF935E"/>
</linearGradient>
<linearGradient id="paint2_linear_2173_274" x1="80.7646" y1="27.3589" x2="4.9873" y2="27.3589" gradientUnits="userSpaceOnUse">
<stop stop-color="white"/>
<stop offset="1" stop-color="#FF935E"/>
</linearGradient>
<linearGradient id="paint3_linear_2173_274" x1="80.7646" y1="60.4425" x2="4.9873" y2="60.4425" gradientUnits="userSpaceOnUse">
<stop stop-color="white"/>
<stop offset="1" stop-color="#FF935E"/>
</linearGradient>
<linearGradient id="paint4_linear_2173_274" x1="71.4189" y1="36.6754" x2="14.333" y2="36.6754" gradientUnits="userSpaceOnUse">
<stop stop-color="white"/>
<stop offset="1" stop-color="#FF935E"/>
</linearGradient>
<linearGradient id="paint5_linear_2173_274" x1="71.4189" y1="51.126" x2="14.333" y2="51.126" gradientUnits="userSpaceOnUse">
<stop stop-color="white"/>
<stop offset="1" stop-color="#FF935E"/>
</linearGradient>
</defs>
</svg>
