<svg width="86" height="87" viewBox="0 0 86 87" fill="none" xmlns="http://www.w3.org/2000/svg">
<path d="M25.0449 16.1963C38.4139 16.1966 49.3887 28.4304 49.3887 43.7012C49.3885 58.9717 38.4138 71.2048 25.0449 71.2051C11.6758 71.2051 0.700402 58.9719 0.700195 43.7012C0.700195 28.4303 11.6757 16.1963 25.0449 16.1963Z" stroke="url(#paint0_linear_2173_341)" stroke-width="1.4"/>
<path d="M23.1875 16.1963C26.5685 16.1966 29.8281 19.0277 32.2842 24.0635C34.7175 29.0528 36.2422 35.9954 36.2422 43.7012C36.2421 51.4068 34.7174 58.3487 32.2842 63.3379C29.8281 68.3737 26.5685 71.2048 23.1875 71.2051C19.8063 71.2051 16.546 68.374 14.0898 63.3379C11.6566 58.3487 10.1319 51.4068 10.1318 43.7012C10.1318 35.9954 11.6566 29.0528 14.0898 24.0635C16.546 19.0274 19.8063 16.1963 23.1875 16.1963Z" stroke="url(#paint1_linear_2173_341)" stroke-width="1.4"/>
<path d="M62.4883 16.1963C59.1073 16.1966 55.8477 19.0277 53.3916 24.0635C50.9583 29.0528 49.4336 35.9954 49.4336 43.7012C49.4337 51.4068 50.9584 58.3487 53.3916 63.3379C55.8477 68.3737 59.1073 71.2048 62.4883 71.2051C65.8695 71.2051 69.1298 68.374 71.5859 63.3379C74.0192 58.3487 75.5439 51.4068 75.5439 43.7012C75.5439 35.9954 74.0192 29.0528 71.5859 24.0635C69.1298 19.0274 65.8695 16.1963 62.4883 16.1963Z" stroke="url(#paint2_linear_2173_341)" stroke-width="1.4"/>
<path d="M60.7061 16.1963C74.075 16.1966 85.0498 28.4304 85.0498 43.7012C85.0496 58.9717 74.0749 71.2048 60.7061 71.2051C47.337 71.2051 36.3615 58.9719 36.3613 43.7012C36.3613 28.4303 47.3369 16.1963 60.7061 16.1963Z" stroke="url(#paint3_linear_2173_341)" stroke-width="1.4"/>
<path d="M42.8711 24.9872C54.6355 24.9872 65.2529 27.1478 72.9023 30.6113C80.6158 34.1037 85.0498 38.7849 85.0498 43.7011C85.0497 48.6172 80.6158 53.2985 72.9023 56.791C65.2529 60.2544 54.6355 62.415 42.8711 62.415C31.1069 62.4149 20.4902 60.2543 12.8408 56.791C5.12726 53.2985 0.693472 48.6173 0.693359 43.7011C0.693359 38.7849 5.12716 34.1038 12.8408 30.6113C20.4903 27.1479 31.1068 24.9873 42.8711 24.9872Z" stroke="url(#paint4_linear_2173_341)" stroke-width="1.4"/>
<path d="M42.8711 9.49414C66.3069 9.49414 85.0498 24.9369 85.0498 43.7012C85.0496 62.4654 66.3068 77.9082 42.8711 77.9082C19.4355 77.9081 0.693524 62.4653 0.693359 43.7012C0.693359 24.9369 19.4354 9.49425 42.8711 9.49414Z" stroke="url(#paint5_linear_2173_341)" stroke-width="1.4"/>
<path d="M42.875 35.2205C54.6803 35.2205 65.3473 36.2458 73.0449 37.8943C76.8994 38.7199 79.9719 39.6937 82.0635 40.7527C83.1101 41.2827 83.8758 41.8165 84.3711 42.3348C84.8635 42.8502 85.0479 43.3049 85.0479 43.701C85.0478 44.0971 84.8635 44.5509 84.3711 45.0662C83.8758 45.5846 83.1104 46.1191 82.0635 46.6492C79.9719 47.7083 76.8993 48.6821 73.0449 49.5076C65.3474 51.1562 54.6803 52.1815 42.875 52.1815C31.0697 52.1815 20.4026 51.1562 12.7051 49.5076C8.85065 48.6821 5.77809 47.7083 3.68652 46.6492C2.63965 46.1191 1.87421 45.5846 1.37891 45.0662C0.88654 44.5509 0.702167 44.0971 0.702148 43.701C0.702148 43.3049 0.88648 42.8502 1.37891 42.3348C1.87422 41.8165 2.63991 41.2827 3.68652 40.7527C5.77809 39.6937 8.85062 38.7199 12.7051 37.8943C20.4026 36.2458 31.0697 35.2205 42.875 35.2205Z" stroke="url(#paint6_linear_2173_341)" stroke-width="1.40381"/>
<path d="M70.376 64.8521C70.3757 61.471 67.5446 58.2114 62.5088 55.7554C57.5195 53.3221 50.5769 51.7974 42.8711 51.7974C35.1655 51.7974 28.2236 53.3221 23.2344 55.7554C18.1985 58.2114 15.3675 61.471 15.3672 64.8521C15.3672 68.2332 18.1983 71.4935 23.2344 73.9497C28.2236 76.3829 35.1655 77.9077 42.8711 77.9077C50.5769 77.9077 57.5195 76.383 62.5088 73.9497C67.5448 71.4935 70.376 68.2332 70.376 64.8521Z" stroke="url(#paint7_linear_2173_341)" stroke-width="1.4"/>
<path d="M70.376 22.5498C70.3757 25.9308 67.5446 29.1904 62.5088 31.6465C57.5195 34.0798 50.5769 35.6045 42.8711 35.6045C35.1655 35.6044 28.2236 34.0797 23.2344 31.6465C18.1985 29.1904 15.3675 25.9308 15.3672 22.5498C15.3672 19.1686 18.1983 15.9083 23.2344 13.4521C28.2236 11.0189 35.1655 9.4942 42.8711 9.49414C50.5769 9.49414 57.5195 11.0189 62.5088 13.4521C67.5448 15.9083 70.376 19.1686 70.376 22.5498Z" stroke="url(#paint8_linear_2173_341)" stroke-width="1.4"/>
<defs>
<linearGradient id="paint0_linear_2173_341" x1="25.0445" y1="15.4961" x2="25.0445" y2="71.9054" gradientUnits="userSpaceOnUse">
<stop stop-color="white"/>
<stop offset="1" stop-color="#FF935E"/>
</linearGradient>
<linearGradient id="paint1_linear_2173_341" x1="23.187" y1="15.4961" x2="23.187" y2="71.9054" gradientUnits="userSpaceOnUse">
<stop stop-color="white"/>
<stop offset="1" stop-color="#FF935E"/>
</linearGradient>
<linearGradient id="paint2_linear_2173_341" x1="62.4888" y1="15.4961" x2="62.4888" y2="71.9054" gradientUnits="userSpaceOnUse">
<stop stop-color="white"/>
<stop offset="1" stop-color="#FF935E"/>
</linearGradient>
<linearGradient id="paint3_linear_2173_341" x1="60.7056" y1="15.4961" x2="60.7056" y2="71.9054" gradientUnits="userSpaceOnUse">
<stop stop-color="white"/>
<stop offset="1" stop-color="#FF935E"/>
</linearGradient>
<linearGradient id="paint4_linear_2173_341" x1="42.8713" y1="24.287" x2="42.8713" y2="63.1148" gradientUnits="userSpaceOnUse">
<stop stop-color="white"/>
<stop offset="1" stop-color="#FF935E"/>
</linearGradient>
<linearGradient id="paint5_linear_2173_341" x1="42.8713" y1="8.79395" x2="42.8713" y2="78.6079" gradientUnits="userSpaceOnUse">
<stop stop-color="white"/>
<stop offset="1" stop-color="#FF935E"/>
</linearGradient>
<linearGradient id="paint6_linear_2173_341" x1="42.875" y1="34.5184" x2="42.875" y2="52.8835" gradientUnits="userSpaceOnUse">
<stop stop-color="white"/>
<stop offset="1" stop-color="#FF935E"/>
</linearGradient>
<linearGradient id="paint7_linear_2173_341" x1="71.0762" y1="64.8525" x2="14.6669" y2="64.8525" gradientUnits="userSpaceOnUse">
<stop stop-color="white"/>
<stop offset="1" stop-color="#FF935E"/>
</linearGradient>
<linearGradient id="paint8_linear_2173_341" x1="71.0762" y1="22.5493" x2="14.6669" y2="22.5493" gradientUnits="userSpaceOnUse">
<stop stop-color="white"/>
<stop offset="1" stop-color="#FF935E"/>
</linearGradient>
</defs>
</svg>
