<svg width="86" height="75" viewBox="0 0 86 75" fill="none" xmlns="http://www.w3.org/2000/svg">
<path d="M85.0479 21.1074C85.0479 26.4 80.5805 31.3957 72.8867 35.1094C65.2423 38.7991 54.6324 41.1006 42.875 41.1006C31.1176 41.1006 20.5077 38.7991 12.8633 35.1094C5.16948 31.3957 0.702147 26.4 0.702148 21.1074C0.702406 15.815 5.1697 10.82 12.8633 7.10644C20.5077 3.41674 31.1176 1.11523 42.875 1.11523C54.6324 1.11523 65.2423 3.41674 72.8867 7.10644C80.5803 10.82 85.0476 15.815 85.0479 21.1074Z" stroke="url(#paint0_linear_2173_214)" stroke-width="1.40381"/>
<path d="M80.1445 32.9871C80.1445 37.6641 76.1964 42.0784 69.3975 45.3601C62.6421 48.6207 53.2661 50.655 42.876 50.655C32.4859 50.655 23.1099 48.6207 16.3545 45.3601C9.55551 42.0784 5.60746 37.6641 5.60742 32.9871C5.60742 28.31 9.55547 23.8957 16.3545 20.614C23.1099 17.3534 32.4859 15.3191 42.876 15.3191C53.2661 15.3191 62.6421 17.3534 69.3975 20.614C76.1965 23.8957 80.1445 28.31 80.1445 32.9871Z" stroke="url(#paint1_linear_2173_214)" stroke-width="1.24054"/>
<path d="M70.9521 45.8667C70.952 49.39 67.9773 52.7148 62.8555 55.187C57.7664 57.6434 50.7033 59.1763 42.876 59.1763C35.0487 59.1763 27.9856 57.6434 22.8965 55.187C17.7747 52.7148 14.8 49.39 14.7998 45.8667C14.7998 42.3433 17.7745 39.0177 22.8965 36.5454C27.9856 34.0891 35.0488 32.5562 42.876 32.5562C50.7032 32.5562 57.7664 34.0891 62.8555 36.5454C67.9774 39.0177 70.9521 42.3433 70.9521 45.8667Z" stroke="url(#paint2_linear_2173_214)" stroke-width="0.934548"/>
<path d="M65.6299 57.7458C65.6297 60.6013 63.2193 63.296 59.0684 65.2996C54.9439 67.2903 49.2196 68.533 42.876 68.533C36.5324 68.533 30.8081 67.2903 26.6836 65.2996C22.5326 63.296 20.1223 60.6013 20.1221 57.7458C20.1221 54.8903 22.5325 52.1948 26.6836 50.1912C30.8081 48.2005 36.5324 46.9587 42.876 46.9587C49.2195 46.9587 54.9439 48.2005 59.0684 50.1912C63.2195 52.1948 65.6299 54.8903 65.6299 57.7458Z" stroke="url(#paint3_linear_2173_214)" stroke-width="0.75741"/>
<path d="M58.8564 66.7457C58.8563 68.7511 57.1632 70.6433 54.248 72.0504C51.3514 73.4485 47.3311 74.3209 42.876 74.3209C38.4208 74.3209 34.4005 73.4485 31.5039 72.0504C28.5888 70.6433 26.8956 68.7511 26.8955 66.7457C26.8955 64.7403 28.5886 62.8472 31.5039 61.4401C34.4005 60.042 38.4209 59.1696 42.876 59.1696C47.3311 59.1696 51.3514 60.042 54.248 61.4401C57.1634 62.8472 58.8564 64.7403 58.8564 66.7457Z" stroke="url(#paint4_linear_2173_214)" stroke-width="0.531927"/>
<defs>
<linearGradient id="paint0_linear_2173_214" x1="85.75" y1="21.1079" x2="-9.04598e-07" y2="21.1079" gradientUnits="userSpaceOnUse">
<stop stop-color="white"/>
<stop offset="1" stop-color="#FF935E"/>
</linearGradient>
<linearGradient id="paint1_linear_2173_214" x1="80.7646" y1="32.987" x2="4.9873" y2="32.987" gradientUnits="userSpaceOnUse">
<stop stop-color="white"/>
<stop offset="1" stop-color="#FF935E"/>
</linearGradient>
<linearGradient id="paint2_linear_2173_214" x1="71.4189" y1="45.8664" x2="14.333" y2="45.8664" gradientUnits="userSpaceOnUse">
<stop stop-color="white"/>
<stop offset="1" stop-color="#FF935E"/>
</linearGradient>
<linearGradient id="paint3_linear_2173_214" x1="66.0088" y1="57.7455" x2="19.7432" y2="57.7455" gradientUnits="userSpaceOnUse">
<stop stop-color="white"/>
<stop offset="1" stop-color="#FF935E"/>
</linearGradient>
<linearGradient id="paint4_linear_2173_214" x1="59.1221" y1="66.7456" x2="26.6299" y2="66.7456" gradientUnits="userSpaceOnUse">
<stop stop-color="white"/>
<stop offset="1" stop-color="#FF935E"/>
</linearGradient>
</defs>
</svg>
