<svg width="86" height="87" viewBox="0 0 86 87" fill="none" xmlns="http://www.w3.org/2000/svg">
<path d="M42.873 11.2688C47.0769 11.2688 50.8521 11.8956 53.5508 12.887C54.9029 13.3837 55.9476 13.959 56.6416 14.5618C57.3374 15.1661 57.6133 15.7349 57.6133 16.2395C57.6133 16.7441 57.3374 17.3129 56.6416 17.9172C55.9476 18.52 54.9028 19.0953 53.5508 19.592C50.8521 20.5834 47.0769 21.2102 42.873 21.2102C38.6693 21.2102 34.8941 20.5833 32.1953 19.592C30.8431 19.0953 29.7976 18.52 29.1035 17.9172C28.4078 17.313 28.1318 16.7441 28.1318 16.2395C28.1318 15.7349 28.4078 15.166 29.1035 14.5618C29.7976 13.959 30.8431 13.3837 32.1953 12.887C34.8941 11.8957 38.6693 11.2688 42.873 11.2688Z" stroke="url(#paint0_linear_2173_290)" stroke-width="1.40381"/>
<path d="M42.873 41.3809C47.0769 41.3808 50.8521 40.754 53.5508 39.7627C54.9029 39.266 55.9476 38.6907 56.6416 38.0879C57.3374 37.4836 57.6133 36.9147 57.6133 36.4102C57.6133 35.9056 57.3374 35.3367 56.6416 34.7324C55.9476 34.1297 54.9028 33.5543 53.5508 33.0576C50.8521 32.0663 47.0769 31.4395 42.873 31.4395C38.6693 31.4395 34.8941 32.0663 32.1953 33.0576C30.8431 33.5543 29.7976 34.1296 29.1035 34.7324C28.4078 35.3367 28.1318 35.9056 28.1318 36.4102C28.1318 36.9147 28.4078 37.4836 29.1035 38.0879C29.7976 38.6907 30.8431 39.266 32.1953 39.7627C34.8941 40.754 38.6693 41.3809 42.873 41.3809Z" stroke="url(#paint1_linear_2173_290)" stroke-width="1.40381"/>
<path d="M42.873 51.4396C47.0769 51.4396 50.8521 52.0664 53.5508 53.0577C54.9029 53.5544 55.9476 54.1298 56.6416 54.7325C57.3374 55.3368 57.6133 55.9057 57.6133 56.4103C57.6133 56.9149 57.3374 57.4837 56.6416 58.088C55.9476 58.6908 54.9028 59.2661 53.5508 59.7628C50.8521 60.7542 47.0769 61.3809 42.873 61.381C38.6693 61.381 34.8941 60.7541 32.1953 59.7628C30.8431 59.2661 29.7976 58.6908 29.1035 58.088C28.4078 57.4838 28.1318 56.9148 28.1318 56.4103C28.1318 55.9057 28.4078 55.3368 29.1035 54.7325C29.7976 54.1297 30.8431 53.5545 32.1953 53.0577C34.8941 52.0664 38.6693 51.4396 42.873 51.4396Z" stroke="url(#paint2_linear_2173_290)" stroke-width="1.40381"/>
<path d="M42.874 7.91199C49.6014 7.91199 55.6612 8.91472 60.0137 10.5135C62.1925 11.314 63.9071 12.2504 65.0635 13.2548C66.2214 14.2605 66.7528 15.2712 66.7529 16.2391C66.7529 17.2072 66.2216 18.2186 65.0635 19.2245C63.907 20.2288 62.1926 21.1653 60.0137 21.9657C55.6612 23.5645 49.6014 24.5673 42.874 24.5673C36.1467 24.5673 30.0868 23.5645 25.7344 21.9657C23.5554 21.1653 21.841 20.2289 20.6846 19.2245C19.5264 18.2186 18.9951 17.2072 18.9951 16.2391C18.9952 15.2712 19.5266 14.2605 20.6846 13.2548C21.841 12.2504 23.5555 11.314 25.7344 10.5135C30.0868 8.91471 36.1467 7.91199 42.874 7.91199Z" stroke="url(#paint3_linear_2173_290)" stroke-width="1.40381"/>
<path d="M42.874 44.7378C49.6014 44.7378 55.6612 43.7351 60.0137 42.1362C62.1925 41.3358 63.9071 40.3994 65.0635 39.395C66.2214 38.3893 66.7528 37.3785 66.7529 36.4106C66.7529 35.4426 66.2216 34.4312 65.0635 33.4253C63.907 32.4209 62.1926 31.4845 60.0137 30.6841C55.6612 29.0852 49.6014 28.0825 42.874 28.0825C36.1467 28.0825 30.0868 29.0852 25.7344 30.6841C23.5554 31.4845 21.841 32.4209 20.6846 33.4253C19.5264 34.4312 18.9951 35.4426 18.9951 36.4106C18.9952 37.3786 19.5266 38.3893 20.6846 39.395C21.841 40.3994 23.5555 41.3358 25.7344 42.1362C30.0868 43.7351 36.1467 44.7378 42.874 44.7378Z" stroke="url(#paint4_linear_2173_290)" stroke-width="1.40381"/>
<path d="M42.874 48.0826C49.6014 48.0826 55.6612 49.0854 60.0137 50.6842C62.1925 51.4846 63.9071 52.4211 65.0635 53.4254C66.2214 54.4311 66.7528 55.4419 66.7529 56.4098C66.7529 57.3778 66.2216 58.3893 65.0635 59.3951C63.907 60.3995 62.1926 61.3359 60.0137 62.1364C55.6612 63.7352 49.6014 64.7379 42.874 64.7379C36.1467 64.7379 30.0868 63.7352 25.7344 62.1364C23.5554 61.3359 21.841 60.3995 20.6846 59.3951C19.5264 58.3892 18.9951 57.3779 18.9951 56.4098C18.9952 55.4419 19.5266 54.4312 20.6846 53.4254C21.841 52.4211 23.5555 51.4846 25.7344 50.6842C30.0868 49.0854 36.1467 48.0826 42.874 48.0826Z" stroke="url(#paint5_linear_2173_290)" stroke-width="1.40381"/>
<path d="M42.8721 4.34375C52.2817 4.34377 60.7697 5.74569 66.8799 7.99023C69.9378 9.11353 72.3627 10.4349 74.0107 11.8662C75.6604 13.299 76.4648 14.7786 76.4648 16.2393C76.4648 17.7 75.6605 19.1804 74.0107 20.6133C72.3628 22.0444 69.9375 23.3651 66.8799 24.4883C60.7697 26.7328 52.2817 28.1357 42.8721 28.1357C33.4625 28.1357 24.9745 26.7328 18.8643 24.4883C15.8063 23.365 13.3804 22.0446 11.7324 20.6133C10.0826 19.1804 9.2793 17.7 9.2793 16.2393C9.27938 14.7786 10.0829 13.2989 11.7324 11.8662C13.3804 10.4349 15.8063 9.11354 18.8643 7.99023C24.9745 5.74575 33.4626 4.34375 42.8721 4.34375Z" stroke="url(#paint6_linear_2173_290)" stroke-width="1.40381"/>
<path d="M42.8721 48.3059C52.2817 48.3059 60.7697 46.904 66.8799 44.6594C69.9378 43.5361 72.3627 42.2147 74.0107 40.7834C75.6604 39.3507 76.4648 37.8711 76.4648 36.4104C76.4648 34.9496 75.6605 33.4692 74.0107 32.0364C72.3628 30.6052 69.9375 29.2846 66.8799 28.1614C60.7697 25.9168 52.2817 24.5139 42.8721 24.5139C33.4625 24.5139 24.9745 25.9169 18.8643 28.1614C15.8063 29.2847 13.3804 30.6051 11.7324 32.0364C10.0826 33.4692 9.2793 34.9496 9.2793 36.4104C9.27938 37.871 10.0829 39.3508 11.7324 40.7834C13.3804 42.2147 15.8063 43.5361 18.8643 44.6594C24.9745 46.9039 33.4626 48.3059 42.8721 48.3059Z" stroke="url(#paint7_linear_2173_290)" stroke-width="1.40381"/>
<path d="M42.8721 44.5145C52.2817 44.5146 60.7697 45.9165 66.8799 48.161C69.9378 49.2843 72.3627 50.6057 74.0107 52.037C75.6604 53.4697 76.4648 54.9493 76.4648 56.41C76.4648 57.8708 75.6605 59.3512 74.0107 60.7841C72.3628 62.2152 69.9375 63.5358 66.8799 64.6591C60.7697 66.9036 52.2817 68.3065 42.8721 68.3065C33.4625 68.3065 24.9745 66.9036 18.8643 64.6591C15.8063 63.5358 13.3804 62.2153 11.7324 60.7841C10.0826 59.3512 9.2793 57.8708 9.2793 56.41C9.27938 54.9494 10.0829 53.4697 11.7324 52.037C13.3804 50.6057 15.8063 49.2843 18.8643 48.161C24.9745 45.9165 33.4626 44.5145 42.8721 44.5145Z" stroke="url(#paint8_linear_2173_290)" stroke-width="1.40381"/>
<path d="M42.875 1.19189C54.654 1.19189 65.2872 2.94631 72.9502 5.76123C76.7845 7.16973 79.8387 8.83078 81.9209 10.6392C84.0046 12.449 85.0479 14.3439 85.0479 16.2397C85.0478 18.1356 84.0047 20.0305 81.9209 21.8403C79.8387 23.6487 76.7845 25.3088 72.9502 26.7173C65.2872 29.5322 54.6541 31.2876 42.875 31.2876C31.0959 31.2876 20.4628 29.5322 12.7998 26.7173C8.96554 25.3088 5.9113 23.6487 3.8291 21.8403C1.74531 20.0305 0.702227 18.1356 0.702148 16.2397C0.702148 14.3439 1.74538 12.449 3.8291 10.6392C5.91131 8.83078 8.96551 7.16973 12.7998 5.76123C20.4628 2.94631 31.096 1.19189 42.875 1.19189Z" stroke="url(#paint9_linear_2173_290)" stroke-width="1.40381"/>
<path d="M42.875 51.4578C54.654 51.4578 65.2872 49.7034 72.9502 46.8884C76.7845 45.4799 79.8387 43.8189 81.9209 42.0105C84.0046 40.2007 85.0479 38.3057 85.0479 36.4099C85.0478 34.5141 84.0047 32.6191 81.9209 30.8093C79.8387 29.001 76.7845 27.3409 72.9502 25.9324C65.2872 23.1174 54.6541 21.3621 42.875 21.3621C31.0959 21.3621 20.4628 23.1174 12.7998 25.9324C8.96554 27.3409 5.9113 29.001 3.8291 30.8093C1.74531 32.6191 0.702227 34.5141 0.702148 36.4099C0.702148 38.3057 1.74538 40.2007 3.8291 42.0105C5.91131 43.8189 8.96551 45.4799 12.7998 46.8884C20.4628 49.7034 31.096 51.4578 42.875 51.4578Z" stroke="url(#paint10_linear_2173_290)" stroke-width="1.40381"/>
<path d="M42.875 41.3625C54.654 41.3625 65.2872 43.117 72.9502 45.9319C76.7845 47.3404 79.8387 49.0014 81.9209 50.8098C84.0046 52.6196 85.0479 54.5146 85.0479 56.4104C85.0478 58.3062 84.0047 60.2012 81.9209 62.011C79.8387 63.8194 76.7845 65.4794 72.9502 66.8879C65.2872 69.7029 54.6541 71.4583 42.875 71.4583C31.0959 71.4583 20.4628 69.7029 12.7998 66.8879C8.96554 65.4794 5.9113 63.8194 3.8291 62.011C1.74531 60.2012 0.702227 58.3062 0.702148 56.4104C0.702148 54.5146 1.74538 52.6196 3.8291 50.8098C5.91131 49.0014 8.96551 47.3404 12.7998 45.9319C20.4628 43.117 31.096 41.3625 42.875 41.3625Z" stroke="url(#paint11_linear_2173_290)" stroke-width="1.40381"/>
<defs>
<linearGradient id="paint0_linear_2173_290" x1="42.8727" y1="10.5667" x2="42.8727" y2="21.9124" gradientUnits="userSpaceOnUse">
<stop stop-color="white"/>
<stop offset="1" stop-color="#FF935E"/>
</linearGradient>
<linearGradient id="paint1_linear_2173_290" x1="42.8727" y1="42.083" x2="42.8727" y2="30.7373" gradientUnits="userSpaceOnUse">
<stop stop-color="white"/>
<stop offset="1" stop-color="#FF935E"/>
</linearGradient>
<linearGradient id="paint2_linear_2173_290" x1="42.8727" y1="50.7374" x2="42.8727" y2="62.0831" gradientUnits="userSpaceOnUse">
<stop stop-color="white"/>
<stop offset="1" stop-color="#FF935E"/>
</linearGradient>
<linearGradient id="paint3_linear_2173_290" x1="42.874" y1="7.20984" x2="42.874" y2="25.2691" gradientUnits="userSpaceOnUse">
<stop stop-color="white"/>
<stop offset="1" stop-color="#FF935E"/>
</linearGradient>
<linearGradient id="paint4_linear_2173_290" x1="42.874" y1="45.4399" x2="42.874" y2="27.3807" gradientUnits="userSpaceOnUse">
<stop stop-color="white"/>
<stop offset="1" stop-color="#FF935E"/>
</linearGradient>
<linearGradient id="paint5_linear_2173_290" x1="42.874" y1="47.3805" x2="42.874" y2="65.4398" gradientUnits="userSpaceOnUse">
<stop stop-color="white"/>
<stop offset="1" stop-color="#FF935E"/>
</linearGradient>
<linearGradient id="paint6_linear_2173_290" x1="42.8718" y1="3.6416" x2="42.8718" y2="28.8373" gradientUnits="userSpaceOnUse">
<stop stop-color="white"/>
<stop offset="1" stop-color="#FF935E"/>
</linearGradient>
<linearGradient id="paint7_linear_2173_290" x1="42.8718" y1="49.0081" x2="42.8718" y2="23.8123" gradientUnits="userSpaceOnUse">
<stop stop-color="white"/>
<stop offset="1" stop-color="#FF935E"/>
</linearGradient>
<linearGradient id="paint8_linear_2173_290" x1="42.8718" y1="43.8124" x2="42.8718" y2="69.0081" gradientUnits="userSpaceOnUse">
<stop stop-color="white"/>
<stop offset="1" stop-color="#FF935E"/>
</linearGradient>
<linearGradient id="paint9_linear_2173_290" x1="42.875" y1="0.489746" x2="42.875" y2="31.9893" gradientUnits="userSpaceOnUse">
<stop stop-color="white"/>
<stop offset="1" stop-color="#FF935E"/>
</linearGradient>
<linearGradient id="paint10_linear_2173_290" x1="42.875" y1="52.1599" x2="42.875" y2="20.6603" gradientUnits="userSpaceOnUse">
<stop stop-color="white"/>
<stop offset="1" stop-color="#FF935E"/>
</linearGradient>
<linearGradient id="paint11_linear_2173_290" x1="42.875" y1="40.6604" x2="42.875" y2="72.16" gradientUnits="userSpaceOnUse">
<stop stop-color="white"/>
<stop offset="1" stop-color="#FF935E"/>
</linearGradient>
</defs>
</svg>
