<svg width="86" height="87" viewBox="0 0 86 87" fill="none" xmlns="http://www.w3.org/2000/svg">
<circle cx="42.8727" cy="43.7011" r="14.743" stroke="url(#paint0_linear_2173_334)" stroke-width="1.4"/>
<path d="M42.873 59.8442C51.0955 59.8444 57.6152 65.7473 57.6152 72.8599C57.6152 79.9725 51.0955 85.8753 42.873 85.8755C34.6504 85.8755 28.1299 79.9726 28.1299 72.8599C28.1299 65.7471 34.6504 59.8442 42.873 59.8442Z" stroke="url(#paint1_linear_2173_334)" stroke-width="1.4"/>
<path d="M42.873 1.52612C51.0954 1.52631 57.6151 7.42911 57.6152 14.5417C57.6152 21.6545 51.0955 27.5582 42.873 27.5583C34.6504 27.5583 28.1299 21.6546 28.1299 14.5417C28.1301 7.429 34.6505 1.52612 42.873 1.52612Z" stroke="url(#paint2_linear_2173_334)" stroke-width="1.4"/>
<circle cx="42.874" cy="25.4069" r="23.881" stroke="url(#paint3_linear_2173_334)" stroke-width="1.4"/>
<circle cx="42.874" cy="61.9949" r="23.881" stroke="url(#paint4_linear_2173_334)" stroke-width="1.4"/>
<circle cx="42.8714" cy="43.7009" r="26.7368" stroke="url(#paint5_linear_2173_334)" stroke-width="1.4"/>
<defs>
<linearGradient id="paint0_linear_2173_334" x1="42.8727" y1="28.2581" x2="42.8727" y2="59.1441" gradientUnits="userSpaceOnUse">
<stop stop-color="white"/>
<stop offset="1" stop-color="#FF935E"/>
</linearGradient>
<linearGradient id="paint1_linear_2173_334" x1="42.8727" y1="59.144" x2="42.8727" y2="86.5759" gradientUnits="userSpaceOnUse">
<stop stop-color="white"/>
<stop offset="1" stop-color="#FF935E"/>
</linearGradient>
<linearGradient id="paint2_linear_2173_334" x1="42.8727" y1="0.825928" x2="42.8727" y2="28.2581" gradientUnits="userSpaceOnUse">
<stop stop-color="white"/>
<stop offset="1" stop-color="#FF935E"/>
</linearGradient>
<linearGradient id="paint3_linear_2173_334" x1="42.874" y1="0.825928" x2="42.874" y2="49.9879" gradientUnits="userSpaceOnUse">
<stop stop-color="white"/>
<stop offset="1" stop-color="#FF935E"/>
</linearGradient>
<linearGradient id="paint4_linear_2173_334" x1="42.874" y1="37.4139" x2="42.874" y2="86.5759" gradientUnits="userSpaceOnUse">
<stop stop-color="white"/>
<stop offset="1" stop-color="#FF935E"/>
</linearGradient>
<linearGradient id="paint5_linear_2173_334" x1="42.8714" y1="16.2641" x2="42.8714" y2="71.1378" gradientUnits="userSpaceOnUse">
<stop stop-color="white"/>
<stop offset="1" stop-color="#FF935E"/>
</linearGradient>
</defs>
</svg>
