<svg width="86" height="87" viewBox="0 0 86 87" fill="none" xmlns="http://www.w3.org/2000/svg">
<path d="M19.5771 1.52808C24.5404 1.52808 29.2616 5.96524 32.7822 13.6755C36.2743 21.3236 38.4521 31.9385 38.4521 43.7009C38.4521 55.4633 36.2743 66.0783 32.7822 73.7263C29.2616 81.4366 24.5404 85.8738 19.5771 85.8738C14.6139 85.8738 9.89267 81.4366 6.37207 73.7263C2.88 66.0783 0.702148 55.4633 0.702148 43.7009C0.702148 31.9385 2.88 21.3236 6.37207 13.6755C9.89267 5.96524 14.6139 1.52808 19.5771 1.52808Z" stroke="url(#paint0_linear_2173_305)" stroke-width="1.40381"/>
<path d="M25.793 14.7162C29.1803 14.7164 32.4019 17.7443 34.8047 23.0062C37.1882 28.2262 38.6758 35.4721 38.6758 43.5004C38.6757 51.5285 37.1881 58.7736 34.8047 63.9935C32.4019 69.2556 29.1803 72.2843 25.793 72.2845C22.4055 72.2845 19.1832 69.2558 16.7803 63.9935C14.3968 58.7736 12.9102 51.5285 12.9102 43.5004C12.9102 35.4721 14.3968 28.2262 16.7803 23.0062C19.1831 17.744 22.4055 14.7162 25.793 14.7162Z" stroke="url(#paint1_linear_2173_305)" stroke-width="0.958133"/>
<path d="M58.7314 1.52808C63.6947 1.52808 68.4159 5.96524 71.9365 13.6755C75.4286 21.3236 77.6064 31.9385 77.6064 43.7009C77.6064 55.4633 75.4286 66.0783 71.9365 73.7263C68.4159 81.4366 63.6947 85.8738 58.7314 85.8738C53.7682 85.8738 49.047 81.4366 45.5264 73.7263C42.0343 66.0783 39.8564 55.4633 39.8564 43.7009C39.8564 31.9385 42.0343 21.3236 45.5264 13.6755C49.047 5.96524 53.7682 1.52808 58.7314 1.52808Z" stroke="url(#paint2_linear_2173_305)" stroke-width="1.40381"/>
<path d="M52.5166 14.7162C55.9039 14.7164 59.1255 17.7443 61.5283 23.0062C63.9118 28.2262 65.3994 35.4721 65.3994 43.5004C65.3994 51.5285 63.9118 58.7736 61.5283 63.9935C59.1255 69.2556 55.9039 72.2843 52.5166 72.2845C49.1291 72.2845 45.9068 69.2558 43.5039 63.9935C41.1204 58.7736 39.6338 51.5285 39.6338 43.5004C39.6338 35.4721 41.1204 28.2262 43.5039 23.0062C45.9068 17.744 49.1291 14.7162 52.5166 14.7162Z" stroke="url(#paint3_linear_2173_305)" stroke-width="0.958133"/>
<path d="M39.5771 1.52808C44.5404 1.52808 49.2616 5.96524 52.7822 13.6755C56.2743 21.3236 58.4521 31.9385 58.4521 43.7009C58.4521 55.4633 56.2743 66.0783 52.7822 73.7263C49.2616 81.4366 44.5404 85.8738 39.5771 85.8738C34.6139 85.8738 29.8927 81.4366 26.3721 73.7263C22.88 66.0783 20.7021 55.4633 20.7021 43.7009C20.7021 31.9385 22.88 21.3236 26.3721 13.6755C29.8927 5.96524 34.6139 1.52808 39.5771 1.52808Z" stroke="url(#paint4_linear_2173_305)" stroke-width="1.40381"/>
<path d="M39.4434 14.7162C42.8307 14.7164 46.0523 17.7443 48.4551 23.0062C50.8386 28.2262 52.3262 35.4721 52.3262 43.5004C52.3261 51.5285 50.8385 58.7736 48.4551 63.9935C46.0523 69.2556 42.8307 72.2843 39.4434 72.2845C36.0559 72.2845 32.8335 69.2558 30.4307 63.9935C28.0472 58.7736 26.5606 51.5285 26.5605 43.5004C26.5605 35.4721 28.0472 28.2262 30.4307 23.0062C32.8335 17.744 36.0559 14.7162 39.4434 14.7162Z" stroke="url(#paint5_linear_2173_305)" stroke-width="0.958133"/>
<defs>
<linearGradient id="paint0_linear_2173_305" x1="19.5771" y1="0.825928" x2="19.5771" y2="86.5759" gradientUnits="userSpaceOnUse">
<stop stop-color="white"/>
<stop offset="1" stop-color="#FF935E"/>
</linearGradient>
<linearGradient id="paint1_linear_2173_305" x1="25.7926" y1="14.2367" x2="25.7926" y2="72.7632" gradientUnits="userSpaceOnUse">
<stop stop-color="white"/>
<stop offset="1" stop-color="#FF935E"/>
</linearGradient>
<linearGradient id="paint2_linear_2173_305" x1="58.7314" y1="0.825928" x2="58.7314" y2="86.5759" gradientUnits="userSpaceOnUse">
<stop stop-color="white"/>
<stop offset="1" stop-color="#FF935E"/>
</linearGradient>
<linearGradient id="paint3_linear_2173_305" x1="52.5162" y1="14.2367" x2="52.5162" y2="72.7632" gradientUnits="userSpaceOnUse">
<stop stop-color="white"/>
<stop offset="1" stop-color="#FF935E"/>
</linearGradient>
<linearGradient id="paint4_linear_2173_305" x1="39.5771" y1="0.825928" x2="39.5771" y2="86.5759" gradientUnits="userSpaceOnUse">
<stop stop-color="white"/>
<stop offset="1" stop-color="#FF935E"/>
</linearGradient>
<linearGradient id="paint5_linear_2173_305" x1="39.443" y1="14.2367" x2="39.443" y2="72.7632" gradientUnits="userSpaceOnUse">
<stop stop-color="white"/>
<stop offset="1" stop-color="#FF935E"/>
</linearGradient>
</defs>
</svg>
