<svg width="90" height="86" viewBox="0 0 90 86" fill="none" xmlns="http://www.w3.org/2000/svg">
<path d="M20.6943 0.73999C25.9869 0.73999 30.9827 5.20732 34.6963 12.9011C38.386 20.5455 40.6875 31.1554 40.6875 42.9128C40.6875 54.6703 38.386 65.2801 34.6963 72.9246C30.9827 80.6184 25.9869 85.0857 20.6943 85.0857C15.4019 85.0854 10.4069 80.6181 6.69336 72.9246C3.00365 65.2801 0.702148 54.6703 0.702148 42.9128C0.702148 31.1554 3.00365 20.5456 6.69336 12.9011C10.4069 5.20754 15.4019 0.740249 20.6943 0.73999Z" stroke="url(#paint0_linear_2173_228)" stroke-width="1.40381"/>
<path d="M36.5732 0.73999C41.8658 0.73999 46.8616 5.20732 50.5752 12.9011C54.2649 20.5455 56.5664 31.1554 56.5664 42.9128C56.5664 54.6703 54.2649 65.2801 50.5752 72.9246C46.8616 80.6184 41.8658 85.0857 36.5732 85.0857C31.2808 85.0854 26.2858 80.6181 22.5723 72.9246C18.8826 65.2801 16.5811 54.6703 16.5811 42.9128C16.5811 31.1554 18.8826 20.5456 22.5723 12.9011C26.2858 5.20754 31.2808 0.740249 36.5732 0.73999Z" stroke="url(#paint1_linear_2173_228)" stroke-width="1.40381"/>
<path d="M52.4531 0.73999C57.7457 0.73999 62.7415 5.20732 66.4551 12.9011C70.1448 20.5455 72.4463 31.1554 72.4463 42.9128C72.4463 54.6703 70.1448 65.2801 66.4551 72.9246C62.7415 80.6184 57.7457 85.0857 52.4531 85.0857C47.1607 85.0854 42.1657 80.6181 38.4521 72.9246C34.7624 65.2801 32.4609 54.6703 32.4609 42.9128C32.4609 31.1554 34.7624 20.5456 38.4521 12.9011C42.1657 5.20754 47.1607 0.740249 52.4531 0.73999Z" stroke="url(#paint2_linear_2173_228)" stroke-width="1.40381"/>
<path d="M68.332 0.73999C73.6246 0.73999 78.6204 5.20732 82.334 12.9011C86.0237 20.5455 88.3252 31.1554 88.3252 42.9128C88.3252 54.6703 86.0237 65.2801 82.334 72.9246C78.6204 80.6184 73.6246 85.0857 68.332 85.0857C63.0396 85.0854 58.0446 80.6181 54.3311 72.9246C50.6413 65.2801 48.3398 54.6703 48.3398 42.9128C48.3398 31.1554 50.6413 20.5456 54.3311 12.9011C58.0446 5.20754 63.0396 0.740249 68.332 0.73999Z" stroke="url(#paint3_linear_2173_228)" stroke-width="1.40381"/>
<defs>
<linearGradient id="paint0_linear_2173_228" x1="20.6948" y1="0.0378418" x2="20.6948" y2="85.7878" gradientUnits="userSpaceOnUse">
<stop stop-color="white"/>
<stop offset="1" stop-color="#FF935E"/>
</linearGradient>
<linearGradient id="paint1_linear_2173_228" x1="36.5737" y1="0.0378418" x2="36.5737" y2="85.7878" gradientUnits="userSpaceOnUse">
<stop stop-color="white"/>
<stop offset="1" stop-color="#FF935E"/>
</linearGradient>
<linearGradient id="paint2_linear_2173_228" x1="52.4536" y1="0.0378418" x2="52.4536" y2="85.7878" gradientUnits="userSpaceOnUse">
<stop stop-color="white"/>
<stop offset="1" stop-color="#FF935E"/>
</linearGradient>
<linearGradient id="paint3_linear_2173_228" x1="68.3325" y1="0.0378418" x2="68.3325" y2="85.7878" gradientUnits="userSpaceOnUse">
<stop stop-color="white"/>
<stop offset="1" stop-color="#FF935E"/>
</linearGradient>
</defs>
</svg>
