<svg width="86" height="75" viewBox="0 0 86 75" fill="none" xmlns="http://www.w3.org/2000/svg">
<path d="M85.0478 37.4999C85.0478 57.5028 66.2656 73.8847 42.875 73.8847C19.4844 73.8847 0.702146 57.5028 0.702147 37.4999C0.702205 17.4971 19.4845 1.11517 42.875 1.11517C66.2655 1.11517 85.0478 17.4971 85.0478 37.4999Z" stroke="url(#paint0_linear_2173_367)" stroke-width="1.40381"/>
<path d="M85.0478 37.5001C85.0478 17.4973 66.2656 1.11536 42.875 1.11536C19.4844 1.11536 0.702146 17.4973 0.702147 37.5001C0.702205 57.5029 19.4845 73.8849 42.875 73.8849C66.2655 73.8849 85.0478 57.5029 85.0478 37.5001Z" stroke="url(#paint1_linear_2173_367)" stroke-width="1.40381"/>
<path d="M80.1445 44.6432C80.1443 60.7101 63.6026 73.9665 42.876 73.9665C22.1493 73.9665 5.60761 60.7101 5.60742 44.6432C5.60742 28.5763 22.1492 15.319 42.876 15.319C63.6027 15.319 80.1445 28.5763 80.1445 44.6432Z" stroke="url(#paint2_linear_2173_367)" stroke-width="1.24054"/>
<path d="M80.1445 30.3568C80.1443 14.29 63.6026 1.03357 42.876 1.03357C22.1493 1.03357 5.60761 14.29 5.60742 30.3568C5.60742 46.4238 22.1492 59.681 42.876 59.681C63.6027 59.681 80.1445 46.4238 80.1445 30.3568Z" stroke="url(#paint3_linear_2173_367)" stroke-width="1.24054"/>
<path d="M70.9521 53.3383C70.9521 59.0243 67.857 64.2092 62.7803 67.9887C57.7033 71.7682 50.6674 74.1196 42.876 74.1196C35.0846 74.1196 28.0486 71.7682 22.9717 67.9887C17.8949 64.2092 14.7999 59.0243 14.7998 53.3383C14.7998 47.6523 17.895 42.4674 22.9717 38.6879C28.0486 34.9084 35.0846 32.5561 42.876 32.5561C50.6674 32.5561 57.7033 34.9084 62.7803 38.6879C67.857 42.4674 70.9521 47.6523 70.9521 53.3383Z" stroke="url(#paint4_linear_2173_367)" stroke-width="0.934548"/>
<path d="M70.9521 21.6617C70.9521 15.9757 67.857 10.7908 62.7803 7.01135C57.7033 3.23182 50.6674 0.880494 42.876 0.880494C35.0846 0.880495 28.0486 3.23182 22.9717 7.01135C17.8949 10.7908 14.7999 15.9757 14.7998 21.6617C14.7998 27.3478 17.895 32.5326 22.9717 36.3121C28.0486 40.0917 35.0846 42.444 42.876 42.444C50.6674 42.444 57.7033 40.0917 62.7803 36.3121C67.857 32.5326 70.9521 27.3478 70.9521 21.6617Z" stroke="url(#paint5_linear_2173_367)" stroke-width="0.934548"/>
<path d="M65.6299 60.5837C65.6298 64.267 63.1618 67.6649 59.0371 70.1618C54.9193 72.6545 49.2064 74.2087 42.876 74.2087C36.5456 74.2087 30.8326 72.6545 26.7148 70.1618C22.5901 67.6649 20.1222 64.2669 20.1221 60.5837C20.1221 56.9003 22.59 53.5025 26.7148 51.0056C30.8326 48.5128 36.5455 46.9587 42.876 46.9587C49.2065 46.9587 54.9193 48.5128 59.0371 51.0056C63.1619 53.5025 65.6299 56.9003 65.6299 60.5837Z" stroke="url(#paint6_linear_2173_367)" stroke-width="0.75741"/>
<path d="M65.6299 14.4164C65.6298 10.7331 63.1618 7.33518 59.0371 4.83826C54.9193 2.3456 49.2064 0.791383 42.876 0.791383C36.5456 0.791383 30.8326 2.3456 26.7148 4.83826C22.5901 7.33519 20.1222 10.7331 20.1221 14.4164C20.1221 18.0998 22.59 21.4975 26.7148 23.9945C30.8326 26.4872 36.5455 28.0414 42.876 28.0414C49.2065 28.0414 54.9193 26.4872 59.0371 23.9945C63.1619 21.4975 65.6299 18.0998 65.6299 14.4164Z" stroke="url(#paint7_linear_2173_367)" stroke-width="0.75741"/>
<path d="M58.8564 66.7456C58.8563 68.751 57.1632 70.6432 54.248 72.0503C51.3514 73.4484 47.3311 74.3208 42.876 74.3208C38.4208 74.3208 34.4005 73.4484 31.5039 72.0503C28.5888 70.6432 26.8956 68.751 26.8955 66.7456C26.8955 64.7402 28.5886 62.8471 31.5039 61.4399C34.4005 60.0418 38.4209 59.1694 42.876 59.1694C47.3311 59.1694 51.3514 60.0418 54.248 61.4399C57.1634 62.8471 58.8564 64.7402 58.8564 66.7456Z" stroke="url(#paint8_linear_2173_367)" stroke-width="0.531927"/>
<path d="M58.8564 8.25446C58.8563 6.24911 57.1632 4.35688 54.248 2.94977C51.3514 1.55164 47.3311 0.679261 42.876 0.679261C38.4208 0.679261 34.4005 1.55164 31.5039 2.94977C28.5888 4.35688 26.8956 6.24911 26.8955 8.25446C26.8955 10.2599 28.5886 12.153 31.5039 13.5601C34.4005 14.9582 38.4209 15.8306 42.876 15.8306C47.3311 15.8306 51.3514 14.9582 54.248 13.5601C57.1634 12.153 58.8564 10.2599 58.8564 8.25446Z" stroke="url(#paint9_linear_2173_367)" stroke-width="0.531927"/>
<defs>
<linearGradient id="paint0_linear_2173_367" x1="85.75" y1="37.5" x2="-1.62112e-06" y2="37.5" gradientUnits="userSpaceOnUse">
<stop stop-color="white"/>
<stop offset="1" stop-color="#FF935E"/>
</linearGradient>
<linearGradient id="paint1_linear_2173_367" x1="85.75" y1="37.5" x2="-1.62112e-06" y2="37.5" gradientUnits="userSpaceOnUse">
<stop stop-color="white"/>
<stop offset="1" stop-color="#FF935E"/>
</linearGradient>
<linearGradient id="paint2_linear_2173_367" x1="80.7646" y1="44.643" x2="4.9873" y2="44.643" gradientUnits="userSpaceOnUse">
<stop stop-color="white"/>
<stop offset="1" stop-color="#FF935E"/>
</linearGradient>
<linearGradient id="paint3_linear_2173_367" x1="80.7646" y1="30.3571" x2="4.9873" y2="30.3571" gradientUnits="userSpaceOnUse">
<stop stop-color="white"/>
<stop offset="1" stop-color="#FF935E"/>
</linearGradient>
<linearGradient id="paint4_linear_2173_367" x1="71.4189" y1="53.3382" x2="14.333" y2="53.3382" gradientUnits="userSpaceOnUse">
<stop stop-color="white"/>
<stop offset="1" stop-color="#FF935E"/>
</linearGradient>
<linearGradient id="paint5_linear_2173_367" x1="71.4189" y1="21.6619" x2="14.333" y2="21.6619" gradientUnits="userSpaceOnUse">
<stop stop-color="white"/>
<stop offset="1" stop-color="#FF935E"/>
</linearGradient>
<linearGradient id="paint6_linear_2173_367" x1="66.0088" y1="60.5834" x2="19.7432" y2="60.5834" gradientUnits="userSpaceOnUse">
<stop stop-color="white"/>
<stop offset="1" stop-color="#FF935E"/>
</linearGradient>
<linearGradient id="paint7_linear_2173_367" x1="66.0088" y1="14.4167" x2="19.7432" y2="14.4167" gradientUnits="userSpaceOnUse">
<stop stop-color="white"/>
<stop offset="1" stop-color="#FF935E"/>
</linearGradient>
<linearGradient id="paint8_linear_2173_367" x1="59.1221" y1="66.7454" x2="26.6299" y2="66.7454" gradientUnits="userSpaceOnUse">
<stop stop-color="white"/>
<stop offset="1" stop-color="#FF935E"/>
</linearGradient>
<linearGradient id="paint9_linear_2173_367" x1="59.1221" y1="8.25463" x2="26.6299" y2="8.25463" gradientUnits="userSpaceOnUse">
<stop stop-color="white"/>
<stop offset="1" stop-color="#FF935E"/>
</linearGradient>
</defs>
</svg>
