<svg width="78" height="67" viewBox="0 0 78 67" fill="none" xmlns="http://www.w3.org/2000/svg">
<path d="M11.926 9.56913L20.715 0.600186C21.0912 0.216315 21.606 2.58727e-08 22.1435 7.1786e-08L75.4702 4.62732e-06C76.5748 4.72168e-06 77.4702 0.895435 77.4702 2V44.5267C77.4702 45.0545 77.2616 45.5608 76.8899 45.9354L66.9225 55.9811L56.6134 66.3309C56.2381 66.7076 55.7282 66.9194 55.1964 66.9194H2.46528C1.36071 66.9194 0.465287 66.024 0.465276 64.9195L0.464852 22.3536C0.464847 21.8385 0.663551 21.3433 1.01958 20.9711L11.926 9.56913Z" fill="url(#paint0_linear_104_893)"/>
<g clip-path="url(#clip0_104_893)">
<path d="M39.4648 21.4453C35.0482 21.4453 31.4648 24.8559 31.4648 29.0564C31.4648 33.8898 36.7982 41.5492 38.7565 44.1948C38.8378 44.3064 38.9443 44.3973 39.0674 44.46C39.1905 44.5226 39.3267 44.5553 39.4648 44.5553C39.603 44.5553 39.7391 44.5226 39.8622 44.46C39.9853 44.3973 40.0919 44.3064 40.1732 44.1948C42.1315 41.5503 47.4648 33.8936 47.4648 29.0564C47.4648 24.8559 43.8815 21.4453 39.4648 21.4453Z" stroke="white" stroke-width="1.18519" stroke-linecap="round" stroke-linejoin="round"/>
<path d="M39.4655 32.1107C40.9383 32.1107 42.1322 30.9168 42.1322 29.444C42.1322 27.9713 40.9383 26.7773 39.4655 26.7773C37.9927 26.7773 36.7988 27.9713 36.7988 29.444C36.7988 30.9168 37.9927 32.1107 39.4655 32.1107Z" stroke="white" stroke-width="1.18519" stroke-linecap="round" stroke-linejoin="round"/>
</g>
<defs>
<linearGradient id="paint0_linear_104_893" x1="11.2777" y1="2.30533e-07" x2="73.3629" y2="6.9411" gradientUnits="userSpaceOnUse">
<stop stop-color="#FF5100"/>
<stop offset="1" stop-color="#FE6E00"/>
</linearGradient>
<clipPath id="clip0_104_893">
<rect width="24" height="24" fill="white" transform="translate(27.4648 21)"/>
</clipPath>
</defs>
</svg>
