<svg width="78" height="67" viewBox="0 0 78 67" fill="none" xmlns="http://www.w3.org/2000/svg">
<path d="M11.926 9.56913L20.715 0.600186C21.0912 0.216315 21.606 2.58727e-08 22.1435 7.1786e-08L75.4702 4.62732e-06C76.5748 4.72168e-06 77.4702 0.895435 77.4702 2V44.5267C77.4702 45.0545 77.2616 45.5608 76.8899 45.9354L66.9225 55.9811L56.6134 66.3309C56.2381 66.7076 55.7282 66.9194 55.1964 66.9194H2.46528C1.36071 66.9194 0.465287 66.024 0.465276 64.9195L0.464852 22.3536C0.464847 21.8386 0.663551 21.3433 1.01958 20.9711L11.926 9.56913Z" fill="url(#paint0_linear_264_31794)"/>
<path d="M50.2695 21.1689C51.3394 21.169 52.3833 21.6007 53.1338 22.3525C53.2317 22.4497 53.3216 22.5457 53.4072 22.6533C53.829 23.1664 54.1179 23.7771 54.2461 24.4229C54.2962 24.6802 54.3223 24.9454 54.3223 25.208V41.1309C54.3223 41.6892 54.2099 42.2265 53.9902 42.7295L53.9639 42.793C53.7636 43.2351 53.4853 43.6364 53.1348 43.9854C53.0451 44.0747 52.9551 44.1564 52.8584 44.2344C52.1352 44.8381 51.2181 45.1689 50.2695 45.1689H27.5176C26.5751 45.1689 25.6569 44.8396 24.9316 44.2412C24.8348 44.1597 24.7437 44.0759 24.6523 43.9854C24.2897 43.6241 23.9955 43.1926 23.8018 42.7373C23.5779 42.2245 23.4649 41.6848 23.4648 41.1309V25.208C23.4648 24.9418 23.4916 24.6778 23.5439 24.4238C23.6692 23.7773 23.957 23.1681 24.377 22.6572C24.4659 22.5461 24.5554 22.4489 24.6523 22.3525C25.418 21.5893 26.4357 21.1689 27.5176 21.1689H50.2695ZM41.1729 35.5732C40.5397 36.1214 39.7306 36.4238 38.8936 36.4238C38.0595 36.4238 37.2508 36.1214 36.6172 35.5732L35.5615 34.6582L25.9219 43.0283L26.3037 43.249C26.6682 43.4587 27.0881 43.5693 27.5176 43.5693H50.2695C50.6987 43.5693 51.1188 43.4587 51.4834 43.249L51.8652 43.0293L42.2295 34.6572L41.1729 35.5732ZM43.2939 33.7344L52.627 41.8379L52.71 41.2695C52.716 41.2271 52.7168 41.179 52.7168 41.1309V25.541L43.2939 33.7344ZM25.0693 41.1309C25.0693 41.1799 25.0706 41.2282 25.0771 41.2715L25.1641 41.835L34.4932 33.7295L25.0693 25.5371V41.1309ZM27.5176 22.7676C26.8655 22.7676 26.2505 23.0219 25.7871 23.4834C25.6939 23.577 25.6207 23.6626 25.5635 23.7461L25.4053 23.9766L37.5371 34.5205C37.9159 34.8476 38.3975 35.0273 38.8936 35.0273C39.3944 35.0273 39.8767 34.8475 40.251 34.5205L52.3945 23.9736L52.2207 23.7402C52.1549 23.652 52.079 23.564 52 23.4844C51.5418 23.0225 50.9272 22.7677 50.2695 22.7676H27.5176Z" fill="white"/>
<path d="M50.2695 21.1689C51.3394 21.169 52.3833 21.6007 53.1338 22.3525C53.2317 22.4497 53.3216 22.5457 53.4072 22.6533C53.829 23.1664 54.1179 23.7771 54.2461 24.4229C54.2962 24.6802 54.3223 24.9454 54.3223 25.208V41.1309C54.3223 41.6892 54.2099 42.2265 53.9902 42.7295L53.9639 42.793C53.7636 43.2351 53.4853 43.6364 53.1348 43.9854C53.0451 44.0747 52.9551 44.1564 52.8584 44.2344C52.1352 44.8381 51.2181 45.1689 50.2695 45.1689H27.5176C26.5751 45.1689 25.6569 44.8396 24.9316 44.2412C24.8348 44.1597 24.7437 44.0759 24.6523 43.9854C24.2897 43.6241 23.9955 43.1926 23.8018 42.7373C23.5779 42.2245 23.4649 41.6848 23.4648 41.1309V25.208C23.4648 24.9418 23.4916 24.6778 23.5439 24.4238C23.6692 23.7773 23.957 23.1681 24.377 22.6572C24.4659 22.5461 24.5554 22.4489 24.6523 22.3525C25.418 21.5893 26.4357 21.1689 27.5176 21.1689H50.2695ZM41.1729 35.5732C40.5397 36.1214 39.7306 36.4238 38.8936 36.4238C38.0595 36.4238 37.2508 36.1214 36.6172 35.5732L35.5615 34.6582L25.9219 43.0283L26.3037 43.249C26.6682 43.4587 27.0881 43.5693 27.5176 43.5693H50.2695C50.6987 43.5693 51.1188 43.4587 51.4834 43.249L51.8652 43.0293L42.2295 34.6572L41.1729 35.5732ZM43.2939 33.7344L52.627 41.8379L52.71 41.2695C52.716 41.2271 52.7168 41.179 52.7168 41.1309V25.541L43.2939 33.7344ZM25.0693 41.1309C25.0693 41.1799 25.0706 41.2282 25.0771 41.2715L25.1641 41.835L34.4932 33.7295L25.0693 25.5371V41.1309ZM27.5176 22.7676C26.8655 22.7676 26.2505 23.0219 25.7871 23.4834C25.6939 23.577 25.6207 23.6626 25.5635 23.7461L25.4053 23.9766L37.5371 34.5205C37.9159 34.8476 38.3975 35.0273 38.8936 35.0273C39.3944 35.0273 39.8767 34.8475 40.251 34.5205L52.3945 23.9736L52.2207 23.7402C52.1549 23.652 52.079 23.564 52 23.4844C51.5418 23.0225 50.9272 22.7677 50.2695 22.7676H27.5176Z" stroke="white"/>
<defs>
<linearGradient id="paint0_linear_264_31794" x1="11.2777" y1="2.30533e-07" x2="73.3629" y2="6.9411" gradientUnits="userSpaceOnUse">
<stop stop-color="#FF5100"/>
<stop offset="1" stop-color="#FE6E00"/>
</linearGradient>
</defs>
</svg>
