<svg width="78" height="68" viewBox="0 0 78 68" fill="none" xmlns="http://www.w3.org/2000/svg">
<path d="M11.926 10.4002L20.715 1.43124C21.0912 1.04737 21.606 0.831055 22.1435 0.831055L75.4702 0.831059C76.5748 0.831059 77.4702 1.72649 77.4702 2.83106V45.3578C77.4702 45.8855 77.2616 46.3919 76.8899 46.7665L66.9225 56.8122L56.6134 67.1619C56.2381 67.5387 55.7282 67.7505 55.1964 67.7505H2.46528C1.36071 67.7505 0.465287 66.8551 0.465276 65.7505L0.464852 23.1847C0.464847 22.6696 0.663551 22.1744 1.01958 21.8022L11.926 10.4002Z" fill="url(#paint0_linear_264_31809)"/>
<path fill-rule="evenodd" clip-rule="evenodd" d="M29.7385 23.0294C31.3436 21.4591 33.9866 21.7386 35.3306 23.505L36.9934 25.6901C38.087 27.1273 37.9905 29.136 36.6923 30.406L36.3774 30.714C36.3637 30.7532 36.3304 30.8768 36.3674 31.1115C36.4508 31.6401 36.8995 32.7615 38.7831 34.6041C40.666 36.4461 41.8138 36.8872 42.3588 36.9695C42.6058 37.0067 42.735 36.9719 42.775 36.9582L43.3129 36.4319C44.467 35.303 46.2403 35.0919 47.6692 35.8561L50.1883 37.2035C52.3454 38.3571 52.8905 41.2419 51.1231 42.9708L49.25 44.8032C48.6598 45.3804 47.8662 45.8619 46.8975 45.9507C44.5122 46.1696 38.9501 45.8904 33.106 40.1733C27.6498 34.8358 26.6028 30.1812 26.4703 27.8879C26.4033 26.7282 26.9603 25.7471 27.6688 25.054L29.7385 23.0294ZM33.7473 24.6711C33.0792 23.7932 31.8341 23.7234 31.1331 24.4093L29.0634 26.4339C28.6284 26.8595 28.4191 27.3285 28.445 27.7775C28.5503 29.5996 29.3959 33.7997 34.5006 38.7934C39.856 44.0323 44.8023 44.1886 46.714 44.0133C47.1045 43.9774 47.493 43.7778 47.8555 43.4233L49.7285 41.5909C50.49 40.8461 50.322 39.4898 49.2437 38.913L46.7245 37.5658C46.0288 37.1938 45.2138 37.3165 44.7075 37.8118L44.107 38.3993L43.4097 37.7093C44.107 38.3993 44.1052 38.4011 44.1052 38.4011L44.1032 38.4029L44.0991 38.4068L44.0905 38.415L44.0713 38.4327C44.0574 38.4451 44.0415 38.4587 44.0237 38.4734C43.9878 38.5026 43.9438 38.5355 43.8911 38.5703C43.7855 38.6398 43.6462 38.7156 43.4709 38.7797C43.1138 38.9106 42.6428 38.9809 42.059 38.8928C40.916 38.7204 39.402 37.9537 37.3885 35.9841C35.3757 34.0151 34.5899 32.5323 34.4129 31.4098C34.3224 30.8358 34.3946 30.3723 34.5292 30.0207C34.5952 29.8484 34.673 29.7113 34.7444 29.6077C34.78 29.556 34.8139 29.5128 34.8437 29.4777C34.8587 29.4601 34.8727 29.4446 34.8854 29.431L34.9035 29.4121L34.9118 29.4037L34.9157 29.3998L34.9177 29.3979C34.9177 29.3979 34.9195 29.3961 35.6169 30.086L34.9195 29.3961L35.2977 29.0261C35.8629 28.4732 35.942 27.5555 35.41 26.8563L33.7473 24.6711Z" fill="white"/>
<defs>
<linearGradient id="paint0_linear_264_31809" x1="11.2777" y1="0.831055" x2="73.3629" y2="7.77215" gradientUnits="userSpaceOnUse">
<stop stop-color="#FF5100"/>
<stop offset="1" stop-color="#FE6E00"/>
</linearGradient>
</defs>
</svg>
