<svg width="261" height="249" viewBox="0 0 261 249" fill="none" xmlns="http://www.w3.org/2000/svg">
<path d="M153.898 17.0624V11.9712C153.898 6.23423 149.247 1.5835 143.51 1.5835H18.5479C12.8109 1.5835 8.16016 6.23422 8.16016 11.9712V236.681C8.16016 242.418 12.8109 247.069 18.5479 247.069H143.51C149.247 247.069 153.898 242.418 153.898 236.681V219.093M153.898 119.519V155.304" stroke="#282828" stroke-width="2"/>
<path d="M100.075 180.947L58.2132 167.046C51.7887 165.141 45.054 165.816 39.2985 168.642C33.4977 171.49 35.1944 179.158 40.9508 182.095C141.474 233.383 112.384 232.823 204.882 201.638C207.698 200.689 210.881 200.971 213.455 202.457L227.681 210.67" stroke="#282828" stroke-width="2"/>
<path d="M162.16 185.947H111.111C110.496 185.947 109.883 186.016 109.27 186.066C105.8 186.35 102.416 184.728 100.473 181.781C98.3598 178.575 98.3598 174.419 100.473 171.213C102.416 168.266 105.8 166.644 109.27 166.928C109.883 166.978 110.496 167.047 111.111 167.047H134.138C136.949 167.047 139.611 165.875 141.705 163.999C152.529 154.305 166.445 148.666 181.059 148.148H198.69C205.712 148.148 212.609 149.996 218.69 153.507L236.91 164.026" stroke="#282828" stroke-width="2"/>
<path d="M227.009 216.553L237.576 161.879C238.107 159.134 241.219 157.766 243.6 159.231L257.203 167.603C258.513 168.409 259.245 169.894 259.086 171.423L253.111 228.867C252.807 231.793 249.554 233.401 247.044 231.864L228.848 220.724C227.425 219.853 226.692 218.191 227.009 216.553Z" stroke="#282828" stroke-width="2"/>
<path d="M65.687 47.6963L95.1655 18.2178" stroke="#282828" stroke-width="2"/>
<path d="M65.687 89.8086L95.1655 119.287" stroke="#282828" stroke-width="2"/>
<path d="M242.558 89.8086L213.08 119.287" stroke="#282828" stroke-width="2"/>
<path d="M242.558 47.6963L213.08 18.2178" stroke="#282828" stroke-width="2"/>
<rect x="65.2861" y="18.4978" width="177.272" height="100.789" rx="10.3877" stroke="#282828" stroke-width="2"/>
<path d="M123.462 62.8181H184.716" stroke="#282828" stroke-width="2"/>
<path d="M123.462 75.0691H184.716" stroke="#282828" stroke-width="2"/>
<rect x="56.8137" y="222.232" width="48.4303" height="7.2289" rx="3.61445" stroke="#282828" stroke-width="2"/>
<path d="M172.466 92.2924V92.2924C168.706 92.2924 165.262 90.187 163.548 86.8403L142.964 46.6413C142.273 45.2921 140.885 44.4434 139.369 44.4434V44.4434C137.139 44.4434 135.33 46.2516 135.33 48.4822V93.4466" stroke="#282828" stroke-width="2"/>
<path d="M172.847 93.4466V44.4434" stroke="#282828" stroke-width="2"/>
</svg>
