<svg width="250" height="252" viewBox="0 0 250 252" fill="none" xmlns="http://www.w3.org/2000/svg">
<path d="M172.883 10V124.183V241.231C172.883 246.201 168.854 250.231 163.883 250.231H10C5.02944 250.231 1 246.201 1 241.231V10C1 5.02944 5.02945 1 10 1H163.883C168.854 1 172.883 5.02944 172.883 10Z" stroke="#282828" stroke-width="2"/>
<path d="M172.915 94.7128H208.798C209.296 94.7128 209.777 94.5267 210.145 94.1908L225.839 79.8838C226.254 79.5048 226.491 78.9683 226.491 78.4058V62.3353M172.915 123.263H233.541M172.915 150.755H208.782C209.29 150.755 209.779 150.949 210.15 151.296L225.859 166.024C226.262 166.402 226.491 166.93 226.491 167.483V182.83M104.36 221.979H69.1758C68.0712 221.979 67.1758 222.874 67.1758 223.979V225.593C67.1758 226.698 68.0712 227.593 69.1758 227.593H104.36C105.464 227.593 106.36 226.698 106.36 225.593V223.979C106.36 222.874 105.464 221.979 104.36 221.979Z" stroke="#282828" stroke-width="2" stroke-linecap="round" stroke-linejoin="round"/>
<path d="M135.547 155.337H38.2812C34.9675 155.337 32.2812 158.024 32.2812 161.337V191.281C32.2812 194.595 34.9675 197.281 38.2812 197.281H135.547C138.861 197.281 141.547 194.595 141.547 191.281V161.337C141.547 158.024 138.861 155.337 135.547 155.337Z" stroke="#282828" stroke-width="2"/>
<path d="M123.463 128.55H49.6609C46.6813 128.55 44.2659 126.134 44.2659 123.155C44.2659 103.291 60.3687 87.188 80.2325 87.188H92.8915C112.755 87.188 128.858 103.291 128.858 123.155C128.858 126.134 126.443 128.55 123.463 128.55Z" stroke="#282828" stroke-width="2"/>
<circle cx="86.9424" cy="50.478" r="26.2588" stroke="#282828" stroke-width="2"/>
<circle cx="241.285" cy="123.136" r="7.6012" stroke="#282828" stroke-width="2"/>
<circle cx="226.285" cy="54.1356" r="7.6012" stroke="#282828" stroke-width="2"/>
<circle cx="226.285" cy="191.136" r="7.6012" stroke="#282828" stroke-width="2"/>
<circle cx="53.081" cy="174.933" r="6.08096" fill="#282828" stroke="#282828" stroke-width="2"/>
<circle cx="53.081" cy="175.933" r="6.08096" fill="#282828" stroke="#282828" stroke-width="2"/>
<circle cx="86.9423" cy="175.933" r="6.08096" fill="#282828" stroke="#282828" stroke-width="2"/>
<circle cx="120.804" cy="175.933" r="6.08096" fill="#282828" stroke="#282828" stroke-width="2"/>
</svg>
