<svg width="242" height="241" viewBox="0 0 242 241" fill="none" xmlns="http://www.w3.org/2000/svg">
<rect x="78.1494" y="125.921" width="162.601" height="113.114" rx="6.38926" stroke="#282828" stroke-width="2"/>
<circle cx="108.548" cy="209.342" r="16.2601" stroke="#282828" stroke-width="2"/>
<circle cx="121.557" cy="209.342" r="16.2601" stroke="#282828" stroke-width="2"/>
<line x1="78.1494" y1="153.199" x2="240.75" y2="153.199" stroke="#282828" stroke-width="2"/>
<line x1="78.1494" y1="174.408" x2="240.75" y2="174.408" stroke="#282828" stroke-width="2"/>
<rect x="148.845" y="207.221" width="21.2088" height="7.0696" rx="3.5348" stroke="#282828" stroke-width="2"/>
<rect x="177.124" y="207.221" width="21.2088" height="7.0696" rx="3.5348" stroke="#282828" stroke-width="2"/>
<rect x="205.402" y="207.221" width="21.2088" height="7.0696" rx="3.5348" stroke="#282828" stroke-width="2"/>
<path d="M146.865 10.0344C151.109 10.0344 154.548 13.4736 154.548 17.7174V108.646C154.548 112.89 151.109 116.329 146.865 116.329H9.43325C5.18947 116.329 1.75024 112.89 1.75024 108.646V17.7174C1.75024 13.4736 5.18947 10.0344 9.43325 10.0344H146.865Z" stroke="#282828" stroke-width="2"/>
<path d="M1.75024 36.6086H154.548" stroke="#282828" stroke-width="2"/>
<path d="M134.618 63.1816H114.688" stroke="#282828" stroke-width="2"/>
<path d="M74.828 63.1816H21.6809" stroke="#282828" stroke-width="2"/>
<path d="M41.6113 83.1123H21.6809" stroke="#282828" stroke-width="2"/>
<path d="M18.2856 135.622L39.3843 131.314L41.3063 150.778L18.2856 135.622Z" stroke="#282828" stroke-width="2"/>
<path d="M30.1446 143.678C18.4971 182.925 42.79 191.588 58.9213 191.175" stroke="#282828" stroke-width="2"/>
<path d="M220.612 99.2009L201.067 108.24L194.726 89.7371L220.612 99.2009Z" stroke="#282828" stroke-width="2"/>
<path d="M207.22 94.084C209.541 53.2105 183.908 50.3589 168.303 54.4666" stroke="#282828" stroke-width="2"/>
</svg>
