<svg width="275" height="250" viewBox="0 0 275 250" fill="none" xmlns="http://www.w3.org/2000/svg">
<path fill-rule="evenodd" clip-rule="evenodd" d="M160.575 193.731L157.424 189.033C156.983 188.379 156.301 187.927 155.527 187.775C154.753 187.623 153.951 187.784 153.295 188.222C152.496 188.762 152.357 189.403 152.379 189.84C152.396 190.189 152.586 190.497 152.78 190.787L157.454 197.75C157.726 198.155 158.093 198.486 158.524 198.716C158.954 198.946 159.434 199.066 159.922 199.067C160.601 199.067 161.265 198.834 161.798 198.4L175.86 186.982C176.293 186.565 176.62 185.725 176.293 184.803C176.03 184.059 175.076 183.799 174.291 183.717C173.507 183.635 172.721 183.868 172.108 184.365L160.575 193.731Z" stroke="#282828" stroke-width="2"/>
<path fill-rule="evenodd" clip-rule="evenodd" d="M25.5974 190.205C25.5974 188.729 26.7976 187.527 28.2751 187.527V187.527C29.582 187.527 30.4013 186.112 29.7473 184.981V184.981C29.0095 183.699 29.4486 182.062 30.7261 181.324C32.0074 180.581 33.6448 181.022 34.386 182.303V182.303C35.0387 183.435 36.6736 183.434 37.3281 182.303V182.303C38.0659 181.022 39.7033 180.586 40.9846 181.324C42.2659 182.062 42.705 183.699 41.9672 184.981V184.981C41.3133 186.112 42.129 187.527 43.4355 187.527V187.527C44.1456 187.527 44.8267 187.809 45.3288 188.311C45.831 188.813 46.1131 189.494 46.1132 190.205C46.1132 191.685 44.9165 192.882 43.4355 192.882V192.882C42.1285 192.882 41.3138 194.301 41.9672 195.433V195.433C42.3214 196.048 42.4169 196.779 42.2327 197.464C42.0485 198.15 41.5995 198.735 40.9846 199.09C40.5786 199.324 40.1182 199.448 39.6493 199.449C39.179 199.449 38.7169 199.326 38.3095 199.091C37.9021 198.856 37.5636 198.518 37.3281 198.11V198.11C36.6741 196.978 35.0383 196.977 34.386 198.11V198.11C34.0296 198.725 33.4443 199.173 32.7583 199.356C32.0723 199.54 31.3416 199.444 30.7261 199.09C29.4482 198.351 29.0095 196.711 29.7473 195.433V195.433C30.4013 194.299 29.5838 192.882 28.2751 192.882V192.882C27.9235 192.882 27.5753 192.813 27.2505 192.678C26.9256 192.544 26.6304 192.346 26.3817 192.098C26.1331 191.849 25.9358 191.554 25.8012 191.229C25.6667 190.904 25.5974 190.556 25.5974 190.205Z" stroke="#282828" stroke-width="2"/>
<path fill-rule="evenodd" clip-rule="evenodd" d="M54.3201 190.205C54.3201 188.729 55.5203 187.527 56.9978 187.527V187.527C58.3047 187.527 59.1239 186.112 58.47 184.981V184.981C57.7322 183.699 58.1713 182.062 59.4487 181.324C60.7301 180.582 62.3674 181.022 63.1087 182.303V182.303C63.7614 183.435 65.3963 183.434 66.0507 182.303V182.303C66.7885 181.022 68.4259 180.586 69.7072 181.324C70.9885 182.062 71.4276 183.699 70.6898 184.981V184.981C70.0359 186.112 70.8517 187.527 72.1582 187.527V187.527C72.8683 187.527 73.5493 187.81 74.0515 188.312C74.5536 188.814 74.8358 189.495 74.8359 190.205C74.8359 191.685 73.6391 192.882 72.1582 192.882V192.882C70.8511 192.882 70.0365 194.301 70.6898 195.433V195.433C71.0441 196.048 71.1396 196.779 70.9554 197.465C70.7711 198.15 70.3222 198.735 69.7072 199.09C69.3012 199.324 68.8409 199.448 68.372 199.45C67.9016 199.45 67.4396 199.326 67.0322 199.091C66.6247 198.856 66.2863 198.518 66.0507 198.111V198.111C65.3967 196.979 63.7609 196.978 63.1087 198.111V198.111C62.7523 198.725 62.167 199.173 61.481 199.356C60.795 199.54 60.0642 199.444 59.4487 199.09C58.1709 198.352 57.7322 196.711 58.47 195.433V195.433C59.124 194.299 58.3064 192.882 56.9978 192.882V192.882C56.6462 192.882 56.298 192.813 55.9731 192.678C55.6482 192.544 55.353 192.347 55.1044 192.098C54.8557 191.849 54.6585 191.554 54.5239 191.229C54.3893 190.905 54.3201 190.556 54.3201 190.205Z" stroke="#282828" stroke-width="2"/>
<path fill-rule="evenodd" clip-rule="evenodd" d="M83.0415 190.205C83.0415 188.729 84.2417 187.527 85.7192 187.527V187.527C87.0261 187.527 87.8454 186.112 87.1914 184.981V184.981C86.4536 183.699 86.8927 182.062 88.1702 181.324C89.4515 180.582 91.0889 181.022 91.8301 182.303V182.303C92.4828 183.435 94.1177 183.434 94.7722 182.303V182.303C95.51 181.022 97.1474 180.586 98.4287 181.324C99.71 182.062 100.149 183.699 99.4112 184.981V184.981C98.7574 186.112 99.5731 187.527 100.88 187.527V187.527C101.59 187.527 102.271 187.81 102.773 188.312C103.275 188.814 103.557 189.495 103.557 190.205C103.557 191.685 102.361 192.882 100.88 192.882V192.882C99.5726 192.882 98.7579 194.301 99.4112 195.433V195.433C99.7655 196.048 99.861 196.779 99.6768 197.465C99.4925 198.15 99.0436 198.735 98.4287 199.09C98.0227 199.324 97.5623 199.448 97.0934 199.45C96.6231 199.45 96.161 199.326 95.7536 199.091C95.3462 198.856 95.0077 198.518 94.7722 198.111V198.111C94.1181 196.979 92.4823 196.978 91.8301 198.111V198.111C91.4737 198.725 90.8884 199.173 90.2024 199.356C89.5164 199.54 88.7857 199.444 88.1702 199.09C86.8923 198.352 86.4536 196.711 87.1914 195.433V195.433C87.8454 194.299 87.0279 192.882 85.7192 192.882V192.882C85.3676 192.882 85.0194 192.813 84.6945 192.678C84.3697 192.544 84.0745 192.347 83.8258 192.098C83.5772 191.849 83.3799 191.554 83.2453 191.229C83.1108 190.905 83.0415 190.556 83.0415 190.205Z" stroke="#282828" stroke-width="2"/>
<path fill-rule="evenodd" clip-rule="evenodd" d="M111.764 190.205C111.764 188.729 112.964 187.527 114.442 187.527V187.527C115.749 187.527 116.568 186.112 115.914 184.981V184.981C115.176 183.699 115.615 182.062 116.893 181.324C118.174 180.582 119.812 181.022 120.553 182.303V182.303C121.205 183.435 122.84 183.434 123.495 182.303V182.303C124.233 181.022 125.87 180.586 127.151 181.324C128.433 182.062 128.872 183.699 128.134 184.981V184.981C127.48 186.112 128.296 187.527 129.602 187.527V187.527C130.312 187.527 130.993 187.81 131.496 188.312C131.998 188.814 132.28 189.495 132.28 190.205C132.28 191.685 131.083 192.882 129.602 192.882V192.882C128.295 192.882 127.481 194.301 128.134 195.433V195.433C128.488 196.048 128.584 196.779 128.399 197.465C128.215 198.15 127.766 198.735 127.151 199.09C126.745 199.324 126.285 199.448 125.816 199.45C125.346 199.45 124.884 199.326 124.476 199.091C124.069 198.856 123.73 198.518 123.495 198.111V198.111C122.841 196.979 121.205 196.978 120.553 198.111V198.111C120.196 198.725 119.611 199.173 118.925 199.356C118.239 199.54 117.508 199.444 116.893 199.09C115.615 198.352 115.176 196.711 115.914 195.433V195.433C116.568 194.299 115.751 192.882 114.442 192.882V192.882C114.09 192.882 113.742 192.813 113.417 192.678C113.092 192.544 112.797 192.347 112.548 192.098C112.3 191.849 112.103 191.554 111.968 191.229C111.833 190.905 111.764 190.556 111.764 190.205Z" stroke="#282828" stroke-width="2"/>
<path d="M6.22144 152.019C6.22144 148.491 9.082 145.63 12.6107 145.63H193.593C197.121 145.63 199.982 148.491 199.982 152.019V230.422C199.982 233.951 197.121 236.812 193.593 236.812H12.6107C9.08199 236.812 6.22144 233.951 6.22144 230.422V152.019Z" stroke="#282828" stroke-width="2"/>
<mask id="path-7-outside-1_2172_18708" maskUnits="userSpaceOnUse" x="199.029" y="180.523" width="28" height="21" fill="black">
<rect fill="white" x="199.029" y="180.523" width="28" height="21"/>
<path d="M217.121 183.522C221.373 183.522 224.819 186.97 224.819 191.222C224.819 195.473 221.372 198.92 217.121 198.92H202.029C201.477 198.92 201.029 198.472 201.029 197.92C201.029 197.368 201.477 196.92 202.029 196.92H217.121L217.414 196.913C220.328 196.766 222.664 194.429 222.812 191.515L222.819 191.222C222.819 188.173 220.425 185.683 217.414 185.531L217.121 185.523H202.03C201.477 185.523 201.029 185.075 201.029 184.522C201.029 183.97 201.477 183.522 202.03 183.522H217.121Z"/>
</mask>
<path d="M217.121 183.522L217.121 181.522H217.121V183.522ZM224.819 191.222L226.819 191.222V191.222H224.819ZM217.121 198.92V200.92H217.121L217.121 198.92ZM217.121 196.92V198.92H217.144L217.168 198.92L217.121 196.92ZM217.414 196.913L217.46 198.913L217.488 198.912L217.515 198.911L217.414 196.913ZM222.812 191.515L224.81 191.616L224.811 191.589L224.812 191.562L222.812 191.515ZM222.819 191.222L224.819 191.269L224.819 191.245V191.222H222.819ZM217.414 185.531L217.515 183.533L217.491 183.532L217.467 183.531L217.414 185.531ZM217.121 185.523L217.174 183.523L217.148 183.523H217.121V185.523ZM217.121 183.522L217.121 185.522C220.267 185.522 222.819 188.074 222.819 191.222H224.819H226.819C226.819 185.866 222.478 181.522 217.121 181.522L217.121 183.522ZM224.819 191.222L222.819 191.222C222.819 194.369 220.268 196.92 217.121 196.92L217.121 198.92L217.121 200.92C222.477 200.92 226.818 196.578 226.819 191.222L224.819 191.222ZM217.121 198.92V196.92H202.029V198.92V200.92H217.121V198.92ZM202.029 196.92V198.92H217.121V196.92V194.92H202.029V196.92ZM217.121 196.92L217.168 198.92L217.46 198.913L217.414 196.913L217.367 194.914L217.074 194.921L217.121 196.92ZM217.414 196.913L217.515 198.911C221.454 198.711 224.61 195.555 224.81 191.616L222.812 191.515L220.815 191.413C220.719 193.302 219.201 194.82 217.313 194.916L217.414 196.913ZM222.812 191.515L224.812 191.562L224.819 191.269L222.819 191.222L220.82 191.175L220.813 191.468L222.812 191.515ZM222.819 191.222H224.819C224.819 187.102 221.585 183.74 217.515 183.533L217.414 185.531L217.312 187.528C219.265 187.627 220.819 189.244 220.819 191.222H222.819ZM217.414 185.531L217.467 183.531L217.174 183.523L217.121 185.523L217.068 187.522L217.361 187.53L217.414 185.531ZM217.121 185.523V183.523H202.03V185.523V187.523H217.121V185.523ZM202.03 183.522V185.522H217.121V183.522V181.522H202.03V183.522ZM201.029 184.522H203.029C203.029 185.074 202.582 185.522 202.03 185.522V183.522V181.522C200.372 181.522 199.029 182.865 199.029 184.522H201.029ZM202.03 185.523V183.523C202.582 183.523 203.029 183.97 203.029 184.522H201.029H199.029C199.029 186.179 200.372 187.523 202.03 187.523V185.523ZM201.029 197.92H203.029C203.029 198.472 202.581 198.92 202.029 198.92V196.92V194.92C200.372 194.92 199.029 196.263 199.029 197.92H201.029ZM202.029 198.92V196.92C202.581 196.92 203.029 197.368 203.029 197.92H201.029H199.029C199.029 199.577 200.372 200.92 202.029 200.92V198.92Z" fill="#282828" mask="url(#path-7-outside-1_2172_18708)"/>
<mask id="path-9-outside-2_2172_18708" maskUnits="userSpaceOnUse" x="202.789" y="155.028" width="72" height="73" fill="black">
<rect fill="white" x="202.789" y="155.028" width="72" height="73"/>
<path d="M238.63 157.039C257.107 157.507 271.941 172.632 271.941 191.221L271.93 192.103C271.462 210.58 256.338 225.414 237.749 225.414L236.866 225.403C222.675 225.043 210.635 216.037 205.812 203.456C205.726 203.232 205.904 203 206.143 203C207.13 203 208.009 203.608 208.416 204.506C213.475 215.658 224.706 223.414 237.749 223.414C255.528 223.414 269.941 209.001 269.941 191.221C269.941 173.442 255.528 159.028 237.749 159.028C224.705 159.028 213.473 166.786 208.415 177.938C208.008 178.836 207.129 179.444 206.143 179.444C205.903 179.444 205.725 179.208 205.811 178.984C210.733 166.144 223.176 157.028 237.749 157.028L238.63 157.039Z"/>
</mask>
<path d="M238.63 157.039L238.681 155.039L238.668 155.039L238.655 155.039L238.63 157.039ZM271.941 191.221L273.941 191.246L273.941 191.234V191.221H271.941ZM271.93 192.103L273.93 192.154L273.93 192.141L273.93 192.128L271.93 192.103ZM237.749 225.414L237.724 227.414L237.736 227.414H237.749L237.749 225.414ZM236.866 225.403L236.815 227.402L236.828 227.403L236.841 227.403L236.866 225.403ZM237.749 223.414L237.749 225.414H237.749L237.749 223.414ZM269.941 191.221L271.941 191.221V191.221H269.941ZM237.749 159.028L237.749 157.028L237.749 157.028L237.749 159.028ZM237.749 157.028L237.773 155.028L237.761 155.028H237.749L237.749 157.028ZM205.811 178.984L203.943 178.268L205.811 178.984ZM208.415 177.938L206.594 177.112L208.415 177.938ZM208.416 204.506L206.595 205.333L208.416 204.506ZM205.812 203.456L203.944 204.172L205.812 203.456ZM238.63 157.039L238.58 159.038C255.975 159.479 269.941 173.72 269.941 191.221H271.941H273.941C273.941 171.545 258.239 155.535 238.681 155.039L238.63 157.039ZM271.941 191.221L269.941 191.197L269.93 192.079L271.93 192.103L273.93 192.128L273.941 191.246L271.941 191.221ZM271.93 192.103L269.931 192.053C269.49 209.447 255.25 223.414 237.749 223.414L237.749 225.414L237.749 227.414C257.425 227.414 273.434 211.712 273.93 192.154L271.93 192.103ZM237.749 225.414L237.773 223.414L236.89 223.403L236.866 225.403L236.841 227.403L237.724 227.414L237.749 225.414ZM236.866 225.403L236.916 223.404C223.56 223.065 212.221 214.588 207.679 202.74L205.812 203.456L203.944 204.172C209.048 217.485 221.789 227.022 236.815 227.402L236.866 225.403ZM208.416 204.506L206.595 205.333C211.966 217.172 223.893 225.414 237.749 225.414L237.749 223.414L237.749 221.414C225.519 221.414 214.984 214.143 210.238 203.68L208.416 204.506ZM237.749 223.414L237.749 225.414C256.633 225.414 271.941 210.105 271.941 191.221L269.941 191.221L267.941 191.221C267.941 207.896 254.423 221.414 237.749 221.414L237.749 223.414ZM269.941 191.221H271.941C271.941 172.337 256.633 157.028 237.749 157.028L237.749 159.028L237.749 161.028C254.423 161.028 267.941 174.546 267.941 191.221H269.941ZM237.749 159.028L237.749 157.028C223.892 157.028 211.964 165.271 206.594 177.112L208.415 177.938L210.236 178.764C214.982 168.3 225.519 161.028 237.749 161.028L237.749 159.028ZM205.811 178.984L207.678 179.7C212.314 167.608 224.032 159.028 237.749 159.028L237.749 157.028L237.749 155.028C222.321 155.028 209.153 164.681 203.943 178.268L205.811 178.984ZM237.749 157.028L237.724 159.028L238.606 159.039L238.63 157.039L238.655 155.039L237.773 155.028L237.749 157.028ZM206.143 179.444V177.444C207.158 177.444 208.146 178.479 207.678 179.7L205.811 178.984L203.943 178.268C203.303 179.937 204.649 181.444 206.143 181.444V179.444ZM208.415 177.938L206.594 177.112C206.486 177.35 206.287 177.444 206.143 177.444V179.444V181.444C207.972 181.444 209.529 180.323 210.236 178.764L208.415 177.938ZM206.143 203V205C206.287 205 206.487 205.095 206.595 205.333L208.416 204.506L210.238 203.68C209.53 202.121 207.972 201 206.143 201V203ZM205.812 203.456L207.679 202.74C208.152 203.973 207.146 205 206.143 205V203V201C204.662 201 203.301 202.492 203.944 204.172L205.812 203.456Z" fill="#282828" mask="url(#path-9-outside-2_2172_18708)"/>
<path d="M144.453 35.6606H77.9022C74.3735 35.6606 71.5129 38.5212 71.5129 42.0499V118.242C71.5129 121.771 74.3735 124.632 77.9022 124.632H183.66C187.188 124.632 190.049 121.771 190.049 118.242V71.8664" stroke="#282828" stroke-width="2"/>
<ellipse cx="109.201" cy="65.7078" rx="16.4127" ry="17.1587" stroke="#282828" stroke-width="2"/>
<path d="M111.616 83.323H107.394C95.9706 83.323 86.71 92.5836 86.71 104.007C86.71 107.325 89.3994 110.014 92.7171 110.014H126.294C129.611 110.014 132.301 107.325 132.301 104.007C132.301 92.5836 123.04 83.323 111.616 83.323Z" stroke="#282828" stroke-width="2"/>
<path d="M147.498 92.8567H165.734" stroke="#282828" stroke-width="2" stroke-linecap="round"/>
<path d="M147.498 108.742H174.852" stroke="#282828" stroke-width="2" stroke-linecap="round"/>
<path d="M144.772 22.2594C156.303 20.0746 162.938 16.9885 175.166 7.0625C182.808 16.3543 188.861 19.6654 202.52 22.2594C205.099 53.6151 199.148 66.9466 175.166 83.047C151.153 70.374 142.648 58.7478 144.772 22.2594Z" stroke="#282828" stroke-width="2"/>
<path d="M172.319 57.0018L172.177 56.9965C171.821 56.9754 171.474 56.8763 171.157 56.7057C170.84 56.535 170.561 56.2967 170.338 56.0062L160.207 42.7665C159.833 42.2142 159.674 41.5332 159.764 40.8629C159.855 40.1926 160.186 39.5837 160.692 39.1608C161.197 38.7379 161.838 38.5329 162.484 38.5879C163.129 38.6429 163.73 38.9536 164.163 39.4565L172.527 50.3872L188.255 33.9435C188.733 33.4612 189.373 33.1943 190.037 33.2003C190.701 33.2063 191.336 33.4848 191.806 33.9758C192.276 34.4667 192.542 35.1309 192.548 35.8251C192.553 36.5194 192.298 37.1883 191.837 37.6877L174.107 56.2233C173.873 56.4708 173.595 56.6671 173.288 56.8008C172.981 56.9345 172.652 57.0028 172.319 57.0018Z" stroke="#282828" stroke-width="2"/>
<path d="M176.87 193.039C176.466 197.036 174.665 200.91 171.494 203.863C164.559 210.325 153.699 209.94 147.237 203.005C140.776 196.069 141.161 185.209 148.096 178.748C154.452 172.827 164.104 172.655 170.646 178.006" stroke="#282828" stroke-width="2" stroke-linecap="round"/>
</svg>
