<svg width="246" height="247" viewBox="0 0 246 247" fill="none" xmlns="http://www.w3.org/2000/svg">
<path d="M84.8825 185.629L43.0206 171.728C36.596 169.823 29.8614 170.498 24.1059 173.324C18.305 176.172 20.0017 183.84 25.7582 186.776C126.282 238.064 97.1909 237.504 189.69 206.32C192.506 205.37 195.689 205.652 198.262 207.138L212.489 215.352" stroke="#282828" stroke-width="2"/>
<path d="M146.967 190.628H95.9189C95.3037 190.628 94.6906 190.698 94.0775 190.748C90.6077 191.031 87.2236 189.409 85.2809 186.462C83.1672 183.257 83.1672 179.1 85.2809 175.894C87.2236 172.948 90.6077 171.325 94.0775 171.609C94.6906 171.659 95.3037 171.728 95.9189 171.728H118.945C121.756 171.728 124.419 170.556 126.513 168.681C137.337 158.986 151.253 153.347 165.866 152.83H183.498C190.519 152.83 197.417 154.678 203.498 158.189L221.717 168.708" stroke="#282828" stroke-width="2"/>
<path d="M211.816 221.234L222.384 166.56C222.914 163.815 226.026 162.447 228.407 163.913L242.011 172.284C243.32 173.09 244.052 174.575 243.893 176.104L237.919 233.548C237.614 236.475 234.361 238.082 231.852 236.546L213.655 225.405C212.233 224.534 211.5 222.872 211.816 221.234Z" stroke="#282828" stroke-width="2"/>
<rect x="86.3564" y="83.3569" width="70.6104" height="60.0077" rx="30.0038" stroke="#282828" stroke-width="2"/>
<path d="M158.852 29.9949C148.36 22.1982 135.362 17.5852 121.287 17.5852C86.4703 17.5852 58.2461 45.8094 58.2461 80.6257C58.2461 115.442 86.4703 143.666 121.287 143.666C156.103 143.666 184.327 115.442 184.327 80.6257C184.327 72.1796 182.666 64.1214 179.653 56.76" stroke="#282828" stroke-width="2"/>
<circle cx="122.539" cy="62.558" r="20.8797" stroke="#282828" stroke-width="2"/>
<path d="M177.448 9.64585C178.047 7.80323 180.654 7.80323 181.252 9.64585L187.526 28.9553C187.794 29.7793 188.562 30.3372 189.428 30.3372H209.731C211.669 30.3372 212.474 32.8165 210.907 33.9553L194.481 45.8891C193.78 46.3984 193.487 47.3012 193.755 48.1252L200.029 67.4346C200.628 69.2773 198.519 70.8095 196.951 69.6707L180.526 57.7368C179.825 57.2275 178.876 57.2275 178.175 57.7368L161.749 69.6707C160.182 70.8095 158.073 69.2773 158.671 67.4346L164.945 48.1252C165.213 47.3012 164.92 46.3984 164.219 45.8891L147.793 33.9553C146.226 32.8165 147.031 30.3372 148.969 30.3372H169.272C170.138 30.3372 170.906 29.7793 171.174 28.9553L177.448 9.64585Z" stroke="#282828" stroke-width="2"/>
</svg>
