<svg width="250" height="250" viewBox="0 0 250 250" fill="none" xmlns="http://www.w3.org/2000/svg">
<path d="M12.4963 227.851L22.3482 209.084L26.9749 200.25C27.3298 199.573 28.3268 199.115 29.4501 199.115L141.886 199.153" stroke="#282828" stroke-width="2"/>
<path fill-rule="evenodd" clip-rule="evenodd" d="M42.2886 93.8784H102.104V199.153H42.2886V93.8784Z" stroke="#282828" stroke-width="2"/>
<path d="M165.657 227.864H12.3811" stroke="#282828" stroke-width="2"/>
<path d="M72.2158 93.8784V199.153" stroke="#282828" stroke-width="2"/>
<path d="M102.124 93.8784V199.153" stroke="#282828" stroke-width="2"/>
<path d="M151.97 93.8784V155.824" stroke="#282828" stroke-width="2"/>
<path d="M181.877 93.8784V140.113" stroke="#282828" stroke-width="2"/>
<path d="M206.801 93.8792L206.801 145.038" stroke="#282828" stroke-width="2"/>
<path fill-rule="evenodd" clip-rule="evenodd" d="M230.402 68.8906C231.153 66.7279 230.21 64.3572 228.149 63.2249L129.494 9.06566C127.951 8.21086 126.051 8.21086 124.509 9.06566L25.8137 63.1866C23.7528 64.3189 22.81 66.6896 23.5606 68.8523L31.1771 90.606C31.8548 92.5593 33.7579 93.8775 35.9025 93.8791H218.14C220.284 93.8775 222.188 92.5593 222.865 90.606L230.402 68.8906Z" stroke="#282828" stroke-width="2"/>
<path d="M230.04 65.1682H23.9663" stroke="#282828" stroke-width="2"/>
<rect x="161.345" y="188.593" width="51.5422" height="43.8027" rx="21.9014" stroke="#282828" stroke-width="2"/>
<path fill-rule="evenodd" clip-rule="evenodd" d="M140.826 186.599C140.826 161.185 161.428 140.582 186.842 140.582C212.257 140.582 232.859 161.185 232.859 186.599C232.859 212.013 212.257 232.615 186.842 232.615C161.428 232.615 140.826 212.013 140.826 186.599Z" stroke="#282828" stroke-width="2"/>
<circle cx="187.757" cy="173.41" r="15.2412" stroke="#282828" stroke-width="2"/>
</svg>
